<?xml version="1.0" encoding="utf-8" ?>
<svg baseProfile="full" height="200mm" version="1.1" viewBox="0,0,200,200" width="200mm" xmlns="http://www.w3.org/2000/svg" xmlns:ev="http://www.w3.org/2001/xml-events" xmlns:xlink="http://www.w3.org/1999/xlink"><defs /><rect fill="#1a1a1a" height="200" width="200" x="0" y="0" /><text alignment-baseline="middle" fill="#e1ed5e" style="dominant-baseline: central; font-size:9.0px; font-family:Arial;" text-anchor="middle" x="100.0" y="100.0">2022</text><line stroke="#e1ed5e" stroke-width="0.3" x1="100.0" x2="100.0" y1="15.0" y2="10.0" /><path d="M 100.0 14.0 a86.0,86.0 0 0,1 42.46469731375804,11.215312516191453" fill="none" id="id85" stroke="none" /><text fill="#e1ed5e" style="font-size:6.75px; font-family:Arial;" text-anchor="middle"><textPath startOffset="22.20632615414155" xlink:href="#id85">January</textPath></text><path d="M 100.0 79.0 l 0.0 -20.17987521209723 a41.17987521209723,41.17987521209723 0 0,0 0.7088438584786579,0.0061012428799186915 l -0.3473633792061296 20.17688534582587" fill="#ff970d" stroke="none" /><path d="M 100.36148047927253 79.00311137660856 l 0.8821351465908533 -51.23953985294736 a72.24713266865407,72.24713266865407 0 0,0 1.2432471157140148,0.03210940506262227 l -1.764008897499736 51.21676365574238" fill="#3cffa0" stroke="none" /><path d="M 101.08401301168833 79.027996857942 l 1.3255426844244342 -25.64478935486612 a46.67902421167295,46.67902421167295 0 0,0 0.8020744504145818,0.04838332121932137 l -1.766779183678628 25.618172764266493" fill="#ffeb16" stroke="none" /><path d="M 101.44485096284872 79.0497635885617 l 1.794450437001843 -26.019403973455823 a47.08120847477633,47.08120847477633 0 0,0 0.8080252109993464,0.0627183077586719 l -2.2420658373635307 25.984660403508688" fill="#fff116" stroke="none" /><path d="M 101.80526077348638 79.07773832637324 l 1.4278122217746936 -16.54778155240185 a37.60926615015426,37.60926615015426 0 0,0 0.6445061845721879,0.06120362818406008 l -1.7124435334371257 16.520752379702614" fill="#ff5e08" stroke="none" /><path d="M 102.52436894288641 79.15227682838746 l 2.924644709654468 -24.153435833543753 a45.32985838928836,45.32985838928836 0 0,0 0.7738136472088061,0.10046322000808122 l -3.33997308537112 24.099514290371534" fill="#ffd714" stroke="none" /><path d="M 102.88285421437855 79.19881850522331 l 6.2341749156085235 -44.982574298406185 a66.41251950057423,66.41251950057423 0 0,0 1.131008431490102,0.16668124278321303 l -7.007552327527281 44.868598571462" fill="#33ff52" stroke="none" /><path d="M 103.59715602781102 79.31037775812273 l 6.092211495996899 -35.040335613826606 a56.5659972563903,56.5659972563903 0 0,0 0.9578640287643959,0.17504352874390325 l -6.694470645864197 34.93027660373197" fill="#8aff24" stroke="none" /><path d="M 104.66035177308747 79.52364482259891 l 8.651335386025552 -38.011683398250746 a59.9837617313972,59.9837617313972 0 0,0 1.0048031687613992,0.2378044461574735 l -9.304362241749475 37.8571330399524" fill="#5fff29" stroke="none" /><path d="M 105.01212808612495 79.60689891045804 l 3.9588863733366857 -16.107722832734584 a37.58708883961227,37.58708883961227 0 0,0 0.626972529558213,0.1598292579100934 l -4.235567791579924 16.037190578655622" fill="#ff5d08" stroke="none" /><path d="M 105.36241919743992 79.69619591428918 l 16.08725759231978 -60.91141225713248 a84.0,84.0 0 0,0 1.3948084431051566,0.3812538366948255 l -17.13336392464865 60.62547187961136" fill="#4dd2ff" stroke="none" /><path d="M 106.0581310904928 79.89281104454417 l 7.4902538997714245 -24.86046409979434 a46.9643328190848,46.9643328190848 0 0,0 0.7720368880966735,0.2398756192146404 l -7.917076160578817 24.72784834569718" fill="#ffef16" stroke="none" /><path d="M 106.40334571778207 80.00007090966166 l 11.344248564849082 -35.43212827789347 a58.20386659746778,58.20386659746778 0 0,0 0.9515422483248317,0.31370851875617234 l -11.95247363541633 35.23160603487806" fill="#75ff27" stroke="none" /><path d="M 107.08798089147638 80.2323363322302 l 5.397149866828272 -15.052106511786485 a36.99047019718837,36.99047019718837 0 0,0 0.5975152985175746,0.22006992708305956 l -5.655447491118423 14.956973316897102" fill="#ff5307" stroke="none" /><path d="M 107.4271985657038 80.35727306442388 l 7.9569043604930325 -21.04364091292461 a43.497714325551996,43.497714325551996 0 0,0 0.6980696196069608,0.270840167245267 l -8.31795714509966 20.903558041788795" fill="#ffbb11" stroke="none" /><path d="M 107.76421540070413 80.48803036053334 l 13.363492991829794 -33.58331216701706 a57.14445740428261,57.14445740428261 0 0,0 0.910817697944414,0.3715454082619499 l -13.939594559362597 33.34830587257153" fill="#83ff25" stroke="none" /><path d="M 108.43124777332544 80.76684994638697 l 10.360445302637856 -23.63398686470946 a46.805118910600086,46.805118910600086 0 0,0 0.7351031030478364,0.3298193345964311 l -10.765730524152474 23.4521471995965" fill="#ffed16" stroke="none" /><path d="M 108.76106565485865 80.91482961587045 l 10.782182100177895 -23.48798543479549 a46.844552823110746,46.844552823110746 0 0,0 0.7299313507451793,0.3427125564857104 l -11.184891662222672 23.298907895669775" fill="#ffed16" stroke="none" /><path d="M 109.41281617654863 81.2277094730956 l 17.07548528082573 -34.05420488059231 a59.095420559760896,59.095420559760896 0 0,0 0.9053967522207096,0.46377938228809185 l -17.659142520635196 33.75523297299171" fill="#6aff28" stroke="none" /><path d="M 109.73455568895987 81.39251694778311 l 7.324272493053222 -14.00025647178442 a36.80038445191248,36.80038445191248 0 0,0 0.5587611843883246,0.2984708735749896 l -7.5641787239698575 13.872106871707675" fill="#ff5007" stroke="none" /><path d="M 110.05341064243156 81.56283822128135 l 27.30183529586954 -50.06941147727067 a78.02925719490858,78.02925719490858 0 0,0 1.173693461689248,0.6531591406991178 l -28.159652846630824 49.59203693901137" fill="#44ffe8" stroke="none" /><line stroke="#e1ed5e" stroke-width="0.3" x1="143.23703022742887" x2="145.7803849466894" y1="26.81831364943548" y2="22.513508569990506" /><path d="M 143.74570117128098 25.957352633546492 a86.0,86.0 0 0,1 28.547481713284135,27.462654790039103" fill="none" id="id86" stroke="none" /><text fill="#e1ed5e" style="font-size:6.75px; font-family:Arial;" text-anchor="middle"><textPath startOffset="19.985693538727396" xlink:href="#id86">February</textPath></text><path d="M 110.68208982089419 81.91981866633111 l 13.162691956168025 -22.278773292211575 a46.87663422740157,46.87663422740157 0 0,0 0.6911801983259139,0.41642833582333905 l -13.544234220711578 22.048898346929622" fill="#ffee16" stroke="none" /><path d="M 110.99172775467656 82.1063720568725 l 18.044485407716405 -29.374936817689743 a55.47448863540335,55.47448863540335 0 0,0 0.8093486118966727,0.5068140265199121 l -18.54745317198534 29.059978449846888" fill="#98ff23" stroke="none" /><path d="M 111.90073688211348 82.69761687909136 l 20.2237382478359 -29.403126106161558 a56.6867400238775,56.6867400238775 0 0,0 0.7991989771232025,0.5598899569167837 l -20.726868364542753 29.05065130648084" fill="#89ff24" stroke="none" /><path d="M 112.19680574252982 82.90503203632743 l 28.865361815588543 -40.457513705957695 a70.69929102122677,70.69929102122677 0 0,0 0.984587561410681,0.7153447359099454 l -29.55749469335301 39.95464973523107" fill="#39ff8c" stroke="none" /><path d="M 112.77801427241765 83.33499621200491 l 12.293353326558988 -16.032912108768972 a41.203485013708146,41.203485013708146 0 0,0 0.5591262782325294,0.43640692887455773 l -12.567512159950947 15.81892679067119" fill="#ff970e" stroke="none" /><path d="M 113.06298171725822 83.55741782278167 l 16.02815148598024 -20.174888372457215 a46.76679570491139,46.76679570491139 0 0,0 0.6259993967942544,0.5061813102009738 l -16.373054281338984 19.896000964992112" fill="#ffec16" stroke="none" /><path d="M 114.68862486808459 84.99185889309783 l 19.17765567808848 -19.594820148325287 a48.41786742167476,48.41786742167476 0 0,0 0.5906154412227608,0.5880791508211811 l -19.512106919478565 19.261805146853984" fill="#faff18" stroke="none" /><path d="M 115.19652480421416 85.50635884689758 l 14.922221007288623 -14.232024707843186 a41.62094098422826,41.62094098422826 0 0,0 0.4900027000780986,0.5227007159930755 l -15.164991029337186 13.973054574972055" fill="#ff9e0e" stroke="none" /><path d="M 115.4437574822437 85.77008943001954 l 9.599868595003901 -8.84533907940021 a34.05363935731744,34.05363935731744 0 0,0 0.3934920071533873,0.4345037023391044 l -9.750704242773324 8.678782589791558" fill="#ff2203" stroke="none" /><path d="M 115.9244219780498 86.31012108654704 l 24.690613471918518 -21.225982908224196 a53.56023255506493,53.56023255506493 0 0,0 0.5950016092504014,0.7042942321840453 l -25.052325694656037 20.79782972641104" fill="#b2ff20" stroke="none" /><path d="M 116.38621287248628 86.86637796730983 l 19.822738554233272 -15.888012553606774 a46.404131685476926,46.404131685476926 0 0,0 0.49419498547796437,0.6275774452704885 l -20.0932876203052 15.544442714383248" fill="#ffe715" stroke="none" /><path d="M 116.82858285166822 87.43820079747576 l 16.77436050266663 -12.521324596524995 a41.93233718257386,41.93233718257386 0 0,0 0.4267861047905267,0.582135767302407 l -16.987409219970786 12.230726385551094" fill="#ffa30f" stroke="none" /><path d="M 117.04232023915458 87.72973835380427 l 18.48592343327857 -13.30963824847838 a43.77884622816521,43.77884622816521 0 0,0 0.43505203463640285,0.6153502501239905 l -18.712288087718854 12.989461498022596" fill="#ffbf11" stroke="none" /><path d="M 117.2510076193507 88.02491185347247 l 9.10694072728313 -6.321741915648271 a32.08606288356297,32.08606288356297 0 0,0 0.3110446379099025,0.4564196252403796 l -9.214409830861765 6.164044267137485" fill="#ff0000" stroke="none" /><path d="M 117.45458315368197 88.32363383020206 l 37.67715540192343 -25.204398113422528 a66.33022968660742,66.33022968660742 0 0,0 0.6266733689192651,0.9544665344525998 l -38.105425406200624 24.552113514992254" fill="#33ff51" stroke="none" /><line stroke="#e1ed5e" stroke-width="0.3" x1="172.23445277983987" x2="176.4835382374775" y1="55.19839476539836" y2="52.563006222186495" /><path d="M 173.08426987136738 54.67131705675599 a86.0,86.0 0 0,1 12.851231095245387,41.99856678651699" fill="none" id="id87" stroke="none" /><text fill="#e1ed5e" style="font-size:6.75px; font-family:Arial;" text-anchor="middle"><textPath startOffset="22.20632615414155" xlink:href="#id87">March</textPath></text><path d="M 117.84615892207809 88.93136811851018 l 17.47075477857591 -10.835796889413677 a41.55825300850634,41.55825300850634 0 0,0 0.371816151958207,0.6111679913447867 l -17.654686728820337 10.53346112486181" fill="#ff9d0e" stroke="none" /><path d="M 118.03404312379186 89.2402003453031 l 20.19310952059584 -12.047981218383574 a44.514155811963604,44.514155811963604 0 0,0 0.38693469012354326,0.6613968121437691 l -20.39750388518971 11.69860499388591" fill="#ffcb12" stroke="none" /><path d="M 118.56541770881063 90.18545643968196 l 26.18331750669978 -13.841719817658008 a50.61687564830561,50.61687564830561 0 0,0 0.40057367884075296,0.7737808474791521 l -26.41770061870065 13.388966247918512" fill="#daff1b" stroke="none" /><path d="M 118.73160827565052 90.50648371742162 l 34.23325154571496 -17.350028154139387 a59.37888727336457,59.37888727336457 0 0,0 0.45422017535401543,0.9156801566228977 l -34.52683173402238 16.75818840901754" fill="#67ff28" stroke="none" /><path d="M 119.04729006885535 91.15688171328212 l 31.72622878230678 -14.729591080893979 a55.97877136432357,55.97877136432357 0 0,0 0.3982427971937372,0.877475214533214 l -31.975073896463865 14.181293857518702" fill="#92ff23" stroke="none" /><path d="M 119.34039704204932 91.81776055985345 l 27.4487490268439 -11.612597010383212 a50.80413113083864,50.80413113083864 0 0,0 0.33380325298312097,0.8083310541351513 l -27.644573966713217 11.138391385794757" fill="#d8ff1c" stroke="none" /><path d="M 119.61058180528143 92.48833698450437 l 27.88223941204678 -10.680049610984037 a50.85770812242251,50.85770812242251 0 0,0 0.30610385457132516,0.8202061449895168 l -28.06194785511973 10.198520328965186" fill="#d7ff1c" stroke="none" /><path d="M 119.85752413597 93.16781622104841 l 14.133192288786189 -4.862669003399996 a35.94632644191985,35.94632644191985 0 0,0 0.1962715747044719,0.5868270264488076 l -14.21480115726243 4.618668874028875" fill="#ff4206" stroke="none" /><path d="M 119.97218684219823 93.5106431181261 l 26.32144037557549 -8.552354411244545 a48.67600024245754,48.67600024245754 0 0,0 0.25205943326022495,0.79909728488642 l -26.464755292603925 8.098006959931707" fill="#f6ff19" stroke="none" /><path d="M 120.18372546131832 94.20196356495316 l 33.8454051781218 -9.722530796297107 a56.21418828762321,56.21418828762321 0 0,0 0.25915605276739667,0.9323222080027576 l -34.00774800145556 9.138497284875397" fill="#8fff24" stroke="none" /><path d="M 120.37134235888165 94.90015583598534 l 55.49844488226976 -13.893704953681318 a78.21112148603873,78.21112148603873 0 0,0 0.3157017979443982,1.3087877685083023 l -55.729379480474975 12.936331953513609" fill="#44ffea" stroke="none" /><path d="M 120.45610955862082 95.25157060432595 l 12.903479780020612 -2.995254914838587 a34.246559645367,34.246559645367 0 0,0 0.12835221285523296,0.575377802890225 l -12.953126379877883 2.7726989423983985" fill="#ff2503" stroke="none" /><path d="M 120.6074358757038 95.95851677861258 l 32.11375903245887 -6.2980770188095505 a53.725514408939254,53.725514408939254 0 0,0 0.17016731897528659,0.9090406223379562 l -32.217412075344015 5.744358319009032" fill="#b0ff20" stroke="none" /><path d="M 120.73433829027371 96.67025291283417 l 32.11315740340312 -5.157082460347366 a53.52461187959923,53.52461187959923 0 0,0 0.13825689287700454,0.9109401806970508 l -32.19717018971943 4.603543167258233" fill="#b2ff20" stroke="none" /><path d="M 120.83666639777658 97.38593545837742 l 49.01348142180959 -6.148987625962143 a70.39768628094143,70.39768628094143 0 0,0 0.14049248482849272,1.2036538126959349 l -49.11206425964167 5.304390074941356" fill="#39ff88" stroke="none" /><path d="M 120.91429891909075 98.10471618934814 l 18.243025887843515 -1.65320921137699 a39.317780821953036,39.317780821953036 0 0,0 0.05527989399238731,0.6745547255440464 l -18.268780265655398 1.338940568625175" fill="#ff790b" stroke="none" /><path d="M 120.94382443527127 98.46500227214037 l 41.58129808923347 -3.0475426436891246 a62.69282752405736,62.69282752405736 0 0,0 0.06961712791062524,1.076946155507215 l -41.627595808148506 2.331337423928874" fill="#3fff2d" stroke="none" /><path d="M 120.98425023603335 99.18683210126433 l 31.606828211250484 -1.2248070716440413 a52.63055076880971,52.63055076880971 0 0,0 0.027288453225642134,0.9055709119159578 l -31.623228358931772 0.6805660123030846" fill="#beff1e" stroke="none" /><line stroke="#e1ed5e" stroke-width="0.3" x1="184.98032266829074" x2="189.97916517819016" y1="98.17113171792111" y2="98.06355123074" /><path d="M 185.9800911702706 98.14961562048488 a86.0,86.0 0 0,1 -9.607161424134198,41.387399972396054" fill="none" id="id88" stroke="none" /><text fill="#e1ed5e" style="font-size:6.75px; font-family:Arial;" text-anchor="middle"><textPath startOffset="21.466115282336823" xlink:href="#id88">April</textPath></text><path d="M 120.99980553446 99.90962569577887 l 15.535700346637995 -0.06685910053364132 a36.53584421265391,36.53584421265391 0 0,0 -0.0027066148510438734,0.6289219708905309 l -15.534549434497448 -0.20057234856057432" fill="#ff4c07" stroke="none" /><path d="M 120.99824983174949 100.27111621757518 l 29.630725017309672 0.3825733170655443 a50.63319468761935,50.63319468761935 0 0,0 -0.018753419730386515,0.8713977247232138 l -29.61974953489428 -0.8925608575788729" fill="#daff1c" stroke="none" /><path d="M 120.9764740272857 100.99374915477107 l 22.595420161277016 1.07044585556935 a43.62076184823025,43.62076184823025 0 0,0 -0.04198737019137025,0.7497127002868091 l -22.573646440198115 -1.4592302721915824" fill="#ffbd11" stroke="none" /><path d="M 120.92983693683757 101.71520430193887 l 25.119223956513505 2.0585254018748147 a46.203431095937034,46.203431095937034 0 0,0 -0.0717812187090132,0.7920997670214786 l -25.080068141527416 -2.4906065574448637" fill="#ffe415" stroke="none" /><path d="M 120.8583938346157 102.4346265915055 l 47.58007503853598 5.553625884769926 a68.9030928139374,68.9030928139374 0 0,0 -0.14764453261197752,1.176872193668911 l -47.477428996677155 -6.371815832726232" fill="#37ff74" stroke="none" /><path d="M 120.70491114924044 103.5080841355445 l 27.545074608191147 4.667029892032638 a48.93765028029277,48.93765028029277 0 0,0 -0.14786990542119882,0.8293329579967361 l -27.46065826043076 -5.140481600762593" fill="#f2ff19" stroke="none" /><path d="M 120.5718875245553 104.21870165774334 l 27.894265993964584 5.720310596186571 a49.47476125727648,49.47476125727648 0 0,0 -0.17826454140050027,0.8327925901015027 l -27.79166741383964 -6.199617005704243" fill="#eaff1a" stroke="none" /><path d="M 120.41448212921028 104.9243191809786 l 41.06430729878615 9.905407093118098 a63.242093030643446,63.242093030643446 0 0,0 -0.26437810611379425,1.0560591144803155 l -40.88771787837729 -10.610794046995808" fill="#38ff2e" stroke="none" /><path d="M 120.32669344350535 105.2749913415812 l 24.399939445586227 6.332041641120804 a46.20816923723662,46.20816923723662 0 0,0 -0.20642272594618474,0.7681757543846673 l -24.287328643298267 -6.75110832868102" fill="#ffe415" stroke="none" /><path d="M 120.13307415673323 105.97154293290107 l 29.90611933287688 8.87026363497557 a52.1938703995872,52.1938703995872 0 0,0 -0.26289114893147447,0.859143485488137 l -29.749001411439274 -9.383734093015766" fill="#c4ff1e" stroke="none" /><path d="M 119.9155931802556 106.66101706037122 l 22.1115453007041 7.395480473319794 a44.315522018954326,44.315522018954326 0 0,0 -0.24818627242696084,0.7213454810917023 l -21.98096819733391 -7.774998657500797" fill="#ffc812" stroke="none" /><path d="M 119.67450827220406 107.3425965602758 l 28.512265661964197 10.640879094852963 a51.43316613646535,51.43316613646535 0 0,0 -0.31669536190773834,0.8267916557536336 l -28.324876020462952 -11.13009431743974" fill="#cfff1d" stroke="none" /><path d="M 119.41010516605496 108.01547362559984 l 25.971905955477197 10.725193161588523 a49.09928232737514,49.09928232737514 0 0,0 -0.3293136066653617,0.7784000884901108 l -25.783441367619528 -11.170667775744798" fill="#f0ff19" stroke="none" /><path d="M 119.26925614724726 108.34839909993367 l 16.252049159905027 7.041195131863532 a38.71179072767484,38.71179072767484 0 0,0 -0.2701694312932377,0.6091607449193857 l -16.128438643880518 -7.319904213275605" fill="#ff700a" stroke="none" /><path d="M 119.12269723197855 108.67885076344098 l 20.785790250184387 9.433646801658432 a43.82636125849017,43.82636125849017 0 0,0 -0.3176897445280779,0.68427544670702 l -20.620325888816478 -9.790042315644282" fill="#ffc011" stroke="none" /><path d="M 118.81262510543309 109.33194174019688 l 11.813603885048536 5.860099937100112 a34.18719105896455,34.18719105896455 0 0,0 -0.266043630434617,0.5249293224132584 l -11.71098158482765 -6.0625834712160644" fill="#ff2403" stroke="none" /><path d="M 118.64920377521936 109.65438752849418 l 36.832477307811146 19.06757059712027 a62.47533764909683,62.47533764909683 0 0,0 -0.5026215044579911,0.950770468575013 l -36.49880329512826 -19.69875608078142" fill="#41ff2d" stroke="none" /><line stroke="#e1ed5e" stroke-width="0.3" x1="174.80103733775053" x2="179.2010983576182" y1="140.37084112569926" y2="142.7455964860345" /><path d="M 175.68104954172406 140.8457921977663 a86.0,86.0 0 0,1 -30.038265399797805,32.042727171017184" fill="none" id="id89" stroke="none" /><text fill="#e1ed5e" style="font-size:6.75px; font-family:Arial;" text-anchor="middle"><textPath startOffset="22.206326154141568" xlink:href="#id89">May</textPath></text><path d="M 118.48025628344425 109.97397251340804 l 17.211670795987267 9.289304693398458 a40.55844557413077,40.55844557413077 0 0,0 -0.3368737954335914,0.6115237903203745 l -17.049220591102166 -9.584199002116637" fill="#ff8d0d" stroke="none" /><path d="M 118.30583269289576 110.29060199501025 l 16.39476494267654 9.216297540636107 a39.807670187536544,39.807670187536544 0 0,0 -0.34092047719299423,0.5944235882585268 l -16.23369246933117 -9.497140974752948" fill="#ff810b" stroke="none" /><path d="M 118.12598468904814 110.60418214915192 l 34.052884258101 19.921841134240427 a60.452232895915245,60.452232895915245 0 0,0 -0.533186173288964,0.8936506952436907 l -33.70491720911381 -20.50505392337022" fill="#59ff2a" stroke="none" /><path d="M 117.75023020441432 111.22182372390056 l 22.165604018679776 14.013254936240036 a47.22375479257249,47.22375479257249 0 0,0 -0.44029435816478124,0.6833466215270737 l -21.921104797137943 -14.392723157688563" fill="#fff316" stroke="none" /><path d="M 117.55443506779139 111.5257021239791 l 14.605559001867878 9.589560800996505 a38.4723218294837,38.4723218294837 0 0,0 -0.36822939120788334,0.5504529778359033 l -14.438326505249274 -9.839550693038216" fill="#ff6c09" stroke="none" /><path d="M 117.35343817320211 111.8261652097733 l 29.855981505229494 20.34650230442653 a57.12976318306888,57.12976318306888 0 0,0 -0.5607941693618957,0.8078658269713626 l -29.50132642870546 -20.857409393584913" fill="#83ff25" stroke="none" /><path d="M 117.14729908036423 112.12312394758627 l 23.355391893079716 16.512239591626848 a49.602943673870755,49.602943673870755 0 0,0 -0.4989116219798219,0.6929446068863849 l -23.067700478724294 -16.911817803964365" fill="#e9ff1a" stroke="none" /><path d="M 116.71984013943494 112.70617746262583 l 21.724427378520904 16.50939406378455 a48.285725888785755,48.285725888785755 0 0,0 -0.5085939710607825,0.6574262667532985 l -21.437026590242052 -16.880898324651103" fill="#fcff18" stroke="none" /><path d="M 116.498646956653 112.99209946851258 l 15.745018505970354 12.398643785795409 a41.04075785693725,41.04075785693725 0 0,0 -0.441837153673692,0.551259784776035 l -15.529263440241808 -12.667831404149695" fill="#ff950d" stroke="none" /><path d="M 116.0416608686014 113.55231037782055 l 22.541776854518517 19.043736113257022 a50.50924582076398,50.50924582076398 0 0,0 -0.5668039101711367,0.6593209992167282 l -22.2106304347766 -19.428934211635276" fill="#dcff1b" stroke="none" /><path d="M 115.80600337817218 113.82643327865902 l 26.63990986676782 23.303483335390133 a56.39402680216422,56.39402680216422 0 0,0 -0.6454192987902186,0.72513542423382 l -26.234831718329264 -23.75859292936482" fill="#8cff24" stroke="none" /><path d="M 115.56566222782051 114.09645910891815 l 10.690492114489018 9.68144385638561 a35.42279365429245,35.42279365429245 0 0,0 -0.4131876449735848,0.4484335830678518 l -10.522258061519711 -9.864028694254795" fill="#ff3905" stroke="none" /><path d="M 115.07121518719521 114.62390073753431 l 25.380293316557044 24.627004892490664 a56.36451129040566,56.36451129040566 0 0,0 -0.6816331455410299,0.6904907776948099 l -24.95261954596048 -25.060236164166138" fill="#8dff24" stroke="none" /><path d="M 114.81725581225074 114.88116024355365 l 9.62682076487751 9.66833968808635 a34.64377038663809,34.64377038663809 0 0,0 -0.4262009394890476,0.41712732269692804 l -9.458969873012668 -9.832617113705851" fill="#ff2c04" stroke="none" /><path d="M 114.29624159901734 115.38237550388516 l 20.006626447236936 21.526597633780316 a50.38808444737351,50.38808444737351 0 0,0 -0.6404096400240807,0.5849990221959886 l -19.63311725774599 -21.867789422562886" fill="#deff1b" stroke="none" /><path d="M 114.0293411484842 115.62618273729858 l 23.27763502419616 25.92713191093304 a55.843427808506526,55.843427808506526 0 0,0 -0.7207994355906956,0.6360216959954567 l -22.827893235698877 -26.323976748700783" fill="#94ff23" stroke="none" /><path d="M 111.7513745106137 117.40417183066458 l 19.854481491160865 29.40513955782923 a56.48045472789579,56.48045472789579 0 0,0 -0.8104280969612865,0.5371075513725233 l -19.345378695459612 -29.742545130293074" fill="#8bff24" stroke="none" /><path d="M 111.45004920935366 117.60387380957326 l 8.588883842931507 13.204976203292988 a36.752470352198856,36.752470352198856 0 0,0 -0.53329269219265,0.3403726280277822 l -8.360309348691926 -13.350863260144578" fill="#ff4f07" stroke="none" /><path d="M 111.1453310114006 117.79835938074945 l 15.172127412873119 24.22888795214896 a49.587277968184466,49.587277968184466 0 0,0 -0.7273291920447229,0.44678499476988426 l -14.752819020896087 -24.48646141374722" fill="#e9ff1a" stroke="none" /><line stroke="#e1ed5e" stroke-width="0.3" x1="143.8653032363475" x2="146.44561519142675" y1="172.8068346515853" y2="177.08958963109032" /><path d="M 144.38136562736335 173.6633856474863 a86.0,86.0 0 0,1 -40.68145358897372,12.25698825130547" fill="none" id="id90" stroke="none" /><text fill="#e1ed5e" style="font-size:6.75px; font-family:Arial;" text-anchor="middle"><textPath startOffset="21.466115282336833" xlink:href="#id90">June</textPath></text><path d="M 110.8373102113329 117.98757091392108 l 6.780596222028839 11.254310618041087 a34.13910166691559,34.13910166691559 0 0,0 -0.505961204427269,0.2989307978629179 l -6.585867146573188 -11.369359988197756" fill="#ff2303" stroke="none" /><path d="M 110.5260780823613 118.17145234162733 l 15.203681431635514 26.2465250961043 a51.33202941932985,51.33202941932985 0 0,0 -0.768394606876363,0.43631451165177976 l -14.749638057837952 -26.50434277355071" fill="#d0ff1d" stroke="none" /><path d="M 110.21172684928248 118.3499491758327 l 5.989907194866802 10.763555881979293 a33.31799997676604,33.31799997676604 0 0,0 -0.5035415784184016,0.27457101717367205 l -5.803742804579753 -10.865067550912736" fill="#ff1502" stroke="none" /><path d="M 109.89434966115114 118.52300852407294 l 17.024073595040186 31.870418078461853 a57.13229345426737,57.13229345426737 0 0,0 -0.871428254901323,0.4558900767215494 l -16.472954437612366 -32.15873757412812" fill="#83ff25" stroke="none" /><path d="M 109.57404056367764 118.69057910512821 l 7.740980120671404 15.112052255715238 a37.97930789543843,37.97930789543843 0 0,0 -0.5844221397773434,0.29304139328896567 l -7.4797040732113 -15.243061489913504" fill="#ff6409" stroke="none" /><path d="M 108.92500713936063 119.00905698771935 l 14.209601978103493 30.26452859441961 a54.43433085046813,54.43433085046813 0 0,0 -0.851591419683985,0.3909238528553988 l -13.686542562652088 -30.504639517609082" fill="#a6ff21" stroke="none" /><path d="M 108.59647513512805 119.15986991738527 l 6.142958641074568 13.691459187721291 a36.00639848714509,36.00639848714509 0 0,0 -0.5676654342441939,0.24884784422331804 l -5.90637253217262 -13.795171585239064" fill="#ff4306" stroke="none" /><path d="M 108.2653958097858 119.30500536409082 l 11.929705042602587 27.86351980467739 a51.30995873156456,51.30995873156456 0 0,0 -0.8149207451897252,0.3406369375813345 l -11.448312837915399 -28.064741785278702" fill="#d1ff1d" stroke="none" /><path d="M 107.93186726928326 119.44442032107085 l 5.05524099212456 12.392571299804334 a34.38399360838127,34.38399360838127 0 0,0 -0.5499456559317356,0.21883472608008162 l -4.841174260150958 -12.477752870290486" fill="#ff2803" stroke="none" /><path d="M 107.59598834532513 119.57807347666477 l 14.758575284335578 38.03908829131347 a61.80181101933764,61.80181101933764 0 0,0 -0.9950967960278025,0.37626046120960094 l -14.101608267547501 -38.287497002629706" fill="#49ff2c" stroke="none" /><path d="M 107.2578585660854 119.70592522655815 l 13.019350266138547 35.349041388288356 a58.670389013432356,58.670389013432356 0 0,0 -0.9506850357864354,0.3408818300795709 l -12.408945669722378 -35.56791075940789" fill="#6fff27" stroke="none" /><path d="M 106.57524785965236 119.94407469862006 l 12.051462752087932 36.55455710349247 a59.489912957779666,59.489912957779666 0 0,0 -0.9752908197029247,0.31225732179989946 l -11.420450587294068 -36.75658727195208" fill="#65ff29" stroke="none" /><path d="M 106.2309692047433 120.05430185196036 l 3.766524765053436 12.12251611093903 a33.69417605304642,33.69417605304642 0 0,0 -0.5553522641702642,0.1673230815704117 l -3.5572975264429263 -12.185554561615167" fill="#ff1c02" stroke="none" /><path d="M 105.88484417918355 120.15858648285463 l 6.547347754113966 22.427998416933736 a44.364136525951125,44.364136525951125 0 0,0 -0.7349000167300196,0.20769008544575893 l -6.16031656927934 -22.537377295718017" fill="#ffc812" stroke="none" /><path d="M 105.18746579009965 120.34920634021253 l 11.950360709146736 46.87845004674696 a69.37768286993568,69.37768286993568 0 0,0 -1.1597527468389577,0.2850390085288729 l -11.141654677564567 -47.077210313589866" fill="#37ff7b" stroke="none" /><path d="M 104.83641907484287 120.43548508189849 l 8.082029021239222 34.14927055310459 a56.092618488925694,56.092618488925694 0 0,0 -0.9415008469114149,0.2142825274934472 l -7.4930080249349444 -34.28332981417572" fill="#90ff24" stroke="none" /><path d="M 104.13013068566511 120.58985236759428 l 6.385373201190579 31.83286475191393 a53.46697197510306,53.46697197510306 0 0,0 -0.9039288858070795,0.17324012233380717 l -5.8364767008117955 -31.938062072596207" fill="#b3ff20" stroke="none" /><path d="M 103.7750983002368 120.6578951692458 l 3.173974016954648 17.36845435469749 a38.65608443940823,38.65608443940823 0 0,0 -0.6555906777123108,0.1139828427285796 l -2.8745343677702873 -17.420515775947077" fill="#ff6f0a" stroke="none" /><path d="M 103.41894727170886 120.7198165907248 l 6.403971502363942 38.80993312742388 a60.33473986641075,60.33473986641075 0 0,0 -1.0261621551805413,0.16026542454859283 l -5.734973483574883 -38.91441685931958" fill="#5bff2a" stroke="none" /><path d="M 102.70371172650421 120.8252237178851 l 5.670906092666568 43.67991117736312 a65.04649607374205,65.04649607374205 0 0,0 -1.1115906508315276,0.134598147388238 l -4.91818801878366 -43.771054853476706" fill="#31ff3e" stroke="none" /><path d="M 102.34483914955558 120.86867818915974 l 1.4612747720506858 13.005102277332387 a34.08694040650097,34.08694040650097 0 0,0 -0.5836453643631009,0.06049722839815326 l -1.2371968110819822 -13.028328874186299" fill="#ff2303" stroke="none" /><line stroke="#e1ed5e" stroke-width="0.3" x1="102.19456741930631" x2="102.32365962044197" y1="184.97166512339345" y2="189.96999836594603" /><path d="M 102.22038585953345 185.97133177190398 a86.0,86.0 0 0,1 -42.740103519485714,-10.115201625700543" fill="none" id="id91" stroke="none" /><text fill="#e1ed5e" style="font-size:6.75px; font-family:Arial;" text-anchor="middle"><textPath startOffset="22.20632615414155" xlink:href="#id91">July</textPath></text><line stroke="#e1ed5e" stroke-width="0.3" x1="58.666819895761336" x2="56.23545636021788" y1="174.27360380694188" y2="178.64263932499728" /><path d="M 58.180547188652646 175.14741091055294 a86.0,86.0 0 0,1 -31.652253787137756,-30.449443065178592" fill="none" id="id92" stroke="none" /><text fill="#e1ed5e" style="font-size:6.75px; font-family:Arial;" text-anchor="middle"><textPath startOffset="22.20632615414155" xlink:href="#id92">August</textPath></text><line stroke="#e1ed5e" stroke-width="0.3" x1="26.63291911575756" x2="22.317208475507996" y1="142.92168965132927" y2="145.44649492493687" /><path d="M 25.769776987707644 143.4266507060508 a86.0,86.0 0 0,1 -11.730757126820373,-40.83630448921669" fill="none" id="id93" stroke="none" /><text fill="#e1ed5e" style="font-size:6.75px; font-family:Arial;" text-anchor="middle"><textPath startOffset="21.46611528233685" xlink:href="#id93">September</textPath></text><line stroke="#e1ed5e" stroke-width="0.3" x1="15.007084014347285" x2="10.007500721073583" y1="101.09737516637583" y2="101.16192664675087" /><path d="M 14.007167355692545 101.11028546245083 a86.0,86.0 0 0,1 10.666146001902534,-42.60595125391555" fill="none" id="id94" stroke="none" /><text fill="#e1ed5e" style="font-size:6.75px; font-family:Arial;" text-anchor="middle"><textPath startOffset="22.20632615414155" xlink:href="#id94">October</textPath></text><line stroke="#e1ed5e" stroke-width="0.3" x1="26.266209847984243" x2="21.928928074336255" y1="57.711370442889674" y2="55.22380399835377" /><path d="M 25.398753493254645 57.213857153982495 a86.0,86.0 0 0,1 29.58750427330803,-30.492523968695096" fill="none" id="id95" stroke="none" /><text fill="#e1ed5e" style="font-size:6.75px; font-family:Arial;" text-anchor="middle"><textPath startOffset="21.46611528233685" xlink:href="#id95">November</textPath></text><line stroke="#e1ed5e" stroke-width="0.3" x1="56.762969772571076" x2="54.21961505331055" y1="26.818313649435495" y2="22.513508569990535" /><path d="M 56.25429882871897 25.957352633546506 a86.0,86.0 0 0,1 42.265352541879196,-11.944610805530505" fill="none" id="id96" stroke="none" /><text fill="#e1ed5e" style="font-size:6.75px; font-family:Arial;" text-anchor="middle"><textPath startOffset="22.20632615414155" xlink:href="#id96">December</textPath></text></svg>