<?xml version="1.0" encoding="utf-8" ?>
<svg baseProfile="full" height="200mm" version="1.1" viewBox="0,0,200,200" width="200mm" xmlns="http://www.w3.org/2000/svg" xmlns:ev="http://www.w3.org/2001/xml-events" xmlns:xlink="http://www.w3.org/1999/xlink"><defs /><rect fill="#1a1a1a" height="200" width="200" x="0" y="0" /><text alignment-baseline="middle" fill="#e1ed5e" style="dominant-baseline: central; font-size:9.0px; font-family:Arial;" text-anchor="middle" x="100.0" y="100.0">2021</text><line stroke="#e1ed5e" stroke-width="0.3" x1="100.0" x2="100.0" y1="15.0" y2="10.0" /><path d="M 100.0 14.0 a86.0,86.0 0 0,1 42.46469731375804,11.215312516191453" fill="none" id="id73" stroke="none" /><text fill="#e1ed5e" style="font-size:6.75px; font-family:Arial;" text-anchor="middle"><textPath startOffset="22.20632615414155" xlink:href="#id73">January</textPath></text><path d="M 100.36148047927253 79.00311137660856 l 0.3845862615517457 -22.339006842470408 a43.3423170978418,43.3423170978418 0 0,0 0.7458456651475287,0.019262993071710338 l -0.7690585618941422 22.329077057256338" fill="#ffe315" stroke="none" /><path d="M 100.72285384407766 79.0124445844662 l 1.2018954151796415 -34.8961921368003 a55.916883856345386,55.916883856345386 0 0,0 0.9616616775685773,0.04141117474517725 l -1.8023979251375504 34.87033323553093" fill="#7aff26" stroke="none" /><path d="M 101.44485096284872 79.0497635885617 l 3.2979830397529 -47.82051999848485 a68.93410920269602,68.93410920269602 0 0,0 1.1830728211533033,0.09182922053415124 l -4.120646050268545 47.756665515762236" fill="#38ff82" stroke="none" /><path d="M 102.16513564639614 79.11191278185805 l 1.8097570138485088 -17.45958153330199 a38.553125299136724,38.553125299136724 0 0,0 0.6595031567243569,0.0741028639727672 l -2.1100268740825907 17.42584271585862" fill="#ff9f0e" stroke="none" /><path d="M 102.88285421437855 79.19881850522331 l 6.633080876727178 -47.86087291482309 a69.31832900759349,69.31832900759349 0 0,0 1.180494508474645,0.1739742041640421 l -7.4559443656304785 47.73960422649808" fill="#39ff87" stroke="none" /><path d="M 103.2404852339499 79.25152402106235 l 3.462398037744511 -22.16935962645816 a43.43810835206502,43.43810835206502 0 0,0 0.7377668852265042,0.12173785749297755 l -3.8434941291098905 22.106475506025557" fill="#ffe415" stroke="none" /><path d="M 103.95276090670814 79.375362276772 l 7.083774486650117 -36.96157848866121 a58.63426823190771,58.63426823190771 0 0,0 0.9896168675096533,0.1985078337903076 l -7.718957763626895 36.834166698793695" fill="#5aff2a" stroke="none" /><path d="M 104.307194497241 79.44645832069477 l 4.680601599162839 -22.335406519078578 a43.82057001265708,43.82057001265708 0 0,0 0.7369311015099799,0.16106459574866638 l -5.064375424826347 22.251528425234042" fill="#ffea15" stroke="none" /><path d="M 105.36241919743992 79.69619591428918 l 12.281271480201053 -46.50075290206244 a69.09521441504413,69.09521441504413 0 0,0 1.1473165290983889,0.31360494753556173 l -13.079885898523154 46.28246141370058" fill="#38ff84" stroke="none" /><path d="M 105.71112130821622 79.79150937346287 l 3.538091709473396 -12.519344151184495 a34.00969142295242,34.00969142295242 0 0,0 0.5619855055224832,0.1640589797192532 l -3.7530674327193063 12.456586842546539" fill="#ff5b08" stroke="none" /><path d="M 106.40334571778207 80.00007090966166 l 13.887826207815422 -43.37662709728833 a66.54561993337771,66.54561993337771 0 0,0 1.0879168775074268,0.3586690898628265 l -14.632425907565265 43.131144283166265" fill="#35ff64" stroke="none" /><path d="M 107.08798089147638 80.2323363322302 l 8.113469191701423 -22.627647085397086 a45.03827770340395,45.03827770340395 0 0,0 0.7275133244646436,0.267949297137836 l -8.501764841938643 22.48463452045293" fill="#fffa17" stroke="none" /><path d="M 107.76421540070413 80.48803036053334 l 17.57627587856837 -44.17030486897805 a68.53883997299482,68.53883997299482 0 0,0 1.0924312046981703,0.44563011771038974 l -18.33399095285493 43.86121386508408" fill="#38ff7e" stroke="none" /><path d="M 108.76106565485865 80.91482961587045 l 22.742008047248166 -49.541358957659746 a75.51188106635831,75.51188106635831 0 0,0 1.1766253709840853,0.5524413885007616 l -23.59141162953185 49.14255258651898" fill="#41ffd1" stroke="none" /><path d="M 109.08828744355905 81.06846463323043 l 7.680065614672095 -15.998111273023012 a38.74606920277543,38.74606920277543 0 0,0 0.5987720355572781,0.2938148374095568 l -7.954308917239805 15.863541275478623" fill="#ffa20e" stroke="none" /><path d="M 110.05341064243156 81.56283822128135 l 10.002577819482147 -18.34393839277323 a41.893818195644755,41.893818195644755 0 0,0 0.6301546659428494,0.35068038934321494 l -10.31685657449703 18.169042605869834" fill="#ffcf13" stroke="none" /><path d="M 110.36928655335952 81.73862282372117 l 12.265637424390311 -21.601045564866133 a45.84051188929139,45.84051188929139 0 0,0 0.682812471639634,0.39552905606912414 l -12.635646628495275 21.38671235140696" fill="#f9ff18" stroke="none" /><line stroke="#e1ed5e" stroke-width="0.3" x1="143.23703022742887" x2="145.7803849466894" y1="26.81831364943548" y2="22.513508569990506" /><path d="M 143.74570117128098 25.957352633546492 a86.0,86.0 0 0,1 28.547481713284135,27.462654790039103" fill="none" id="id74" stroke="none" /><text fill="#e1ed5e" style="font-size:6.75px; font-family:Arial;" text-anchor="middle"><textPath startOffset="19.985693538727396" xlink:href="#id74">February</textPath></text><path d="M 110.99172775467656 82.1063720568725 l 32.97518326402967 -53.68088382938249 a84.0,84.0 0 0,0 1.225523390510947,0.7674226347082231 l -33.894325806912875 53.10531685335132" fill="#4dd2ff" stroke="none" /><path d="M 111.60114157652 82.49532879139004 l 6.907240711828322 -10.422162062394971 a33.503257027909314,33.503257027909314 0 0,0 0.4779723108406031,0.32272903790199603 l -7.0856177170754675 10.301721112194304" fill="#ff5307" stroke="none" /><path d="M 111.90073688211348 82.69761687909136 l 13.735738775901105 -19.970277227669868 a45.23803812749256,45.23803812749256 0 0,0 0.6377892569465748,0.44681213291737837 l -14.07745917243133 19.730880251988555" fill="#fffd17" stroke="none" /><path d="M 112.19680574252982 82.90503203632743 l 27.40522785431334 -38.4109989202354 a68.18528745061491,68.18528745061491 0 0,0 0.9495765081283603,0.6899077167500778 l -28.06234967879549 37.933571968668645" fill="#37ff79" stroke="none" /><path d="M 112.77801427241765 83.33499621200491 l 8.229486284757556 -10.732842927306429 a34.524731487657874,34.524731487657874 0 0,0 0.4684964055164107,0.36566887567240663 l -8.413015245433398 10.5895956624108" fill="#ff6309" stroke="none" /><path d="M 113.06298171725822 83.55741782278167 l 30.253426428984216 -38.08046745895698 a69.6352938984298,69.6352938984298 0 0,0 0.9321068788005448,0.7536989389682595 l -30.90443670634925 37.55406242272459" fill="#39ff8b" stroke="none" /><path d="M 113.34407831869373 83.78471172551755 l 20.623304967990638 -25.060766824191607 a53.45555024366788,53.45555024366788 0 0,0 0.7054668027493224,0.5908081591634216 l -21.05162930769908 24.70205750763437" fill="#97ff23" stroke="none" /><path d="M 114.42810811169701 84.74124197986012 l 15.33558410266476 -16.218478896090183 a43.320824300926404,43.320824300926404 0 0,0 0.537419077662556,0.5169967269148017 l -15.612486423939734 15.95209908241308" fill="#ffe315" stroke="none" /><path d="M 114.68862486808459 84.99185889309783 l 22.187207499234265 -22.669837640155357 a52.720556666696154,52.720556666696154 0 0,0 0.6431009149170261,0.6403392352115747 l -22.57414421431861 22.284562554293665" fill="#a0ff22" stroke="none" /><path d="M 115.19652480421416 85.50635884689758 l 28.125573090982517 -26.824683199477988 a59.866585783273486,59.866585783273486 0 0,0 0.7048083965563674,0.751840456102032 l -28.58314880950935 26.336573326497902" fill="#4dff2c" stroke="none" /><path d="M 115.9244219780498 86.31012108654704 l 28.307574386610142 -24.335405468432207 a58.33002447047774,58.33002447047774 0 0,0 0.647989315428533,0.7670149631160781 l -28.72227431552579 23.844531555687023" fill="#5eff2a" stroke="none" /><path d="M 116.15771136456269 86.58626213691792 l 30.53008668510381 -25.345333289547746 a60.67961835197272,60.67961835197272 0 0,0 0.6602563949358944,0.8093962705964933 l -30.961841572116114 24.81605284934315" fill="#43ff2d" stroke="none" /><path d="M 116.60985879189232 87.15038557335679 l 18.689884912443006 -14.458751143655467 a44.629796500912214,44.629796500912214 0 0,0 0.46483858465005584,0.6116730896330435 l -18.935999437317175 14.13489327814139" fill="#fff517" stroke="none" /><path d="M 116.82858285166822 87.43820079747576 l 17.97088226539394 -13.414475627560318 a43.425449064824996,43.425449064824996 0 0,0 0.44198295397801335,0.6028642525155762 l -18.19912783188558 13.103148931373248" fill="#ffe415" stroke="none" /><path d="M 117.2510076193507 88.02491185347247 l 16.08112696742653 -11.162995065541674 a40.57588065390164,40.57588065390164 0 0,0 0.39334555167046337,0.5771860607846463 l -16.270896984765727 10.884530981486622" fill="#ffbc11" stroke="none" /><path d="M 117.65298651832404 88.62581576622439 l 46.54925422869443 -29.99264702278237 a76.37501191585282,76.37501191585282 0 0,0 0.7025497446918604,1.1112649784163982 l -47.05863156963224 29.186934396651765" fill="#42ffdb" stroke="none" /><line stroke="#e1ed5e" stroke-width="0.3" x1="172.23445277983987" x2="176.4835382374775" y1="55.19839476539836" y2="52.563006222186495" /><path d="M 173.08426987136738 54.67131705675599 a86.0,86.0 0 0,1 12.851231095245387,41.99856678651699" fill="none" id="id75" stroke="none" /><text fill="#e1ed5e" style="font-size:6.75px; font-family:Arial;" text-anchor="middle"><textPath startOffset="22.20632615414155" xlink:href="#id75">March</textPath></text><path d="M 118.03404312379186 89.2402003453031 l 28.04448468406437 -16.73241183623727 a53.65680215593949,53.65680215593949 0 0,0 0.46640619678221135,0.7972393780908102 l -28.328350555316906 16.247193045792564" fill="#95ff23" stroke="none" /><path d="M 118.21658344932153 89.55222093294921 l 18.354049412024022 -10.526620086364355 a42.15847017772478,42.15847017772478 0 0,0 0.3556214688945138,0.6326109118534904 l -18.53252852221097 10.20912566457607" fill="#ffd213" stroke="none" /><path d="M 118.56541770881063 90.18545643968196 l 20.20973099904221 -10.683804067509811 a43.85994086620932,43.85994086620932 0 0,0 0.3471004016247193,0.6704874961000682 l -20.39064083382705 10.334343849149398" fill="#ffea16" stroke="none" /><path d="M 118.73160827565052 90.50648371742162 l 39.445351096725176 -19.9916140353825 a65.2221703999659,65.2221703999659 0 0,0 0.4989185051524348,1.0057892619674558 l -39.78362961483102 19.309665184916092" fill="#33ff53" stroke="none" /><path d="M 118.89224826269711 90.83032412892265 l 15.059408257456404 -7.309341408759719 a37.739541478026084,37.739541478026084 0 0,0 0.2786288892541487,0.5868634999951348 l -15.18299534055231 7.049035493124045" fill="#ff930d" stroke="none" /><path d="M 119.196687751892 91.48605970444005 l 44.38672330851865 -19.685995680531953 a69.55635521742664,69.55635521742664 0 0,0 0.4759949730584158,1.0986620250027872 l -44.71900899141974 18.919034510942563" fill="#39ff8a" stroke="none" /><path d="M 119.47837535516314 92.15188598940014 l 24.523177956055015 -9.880736611348505 a47.43889583638442,47.43889583638442 0 0,0 0.2986537150504841,0.7600411290855604 l -24.6896252209872 9.45714647736716" fill="#e4ff1a" stroke="none" /><path d="M 119.7369772167798 92.82701384747503 l 41.63226279700411 -15.130363746243084 a65.296424378187,65.296424378187 0 0,0 0.3748229901393186,1.0596750673305333 l -41.886538867953234 14.411491052485935" fill="#33ff54" stroke="none" /><path d="M 120.08093135843002 93.85539295169968 l 54.07247848598254 -16.545753107440134 a77.54728000098157,77.54728000098157 0 0,0 0.3795906228156443,1.279790875527559 l -54.349275005909895 15.612532845166047" fill="#44ffe8" stroke="none" /><path d="M 120.28053869075195 94.5502522615342 l 23.878754342935213 -6.416653396743008 a45.72586398458466,45.72586398458466 0 0,0 0.1977179132476145,0.7618877739558695 l -23.98566858805313 6.004669197238289" fill="#fbff18" stroke="none" /><path d="M 120.45610955862082 95.25157060432595 l 34.912400169944036 -8.10413469704134 a56.84065686917719,56.84065686917719 0 0,0 0.21303232105216352,0.9549821238364531 l -35.04672687799824 7.501974403654924" fill="#6fff27" stroke="none" /><path d="M 120.53481517161879 95.60439243477599 l 30.907352816648906 -6.615915104494218 a52.60751161990912,52.60751161990912 0 0,0 0.18192354923798962,0.887123834917905 l -31.016655661801895 6.082915613412901" fill="#a2ff22" stroke="none" /><path d="M 120.67395015179393 96.31383870115 l 59.66375224709827 -10.63803544376564 a81.60471211305222,81.60471211305222 0 0,0 0.23466460265168243,1.3850037684517382 l -59.83802871127018 9.609445886998063" fill="#4aebff" stroke="none" /><path d="M 120.73433829027371 96.67025291283417 l 11.94252913054019 -1.9178621004974608 a33.09554451318028,33.09554451318028 0 0,0 0.0854875353932069,0.5632560468989518 l -11.973772559372696 1.7120069412064267" fill="#ff4d07" stroke="none" /><path d="M 120.87857604477298 97.74499172005257 l 44.336138811718584 -4.788562203999246 a65.59398538719711,65.59398538719711 0 0,0 0.1115812236185034,1.123607694399549 l -44.411997161019315 4.0246789788952615" fill="#34ff58" stroke="none" /><path d="M 120.94382443527127 98.46500227214037 l 20.983143844125912 -1.5378794939591918 a42.03942487144597,42.03942487144597 0 0,0 0.046682597262685505,0.7221591174471259 l -21.006507032393014 1.1764613122590306" fill="#ffd113" stroke="none" /><path d="M 120.96714384426684 98.82574320788733 l 27.994202728706007 -1.5678045106248693 a49.03807050065012,49.03807050065012 0 0,0 0.03994592597416861,0.8431953624010987 l -28.017042262913673 1.0856980416007707" fill="#cfff1d" stroke="none" /><path d="M 120.98425023603335 99.18683210126433 l 21.355959960314213 -0.8275721501162607 a42.37198871163355,42.37198871163355 0 0,0 0.02196948379115354,0.729060211165912 l -21.36704113856101 0.45984179152534954" fill="#ffd513" stroke="none" /><line stroke="#e1ed5e" stroke-width="0.3" x1="184.98032266829074" x2="189.97916517819016" y1="98.17113171792111" y2="98.06355123074" /><path d="M 185.9800911702706 98.14961562048488 a86.0,86.0 0 0,1 -9.607161424134198,41.387399972396054" fill="none" id="id76" stroke="none" /><text fill="#e1ed5e" style="font-size:6.75px; font-family:Arial;" text-anchor="middle"><textPath startOffset="21.466115282336823" xlink:href="#id76">April</textPath></text><path d="M 120.99980553446 99.90962569577887 l 25.857375081802925 -0.1112792343799586 a46.85761453013497,46.85761453013497 0 0,0 -0.0034712627586644743,0.8065992155537663 l -25.855459521754756 -0.3338294593774925" fill="#ebff1a" stroke="none" /><path d="M 120.99824983174949 100.27111621757518 l 48.89254130958261 0.631269795040253 a69.89661641937377,69.89661641937377 0 0,0 -0.025888166716188946,1.2029213817035027 l -48.87443108018142 -1.4727809925338706" fill="#3aff8e" stroke="none" /><path d="M 120.9904718944345 100.63252640178507 l 19.434989162789492 0.585653520592385 a40.44381119544024,40.44381119544024 0 0,0 -0.026958433147847304,0.6956773724410801 l -19.42202859679044 -0.9201081400474711" fill="#ffba11" stroke="none" /><path d="M 120.95626037817324 101.35467743843564 l 29.260282178956626 1.8914750721162912 a50.32135384221888,50.32135384221888 0 0,0 -0.06331730196099888,0.8639142794272082 l -29.22338831833129 -2.39486248804027" fill="#beff1e" stroke="none" /><path d="M 120.92983693683757 101.71520430193887 l 20.1907414361594 1.6546352785808505 a41.258426830506075,41.258426830506075 0 0,0 -0.06409870630085751,0.7073238827709142 l -20.159268133581467 -2.0019405499003353" fill="#ffc612" stroke="none" /><path d="M 120.81339534386255 102.79330883721812 l 49.461085994855765 6.638037010553221 a70.9045344948131,70.9045344948131 0 0,0 -0.17275703784063037,1.2082623202900062 l -49.339494905998535 -7.488444802823636" fill="#3bff9b" stroke="none" /><path d="M 120.64145759157962 103.86396538481128 l 23.96809861428792 4.486693973740081 a45.384424824018836,45.384424824018836 0 0,0 -0.15035226080323447,0.7666429386303563 l -23.88731642050902 -4.898600639438382" fill="#ffff18" stroke="none" /><path d="M 120.5718875245553 104.21870165774334 l 23.589221450199354 4.837469946209127 a45.080126330794485,45.080126330794485 0 0,0 -0.16243005205919567,0.7588191274718634 l -23.502457359415715 -5.242802893097159" fill="#fffb17" stroke="none" /><path d="M 120.41448212921028 104.9243191809786 l 15.812278956980315 3.8141897536273484 a37.265798759668655,37.265798759668655 0 0,0 -0.15578645213600298,0.6222894365540405 l -15.744281190549252 -4.085807029578785" fill="#ff8c0c" stroke="none" /><path d="M 120.32669344350535 105.2749913415812 l 19.689270561381356 5.109573380540222 a41.34146296042651,41.34146296042651 0 0,0 -0.1846820079601322,0.6872704550129588 l -19.598400477079444 -5.447734768728729" fill="#ffc712" stroke="none" /><path d="M 120.23288151984713 105.62410040840565 l 45.84154810684646 12.74249884658104 a68.57960497616008,68.57960497616008 0 0,0 -0.32594045409826067,1.1346414800864568 l -45.6154150158621 -13.529697802172077" fill="#38ff7e" stroke="none" /><path d="M 120.02730092923936 106.31721596034902 l 19.106785836868813 6.026857681227368 a41.03477672762389,41.03477672762389 0 0,0 -0.21828107325208382,0.6718000656248887 l -19.00021251260048 -6.3548566468300525" fill="#ffc312" stroke="none" /><path d="M 119.9155931802556 106.66101706037122 l 23.993200455133284 8.024823369207736 a46.299633558357925,46.299633558357925 0 0,0 -0.25929816335387534,0.7536418374861622 l -23.851511460836175 -8.4366379097832" fill="#f3ff19" stroke="none" /><path d="M 119.67450827220406 107.3425965602758 l 22.27630068769813 8.313594756329728 a44.777077829313114,44.777077829313114 0 0,0 -0.27571106221033087,0.7197945819644874 l -22.12989534589429 -8.695812905127358" fill="#fff717" stroke="none" /><path d="M 119.54520255179757 107.68017299344265 l 31.038648405309498 12.19645529912893 a54.34893126761444,54.34893126761444 0 0,0 -0.3496380253409225,0.8677729052904095 l -30.824107765711183 -12.728927572262153" fill="#8dff24" stroke="none" /><path d="M 119.26925614724726 108.34839909993367 l 30.515033248700323 13.220628454009558 a54.2558606998564,54.2558606998564 0 0,0 -0.3786514329115293,0.853759020156598 l -30.282940731057522 -13.743935810658844" fill="#8eff24" stroke="none" /><path d="M 118.97047184881838 109.00673069616215 l 21.313365892101864 10.119081293746854 a44.59354513166829,44.59354513166829 0 0,0 -0.33518789881136196,0.690586350927593 l -21.13602473667579 -10.484456600639723" fill="#fff417" stroke="none" /><line stroke="#e1ed5e" stroke-width="0.3" x1="174.80103733775053" x2="179.2010983576182" y1="140.37084112569926" y2="142.7455964860345" /><path d="M 175.68104954172406 140.8457921977663 a86.0,86.0 0 0,1 -30.038265399797805,32.042727171017184" fill="none" id="id77" stroke="none" /><text fill="#e1ed5e" style="font-size:6.75px; font-family:Arial;" text-anchor="middle"><textPath startOffset="22.206326154141568" xlink:href="#id77">May</textPath></text><path d="M 118.12598468904814 110.60418214915192 l 29.506268594390964 17.26195029314867 a55.184716091953696,55.184716091953696 0 0,0 -0.48672689473302916,0.8157822720512343 l -29.20476082395971 -17.76729465908601" fill="#83ff25" stroke="none" /><path d="M 117.75023020441432 111.22182372390056 l 34.88475990743121 22.054397144349764 a62.27157505111506,62.27157505111506 0 0,0 -0.5805938830885399,0.9010945998525719 l -34.49996116096562 -22.65161334412379" fill="#32ff2f" stroke="none" /><path d="M 117.35343817320211 111.8261652097733 l 12.752309219436476 8.690549626532183 a36.432013583435676,36.432013583435676 0 0,0 -0.35762201096886487,0.5151811795105913 l -12.600826301305476 -8.908772068229794" fill="#ff800b" stroke="none" /><path d="M 116.93607887273984 112.41649034213515 l 36.51472100240264 26.770345372083465 a66.27666331813703,66.27666331813703 0 0,0 -0.6824562725518956,0.9142617024934154 l -36.04850346315565 -27.394919954086195" fill="#35ff61" stroke="none" /><path d="M 116.498646956653 112.99209946851258 l 30.364057053461007 23.91061827934192 a59.64833278740799,59.64833278740799 0 0,0 -0.6421628390011482,0.8011968787042693 l -29.947976302405007 -24.42974299162444" fill="#4fff2b" stroke="none" /><path d="M 116.0416608686014 113.55231037782055 l 9.89910048227376 8.362954640163986 a33.958827133332434,33.958827133332434 0 0,0 -0.38107866572194604,0.44328058108863333 l -9.753679306981034 -8.532112320414146" fill="#ff5a08" stroke="none" /><path d="M 115.80600337817218 113.82643327865902 l 16.725481902629486 14.63075478646823 a43.2216275393354,43.2216275393354 0 0,0 -0.49466360394642533,0.55575980292667 l -16.471159449034722 -14.916488759135767" fill="#ffe115" stroke="none" /><path d="M 115.56566222782051 114.09645910891815 l 24.726346252442724 22.392489555474228 a54.358893679013256,54.358893679013256 0 0,0 -0.6340669649549019,0.6881544607120632 l -24.3372328794921 -22.814795270987624" fill="#8cff24" stroke="none" /><path d="M 115.32070863581623 114.36230785411682 l 18.586497531469764 17.42380237247617 a46.47639651917904,46.47639651917904 0 0,0 -0.5521693546213652,0.5789473607765131 l -18.283821625469436 -17.741156849835193" fill="#f0ff19" stroke="none" /><path d="M 114.81725581225074 114.88116024355365 l 18.938194621505534 19.019871996353217 a47.84046844374521,47.84046844374521 0 0,0 -0.5885517762288518,0.5760217867684246 l -18.60799289290089 -19.343043886044214" fill="#deff1b" stroke="none" /><path d="M 114.55890576462653 115.13401014063108 l 15.63853048133718 16.25628208022104 a43.557268067907245,43.557268067907245 0 0,0 -0.5448063558701322,0.5151484145733838 l -15.35638829107624 -16.523065131540346" fill="#ffe615" stroke="none" /><path d="M 114.0293411484842 115.62618273729858 l 15.591310338701458 17.365937707830618 a44.3380537009827,44.3380537009827 0 0,0 -0.5722937387090348,0.5049826849586945 l -15.290074247085835 -17.6317435345616" fill="#fff116" stroke="none" /><path d="M 113.48314897796784 116.09983520530334 l 13.665254052058877 16.317281566513625 a42.28362859167104,42.28362859167104 0 0,0 -0.5620297054027219,0.4625121847589052 l -13.382354218111464 -16.55008887012971" fill="#ffd413" stroke="none" /><path d="M 112.92097659922987 116.55440617244103 l 18.380097267138154 23.548653100053887 a50.872513091069806,50.872513091069806 0 0,0 -0.6949458340555514,0.5328548315432085 l -17.972022704589108 -23.861547273424467" fill="#b7ff1f" stroke="none" /><path d="M 112.63410532772338 116.77436683061366 l 11.540867962170166 15.32286993969549 a40.18285631779244,40.18285631779244 0 0,0 -0.5560829513077062,0.411376873311652 l -11.275400040443895 -15.519256761746911" fill="#ffb610" stroke="none" /><path d="M 112.04921762599082 117.19931262002967 l 14.001355039793774 19.985835587697647 a45.40228610374119,45.40228610374119 0 0,0 -0.6439408732562596,0.44290840439202744 l -13.655257281914631 -20.22388478145477" fill="#ffff18" stroke="none" /><path d="M 111.7513745106137 117.40417183066458 l 19.08490560109905 28.265372374401004 a55.10520337523899,55.10520337523899 0 0,0 -0.7906948575256874,0.524029436295266 l -18.5955360448334 -28.589699831787588" fill="#84ff25" stroke="none" /><line stroke="#e1ed5e" stroke-width="0.3" x1="143.8653032363475" x2="146.44561519142675" y1="172.8068346515853" y2="177.08958963109032" /><path d="M 144.38136562736335 173.6633856474863 a86.0,86.0 0 0,1 -40.68145358897372,12.25698825130547" fill="none" id="id78" stroke="none" /><text fill="#e1ed5e" style="font-size:6.75px; font-family:Arial;" text-anchor="middle"><textPath startOffset="21.466115282336833" xlink:href="#id78">June</textPath></text><path d="M 110.8373102113329 117.98757091392108 l 15.31649995406496 25.42204880217479 a50.67955080763569,50.67955080763569 0 0,0 -0.7511002139612254,0.4437632456199767 l -14.876631869075354 -25.681930620088515" fill="#baff1f" stroke="none" /><path d="M 110.5260780823613 118.17145234162733 l 9.420854290227068 16.263474716109428 a39.795028741643904,39.795028741643904 0 0,0 -0.5956960169210517,0.3382517451188194 l -9.139509506384817 -16.423229627022877" fill="#ffb110" stroke="none" /><path d="M 109.89434966115114 118.52300852407294 l 9.76754032177035 18.285611367642822 a41.73085688112959,41.73085688112959 0 0,0 -0.636513004970981,0.332993520738369 l -9.451336414272872 -18.45103430732591" fill="#ffcc13" stroke="none" /><path d="M 109.57404056367764 118.69057910512821 l 7.253741629884511 14.160858295908412 a36.910583751387556,36.910583751387556 0 0,0 -0.5679767097337659,0.2847953132635884 l -7.008911012467984 -14.283621450081302" fill="#ff870c" stroke="none" /><path d="M 109.2508944713604 118.85261126421891 l 18.37400780513262 37.44481440019601 a62.70993033185504,62.70993033185504 0 0,0 -0.9731605659875961,0.4671762105442498 l -17.726734571144792 -37.75554488723982" fill="#30ff32" stroke="none" /><path d="M 108.59647513512805 119.15986991738527 l 12.418474477055796 27.67836256286851 a51.336615870905696,51.336615870905696 0 0,0 -0.8093567689473099,0.3547982227035663 l -11.940197033450731 -27.88802533886653" fill="#b2ff20" stroke="none" /><path d="M 108.2653958097858 119.30500536409082 l 2.8561644927774537 6.67097766673359 a28.256694746223037,28.256694746223037 0 0,0 -0.44878162657778703,0.1875907563067826 l -2.7409114067022053 -6.719153466060345" fill="#ff0000" stroke="none" /><path d="M 107.59598834532513 119.57807347666477 l 8.620486941970888 22.218639508366884 a44.83234643755105,44.83234643755105 0 0,0 -0.721864352558477,0.2729473306603169 l -8.236752368652136 -22.36373508913383" fill="#fff717" stroke="none" /><path d="M 107.2578585660854 119.70592522655815 l 8.851855807805537 24.033812050290894 a46.612096222505656,46.612096222505656 0 0,0 -0.7552945039315859,0.2708217370185667 l -8.436841743244216 -24.182621328349423" fill="#efff19" stroke="none" /><path d="M 106.57524785965236 119.94407469862006 l 6.569184661469795 19.925683775563346 a41.98063538218608,41.98063538218608 0 0,0 -0.6882398419812714,0.22035266350453203 l -6.225223474397584 -20.035809285727584" fill="#ffd013" stroke="none" /><path d="M 106.2309692047433 120.05430185196036 l 9.256683924735476 29.79252945649599 a52.19745195843144,52.19745195843144 0 0,0 -0.8603259234888629,0.2592091433860307 l -8.742483026806369 -29.947453968987748" fill="#a7ff21" stroke="none" /><path d="M 105.88484417918355 120.15858648285463 l 5.778668406322149 19.794880421242738 a41.62111295351259,41.62111295351259 0 0,0 -0.689461330729747,0.1948486589073152 l -5.437075907487796 -19.89141787348857" fill="#ffcb12" stroke="none" /><path d="M 105.18746579009965 120.34920634021253 l 5.503965589663442 21.590760499519224 a43.28126065014722,43.28126065014722 0 0,0 -0.7235116373050996,0.1778215574989139 l -5.131500667615131 -21.682303315332167" fill="#ffe215" stroke="none" /><path d="M 104.83641907484287 120.43548508189849 l 5.273418480167899 22.28195344829174 a43.89747566739217,43.89747566739217 0 0,0 -0.7368083650129936,0.16769518503487227 l -4.889089965762043 -22.3694253669043" fill="#ffeb16" stroke="none" /><path d="M 104.48393922423573 120.51570834832081 l 9.446368616003511 43.22068917196159 a65.24095221091804,65.24095221091804 0 0,0 -1.0991812360333666,0.23034411514976727 l -8.700995918540766 -43.376889267837896" fill="#33ff53" stroke="none" /><path d="M 103.7750983002368 120.6578951692458 l 5.7922587598746125 31.69609497244866 a53.22099778163037,53.22099778163037 0 0,0 -0.9026053856767337,0.1569295159604252 l -5.245804402725828 -31.79110306693009" fill="#9aff22" stroke="none" /><path d="M 103.06178313531738 120.77559828337769 l 5.087145737486096 34.518609444248845 a55.891452387640854,55.891452387640854 0 0,0 -0.9530062427169881,0.13207798142791394 l -4.492210903582277 -34.60106199116937" fill="#7aff26" stroke="none" /><path d="M 102.34483914955558 120.86867818915974 l 5.138825577748126 45.73469240846374 a67.0224903499942,67.0224903499942 0 0,0 -1.1475763249606412,0.11895097823867247 l -4.350816656181883 -45.81637275515817" fill="#36ff6a" stroke="none" /><path d="M 101.98527174616119 120.90594882070398 l 1.228377702993786 12.935459057904168 a33.99365278972496,33.99365278972496 0 0,0 -0.5830003434733589,0.050303722772390605 l -1.0055330417788853 -12.954687032955222" fill="#ff5b08" stroke="none" /><path d="M 101.26447882468166 120.96189622390904 l 1.9566793263561688 32.43684922353057 a53.49581175376675,53.49581175376675 0 0,0 -0.9196488730007722,0.047535342130388514 l -1.398042384941917 -32.46572437242316" fill="#97ff23" stroke="none" /><path d="M 100.90346689309514 120.98055641714683 l 0.9111049628150732 21.157929770727186 a42.177537733086204,42.177537733086204 0 0,0 -0.7256136190208794,0.024991600185896527 l -0.5467709921195416 -21.170478169339177" fill="#ffd313" stroke="none" /><line stroke="#e1ed5e" stroke-width="0.3" x1="102.19456741930631" x2="102.32365962044197" y1="184.97166512339345" y2="189.96999836594603" /><path d="M 102.22038585953345 185.97133177190398 a86.0,86.0 0 0,1 -42.740103519485714,-10.115201625700543" fill="none" id="id79" stroke="none" /><text fill="#e1ed5e" style="font-size:6.75px; font-family:Arial;" text-anchor="middle"><textPath startOffset="22.20632615414155" xlink:href="#id79">July</textPath></text><path d="M 99.81925306533755 120.99922214144158 l -0.2864340007398011 33.277970780693806 a54.27920347180038,54.27920347180038 0 0,0 -0.9342234350107859,-0.01608350366059018 l 0.8592171256432548 -33.26810979975406" fill="#8dff24" stroke="none" /><path d="M 99.45781275523022 120.99299961872073 l -1.0863530485874155 42.06260725383787 a63.07663356230854,63.07663356230854 0 0,0 -1.0851573329018207,-0.03737501266758206 l 1.8102307331638794 -42.037675442744195" fill="#30ff37" stroke="none" /><path d="M 98.73552117531835 120.96189622390904 l -2.05583592141902 34.08061756116756 a55.142568073980016,55.142568073980016 0 0,0 -0.9469744530361935,-0.06530890264872971 l 2.6421731352341435 -34.04018031400255" fill="#83ff25" stroke="none" /><path d="M 98.01472825383883 120.90594882070398 l -2.074281528917291 21.843268342043825 a42.94153631183882,42.94153631183882 0 0,0 -0.7352560337816433,-0.07621229418200551 l 2.4499701593045278 -21.804326679406056" fill="#ffdd14" stroke="none" /><path d="M 97.2962882734958 120.8252237178851 l -2.2238616151527872 17.12919879703833 a38.27295608492679,38.27295608492679 0 0,0 -0.6525929192749659,-0.09044343217128299 l 2.518383125614584 -17.088380799374445" fill="#ff9b0e" stroke="none" /><line stroke="#e1ed5e" stroke-width="0.3" x1="58.666819895761336" x2="56.23545636021788" y1="174.27360380694188" y2="178.64263932499728" /><path d="M 58.180547188652646 175.14741091055294 a86.0,86.0 0 0,1 -31.652253787137756,-30.449443065178592" fill="none" id="id80" stroke="none" /><text fill="#e1ed5e" style="font-size:6.75px; font-family:Arial;" text-anchor="middle"><textPath startOffset="22.20632615414155" xlink:href="#id80">August</textPath></text><line stroke="#e1ed5e" stroke-width="0.3" x1="26.63291911575756" x2="22.317208475507996" y1="142.92168965132927" y2="145.44649492493687" /><path d="M 25.769776987707644 143.4266507060508 a86.0,86.0 0 0,1 -11.730757126820373,-40.83630448921669" fill="none" id="id81" stroke="none" /><text fill="#e1ed5e" style="font-size:6.75px; font-family:Arial;" text-anchor="middle"><textPath startOffset="21.46611528233685" xlink:href="#id81">September</textPath></text><line stroke="#e1ed5e" stroke-width="0.3" x1="15.007084014347285" x2="10.007500721073583" y1="101.09737516637583" y2="101.16192664675087" /><path d="M 14.007167355692545 101.11028546245083 a86.0,86.0 0 0,1 10.666146001902534,-42.60595125391555" fill="none" id="id82" stroke="none" /><text fill="#e1ed5e" style="font-size:6.75px; font-family:Arial;" text-anchor="middle"><textPath startOffset="22.20632615414155" xlink:href="#id82">October</textPath></text><line stroke="#e1ed5e" stroke-width="0.3" x1="26.266209847984243" x2="21.928928074336255" y1="57.711370442889674" y2="55.22380399835377" /><path d="M 25.398753493254645 57.213857153982495 a86.0,86.0 0 0,1 29.58750427330803,-30.492523968695096" fill="none" id="id83" stroke="none" /><text fill="#e1ed5e" style="font-size:6.75px; font-family:Arial;" text-anchor="middle"><textPath startOffset="21.46611528233685" xlink:href="#id83">November</textPath></text><line stroke="#e1ed5e" stroke-width="0.3" x1="56.762969772571076" x2="54.21961505331055" y1="26.818313649435495" y2="22.513508569990535" /><path d="M 56.25429882871897 25.957352633546506 a86.0,86.0 0 0,1 42.265352541879196,-11.944610805530505" fill="none" id="id84" stroke="none" /><text fill="#e1ed5e" style="font-size:6.75px; font-family:Arial;" text-anchor="middle"><textPath startOffset="22.20632615414155" xlink:href="#id84">December</textPath></text></svg>