<?xml version="1.0" encoding="utf-8" ?>
<svg baseProfile="full" height="200mm" version="1.1" viewBox="0,0,200,200" width="200mm" xmlns="http://www.w3.org/2000/svg" xmlns:ev="http://www.w3.org/2001/xml-events" xmlns:xlink="http://www.w3.org/1999/xlink"><defs /><rect fill="#1a1a1a" height="200" width="200" x="0" y="0" /><text alignment-baseline="middle" fill="#e1ed5e" style="dominant-baseline: central; font-size:9.0px; font-family:Arial;" text-anchor="middle" x="100.0" y="100.0">2020</text><line stroke="#e1ed5e" stroke-width="0.3" x1="100.0" x2="100.0" y1="15.0" y2="10.0" /><path d="M 100.0 14.0 a86.0,86.0 0 0,1 42.35913384403234,11.155469271406648" fill="none" id="id61" stroke="none" /><text fill="#e1ed5e" style="font-size:6.75px; font-family:Arial;" text-anchor="middle"><textPath startOffset="22.145653131862478" xlink:href="#id61">January</textPath></text><path d="M 100.0 79.0 l 0.0 -23.14273671193279 a44.14273671193279,44.14273671193279 0 0,0 0.7577687746722652,0.006504533560896213 l -0.39727584982341047 23.13932657656633" fill="#f7ff18" stroke="none" /><path d="M 101.44090949804482 79.04949213459386 l 1.4211734042269293 -20.663549392771273 a41.71236363509438,41.71236363509438 0 0,0 0.7139388948410937,0.05526338572584032 l -1.7756812938432565 20.636108240050376" fill="#ffe715" stroke="none" /><path d="M 102.15924093988457 79.11130261209362 l 1.589366462974997 -15.375678772257183 a36.45760600679387,36.45760600679387 0 0,0 0.6219738736103516,0.06969346985139195 l -1.8530762381861454 15.346129541898822" fill="#ffa00e" stroke="none" /><path d="M 102.51750503828377 79.15144685158666 l 2.8594801171413162 -23.680597374173775 a44.85261659730547,44.85261659730547 0 0,0 0.7636097704650419,0.09886457278689761 l -3.2655677094971494 23.62802120518648" fill="#eeff19" stroke="none" /><path d="M 103.58742460773223 79.30868818359171 l 3.373900452370518 -19.459761230118136 a40.75007623771906,40.75007623771906 0 0,0 0.6882207926983575,0.12541675427046836 l -3.707455978619929 19.398976301916303" fill="#ffdb14" stroke="none" /><path d="M 103.94208987418118 79.37332000966035 l 1.5648699360356806 -8.188060756432112 a29.33625556636383,29.33625556636383 0 0,0 0.4938318782891258,0.09878020622619729 l -1.7051982998557633 8.159991153543055" fill="#ff3a05" stroke="none" /><path d="M 105.3480935250658 79.69241777938227 l 2.0443766901663105 -7.762831283874354 a29.02751677626361,29.02751677626361 0 0,0 0.4807766771173672,0.13103782126725794 l -2.177334768218371 7.7265929684629535" fill="#ff3505" stroke="none" /><path d="M 106.38641147887787 79.99465700312896 l 8.049621944319698 -25.215326091006933 a47.46902120068455,47.46902120068455 0 0,0 0.7741457346357963,0.2544770794629034 l -8.481290416603237 25.073428090142006" fill="#cdff1d" stroke="none" /><path d="M 108.4095320186766 80.7573450057729 l 3.226483169049052 -7.382824909734024 a29.0570650542208,29.0570650542208 0 0,0 0.4553471743664793,0.20367099931189056 l -3.352743746271163 7.326350159512281" fill="#ff3505" stroke="none" /><path d="M 108.73861861582097 80.90454125486305 l 2.445060173710381 -5.342897742663146 a26.875787227395115,26.875787227395115 0 0,0 0.41786894539678837,0.1955837658856687 l -2.536417832978674 5.300137745206944" fill="#ff1402" stroke="none" /><line stroke="#e1ed5e" stroke-width="0.3" x1="143.13028292997686" x2="145.6673583964461" y1="26.7553504044142" y2="22.446841604673864" /><path d="M 143.63769802327073 25.89364864446614 a86.0,86.0 0 0,1 29.32050498858742,28.57503671076993" fill="none" id="id62" stroke="none" /><text fill="#e1ed5e" style="font-size:6.75px; font-family:Arial;" text-anchor="middle"><textPath startOffset="20.669276256404974" xlink:href="#id62">February</textPath></text><path d="M 110.65571695917076 81.90426304109057 l 5.790798861536206 -9.83404245644173 a32.41235043669215,32.41235043669215 0 0,0 0.4770283715696612,0.2864418309892137 l -5.958759989663301 9.733186624916597" fill="#ff6709" stroke="none" /><path d="M 111.5731344415666 82.4767994020092 l 5.990602203409292 -9.07053526796296 a31.870231129412666,31.870231129412666 0 0,0 0.4539287823816113,0.30542354298425034 l -6.145427273887904 8.96636205092159" fill="#ff5f08" stroke="none" /><path d="M 113.03279911837588 83.53348406188908 l 5.291609161236347 -6.6857753119892 a29.52647166404045,29.52647166404045 0 0,0 0.39473972256221973,0.3179743783373015 l -5.405599654153827 6.5939526398584904" fill="#ff3c05" stroke="none" /><path d="M 115.16444852881244 85.47280134310134 l 5.878196454007613 -5.631179232755998 a29.140231759804514,29.140231759804514 0 0,0 0.34294468014328783,0.3641953659313027 l -5.97399696788716 5.529442406880201" fill="#ff3705" stroke="none" /><path d="M 116.35404254752997 86.82634096563983 l 8.670465248837312 -6.9843130544321 a32.13362458831831,32.13362458831831 0 0,0 0.34235097740802906,0.43254927623097594 l -8.789082656886901 6.8344438342864455" fill="#ff6309" stroke="none" /><path d="M 117.21940702142032 87.97951657250589 l 8.996742273347547 -6.280424829013054 a31.97201474506494,31.97201474506494 0 0,0 0.3102964161779045,0.4527317445243117 l -9.103228426340777 6.125058349418693" fill="#ff6008" stroke="none" /><line stroke="#e1ed5e" stroke-width="0.3" x1="172.87174338648825" x2="177.1583165268699" y1="56.24261187166439" y2="53.66864786411523" /><path d="M 173.72905801456457 55.72781907015455 a86.0,86.0 0 0,1 12.242430191666344,42.057860355516425" fill="none" id="id63" stroke="none" /><text fill="#e1ed5e" style="font-size:6.75px; font-family:Arial;" text-anchor="middle"><textPath startOffset="22.145653131862474" xlink:href="#id63">March</textPath></text><path d="M 118.00360718960297 89.18935116829356 l 6.933694773379625 -4.163484490182244 a29.08768980057841,29.08768980057841 0 0,0 0.2533763417198098,0.4302884215994817 l -7.004144825229203 4.043844900289206" fill="#ff3605" stroke="none" /><path d="M 118.70294669586156 90.45014215332178 l 14.47396469772961 -7.39050950574232 a37.25162406732295,37.25162406732295 0 0,0 0.2859152381035648,0.5720220032321616 l -14.59869984904491 7.1409556463464074" fill="#ffab0f" stroke="none" /><path d="M 119.0197475246899 91.09779779509293 l 7.6485302455113615 -3.579898351831557 a29.444861581218984,29.444861581218984 0 0,0 0.21034222225597632,0.4596357163565304 l -7.708856932622389 3.448073653260342" fill="#ff3b05" stroke="none" /><path d="M 119.31412917781788 91.75594674310238 l 10.257020240997836 -4.378112020757256 a32.15232393228149,32.15232393228149 0 0,0 0.21231887464278834,0.5094880071703075 l -10.330664960177106 4.20139150414567" fill="#ff6309" stroke="none" /><path d="M 119.94978838288452 93.4421083053983 l 8.061338489690653 -2.6499220800893277 a29.48570947392809,29.48570947392809 0 0,0 0.15393686374682508,0.48220503318695945 l -8.105640069214736 2.5111480132109816" fill="#ff3c05" stroke="none" /><path d="M 120.05942366710727 93.78553927170692 l 8.166982074954433 -2.530151923392567 a29.549927775605717,29.549927775605717 0 0,0 0.14595367869108816,0.4858323275012701 l -8.209212073649148 2.389581992300573" fill="#ff3d05" stroke="none" /><path d="M 120.26092885502905 94.47779374421319 l 15.333368107819432 -4.179177662245488 a36.89269339861893,36.89269339861893 0 0,0 0.16129225406852876,0.612452960235977 l -15.402849842692692 3.915344197636712" fill="#ffa60f" stroke="none" /><path d="M 120.43855184770803 95.1765574152323 l 10.030537754419692 -2.3671795983047437 a31.30607718258839,31.30607718258839 0 0,0 0.11894690125752028,0.5241019941168066 l -10.069695517234878 2.1946432702489105" fill="#ff5708" stroke="none" /><path d="M 120.592083275326 95.88100663000786 l 14.708545076585985 -2.9421209521467917 a35.99991246531202,35.99991246531202 0 0,0 0.11601178828787914,0.6070226982377235 l -14.75688315715602 2.6891956888757536" fill="#ff9a0e" stroke="none" /><path d="M 120.65975698304385 96.23510406497455 l 22.439319539712752 -4.089191513198277 a43.808869955281594,43.808869955281594 0 0,0 0.12847510722166616,0.7410102775234164 l -22.506209464426654 3.703388202754268" fill="#fbff18" stroke="none" /><path d="M 120.77682067341334 96.94652285012252 l 18.25735422971583 -2.6832023452459075 a39.4534700881665,39.4534700881665 0 0,0 0.09272595665599614,0.6709188309791645 l -18.300724702927038 2.3693952060666574" fill="#ffc912" stroke="none" /><path d="M 120.86939407059847 97.66154086499901 l 10.075470575320168 -1.1289774933851449 a31.138525410271097,31.138525410271097 0 0,0 0.05496336374321891,0.5317206854714878 l -10.093366331545052 0.9558522856307257" fill="#ff5407" stroke="none" /><path d="M 120.93736805541906 98.37931529534042 l 17.849268651227604 -1.3816462802695506 a38.90266286973754,38.90266286973754 0 0,0 0.04582370378705569,0.6662665961432442 l -17.870356316179727 1.0750362599719723" fill="#ffc212" stroke="none" /><path d="M 120.96210409425399 98.7389718711861 l 27.874811962287843 -1.6768794683868986 a48.925204863785744,48.925204863785744 0 0,0 0.04323685894206778,0.8387835126564208 l -27.899490410686482 1.198124162353747" fill="#bcff1f" stroke="none" /><path d="M 120.99303781780057 99.45929381324524 l 8.183106252670973 -0.21076778959255635 a29.185820117962066,29.185820117962066 0 0,0 0.008600878292811304,0.500958041499595 l -8.18551856256245 0.07026283212389502" fill="#ff3705" stroke="none" /><line stroke="#e1ed5e" stroke-width="0.3" x1="184.99686870605535" x2="189.99668451229388" y1="99.2704041080226" y2="99.22748670261217" /><path d="M 185.99683186730306 99.26182062694052 a86.0,86.0 0 0,1 -10.086455211305974,41.156179273409016" fill="none" id="id64" stroke="none" /><text fill="#e1ed5e" style="font-size:6.75px; font-family:Arial;" text-anchor="middle"><textPath startOffset="21.40746469413373" xlink:href="#id64">April</textPath></text><path d="M 120.99922638620191 100.18025310272382 l 10.089540118258737 0.08660656720990717 a31.08991181802083,31.08991181802083 0 0,0 -0.009162002184628135,0.5336406950978683 l -10.086566684475441 -0.25979417827684653" fill="#ff5407" stroke="none" /><path d="M 120.98066250479742 100.90099992219065 l 16.62875176756999 0.7141101500146722 a37.64407818576373,37.64407818576373 0 0,0 -0.03326734559525144,0.6453776171050787 l -16.61404283251817 -0.9994595604964814" fill="#ffb110" stroke="none" /><path d="M 120.96210409425399 101.26102812881392 l 21.03868265148331 1.265634904655496 a42.076716998188004,42.076716998188004 0 0,0 -0.04956244312922393,0.7206270456378585 l -21.013856247189022 -1.626605374447698" fill="#ffec16" stroke="none" /><path d="M 120.9064616781168 101.97986365728391 l 29.38103724258147 2.78241477422171 a50.51249195553921,50.51249195553921 0 0,0 -0.0891608203133775,0.862550056356008 l -29.328944029786427 -3.2863693528606492" fill="#a9ff21" stroke="none" /><path d="M 120.82617615685814 102.69636545807757 l 9.137747971331232 1.1830644189765165 a30.21401537913934,30.21401537913934 0 0,0 -0.07101082551646362,0.513798959433957 l -9.116092629259558 -1.3397516866105585" fill="#ff4706" stroke="none" /><path d="M 120.7213421655516 103.40968896794604 l 10.07811950119313 1.6583507287470765 a31.2136487025874,31.2136487025874 0 0,0 -0.09153801200391087,0.5279669279584901 l -10.048166671696986 -1.8311106896261546" fill="#ff5507" stroke="none" /><path d="M 120.65975698304385 103.76489593502545 l 29.159788186543036 5.313884771240148 a50.640017180259406,50.640017180259406 0 0,0 -0.1631903676896814,0.8538809614380353 l -29.064271526571194 -5.813668297711497" fill="#a7ff21" stroke="none" /><path d="M 120.51834098615036 104.47187691870673 l 27.84069344155528 6.067749555683711 a49.49424145291745,49.49424145291745 0 0,0 -0.18805251825643962,0.8285940934560971 l -27.732430061741177 -6.544777983078825" fill="#b5ff20" stroke="none" /><path d="M 120.35273937422433 105.17358676015961 l 9.74624176583228 2.47745654449261 a31.056193091220095,31.056193091220095 0 0,0 -0.135775486282546,0.5155616367410468 l -9.702276798745004 -2.64439868560646" fill="#ff5307" stroke="none" /><path d="M 120.16314734710363 105.8691983318838 l 11.73269747940158 3.4152172420885814 a33.21965216173584,33.21965216173584 0 0,0 -0.16407926525783906,0.5461665101544533 l -11.67234189414011 -3.616121355833758" fill="#ff730a" stroke="none" /><path d="M 120.05942366710727 106.21446072829308 l 26.05966230137717 8.07334999509694 a48.2815868197792,48.2815868197792 0 0,0 -0.25206502351007803,0.7895900960204825 l -25.917232562089836 -8.519509124808806" fill="#c3ff1e" stroke="none" /><path d="M 119.83427380445688 106.89939002012753 l 17.058002321647617 5.933658683023834 a39.06055781452942,39.06055781452942 0 0,0 -0.22573250735047687,0.6314139982045127 l -16.953629644253198 -6.225607637609269" fill="#ffc412" stroke="none" /><path d="M 119.58574465831526 107.57618678355244 l 11.007630855493648 4.257988085748315 a32.80247429945054,32.80247429945054 0 0,0 -0.20765735227421922,0.5234321795535276 l -10.932914828253304 -4.446321282515407" fill="#ff6c0a" stroke="none" /><path d="M 119.31412917781788 108.2440532568976 l 12.300008341281872 5.250142157186762 a34.37363816866126,34.37363816866126 0 0,0 -0.23630422396967066,0.5407103089004565 l -12.208070235295235 -5.460514535863063" fill="#ff830c" stroke="none" /><path d="M 119.16976305983485 108.57439118712176 l 28.41324584686483 12.708883465405792 a52.126006144246105,52.126006144246105 0 0,0 -0.372367176509415,0.8136894822489856 l -28.19089420550036 -13.194761929869466" fill="#96ff23" stroke="none" /><path d="M 118.8641267826498 109.22738970284198 l 27.23656633674848 13.32276943704798 a51.32040123891569,51.32040123891569 0 0,0 -0.3938965107474834,0.7880568823069022 l -27.003849912789267 -13.788358175518628" fill="#9fff22" stroke="none" /><path d="M 118.5362547648365 109.86951160357373 l 9.39686075278306 5.003299070570201 a31.64584395887725,31.64584395887725 0 0,0 -0.2594275810889548,0.4773175292662521 l -9.309587822078766 -5.163871433311057" fill="#ff5c08" stroke="none" /><line stroke="#e1ed5e" stroke-width="0.3" x1="174.33088141563837" x2="178.70328620479359" y1="141.23008692659167" y2="143.65538615756765" /><path d="M 175.20536237346943 141.71514677278685 a86.0,86.0 0 0,1 -30.301960400862466,31.631185727798858" fill="none" id="id65" stroke="none" /><text fill="#e1ed5e" style="font-size:6.75px; font-family:Arial;" text-anchor="middle"><textPath startOffset="22.145653131862474" xlink:href="#id65">May</textPath></text><path d="M 118.18653347947321 110.5 l 11.167698846224566 6.4476739350964225 a33.89534787019285,33.89534787019285 0 0,0 -0.29525477284549223,0.501407153150435 l -11.055370363249308 -6.638432256540407" fill="#ff7c0b" stroke="none" /><path d="M 118.00360718960297 110.81064883170644 l 12.95949482151216 7.781804283787849 a36.1163813110142,36.1163813110142 0 0,0 -0.32372666527033256,0.5287831787156941 l -12.824000191786423 -8.0031245786281" fill="#ff9c0e" stroke="none" /><path d="M 117.62189284568427 111.42229804090321 l 15.69977477165899 10.17640432769178 a39.70941294967547,39.70941294967547 0 0,0 -0.3756804713288255,0.5688281159336114 l -15.522769861409438 -10.444412321964451" fill="#ffcd13" stroke="none" /><path d="M 117.21940702142032 112.02048342749411 l 6.457535398951978 4.507861225941114 a28.875314359507257,28.875314359507257 0 0,0 -0.28721986642390884,0.40401071165453833 l -6.3792004339981085 -4.618049164305156" fill="#ff3304" stroke="none" /><path d="M 116.79662413953412 112.60449989151573 l 6.100093537596672 4.5776239138375905 a28.626649452018,28.626649452018 0 0,0 -0.2983278870259821,0.39052078057084083 l -6.020613673216386 -4.681665607649308" fill="#ff2f04" stroke="none" /><path d="M 116.57777611688842 112.89097897827486 l 12.198410362536388 9.48555767933376 a36.452411457788806,36.452411457788806 0 0,0 -0.3883632441511202,0.4906842721587045 l -12.033780687743706 -9.693561895407148" fill="#ffa00e" stroke="none" /><path d="M 116.1254893667686 113.45245675266167 l 8.402477498311434 7.009645573559323 a31.94242930872984,31.94242930872984 0 0,0 -0.35487344821506445,0.4180400296807526 l -8.280909486589255 -7.1528523856896316" fill="#ff6008" stroke="none" /><path d="M 115.6541949942343 113.99807769240083 l 8.82133912431527 7.888095840039083 a32.83376862744144,32.83376862744144 0 0,0 -0.3793117980496689,0.4169301117034281 l -8.684629625423721 -8.038363527300183" fill="#ff6d0a" stroke="none" /><path d="M 115.41159269507618 114.26474011684316 l 7.835320931118948 7.2522560792942645 a31.676491574168516,31.676491574168516 0 0,0 -0.37279333810753634,0.3958936063160336 l -7.709671759275151 -7.385691145554795" fill="#ff5c08" stroke="none" /><path d="M 115.16444852881244 114.52719865689866 l 11.83182989084418 11.334625388608542 a37.38493000491498,37.38493000491498 0 0,0 -0.4479305632042776,0.4596162183764296 l -11.635512526489094 -11.53606429905271" fill="#ffad10" stroke="none" /><path d="M 114.91283532996324 114.78537596483092 l 20.719075105719437 20.541990057794447 a50.176247681478316,50.176247681478316 0 0,0 -0.6116916582865984,0.6064635558703314 l -20.363391527302873 -20.89463362389344" fill="#adff20" stroke="none" /><path d="M 114.39649973595853 115.28858382429668 l 7.173579468036618 7.618092802335558 a31.464013586059288,31.464013586059288 0 0,0 -0.39640196523067367,0.36690374107979185 l -7.041747731491976 -7.740114289547729" fill="#ff5908" stroke="none" /><path d="M 114.13192950727249 115.5334660781643 l 7.305145156053824 8.02963419957854 a31.85542127833176,31.85542127833176 0 0,0 -0.4076507515601182,0.36452381574433307 l -7.166229377670327 -8.15385354520626" fill="#ff5f08" stroke="none" /><path d="M 113.86319453409587 115.77377054828091 l 8.992603951411528 10.231932547167471 a34.62201781957164,34.62201781957164 0 0,0 -0.44979032919977235,0.3885181735758647 l -8.8156341424489 -10.384794853208053" fill="#ff870c" stroke="none" /><path d="M 113.31354834802062 116.24036423190432 l 10.683468231291915 13.032094134540385 a37.851467917678434,37.851467917678434 0 0,0 -0.506036688514814,0.40762733580986776 l -10.45818077242185 -13.213569764143656" fill="#ffb410" stroke="none" /><path d="M 112.45986205192187 116.90419585922612 l 6.011055713434166 8.155151531949596 a31.131104939692875,31.131104939692875 0 0,0 -0.432898752877671,0.31338531288356497 l -5.870175950182527 -8.257137616206238" fill="#ff5407" stroke="none" /><path d="M 112.16784306229584 117.11559508785304 l 7.360033756381397 10.352809200629647 a33.7023917133631,33.7023917133631 0 0,0 -0.47440916331690375,0.33117444046757005 l -7.181229501890735 -10.477628456902337" fill="#ff790b" stroke="none" /><path d="M 111.8722381534696 117.32195027204791 l 8.542403281670982 12.463621680772963 a36.11008005366408,36.11008005366408 0 0,0 -0.5143170943412041,0.3460554943153973 l -8.327189899232774 -12.608426849145483" fill="#ff9b0e" stroke="none" /><path d="M 111.27062007382361 117.71928675628689 l 10.076015929965271 15.84117062366729 a39.77415201145057,39.77415201145057 0 0,0 -0.5792553539082047,0.3614981823794603 l -9.802596447267351 -16.011804602888297" fill="#ffce13" stroke="none" /><path d="M 110.96478420261333 117.91015095944535 l 4.118631934246653 6.72747573738559 a28.888096019123253,28.888096019123253 0 0,0 -0.42516020023497686,0.25529648439634295 l -4.00253897745424 -6.7971862223178565" fill="#ff3304" stroke="none" /><line stroke="#e1ed5e" stroke-width="0.3" x1="143.1302829299769" x2="145.66735839644613" y1="173.24464959558577" y2="177.55315839532614" /><path d="M 143.63769802327073 174.10635135553383 a86.0,86.0 0 0,1 -40.68552437913181,11.842963189579606" fill="none" id="id66" stroke="none" /><text fill="#e1ed5e" style="font-size:6.75px; font-family:Arial;" text-anchor="middle"><textPath startOffset="21.407464694133747" xlink:href="#id66">June</textPath></text><path d="M 110.34350942703117 118.27599006163325 l 3.8465514831830863 6.796487901340118 a28.80949461270322,28.80949461270322 0 0,0 -0.4324933625209703,0.23989677765561734 l -3.729313932506021 -6.861517594428879" fill="#ff3204" stroke="none" /><path d="M 109.71004243097381 118.62028667847754 l 4.428473112322554 8.492181108945564 a30.57750040948554,30.57750040948554 0 0,0 -0.46750490521559984,0.23871133570741657 l -4.282040985393372 -8.566950396325817" fill="#ff4c07" stroke="none" /><path d="M 109.06512990194946 118.94263497670748 l 5.27141699129295 11.015234084467142 a33.21160182087914,33.21160182087914 0 0,0 -0.5163791821391749,0.24169153075455616 l -5.081549095282269 -11.104101846792231" fill="#ff720a" stroke="none" /><path d="M 108.73861861582097 119.09545874513695 l 12.643349228591577 27.62799982571935 a51.38355894371289,51.38355894371289 0 0,0 -0.8052209791406567,0.3601651019722454 l -12.167214846595293 -27.840968678601445" fill="#9eff22" stroke="none" /><path d="M 108.07796709384702 119.3841803445677 l 10.558395907922629 25.336306529945073 a48.44828141665293,48.44828141665293 0 0,0 -0.7704327353372055,0.3133282863435321 l -10.121908711394981 -25.513822072867896" fill="#c1ff1e" stroke="none" /><path d="M 107.74402155503746 119.51999308798841 l 4.159364719366167 10.484316190937772 a32.2792376010202,32.2792376010202 0 0,0 -0.5168178584297531,0.1999162501527359 l -3.978774598442884 -10.554172329228548" fill="#ff6509" stroke="none" /><path d="M 107.407793817531 119.65005319985036 l 11.47232723843581 30.43171099442021 a53.522351180590746,53.522351180590746 0 0,0 -0.8625021080233072,0.31672272096519255 l -10.948235978758374 -30.62416456439413" fill="#86ff25" stroke="none" /><path d="M 106.72888874123015 119.89276391827305 l 6.676512867984309 19.73792395560452 a41.83654160732022,41.83654160732022 0 0,0 -0.6822887731410329,0.22428187170848554 l -6.336701357195542 -19.84962674871502" fill="#ffe915" stroke="none" /><path d="M 106.0420521117495 120.11202640906438 l 2.7244023356677567 9.068649311599696 a30.469042634995873,30.469042634995873 0 0,0 -0.5022168590677032,0.1461880082876785 l -2.5683254642184465 -9.114081014189894" fill="#ff4a06" stroke="none" /><path d="M 105.69591212413111 120.21278271476187 l 7.860699092643532 27.894847968703008 a49.981254862792625,49.981254862792625 0 0,0 -0.8278290498048804,0.22562848871659227 l -7.380688641903957 -28.025676951563742" fill="#afff20" stroke="none" /><path d="M 104.9986988182912 120.39639698878246 l 3.223960472063113 13.15485890522621 a34.54415866496826,34.54415866496826 0 0,0 -0.5771635500783479,0.1362090262836209 l -2.997664768244886 -13.208264075156055" fill="#ff850c" stroke="none" /><path d="M 104.64783097203109 120.47920084513623 l 1.612671683067641 7.10572899349087 a28.286432219289836,28.286432219289836 0 0,0 -0.4744545013042507,0.10340515028925135 l -1.4904547651442546 -7.132365601913841" fill="#ff2a04" stroke="none" /><path d="M 104.29559338865022 120.5559693870025 l 6.134554252025199 29.356062829578107 a50.990184739764075,50.990184739764075 0 0,0 -0.8583433099491562,0.17169270129623196 l -5.629714456545084 -29.4570449275372" fill="#a3ff22" stroke="none" /><path d="M 103.94208987418118 120.62667999033965 l 1.5258932036255943 7.984118022463124 a29.12862169531165,29.12862169531165 0 0,0 -0.49194811308848396,0.08964933385859479 l -1.388610356986053 -8.009135530253083" fill="#ff3605" stroke="none" /><path d="M 103.2317021107853 120.74984581791261 l 6.485979816358475 41.64464314900231 a63.146699006991696,63.146699006991696 0 0,0 -1.0725162952162874,0.15762296126976344 l -5.770138415534502 -41.74984718357096" fill="#32ff44" stroke="none" /><path d="M 102.875027216393 120.80226474461374 l 1.0008874686012577 7.241923131263889 a28.310760997593754,28.310760997593754 0 0,0 -0.48198690170425734,0.06240285413955887 l -0.876422745006225 -7.258037581603843" fill="#ff2a04" stroke="none" /><path d="M 102.51750503828377 120.84855314841334 l 2.887880693061394 23.915794884212957 a45.08952261546715,45.08952261546715 0 0,0 -0.769236055575272,0.08619450450007939 l -2.4769087358853232 -23.961845149220007" fill="#ebff1a" stroke="none" /><path d="M 101.80034050326958 120.92268563240118 l 2.134175937561169 24.80235941186353 a45.89401010941629,45.89401010941629 0 0,0 -0.7855109613058565,0.06080351632359731 l -1.7080959814800767 -24.835340695182182" fill="#e1ff1b" stroke="none" /><path d="M 101.44090949804482 120.95050786540614 l 0.9984036495460166 14.516569944917824 a35.550862957677744,35.550862957677744 0 0,0 -0.6091989915183367,0.03664789855519775 l -0.7490603058952147 -14.531569821297714" fill="#ff940d" stroke="none" /><path d="M 100.72087961077811 120.9876233191556 l 0.807986997581412 23.523659843437873 a44.53753205877864,44.53753205877864 0 0,0 -0.7643206465776778,0.019686188623857667 l -0.4040530369329904 -23.534063749411775" fill="#f2ff19" stroke="none" /><line stroke="#e1ed5e" stroke-width="0.3" x1="101.45913802915013" x2="101.54496967792366" y1="184.9874750549273" y2="189.98673829345242" /><path d="M 101.47630435890484 185.9873277026323 a86.0,86.0 0 0,1 -42.54439059252881,-10.42667462771756" fill="none" id="id67" stroke="none" /><text fill="#e1ed5e" style="font-size:6.75px; font-family:Arial;" text-anchor="middle"><textPath startOffset="22.145653131862474" xlink:href="#id67">July</textPath></text><path d="M 100.0 121.0 l 2.3155768669046737e-15 18.90812002707122 a39.90812002707122,39.90812002707122 0 0,0 -0.6850759482751408,-0.0058805530740505185 l 0.32458302342628637 -18.905333872191605" fill="#ffcf13" stroke="none" /><path d="M 99.27912038922189 120.98762331915562 l -1.0440240805838434 30.39562197600576 a51.413546678891024,51.413546678891024 0 0,0 -0.8818016699944213,-0.037868357868629264 l 1.5656515111791034 -30.373221049711304" fill="#9eff22" stroke="none" /><path d="M 98.55909050195518 120.95050786540614 l -0.5328337060426948 7.747285144936797 a28.765586833926562,28.765586833926562 0 0,0 -0.4923449424570694,-0.03811061235321533 l 0.6657476432750004 -7.736996765588529" fill="#ff3104" stroke="none" /><path d="M 98.19965949673042 120.92268563240118 l -2.666899740218953 30.99341750985325 a52.10794565966158,52.10794565966158 0 0,0 -0.890550688017259,-0.08433607605729426 l 3.1985499916212277 -30.94306967829077" fill="#96ff23" stroke="none" /><path d="M 97.84075906011543 120.88869738790638 l -0.9136399367677202 8.838637600890927 a29.885733091531606,29.885733091531606 0 0,0 -0.5098564390969871,-0.057130477459580525 l 1.0652322774655065 -8.821651362924374" fill="#ff4206" stroke="none" /><path d="M 97.12497278360702 120.80226474461374 l -4.050842329212495 29.30987716933251 a50.58848125973178,50.58848125973178 0 0,0 -0.8592210100372593,-0.12627589957498767 l 4.553388444857439 -29.23602019645864" fill="#a8ff21" stroke="none" /><path d="M 96.76829788921471 120.74984581791261 l -2.063998395983178 13.25235031475811 a34.412116844245375,34.412116844245375 0 0,0 -0.5829125775745093,-0.09591804281563308 l 2.291188476610751 -13.214966273446809" fill="#ff840c" stroke="none" /><path d="M 96.41257539226777 120.69131181640829 l -3.4247225260320984 19.75288944555762 a41.04757755512454,41.04757755512454 0 0,0 -0.6932452395558043,-0.12633237586102744 l 3.76330249913896 -19.691188895765226" fill="#ffdf14" stroke="none" /><path d="M 95.70440661134978 120.55596938700252 l -4.918013710884881 23.534475947588422 a45.04284544283537,45.04284544283537 0 0,0 -0.7555134774943845,-0.16466064600736868 l 5.321289604998403 -23.446583843447335" fill="#ecff1a" stroke="none" /><path d="M 95.35216902796893 120.47920084513623 l -1.7631306752914992 7.768679074776361 a28.966241544481434,28.966241544481434 0 0,0 -0.48396775166487543,-0.11421507161704374 l 1.8962305806962625 -7.737267859513089" fill="#ff3404" stroke="none" /><path d="M 95.00130118170881 120.39639698878247 l -8.379021038643364 34.189265185605535 a56.20104895450825,56.20104895450825 0 0,0 -0.9350642390422166,-0.2376896730242707 l 8.96469057091096 -34.040390280745996" fill="#68ff28" stroke="none" /><path d="M 94.30408787586889 120.21278271476187 l -8.23478924201207 29.22236193663881 a51.36047086288805,51.36047086288805 0 0,0 -0.8465672737407103,-0.2464233953822796 l 8.735216528134387 -29.076694846954013" fill="#9fff22" stroke="none" /><path d="M 93.95794788825049 120.11202640906438 l -2.224071342601781 7.403210159519516 a28.730072056778997,28.730072056778997 0 0,0 -0.47111759195356084,-0.1459534342656204 l 2.3508295674269752 -7.363940137447247" fill="#ff3004" stroke="none" /><path d="M 93.27111125876986 119.89276391827306 l -7.590215801952634 22.439124325510292 a44.68809144730574,44.68809144730574 0 0,0 -0.7245731998158015,-0.25204417126366946 l 7.974294773813457 -22.305521721678033" fill="#f0ff19" stroke="none" /><path d="M 92.93061703081489 119.77432235084164 l -1.8506121624930545 5.176491584490305 a26.497347587725027,26.497347587725027 0 0,0 -0.4269995179084626,-0.15680013753559247 l 1.939200832055636 -5.143960597945994" fill="#ff0e01" stroke="none" /><path d="M 92.59220618246901 119.65005319985036 l -12.286494335164864 32.591385947364046 a55.83039449989157,55.83039449989157 0 0,0 -0.8938917727043956,-0.34577654066443914 l 12.844158370362788 -32.375669518561565" fill="#6cff28" stroke="none" /><path d="M 91.92203290615298 119.3841803445677 l -4.1379378281522685 9.929544424191656 a31.757247879529835,31.757247879529835 0 0,0 -0.5014090240938235,-0.2140216967620768 l 4.307781927416523 -9.857048077770175" fill="#ff5d08" stroke="none" /><path d="M 91.59046798132341 119.24265499422711 l -7.256151408174572 16.60349444217369 a39.11981680232023,39.11981680232023 0 0,0 -0.6130384472565007,-0.27420429992357953 l 7.540103258286709 -16.47648639134026" fill="#ffc512" stroke="none" /><path d="M 90.93487009805054 118.94263497670748 l -4.779183223579086 9.986654826820981 a32.07130827475265,32.07130827475265 0 0,0 -0.4945697370254871,-0.24191884158473942 l 4.949913209866643 -9.90314223513902" fill="#ff6209" stroke="none" /><path d="M 90.6110303473126 118.78422872680471 l -3.689648031805281 7.381767660842048 a29.252514549957368,29.252514549957368 0 0,0 -0.44724695801993664,-0.22836748352572245 l 3.8158222115388 -7.317342225643489" fill="#ff3805" stroke="none" /><path d="M 90.28995756902619 118.62028667847754 l -17.736852561535816 34.01275347841746 a59.3596576884265,59.3596576884265 0 0,0 -0.8994717603589769,-0.4789180494427746 l 18.318113137681355 -33.70326496125211" fill="#46ff2d" stroke="none" /><line stroke="#e1ed5e" stroke-width="0.3" x1="58.13341422392154" x2="55.67067388415222" y1="173.97424548756322" y2="178.32567169271397" /><path d="M 57.64086615596768 174.84453072859336 a86.0,86.0 0 0,1 -31.369924170532247,-30.572349798747897" fill="none" id="id68" stroke="none" /><text fill="#e1ed5e" style="font-size:6.75px; font-family:Arial;" text-anchor="middle"><textPath startOffset="22.145653131862474" xlink:href="#id68">August</textPath></text><path d="M 89.03521579738668 117.91015095944536 l -6.94053333118747 11.336839595165303 a34.292664703806835,34.292664703806835 0 0,0 -0.49942509456243034,-0.31167819632724164 l 7.134122554539613 -11.216025601996513" fill="#ff820c" stroke="none" /><path d="M 88.72937992617639 117.7192867562869 l -17.79432759511222 27.97563853877071 a54.15530796439878,54.15530796439878 0 0,0 -0.7801313689893822,-0.5056717280991159 l 18.271944596358612 -27.666052968967698" fill="#7eff26" stroke="none" /><path d="M 88.1277618465304 117.32195027204791 l -21.00549607122245 30.647646524769073 a58.15520290222261,58.15520290222261 0 0,0 -0.8186173072229851,-0.5714584574656306 l 21.5285084696192 -30.282543251498314" fill="#52ff2b" stroke="none" /><path d="M 87.54013794807813 116.9041958592261 l -15.348681566917246 20.823434345169385 a46.86885083976877,46.86885083976877 0 0,0 -0.6435472882302116,-0.4829298826536647 l 15.703881844058225 -20.556885435251708" fill="#d5ff1c" stroke="none" /><path d="M 87.2517909369889 116.68781488649013 l -6.998367795004893 9.16108809428567 a32.528342763182586,32.528342763182586 0 0,0 -0.44082108894754296,-0.34278514504812807 l 7.154598828587664 -9.039601897616748" fill="#ff6909" stroke="none" /><path d="M 86.68645165197938 116.24036423190432 l -17.344535587884398 21.15751323518109 a48.358239728759074,48.358239728759074 0 0,0 -0.6374667576986925,-0.5317974415631359 l 17.705176679744984 -20.856653609706083" fill="#c2ff1e" stroke="none" /><path d="M 86.13680546590413 115.77377054828092 l -11.560217536613212 13.153405476802149 a38.511444975529244,38.511444975529244 0 0,0 -0.4928272444043847,-0.4406891608699921 l 11.784309807840968 -12.953020786048775" fill="#ffbd11" stroke="none" /><path d="M 85.60350026404147 115.28858382429668 l -14.845948664891242 15.765883011651596 a42.65560571532624,42.65560571532624 0 0,0 -0.528782276180008,-0.5065614590414396 l 15.114403426936565 -15.508709422304573" fill="#fff417" stroke="none" /><path d="M 85.34317274990678 115.03919595460226 l -12.111302968565496 12.427263793305217 a38.352825273850314,38.352825273850314 0 0,0 -0.46755395980711734,-0.4635577961290809 l 12.322848848502577 -12.217525986947477" fill="#ffba11" stroke="none" /><path d="M 85.08716467003676 114.78537596483092 l -4.961482430726833 4.919076852797262 a27.98667481668761,27.98667481668761 0 0,0 -0.33532460837042155,-0.3440725886737171 l 5.045193840248064 -4.833181572055808" fill="#ff2503" stroke="none" /><path d="M 84.58840730492382 114.26474011684316 l -28.088695323132647 25.99847705121915 a59.27395477264589,59.27395477264589 0 0,0 -0.6847617956208725,-0.7526731659980251 l 28.5308548195954 -25.512466309663452" fill="#46ff2c" stroke="none" /><path d="M 84.3458050057657 113.99807769240083 l -5.387012899692554 4.817100152875044 a28.226642502869694,28.226642502869694 0 0,0 -0.3198870770132919,-0.363972772780325 l 5.468911040664438 -4.723915102283419" fill="#ff2904" stroke="none" /><path d="M 83.8745106332314 113.45245675266167 l -17.67096796508879 14.741749966231469 a44.01265523337278,44.01265523337278 0 0,0 -0.479011064159091,-0.5843156121645293 l 17.92142584848651 -14.436232072368444" fill="#f9ff18" stroke="none" /><path d="M 83.64595745247003 113.17365903436017 l -8.640222061834823 6.9599512837857755 a32.094789729890714,32.094789729890714 0 0,0 -0.3419372316227142,-0.43202652194724006 l 8.758425724099098 -6.8106048179238545" fill="#ff6209" stroke="none" /><path d="M 83.20337586046588 112.60449989151573 l -19.188463483809436 14.399380726199782 a44.990400083523866,44.990400083523866 0 0,0 -0.4582550340943439,-0.6217109641765474 l 19.43282053748761 -14.067863452754356" fill="#ecff1a" stroke="none" /><path d="M 82.98947788004972 112.3143062007846 l -10.808008521157678 7.8241646794680415 a34.34281084048081,34.34281084048081 0 0,0 -0.3416045075532397,-0.48050952017814197 l 10.940728127240877 -7.637477932580396" fill="#ff830c" stroke="none" /><path d="M 82.37810715431573 111.42229804090323 l -34.84946950574607 22.589005094278956 a62.53009361873972,62.53009361873972 0 0,0 -0.5761174693429986,-0.9057523523753838 l 35.23210466671496 -21.9874390672249" fill="#31ff3d" stroke="none" /><path d="M 82.18462484594161 111.11811171558189 l -11.2055779486858 6.993109400941749 a34.2086545968018,34.2086545968018 0 0,0 -0.30662688990466574,-0.5008519807538862 l 11.323972803045871 -6.799720304063306" fill="#ff810b" stroke="none" /><line stroke="#e1ed5e" stroke-width="0.3" x1="26.387840678322732" x2="22.057713659400548" y1="142.50000000000003" y2="145.00000000000006" /><path d="M 25.521815274538298 143.00000000000003 a86.0,86.0 0 0,1 -11.493303480769221,-40.785679425670985" fill="none" id="id69" stroke="none" /><text fill="#e1ed5e" style="font-size:6.75px; font-family:Arial;" text-anchor="middle"><textPath startOffset="21.40746469413373" xlink:href="#id69">September</textPath></text><path d="M 81.81346652052679 110.50000000000001 l -28.876086691121962 16.671616424262254 a54.34323284852448,54.34323284852448 0 0,0 -0.4595021424177233,-0.8118962570072183 l 29.158022198561063 -16.173463397155913" fill="#7cff26" stroke="none" /><path d="M 81.63589988554817 110.18625677009913 l -9.77915865006903 5.424334456048167 a32.18281486005609,32.18281486005609 0 0,0 -0.2638295828870253,-0.4854167167669049 l 9.870833582571386 -5.255662905806676" fill="#ff6409" stroke="none" /><path d="M 81.4637452351635 109.86951160357371 l -20.065047533444574 10.683507643262379 a43.731992171453776,43.731992171453776 0 0,0 -0.34713191536343013,-0.6656712187680794 l 20.24548751778295 -10.337490181389796" fill="#fcff18" stroke="none" /><path d="M 81.1358732173502 109.22738970284198 l -19.40594613476397 9.492420698874984 a42.603166344538266,42.603166344538266 0 0,0 -0.31571125522830235,-0.6597150984611685 l 19.56603664795218 -9.157893098348712" fill="#fff316" stroke="none" /><path d="M 80.9802524753101 108.90220220490708 l -4.130372573741025 1.9332229192482178 a25.560408803322204,25.560408803322204 0 0,0 -0.18259325738828172,-0.3989992202297942 l 4.162950295984363 -1.8620347168037348" fill="#ff0000" stroke="none" /><path d="M 80.68587082218212 108.24405325689762 l -21.779916029226275 9.296551039014314 a44.681017787695396,44.681017787695396 0 0,0 -0.2950524955694727,-0.7080185792771843 l 21.936294369332234 -8.921299950295849" fill="#f0ff19" stroke="none" /><path d="M 80.5471966667186 107.91128576633889 l -11.388022837183568 4.631409747736098 a33.293779743904615,33.293779743904615 0 0,0 -0.2107675806924136,-0.5312719869189543 l 11.465849092842106 -4.435236743603578" fill="#ff740a" stroke="none" /><path d="M 80.28708602549918 107.23885506374661 l -15.641729963939328 5.743859903293998 a37.66300221609137,37.66300221609137 0 0,0 -0.21765597831330658,-0.6088225090529004 l 15.738026112296577 -5.474502437860177" fill="#ffb110" stroke="none" /><path d="M 80.16572619554312 106.89939002012753 l -23.680802465778626 8.237412360632595 a46.072601935625464,46.072601935625464 0 0,0 -0.2534312947456147,-0.7492245911254569 l 23.818719182096608 -7.829686095032977" fill="#dfff1b" stroke="none" /><path d="M 80.05021161711548 106.5578916946017 l -13.668063425926908 4.49296393033795 a35.387587799713984,35.387587799713984 0 0,0 -0.1847489641132853,-0.5787234987326901 l 13.743177105817448 -4.257671397913868" fill="#ff910d" stroke="none" /><path d="M 79.73907114497094 105.5222062557868 l -38.4912975666219 10.490974314980187 a60.89536978697913,60.89536978697913 0 0,0 -0.2662302627014454,-1.0109196714842066 l 38.66571731012809 -9.828674139123178" fill="#35ff2f" stroke="none" /><path d="M 79.56144815229197 104.8234425847677 l -12.890235624703163 3.0420605091380417 a34.2443311118993,34.2443311118993 0 0,0 -0.13011074647392595,-0.5732919560079716 l 12.940557232734756 -2.820334219191044" fill="#ff810b" stroke="none" /><path d="M 79.48165901384964 104.47187691870673 l -29.665832704420424 6.465530163216323 a51.362225055784705,51.362225055784705 0 0,0 -0.18036038346512515,-0.8630897260744183 l 29.77245079870992 -5.955323985856496" fill="#9fff22" stroke="none" /><path d="M 79.407916724674 104.11899336999214 l -13.163388416500267 2.6330463454935473 a34.42414718561929,34.42414718561929 0 0,0 -0.11093379405121956,-0.5804524866354017 l 13.206648502833643 -2.406691293824831" fill="#ff840c" stroke="none" /><path d="M 79.2786578344484 103.40968896794605 l -35.19902284636841 5.7919858145708245 a56.67237459176715,56.67237459176715 0 0,0 -0.14971898949201912,-0.9613033136950132 l 35.293263327998694 -5.186894318944361" fill="#62ff29" stroke="none" /><path d="M 79.22317932658666 103.0534771498775 l -15.416628077533662 2.2657134266527423 a36.58222957771813,36.58222957771813 0 0,0 -0.08597779172840388,-0.6220924711577043 l 15.45325038581728 -2.0007326472949525" fill="#ffa20f" stroke="none" /><path d="M 79.17382384314188 102.69636545807758 l -8.54699068935648 1.1065790614520687 a29.61832739359503,29.61832739359503 0 0,0 -0.06095439611569048,-0.5047898406247884 l 8.564727171731834 -0.959695543903881" fill="#ff3e05" stroke="none" /><path d="M 79.0935383218832 101.97986365728391 l -19.417941208274524 1.8388992211809518 a40.50481968934001,40.50481968934001 0 0,0 -0.059612249518034274,-0.6927847005835623 l 19.446647080490298 -1.5052934732217276" fill="#ffd714" stroke="none" /><path d="M 79.06263194458094 101.62068470465958 l -7.90706028687762 0.6120564739485935 a28.93071342992669,28.93071342992669 0 0,0 -0.034077678615476704,-0.49548196804663747 l 7.916401926658163 -0.4762310817476127" fill="#ff3304" stroke="none" /><path d="M 79.03789590574601 101.26102812881392 l -21.295819203158036 1.2811036010778667 a42.334318408852184,42.334318408852184 0 0,0 -0.03741226957655486,-0.7257880350170239 l 21.31467306219116 -0.9153437726841119" fill="#fff016" stroke="none" /><path d="M 79.00696218219943 100.54070618675478 l -10.897037239216864 0.28066902483001277 a31.900651159191277,31.900651159191277 0 0,0 -0.009400921987892812,-0.5475565758536153 l 10.900249592803423 -0.09356553300734514" fill="#ff5f08" stroke="none" /><line stroke="#e1ed5e" stroke-width="0.3" x1="15.003131293944662" x2="10.003315487706104" y1="100.72959589197737" y2="100.7725132973878" /><path d="M 14.003168132696942 100.73817937305945 a86.0,86.0 0 0,1 10.791469493833604,-42.45332614584628" fill="none" id="id70" stroke="none" /><text fill="#e1ed5e" style="font-size:6.75px; font-family:Arial;" text-anchor="middle"><textPath startOffset="22.145653131862435" xlink:href="#id70">October</textPath></text><path d="M 79.00077361379809 99.81974689727619 l -31.71201325890355 -0.27220949374078157 a52.71318153294237,52.71318153294237 0 0,0 0.015534244265168981,-0.9047918501253464 l 31.702667583039712 0.8165482598351802" fill="#8fff24" stroke="none" /><path d="M 79.00696218219943 99.45929381324524 l -19.982692775457895 -0.5146832824046123 a40.98931988436635,40.98931988436635 0 0,0 0.024155031588345463,-0.7032473892435136 l 19.9709130568727 0.8576369362122644" fill="#ffde14" stroke="none" /><path d="M 79.01933749520258 99.09900007780938 l -13.615850844359741 -0.5847232206572164 a34.628400326547045,34.628400326547045 0 0,0 0.03060228903439494,-0.5936762318000006 l 13.603806965868776 0.8183712458339291" fill="#ff870c" stroke="none" /><path d="M 79.06263194458094 98.37931529534042 l -50.66471247548754 -3.921769171638842 a71.81627065871166,71.81627065871166 0 0,0 0.10569432178186391,-1.2283282322181281 l 50.58992453100793 4.790918451232651" fill="#3dffac" stroke="none" /><path d="M 79.0935383218832 98.0201363427161 l -12.399108907879583 -1.174208504881118 a33.45458418906043,33.45458418906043 0 0,0 0.059051495067106184,-0.571269647576316 l 12.377125020330812 1.3868826747403467" fill="#ff760a" stroke="none" /><path d="M 79.13060592940154 97.66154086499901 l -27.412453647426045 -3.071622608100785 a48.58400769320654,48.58400769320654 0 0,0 0.09998568826879099,-0.8280249311332875 l 27.355685872897585 3.5417412161575084" fill="#c0ff1e" stroke="none" /><path d="M 79.2786578344484 96.59031103205396 l -21.317846624393226 -3.507843549651859 a42.60452617092048,42.60452617092048 0 0,0 0.12494321523300081,-0.7206392630965666 l 21.254488591667993 3.8732758456690184" fill="#fff316" stroke="none" /><path d="M 79.48165901384962 95.52812308129327 l -12.490381709577843 -2.7222205591865114 a33.78358791669281,33.78358791669281 0 0,0 0.1283601606363766,-0.565578551802961 l 12.441810687383803 2.9362334449284804" fill="#ff7b0b" stroke="none" /><path d="M 79.64726062577567 94.8264132398404 l -10.629495573011654 -2.7019762083404557 a31.96753625784352,31.96753625784352 0 0,0 0.13975981434411297,-0.5306907793644824 l 10.581546277862817 2.8840474920777224" fill="#ff6008" stroke="none" /><path d="M 79.73907114497095 94.47779374421319 l -8.126887474437426 -2.215019319821282 a29.423337260809962,29.423337260809962 0 0,0 0.13700277550286355,-0.4861745181823942 l 8.087666206859982 2.3542017619066895" fill="#ff3b05" stroke="none" /><path d="M 79.83685265289637 94.1308016681162 l -60.48944204131091 -17.607594995651397 a84.0,84.0 0 0,0 0.41489471998548133,-1.3810495856371061 l 60.1782710013218 18.643382184879226" fill="#4dd2ff" stroke="none" /><path d="M 80.16572619554312 93.10060997987247 l -8.739421890284104 -3.040024594092329 a30.253066762380094,30.253066762380094 0 0,0 0.1748336684729372,-0.48904088705248827 l 8.685948051767225 3.1896004375257383" fill="#ff4706" stroke="none" /><path d="M 80.28708602549916 92.7611449362534 l -10.108625639787162 -3.7120273539845825 a31.768633125986426,31.768633125986426 0 0,0 0.19238073098960723,-0.5103127451557267 l 10.043414224983119 3.885008379334454" fill="#ff5d08" stroke="none" /><path d="M 80.5471966667186 92.08871423366112 l -13.323237057433543 -5.4184445238131405 a35.38291301323244,35.38291301323244 0 0,0 0.2336521704737739,-0.5606801510510194 l 13.228259042423291 5.646357184305424" fill="#ff910d" stroke="none" /><path d="M 80.68587082218212 91.75594674310238 l -26.475830721208485 -11.300957784673399 a49.78682440334566,49.78682440334566 0 0,0 0.34226336027683013,-0.7831655488492176 l 26.277933478914676 11.753785403298483" fill="#b1ff20" stroke="none" /><path d="M 80.9802524753101 91.09779779509293 l -9.211695463843872 -4.311538602850113 a31.17077668826076,31.17077668826076 0 0,0 0.23099139991396356,-0.4826831847592106 l 9.136324805970004 4.46903428967441" fill="#ff5507" stroke="none" /><path d="M 81.1358732173502 90.77261029715801 l -15.156512050880115 -7.413809546589914 a37.87259403712369,37.87259403712369 0 0,0 0.29068133303809446,-0.5815573857816352 l 15.027010804630278 7.67289878853532" fill="#ffb410" stroke="none" /><path d="M 81.46374523516351 90.13048839642627 l -16.12318817703132 -8.584689562083552 a39.26620080556734,39.26620080556734 0 0,0 0.3218980510293278,-0.5922561577608786 l 15.973444776386641 8.86020055331905" fill="#ffc712" stroke="none" /><line stroke="#e1ed5e" stroke-width="0.3" x1="26.387840678322718" x2="22.05771365940052" y1="57.49999999999999" y2="54.99999999999999" /><path d="M 25.521815274538284 56.99999999999999 a86.0,86.0 0 0,1 29.574782752854787,-30.34633250058573" fill="none" id="id71" stroke="none" /><text fill="#e1ed5e" style="font-size:6.75px; font-family:Arial;" text-anchor="middle"><textPath startOffset="21.40746469413373" xlink:href="#id71">November</textPath></text><path d="M 81.81346652052679 89.5 l -24.91738989961242 -14.386061766044097 a49.77212353208819,49.77212353208819 0 0,0 0.4335538046041521,-0.7362691441329128 l 24.66676238487849 14.811682078470582" fill="#b1ff20" stroke="none" /><path d="M 82.18462484594161 88.88188828441811 l -16.28087730532441 -10.160471567001691 a40.191199761736556,40.191199761736556 0 0,0 0.3702993383917034,-0.5821720650370513 l 16.104060275306814 10.438457306717414" fill="#ffd313" stroke="none" /><path d="M 82.37810715431573 88.57770195909679 l -7.248221988400465 -4.698209922347497 a29.637702152052736,29.637702152052736 0 0,0 0.2803946240075902,-0.4245531984348179 l 7.1665029254721455 4.821942999121377" fill="#ff3e05" stroke="none" /><path d="M 82.78059297857968 87.97951657250589 l -11.871838925920843 -8.287465583767835 a35.47835091732293,35.47835091732293 0 0,0 0.3528996112230508,-0.496397498014317 l 11.72782421616782 8.490040308491672" fill="#ff930d" stroke="none" /><path d="M 82.98947788004972 87.6856937992154 l -13.831405986524233 -10.012871286629403 a38.07528573601818,38.07528573601818 0 0,0 0.38782032012872963,-0.5261527473037009 l 13.657483646811684 10.248830343201968" fill="#ffb710" stroke="none" /><path d="M 83.2033758604659 87.39550010848427 l -19.267589470156317 -14.458758341489641 a45.08932744532472,45.08932744532472 0 0,0 0.46989095970635725,-0.6151023499580647 l 19.016546533095653 14.787381604688589" fill="#ebff1a" stroke="none" /><path d="M 83.64595745247003 86.82634096563983 l -24.60681571868449 -19.821508917881797 a52.59727196444285,52.59727196444285 0 0,0 0.5724416098497261,-0.6982856863128807 l 24.262927289596135 20.24099688589317" fill="#90ff24" stroke="none" /><path d="M 83.8745106332314 86.54754324733833 l -7.082674085259661 -5.908618625956544 a30.223667723037803,30.223667723037803 0 0,0 0.33577838050187,-0.3955460879284743 l 6.980201141250676 6.029331496334575" fill="#ff4706" stroke="none" /><path d="M 84.34580500576568 86.00192230759919 l -10.790493481461505 -9.648925808607562 a35.47537629332918,35.47537629332918 0 0,0 0.4098289453457917,-0.4504738023992167 l 10.623266835273848 9.832737186564437" fill="#ff930d" stroke="none" /><path d="M 84.83555147118756 85.47280134310135 l -18.733556479617302 -17.946323337281534 a46.94256463230394,46.94256463230394 0 0,0 0.5624461356818666,-0.5771192840097527 l 18.422723542784635 18.265265313359016" fill="#d4ff1c" stroke="none" /><path d="M 85.86807049272753 84.46653392183569 l -26.77169530233533 -29.426782848001825 a60.78264971246307,60.78264971246307 0 0,0 0.7778297019086633,-0.6955401157826805 l 26.262600573603276 29.882018493667903" fill="#37ff2e" stroke="none" /><path d="M 86.40962598614128 83.9905735841838 l -4.780454110604097 -5.631362922010746 a28.38681188761356,28.38681188761356 0 0,0 0.3741999096099648,-0.3121708734776051 l 4.683079866832223 5.712595979400233" fill="#ff2b04" stroke="none" /><path d="M 87.25179093698888 83.31218511350988 l -26.659143806093173 -34.89767501218883 a64.91534663110727,64.91534663110727 0 0,0 0.891340294042964,-0.6688783737873121 l 26.056150523139454 35.35017241324014" fill="#34ff5b" stroke="none" /><path d="M 87.54013794807813 83.09580414077388 l -9.117795889943043 -12.370041248110802 a36.3672418595734,36.3672418595734 0 0,0 0.5057107249199126,-0.36609556554297495 l 8.904104154649163 12.524737585026855" fill="#ff9f0e" stroke="none" /><path d="M 88.12776184653039 82.6780497279521 l -6.265744886422681 -9.141909043345235 a32.08305282575741,32.08305282575741 0 0,0 0.45696000901735323,-0.3074630875441263 l 6.107888589308338 9.248121804946472" fill="#ff6209" stroke="none" /><path d="M 88.4268655584334 82.4767994020092 l -17.660119231432382 -26.739671386288194 a53.04512189265454,53.04512189265454 0 0,0 0.7641386433907323,-0.4953054365846972 l 17.198494955784625 27.038890664576797" fill="#8bff24" stroke="none" /><path d="M 88.72937992617638 82.28071324371311 l -7.76561710287077 -12.208839920429597 a35.46929788175896,35.46929788175896 0 0,0 0.516561124708831,-0.3223723465139104 l 7.554891849372241 12.340348063785044" fill="#ff920d" stroke="none" /><line stroke="#e1ed5e" stroke-width="0.3" x1="56.869717070023135" x2="54.33264160355391" y1="26.7553504044142" y2="22.446841604673864" /><path d="M 56.362301976729285 25.89364864446614 a86.0,86.0 0 0,1 42.16139366436587,-11.88097634709845" fill="none" id="id72" stroke="none" /><text fill="#e1ed5e" style="font-size:6.75px; font-family:Arial;" text-anchor="middle"><textPath startOffset="22.145653131862474" xlink:href="#id72">December</textPath></text><path d="M 89.34428304082924 81.90426304109057 l -18.39427334860976 -31.23749751819834 a57.25093851506224,57.25093851506224 0 0,0 0.8511511536411226,-0.49141234767576 l 17.85532972710824 31.548656763150273" fill="#5cff2a" stroke="none" /><path d="M 89.97174638481275 81.54914285379989 l -6.30781652715807 -11.605671945788778 a34.20909424046771,34.20909424046771 0 0,0 0.5183674471013493,-0.27600146841889434 l 6.107660264270159 11.712243881930247" fill="#ff810b" stroke="none" /><path d="M 90.61103034731259 81.2157712731953 l -9.73432391162855 -19.47516858833358 a42.772442526288096,42.772442526288096 0 0,0 0.6595912917222047,-0.3226391533224637 l 9.398572370644292 19.639401491753258" fill="#fff517" stroke="none" /><path d="M 90.93487009805054 81.0573650232925 l -9.59853059735179 -20.057237280106968 a43.23565957957648,43.23565957957648 0 0,0 0.6722348007590735,-0.3146398298801921 l 9.252807082721192 20.219053341557704" fill="#fffb17" stroke="none" /><path d="M 91.5904679813234 80.7573450057729 l -15.24929189865353 -34.89336413255374 a59.08001790831155,59.08001790831155 0 0,0 0.9328029379380428,-0.39815810631440396 l 14.648053885545057 35.14999688852755" fill="#48ff2c" stroke="none" /><path d="M 91.92203290615298 80.6158196554323 l -5.629528303262882 -13.508818570010675 a35.634881894798575,35.634881894798575 0 0,0 0.5666718968939768,-0.2304605272193113 l 5.396801945178464 13.603466353809278" fill="#ff950d" stroke="none" /><path d="M 92.25597844496254 80.48000691201159 l -4.0796216574970225 -10.28331158300403 a32.06299281304402,32.06299281304402 0 0,0 0.5133555967245723,-0.19857697294731935 l 3.902493798278921 10.35182844408939" fill="#ff6209" stroke="none" /><path d="M 92.93061703081487 80.22567764915836 l -10.294267842073642 -28.79489929494249 a51.57970202291433,51.57970202291433 0 0,0 0.8363138484971878,-0.2909133692971076 l 9.79844822153145 28.967371096808183" fill="#9cff22" stroke="none" /><path d="M 93.27111125876988 80.10723608172694 l -4.283234669347212 -12.66262221900102 a34.367426853880154,34.367426853880154 0 0,0 0.5604791553813189,-0.18424063090442896 l 4.065232776318132 12.73428377130748" fill="#ff830c" stroke="none" /><path d="M 93.95794788825049 79.88797359093562 l -9.872331614863542 -32.86178114403666 a55.312673919011296,55.312673919011296 0 0,0 0.9117108697840869,-0.26538574677756654 l 9.306760732697832 33.02641058511675" fill="#71ff27" stroke="none" /><path d="M 94.30408787586887 79.78721728523814 l -3.123694764244405 -11.084890735835005 a32.51660851143116,32.51660851143116 0 0,0 0.538565772323882,-0.14678849614248257 l 2.9329475909858456 11.136879726121627" fill="#ff6809" stroke="none" /><path d="M 95.00130118170881 79.60360301121753 l -3.523985132908703 -14.379061905142821 a35.80459025062467,35.80459025062467 0 0,0 0.5982228317838971,-0.1411789594246782 l 3.2766301473848998 14.437437008213731" fill="#ff970d" stroke="none" /><path d="M 95.35216902796891 79.52079915486377 l -6.934234043894934 -30.55351464944702 a52.33051003749357,52.33051003749357 0 0,0 0.877751066318843,-0.19130175955701997 l 6.408720560956973 30.668047867137755" fill="#93ff23" stroke="none" /><path d="M 95.70440661134978 79.44403061299748 l -2.4913836599050043 -11.922172703682733 a33.17970420483516,33.17970420483516 0 0,0 0.5585305735929457,-0.11172175727959674 l 2.286356600781082 11.963183857625197" fill="#ff720a" stroke="none" /><path d="M 96.41257539226777 79.30868818359171 l -5.118645529957357 -29.522987189677444 a50.963432791708144,50.963432791708144 0 0,0 0.8632780745549203,-0.1420520786521785 l 4.611089952349364 29.60650526682529" fill="#a3ff21" stroke="none" /><path d="M 96.76829788921471 79.25015418208739 l -2.3075595279045182 -14.816187500660094 a35.994807202146326,35.994807202146326 0 0,0 0.6113544789284421,-0.08984805525476589 l 2.0528799433683913 14.853616629213745" fill="#ff9a0e" stroke="none" /><path d="M 97.48249496171623 79.15144685158666 l -0.9963567341404753 -8.251263060298877 a29.311201407252735,29.311201407252735 0 0,0 0.5000548164365135,-0.05603218519624603 l 0.8545660161031625 8.267151006002093" fill="#ff3905" stroke="none" /><path d="M 97.84075906011542 79.11130261209362 l -3.4519249593011447 -33.394242647352314 a54.57217937392343,54.57217937392343 0 0,0 0.9326656668729699,-0.08832440834170861 l 2.8781597290431593 33.448578811199205" fill="#7aff26" stroke="none" /><path d="M 98.1996594967304 79.07731436759882 l -1.2225848297589277 -14.20828893508392 a35.260791988132524,35.260791988132524 0 0,0 0.6035153290150687,-0.04671590336346517 l 0.9785005059686418 14.227182605442438" fill="#ff900d" stroke="none" /><path d="M 98.9189461498227 79.02784411241856 l -1.5088120702351293 -29.27055108017619 a50.309412726980575,50.309412726980575 0 0,0 0.8628644982647452,-0.03705511423292001 l 1.0061218113695638 29.29213876283494" fill="#abff21" stroke="none" /><path d="M 99.63950707515114 79.00309439819443 l -0.3212491205402723 -18.711150743042207 a39.713908280375236,39.713908280375236 0 0,0 0.6817420453891199,-0.005851935527464132 l 4.5835855750197365e-15 18.713908280375236" fill="#ffcd13" stroke="none" /></svg>