<?xml version="1.0" encoding="utf-8" ?>
<svg baseProfile="full" height="200mm" version="1.1" viewBox="0,0,200,200" width="200mm" xmlns="http://www.w3.org/2000/svg" xmlns:ev="http://www.w3.org/2001/xml-events" xmlns:xlink="http://www.w3.org/1999/xlink"><defs /><rect fill="#1a1a1a" height="200" width="200" x="0" y="0" /><text alignment-baseline="middle" fill="#e1ed5e" style="dominant-baseline: central; font-size:9.0px; font-family:Arial;" text-anchor="middle" x="100.0" y="100.0">2019</text><line stroke="#e1ed5e" stroke-width="0.3" x1="100.0" x2="100.0" y1="15.0" y2="10.0" /><path d="M 100.0 14.0 a86.0,86.0 0 0,1 42.46469731375804,11.215312516191453" fill="none" id="id49" stroke="none" /><text fill="#e1ed5e" style="font-size:6.75px; font-family:Arial;" text-anchor="middle"><textPath startOffset="22.20632615414155" xlink:href="#id49">January</textPath></text><path d="M 104.307194497241 79.44645832069477 l 2.1500583527523425 -10.259883549382455 a31.482745888703437,31.482745888703437 0 0,0 0.5294457511533917,0.11571633454693485 l -2.326346828059262 10.22135371673965" fill="#ff6109" stroke="none" /><path d="M 107.08798089147638 80.2323363322302 l 3.7610410583920526 -10.489164096417454 a32.14306929371274,32.14306929371274 0 0,0 0.5192141527782929,0.19123095429673032 l -3.9410375369429222 10.422869874314399" fill="#ff6b09" stroke="none" /><path d="M 107.4271985657038 80.35727306442388 l 2.7822186016067625 -7.358139113016077 a28.866571778965962,28.866571778965962 0 0,0 0.46326288848843045,0.17973880351271607 l -2.9084646550948596 7.309157605612814" fill="#ff3b05" stroke="none" /><path d="M 108.76106565485865 80.91482961587045 l 3.355049745992819 -7.308665243707344 a29.041949169365733,29.041949169365733 0 0,0 0.4525313597402862,0.21246954118112651 l -3.4803593170327027 7.249830719886214" fill="#ff3e05" stroke="none" /><path d="M 109.08828744355905 81.06846463323043 l 5.817978788788886 -12.119254797682638 a34.44340782829826,34.44340782829826 0 0,0 0.5322797858266957,0.2611873792394301 l -6.025729841626013 12.017312258308376" fill="#ff8b0c" stroke="none" /><line stroke="#e1ed5e" stroke-width="0.3" x1="143.23703022742887" x2="145.7803849466894" y1="26.81831364943548" y2="22.513508569990506" /><path d="M 143.74570117128098 25.957352633546492 a86.0,86.0 0 0,1 28.547481713284135,27.462654790039103" fill="none" id="id50" stroke="none" /><text fill="#e1ed5e" style="font-size:6.75px; font-family:Arial;" text-anchor="middle"><textPath startOffset="19.985693538727396" xlink:href="#id50">February</textPath></text><path d="M 113.6212207817346 84.01681056812373 l 4.3926981469642845 -5.1544077968495525 a27.772275595881116,27.772275595881116 0 0,0 0.3611800329012507,0.3132117654048194 l -4.4807719785122995 5.078031038025062" fill="#ff2b04" stroke="none" /><path d="M 113.89432698308785 84.25364557470407 l 6.027686354404983 -6.83113948710939 a30.110294697726587,30.110294697726587 0 0,0 0.38568278256834154,0.34626981027378756 l -6.144380124569315 6.726370668066305" fill="#ff4d07" stroke="none" /><path d="M 114.94478906791727 85.2469230424477 l 3.223592166061541 -3.1822398489225634 a25.529701635777354,25.529701635777354 0 0,0 0.306035154224874,0.31539612767826 l -3.2778915839895237 3.126279525694189" fill="#ff0901" stroke="none" /><path d="M 115.19652480421416 85.50635884689758 l 11.056598271238782 -10.5451983122423 a36.279056671669174,36.279056671669174 0 0,0 0.42711277796771974,0.4556141319587337 l -11.236478371176965 10.353314763405512" fill="#ffa50f" stroke="none" /><path d="M 115.9244219780498 86.31012108654704 l 5.928030311369618 -5.096198610523601 a28.81746657494739,28.81746657494739 0 0,0 0.3201337665773801,0.37893740423971833 l -6.014874691434115 4.993402256654776" fill="#ff3a05" stroke="none" /><path d="M 116.15771136456269 86.58626213691792 l 11.731590007287691 -9.739279872274734 a36.24741868414415,36.24741868414415 0 0,0 0.3944090394126043,0.4834988468700895 l -11.897497538776705 9.535896855796542" fill="#ffa40f" stroke="none" /><path d="M 116.82858285166822 87.43820079747576 l 5.357251662062049 -3.998953462058253 a27.68519066013635,27.68519066013635 0 0,0 0.28177906303617595,0.3843463253116637 l -5.425293337611851 3.906144693075096" fill="#ff2a04" stroke="none" /><path d="M 117.2510076193507 88.02491185347247 l 10.183713411714653 -7.069202475307215 a33.396840020296565,33.396840020296565 0 0,0 0.32375140724322393,0.4750652413040471 l -10.30388928462661 6.8928592107327615" fill="#ff7d0b" stroke="none" /><path d="M 117.65298651832404 88.62581576622439 l 8.737083774002308 -5.629483736832794 a31.393638439795726,31.393638439795726 0 0,0 0.28878021904765266,0.45678095581377626 l -8.832691589295916 5.478255133304812" fill="#ff6008" stroke="none" /><line stroke="#e1ed5e" stroke-width="0.3" x1="172.23445277983987" x2="176.4835382374775" y1="55.19839476539836" y2="52.563006222186495" /><path d="M 173.08426987136738 54.67131705675599 a86.0,86.0 0 0,1 12.851231095245387,41.99856678651699" fill="none" id="id51" stroke="none" /><text fill="#e1ed5e" style="font-size:6.75px; font-family:Arial;" text-anchor="middle"><textPath startOffset="22.20632615414155" xlink:href="#id51">March</textPath></text><path d="M 118.03404312379186 89.2402003453031 l 17.555788452841426 -10.474454632062413 a41.443089493519665,41.443089493519665 0 0,0 0.3602397641477351,0.6157665303637196 l -17.73348789145949 10.1707086893448" fill="#ffea16" stroke="none" /><path d="M 118.21658344932153 89.55222093294921 l 5.906051513420555 -3.387304844648962 a27.808471090469546,27.808471090469546 0 0,0 0.23457419814366492,0.4172813240051675 l -5.963483352856652 3.285140010709001" fill="#ff2b04" stroke="none" /><path d="M 118.56541770881063 90.18545643968196 l 5.922562310698682 -3.1309419857256717 a27.69921950991967,27.69921950991967 0 0,0 0.21920709482742448,0.42343833498965033 l -5.975578838686222 3.0285309284756763" fill="#ff2a04" stroke="none" /><path d="M 118.89224826269711 90.83032412892265 l 14.832805133353817 -7.1993557061317786 a37.487656919873714,37.487656919873714 0 0,0 0.276769239880848,0.5829466041452448 l -14.954532567076422 6.942966686345994" fill="#ffb510" stroke="none" /><path d="M 119.34039704204932 91.81776055985345 l 11.670360555238334 -4.937317688369622 a33.67179629907103,33.67179629907103 0 0,0 0.22123703108844775,0.5357430191445708 l -11.75361927321298 4.735700098771748" fill="#ff810b" stroke="none" /><path d="M 119.61058180528143 92.48833698450437 l 9.530685268368252 -3.650646204869366 a31.20593843788109,31.20593843788109 0 0,0 0.18782321095471097,0.5032728255332055 l -9.592113067824588 3.486050242306827" fill="#ff5d08" stroke="none" /><path d="M 120.08093135843002 93.85539295169968 l 6.68589932061702 -2.0458326038967924 a27.991901084011005,27.991901084011005 0 0,0 0.13701916000327996,0.4619604916579128 l -6.720124377732002 1.9304427254923495" fill="#ff2e04" stroke="none" /><path d="M 120.18372546131832 94.20196356495316 l 12.770251635568409 -3.668420104585889 a34.286708881414825,34.286708881414825 0 0,0 0.1580670006409871,0.5686511022077055 l -12.83150540677576 3.4480576989592318" fill="#ff890c" stroke="none" /><path d="M 120.28053869075195 94.5502522615342 l 11.087579833422344 -2.9794333396975468 a32.48091675730711,32.48091675730711 0 0,0 0.14044697075137327,0.5411994702300952 l -11.13722313604402 2.788137443918601" fill="#ff700a" stroke="none" /><path d="M 120.45610955862082 95.25157060432595 l 12.023686757679416 -2.791030595574846 a33.34337453989914,33.34337453989914 0 0,0 0.12496717774206736,0.5602033542165878 l -12.069948322423521 2.5836490718082943" fill="#ff7c0b" stroke="none" /><path d="M 120.6074358757038 95.95851677861258 l 11.73944650708336 -2.302313416036885 a32.96307867391731,32.96307867391731 0 0,0 0.10440549122371263,0.5577383089128141 l -11.77733772221693 2.0998970296615083" fill="#ff770a" stroke="none" /><path d="M 120.73433829027371 96.67025291283417 l 20.39309196407692 -3.2749460154001193 a41.654381405868435,41.654381405868435 0 0,0 0.10759546208095108,0.708919661296006 l -20.44644331959717 2.923427241712031" fill="#ffec16" stroke="none" /><path d="M 120.78858239683441 97.02765380044208 l 11.195903963417104 -1.6007874881043176 a32.30976507890991,32.30976507890991 0 0,0 0.07398013211882835,0.5512379142844311 l -11.221800094593767 1.4078312317552222" fill="#ff6d0a" stroke="none" /><path d="M 120.87857604477298 97.74499172005257 l 11.536744435943419 -1.2460358489439654 a32.60383891292554,32.60383891292554 0 0,0 0.055462039988728624,0.5584951738071539 l -11.556483601614376 1.0472651444323764" fill="#ff710a" stroke="none" /><path d="M 120.98425023603335 99.18683210126433 l 18.51770715698013 -0.7175860394757848 a39.531605652930445,39.531605652930445 0 0,0 0.020496771476574072,0.6801880591726872 l -18.527315622912347 0.3987278328780986" fill="#ffd113" stroke="none" /><line stroke="#e1ed5e" stroke-width="0.3" x1="184.98032266829074" x2="189.97916517819016" y1="98.17113171792111" y2="98.06355123074" /><path d="M 185.9800911702706 98.14961562048488 a86.0,86.0 0 0,1 -9.607161424134198,41.387399972396054" fill="none" id="id52" stroke="none" /><text fill="#e1ed5e" style="font-size:6.75px; font-family:Arial;" text-anchor="middle"><textPath startOffset="21.466115282336823" xlink:href="#id52">April</textPath></text><path d="M 120.99513854157772 99.54816195383933 l 11.742113818367267 -0.2527029652593351 a32.74483272388936,32.74483272388936 0 0,0 0.00727713815495174,0.5636223697886313 l -11.744723963639935 0.05054433741024098" fill="#ff730a" stroke="none" /><path d="M 120.99824983174949 100.27111621757518 l 15.73214591967991 0.20312359031158062 a36.733457167165845,36.733457167165845 0 0,0 -0.013605263200437121,0.6321831200691111 l -15.726318593794465 -0.47389652617080663" fill="#ffab0f" stroke="none" /><path d="M 120.9764740272857 100.99374915477107 l 11.677159063981614 0.5531991189207763 a32.69025547499723,32.69025547499723 0 0,0 -0.03146615969374372,0.5618494191022515 l -11.665906553400342 -0.7541202543584511" fill="#ff730a" stroke="none" /><path d="M 120.89721153311464 102.0752229133903 l 8.53305478840237 0.8473853456498993 a29.575026877269764,29.575026877269764 0 0,0 -0.05466830840095927,0.5061606400022336 l -8.51720417850036 -0.9941423075369243" fill="#ff4606" stroke="none" /><path d="M 120.81339534386255 102.79330883721812 l 17.31463027221575 2.3237491506548658 a38.469866386973294,38.469866386973294 0 0,0 -0.0937308200454304,0.6555531370898592 l -17.27206540115372 -2.621447759725134" fill="#ffc312" stroke="none" /><path d="M 120.76222939487914 103.15116336523771 l 11.779455837027179 1.7878132925951877 a32.91435504698654,32.91435504698654 0 0,0 -0.08983776607728289,0.559419855120085 l -11.746936316588608 -1.9903123774084777" fill="#ff760a" stroke="none" /><path d="M 120.5718875245553 104.21870165774334 l 27.673809417536944 5.675101301544766 a49.24971685629701,49.24971685629701 0 0,0 -0.17745367468955772,0.8290044907794072 l -27.572021704122943 -6.150619611740342" fill="#b3ff20" stroke="none" /><path d="M 120.32669344350535 105.2749913415812 l 15.222404698614497 3.9503745755014994 a36.7266354982612,36.7266354982612 0 0,0 -0.16406649169458354,0.6105524498285596 l -15.152150130578137 -4.211817958505607" fill="#ffab0f" stroke="none" /><path d="M 120.23288151984713 105.62410040840565 l 11.540174533109878 3.207803112031777 a32.977713849487245,32.977713849487245 0 0,0 -0.15673422194486106,0.5456123881882552 l -11.483247674278918 -3.405972975724614" fill="#ff770a" stroke="none" /><path d="M 119.67450827220406 107.3425965602758 l 10.903504707893314 4.0692267911079805 a32.63808496242069,32.63808496242069 0 0,0 -0.20096624232162577,0.5246594431909896 l -10.831844185978182 -4.256309801132114" fill="#ff720a" stroke="none" /><path d="M 119.41010516605496 108.01547362559984 l 11.23880325874454 4.641104740705621 a33.1593812302669,33.1593812302669 0 0,0 -0.2224031576453934,0.5256953678430059 l -11.157249119906837 -4.83387463421479" fill="#ff790b" stroke="none" /><path d="M 119.26925614724726 108.34839909993367 l 6.150598284055698 2.6647447512393723 a27.70303840367088,27.70303840367088 0 0,0 -0.1933393932423759,0.435929291652381 l -6.1038178060820485 -2.7702223793844407" fill="#ff2a04" stroke="none" /><path d="M 119.12269723197855 108.67885076344098 l 17.59364024137545 7.984887078859476 a40.320833279263155,40.320833279263155 0 0,0 -0.2922787759653863,0.629542481088871 l -17.453586848570232 -8.286549627227178" fill="#ffdb14" stroke="none" /><path d="M 118.97047184881838 109.00673069616215 l 14.249494339486148 6.765322396566156 a36.773955625033544,36.773955625033544 0 0,0 -0.2764118636574549,0.56949030962399 l -14.130929219213979 -7.009601662155422" fill="#ffac0f" stroke="none" /><line stroke="#e1ed5e" stroke-width="0.3" x1="174.80103733775053" x2="179.2010983576182" y1="140.37084112569926" y2="142.7455964860345" /><path d="M 175.68104954172406 140.8457921977663 a86.0,86.0 0 0,1 -30.038265399797805,32.042727171017184" fill="none" id="id53" stroke="none" /><text fill="#e1ed5e" style="font-size:6.75px; font-family:Arial;" text-anchor="middle"><textPath startOffset="22.206326154141568" xlink:href="#id53">May</textPath></text><path d="M 118.48025628344425 109.97397251340804 l 5.009164230901932 2.703494236653039 a26.692153140926862,26.692153140926862 0 0,0 -0.22170196144336332,0.4024534577075272 l -4.961885860007059 -2.789318212758371" fill="#ff1b02" stroke="none" /><path d="M 118.30583269289576 110.29060199501025 l 9.345953454993285 5.253816577628352 a31.72144741227897,31.72144741227897 0 0,0 -0.27166852363122085,0.47367696995903763 l -9.254132935209686 -5.413913393445704" fill="#ff6509" stroke="none" /><path d="M 117.75023020441432 111.22182372390056 l 6.432930581793969 4.066945171168997 a28.610692405785095,28.610692405785095 0 0,0 -0.26675402040323243,0.41400816349568625 l -6.3619716980136864 -4.177074934586136" fill="#ff3705" stroke="none" /><path d="M 117.55443506779139 111.5257021239791 l 9.905652983920103 6.503747069915371 a32.84992350132599,32.84992350132599 0 0,0 -0.3144158386315189,0.47000901825293295 l -9.792234039877863 -6.673293002374111" fill="#ff750a" stroke="none" /><path d="M 116.93607887273984 112.41649034213515 l 6.081676331525469 4.458710661528804 a28.541013709354182,28.541013709354182 0 0,0 -0.2938891738927981,0.39371257511180846 l -6.004025890937579 -4.562736116149928" fill="#ff3605" stroke="none" /><path d="M 116.27256486870786 113.27417163493432 l 48.81769460612357 39.822514904802965 a84.0,84.0 0 0,0 -0.9236160004258265,1.1125549715449181 l -48.12498260580419 -40.656931133461654" fill="#4dd2ff" stroke="none" /><path d="M 115.56566222782051 114.09645910891815 l 5.156961981253463 4.6702095054495905 a27.957378364074025,27.957378364074025 0 0,0 -0.32610763110964847,0.35392542653016146 l -5.075807942148093 -4.758286186781087" fill="#ff2e04" stroke="none" /><path d="M 114.81725581225074 114.88116024355365 l 5.877777544783334 5.903127450061602 a29.33037709576403,29.33037709576403 0 0,0 -0.36083353902507387,0.3531515633288613 l -5.775294053382466 -6.003429116313035" fill="#ff4206" stroke="none" /><path d="M 114.29624159901734 115.38237550388516 l 9.158133835298914 9.853908287272294 a34.452543398154134,34.452543398154134 0 0,0 -0.43787615976094096,0.3999894899980783 l -8.98715812607111 -10.010090543856954" fill="#ff8c0c" stroke="none" /><path d="M 112.04921762599082 117.19931262002967 l 7.57261737013438 10.809317048093241 a34.19794941953712,34.19794941953712 0 0,0 -0.48502970450590455,0.33360785349613387 l -7.385430781005592 -10.938065690954469" fill="#ff880c" stroke="none" /><path d="M 111.45004920935366 117.60387380957326 l 5.039665179472175 7.748231316722565 a30.243014316694776,30.243014316694776 0 0,0 -0.4388379439643864,0.2800871387367671 l -4.905545433460858 -7.833832884283141" fill="#ff4f07" stroke="none" /><line stroke="#e1ed5e" stroke-width="0.3" x1="143.8653032363475" x2="146.44561519142675" y1="172.8068346515853" y2="177.08958963109032" /><path d="M 144.38136562736335 173.6633856474863 a86.0,86.0 0 0,1 -40.68145358897372,12.25698825130547" fill="none" id="id54" stroke="none" /><text fill="#e1ed5e" style="font-size:6.75px; font-family:Arial;" text-anchor="middle"><textPath startOffset="21.466115282336833" xlink:href="#id54">June</textPath></text><path d="M 110.8373102113329 117.98757091392108 l 5.204461063107317 8.63827007032494 a31.08494545177473,31.08494545177473 0 0,0 -0.46069684532964095,0.2721878166592026 l -5.054996346749293 -8.726576459277894" fill="#ff5c08" stroke="none" /><path d="M 110.5260780823613 118.17145234162733 l 7.189994446256818 12.4122812309038 a35.344362847204145,35.344362847204145 0 0,0 -0.529073525876342,0.3004217559634234 l -6.975272153459277 -12.53420615266185" fill="#ff980e" stroke="none" /><path d="M 109.89434966115114 118.52300852407294 l 4.90061848861559 9.174347091680911 a31.401187726870184,31.401187726870184 0 0,0 -0.4789564809709463,0.25056739396274597 l -4.741971105118148 -9.257343904588373" fill="#ff6008" stroke="none" /><path d="M 109.2508944713604 118.85261126421891 l 6.744019394872908 13.743792711451693 a36.309266334275286,36.309266334275286 0 0,0 -0.5634633301212354,0.2704966400683745 l -6.50644339675144 -13.857843628019628" fill="#ffa50f" stroke="none" /><path d="M 108.92500713936063 119.00905698771935 l 1.8874157940216814 4.019940133140324 a25.44097478641286,25.44097478641286 0 0,0 -0.39800830648622687,0.18270609243313665 l -1.817939491768035 -4.051833295907534" fill="#ff0801" stroke="none" /><path d="M 108.59647513512805 119.15986991738527 l 5.241527153759223 11.682343850922276 a33.80432601720125,33.80432601720125 0 0,0 -0.5329482595916347,0.23362885509935216 l -5.039658219509834 -11.770837259316082" fill="#ff820c" stroke="none" /><path d="M 107.59598834532513 119.57807347666477 l 2.24191165661228 5.7783541977601285 a27.198027517753218,27.198027517753218 0 0,0 -0.4379268114444698,0.1655864481806074 l -2.1421146244075353 -5.816088896047367" fill="#ff2203" stroke="none" /><path d="M 106.91757812671514 119.82793768551818 l 2.6858917798175574 7.698604029436081 a29.153681294663226,29.153681294663226 0 0,0 -0.4752470239745254,0.1612295936422023 l -2.552975022905805 -7.743696609976406" fill="#ff3f05" stroke="none" /><path d="M 106.2309692047433 120.05430185196036 l 2.741867057171471 8.824667205962893 a30.24081090896243,30.24081090896243 0 0,0 -0.49843340232439587,0.15017389540879497 l -2.58955868040683 -8.870556470477412" fill="#ff4f07" stroke="none" /><path d="M 105.88484417918355 120.15858648285463 l 2.8410914837705747 9.732184342939858 a31.138402877382482,31.138402877382482 0 0,0 -0.515813325525868,0.14577399811365727 l -2.673146990140101 -9.779647134392034" fill="#ff5c08" stroke="none" /><path d="M 105.18746579009965 120.34920634021253 l 3.3184799354920416 13.017615089059786 a34.4339350783447,34.4339350783447 0 0,0 -0.5756152286961156,0.1414722185645698 l -3.093911422052715 -13.072808565938386" fill="#ff8b0c" stroke="none" /><path d="M 104.48393922423573 120.51570834832081 l 2.0138950721880575 9.214327375762533 a30.43183981784626,30.43183981784626 0 0,0 -0.5127164177127356,0.10744471038005736 l -1.8549871930459438 -9.247628066869131" fill="#ff5207" stroke="none" /><path d="M 104.13013068566511 120.58985236759428 l 2.6188427678616697 13.05566096282746 a34.31572831725994,34.31572831725994 0 0,0 -0.5801521372469576,0.1111875378771035 l -2.3937230160430074 -13.098805699053031" fill="#ff8a0c" stroke="none" /><path d="M 103.41894727170886 120.7198165907248 l 3.022160356626801 18.315172279848788 a39.562838922473794,39.562838922473794 0 0,0 -0.6728774855686046,0.10508962482139973 l -2.706447007449679 -18.364480212017295" fill="#ffd113" stroke="none" /><path d="M 102.70371172650421 120.8252237178851 l 2.06740226195987 15.924077333437925 a37.05772060518143,37.05772060518143 0 0,0 -0.6332856994963535,0.07668207883532513 l -1.7929891394121367 -15.9573049409986" fill="#ffaf10" stroke="none" /><path d="M 101.98527174616119 120.90594882070398 l 1.144883039650925 12.056216625716736 a33.11045484284917,33.11045484284917 0 0,0 -0.567853259705439,0.04899676864928992 l -0.9371854622039444 -12.07413764664469" fill="#ff790b" stroke="none" /><path d="M 101.62511606390274 120.93702456842531 l 0.9484017771159335 12.218641947657844 a33.2553937911395,33.2553937911395 0 0,0 -0.5711015907640976,0.0393865093975472 l -0.7379374255729056 -12.233156801571676" fill="#ff7b0b" stroke="none" /><line stroke="#e1ed5e" stroke-width="0.3" x1="102.19456741930631" x2="102.32365962044197" y1="184.97166512339345" y2="189.96999836594603" /><path d="M 102.22038585953345 185.97133177190398 a86.0,86.0 0 0,1 -42.740103519485714,-10.115201625700543" fill="none" id="id55" stroke="none" /><text fill="#e1ed5e" style="font-size:6.75px; font-family:Arial;" text-anchor="middle"><textPath startOffset="22.20632615414155" xlink:href="#id55">July</textPath></text><path d="M 100.54218724476979 120.99299961872073 l 0.29562481184420514 11.446325272673636 a32.45014219462907,32.45014219462907 0 0,0 -0.5585137837073215,0.009615321290503772 l -0.09855133824421561 -11.449718071243298" fill="#ff6f0a" stroke="none" /><path d="M 100.18074693466247 120.99922214144158 l 0.039028410251318583 4.534330046732246 a25.534498008545775,25.534498008545775 0 0,0 -0.4395506898275449,0.0 l 0.03902841025131546 -4.534330046732246" fill="#ff0901" stroke="none" /><path d="M 99.45781275523022 120.99299961872073 l -0.21753957790842104 8.422935655794115 a29.425744390236652,29.425744390236652 0 0,0 -0.5062344088103116,-0.017435736614759747 l 0.36249433839337564 -8.417943120753261" fill="#ff4306" stroke="none" /><path d="M 99.09653310690486 120.98055641714683 l -0.3633226002511618 8.437177245178033 a29.44499633975073,29.44499633975073 0 0,0 -0.5061902382938648,-0.026164253408857457 l 0.5085009069585155 -8.429673185006973" fill="#ff4406" stroke="none" /><path d="M 98.73552117531835 120.96189622390904 l -1.0851390476781986 17.988891282278825 a39.021590837615946,39.021590837615946 0 0,0 -0.6701256566520006,-0.04621578874950797 l 1.3946274651091293 -17.96754714901303" fill="#ffca12" stroke="none" /><path d="M 98.37488393609728 120.93702456842531 l -0.6546517677564259 8.43414230511221 a29.45951094094157,29.45951094094157 0 0,0 -0.5052385839016823,-0.043594110952126446 l 0.7997346693996499 -8.421623941881421" fill="#ff4406" stroke="none" /><path d="M 97.65516085044442 120.86867818915974 l -1.228803411102111 10.936145854137553 a32.00496451453189,32.00496451453189 0 0,0 -0.5469382900228048,-0.06622661005442684 l 1.4168691241763052 -10.913373715357777" fill="#ff6909" stroke="none" /><path d="M 96.93821686468263 120.77559828337769 l -2.1059988961615144 14.290165278917872 a35.444516435292094,35.444516435292094 0 0,0 -0.602833814401182,-0.09415024390590104 l 2.3516685741712138 -14.251796727664866" fill="#ff990e" stroke="none" /><path d="M 96.22490169976321 120.6578951692458 l -2.191087615775054 11.989954876267626 a33.18851438342412,33.18851438342412 0 0,0 -0.5610951157318417,-0.10753521434763523 l 2.3971503460785906 -11.950462463571524" fill="#ff7a0b" stroke="none" /><path d="M 95.86986931433489 120.58985236759428 l -4.563430841460899 22.749974387378348 a44.20315141680473,44.20315141680473 0 0,0 -0.7447358287140577,-0.15606663383786612 l 4.9543581316043435 -22.66805177281394" fill="#f1ff19" stroke="none" /><path d="M 95.16358092515715 120.4354850818985 l -2.8161466468752616 11.89915966753312 a33.22786501111922,33.22786501111922 0 0,0 -0.5554539460547336,-0.1365170658128875 l 3.0205538776732057 -11.848921343406202" fill="#ff7a0b" stroke="none" /><path d="M 94.46302465271185 120.25689768951611 l -4.115762454070131 15.057422819713988 a36.60978803667676,36.60978803667676 0 0,0 -0.6064478190598298,-0.17138821130984083 l 4.3743414412345745 -14.984345815065627" fill="#ffa90f" stroke="none" /><path d="M 93.76903079525671 120.05430185196036 l -4.056791876673593 13.056737430745294 a34.67245232816959,34.67245232816959 0 0,0 -0.5684278690447961,-0.18199265330767445 l 4.280941090809329 -12.984971930777913" fill="#ff8f0d" stroke="none" /><path d="M 93.42475214034765 119.94407469862007 l -8.036575383262836 24.37658065309186 a46.667181929996886,46.667181929996886 0 0,0 -0.7607423263410906,-0.2580851009157964 l 8.454987442541151 -24.23463256527794" fill="#d2ff1c" stroke="none" /><path d="M 92.7421414339146 119.70592522655815 l -4.751258789294705 12.900216996701255 a34.74736551652098,34.74736551652098 0 0,0 -0.5594818586315712,-0.21154816597483989 l 4.9726108686865595 -12.816520580619782" fill="#ff900d" stroke="none" /><path d="M 92.06813273071674 119.44442032107085 l -4.726745754439572 11.58728809748039 a33.51428667088633,33.51428667088633 0 0,0 -0.5322843390154463,-0.2224948968779954 l 4.925501552952481 -11.50420815758242" fill="#ff7e0b" stroke="none" /><path d="M 91.40352486487194 119.15986991738527 l -4.324596608322567 9.638684130200962 a31.564391491539062,31.564391491539062 0 0,0 -0.4938053713855781,-0.2266818263791058 l 4.489869975475565 -9.562815233487783" fill="#ff6309" stroke="none" /><path d="M 90.42595943632237 118.69057910512821 l -4.173494692377763 8.14755611007727 a30.154273784094663,30.154273784094663 0 0,0 -0.45993753432153883,-0.2406175799667065 l 4.313123129225797 -8.074509111165847" fill="#ff4e07" stroke="none" /><line stroke="#e1ed5e" stroke-width="0.3" x1="58.666819895761336" x2="56.23545636021788" y1="174.27360380694188" y2="178.64263932499728" /><path d="M 58.180547188652646 175.14741091055294 a86.0,86.0 0 0,1 -31.652253787137756,-30.449443065178592" fill="none" id="id56" stroke="none" /><text fill="#e1ed5e" style="font-size:6.75px; font-family:Arial;" text-anchor="middle"><textPath startOffset="22.20632615414155" xlink:href="#id56">August</textPath></text><path d="M 89.7882731507175 118.34994917583269 l -7.086408371965337 12.733912234824016 a35.57290995026255,35.57290995026255 0 0,0 -0.5324946717650423,-0.30236437188545046 l 7.304551810651587 -12.610044697143932" fill="#ff9b0e" stroke="none" /><path d="M 89.4739219176387 118.17145234162733 l -2.209858191302028 3.8149377660697925 a25.408766651190586,25.408766651190586 0 0,0 -0.37657259711395674,-0.22248572800361383 l 2.275198659444367 -3.7763334657724292" fill="#ff0701" stroke="none" /><path d="M 89.1626897886671 117.98757091392108 l -6.8818806077926755 11.422420604363603 a34.335365505410905,34.335365505410905 0 0,0 -0.5036193692187274,-0.3093641499660389 l 7.0774791769437115 -11.302267987569186" fill="#ff8a0c" stroke="none" /><path d="M 88.8546689885994 117.79835938074946 l -6.447572179631364 10.296348010572014 a33.148496588729266,33.148496588729266 0 0,0 -0.48099762597006124,-0.30699544250910427 l 6.623851607648349 -10.183838139239105" fill="#ff790b" stroke="none" /><path d="M 88.24862548938628 117.40417183066458 l -7.600443470639618 11.256506550173452 a34.58218247059309,34.58218247059309 0 0,0 -0.4904792839800533,-0.33735612395036846 l 7.793079639242562 -11.124009636857982" fill="#ff8d0d" stroke="none" /><path d="M 87.65650970185807 116.9893568818739 l -5.576839326290542 7.675860822078945 a30.487885761916992,30.487885761916992 0 0,0 -0.42191608678928283,-0.312123434417651 l 5.708140383498389 -7.5787274389215264" fill="#ff5307" stroke="none" /><path d="M 86.79598089348748 116.32954008644616 l -11.279562309015786 13.949545467697314 a38.939296102086175,38.939296102086175 0 0,0 -0.5175771769302674,-0.42593078013879765 l 11.518009614490742 -13.753319568701336" fill="#ffc912" stroke="none" /><path d="M 86.24171649860922 115.8653595955263 l -11.870742171446286 13.688742000172912 a39.11894525760954,39.11894525760954 0 0,0 -0.504928059919221,-0.445540305899851 l 12.104612584272095 -13.482378552500773" fill="#ffcb12" stroke="none" /><path d="M 85.70375840098266 115.38237550388516 l -8.408704436371448 9.047542198107601 a33.35169341122061,33.35169341122061 0 0,0 -0.41715689150054996,-0.3944478785341025 l 8.563197162262815 -8.901459682827568" fill="#ff7c0b" stroke="none" /><path d="M 85.18274418774928 114.88116024355367 l -21.11766751986337 21.208744609332634 a50.92936232837894,50.92936232837894 0 0,0 -0.6159042392016851,-0.6239077425942149 l 21.47961238412059 -20.842096372757755" fill="#a0ff22" stroke="none" /><path d="M 84.9287848128048 114.62390073753433 l -16.445848592440324 15.957734951903653 a43.915393095486685,43.915393095486685 0 0,0 -0.5217429938543663,-0.5470454431553012 l 16.718098137673646 -15.672282392165851" fill="#f5ff19" stroke="none" /><path d="M 84.43433777217949 114.09645910891817 l -6.095346816613169 5.5200225918748425 a29.22337535502332,29.22337535502332 0 0,0 -0.3344561738087955,-0.37576505681974004 l 6.189461840070304 -5.414283365314238" fill="#ff4006" stroke="none" /><path d="M 83.95833913139862 113.55231037782056 l -6.661406933398962 5.627687497813283 a29.720390410146766,29.720390410146766 0 0,0 -0.3267884300204128,-0.3936377155603072 l 6.757291363312911 -5.512188525139215" fill="#ff4806" stroke="none" /><path d="M 83.72743513129214 113.27417163493432 l -6.51042751933624 5.3108119712987385 a29.401808750443003,29.401808750443003 0 0,0 -0.31653439579351494,-0.394925328140721 l 6.600879827184615 -5.197958809579758" fill="#ff4306" stroke="none" /><path d="M 83.50135304334701 112.99209946851258 l -14.758275280733734 11.621618483912382 a39.78479985114375,39.78479985114375 0 0,0 -0.41905364311507637,-0.5416833227257994 l 14.95613574106688 -11.36585716707333" fill="#ffd413" stroke="none" /><path d="M 83.28015986056508 112.70617746262583 l -7.531269243905368 5.72335876024181 a30.45922047119273,30.45922047119273 0 0,0 -0.31364110724504046,-0.4201735176519505 l 7.628671617845494 -5.592872363080551" fill="#ff5307" stroke="none" /><path d="M 82.85270091963577 112.12312394758628 l -9.2244324329213 6.521664852658792 a32.297002529872046,32.297002529872046 0 0,0 -0.3170321334709567,-0.4567084336387459 l 9.335325473554391 -6.361915156833033" fill="#ff6d0a" stroke="none" /><path d="M 82.44556493220864 111.52570212397912 l -11.804095999101753 7.750206361133435 a35.12099079371427,35.12099079371427 0 0,0 -0.327453294799467,-0.5082147853127351 l 11.935754157278266 -7.545869975899251" fill="#ff950d" stroke="none" /><path d="M 82.05923443525364 110.91462005526583 l -10.902082519649143 6.632497820881469 a33.7610904945164,33.7610904945164 0 0,0 -0.2977714103270036,-0.49908201148758047 l 11.01463480567438 -6.443853715507778" fill="#ff820c" stroke="none" /><line stroke="#e1ed5e" stroke-width="0.3" x1="26.63291911575756" x2="22.317208475507996" y1="142.92168965132927" y2="145.44649492493687" /><path d="M 25.769776987707644 143.4266507060508 a86.0,86.0 0 0,1 -11.730757126820373,-40.83630448921669" fill="none" id="id57" stroke="none" /><text fill="#e1ed5e" style="font-size:6.75px; font-family:Arial;" text-anchor="middle"><textPath startOffset="21.46611528233685" xlink:href="#id57">September</textPath></text><path d="M 81.51974371655577 109.97397251340807 l -10.975718351410714 5.92370102842948 a33.472234250674994,33.472234250674994 0 0,0 -0.26928809622669525,-0.5093915941921723 l 11.076058955862296 -5.733894419151182" fill="#ff7e0b" stroke="none" /><path d="M 81.18737489456691 109.33194174019688 l -15.534766913645035 7.705970802756621 a38.34101983950823,38.34101983950823 0 0,0 -0.2881907199874678,-0.5937582424458191 l 15.66511089024722 -7.4374236043455175" fill="#ffc111" stroke="none" /><path d="M 80.87730276802145 108.67885076344099 l -12.392122824540857 5.624174421198704 a34.608675395444344,34.608675395444344 0 0,0 -0.24153380594493173,-0.5445949693432806 l 12.48709771521707 -5.410031115362728" fill="#ff8e0d" stroke="none" /><path d="M 80.58989483394504 108.01547362559985 l -24.62801932015699 10.170230280705063 a47.64531702938804,47.64531702938804 0 0,0 -0.3065122749308708,-0.7607383294897029 l 24.79943420934525 -9.744792583372554" fill="#c7ff1e" stroke="none" /><path d="M 80.45479744820244 107.68017299344265 l -13.201370475494915 5.187401293674624 a35.18398091555703,35.18398091555703 0 0,0 -0.21664238090734902,-0.5655848943849517 l 13.288707135995773 -4.959392832456514" fill="#ff960d" stroke="none" /><path d="M 79.97269907076064 106.31721596034903 l -15.25009653117664 4.810341320779833 a36.99077320934193,36.99077320934193 0 0,0 -0.18631587951646963,-0.608891074424468 l 15.33063918319924 -4.547123273803318" fill="#ffaf10" stroke="none" /><path d="M 79.86692584326677 105.97154293290107 l -25.712938888635335 7.6265510825229 a47.8201325072235,47.8201325072235 0 0,0 -0.22727625377633687,-0.7911784552387842 l 25.840407779297777 -7.18281515177952" fill="#c4ff1e" stroke="none" /><path d="M 79.67330655649465 105.27499134158121 l -9.125888932201256 2.3682644319592714 a30.428177195118725,30.428177195118725 0 0,0 -0.12720236592174025,-0.5081102209624425 l 9.165302612418056 -2.210826371599437" fill="#ff5207" stroke="none" /><path d="M 79.50377843672027 104.57218783832718 l -8.773441274160124 1.957132507088967 a29.98908446069124,29.98908446069124 0 0,0 -0.10805490016629234,-0.5047965202483724 l 8.805830213050855 -1.8058221674244308" fill="#ff4c07" stroke="none" /><path d="M 79.4281124754447 104.21870165774334 l -4.286001782639573 0.8789355281050396 a25.375195874855763,25.375195874855763 0 0,0 -0.08406447989377655,-0.42864297188414 l 4.300496195509016 -0.8050288291529448" fill="#ff0701" stroke="none" /><path d="M 79.35854240842038 103.8639653848113 l -28.68072211443549 5.368870728721138 a50.17890666058596,50.17890666058596 0 0,0 -0.15162048319733137,-0.8503681899624189 l 28.768889039972013 -4.874383788025506" fill="#a8ff21" stroke="none" /><path d="M 79.29508885075956 103.50808413554451 l -14.375256376394061 2.4356351241943424 a35.5801342361882,35.5801342361882 0 0,0 -0.09711385114324209,-0.6047280437713882 l 14.415051981898593 -2.1878278507297404" fill="#ff9b0e" stroke="none" /><path d="M 79.18660465613746 102.79330883721812 l -16.577070459274214 2.2247632663515686 a37.725693904978925,37.725693904978925 0 0,0 -0.08083806134949678,-0.6443588862335077 l 16.612910029870562 -1.9390866258306523" fill="#ffb911" stroke="none" /><path d="M 79.07016306316243 101.71520430193888 l -8.220236232471958 0.6736499950496093 a29.24779291892535,29.24779291892535 0 0,0 -0.036801301923375815,-0.5021245259739243 l 8.23061409305967 -0.5320523325789244" fill="#ff4106" stroke="none" /><path d="M 79.04373962182676 101.35467743843564 l -13.753876255329246 0.8890930689874533 a34.78258315890861,34.78258315890861 0 0,0 -0.033480139580925244,-0.5978103829030855 l 13.767142745797702 -0.6522109697489302" fill="#ff900d" stroke="none" /><path d="M 79.0235259727143 100.99374915477108 l -3.934691055471058 0.18640386871375653 a24.939103972260114,24.939103972260114 0 0,0 -0.016623536391132662,-0.4289796092316175 l 3.9373167247133916 -0.11864701246814227" fill="#ff0000" stroke="none" /><line stroke="#e1ed5e" stroke-width="0.3" x1="15.007084014347285" x2="10.007500721073583" y1="101.09737516637583" y2="101.16192664675087" /><path d="M 14.007167355692545 101.11028546245083 a86.0,86.0 0 0,1 10.666146001902534,-42.60595125391555" fill="none" id="id58" stroke="none" /><text fill="#e1ed5e" style="font-size:6.75px; font-family:Arial;" text-anchor="middle"><textPath startOffset="22.20632615414155" xlink:href="#id58">October</textPath></text><path d="M 79.00175016825051 100.2711162175752 l -18.245246624582123 0.23557116870303182 a39.246767334718484,39.246767334718484 0 0,0 -0.0029074429676602927,-0.6755873525069682 l 18.246598364839286 0.0785256620076118" fill="#ffcd13" stroke="none" /><path d="M 79.00019446554 99.90962569577889 l -6.267307086293117 -0.026971845826590502 a27.267365123747556,27.267365123747556 0 0,0 0.006059838045294336,-0.4693411347838654 l 6.265914241130107 0.13484923867092785" fill="#ff2303" stroke="none" /><path d="M 79.00486145842228 99.54816195383935 l -9.961020163726008 -0.2143719070789501 a30.963326654120138,30.963326654120138 0 0,0 0.016054198156177587,-0.5327606788173795 l 9.955854271114186 0.38580273332132403" fill="#ff5a08" stroke="none" /><path d="M 79.05617556472873 98.46500227214037 l -9.114524938261692 -0.6680143406468757 a30.138971933948817,30.138971933948817 0 0,0 0.04237470016664425,-0.5170786732127204 l 9.10167575427555 0.8248069310673743" fill="#ff4e07" stroke="none" /><path d="M 79.26566170972629 96.67025291283419 l -17.262335829643888 -2.7721749130232776 a38.48351200542393,38.48351200542393 0 0,0 0.1106641739129381,-0.6531462187738829 l 17.212059794210727 3.068906920112988" fill="#ffc312" stroke="none" /><path d="M 79.32604984820605 96.31383870115002 l -7.866813234797711 -1.4026512726633376 a28.990881119369284,28.990881119369284 0 0,0 0.09182416527952898,-0.49052836263753796 l 7.84150334560832 1.537857712763448" fill="#ff3d05" stroke="none" /><path d="M 79.3925641242962 95.95851677861259 l -39.28202361496626 -7.703900684180009 a61.030331812745146,61.030331812745146 0 0,0 0.2110507460372885,-1.0291583908246762 l 39.14359357301398 8.378934731168087" fill="#32ff2f" stroke="none" /><path d="M 79.54389044137918 95.25157060432595 l -15.240744094091353 -3.53779867383582 a36.645967531545466,36.645967531545466 0 0,0 0.14792266901820053,-0.6132349614626341 l 15.177588624812337 3.799618866957851" fill="#ffaa0f" stroke="none" /><path d="M 79.71946130924805 94.55025226153421 l -7.926391900889848 -2.1299649380499934 a29.207584248962327,29.207584248962327 0 0,0 0.13465145500462558,-0.4844129261120244 l 7.888553675318861 2.2660891675809607" fill="#ff4006" stroke="none" /><path d="M 79.91906864156998 93.8553929516997 l -16.25003654925093 -4.972383368749853 a37.993771924378976,37.993771924378976 0 0,0 0.19674354036846622,-0.6237307879886865 l 16.162037525114258 5.251364323164954" fill="#ffbc11" stroke="none" /><path d="M 80.02781315780177 93.51064311812611 l -14.582162105709711 -4.738031681806193 a36.332592601872506,36.332592601872506 0 0,0 0.1983806377151611,-0.5931328564041592 l 14.498444174222778 4.988337641132675" fill="#ffa60f" stroke="none" /><path d="M 80.2630227832202 92.82701384747504 l -12.05298713395167 -4.380402776920394 a33.82429051991791,33.82429051991791 0 0,0 0.20358262470978672,-0.5455002193092373 l 11.975799920740256 4.587226133258972" fill="#ff830c" stroke="none" /><path d="M 80.38941819471856 92.48833698450439 l -9.381109994491366 -3.593352695478878 a31.045765691217923,31.045765691217923 0 0,0 0.1954500225352718,-0.4973989885992018 l 9.317866422074404 3.754300688973843" fill="#ff5b08" stroke="none" /><path d="M 80.803312248108 91.48605970444005 l -11.919929794381996 -5.286618811968336 a34.03967272465276,34.03967272465276 0 0,0 0.2421642017328056,-0.5335767184368831 l 11.82716327568584 5.49101753924729" fill="#ff860c" stroke="none" /><path d="M 81.26839172434947 90.50648371742162 l -8.85064659801671 -4.48566702619135 a30.922457048173356,30.922457048173356 0 0,0 0.24471526975799798,-0.472712009866514 l 8.772121895098598 4.6373517583182" fill="#ff5908" stroke="none" /><path d="M 81.43458229118936 90.18545643968196 l -8.775362067865615 -4.639064664392474 a30.926122122085218,30.926122122085218 0 0,0 0.2528459376639276,-0.4684851218484577 l 8.694208030983216 4.7894307695734035" fill="#ff5908" stroke="none" /><path d="M 81.6062741919709 89.86733742301443 l -6.399922027001416 -3.5255636131270234 a28.306750354425912,28.306750354425912 0 0,0 0.23877735833949193,-0.42475827699233265 l 6.338287027369494 3.6352054000541405" fill="#ff3304" stroke="none" /><line stroke="#e1ed5e" stroke-width="0.3" x1="26.266209847984243" x2="21.928928074336255" y1="57.711370442889674" y2="55.22380399835377" /><path d="M 25.398753493254645 57.213857153982495 a86.0,86.0 0 0,1 29.58750427330803,-30.492523968695096" fill="none" id="id59" stroke="none" /><text fill="#e1ed5e" style="font-size:6.75px; font-family:Arial;" text-anchor="middle"><textPath startOffset="21.46611528233685" xlink:href="#id59">November</textPath></text><path d="M 82.15384107792192 88.93136811851018 l -48.44555677529477 -30.04713992410824 a78.00703981866843,78.00703981866843 0 0,0 0.7175622567385278,-1.1350111672116663 l 47.92116692231028 30.876598739034122" fill="#45fff1" stroke="none" /><path d="M 82.7489923806493 88.02491185347247 l -5.618020736695625 -3.899847186635336 a27.83893011201676,27.83893011201676 0 0,0 0.27664920916855734,-0.39130068705632415 l 5.55005890772319 3.9959743740234464" fill="#ff2c04" stroke="none" /><path d="M 82.95767976084542 87.72973835380427 l -10.083976220788108 -7.260339257022678 a33.42574354107168,33.42574354107168 0 0,0 0.34020624282180734,-0.4640409328774837 l 9.957507365452667 7.432842633571663" fill="#ff7d0b" stroke="none" /><path d="M 83.39014120810768 87.1503855733568 l -11.152012966773883 -8.627350087642983 a35.09959441777834,35.09959441777834 0 0,0 0.37380386020679807,-0.4746929420862951 l 11.001855025973114 8.818035423682325" fill="#ff950d" stroke="none" /><path d="M 83.6137871275137 86.86637796730984 l -11.74035207222556 -9.409944069884727 a36.04602652457351,36.04602652457351 0 0,0 0.39221768645330474,-0.48081250725047636 l 11.576635893695862 9.610640746743284" fill="#ffa20e" stroke="none" /><path d="M 84.07557802195018 86.31012108654704 l -11.134857359765185 -9.572394475847963 a35.68386135945043,35.68386135945043 0 0,0 0.404430921071876,-0.46233445573892196 l 10.968434575115465 9.762644487789828" fill="#ff9d0e" stroke="none" /><path d="M 84.5562425177563 85.77008943001954 l -5.808041115867281 -5.351541278771342 a28.89761582137283,28.89761582137283 0 0,0 0.3402111880089013,-0.36291357482879716 l 5.7150626058879235 5.450724270478189" fill="#ff3c05" stroke="none" /><path d="M 85.31137513191541 84.99185889309783 l -40.08963021938445 -40.96168515838134 a78.3152519155359,78.3152519155359 0 0,0 0.9715445430814776,-0.9346250806906388 l 39.37860243269055 41.645693325834294" fill="#46fff4" stroke="none" /><path d="M 86.37877921826538 84.01681056812374 l -5.019354908336187 -5.889729093396189 a28.738399866214984,28.738399866214984 0 0,0 0.3792681391798473,-0.31762615939534833 l 4.917229232197229 5.9752564101853505" fill="#ff3905" stroke="none" /><path d="M 87.22198572758235 83.33499621200491 l -6.865866551387258 -8.95441886723521 a32.283693577519564,32.283693577519564 0 0,0 0.44390669959020657,-0.33434132298032865 l 6.710713698038662 9.071276779721392" fill="#ff6d0a" stroke="none" /><path d="M 87.80319425747018 82.90503203632743 l -7.885279217629862 -11.0519588862482 a34.57657628282278,34.57657628282278 0 0,0 0.48747845415018953,-0.34150980982791523 l 7.6938696238960125 11.186053538840058" fill="#ff8d0d" stroke="none" /><path d="M 88.09926311788651 82.69761687909137 l -10.106765941803387 -14.694143578727472 a38.834364954061435,38.834364954061435 0 0,0 0.5540282588542861,-0.3740823535072768 l 9.85233298854256 14.865937844533414" fill="#ffc712" stroke="none" /><path d="M 88.70189139769569 82.29822771554957 l -7.190291039904126 -11.265681639964715 a34.36472476527533,34.36472476527533 0 0,0 0.5013663572418883,-0.31395556690943377 l 6.995305530289996 11.387781548197077" fill="#ff8a0c" stroke="none" /><path d="M 89.00827224532344 82.1063720568725 l -10.058377844818517 -16.374211123451836 a40.2168091728182,40.2168091728182 0 0,0 0.5929833188376439,-0.35726581466404467 l 9.775032459763224 16.5449235475745" fill="#ffda14" stroke="none" /><line stroke="#e1ed5e" stroke-width="0.3" x1="56.762969772571076" x2="54.21961505331055" y1="26.818313649435495" y2="22.513508569990535" /><path d="M 56.25429882871897 25.957352633546506 a86.0,86.0 0 0,1 42.265352541879196,-11.944610805530505" fill="none" id="id60" stroke="none" /><text fill="#e1ed5e" style="font-size:6.75px; font-family:Arial;" text-anchor="middle"><textPath startOffset="22.20632615414155" xlink:href="#id60">December</textPath></text><path d="M 89.3179101791058 81.91981866633112 l -6.176967952175075 -10.454948660807815 a33.143347338453474,33.143347338453474 0 0,0 0.4936832068811943,-0.28597317847168635 l 5.996088012828561 10.559725996669549" fill="#ff790b" stroke="none" /><path d="M 89.94658935756843 81.56283822128135 l -5.910668363857262 -10.839699353853616 a33.346460326321775,33.346460326321775 0 0,0 0.5063182883711925,-0.2704576947351434 l 5.723205028957764 10.93983577509051" fill="#ff7c0b" stroke="none" /><path d="M 90.26544431104013 81.39251694778311 l -7.759987567845314 -14.833120459504379 a37.74033660412123,37.74033660412123 0 0,0 0.5782170236783761,-0.2961852175991068 l 7.503510056578174 14.96449820241599" fill="#ffb911" stroke="none" /><path d="M 91.56875222667455 80.76684994638697 l -5.7085744910610545 -13.022256341008944 a35.21854362904094,35.21854362904094 0 0,0 0.5573187654714745,-0.23861481009538832 l 5.483571967799271 13.118590679067118" fill="#ff960d" stroke="none" /><path d="M 92.23578459929587 80.48803036053334 l -5.349331438367448 -13.443211867538388 a35.46842396921763,35.46842396921763 0 0,0 0.5692121899312068,-0.22084548645135485 l 5.117136083436566 13.533300057880295" fill="#ff9a0e" stroke="none" /><path d="M 92.57280143429618 80.3572730644239 l -6.9009806420066235 -18.25103733789666 a40.51214744026521,40.51214744026521 0 0,0 0.6544017348878818,-0.24102168168262844 l 6.585796581346172 18.367122287385612" fill="#ffde14" stroke="none" /><path d="M 93.59665428221793 80.00007090966166 l -5.878874590404839 -18.361818980439768 a40.27997828629861,40.27997828629861 0 0,0 0.6621541757773578,-0.20573452561539052 l 5.561935041916753 18.46029364093768" fill="#ffdb14" stroke="none" /><path d="M 94.63758080256005 79.69619591428918 l -3.28619531771488 -12.442568076385514 a33.86921054306204,33.86921054306204 0 0,0 0.5649563524043303,-0.14401995350578048 l 3.0715300766255504 12.497291026060159" fill="#ff830c" stroke="none" /><path d="M 94.98787191387505 79.60689891045804 l -4.546407706331201 -18.498200835319484 a40.04870749358082,40.04870749358082 0 0,0 0.6708660316194189,-0.15877231487214935 l 4.227317987749248 18.573719062332504" fill="#ffd814" stroke="none" /><path d="M 96.04723909329186 79.375362276772 l -3.5632234300462073 -18.592116777643284 a39.930487777285485,39.930487777285485 0 0,0 0.6761655366830478,-0.12356492988748613 l 3.242662772260266 18.650697188881505" fill="#ffd614" stroke="none" /><path d="M 96.40284397218896 79.31037775812273 l -3.2707948247173246 -18.812503219458225 a40.0947211597217,40.0947211597217 0 0,0 0.6809817155084742,-0.11236781793539212 l 2.9464839030699648 18.866017300333244" fill="#ffd814" stroke="none" /><path d="M 97.47563105711357 79.15227682838746 l -1.9214673118856749 -15.868606969824102 a36.98451512537666,36.98451512537666 0 0,0 0.6326699660754168,-0.07108784235181226 l 1.64803064230054 15.899330765646512" fill="#ffae10" stroke="none" /><path d="M 98.55514903715128 79.0497635885617 l -1.32582956314772 -19.22443456344713 a40.27009881434906,40.27009881434906 0 0,0 0.6919514261521735,-0.04174039966287515 l 0.9947160881559235 19.24440823249031" fill="#ffda14" stroke="none" /></svg>