<?xml version="1.0" encoding="utf-8" ?>
<svg baseProfile="full" height="200mm" version="1.1" viewBox="0,0,200,200" width="200mm" xmlns="http://www.w3.org/2000/svg" xmlns:ev="http://www.w3.org/2001/xml-events" xmlns:xlink="http://www.w3.org/1999/xlink"><defs /><rect fill="#1a1a1a" height="200" width="200" x="0" y="0" /><text alignment-baseline="middle" fill="#e1ed5e" style="dominant-baseline: central; font-size:9.0px; font-family:Arial;" text-anchor="middle" x="100.0" y="100.0">2022</text><line stroke="#e1ed5e" stroke-width="0.3" x1="100.0" x2="100.0" y1="15.0" y2="10.0" /><path d="M 100.0 14.0 a86.0,86.0 0 0,1 42.46469731375804,11.215312516191453" fill="none" id="id85" stroke="none" /><text fill="#e1ed5e" style="font-size:6.75px; font-family:Arial;" text-anchor="middle"><textPath startOffset="22.20632615414155" xlink:href="#id85">January</textPath></text><path d="M 100.0 79.0 l 0.0 -6.107612217813234 a27.107612217813234,27.107612217813234 0 0,0 0.46661298363947495,0.0040162852651613665 l -0.10513250436694656 6.106707309156631" fill="#ff2b04" stroke="none" /><path d="M 100.36148047927253 79.00311137660856 l 0.2669857639085389 -15.508085969401076 a36.51038400016145,36.51038400016145 0 0,0 0.6282800150698002,0.016226619182655888 l -0.533892414173207 15.501192558076061" fill="#ffb010" stroke="none" /><path d="M 101.08401301168833 79.027996857942 l 0.4011868561888024 -7.761615329173746 a28.771976802052585,28.771976802052585 0 0,0 0.49438196000413664,0.029822469926019935 l -0.534730865032551 7.753559589867422" fill="#ff4406" stroke="none" /><path d="M 101.44485096284872 79.0497635885617 l 0.5431058070528941 -7.874995654741782 a28.89370131686375,28.89370131686375 0 0,0 0.4958844485824732,0.03849017708305147 l -0.6785804449977085 7.864480215470266" fill="#ff4606" stroke="none" /><path d="M 101.80526077348638 79.07773832637324 l 0.43213960833744364 -5.008327936862919 a26.026936777427743,26.026936777427743 0 0,0 0.4460209792860504,0.04235506630030835 l -0.5182857147137383 5.000147326047433" fill="#ff1b02" stroke="none" /><path d="M 102.52436894288641 79.15227682838746 l 0.885168791863509 -7.310244401842791 a28.363640200659113,28.363640200659113 0 0,0 0.4841879646590025,0.06286149410037034 l -1.0108714850303577 7.293924584578284" fill="#ff3e05" stroke="none" /><path d="M 102.88285421437855 79.19881850522331 l 1.8868264784774318 -13.614361708685955 a34.744488309675916,34.744488309675916 0 0,0 0.5917003227940023,0.08720124661545967 l -2.12089578170009 13.579865977909527" fill="#ff980e" stroke="none" /><path d="M 103.59715602781102 79.31037775812273 l 1.8438600326005643 -10.605257944458915 a31.764353946630084,31.764353946630084 0 0,0 0.5378837732588564,0.09829482149650118 l -2.0261389269623216 10.571947641611676" fill="#ff6f0a" stroke="none" /><path d="M 104.66035177308747 79.52364482259891 l 2.6184008151058475 -11.504561822247123 a32.798769662573,32.798769662573 0 0,0 0.5494204887650175,0.13003007862663166 l -2.8160449908333884 11.457785831479622" fill="#ff7d0b" stroke="none" /><path d="M 105.01212808612495 79.60689891045804 l 1.1981908970492883 -4.875140393107253 a26.020224624285024,26.020224624285024 0 0,0 0.4340311143002894,0.11064419514103328 l -1.2819309000346029 4.853793201797352" fill="#ff1b02" stroke="none" /><path d="M 105.36241919743992 79.69619591428918 l 4.8689464126646484 -18.43536106124703 a40.06749004530862,40.06749004530862 0 0,0 0.6653151596336699,0.18185576555363853 l -5.185559461522029 18.348818754867096" fill="#ffdf14" stroke="none" /><path d="M 106.0581310904928 79.89281104454417 l 2.2669895503289785 -7.5242325673742965 a28.85832789779332,28.85832789779332 0 0,0 0.47439604330612395,0.14739715989682406 l -2.396170966345821 7.484095272594952" fill="#ff4506" stroke="none" /><path d="M 106.40334571778207 80.00007090966166 l 3.4334340727264503 -10.723837352743358 a32.26006914276518,32.26006914276518 0 0,0 0.5274017091599341,0.17387605149567262 l -3.617518604128802 10.66314757698845" fill="#ff760a" stroke="none" /><path d="M 107.08798089147638 80.2323363322302 l 1.6334936723616957 -4.555649064673236 a25.839652877852277,25.839652877852277 0 0,0 0.41739366438423814,0.15372960912275052 l -1.7116696625185102 4.526856187744161" fill="#ff1902" stroke="none" /><path d="M 107.4271985657038 80.35727306442388 l 2.4082253124630726 -6.369038311495857 a27.809126094359677,27.809126094359677 0 0,0 0.44629255525934614,0.17315457786977664 l -2.5175010327220857 6.3266410297355336" fill="#ff3605" stroke="none" /><path d="M 107.76421540070413 80.48803036053334 l 4.044575707813746 -10.164277308461736 a31.939429869035553,31.939429869035553 0 0,0 0.5090782082531741,0.20766578333903962 l -4.218937785655307 10.093150638939118" fill="#ff710a" stroke="none" /><path d="M 108.43124777332544 80.76684994638697 l 3.1356775821112968 -7.15302871863178 a28.810140443585272,28.810140443585272 0 0,0 0.4524809279894205,0.20301500288638402 l -3.2583406285674976 7.097993385228865" fill="#ff4406" stroke="none" /><path d="M 108.76106565485865 80.91482961587045 l 3.2633198390769316 -7.108840134322485 a28.822075455239947,28.822075455239947 0 0,0 0.44910528973912234,0.2108609553769969 l -3.385203340115652 7.0516141963054855" fill="#ff4506" stroke="none" /><path d="M 109.41281617654863 81.2277094730956 l 5.168041993824735 -10.306797024787201 a32.52990559198549,32.52990559198549 0 0,0 0.49838837923567736,0.2552938853541855 l -5.344690860649169 10.216310614120516" fill="#ff790b" stroke="none" /><path d="M 109.73455568895987 81.39251694778311 l 2.2167538547685726 -4.237297633452652 a25.782121797601434,25.782121797601434 0 0,0 0.3914646307702676,0.20910684847877908 l -2.2893635320671515 4.198512058472119" fill="#ff1802" stroke="none" /><path d="M 110.05341064243156 81.56283822128135 l 8.263134487661075 -15.153936585989193 a38.260393553258154,38.260393553258154 0 0,0 0.5755017460046598,0.32026609856907334 l -8.522760322737769 15.00945508985994" fill="#ffc712" stroke="none" /><line stroke="#e1ed5e" stroke-width="0.3" x1="143.23703022742887" x2="145.7803849466894" y1="26.81831364943548" y2="22.513508569990506" /><path d="M 143.74570117128098 25.957352633546492 a86.0,86.0 0 0,1 28.547481713284135,27.462654790039103" fill="none" id="id86" stroke="none" /><text fill="#e1ed5e" style="font-size:6.75px; font-family:Arial;" text-anchor="middle"><textPath startOffset="19.985693538727396" xlink:href="#id86">February</textPath></text><path d="M 110.68208982089419 81.91981866633111 l 3.9838015530745645 -6.74286171382431 a28.831785167255102,28.831785167255102 0 0,0 0.42511497078313504,0.256127013252965 l -4.099278590075337 6.67328809111273" fill="#ff4506" stroke="none" /><path d="M 110.99172775467656 82.1063720568725 l 5.461318188640461 -8.890576434172518 a31.43399950591521,31.43399950591521 0 0,0 0.45860835299772196,0.28718050857436234 l -5.613545694010447 8.795251584275212" fill="#ff6a09" stroke="none" /><path d="M 111.90073688211348 82.69761687909136 l 6.1208877415799705 -8.899108163971261 a31.800897780234934,31.800897780234934 0 0,0 0.4483455031433791,0.31409467682549713 l -6.273164384307001 8.792428644381829" fill="#ff6f0a" stroke="none" /><path d="M 112.19680574252982 82.90503203632743 l 8.73634919163438 -12.244813330893418 a36.041916457240276,36.041916457240276 0 0,0 0.5019346321669229,0.3646768565479949 l -8.945829140155093 12.092617239528748" fill="#ffaa0f" stroke="none" /><path d="M 112.77801427241765 83.33499621200491 l 3.7206887647242066 -4.852498286210481 a27.11475792665749,27.11475792665749 0 0,0 0.36794396589667466,0.28718610161283387 l -3.803665285780312 4.787733795374423" fill="#ff2c04" stroke="none" /><path d="M 113.06298171725822 83.55741782278167 l 4.851057442914708 -6.1061029080482605 a28.798541596871406,28.798541596871406 0 0,0 0.3854843890085564,0.3117015672692479 l -4.955445230487756 6.021695243514883" fill="#ff4406" stroke="none" /><path d="M 114.68862486808459 84.99185889309783 l 5.8042818846715605 -5.930540287584206 a29.29825260518055,29.29825260518055 0 0,0 0.35738873500484447,0.3558539941989677 l -5.905506419843728 5.829750442735119" fill="#ff4b07" stroke="none" /><path d="M 115.19652480421416 85.50635884689758 l 4.516338103339219 -4.307444276847399 a27.24110455462966,27.24110455462966 0 0,0 0.32070910626303384,0.3421101137656361 l -4.589814531572716 4.229064746203707" fill="#ff2d04" stroke="none" /><path d="M 115.4437574822437 85.77008943001954 l 2.9054825217699625 -2.6771176959340113 a24.950795849217442,24.950795849217442 0 0,0 0.2883080611668397,0.31835696205734854 l -2.9511342235528377 2.6267079466071137" fill="#ff0b01" stroke="none" /><path d="M 115.9244219780498 86.31012108654704 l 7.472825818863002 -6.4242256794358035 a30.854633493914825,30.854633493914825 0 0,0 0.34276469137501114,0.4057252810389804 l -7.582301123725131 6.294641448767717" fill="#ff6209" stroke="none" /><path d="M 116.38621287248628 86.86637796730983 l 5.999521746882509 -4.808643193740244 a28.688778222580005,28.688778222580005 0 0,0 0.3055299134392746,0.38799196301938826 l -6.0814057409157485 4.704658836767818" fill="#ff4306" stroke="none" /><path d="M 116.82858285166822 87.43820079747576 l 5.076903998428793 -3.7896862237828284 a27.33535128339318,27.33535128339318 0 0,0 0.27821840806355946,0.37948959593055936 l -5.141385019005979 3.701734184180775" fill="#ff2f04" stroke="none" /><path d="M 117.04232023915458 87.72973835380427 l 5.594923191148828 -4.028276108087622 a27.89421307458977,27.89421307458977 0 0,0 0.2771985832937341,0.3920777377960626 l -5.663434394246445 3.9313718699597664" fill="#ff3705" stroke="none" /><path d="M 117.2510076193507 88.02491185347247 l 2.7562936771537556 -1.9133293816767236 a24.3552919630794,24.3552919630794 0 0,0 0.23610197977037584,0.3464505218589267 l -2.788820122592865 1.8656008365473904" fill="#ff0200" stroke="none" /><path d="M 117.45458315368197 88.32363383020206 l 11.403314056535246 -7.628327144852049 a34.71958259207841,34.71958259207841 0 0,0 0.32802295263032266,0.4996014612172049 l -11.532933644523494 7.43090761965717" fill="#ff980e" stroke="none" /><line stroke="#e1ed5e" stroke-width="0.3" x1="172.23445277983987" x2="176.4835382374775" y1="55.19839476539836" y2="52.563006222186495" /><path d="M 173.08426987136738 54.67131705675599 a86.0,86.0 0 0,1 12.851231095245387,41.99856678651699" fill="none" id="id87" stroke="none" /><text fill="#e1ed5e" style="font-size:6.75px; font-family:Arial;" text-anchor="middle"><textPath startOffset="22.20632615414155" xlink:href="#id87">March</textPath></text><path d="M 117.84615892207809 88.93136811851018 l 5.287673695627366 -3.279546814633038 a27.222131501406835,27.222131501406835 0 0,0 0.2435527831471076,0.40033673760138705 l -5.343342277060698 3.1880423038245698" fill="#ff2d04" stroke="none" /><path d="M 118.03404312379186 89.2402003453031 l 6.111617694726789 -3.6464247928189506 a28.116760823308756,28.116760823308756 0 0,0 0.24440203207270136,0.41776229689494154 l -6.173479401269818 3.540683083570114" fill="#ff3a05" stroke="none" /><path d="M 118.56541770881063 90.18545643968196 l 7.924605490669093 -4.189315156081667 a29.963801295193814,29.963801295193814 0 0,0 0.23712862485361427,0.45805702669181064 l -7.995543548682823 4.052285407129512" fill="#ff5507" stroke="none" /><path d="M 118.73160827565052 90.50648371742162 l 10.36098703280104 -5.251134747855188 a32.61569922277619,32.61569922277619 0 0,0 0.24949454765058593,0.5029657836999202 l -10.449841593405035 5.072009375656318" fill="#ff7b0b" stroke="none" /><path d="M 119.04729006885535 91.15688171328212 l 9.602215102886003 -4.45803700486369 a31.58662499660898,31.58662499660898 0 0,0 0.2247127899733814,0.49512484589727757 l -9.67753020982273 4.292090150124349" fill="#ff6c0a" stroke="none" /><path d="M 119.34039704204932 91.81776055985345 l 8.307599187706673 -3.514652030089879 a30.020475772164097,30.020475772164097 0 0,0 0.1972464098055706,0.47764782678907314 l -8.36686728439844 3.3711296328475027" fill="#ff5607" stroke="none" /><path d="M 119.61058180528143 92.48833698450437 l 8.438798768731958 -3.2324085657276225 a30.036691307936845,30.036691307936845 0 0,0 0.18078571228173015,0.48441582791382587 l -8.493189069515314 3.086669600784463" fill="#ff5608" stroke="none" /><path d="M 119.85752413597 93.16781622104841 l 4.277531798013701 -1.4717284573961937 a25.52363381976571,25.52363381976571 0 0,0 0.13936232983584332,0.41667562783701734 l -4.302231421621315 1.3978797266368623" fill="#ff1402" stroke="none" /><path d="M 119.97218684219823 93.5106431181261 l 7.966409560943966 -2.5884433746088344 a29.37637871614314,29.37637871614314 0 0,0 0.15212000438709286,0.48226198444689666 l -8.009785049099264 2.4509312237355183" fill="#ff4d07" stroke="none" /><path d="M 120.18372546131832 94.20196356495316 l 10.243602004972601 -2.9426072884698646 a31.657875946474263,31.657875946474263 0 0,0 0.145947676542268,0.5250514452343826 l -10.292736452081233 2.76584453981653" fill="#ff6d0a" stroke="none" /><path d="M 120.37134235888165 94.90015583598534 l 16.797080084488684 -4.205048903123387 a38.31543633993627,38.31543633993627 0 0,0 0.1546615354914874,0.6411719135841656 l -16.86697442024099 3.9152917578798156" fill="#ffc812" stroke="none" /><path d="M 120.45610955862082 95.25157060432595 l 3.9053487659584776 -0.906539575743595 a25.00918482813686,25.00918482813686 0 0,0 0.0937315820227549,0.420180303291739 l -3.92037473498327 0.8391811029018922" fill="#ff0c01" stroke="none" /><path d="M 120.6074358757038 95.95851677861258 l 9.719504455061093 -1.9061669977894924 a30.90465746381036,30.90465746381036 0 0,0 0.09788575804852905,0.5229096335905741 l -9.750875937019481 1.7385792867363554" fill="#ff6209" stroke="none" /><path d="M 120.73433829027371 96.67025291283417 l 9.719322366870122 -1.5608352138969692 a30.843852591139438,30.843852591139438 0 0,0 0.07967129650934733,0.5249342996819529 l -9.74474955681877 1.3933018018229342" fill="#ff6209" stroke="none" /><path d="M 120.83666639777658 97.38593545837742 l 14.834350303115443 -1.8610438150279207 a35.950633197192516,35.950633197192516 0 0,0 0.07174658793294267,0.6146809505065901 l -14.864187244051974 1.6054191261964779" fill="#ffa80f" stroke="none" /><path d="M 120.91429891909075 98.10471618934814 l 5.52140816686926 -0.5003579393768769 a26.544033388487847,26.544033388487847 0 0,0 0.037320299395603315,0.4554021814783087 l -5.5292029500843585 0.40524184069079944" fill="#ff2303" stroke="none" /><path d="M 120.94382443527127 98.46500227214037 l 12.584936307737609 -0.9223649050983475 a33.61869164723385,33.61869164723385 0 0,0 0.03733181049610887,0.5775065849243718 l -12.598948709238133 0.7055992559209404" fill="#ff890c" stroke="none" /><path d="M 120.98425023603335 99.18683210126433 l 9.566077496536478 -0.3706983594602596 a30.573257331935046,30.573257331935046 0 0,0 0.015851950824585646,0.5260490744993169 l -9.571041141816709 0.20597913753594355" fill="#ff5e08" stroke="none" /><line stroke="#e1ed5e" stroke-width="0.3" x1="184.98032266829074" x2="189.97916517819016" y1="98.17113171792111" y2="98.06355123074" /><path d="M 185.9800911702706 98.14961562048488 a86.0,86.0 0 0,1 -9.607161424134198,41.387399972396054" fill="none" id="id88" stroke="none" /><text fill="#e1ed5e" style="font-size:6.75px; font-family:Arial;" text-anchor="middle"><textPath startOffset="21.466115282336823" xlink:href="#id88">April</textPath></text><path d="M 120.99980553446 99.90962569577887 l 4.702012884228847 -0.020235479902595128 a25.702056426511806,25.702056426511806 0 0,0 -0.0019040361356224245,0.44243094232657576 l -4.701664550803723 -0.06070494062766537" fill="#ff1702" stroke="none" /><path d="M 120.99824983174949 100.27111621757518 l 8.967992925441731 0.11578909388488828 a29.968740392331334,29.968740392331334 0 0,0 -0.011099761151468485,0.5157622850347949 l -8.964671101605255 -0.2701411947097981" fill="#ff5507" stroke="none" /><path d="M 120.9764740272857 100.99374915477107 l 6.838697603090713 0.3239796142081022 a27.846367481879795,27.846367481879795 0 0,0 -0.02680365244455393,0.47859722007275973 l -6.83210759975863 -0.4416485506162853" fill="#ff3605" stroke="none" /><path d="M 120.92983693683757 101.71520430193887 l 7.602548456138077 0.6230303588613164 a28.62803446872065,28.62803446872065 0 0,0 -0.04447624677789592,0.4907916770482128 l -7.590697613083106 -0.7538034244580998" fill="#ff4206" stroke="none" /><path d="M 120.8583938346157 102.4346265915055 l 14.400517573846372 1.6808524805272822 a35.49828167252771,35.49828167252771 0 0,0 -0.0760651952187628,0.6063144471067071 l -14.36945086938076 -1.9284846819213841" fill="#ffa20f" stroke="none" /><path d="M 120.70491114924044 103.5080841355445 l 8.336752950618537 1.4125166032934935 a29.45556934299676,29.45556934299676 0 0,0 -0.08900288893989858,0.4991754674119049 l -8.31120361933945 -1.5558108214386166" fill="#ff4e07" stroke="none" /><path d="M 120.5718875245553 104.21870165774334 l 8.442438716843023 1.7313010372835056 a29.618130584375535,29.618130584375535 0 0,0 -0.10671830104055939,0.49855237410971703 l -8.41138637707802 -1.8763672308093917" fill="#ff5007" stroke="none" /><path d="M 120.41448212921028 104.9243191809786 l 12.428464613287277 2.997956367345375 a33.78493156118721,33.78493156118721 0 0,0 -0.14123498754228297,0.5641635688748871 l -12.375018311449933 -3.211447775617658" fill="#ff8b0c" stroke="none" /><path d="M 120.32669344350535 105.2749913415812 l 7.3848508330928295 1.9164466818817543 a28.629468507801015,28.629468507801015 0 0,0 -0.12789454828711055,0.47594319211611624 l -7.350768208463942 -2.0432808071734185" fill="#ff4206" stroke="none" /><path d="M 120.13307415673323 105.97154293290107 l 9.051343375768909 2.6846613263358674 a30.4410922749012,30.4410922749012 0 0,0 -0.15332631325499674,0.5010792631184421 l -9.003790290007778 -2.8400675620063667" fill="#ff5c08" stroke="none" /><path d="M 119.9155931802556 106.66101706037122 l 6.6922487286915215 2.2383055604015776 a28.056642603136275,28.056642603136275 0 0,0 -0.15712944871798132,0.45669172863903085 l -6.65272844903031 -2.3531699921299087" fill="#ff3905" stroke="none" /><path d="M 119.67450827220406 107.3425965602758 l 8.629481613947569 3.2205532732451005 a30.210858608798034,30.210858608798034 0 0,0 -0.1860208017385399,0.48564161390791666 l -8.572766532615521 -3.368618453986161" fill="#ff5908" stroke="none" /><path d="M 119.41010516605496 108.01547362559984 l 7.860619972440522 3.2460716482952567 a29.504488667580027,29.504488667580027 0 0,0 -0.19788944186910892,0.46775218498244686 l -7.803579549379104 -3.380898358943867" fill="#ff4e07" stroke="none" /><path d="M 119.26925614724726 108.34839909993367 l 4.918821993211988 2.131078064823545 a26.360625291817925,26.360625291817925 0 0,0 -0.18397069755115278,0.414805356132103 l -4.8814102109295625 -2.2154317574483353" fill="#ff2003" stroke="none" /><path d="M 119.12269723197855 108.67885076344098 l 6.290997598083551 2.8551740711361844 a27.908593905823484,27.908593905823484 0 0,0 -0.20230459051312036,0.43574609010399246 l -6.240918390730599 -2.963040228519007" fill="#ff3705" stroke="none" /><path d="M 118.81262510543309 109.33194174019688 l 3.575488483767969 1.7736094796058726 a24.99121641654586,24.99121641654586 0 0,0 -0.19448084906910262,0.3837291656162713 l -3.5444289649125973 -1.8348928569248382" fill="#ff0c01" stroke="none" /><path d="M 118.64920377521936 109.65438752849418 l 11.147664990646737 5.770963691250951 a33.5528664722217,33.5528664722217 0 0,0 -0.2699367920165208,0.5106186821591391 l -11.046675690405323 -5.961997388496225" fill="#ff880c" stroke="none" /><line stroke="#e1ed5e" stroke-width="0.3" x1="174.80103733775053" x2="179.2010983576182" y1="140.37084112569926" y2="142.7455964860345" /><path d="M 175.68104954172406 140.8457921977663 a86.0,86.0 0 0,1 -30.038265399797805,32.042727171017184" fill="none" id="id89" stroke="none" /><text fill="#e1ed5e" style="font-size:6.75px; font-family:Arial;" text-anchor="middle"><textPath startOffset="22.206326154141568" xlink:href="#id89">May</textPath></text><path d="M 118.48025628344425 109.97397251340804 l 5.209259707390731 2.811487694749423 a26.91953121089601,26.91953121089601 0 0,0 -0.22359053760412548,0.40588177201333864 l -5.160092760335097 -2.9007399851605666" fill="#ff2904" stroke="none" /><path d="M 118.30583269289576 110.29060199501025 l 4.962016148248565 2.789391454137797 a26.692302604385723,26.692302604385723 0 0,0 -0.2285979686426387,0.3985798269085606 l -4.913266183453547 -2.8743911269046727" fill="#ff2503" stroke="none" /><path d="M 118.12598468904814 110.60418214915192 l 10.30639732706964 6.029515992243635 a32.94055647631843,32.94055647631843 0 0,0 -0.2905343345027043,0.48695225613022974 l -10.201082116868708 -6.206030342259968" fill="#ff7f0b" stroke="none" /><path d="M 117.75023020441432 111.22182372390056 l 6.708610063086177 4.241231730144899 a28.936844181872857,28.936844181872857 0 0,0 -0.2697949219060382,0.4187277101576065 l -6.634610277803089 -4.356081040223959" fill="#ff4606" stroke="none" /><path d="M 117.55443506779139 111.5257021239791 l 4.420497632925132 2.9023627795536906 a26.288147977017598,26.288147977017598 0 0,0 -0.2516112432325701,0.3761246695709087 l -4.3698832842818405 -2.978024363330406" fill="#ff1f03" stroke="none" /><path d="M 117.35343817320211 111.8261652097733 l 9.036168732442563 6.158043335658756 a31.934982537024183,31.934982537024183 0 0,0 -0.31347849190358035,0.4515891479178225 l -8.928829333376846 -6.312673745763598" fill="#ff710a" stroke="none" /><path d="M 117.14729908036423 112.12312394758627 l 7.0687095623107785 4.997570857763424 a29.656926091556407,29.656926091556407 0 0,0 -0.2982924803123784,0.41430216575629425 l -6.981637289622798 -5.11850662897085" fill="#ff5107" stroke="none" /><path d="M 116.71984013943494 112.70617746262583 l 6.57508417111075 4.996709634369668 a29.25825883751495,29.25825883751495 0 0,0 -0.30817749499654806,0.3983609550274251 l -6.488099858896133 -5.109148583510345" fill="#ff4b07" stroke="none" /><path d="M 116.498646956653 112.99209946851258 l 4.765364819456979 3.752555824777484 a27.065507157739546,27.065507157739546 0 0,0 -0.29138220807219295,0.3635441066327127 l -4.700064699329932 -3.834027764988447" fill="#ff2b04" stroke="none" /><path d="M 116.0416608686014 113.55231037782055 l 6.822461996461902 5.76374998039702 a29.931226205269553,29.931226205269553 0 0,0 -0.33588179300015075,0.39070640728766576 l -6.722237693890973 -5.880333486846214" fill="#ff5507" stroke="none" /><path d="M 115.80600337817218 113.82643327865902 l 8.062797082420857 7.052998992358198 a31.71230561450242,31.71230561450242 0 0,0 -0.362941524366332,0.407768650142257 l -7.940196708406187 -7.190741812241321" fill="#ff6e0a" stroke="none" /><path d="M 115.56566222782051 114.09645910891815 l 3.235569078928089 2.930171973902331 a25.365182133789865,25.365182133789865 0 0,0 -0.29587107026259835,0.3211096115239827 l -3.1846516006697683 -2.985432840227648" fill="#ff1201" stroke="none" /><path d="M 115.07121518719521 114.62390073753431 l 7.6815633358803845 7.4535741370370205 a31.703372491857365,31.703372491857365 0 0,0 -0.3833985076982678,0.388380664114391 l -7.552124203126581 -7.584695295132076" fill="#ff6e0a" stroke="none" /><path d="M 114.81725581225074 114.88116024355365 l 2.913639827020192 2.926205885035692 a25.129404063931716,25.129404063931716 0 0,0 -0.30915155888974616,0.302569868151535 l -2.8628383157546518 -2.9759258561097988" fill="#ff0e01" stroke="none" /><path d="M 114.29624159901734 115.38237550388516 l 6.055176994014258 6.5152093030392075 a29.894555676999733,29.894555676999733 0 0,0 -0.3799462085085309,0.3470718530348888 l -5.942131236038863 -6.618473922660679" fill="#ff5407" stroke="none" /><path d="M 114.0293411484842 115.62618273729858 l 7.0451757793998 7.8470687240495085 a31.545662109255993,31.545662109255993 0 0,0 -0.407175854635178,0.3592853501907048 l -6.9090575718580345 -7.967177216012502" fill="#ff6c09" stroke="none" /><path d="M 111.7513745106137 117.40417183066458 l 6.009129018848792 8.899717552378084 a31.73846376709803,31.73846376709803 0 0,0 -0.455409626483407,0.30182066770528404 l -5.85504469362542 -9.001836241174686" fill="#ff6e0a" stroke="none" /><path d="M 111.45004920935366 117.60387380957326 l 2.5994993202445786 3.996599242933748 a25.76762018459636,25.76762018459636 0 0,0 -0.3738982280090164,0.23863953949773214 l -2.5303192901886318 -4.040753211255289" fill="#ff1802" stroke="none" /><path d="M 111.1453310114006 117.79835938074945 l 4.591974419224002 7.333080632325367 a29.652184731441707,29.652184731441707 0 0,0 -0.4349280792730312,0.26716834928210675 l -4.465067140018662 -7.411037448435851" fill="#ff5107" stroke="none" /><line stroke="#e1ed5e" stroke-width="0.3" x1="143.8653032363475" x2="146.44561519142675" y1="172.8068346515853" y2="177.08958963109032" /><path d="M 144.38136562736335 173.6633856474863 a86.0,86.0 0 0,1 -40.68145358897372,12.25698825130547" fill="none" id="id90" stroke="none" /><text fill="#e1ed5e" style="font-size:6.75px; font-family:Arial;" text-anchor="middle"><textPath startOffset="21.466115282336833" xlink:href="#id90">June</textPath></text><path d="M 110.8373102113329 117.98757091392108 l 2.0522055708697144 3.406213582163641 a24.97666174981287,24.97666174981287 0 0,0 -0.3701685529046778,0.21870210580436605 l -1.9932691469366546 -3.4410342602617567" fill="#ff0c01" stroke="none" /><path d="M 110.5260780823613 118.17145234162733 l 4.601524513488152 7.9437358094271655 a30.180248714398093,30.180248714398093 0 0,0 -0.4517713522855208,0.2565275643357521 l -4.464104394281432 -8.021766539557547" fill="#ff5808" stroke="none" /><path d="M 110.21172684928248 118.3499491758327 l 1.8128967588959561 3.257682454472432 a24.7281482846841,24.7281482846841 0 0,0 -0.3737214366803875,0.20378272501596092 l -1.75655251034692 -3.2884058312481637" fill="#ff0801" stroke="none" /><path d="M 109.89434966115114 118.52300852407294 l 5.152481806413173 9.645855229379286 a31.935748345292264,31.935748345292264 0 0,0 -0.4871100347438822,0.2548329479359964 l -4.985680869142796 -9.73311759626" fill="#ff710a" stroke="none" /><path d="M 109.57404056367764 118.69057910512821 l 2.3428739903465687 4.573792157937044 a26.13893308369051,26.13893308369051 0 0,0 -0.4022235277779238,0.20168322685131654 l -2.263796554885884 -4.6134432256976625" fill="#ff1d02" stroke="none" /><path d="M 108.92500713936063 119.00905698771935 l 4.300657845480727 9.159819011111962 a31.11918683591834,31.11918683591834 0 0,0 -0.4868404200615424,0.22348455883553103 l -4.142349429651766 -9.232490640281567" fill="#ff6609" stroke="none" /><path d="M 108.59647513512805 119.15986991738527 l 1.8592190910703463 4.143837488374997 a25.541815139199574,25.541815139199574 0 0,0 -0.4026841392525031,0.17652489285229495 l -1.7876142771600894 -4.1752269345217465" fill="#ff1402" stroke="none" /><path d="M 108.2653958097858 119.30500536409082 l 3.6106274943379812 8.433133119094377 a30.173568831552736,30.173568831552736 0 0,0 -0.4792260178162229,0.20031651431356204 l -3.4649300170242974 -8.494034676427912" fill="#ff5808" stroke="none" /><path d="M 107.93186726928326 119.44442032107085 l 1.5300120205392234 3.750717934838037 a25.050780395147363,25.050780395147363 0 0,0 -0.4006680554016004,0.15943408809057283 l -1.4652228890957568 -3.776498867334679" fill="#ff0d01" stroke="none" /><path d="M 107.59598834532513 119.57807347666477 l 4.466809322492165 11.512856148051352 a33.3490178641553,33.3490178641553 0 0,0 -0.5369664784889754,0.2030347757694039 l -4.267972623242915 -11.588039173927386" fill="#ff850c" stroke="none" /><path d="M 107.2578585660854 119.70592522655815 l 3.9404179618409967 10.698690393371276 a32.40126615105594,32.40126615105594 0 0,0 -0.5250246229540103,0.1882551503099544 l -3.7556737782572513 -10.764933084721191" fill="#ff780b" stroke="none" /><path d="M 106.57524785965236 119.94407469862006 l 3.6474785088387978 11.063550058436638 a32.649302097893,32.649302097893 0 0,0 -0.5352598957134352,0.17137331565704836 l -3.456497268034422 -11.124696220753393" fill="#ff7b0b" stroke="none" /><path d="M 106.2309692047433 120.05430185196036 l 1.1399710073502345 3.668983416974972 a24.842001198807264,24.842001198807264 0 0,0 -0.40944944285202894,0.12336375836632087 l -1.0766465900579596 -3.688062544447019" fill="#ff0a01" stroke="none" /><path d="M 105.88484417918355 120.15858648285463 l 1.9816109226149479 6.78802597700129 a28.071356200409593,28.071356200409593 0 0,0 -0.46500713767409607,0.13141566193745297 l -1.8644726168362462 -6.821130432277262" fill="#ff3a05" stroke="none" /><path d="M 105.18746579009965 120.34920634021253 l 3.616879108880992 14.188164755648327 a35.641920421231674,35.641920421231674 0 0,0 -0.5958085280627259,0.14643524024834992 l -3.372117296075055 -14.248321254210706" fill="#ffa40f" stroke="none" /><path d="M 104.83641907484287 120.43548508189849 l 2.4460953636249863 10.335569465490035 a31.621081804784183,31.621081804784183 0 0,0 -0.5307521043136388,0.1207974509612875 l -2.2678231099184853 -10.376143650029007" fill="#ff6d0a" stroke="none" /><path d="M 104.13013068566511 120.58985236759428 l 1.9325879357028848 9.634489393186893 a30.82640737994589,30.82640737994589 0 0,0 -0.5211606164898384,0.09988167252299888 l -1.766459704641342 -9.66632826405836" fill="#ff6109" stroke="none" /><path d="M 103.7750983002368 120.6578951692458 l 0.9606304440055704 5.2567115954062125 a26.343765306151504,26.343765306151504 0 0,0 -0.4467790051945136,0.07767825689837628 l -0.8700024673390069 -5.272468430825596" fill="#ff2003" stroke="none" /><path d="M 103.41894727170886 120.7198165907248 l 1.9382168709803889 11.746158945496 a32.90499620377128,32.90499620377128 0 0,0 -0.5596421215278568,0.0874045897611153 l -1.735738885844015 -11.77778184260422" fill="#ff7f0b" stroke="none" /><path d="M 102.70371172650421 120.8252237178851 l 1.716348340790472 13.220099548481516 a34.3310496097905,34.3310496097905 0 0,0 -0.5866891544198295,0.07103988614748541 l -1.488531763319262 -13.247684963354352" fill="#ff920d" stroke="none" /><path d="M 102.34483914955558 120.86867818915974 l 0.44226733602439783 3.9361056858929464 a24.960874697214354,24.960874697214354 0 0,0 -0.4273865191109657,0.04430036018389805 l -0.3744482203078295 -3.943135414532603" fill="#ff0b01" stroke="none" /><path d="M 101.62511606390274 120.93702456842531 l 0.27893525808664665 3.5936352370643485 a24.604444353194317,24.604444353194317 0 0,0 -0.42253708971925885,0.029140631586708668 l -0.21703540758845746 -3.5979042131673427" fill="#ff0601" stroke="none" /><path d="M 101.26447882468166 120.96189622390904 l 0.8019846360349235 13.29489935742165 a34.319066344170174,34.319066344170174 0 0,0 -0.5899805919597533,0.030495257605858517 l -0.5730159756616907 -13.306734421789711" fill="#ff920d" stroke="none" /><line stroke="#e1ed5e" stroke-width="0.3" x1="102.19456741930631" x2="102.32365962044197" y1="184.97166512339345" y2="189.96999836594603" /><path d="M 102.22038585953345 185.97133177190398 a86.0,86.0 0 0,1 -42.740103519485714,-10.115201625700543" fill="none" id="id91" stroke="none" /><text fill="#e1ed5e" style="font-size:6.75px; font-family:Arial;" text-anchor="middle"><textPath startOffset="22.20632615414155" xlink:href="#id91">July</textPath></text><path d="M 100.54218724476979 120.99299961872073 l 0.30535007313277135 11.822878591646521 a32.82682108006948,32.82682108006948 0 0,0 -0.5649969710008675,0.009726935239223475 l -0.10179341223923591 -11.826383004164903" fill="#ff7e0b" stroke="none" /><path d="M 99.81925306533755 120.99922214144158 l -0.12275325074407721 14.261502059622487 a35.26203033783005,35.26203033783005 0 0,0 -0.6069104371580687,-0.010448513569528993 l 0.36822337779481384 -14.257276068773798" fill="#ff9f0e" stroke="none" /><path d="M 99.45781275523022 120.99299961872073 l -0.12911864496689593 4.999357123775081 a26.00102422264867,26.00102422264867 0 0,0 -0.44731623272655235,-0.015406475501449312 l 0.2151552293680913 -4.9963938498475375" fill="#ff1b02" stroke="none" /><path d="M 99.09653310690486 120.98055641714683 l -0.40604231235821087 9.429226136881951 a30.437964605776127,30.437964605776127 0 0,0 -0.5232603998044332,-0.027046585776621036 l 0.568290780576133 -9.420839744343128" fill="#ff5c08" stroke="none" /><path d="M 98.37488393609728 120.93702456842531 l -0.7032493560249389 9.06024460152332 a30.087496459211522,30.087496459211522 0 0,0 -0.5160087054626797,-0.044523402358717386 l 0.8591023792291603 -9.046796946885939" fill="#ff5708" stroke="none" /><path d="M 98.01472825383883 120.90594882070398 l -0.3026030098597663 3.1865678083375375 a24.200903462885016,24.200903462885016 0 0,0 -0.41437409609277476,-0.042951569333471024 l 0.35740970255813437 -3.1808868705483055" fill="#ff0000" stroke="none" /><path d="M 97.65516085044442 120.86867818915974 l -1.6973740067908345 15.10634617350025 a36.201406949113455,36.201406949113455 0 0,0 -0.618652009571128,-0.07491014277962936 l 1.9571534394133518 -15.074890501995274" fill="#ffac0f" stroke="none" /><path d="M 97.2962882734958 120.8252237178851 l -0.4841342433785515 3.729023264208461 a24.76031919796972,24.76031919796972 0 0,0 -0.42218868466098913,-0.058511504701954466 l 0.5482515192263716 -3.7201371940139016" fill="#ff0801" stroke="none" /><path d="M 96.58105272829116 120.7198165907248 l -1.3292065332334198 8.055378861114814 a29.164307601020788,29.164307601020788 0 0,0 -0.49461419754328884,-0.08599501824313482 l 1.4676697022487584 -8.031305264350674" fill="#ff4a06" stroke="none" /><path d="M 95.86986931433489 120.58985236759428 l -1.9916919136088453 9.929139192924492 a31.1269265718284,31.1269265718284 0 0,0 -0.5244272571701616,-0.10989883065072296 l 2.162310632208394 -9.893384381547227" fill="#ff6609" stroke="none" /><path d="M 95.16358092515715 120.4354850818985 l -1.6058361148798372 6.7851936446733685 a27.972629520028168,27.972629520028168 0 0,0 -0.4676047481000472,-0.11492587031599288 l 1.722394147723095 -6.756546516043345" fill="#ff3805" stroke="none" /><path d="M 94.46302465271185 120.25689768951611 l -0.9885982153597311 3.6167639638107487 a24.749441025183952,24.749441025183952 0 0,0 -0.4099790066425947,-0.11586416244680653 l 1.0507083901069398 -3.5992110080254207" fill="#ff0801" stroke="none" /><path d="M 94.11515582081647 120.15858648285463 l -1.5497163816940371 5.308567355917664 a26.53014540821537,26.53014540821537 0 0,0 -0.4372736789296447,-0.13174697245081757 l 1.6408650350639276 -5.281105014361121" fill="#ff2303" stroke="none" /><path d="M 93.08242187328487 119.8279376855182 l -20.752734380145377 59.483813056554574 a84.0,84.0 0 0,0 -1.3611217574810934,-0.4880498358401688 l 21.773575698256195 -59.117775679674445" fill="#4dd2ff" stroke="none" /><path d="M 91.40352486487194 119.15986991738527 l -1.441542207889134 3.212917009520873 a24.521488271625284,24.521488271625284 0 0,0 -0.38362350898298914,-0.17610273742916402 l 1.4966337126395426 -3.1876272017576346" fill="#ff0500" stroke="none" /><path d="M 91.07499286063937 119.00905698771935 l -2.026614048960195 4.316413572253653 a25.768499830153964,25.768499830153964 0 0,0 -0.39988703139452814,-0.19197007616425432 l 2.100613748354965 -4.280889219589837" fill="#ff1802" stroke="none" /><path d="M 90.42595943632237 118.69057910512821 l -3.253245322320956 6.351032110299667 a28.13577003506003,28.13577003506003 0 0,0 -0.42914967174534036,-0.2245108253910874 l 3.362085896592792 -6.294091865963863" fill="#ff3b05" stroke="none" /><line stroke="#e1ed5e" stroke-width="0.3" x1="58.666819895761336" x2="56.23545636021788" y1="174.27360380694188" y2="178.64263932499728" /><path d="M 58.180547188652646 175.14741091055294 a86.0,86.0 0 0,1 -31.652253787137756,-30.449443065178592" fill="none" id="id92" stroke="none" /><text fill="#e1ed5e" style="font-size:6.75px; font-family:Arial;" text-anchor="middle"><textPath startOffset="22.20632615414155" xlink:href="#id92">August</textPath></text><path d="M 89.7882731507175 118.34994917583269 l -1.8755886885511242 3.3703366352869164 a24.85707168247857,24.85707168247857 0 0,0 -0.37208814924357525,-0.21128136204468081 l 1.9333256047159066 -3.3375521074476024" fill="#ff0a01" stroke="none" /><path d="M 89.4739219176387 118.17145234162733 l -3.6160143605927693 6.242423066408735 a28.214111559717175,28.214111559717175 0 0,0 -0.4181494289415958,-0.2470500530982962 l 3.722931660562747 -6.179254441016689" fill="#ff3c05" stroke="none" /><path d="M 88.8546689885994 117.79835938074946 l -4.395605596856905 7.019492559607831 a29.28218717233011,29.28218717233011 0 0,0 -0.42489596701319643,-0.2711887094047093 l 4.515783365917025 -6.9427894213793175" fill="#ff4b07" stroke="none" /><path d="M 88.24862548938628 117.40417183066458 l -2.634291995648296 3.9014730151777686 a25.707545645715715,25.707545645715715 0 0,0 -0.3646102611342486,-0.25078226230199774 l 2.701059141405435 -3.85554996351067" fill="#ff1702" stroke="none" /><path d="M 87.95078237400918 117.19931262002967 l -6.031819122286537 8.609948460711635 a31.51256650015077,31.51256650015077 0 0,0 -0.441585102397096,-0.3150592457486801 l 6.179131552532519 -8.504844953118736" fill="#ff6b09" stroke="none" /><path d="M 87.65650970185807 116.9893568818739 l -2.29609621112038 3.1603053126484553 a24.906352196087216,24.906352196087216 0 0,0 -0.3446742990586449,-0.25498180644486734 l 2.3501554805975893 -3.120313557463821" fill="#ff0b01" stroke="none" /><path d="M 87.36589467227662 116.77436683061367 l -4.71453515284098 6.259512647566985 a28.836347382066748,28.836347382066748 0 0,0 -0.393919982814143,-0.30204104521209957 l 4.82158386414861 -6.177432260527519" fill="#ff4506" stroke="none" /><path d="M 86.79598089348748 116.32954008644616 l -4.837291487633199 5.982325882743616 a28.693348549472642,28.693348549472642 0 0,0 -0.3813890805827018,-0.3138572484831476 l 4.939550696760589 -5.898173515403288" fill="#ff4306" stroke="none" /><path d="M 86.51685102203217 116.09983520530335 l -2.6045261055151947 3.109988709256638 a25.056548533669222,25.056548533669222 0 0,0 -0.32828197806833015,-0.27976902363525247 l 2.6576735601605814 -3.064695295398434" fill="#ff0d01" stroke="none" /><path d="M 86.24171649860922 115.8653595955263 l -5.480893432699723 6.320290260463777 a29.36577921039781,29.36577921039781 0 0,0 -0.3790390008492892,-0.3344578481405517 l 5.5888747864556 -6.2250092705509354" fill="#ff4c07" stroke="none" /><path d="M 85.97065885151581 115.62618273729859 l -5.128373423776022 5.712092921319271 a28.676471814282777,28.676471814282777 0 0,0 -0.3644649165206247,-0.3329300598618246 l 5.225937889763501 -5.62297009487087" fill="#ff4206" stroke="none" /><path d="M 85.70375840098266 115.38237550388516 l -2.6506197123138744 2.8519962712168088 a24.89354177970925,24.89354177970925 0 0,0 -0.3113638752678413,-0.29441397841894457 l 2.6993194219725325 -2.8059476560519334" fill="#ff0a01" stroke="none" /><path d="M 85.44109423537348 115.13401014063109 l -5.146134033027506 5.349416082499312 a28.4228665560945,28.4228665560945 0 0,0 -0.3496689965896886,-0.34222470873114436 l 5.237452981992989 -5.260041270845599" fill="#ff3f05" stroke="none" /><path d="M 84.9287848128048 114.62390073753433 l -5.637933225089767 5.470599074095198 a28.855809651465744,28.855809651465744 0 0,0 -0.3428254982236453,-0.3594511642892117 l 5.731265274692369 -5.372740793223486" fill="#ff4506" stroke="none" /><path d="M 84.67929136418377 114.36230785411682 l -2.807448078260358 2.6318256252300136 a24.848151612624577,24.848151612624577 0 0,0 -0.2898401901037671,-0.3145642822248667 l 2.8523346763598543 -2.5831100882038025" fill="#ff0a01" stroke="none" /><path d="M 84.43433777217949 114.09645910891817 l -4.773979010203741 4.3233753192904425 a27.44068705506762,27.44068705506762 0 0,0 -0.3140536330121383,-0.3528425859488455 l 4.847691492864217 -4.240558563600733" fill="#ff3004" stroke="none" /><path d="M 84.19399662182784 113.82643327865904 l -7.593105182136746 6.642132085308624 a31.08826867929667,31.08826867929667 0 0,0 -0.3488658751786864,-0.4058098282102164 l 7.706313566886211 -6.510445157936878" fill="#ff6509" stroke="none" /><path d="M 83.95833913139862 113.55231037782056 l -4.52621927812637 3.8238390025628046 a26.925234651151236,26.925234651151236 0 0,0 -0.2960544945121896,-0.3566167103708668 l 4.591369772532096 -3.7453610350781767" fill="#ff2904" stroke="none" /><path d="M 83.72743513129214 113.27417163493432 l -5.642133769589392 4.602510584475286 a28.28126205778559,28.28126205778559 0 0,0 -0.3044707988451336,-0.37987413608478804 l 5.720522480489387 -4.504708614812238" fill="#ff3d05" stroke="none" /><path d="M 83.28015986056508 112.70617746262583 l -6.132091890565296 4.660059374304803 a28.70186369175557,28.70186369175557 0 0,0 -0.2955454594378835,-0.39593144026576255 l 6.211398616698265 -4.553815054529732" fill="#ff4306" stroke="none" /><path d="M 83.06392112726016 112.41649034213515 l -3.8280475654449546 2.806488797243769 a25.746612216345866,25.746612216345866 0 0,0 -0.2589621322838712,-0.35967575227414605 l 3.875789490104433 -2.7401794395184846" fill="#ff1702" stroke="none" /><path d="M 82.85270091963577 112.12312394758628 l -5.070331710653945 3.584719639842504 a27.209547370971215,27.209547370971215 0 0,0 -0.2670929243609977,-0.38476727827363344 l 5.131285542177077 -3.496911099381858" fill="#ff2d04" stroke="none" /><path d="M 82.6465618267979 111.8261652097733 l -7.947661994348272 5.416238721024334 a30.61774261765885,30.61774261765885 0 0,0 -0.29305100883252205,-0.438071496521606 l 8.039716108591525 -5.278630310296908" fill="#ff5e08" stroke="none" /><path d="M 82.44556493220864 111.52570212397912 l -3.9412052068316155 2.587674114717719 a25.71478056820641,25.71478056820641 0 0,0 -0.23975376069434598,-0.37210316083036166 l 3.9851638309030073 -2.519449353965909" fill="#ff1702" stroke="none" /><path d="M 82.24976979558568 111.22182372390057 l -5.783885100828765 3.656613930824051 a27.842817570174255,27.842817570174255 0 0,0 -0.25262101325678665,-0.4073055096516767 l 5.845970753753508 -3.55651208980711" fill="#ff3605" stroke="none" /><line stroke="#e1ed5e" stroke-width="0.3" x1="26.63291911575756" x2="22.317208475507996" y1="142.92168965132927" y2="145.44649492493687" /><path d="M 25.769776987707644 143.4266507060508 a86.0,86.0 0 0,1 -11.730757126820373,-40.83630448921669" fill="none" id="id93" stroke="none" /><text fill="#e1ed5e" style="font-size:6.75px; font-family:Arial;" text-anchor="middle"><textPath startOffset="21.46611528233685" xlink:href="#id93">September</textPath></text><path d="M 81.87401531095188 110.60418214915194 l -7.406114528363746 4.332773574706904 a29.58041136874678,29.58041136874678 0 0,0 -0.25333228274574454,-0.44170618840887166 l 7.479598807261868 -4.204647540439725" fill="#ff5007" stroke="none" /><path d="M 81.69416730710424 110.29060199501025 l -5.011449040796194 2.8171800956710067 a26.749010800123965,26.749010800123965 0 0,0 -0.22217421463703735,-0.40331073442925225 l 5.059199664884748 -2.730498842843932" fill="#ff2603" stroke="none" /><path d="M 81.51974371655577 109.97397251340807 l -4.163690744920983 2.2471840437287276 a25.731401139803054,25.731401139803054 0 0,0 -0.2070121753537635,-0.3915890211941331 l 4.201755428499632 -2.175180007448468" fill="#ff1702" stroke="none" /><path d="M 81.35079622478065 109.6543875284942 l -3.1855902941477803 1.6491279508446868 a24.58714489816424,24.58714489816424 0 0,0 -0.19133637740075266,-0.3775248246985179 l 3.2135053413348 -1.594048914443484" fill="#ff0600" stroke="none" /><path d="M 81.18737489456691 109.33194174019688 l -6.193952885956625 3.072490263816423 a27.91413398587973,27.91413398587973 0 0,0 -0.20981691162340524,-0.432284983660613 l 6.2459230541947495 -2.965416324190525" fill="#ff3705" stroke="none" /><path d="M 81.02952815118164 109.00673069616217 l -6.018541438115186 2.857460918673591 a27.662426280572006,27.662426280572006 0 0,0 -0.20052016379524387,-0.43190259370373113 l 6.0668362187502565 -2.753438257691033" fill="#ff3404" stroke="none" /><path d="M 80.73074385275274 108.34839909993369 l -9.873960121240906 4.277890083511325 a31.76082859460461,31.76082859460461 0 0,0 -0.21302293066997102,-0.5035232821473603 l 9.946134033103183 -4.107292275697806" fill="#ff6f0a" stroke="none" /><path d="M 80.58989483394504 108.01547362559985 l -4.4612661421933595 1.8422961026542648 a25.826691467385906,25.826691467385906 0 0,0 -0.16614849998213643,-0.41236695121634853 l 4.492317256432884 -1.7652297835951107" fill="#ff1802" stroke="none" /><path d="M 80.45479744820244 107.68017299344265 l -7.201184981864601 2.829663508061973 a28.73718687326924,28.73718687326924 0 0,0 -0.17694679290971588,-0.46195224018701087 l 7.248826054367825 -2.705287701041804" fill="#ff4306" stroke="none" /><path d="M 80.32549172779594 107.34259656027581 l -10.506949420591415 3.9212309455083436 a32.21481334017105,32.21481334017105 0 0,0 -0.18941656589316072,-0.5211930381599924 l 10.572890247489799 -3.739790110342234" fill="#ff750a" stroke="none" /><path d="M 80.20201598880116 107.00284435728193 l -4.6153957677511 1.6325348172084695 a25.89561518324027,25.89561518324027 0 0,0 -0.1450267516149907,-0.42151562571079926 l 4.64281335030932 -1.5528464884083735" fill="#ff1902" stroke="none" /><path d="M 80.0844068197444 106.66101706037122 l -9.303578948358183 3.1116973286521548 a30.8101601166074,30.8101601166074 0 0,0 -0.16389207773595935,-0.5044079495214111 l 9.355763277110391 -2.95109047915294" fill="#ff6109" stroke="none" /><path d="M 79.86692584326677 105.97154293290107 l -10.26230985835597 3.04383838418495 a31.7042027137918,31.7042027137918 0 0,0 -0.1506815653567611,-0.5245422965711363 l 10.313184060598834 -2.8667386121092178" fill="#ff6e0a" stroke="none" /><path d="M 79.67330655649465 105.27499134158121 l -7.2408319463667965 1.8790722617570346 a28.480679102891038,28.480679102891038 0 0,0 -0.11906101840128551,-0.4755895845923977 l 7.27210427906314 -1.7541548377672451" fill="#ff4006" stroke="none" /><path d="M 79.50377843672027 104.57218783832718 l -4.774270441854031 1.0650187979153043 a25.891617655936944,25.891617655936944 0 0,0 -0.0932911494721767,-0.4358251921111509 l 4.791895630050648 -0.9826797863879896" fill="#ff1902" stroke="none" /><path d="M 79.4281124754447 104.21870165774334 l -10.469929924357224 2.1470810918842638 a31.687815016928287,31.687815016928287 0 0,0 -0.104977305456304,-0.5352770188792968 l 10.505337162789194 -1.966540345937012" fill="#ff6e0a" stroke="none" /><path d="M 79.29508885075956 103.50808413554451 l -11.448328745130103 1.9397185604808758 a32.611491684983726,32.611491684983726 0 0,0 -0.08901111862117243,-0.5542723206217975 l 11.480021618112566 -1.7423670101658646" fill="#ff7b0b" stroke="none" /><path d="M 79.23777060512086 103.15116336523772 l -4.742144250212551 0.719733461649747 a25.796451641124122,25.796451641124122 0 0,0 -0.06285237755345369,-0.43958938221975685 l 4.753830678782603 -0.6379986074495896" fill="#ff1802" stroke="none" /><path d="M 79.18660465613746 102.79330883721812 l -10.317441019618386 1.384675527535933 a31.409943107907026,31.409943107907026 0 0,0 -0.06730476354753243,-0.5364851872213726 l 10.339747292412765 -1.2068725860271519" fill="#ff6a09" stroke="none" /><path d="M 79.1416061653843 102.43462659150553 l -9.723454534446459 1.1349378652335027 a30.78946638185086,30.78946638185086 0 0,0 -0.05691315347400884,-0.526945117373431 l 9.74154998942152 -0.9673964259752897" fill="#ff6108" stroke="none" /><path d="M 79.10278846688536 102.07522291339032 l -6.813600985941866 0.6766329022567886 a27.84711548610394,27.84711548610394 0 0,0 -0.043263018345383264,-0.4774038023921362 l 6.824238600564325 -0.5592477113160862" fill="#ff3605" stroke="none" /><path d="M 79.07016306316243 101.71520430193888 l -9.370739168657407 0.7679339396161052 a30.40215268449861,30.40215268449861 0 0,0 -0.0382537856160366,-0.521942511956613 l 9.382569512937778 -0.6065182911627316" fill="#ff5b08" stroke="none" /><path d="M 79.0235259727143 100.99374915477108 l -10.355602854847964 0.4905911055768482 a31.36721708657663,31.36721708657663 0 0,0 -0.02090829226692581,-0.5395501195010862 l 10.362513279966091 -0.31226373906176524" fill="#ff6909" stroke="none" /><path d="M 79.0095281055655 100.63252640178507 l -5.724290502950078 0.1724956395841447 a26.72688890304675,26.72688890304675 0 0,0 -0.009899050786317498,-0.4599699924669946 l 5.7264116164214025 -0.07393583132702122" fill="#ff2603" stroke="none" /><line stroke="#e1ed5e" stroke-width="0.3" x1="15.007084014347285" x2="10.007500721073583" y1="101.09737516637583" y2="101.16192664675087" /><path d="M 14.007167355692545 101.11028546245083 a86.0,86.0 0 0,1 10.666146001902534,-42.60595125391555" fill="none" id="id94" stroke="none" /><text fill="#e1ed5e" style="font-size:6.75px; font-family:Arial;" text-anchor="middle"><textPath startOffset="22.20632615414155" xlink:href="#id94">October</textPath></text><path d="M 79.00175016825051 100.2711162175752 l -5.94617659105037 0.07677329869474576 a26.94667219471091,26.94667219471091 0 0,0 -0.0019962386177231214,-0.4638555520162171 l 5.946617126957596 0.025591731525146693" fill="#ff2904" stroke="none" /><path d="M 79.00019446554 99.90962569577889 l -19.05743220654081 -0.08201514881083315 a40.05760868502482,40.05760868502482 0 0,0 0.008902313076873645,-0.689493958497067 l 19.05319688634622 0.4100453653683721" fill="#ffdf14" stroke="none" /><path d="M 79.00486145842228 99.54816195383935 l -4.740751287771014 -0.10202608546535767 a25.741849016429974,25.741849016429974 0 0,0 0.013346910350835342,-0.4429189766721283 l 4.738292682964533 0.18361520956248042" fill="#ff1702" stroke="none" /><path d="M 79.01574976396665 99.18683210126434 l -8.810614959630099 -0.3414231708402287 a29.817227781363272,29.817227781363272 0 0,0 0.02428881808661921,-0.5126985611020064 l 8.80343253330998 0.49303283856524416" fill="#ff5307" stroke="none" /><path d="M 79.05617556472873 98.46500227214037 l -11.851365077949675 -0.8686005998050247 a32.88315283133339,32.88315283133339 0 0,0 0.0462329552851183,-0.5641591582599552 l 11.83465763884506 1.0724736752727582" fill="#ff7e0b" stroke="none" /><line stroke="#e1ed5e" stroke-width="0.3" x1="26.266209847984243" x2="21.928928074336255" y1="57.711370442889674" y2="55.22380399835377" /><path d="M 25.398753493254645 57.213857153982495 a86.0,86.0 0 0,1 29.58750427330803,-30.492523968695096" fill="none" id="id95" stroke="none" /><text fill="#e1ed5e" style="font-size:6.75px; font-family:Arial;" text-anchor="middle"><textPath startOffset="21.46611528233685" xlink:href="#id95">November</textPath></text><line stroke="#e1ed5e" stroke-width="0.3" x1="56.762969772571076" x2="54.21961505331055" y1="26.818313649435495" y2="22.513508569990535" /><path d="M 56.25429882871897 25.957352633546506 a86.0,86.0 0 0,1 42.265352541879196,-11.944610805530505" fill="none" id="id96" stroke="none" /><text fill="#e1ed5e" style="font-size:6.75px; font-family:Arial;" text-anchor="middle"><textPath startOffset="22.20632615414155" xlink:href="#id96">December</textPath></text></svg>