<?xml version="1.0" encoding="utf-8" ?>
<svg baseProfile="full" height="200mm" version="1.1" viewBox="0,0,200,200" width="200mm" xmlns="http://www.w3.org/2000/svg" xmlns:ev="http://www.w3.org/2001/xml-events" xmlns:xlink="http://www.w3.org/1999/xlink"><defs /><rect fill="#1a1a1a" height="200" width="200" x="0" y="0" /><text alignment-baseline="middle" fill="#e1ed5e" style="dominant-baseline: central; font-size:9.0px; font-family:Arial;" text-anchor="middle" x="100.0" y="100.0">2021</text><line stroke="#e1ed5e" stroke-width="0.3" x1="100.0" x2="100.0" y1="15.0" y2="10.0" /><path d="M 100.0 14.0 a86.0,86.0 0 0,1 42.46469731375804,11.215312516191453" fill="none" id="id73" stroke="none" /><text fill="#e1ed5e" style="font-size:6.75px; font-family:Arial;" text-anchor="middle"><textPath startOffset="22.20632615414155" xlink:href="#id73">January</textPath></text><path d="M 100.36148047927253 79.00311137660856 l 0.3845862615517457 -22.339006842470408 a43.3423170978418,43.3423170978418 0 0,0 0.7458456651475287,0.019262993071710338 l -0.7690585618941422 22.329077057256338" fill="#ffac0f" stroke="none" /><path d="M 100.72285384407766 79.0124445844662 l 1.2018954151796417 -34.89619213680031 a55.91688385634539,55.91688385634539 0 0,0 0.9616616775685775,0.041411174745177255 l -1.8023979251375508 34.870333235530936" fill="#9aff23" stroke="none" /><path d="M 101.44485096284872 79.0497635885617 l 3.297983039752901 -47.82051999848486 a68.93410920269604,68.93410920269604 0 0,0 1.1830728211533035,0.09182922053415127 l -4.120646050268546 47.75666551576225" fill="#36ff70" stroke="none" /><path d="M 102.16513564639614 79.11191278185805 l 1.8097570138485088 -17.45958153330199 a38.553125299136724,38.553125299136724 0 0,0 0.6595031567243569,0.0741028639727672 l -2.1100268740825907 17.42584271585862" fill="#ff5e08" stroke="none" /><path d="M 102.88285421437855 79.19881850522331 l 6.633074218545509 -47.86082487283588 a69.31828050641909,69.31828050641909 0 0,0 1.18049368249729,0.17397408243645088 l -7.455936881471455 47.73955630623846" fill="#37ff76" stroke="none" /><path d="M 103.2404852339499 79.25152402106235 l 3.4623958623689584 -22.169345697764108 a43.43809425451996,43.43809425451996 0 0,0 0.7377666457892381,0.12173781798377706 l -3.8434917142970715 22.106461616840708" fill="#ffae10" stroke="none" /><path d="M 103.95276090670814 79.375362276772 l 7.083764098542229 -36.96152428579722 a58.63421304256771,58.63421304256771 0 0,0 0.9896159360355611,0.19850764694536754 l -7.718946444044915 36.834112682774645" fill="#76ff27" stroke="none" /><path d="M 104.307194497241 79.44645832069477 l 4.680601599162839 -22.335406519078578 a43.82057001265708,43.82057001265708 0 0,0 0.7369311015099799,0.16106459574866638 l -5.064375424826347 22.251528425234042" fill="#ffb410" stroke="none" /><path d="M 105.36241919743992 79.69619591428918 l 12.281271480201053 -46.50075290206244 a69.09521441504413,69.09521441504413 0 0,0 1.1473165290983889,0.31360494753556173 l -13.079885898523154 46.28246141370058" fill="#36ff73" stroke="none" /><path d="M 105.71112130821622 79.79150937346287 l 3.538091709473396 -12.519344151184495 a34.00969142295242,34.00969142295242 0 0,0 0.5619855055224832,0.1640589797192532 l -3.7530674327193063 12.456586842546539" fill="#ff1001" stroke="none" /><path d="M 106.40334571778207 80.00007090966166 l 13.887826207815422 -43.37662709728833 a66.54561993337771,66.54561993337771 0 0,0 1.0879168775074268,0.3586690898628265 l -14.632425907565265 43.131144283166265" fill="#33ff4f" stroke="none" /><path d="M 107.08798089147638 80.2323363322302 l 8.113469191701423 -22.627647085397086 a45.03827770340395,45.03827770340395 0 0,0 0.7275133244646436,0.267949297137836 l -8.501764841938643 22.48463452045293" fill="#ffc712" stroke="none" /><path d="M 107.76421540070413 80.48803036053334 l 17.576275878568374 -44.170304868978064 a68.53883997299484,68.53883997299484 0 0,0 1.0924312046981706,0.44563011771038985 l -18.333990952854933 43.861213865084096" fill="#36ff6b" stroke="none" /><path d="M 108.76106565485865 80.91482961587045 l 22.742008047248166 -49.541358957659746 a75.51188106635831,75.51188106635831 0 0,0 1.1766253709840853,0.5524413885007616 l -23.59141162953185 49.14255258651898" fill="#40ffc8" stroke="none" /><path d="M 109.08828744355905 81.06846463323043 l 7.680058852418569 -15.998097186778208 a38.74605357746374,38.74605357746374 0 0,0 0.5987717940876301,0.2938147189214492 l -7.954301913516631 15.863527307721926" fill="#ff6209" stroke="none" /><path d="M 110.05341064243156 81.56283822128135 l 10.002590228059804 -18.34396114912546 a41.89384411521972,41.89384411521972 0 0,0 0.6301550558175806,0.3506806063080807 l -10.31686937294942 18.1690651452572" fill="#ff950d" stroke="none" /><path d="M 110.36928655335952 81.73862282372117 l 12.265641783207332 -21.60105324118998 a45.84052071681843,45.84052071681843 0 0,0 0.6828126031291246,0.39552913223632413 l -12.635651118801785 21.386719951563606" fill="#ffd313" stroke="none" /><line stroke="#e1ed5e" stroke-width="0.3" x1="143.23703022742887" x2="145.7803849466894" y1="26.81831364943548" y2="22.513508569990506" /><path d="M 143.74570117128098 25.957352633546492 a86.0,86.0 0 0,1 28.547481713284135,27.462654790039103" fill="none" id="id74" stroke="none" /><text fill="#e1ed5e" style="font-size:6.75px; font-family:Arial;" text-anchor="middle"><textPath startOffset="19.985693538727396" xlink:href="#id74">February</textPath></text><path d="M 110.99172775467656 82.1063720568725 l 32.97518326402967 -53.68088382938249 a84.0,84.0 0 0,0 1.225523390510947,0.7674226347082231 l -33.894325806912875 53.10531685335132" fill="#4dd2ff" stroke="none" /><path d="M 111.60114157652 82.49532879139004 l 6.907243326031547 -10.422166006900571 a33.5032617600529,33.5032617600529 0 0,0 0.47797237835146045,0.32272908348562823 l -7.085620398789549 10.301725011116273" fill="#ff0701" stroke="none" /><path d="M 111.90073688211348 82.69761687909136 l 13.735737245411633 -19.970275002503858 a45.23803542679602,45.23803542679602 0 0,0 0.6377892188707582,0.4468121062428356 l -14.07745760386604 19.730878053497086" fill="#ffca12" stroke="none" /><path d="M 112.19680574252982 82.90503203632743 l 27.40522785431335 -38.41099892023541 a68.18528745061492,68.18528745061492 0 0,0 0.9495765081283604,0.6899077167500779 l -28.062349678795496 37.93357196866866" fill="#35ff66" stroke="none" /><path d="M 112.77801427241765 83.33499621200491 l 8.229486284757556 -10.732842927306429 a34.524731487657874,34.524731487657874 0 0,0 0.4684964055164107,0.36566887567240663 l -8.413015245433398 10.5895956624108" fill="#ff1902" stroke="none" /><path d="M 113.06298171725822 83.55741782278167 l 30.25344029931857 -38.080484917766725 a69.63531619632684,69.63531619632684 0 0,0 0.9321071772702153,0.7536991803099757 l -30.904450875153277 37.55407964019262" fill="#37ff7a" stroke="none" /><path d="M 113.34407831869373 83.78471172551755 l 20.623304967990645 -25.060766824191614 a53.455550243667886,53.455550243667886 0 0,0 0.7054668027493225,0.5908081591634216 l -21.051629307699084 24.702057507634372" fill="#bcff1f" stroke="none" /><path d="M 114.42810811169701 84.74124197986012 l 15.33558410266476 -16.218478896090183 a43.320824300926404,43.320824300926404 0 0,0 0.537419077662556,0.5169967269148017 l -15.612486423939734 15.95209908241308" fill="#ffac0f" stroke="none" /><path d="M 114.68862486808459 84.99185889309783 l 22.18720749923427 -22.669837640155365 a52.72055666669616,52.72055666669616 0 0,0 0.6431009149170263,0.6403392352115748 l -22.57414421431862 22.28456255429367" fill="#c6ff1e" stroke="none" /><path d="M 115.19652480421416 85.50635884689758 l 28.125573090982524 -26.824683199477995 a59.86658578327349,59.86658578327349 0 0,0 0.7048083965563675,0.751840456102032 l -28.583148809509353 26.336573326497906" fill="#67ff28" stroke="none" /><path d="M 115.9244219780498 86.31012108654704 l 28.307574386610142 -24.335405468432207 a58.33002447047774,58.33002447047774 0 0,0 0.647989315428533,0.7670149631160781 l -28.72227431552579 23.844531555687023" fill="#7aff26" stroke="none" /><path d="M 116.15771136456269 86.58626213691792 l 30.530086685103818 -25.345333289547753 a60.67961835197273,60.67961835197273 0 0,0 0.6602563949358944,0.8093962705964934 l -30.96184157211612 24.81605284934316" fill="#5cff2a" stroke="none" /><path d="M 116.60985879189232 87.15038557335679 l 18.689884912443013 -14.458751143655473 a44.62979650091222,44.62979650091222 0 0,0 0.4648385846500559,0.6116730896330436 l -18.935999437317182 14.134893278141394" fill="#ffc111" stroke="none" /><path d="M 116.82858285166822 87.43820079747576 l 17.970882265393946 -13.414475627560321 a43.425449064825,43.425449064825 0 0,0 0.4419829539780134,0.6028642525155762 l -18.199127831885587 13.103148931373251" fill="#ffae10" stroke="none" /><path d="M 117.2510076193507 88.02491185347247 l 16.08112696742654 -11.162995065541677 a40.57588065390165,40.57588065390165 0 0,0 0.3933455516704635,0.5771860607846464 l -16.270896984765734 10.884530981486625" fill="#ff800b" stroke="none" /><path d="M 117.65298651832404 88.62581576622439 l 46.54925422869444 -29.99264702278238 a76.37501191585284,76.37501191585284 0 0,0 0.7025497446918605,1.1112649784163984 l -47.058631569632254 29.186934396651772" fill="#41ffd3" stroke="none" /><line stroke="#e1ed5e" stroke-width="0.3" x1="172.23445277983987" x2="176.4835382374775" y1="55.19839476539836" y2="52.563006222186495" /><path d="M 173.08426987136738 54.67131705675599 a86.0,86.0 0 0,1 12.851231095245387,41.99856678651699" fill="none" id="id75" stroke="none" /><text fill="#e1ed5e" style="font-size:6.75px; font-family:Arial;" text-anchor="middle"><textPath startOffset="22.20632615414155" xlink:href="#id75">March</textPath></text><path d="M 118.03404312379186 89.2402003453031 l 28.044484684064376 -16.732411836237272 a53.656802155939495,53.656802155939495 0 0,0 0.4664061967822114,0.7972393780908104 l -28.328350555316913 16.247193045792567" fill="#b9ff1f" stroke="none" /><path d="M 118.21658344932153 89.55222093294921 l 18.35404941202403 -10.526620086364359 a42.15847017772479,42.15847017772479 0 0,0 0.35562146889451385,0.6326109118534905 l -18.532528522210974 10.209125664576074" fill="#ff990e" stroke="none" /><path d="M 118.56541770881063 90.18545643968196 l 20.209773732934064 -10.683826658633246 a43.859989204024444,43.859989204024444 0 0,0 0.3471007841622857,0.6704882350408873 l -20.390683950256467 10.334365701332015" fill="#ffb410" stroke="none" /><path d="M 118.73160827565052 90.50648371742162 l 39.445351096725176 -19.9916140353825 a65.2221703999659,65.2221703999659 0 0,0 0.4989185051524348,1.0057892619674558 l -39.78362961483102 19.309665184916092" fill="#31ff3c" stroke="none" /><path d="M 118.89224826269711 90.83032412892265 l 15.059408731322378 -7.309341638758676 a37.73954200475987,37.73954200475987 0 0,0 0.27862889314299427,0.5868635081860353 l -15.182995818307129 7.0490357149321" fill="#ff5107" stroke="none" /><path d="M 119.196687751892 91.48605970444005 l 44.38672330851865 -19.685995680531953 a69.55635521742664,69.55635521742664 0 0,0 0.4759949730584158,1.0986620250027872 l -44.71900899141974 18.919034510942563" fill="#37ff79" stroke="none" /><path d="M 119.47837535516314 92.15188598940014 l 24.523177956055022 -9.880736611348507 a47.438895836384425,47.438895836384425 0 0,0 0.2986537150504841,0.7600411290855605 l -24.689625220987207 9.457146477367163" fill="#ffec16" stroke="none" /><path d="M 119.7369772167798 92.82701384747503 l 41.63226583872345 -15.130364851691525 a65.29642761455422,65.29642761455422 0 0,0 0.37482300871713276,1.0596751198525156 l -41.88654192825039 14.411492105412394" fill="#31ff3d" stroke="none" /><path d="M 120.08093135843002 93.85539295169968 l 54.07247848598256 -16.54575310744014 a77.54728000098159,77.54728000098159 0 0,0 0.37959062281564443,1.2797908755275593 l -54.34927500590991 15.61253284516605" fill="#43ffe1" stroke="none" /><path d="M 120.28053869075195 94.5502522615342 l 23.878754342935213 -6.416653396743008 a45.72586398458466,45.72586398458466 0 0,0 0.1977179132476145,0.7618877739558695 l -23.98566858805313 6.004669197238289" fill="#ffd113" stroke="none" /><path d="M 120.45610955862082 95.25157060432595 l 34.91238830671646 -8.104131943257764 a56.840644690528144,56.840644690528144 0 0,0 0.2130322754079712,0.9549819192224889 l -35.04671496912647 7.501971854485311" fill="#8eff24" stroke="none" /><path d="M 120.53481517161879 95.60439243477599 l 30.907350195145007 -6.615914543344664 a52.607508939019056,52.607508939019056 0 0,0 0.18192353996712657,0.8871237897098844 l -31.01665303102713 6.082915097471367" fill="#c7ff1e" stroke="none" /><path d="M 120.67395015179393 96.31383870115 l 59.66375224709827 -10.63803544376564 a81.60471211305222,81.60471211305222 0 0,0 0.23466460265168243,1.3850037684517382 l -59.83802871127018 9.609445886998063" fill="#49edff" stroke="none" /><path d="M 120.73433829027371 96.67025291283417 l 11.94252913054019 -1.9178621004974608 a33.09554451318028,33.09554451318028 0 0,0 0.0854875353932069,0.5632560468989518 l -11.973772559372696 1.7120069412064267" fill="#ff0000" stroke="none" /><path d="M 120.87857604477298 97.74499172005257 l 44.336138811718584 -4.788562203999246 a65.59398538719711,65.59398538719711 0 0,0 0.1115812236185034,1.123607694399549 l -44.411997161019315 4.0246789788952615" fill="#31ff41" stroke="none" /><path d="M 120.94382443527127 98.46500227214037 l 20.983143844125912 -1.5378794939591918 a42.03942487144597,42.03942487144597 0 0,0 0.046682597262685505,0.7221591174471259 l -21.006507032393014 1.1764613122590306" fill="#ff980e" stroke="none" /><path d="M 120.96714384426684 98.82574320788733 l 27.994202728706007 -1.5678045106248693 a49.03807050065012,49.03807050065012 0 0,0 0.03994592597416861,0.8431953624010987 l -28.017042262913673 1.0856980416007707" fill="#fbff18" stroke="none" /><path d="M 120.98425023603335 99.18683210126433 l 21.355959960314213 -0.8275721501162607 a42.37198871163355,42.37198871163355 0 0,0 0.02196948379115354,0.729060211165912 l -21.36704113856101 0.45984179152534954" fill="#ff9d0e" stroke="none" /><line stroke="#e1ed5e" stroke-width="0.3" x1="184.98032266829074" x2="189.97916517819016" y1="98.17113171792111" y2="98.06355123074" /><path d="M 185.9800911702706 98.14961562048488 a86.0,86.0 0 0,1 -9.607161424134198,41.387399972396054" fill="none" id="id76" stroke="none" /><text fill="#e1ed5e" style="font-size:6.75px; font-family:Arial;" text-anchor="middle"><textPath startOffset="21.466115282336823" xlink:href="#id76">April</textPath></text><path d="M 120.99980553446 99.90962569577887 l 25.857375081802925 -0.1112792343799586 a46.85761453013497,46.85761453013497 0 0,0 -0.0034712627586644743,0.8065992155537663 l -25.855459521754756 -0.3338294593774925" fill="#ffe315" stroke="none" /><path d="M 120.99824983174949 100.27111621757518 l 48.89254130958261 0.631269795040253 a69.89661641937377,69.89661641937377 0 0,0 -0.025888166716188946,1.2029213817035027 l -48.87443108018142 -1.4727809925338706" fill="#38ff7e" stroke="none" /><path d="M 120.9904718944345 100.63252640178507 l 19.4349891627895 0.5856535205923851 a40.44381119544025,40.44381119544025 0 0,0 -0.026958433147847308,0.6956773724410802 l -19.422028596790447 -0.9201081400474714" fill="#ff7e0b" stroke="none" /><path d="M 120.95626037817324 101.35467743843564 l 29.260282178956626 1.8914750721162912 a50.32135384221888,50.32135384221888 0 0,0 -0.06331730196099888,0.8639142794272082 l -29.22338831833129 -2.39486248804027" fill="#e8ff1a" stroke="none" /><path d="M 120.92983693683757 101.71520430193887 l 20.190741436159406 1.654635278580851 a41.25842683050608,41.25842683050608 0 0,0 -0.06409870630085752,0.7073238827709143 l -20.159268133581474 -2.0019405499003358" fill="#ff8b0c" stroke="none" /><path d="M 120.81339534386255 102.79330883721812 l 49.461085994855765 6.638037010553221 a70.9045344948131,70.9045344948131 0 0,0 -0.17275703784063037,1.2082623202900062 l -49.339494905998535 -7.488444802823636" fill="#39ff8b" stroke="none" /><path d="M 120.64145759157962 103.86396538481128 l 23.96809861428792 4.486693973740081 a45.384424824018836,45.384424824018836 0 0,0 -0.15035226080323447,0.7666429386303563 l -23.88731642050902 -4.898600639438382" fill="#ffcc13" stroke="none" /><path d="M 120.5718875245553 104.21870165774334 l 23.589221450199354 4.837469946209127 a45.080126330794485,45.080126330794485 0 0,0 -0.16243005205919567,0.7588191274718634 l -23.502457359415715 -5.242802893097159" fill="#ffc812" stroke="none" /><path d="M 120.41448212921028 104.9243191809786 l 15.812278956980315 3.8141897536273484 a37.265798759668655,37.265798759668655 0 0,0 -0.15578645213600298,0.6222894365540405 l -15.744281190549252 -4.085807029578785" fill="#ff4906" stroke="none" /><path d="M 120.32669344350535 105.2749913415812 l 19.689270561381356 5.109573380540222 a41.34146296042651,41.34146296042651 0 0,0 -0.1846820079601322,0.6872704550129588 l -19.598400477079444 -5.447734768728729" fill="#ff8c0c" stroke="none" /><path d="M 120.23288151984713 105.62410040840565 l 45.84154810684646 12.74249884658104 a68.57960497616008,68.57960497616008 0 0,0 -0.32594045409826067,1.1346414800864568 l -45.6154150158621 -13.529697802172077" fill="#36ff6c" stroke="none" /><path d="M 120.02730092923936 106.31721596034902 l 19.106785836868813 6.026857681227368 a41.03477672762389,41.03477672762389 0 0,0 -0.21828107325208382,0.6718000656248887 l -19.00021251260048 -6.3548566468300525" fill="#ff870c" stroke="none" /><path d="M 119.9155931802556 106.66101706037122 l 23.993200455133284 8.024823369207736 a46.299633558357925,46.299633558357925 0 0,0 -0.25929816335387534,0.7536418374861622 l -23.851511460836175 -8.4366379097832" fill="#ffda14" stroke="none" /><path d="M 119.67450827220406 107.3425965602758 l 22.27630068769813 8.313594756329728 a44.777077829313114,44.777077829313114 0 0,0 -0.27571106221033087,0.7197945819644874 l -22.12989534589429 -8.695812905127358" fill="#ffc312" stroke="none" /><path d="M 119.54520255179757 107.68017299344265 l 31.038648405309498 12.19645529912893 a54.34893126761444,54.34893126761444 0 0,0 -0.3496380253409225,0.8677729052904095 l -30.824107765711183 -12.728927572262153" fill="#afff20" stroke="none" /><path d="M 119.26925614724726 108.34839909993367 l 30.51503324870033 13.22062845400956 a54.255860699856406,54.255860699856406 0 0,0 -0.37865143291152936,0.8537590201565981 l -30.28294073105753 -13.743935810658847" fill="#b0ff20" stroke="none" /><path d="M 118.97047184881838 109.00673069616215 l 21.313365892101864 10.119081293746854 a44.59354513166829,44.59354513166829 0 0,0 -0.33518789881136196,0.690586350927593 l -21.13602473667579 -10.484456600639723" fill="#ffc011" stroke="none" /><line stroke="#e1ed5e" stroke-width="0.3" x1="174.80103733775053" x2="179.2010983576182" y1="140.37084112569926" y2="142.7455964860345" /><path d="M 175.68104954172406 140.8457921977663 a86.0,86.0 0 0,1 -30.038265399797805,32.042727171017184" fill="none" id="id77" stroke="none" /><text fill="#e1ed5e" style="font-size:6.75px; font-family:Arial;" text-anchor="middle"><textPath startOffset="22.206326154141568" xlink:href="#id77">May</textPath></text><path d="M 118.12598468904814 110.60418214915192 l 29.50626859439097 17.261950293148672 a55.1847160919537,55.1847160919537 0 0,0 -0.4867268947330292,0.8157822720512344 l -29.204760823959713 -17.767294659086012" fill="#a4ff21" stroke="none" /><path d="M 117.75023020441432 111.22182372390056 l 34.88475990743121 22.054397144349764 a62.27157505111506,62.27157505111506 0 0,0 -0.5805938830885399,0.9010945998525719 l -34.49996116096562 -22.65161334412379" fill="#49ff2c" stroke="none" /><path d="M 117.35343817320211 111.8261652097733 l 12.752309219436484 8.690549626532187 a36.43201358343568,36.43201358343568 0 0,0 -0.3576220109688649,0.5151811795105914 l -12.600826301305482 -8.908772068229798" fill="#ff3a05" stroke="none" /><path d="M 116.93607887273984 112.41649034213515 l 36.51472100240264 26.770345372083465 a66.27666331813703,66.27666331813703 0 0,0 -0.6824562725518956,0.9142617024934154 l -36.04850346315565 -27.394919954086195" fill="#32ff4b" stroke="none" /><path d="M 116.498646956653 112.99209946851258 l 30.364057053461014 23.910618279341925 a59.648332787407995,59.648332787407995 0 0,0 -0.6421628390011482,0.8011968787042694 l -29.947976302405014 -24.429742991624448" fill="#69ff28" stroke="none" /><path d="M 116.0416608686014 113.55231037782055 l 9.89910048227376 8.362954640163986 a33.958827133332434,33.958827133332434 0 0,0 -0.38107866572194604,0.44328058108863333 l -9.753679306981034 -8.532112320414146" fill="#ff0f01" stroke="none" /><path d="M 115.80600337817218 113.82643327865902 l 16.725481902629493 14.630754786468234 a43.22162753933541,43.22162753933541 0 0,0 -0.4946636039464254,0.5557598029266702 l -16.47115944903473 -14.916488759135772" fill="#ffaa0f" stroke="none" /><path d="M 115.56566222782051 114.09645910891815 l 24.726346252442724 22.392489555474228 a54.358893679013256,54.358893679013256 0 0,0 -0.6340669649549019,0.6881544607120632 l -24.3372328794921 -22.814795270987624" fill="#afff20" stroke="none" /><path d="M 115.32070863581623 114.36230785411682 l 18.58649753146977 17.423802372476178 a46.47639651917905,46.47639651917905 0 0,0 -0.5521693546213653,0.5789473607765131 l -18.28382162546944 -17.741156849835196" fill="#ffdd14" stroke="none" /><line stroke="#e1ed5e" stroke-width="0.3" x1="143.8653032363475" x2="146.44561519142675" y1="172.8068346515853" y2="177.08958963109032" /><path d="M 144.38136562736335 173.6633856474863 a86.0,86.0 0 0,1 -40.68145358897372,12.25698825130547" fill="none" id="id78" stroke="none" /><text fill="#e1ed5e" style="font-size:6.75px; font-family:Arial;" text-anchor="middle"><textPath startOffset="21.466115282336833" xlink:href="#id78">June</textPath></text><line stroke="#e1ed5e" stroke-width="0.3" x1="102.19456741930631" x2="102.32365962044197" y1="184.97166512339345" y2="189.96999836594603" /><path d="M 102.22038585953345 185.97133177190398 a86.0,86.0 0 0,1 -42.740103519485714,-10.115201625700543" fill="none" id="id79" stroke="none" /><text fill="#e1ed5e" style="font-size:6.75px; font-family:Arial;" text-anchor="middle"><textPath startOffset="22.20632615414155" xlink:href="#id79">July</textPath></text><line stroke="#e1ed5e" stroke-width="0.3" x1="58.666819895761336" x2="56.23545636021788" y1="174.27360380694188" y2="178.64263932499728" /><path d="M 58.180547188652646 175.14741091055294 a86.0,86.0 0 0,1 -31.652253787137756,-30.449443065178592" fill="none" id="id80" stroke="none" /><text fill="#e1ed5e" style="font-size:6.75px; font-family:Arial;" text-anchor="middle"><textPath startOffset="22.20632615414155" xlink:href="#id80">August</textPath></text><line stroke="#e1ed5e" stroke-width="0.3" x1="26.63291911575756" x2="22.317208475507996" y1="142.92168965132927" y2="145.44649492493687" /><path d="M 25.769776987707644 143.4266507060508 a86.0,86.0 0 0,1 -11.730757126820373,-40.83630448921669" fill="none" id="id81" stroke="none" /><text fill="#e1ed5e" style="font-size:6.75px; font-family:Arial;" text-anchor="middle"><textPath startOffset="21.46611528233685" xlink:href="#id81">September</textPath></text><line stroke="#e1ed5e" stroke-width="0.3" x1="15.007084014347285" x2="10.007500721073583" y1="101.09737516637583" y2="101.16192664675087" /><path d="M 14.007167355692545 101.11028546245083 a86.0,86.0 0 0,1 10.666146001902534,-42.60595125391555" fill="none" id="id82" stroke="none" /><text fill="#e1ed5e" style="font-size:6.75px; font-family:Arial;" text-anchor="middle"><textPath startOffset="22.20632615414155" xlink:href="#id82">October</textPath></text><line stroke="#e1ed5e" stroke-width="0.3" x1="26.266209847984243" x2="21.928928074336255" y1="57.711370442889674" y2="55.22380399835377" /><path d="M 25.398753493254645 57.213857153982495 a86.0,86.0 0 0,1 29.58750427330803,-30.492523968695096" fill="none" id="id83" stroke="none" /><text fill="#e1ed5e" style="font-size:6.75px; font-family:Arial;" text-anchor="middle"><textPath startOffset="21.46611528233685" xlink:href="#id83">November</textPath></text><line stroke="#e1ed5e" stroke-width="0.3" x1="56.762969772571076" x2="54.21961505331055" y1="26.818313649435495" y2="22.513508569990535" /><path d="M 56.25429882871897 25.957352633546506 a86.0,86.0 0 0,1 42.265352541879196,-11.944610805530505" fill="none" id="id84" stroke="none" /><text fill="#e1ed5e" style="font-size:6.75px; font-family:Arial;" text-anchor="middle"><textPath startOffset="22.20632615414155" xlink:href="#id84">December</textPath></text></svg>