<?xml version="1.0" encoding="utf-8" ?>
<svg baseProfile="full" height="200mm" version="1.1" viewBox="0,0,200,200" width="200mm" xmlns="http://www.w3.org/2000/svg" xmlns:ev="http://www.w3.org/2001/xml-events" xmlns:xlink="http://www.w3.org/1999/xlink"><defs /><rect fill="#1a1a1a" height="200" width="200" x="0" y="0" /><text alignment-baseline="middle" fill="#e1ed5e" style="dominant-baseline: central; font-size:9.0px; font-family:Arial;" text-anchor="middle" x="100.0" y="100.0">2020</text><line stroke="#e1ed5e" stroke-width="0.3" x1="100.0" x2="100.0" y1="15.0" y2="10.0" /><path d="M 100.0 14.0 a86.0,86.0 0 0,1 42.35913384403234,11.155469271406648" fill="none" id="id61" stroke="none" /><text fill="#e1ed5e" style="font-size:6.75px; font-family:Arial;" text-anchor="middle"><textPath startOffset="22.145653131862478" xlink:href="#id61">January</textPath></text><path d="M 100.0 79.0 l 0.0 -23.142736764875657 a44.14273676487566,44.14273676487566 0 0,0 0.7577687755811,0.0065045335686974666 l -0.3972758507322452 23.139326629501394" fill="#f7ff18" stroke="none" /><path d="M 101.44090949804482 79.04949213459386 l 1.4211735548531552 -20.66355158284354 a41.71236583034033,41.71236583034033 0 0,0 0.7139389324144013,0.05526338863425196 l -1.7756814820427902 20.636110427214234" fill="#ffe715" stroke="none" /><path d="M 102.15924093988457 79.11130261209362 l 1.5893664666109377 -15.375678807431612 a36.45760604215572,36.45760604215572 0 0,0 0.6219738742136317,0.06969346991899074 l -1.8530762424253662 15.34612957700565" fill="#ffa00e" stroke="none" /><path d="M 102.51750503828377 79.15144685158666 l 2.859479871431786 -23.68059533934639 a44.85261454769681,44.85261454769681 0 0,0 0.7636097355707299,0.09886456826913032 l -3.2655674288933074 23.62801917487686" fill="#eeff19" stroke="none" /><path d="M 103.58742460773223 79.30868818359171 l 3.3739004600888767 -19.45976127463558 a40.75007628290064,40.75007628290064 0 0,0 0.6882207934614212,0.125416754409524 l -3.7074559871013517 19.39897634629469" fill="#ffdb14" stroke="none" /><path d="M 103.94208987418118 79.37332000966035 l 1.5648699396155812 -8.188060775163663 a29.3362555854344,29.3362555854344 0 0,0 0.49383187861015027,0.09878020629041118 l -1.7051983037566885 8.159991172210393" fill="#ff3a05" stroke="none" /><path d="M 105.3480935250658 79.69241777938227 l 2.044376694843163 -7.762831301633124 a29.027516794627893,29.027516794627893 0 0,0 0.48077667742153096,0.13103782135015912 l -2.177334773199387 7.726592986138823" fill="#ff3505" stroke="none" /><path d="M 106.38641147887787 79.99465700312896 l 8.049623507518284 -25.215330987704235 a47.46902634084353,47.46902634084353 0 0,0 0.774145818463776,0.25447710701882537 l -8.481292063629802 25.073432959283387" fill="#cdff1d" stroke="none" /><path d="M 108.4095320186766 80.7573450057729 l 3.226453147310084 -7.382756214120047 a29.056990084945824,29.056990084945824 0 0,0 0.4553459995386892,0.20367047382636325 l -3.3527125497044046 7.326281989383831" fill="#ff3505" stroke="none" /><path d="M 108.73861861582097 80.90454125486305 l 2.445060179303863 -5.342897754885914 a26.875787240836956,26.875787240836956 0 0,0 0.41786894560578425,0.1955837659834893 l -2.5364178387811522 5.300137757331891" fill="#ff1402" stroke="none" /><line stroke="#e1ed5e" stroke-width="0.3" x1="143.13028292997686" x2="145.6673583964461" y1="26.7553504044142" y2="22.446841604673864" /><path d="M 143.63769802327073 25.89364864446614 a86.0,86.0 0 0,1 29.32050498858742,28.57503671076993" fill="none" id="id62" stroke="none" /><text fill="#e1ed5e" style="font-size:6.75px; font-family:Arial;" text-anchor="middle"><textPath startOffset="20.669276256404974" xlink:href="#id62">February</textPath></text><path d="M 110.65571695917076 81.90426304109057 l 5.790796201137252 -9.834037938502687 a32.41234519364954,32.41234519364954 0 0,0 0.4770282944052457,0.28644178465419934 l -5.9587572520999315 9.733182153312567" fill="#ff6709" stroke="none" /><path d="M 111.5731344415666 82.4767994020092 l 5.990601880571766 -9.070534779145797 a31.8702305436087,31.8702305436087 0 0,0 0.4539287740379855,0.30542353737028655 l -6.145426942706751 8.966361567718392" fill="#ff5f08" stroke="none" /><path d="M 113.03279911837588 83.53348406188908 l 5.2916091733417865 -6.685775327284027 a29.526471683546177,29.526471683546177 0 0,0 0.394739722822992,0.3179743785473612 l -5.405599666520038 6.593952654943258" fill="#ff3c05" stroke="none" /><path d="M 115.16444852881244 85.47280134310134 l 5.878198750986949 -5.6311814332102434 a29.14023494070265,29.14023494070265 0 0,0 0.34294471757854583,0.3641954056862494 l -5.973999302301755 5.529444567579499" fill="#ff3705" stroke="none" /><path d="M 116.35404254752997 86.82634096563983 l 8.670465436905845 -6.984313205926797 a32.133624829814515,32.133624829814515 0 0,0 0.3423509799809247,0.4325492794817455 l -8.789082847528329 6.834443982530373" fill="#ff6309" stroke="none" /><path d="M 117.21940702142032 87.97951657250589 l 8.996735490339686 -6.280420093946772 a31.972006472819274,31.972006472819274 0 0,0 0.31029633589368705,0.4527316273872391 l -9.103221563048699 6.1250537314894835" fill="#ff6008" stroke="none" /><line stroke="#e1ed5e" stroke-width="0.3" x1="172.87174338648825" x2="177.1583165268699" y1="56.24261187166439" y2="53.66864786411523" /><path d="M 173.72905801456457 55.72781907015455 a86.0,86.0 0 0,1 12.242430191666344,42.057860355516425" fill="none" id="id63" stroke="none" /><text fill="#e1ed5e" style="font-size:6.75px; font-family:Arial;" text-anchor="middle"><textPath startOffset="22.145653131862474" xlink:href="#id63">March</textPath></text><path d="M 118.00360718960297 89.18935116829356 l 6.933694789241606 -4.163484499706907 a29.087689819080346,29.087689819080346 0 0,0 0.253376341880976,0.4302884218731772 l -7.00414484125235 4.043844909540174" fill="#ff3605" stroke="none" /><path d="M 118.70294669586156 90.45014215332178 l 14.47396473084122 -7.390509522649344 a37.25162410450125,37.25162410450125 0 0,0 0.28591523838891725,0.5720220038030577 l -14.598699882441874 7.140955662682536" fill="#ffab0f" stroke="none" /><path d="M 119.0197475246899 91.09779779509293 l 7.648530572162686 -3.57989850472087 a29.444861941879807,29.444861941879807 0 0,0 0.21034222483239187,0.4596357219864633 l -7.708857261850129 3.4480738005197225" fill="#ff3b05" stroke="none" /><path d="M 119.31412917781788 91.75594674310238 l 10.257020264462483 -4.378112030772918 a32.152323957794295,32.152323957794295 0 0,0 0.21231887481126294,0.5094880075745852 l -10.330664983810228 4.201391513757056" fill="#ff6309" stroke="none" /><path d="M 119.94978838288452 93.4421083053983 l 8.061348229813301 -2.649925281861105 a29.485719726797527,29.485719726797527 0 0,0 0.15393691727426578,0.48220520086090507 l -8.105649862864823 2.5111510473088132" fill="#ff3c05" stroke="none" /><path d="M 120.05942366710727 93.78553927170692 l 8.166982093637767 -2.5301519291807115 a29.549927795165104,29.549927795165104 0 0,0 0.14595367878769636,0.4858323278228473 l -8.209212092429091 2.3895819977671406" fill="#ff3d05" stroke="none" /><path d="M 120.26092885502905 94.47779374421319 l 15.333367881409517 -4.179177600536458 a36.89269316395011,36.89269316395011 0 0,0 0.16129225304257325,0.6124529563402566 l -15.402849615256821 3.9153441398234032" fill="#ffa60f" stroke="none" /><path d="M 120.43855184770803 95.1765574152323 l 10.030537397036618 -2.367179513963311 a31.306076815387982,31.306076815387982 0 0,0 0.11894689986234866,0.524101987969423 l -10.069695158456632 2.194643192054862" fill="#ff5708" stroke="none" /><path d="M 120.592083275326 95.88100663000786 l 14.708545110234228 -2.9421209588773825 a35.99991249962682,35.99991249962682 0 0,0 0.11601178839846053,0.6070226988163321 l -14.756883190914845 2.689195695027736" fill="#ff9a0e" stroke="none" /><path d="M 120.65975698304385 96.23510406497455 l 22.439319591046434 -4.089191522552984 a43.80887000746068,43.80887000746068 0 0,0 0.128475107374688,0.7410102784060059 l -22.50620951591336 3.703388211226385" fill="#fbff18" stroke="none" /><path d="M 120.77682067341334 96.94652285012252 l 18.257354271482566 -2.6832023513841796 a39.45347013038188,39.45347013038188 0 0,0 0.0927259567552133,0.6709188316970506 l -18.30072474479299 2.3693952114870434" fill="#ffc912" stroke="none" /><path d="M 120.86939407059847 97.66154086499901 l 10.075480104390767 -1.1289785611373813 a31.138534998977022,31.138534998977022 0 0,0 0.054963380668475476,0.5317208492079917 l -10.093375877540907 0.9558531896464582" fill="#ff5407" stroke="none" /><path d="M 120.93736805541906 98.37931529534042 l 17.849268692060786 -1.381646283430297 a38.90266291069287,38.90266291069287 0 0,0 0.04582370383529724,0.6662665968446658 l -17.870356357061148 1.075036262431297" fill="#ffc212" stroke="none" /><path d="M 120.96210409425399 98.7389718711861 l 27.874812026056123 -1.6768794722230398 a48.925204927669306,48.925204927669306 0 0,0 0.04323685899852384,0.8387835137516534 l -27.899490474511218 1.198124165094656" fill="#bcff1f" stroke="none" /><path d="M 120.99303781780057 99.45929381324524 l 8.183106271391189 -0.21076779007472274 a29.18582013668849,29.18582013668849 0 0,0 0.008600878298329864,0.5009580418210234 l -8.185518581288184 0.07026283228463293" fill="#ff3705" stroke="none" /><line stroke="#e1ed5e" stroke-width="0.3" x1="184.99686870605535" x2="189.99668451229388" y1="99.2704041080226" y2="99.22748670261217" /><path d="M 185.99683186730306 99.26182062694052 a86.0,86.0 0 0,1 -10.086455211305974,41.156179273409016" fill="none" id="id64" stroke="none" /><text fill="#e1ed5e" style="font-size:6.75px; font-family:Arial;" text-anchor="middle"><textPath startOffset="21.40746469413373" xlink:href="#id64">April</textPath></text><path d="M 120.99922638620191 100.18025310272382 l 10.089540141340244 0.08660656740803416 a31.089911841103188,31.089911841103188 0 0,0 -0.00916200219143036,0.5336406954940639 l -10.086566707550146 -0.25979417887116907" fill="#ff5407" stroke="none" /><path d="M 120.98066250479742 100.90099992219065 l 16.62876503445423 0.7141107197517652 a37.644091464875814,37.644091464875814 0 0,0 -0.033267357330452094,0.6453778447648362 l -16.614056087667205 -0.999460357893332" fill="#ffb110" stroke="none" /><path d="M 120.96210409425399 101.26102812881392 l 21.038682137742587 1.2656348737501297 a42.076716483518524,42.076716483518524 0 0,0 -0.04956244252299134,0.7206270368233698 l -21.01385573405453 -1.626605334727843" fill="#ffec16" stroke="none" /><path d="M 120.9064616781168 101.97986365728391 l 29.381037309795488 2.7824147805869472 a50.51249202305395,50.51249202305395 0 0,0 -0.0891608204325494,0.862550057508888 l -29.328944096881273 -3.2863693603787665" fill="#a9ff21" stroke="none" /><path d="M 120.82617615685814 102.69636545807757 l 9.137747992235353 1.1830644216829733 a30.214015400217935,30.214015400217935 0 0,0 -0.07101082556600381,0.5137989597924053 l -9.116092650114139 -1.3397516896754638" fill="#ff4706" stroke="none" /><path d="M 120.7213421655516 103.40968896794604 l 10.078119524248509 1.6583507325408302 a31.213648725952822,31.213648725952822 0 0,0 -0.09153801207243296,0.5279669283537073 l -10.048166694683841 -1.8311106938151256" fill="#ff5507" stroke="none" /><path d="M 120.65975698304385 103.76489593502545 l 29.159788253250913 5.313884783396546 a50.64001724806589,50.64001724806589 0 0,0 -0.1631903679081917,0.8538809625813734 l -29.064271593060564 -5.8136683110112335" fill="#a7ff21" stroke="none" /><path d="M 120.51834098615036 104.47187691870673 l 27.840693505245515 6.0677495695647 a49.49424151810278,49.49424151810278 0 0,0 -0.18805251850411017,0.8285940945473793 l -27.73243012518374 -6.544777998051097" fill="#b5ff20" stroke="none" /><path d="M 120.35273937422433 105.17358676015961 l 9.746241837477378 2.4774565627045138 a31.05619316514366,31.05619316514366 0 0,0 -0.1357754866057346,0.5155616379682466 l -9.702276870066914 -2.644398705045564" fill="#ff5307" stroke="none" /><path d="M 120.16314734710363 105.8691983318838 l 11.732697506242081 3.41521724990146 a33.21965218969033,33.21965218969033 0 0,0 -0.1640792653959125,0.546166510614055 l -11.67234192084254 -3.6161213641062386" fill="#ff730a" stroke="none" /><path d="M 120.05942366710727 106.21446072829308 l 26.059661978231016 8.073349894985437 a48.281586481480886,48.281586481480886 0 0,0 -0.25206502174391465,0.7895900904880007 l -25.917232240709847 -8.519509019164822" fill="#c3ff1e" stroke="none" /><path d="M 119.83427380445688 106.89939002012753 l 17.05800734279689 5.933660429640199 a39.060563130788324,39.060563130788324 0 0,0 -0.2257325380733472,0.631414084141849 l -16.953634634679602 -6.225609470162969" fill="#ffc412" stroke="none" /><path d="M 119.58574465831526 107.57618678355244 l 11.007630880675439 4.257988095489172 a32.802474326450664,32.802474326450664 0 0,0 -0.20765735244514458,0.5234321799843712 l -10.932914853264169 -4.446321292687108" fill="#ff6c0a" stroke="none" /><path d="M 119.31412917781788 108.2440532568976 l 12.300008369420185 5.250142169197336 a34.37363819925568,34.37363819925568 0 0,0 -0.23630422417999436,0.5407103093817182 l -12.208070263223226 -5.460514548354898" fill="#ff830c" stroke="none" /><path d="M 119.16976305983485 108.57439118712176 l 28.413245911864863 12.70888349447948 a52.12600621545203,52.12600621545203 0 0,0 -0.3723671770180814,0.8136894833605135 l -28.190894269991727 -13.194761960054683" fill="#96ff23" stroke="none" /><path d="M 118.8641267826498 109.22738970284198 l 27.236517336977265 13.322745468804468 a51.320346691190935,51.320346691190935 0 0,0 -0.3938960920804829,0.7880560446924472 l -27.00380133168505 -13.788333369660661" fill="#9fff22" stroke="none" /><path d="M 118.5362547648365 109.86951160357373 l 9.396860774279943 5.003299082016081 a31.64584398323139,31.64584398323139 0 0,0 -0.25942758128860616,0.4773175296335881 l -9.309587843375997 -5.163871445124272" fill="#ff5c08" stroke="none" /><line stroke="#e1ed5e" stroke-width="0.3" x1="174.33088141563837" x2="178.70328620479359" y1="141.23008692659167" y2="143.65538615756765" /><path d="M 175.20536237346943 141.71514677278685 a86.0,86.0 0 0,1 -30.301960400862466,31.631185727798858" fill="none" id="id65" stroke="none" /><text fill="#e1ed5e" style="font-size:6.75px; font-family:Arial;" text-anchor="middle"><textPath startOffset="22.145653131862474" xlink:href="#id65">May</textPath></text><path d="M 118.18653347947321 110.5 l 11.167698871772537 6.447673949846551 a33.89534789969311,33.89534789969311 0 0,0 -0.29525477310246234,0.5014071535868264 l -11.05537038854031 -6.638432271726926" fill="#ff7c0b" stroke="none" /><path d="M 118.00360718960297 110.81064883170644 l 12.959494851159164 7.781804301590023 a36.11638134559544,36.11638134559544 0 0,0 -0.3237266655802991,0.5287831792220012 l -12.82400022112346 -8.003124596936582" fill="#ff9c0e" stroke="none" /><path d="M 117.62189284568427 111.42229804090321 l 15.699723029801577 10.176370789244931 a39.70935128893248,39.70935128893248 0 0,0 -0.37567988797250595,0.568827232657792 l -15.522718702908344 -10.444377900241784" fill="#ffcd13" stroke="none" /><path d="M 117.21940702142032 112.02048342749411 l 6.457535413724667 4.507861236253598 a28.875314377523353,28.875314377523353 0 0,0 -0.28721986660311316,0.4040107119066116 l -6.379200448591593 -4.618049174869714" fill="#ff3304" stroke="none" /><path d="M 116.79662413953412 112.60449989151573 l 6.100094208732318 4.57762441747029 a28.626650291106166,28.626650291106166 0 0,0 -0.2983278957704005,0.3905207920175652 l -6.020614335607613 -4.681666122728733" fill="#ff2f04" stroke="none" /><path d="M 116.57777611688842 112.89097897827486 l 12.198410154885824 9.485557517863427 a36.452411194746176,36.452411194746176 0 0,0 -0.38836324134866945,0.49068426861789954 l -12.033780482895594 -9.69356173039601" fill="#ffa00e" stroke="none" /><path d="M 116.1254893667686 113.45245675266167 l 8.402477517533502 7.0096455895950545 a31.94242933376247,31.94242933376247 0 0,0 -0.35487344849317154,0.41804003000836204 l -8.280909505533215 -7.152852402052973" fill="#ff6008" stroke="none" /><path d="M 115.6541949942343 113.99807769240083 l 8.821339144495555 7.8880958580844185 a32.83376865451316,32.83376865451316 0 0,0 -0.37931179836241474,0.4169301120471905 l -8.684629645291261 -8.03836354568928" fill="#ff6d0a" stroke="none" /><path d="M 115.41159269507618 114.26474011684316 l 7.8353209490435525 7.252256095885011 a31.676491598592772,31.676491598592772 0 0,0 -0.3727933383949798,0.3958936066212886 l -7.709671776912312 -7.385691162450796" fill="#ff5c08" stroke="none" /><path d="M 115.16444852881244 114.52719865689866 l 11.831821263633758 11.334617123936113 a37.384918057799425,37.384918057799425 0 0,0 -0.44793042005894607,0.459616071496709 l -11.635504042424005 -11.53605588750056" fill="#ffad10" stroke="none" /><path d="M 114.91283532996324 114.78537596483092 l 20.719073643186 20.54198860776122 a50.17624562196371,50.17624562196371 0 0,0 -0.6116916331793423,0.6064635309776659 l -20.36339008987669 -20.89463214896755" fill="#adff20" stroke="none" /><path d="M 114.39649973595853 115.28858382429668 l 7.1735794844473775 7.618092819763217 a31.464013609997465,31.464013609997465 0 0,0 -0.39640196553226076,0.36690374135893633 l -7.04174774760115 -7.740114307254533" fill="#ff5908" stroke="none" /><path d="M 114.13192950727249 115.5334660781643 l 7.305144813062328 8.029633822570803 a31.855420768647544,31.855420768647544 0 0,0 -0.40765074503773846,0.36452380991198086 l -7.166229041201212 -8.15385316236617" fill="#ff5f08" stroke="none" /><path d="M 113.86319453409587 115.77377054828091 l 8.992603971983604 10.231932570574717 a34.62201785073427,34.62201785073427 0 0,0 -0.4497903296046202,0.3885181739255626 l -8.815634162616128 -10.384794876964996" fill="#ff870c" stroke="none" /><path d="M 113.31354834802062 116.24036423190432 l 10.683468255732128 13.03209416435347 a37.85146795622897,37.85146795622897 0 0,0 -0.5060366890301966,0.4076273362250235 l -10.45818079634668 -13.213569794371898" fill="#ffb410" stroke="none" /><path d="M 112.45986205192187 116.90419585922612 l 6.0110557271854566 8.155151550605863 a31.131104962869465,31.131104962869465 0 0,0 -0.4328987531999569,0.3133853131168751 l -5.870175963611532 -8.257137635095816" fill="#ff5407" stroke="none" /><path d="M 112.16784306229584 117.11559508785304 l 7.360033295251879 10.35280855199323 a33.70239091751787,33.70239091751787 0 0,0 -0.4744091521142486,0.3311744326472468 l -7.181229051963872 -10.4776278004456" fill="#ff790b" stroke="none" /><path d="M 111.8722381534696 117.32195027204791 l 8.54240330121315 12.463621709285574 a36.1100800882309,36.1100800882309 0 0,0 -0.5143170948335406,0.34605549464666324 l -8.327189918282608 -12.608426877989357" fill="#ff9b0e" stroke="none" /><path d="M 111.27062007382361 117.71928675628689 l 10.076015920285625 15.841170608449278 a39.774151993414954,39.774151993414954 0 0,0 -0.5792553536455409,0.3614981822155387 l -9.802596437850369 -16.011804587506365" fill="#ffce13" stroke="none" /><path d="M 110.96478420261333 117.91015095944535 l 4.118629289350555 6.727471417146587 a28.88809095355908,28.88809095355908 0 0,0 -0.425160125682598,0.2552964396297815 l -4.002536407110521 -6.7971818573122915" fill="#ff3304" stroke="none" /><line stroke="#e1ed5e" stroke-width="0.3" x1="143.1302829299769" x2="145.66735839644613" y1="173.24464959558577" y2="177.55315839532614" /><path d="M 143.63769802327073 174.10635135553383 a86.0,86.0 0 0,1 -40.68552437913181,11.842963189579606" fill="none" id="id66" stroke="none" /><text fill="#e1ed5e" style="font-size:6.75px; font-family:Arial;" text-anchor="middle"><textPath startOffset="21.407464694133747" xlink:href="#id66">June</textPath></text><path d="M 110.34350942703117 118.27599006163325 l 3.8465514919827135 6.796487916888217 a28.80949463056874,28.80949463056874 0 0,0 -0.4324933627891708,0.23989677780438362 l -3.7293139410374487 -6.861517610125744" fill="#ff3204" stroke="none" /><path d="M 109.71004243097381 118.62028667847754 l 4.428473122453425 8.492181128372843 a30.57750043139567,30.57750043139567 0 0,0 -0.46750490555058777,0.23871133587846377 l -4.282040995189255 -8.566950415924143" fill="#ff4c07" stroke="none" /><path d="M 109.06512990194946 118.94263497670748 l 5.271417362428269 11.015234859997216 a33.21160268063976,33.21160268063976 0 0,0 -0.5163791955068676,0.24169153701131127 l -5.081549453049895 -11.10410262857906" fill="#ff720a" stroke="none" /><path d="M 108.73861861582097 119.09545874513695 l 12.643349453735663 27.628000317699808 a51.38355948476246,51.38355948476246 0 0,0 -0.805220987619331,0.36016510576464855 l -12.167215063260704 -27.840969174374308" fill="#9eff22" stroke="none" /><path d="M 108.07796709384702 119.3841803445677 l 10.558395984316043 25.336306713261457 a48.44828161525014,48.44828161525014 0 0,0 -0.7704327384953317,0.31332828762791454 l -10.12190878463027 -25.51382225746866" fill="#c1ff1e" stroke="none" /><path d="M 107.74402155503746 119.51999308798841 l 4.159364728881408 10.484316214922396 a32.27923762682334,32.27923762682334 0 0,0 -0.5168178588428832,0.19991625031254348 l -3.9787746075449952 -10.55417235337298" fill="#ff6509" stroke="none" /><path d="M 107.407793817531 119.65005319985036 l 11.472326983620448 30.431710318492193 a53.52235045822688,53.52235045822688 0 0,0 -0.8625020963825563,0.3167227166905476 l -10.948235735583765 -30.624163884191464" fill="#86ff25" stroke="none" /><path d="M 106.72888874123015 119.89276391827305 l 6.676514597779925 19.737929069437893 a41.836547005790806,41.836547005790806 0 0,0 -0.6822888611816722,0.2242819006491924 l -6.336702998950519 -19.849631891489103" fill="#ffe915" stroke="none" /><path d="M 106.0420521117495 120.11202640906438 l 2.72440234190028 9.06864933234574 a30.469042656657884,30.469042656657884 0 0,0 -0.5022168594247549,0.14618800839161109 l -2.5683254700939186 -9.11408103503987" fill="#ff4a06" stroke="none" /><path d="M 105.69591212413111 120.21278271476187 l 7.860699110626191 27.89484803251712 a49.981254929092074,49.981254929092074 0 0,0 -0.8278290509029843,0.22562848901588536 l -7.380688658788512 -28.025677015677147" fill="#afff20" stroke="none" /><path d="M 104.9986988182912 120.39639698878246 l 3.223960659958003 13.15485967190148 a34.54415945433222,34.54415945433222 0 0,0 -0.5771635632670351,0.13620902939611515 l -2.9976649429510887 -13.208264844943821" fill="#ff850c" stroke="none" /><path d="M 104.64783097203109 120.47920084513623 l 1.612671686756897 7.105729009746413 a28.286432235958767,28.286432235958767 0 0,0 -0.47445450158384234,0.10340515035018703 l -1.490454768553919 -7.132365618230319" fill="#ff2a04" stroke="none" /><path d="M 104.29559338865022 120.5559693870025 l 6.1345542660590135 29.35606289673499 a50.990184808371616,50.990184808371616 0 0,0 -0.8583433111040613,0.17169270152724533 l -5.629714469423994 -29.4570449949251" fill="#a3ff22" stroke="none" /><path d="M 103.94208987418118 120.62667999033965 l 1.525893207116329 7.984118040728123 a29.128621713907226,29.128621713907226 0 0,0 -0.49194811340254135,0.08964933391582651 l -1.3886103601627304 -8.009135548575314" fill="#ff3605" stroke="none" /><path d="M 103.2317021107853 120.74984581791261 l 6.485979831196235 41.64464324427137 a63.14669910340929,63.14669910340929 0 0,0 -1.0725162968538937,0.1576229615104352 l -5.770138428734655 -41.74984727908069" fill="#32ff44" stroke="none" /><path d="M 102.875027216393 120.80226474461374 l 1.0008874708909545 7.241923147830996 a28.310761014318338,28.310761014318338 0 0,0 -0.48198690198899113,0.06240285417642336 l -0.8764227470111882 -7.258037598207814" fill="#ff2a04" stroke="none" /><path d="M 102.51750503828377 120.84855314841334 l 2.887880642469668 23.91579446524089 a45.089522193451614,45.089522193451614 0 0,0 -0.7692360483756044,0.08619450369334164 l -2.4769086924932644 -23.961844729441204" fill="#ebff1a" stroke="none" /><path d="M 101.80034050326958 120.92268563240118 l 2.1341758724100983 24.802358654709334 a45.89400934946423,45.89400934946423 0 0,0 -0.7855109482986977,0.06080351531676095 l -1.7080959293361648 -24.835339937021146" fill="#e1ff1b" stroke="none" /><path d="M 101.44090949804482 120.95050786540614 l 0.9984033816071832 14.516566049145993 a35.55085905270279,35.55085905270279 0 0,0 -0.6091989246027514,0.0366478945297223 l -0.7490601048719667 -14.531565921500407" fill="#ff940d" stroke="none" /><path d="M 100.72087961077811 120.9876233191556 l 0.8079872405379945 23.523666916853685 a44.53753913636574,44.53753913636574 0 0,0 -0.7643207680380664,0.019686191752246427 l -0.4040531584291844 -23.534070825955975" fill="#f2ff19" stroke="none" /><line stroke="#e1ed5e" stroke-width="0.3" x1="101.45913802915013" x2="101.54496967792366" y1="184.9874750549273" y2="189.98673829345242" /><path d="M 101.47630435890484 185.9873277026323 a86.0,86.0 0 0,1 -42.54439059252881,-10.42667462771756" fill="none" id="id67" stroke="none" /><text fill="#e1ed5e" style="font-size:6.75px; font-family:Arial;" text-anchor="middle"><textPath startOffset="22.145653131862474" xlink:href="#id67">July</textPath></text><path d="M 100.0 121.0 l 2.3155768722019406e-15 18.90812007032669 a39.90812007032669,39.90812007032669 0 0,0 -0.6850759490176784,-0.005880553080424311 l 0.324583024168824 -18.9053339154407" fill="#ffcf13" stroke="none" /><path d="M 99.27912038922189 120.98762331915562 l -1.0440226429812247 30.39558012177408 a51.413504799977346,51.413504799977346 0 0,0 -0.8818009517227128,-0.037868327022951564 l 1.5656493553047761 -30.373179226325302" fill="#9eff22" stroke="none" /><path d="M 98.55909050195518 120.95050786540614 l -0.5328335011675546 7.747282166097222 a28.765583848049967,28.765583848049967 0 0,0 -0.49234489135151577,-0.03811060839732226 l 0.6657473872943064 -7.7369937907048465" fill="#ff3104" stroke="none" /><path d="M 98.19965949673042 120.92268563240118 l -2.6668997463199307 30.993417580755853 a52.10794573082619,52.10794573082619 0 0,0 -0.8905506892334976,-0.08433607617247332 l 3.1985499989384434 -30.943069749078195" fill="#96ff23" stroke="none" /><path d="M 97.84075906011543 120.88869738790638 l -0.913639938857824 8.838637621110784 a29.885733111859203,29.885733111859203 0 0,0 -0.5098564394437798,-0.05713047749843938 l 1.065232279902403 -8.821651383105374" fill="#ff4206" stroke="none" /><path d="M 97.12497278360702 120.80226474461374 l -4.0508423384794705 29.30987723638373 a50.588481327420354,50.588481327420354 0 0,0 -0.8592210111869171,-0.12627589974394776 l 4.553388455274073 -29.2360202633409" fill="#a8ff21" stroke="none" /><path d="M 96.76829788921471 120.74984581791261 l -2.0639976675524565 13.252345637710338 a34.41211211081246,34.41211211081246 0 0,0 -0.582912497394101,-0.09591802962197739 l 2.291187667999621 -13.214961609592692" fill="#ff840c" stroke="none" /><path d="M 96.41257539226777 120.69131181640829 l -3.4247225212982126 19.752889418253826 a41.04757752741341,41.04757752741341 0 0,0 -0.6932452390877959,-0.12633237577574072 l 3.763302493937066 -19.691188868546718" fill="#ffdf14" stroke="none" /><path d="M 95.70440661134978 120.55596938700252 l -4.918013722135658 23.53447600142746 a45.04284549783739,45.04284549783739 0 0,0 -0.7555134784169454,-0.16466064620843654 l 5.32128961717174 -23.446583897085304" fill="#ecff1a" stroke="none" /><path d="M 95.35216902796893 120.47920084513623 l -1.7631311892711448 7.768681339465514 a28.96624386676308,28.96624386676308 0 0,0 -0.48396779046554017,-0.11421508077389497 l 1.896231133476573 -7.737270115045392" fill="#ff3404" stroke="none" /><path d="M 95.00130118170881 120.39639698878247 l -8.37902105781177 34.189265263819166 a56.20104903503651,56.20104903503651 0 0,0 -0.9350642403820332,-0.23768967336484684 l 8.964690591419181 -34.04039035861906" fill="#68ff28" stroke="none" /><path d="M 94.30408787586889 120.21278271476187 l -8.23478926085052 29.222362003489824 a51.36047093234268,51.36047093234268 0 0,0 -0.8465672748855209,-0.2464233957155173 l 8.735216548117648 -29.07669491347179" fill="#9fff22" stroke="none" /><path d="M 93.95794788825049 120.11202640906438 l -2.2240714212089765 7.403210421177305 a28.730072329989337,28.730072329989337 0 0,0 -0.4711175964336818,-0.14595343565357333 l 2.350829650514292 -7.363940397717083" fill="#ff3004" stroke="none" /><path d="M 93.27111125876986 119.89276391827306 l -7.590216358368385 22.43912597045459 a44.688093183808036,44.688093183808036 0 0,0 -0.7245732279714686,-0.252044181057672 l 7.974295358384875 -22.305523356828328" fill="#f0ff19" stroke="none" /><path d="M 92.93061703081489 119.77432235084164 l -1.8506121667266382 5.176491596332393 a26.497347600301126,26.497347600301126 0 0,0 -0.4269995181111239,-0.15680013761001252 l 1.939200836491881 -5.143960609713661" fill="#ff0e01" stroke="none" /><path d="M 92.59220618246901 119.65005319985036 l -12.286494998837275 32.59138770783396 a55.83039638130471,55.83039638130471 0 0,0 -0.8938918028274091,-0.3457765523166679 l 12.844159064158212 -32.37567126737925" fill="#6cff28" stroke="none" /><path d="M 91.92203290615298 119.3841803445677 l -4.13793783761849 9.92954444690714 a31.75724790413883,31.75724790413883 0 0,0 -0.5014090244823701,-0.21402169692792425 l 4.307781937271291 -9.857048100319814" fill="#ff5d08" stroke="none" /><path d="M 91.59046798132341 119.24265499422711 l -7.256151424774229 16.603494480156957 a39.119816843772334,39.119816843772334 0 0,0 -0.6130384479060879,-0.27420430021413167 l 7.5401032755359525 -16.47648642903297" fill="#ffc512" stroke="none" /><path d="M 90.93487009805054 118.94263497670748 l -4.779187483488725 9.986663728393731 a32.071318143127776,32.071318143127776 0 0,0 -0.49456988920511286,-0.2419189160234202 l 4.949917621955907 -9.903151062273091" fill="#ff6209" stroke="none" /><path d="M 90.6110303473126 118.78422872680471 l -3.689648040245965 7.381767677729068 a29.252514568836368,29.252514568836368 0 0,0 -0.447246958308581,-0.22836748367310636 l 3.815822220268128 -7.317342242383126" fill="#ff3805" stroke="none" /><path d="M 90.28995756902619 118.62028667847754 l -17.73685354104531 34.01275535675606 a59.359659806820886,59.359659806820886 0 0,0 -0.8994717924588238,-0.4789180665341351 l 18.318114149290697 -33.70326682249935" fill="#46ff2d" stroke="none" /><line stroke="#e1ed5e" stroke-width="0.3" x1="58.13341422392154" x2="55.67067388415222" y1="173.97424548756322" y2="178.32567169271397" /><path d="M 57.64086615596768 174.84453072859336 a86.0,86.0 0 0,1 -31.369924170532247,-30.572349798747897" fill="none" id="id68" stroke="none" /><text fill="#e1ed5e" style="font-size:6.75px; font-family:Arial;" text-anchor="middle"><textPath startOffset="22.145653131862474" xlink:href="#id68">August</textPath></text><path d="M 89.03521579738668 117.91015095944536 l -6.940533646530792 11.336840110254922 a34.29266530775942,34.29266530775942 0 0,0 -0.49942510335816204,-0.31167820181642875 l 7.134122878678667 -11.216026111596944" fill="#ff820c" stroke="none" /><path d="M 88.72937992617639 117.7192867562869 l -17.794328212966953 27.97563951014097 a54.15530911561755,54.15530911561755 0 0,0 -0.780131385573202,-0.5056717388485475 l 18.271945230797165 -27.66605392958853" fill="#7eff26" stroke="none" /><path d="M 88.1277618465304 117.32195027204791 l -21.00549611927602 30.64764659488067 a58.15520298722133,58.15520298722133 0 0,0 -0.8186173084194631,-0.5714584583008652 l 21.528508518869252 -30.282543320774675" fill="#52ff2b" stroke="none" /><path d="M 87.54013794807813 116.9041958592261 l -15.34868188130652 20.823434771698818 a46.8688513696442,46.8688513696442 0 0,0 -0.6435472955058305,-0.48292988811342474 l 15.703882165723117 -20.556885856321376" fill="#d5ff1c" stroke="none" /><path d="M 87.2517909369889 116.68781488649013 l -6.998367811014823 9.161088115243183 a32.52834278955559,32.52834278955559 0 0,0 -0.4408210893049474,-0.3427851453260479 l 7.154598844954999 -9.039601918296341" fill="#ff6909" stroke="none" /><path d="M 86.68645165197938 116.24036423190432 l -17.344537712519195 21.157515826890076 a48.35824308003174,48.35824308003174 0 0,0 -0.6374668018757539,-0.5317974784172117 l 17.70517884855684 -20.856656164560995" fill="#c2ff1e" stroke="none" /><path d="M 86.13680546590413 115.77377054828092 l -11.560217563059142 13.153405506892762 a38.5114450155896,38.5114450155896 0 0,0 -0.4928272449170332,-0.4406891613284056 l 11.784309834799545 -12.953020815680974" fill="#ffbd11" stroke="none" /><path d="M 85.60350026404147 115.28858382429668 l -14.845951000557365 15.765885492048078 a42.655609122334155,42.655609122334155 0 0,0 -0.5287823184151461,-0.5065614995017466 l 15.114405804837826 -15.508711862240748" fill="#fff417" stroke="none" /><path d="M 85.34317274990678 115.03919595460226 l -12.111365841795957 12.427328306778499 a38.35291535731907,38.35291535731907 0 0,0 -0.46755505800215846,-0.46355888493789604 l 12.322912819928078 -12.217589411611943" fill="#ffba11" stroke="none" /><path d="M 85.08716467003676 114.78537596483092 l -4.961482442077051 4.91907686405047 a27.986674832670793,27.986674832670793 0 0,0 -0.33532460856192536,-0.34407258887021686 l 5.045193851789786 -4.833181583112515" fill="#ff2503" stroke="none" /><path d="M 84.58840730492382 114.26474011684316 l -28.088695387390214 25.998477110694996 a59.27395486020393,59.27395486020393 0 0,0 -0.6847617966323859,-0.7526731671098555 l 28.530854884864482 -25.512466368027464" fill="#46ff2c" stroke="none" /><path d="M 84.3458050057657 113.99807769240083 l -5.387018100956177 4.817104803877049 a28.22664948033076,28.22664948033076 0 0,0 -0.31988715608750784,-0.36397286275226737 l 5.468916321002277 -4.723919663313482" fill="#ff2904" stroke="none" /><path d="M 83.8745106332314 113.45245675266167 l -17.670968204423925 14.74175016589335 a44.012655545055594,44.012655545055594 0 0,0 -0.47901106755128614,-0.5843156163024559 l 17.921426091213842 -14.4362322678924" fill="#f9ff18" stroke="none" /><path d="M 83.64595745247003 113.17365903436017 l -8.640222081600767 6.9599512997078214 a32.09478975527189,32.09478975527189 0 0,0 -0.34193723189312475,-0.43202652228889493 l 8.758425744135454 -6.810604833504246" fill="#ff6209" stroke="none" /><path d="M 83.20337586046588 112.60449989151573 l -19.188463527706244 14.399380759140765 a44.9904001384059,44.9904001384059 0 0,0 -0.4582550346533514,-0.6217109649349484 l 19.432820581943425 -14.067863484936936" fill="#ecff1a" stroke="none" /><path d="M 82.98947788004972 112.3143062007846 l -10.808008545882794 7.82416469736712 a34.34281087100471,34.34281087100471 0 0,0 -0.34160450785685786,-0.48050952060521895 l 10.940728152269614 -7.637477950052397" fill="#ff830c" stroke="none" /><path d="M 82.37810715431573 111.42229804090323 l -34.84947591784954 22.589009250526956 a62.53010126003989,62.53010126003989 0 0,0 -0.5761175397456841,-0.905752463060099 l 35.23211114922111 -21.987443112788185" fill="#31ff3d" stroke="none" /><path d="M 82.18462484594161 111.11811171558189 l -11.205579639029091 6.99311045584098 a34.20865658930596,34.20865658930596 0 0,0 -0.3066269077643379,-0.5008520099263183 l 11.323974511248833 -6.7997213297901045" fill="#ff810b" stroke="none" /><line stroke="#e1ed5e" stroke-width="0.3" x1="26.387840678322732" x2="22.057713659400548" y1="142.50000000000003" y2="145.00000000000006" /><path d="M 25.521815274538298 143.00000000000003 a86.0,86.0 0 0,1 -11.493303480769221,-40.785679425670985" fill="none" id="id69" stroke="none" /><text fill="#e1ed5e" style="font-size:6.75px; font-family:Arial;" text-anchor="middle"><textPath startOffset="21.40746469413373" xlink:href="#id69">September</textPath></text><path d="M 81.81346652052679 110.50000000000001 l -28.876086757180826 16.671616462401357 a54.343232924802685,54.343232924802685 0 0,0 -0.4595021430626978,-0.8118962581468264 l 29.1580222652649 -16.17346343415541" fill="#7cff26" stroke="none" /><path d="M 81.63589988554817 110.18625677009913 l -9.779158672440484 5.424334468457236 a32.18281488563864,32.18281488563864 0 0,0 -0.2638295830967469,-0.4854167171527692 l 9.870833605152562 -5.25566291782988" fill="#ff6409" stroke="none" /><path d="M 81.4637452351635 109.86951160357371 l -20.065046412429453 10.68350704638497 a43.731990901439,43.731990901439 0 0,0 -0.34713190528241983,-0.6656711994364131 l 20.245486386686824 -10.337489603844054" fill="#fcff18" stroke="none" /><path d="M 81.1358732173502 109.22738970284198 l -19.40594617915831 9.49242072059048 a42.603166393959114,42.603166393959114 0 0,0 -0.3157112555945361,-0.6597150992264562 l 19.566036692712757 -9.15789311929892" fill="#fff316" stroke="none" /><path d="M 80.9802524753101 108.90220220490708 l -4.130372583189941 1.933222923670788 a25.5604088137549,25.5604088137549 0 0,0 -0.1825932574628087,-0.3989992203926491 l 4.162950305507806 -1.86203472106345" fill="#ff0000" stroke="none" /><path d="M 80.68587082218212 108.24405325689762 l -21.77991607905146 9.296551060281724 a44.68101784186967,44.68101784186967 0 0,0 -0.2950524959272142,-0.7080185801356336 l 21.93629441951516 -8.921299970704808" fill="#f0ff19" stroke="none" /><path d="M 80.5471966667186 107.91128576633889 l -11.387994318220178 4.631398149321963 a33.29374895665915,33.29374895665915 0 0,0 -0.21076738579254667,-0.5312714956439716 l 11.465820378978849 -4.435225636464426" fill="#ff740a" stroke="none" /><path d="M 80.28708602549918 107.23885506374661 l -15.641726156219733 5.743858505046621 a37.662998159759994,37.662998159759994 0 0,0 -0.21765595487160722,-0.6088224434822953 l 15.738022281135283 -5.474501105183404" fill="#ffb110" stroke="none" /><path d="M 80.16572619554312 106.89939002012753 l -23.680788488792995 8.237407498711452 a46.07258713716593,46.07258713716593 0 0,0 -0.253431213343814,-0.7492243504754974 l 23.81870512370918 -7.829681473761793" fill="#dfff1b" stroke="none" /><path d="M 80.05021161711548 106.5578916946017 l -13.66805674754957 4.49296173502267 a35.38758076976853,35.38758076976853 0 0,0 -0.18474892741185353,-0.5787233837659778 l 13.74317039073868 -4.2576693175653" fill="#ff910d" stroke="none" /><path d="M 79.73907114497094 105.5222062557868 l -38.49129280208931 10.490973016385642 a60.89536484864757,60.89536484864757 0 0,0 -0.26623024111140803,-1.010919589503318 l 38.66571252400545 -9.82867292250952" fill="#35ff2f" stroke="none" /><path d="M 79.56144815229197 104.8234425847677 l -12.890235654191725 3.0420605160972625 a34.244331142197915,34.244331142197915 0 0,0 -0.130110746589045,-0.5732919565152074 l 12.940557262338437 -2.8203342256430286" fill="#ff810b" stroke="none" /><path d="M 79.48165901384964 104.47187691870673 l -29.665809829790934 6.465525177797292 a51.362201644183365,51.362201644183365 0 0,0 -0.18036030125440725,-0.8630893326663724 l 29.772427841869707 -5.95531939384551" fill="#9fff22" stroke="none" /><path d="M 79.407916724674 104.11899336999214 l -13.16338950916261 2.6330465640566176 a34.424148299926614,34.424148299926614 0 0,0 -0.110933797642139,-0.5804525054246096 l 13.206649599086905 -2.406691493598694" fill="#ff840c" stroke="none" /><path d="M 79.2786578344484 103.40968896794605 l -35.19902477717198 5.791986132283817 a56.67237654853591,56.67237654853591 0 0,0 -0.14971899466147678,-0.9613033468866397 l 35.29326526397172 -5.186894603465728" fill="#62ff29" stroke="none" /><path d="M 79.22317932658666 103.0534771498775 l -15.416628112801769 2.2657134318359398 a36.58222961336508,36.58222961336508 0 0,0 -0.08597779181218351,-0.6220924717638919 l 15.453250421169166 -2.000732651871962" fill="#ffa20f" stroke="none" /><path d="M 79.17382384314188 102.69636545807758 l -8.54699070890915 1.106579063983553 a29.618327413310894,29.618327413310894 0 0,0 -0.06095439615626565,-0.504789840960809 l 8.564727191325076 -0.9596955460993447" fill="#ff3e05" stroke="none" /><path d="M 79.0935383218832 101.97986365728391 l -19.417911945698627 1.8388964499845903 a40.50479029583941,40.50479029583941 0 0,0 -0.05961220625867143,-0.6927841978441929 l 19.44661777465504 -1.5052912047647355" fill="#ffd714" stroke="none" /><path d="M 79.06263194458094 101.62068470465958 l -7.907060304966337 0.6120564753487746 a28.93071344806952,28.93071344806952 0 0,0 -0.03407767863684726,-0.4954819683573607 l 7.916401944768251 -0.4762310828370706" fill="#ff3304" stroke="none" /><path d="M 79.03789590574601 101.26102812881392 l -21.295825357273138 1.2811039712941492 a42.334324574092875,42.334324574092875 0 0,0 -0.03741227502498666,-0.7257881407151454 l 21.314679221754695 -0.9153440372022731" fill="#fff016" stroke="none" /><path d="M 79.00696218219943 100.54070618675478 l -10.897037264145656 0.28066902547209 a31.900651184128336,31.900651184128336 0 0,0 -0.009400921995241607,-0.5475565762816457 l 10.900249617739563 -0.09356553322139192" fill="#ff5f08" stroke="none" /><line stroke="#e1ed5e" stroke-width="0.3" x1="15.003131293944662" x2="10.003315487706104" y1="100.72959589197737" y2="100.7725132973878" /><path d="M 14.003168132696942 100.73817937305945 a86.0,86.0 0 0,1 10.791469493833604,-42.45332614584628" fill="none" id="id70" stroke="none" /><text fill="#e1ed5e" style="font-size:6.75px; font-family:Arial;" text-anchor="middle"><textPath startOffset="22.145653131862435" xlink:href="#id70">October</textPath></text><path d="M 79.00077361379809 99.81974689727619 l -31.712013331450066 -0.27220949436350617 a52.71318160549156,52.71318160549156 0 0,0 0.015534244286548773,-0.904791851370612 l 31.702667655564852 0.8165482617031706" fill="#8fff24" stroke="none" /><path d="M 79.00696218219943 99.45929381324524 l -19.982692412569126 -0.5146832730578847 a40.98931952135723,40.98931952135723 0 0,0 0.024155031374423964,-0.7032473830154226 l 19.97091269419785 0.8576369206374458" fill="#ffde14" stroke="none" /><path d="M 79.01933749520258 99.09900007780938 l -13.615845753775695 -0.5847230020456341 a34.6283952312711,34.6283952312711 0 0,0 0.030602284531527187,-0.5936761444455692 l 13.603801879787596 0.8183709398679152" fill="#ff870c" stroke="none" /><path d="M 79.06263194458094 98.37931529534042 l -50.664699618592294 -3.9217681764338375 a71.81625776335636,71.81625776335636 0 0,0 0.10569430280335361,-1.2283280116590705 l 50.589911693091196 4.790917235468589" fill="#3dffac" stroke="none" /><path d="M 79.0935383218832 98.0201363427161 l -12.399111790556312 -1.1742087778736012 a33.45458708463464,33.45458708463464 0 0,0 0.0590515001781542,-0.5712696970210693 l 12.377127897896493 1.3868829971775833" fill="#ff760a" stroke="none" /><path d="M 79.13060592940154 97.66154086499901 l -27.41245433506436 -3.071622685152092 a48.584008385148266,48.584008385148266 0 0,0 0.09998568969280423,-0.8280249429261598 l 27.355686559111888 3.5417413050016884" fill="#c0ff1e" stroke="none" /><path d="M 79.2786578344484 96.59031103205396 l -21.317841941697914 -3.507842779116127 a42.604521425252905,42.604521425252905 0 0,0 0.12494320131572444,-0.7206391828254148 l 21.254483922889953 3.873274994862135" fill="#fff316" stroke="none" /><path d="M 79.48165901384962 95.52812308129327 l -12.490381738151672 -2.7222205654140446 a33.7835879459374,33.7835879459374 0 0,0 0.1283601607474909,-0.5655785522925512 l 12.44181071584652 2.936233451645604" fill="#ff7b0b" stroke="none" /><path d="M 79.64726062577567 94.8264132398404 l -10.629495597328399 -2.7019762145216766 a31.967536282933587,31.967536282933587 0 0,0 0.13975981445380498,-0.5306907797810008 l 10.581546302069867 2.8840474986754616" fill="#ff6008" stroke="none" /><path d="M 79.73907114497095 94.47779374421319 l -8.126885424571178 -2.215018761121121 a29.423335136169403,29.423335136169403 0 0,0 0.13700276560997987,-0.48617448307604 l 8.087664166886617 2.354201168100174" fill="#ff3b05" stroke="none" /><path d="M 79.83685265289637 94.1308016681162 l -60.48944204131091 -17.607594995651397 a84.0,84.0 0 0,0 0.41489471998548133,-1.3810495856371061 l 60.1782710013218 18.643382184879226" fill="#4dd2ff" stroke="none" /><path d="M 80.16572619554312 93.10060997987247 l -8.739408254246763 -3.040019850770699 a30.253052324907515,30.253052324907515 0 0,0 0.17483358503821256,-0.48904065367071403 l 8.685934499164608 3.1895954608223342" fill="#ff4706" stroke="none" /><path d="M 80.28708602549916 92.7611449362534 l -10.108624652231926 -3.7120269913406205 a31.76863207395221,31.76863207395221 0 0,0 0.19238072461882286,-0.5103127282564642 l 10.043413243798666 3.8850079997912297" fill="#ff5d08" stroke="none" /><path d="M 80.5471966667186 92.08871423366112 l -13.323237087912673 -5.418444536208737 a35.382913046135755,35.382913046135755 0 0,0 0.23365217069105199,-0.5606801515724077 l 13.228259072685143 5.646357197222409" fill="#ff910d" stroke="none" /><path d="M 80.68587082218212 91.75594674310238 l -26.475829689130713 -11.30095734414077 a49.786823281181,49.786823281181 0 0,0 0.3422633525624227,-0.7831655311971437 l 26.277932454551312 11.75378494511378" fill="#b1ff20" stroke="none" /><path d="M 80.9802524753101 91.09779779509293 l -9.211695484917161 -4.311538612713476 a31.170776711528106,31.170776711528106 0 0,0 0.2309914000863865,-0.4826831851195083 l 9.13632482687087 4.469034299898071" fill="#ff5507" stroke="none" /><path d="M 81.1358732173502 90.77261029715801 l -15.156504933651343 -7.413806065196672 a37.872586114053306,37.872586114053306 0 0,0 0.29068127222661005,-0.5815572641179304 l 15.027003748212989 7.672895185478373" fill="#ffb410" stroke="none" /><path d="M 81.46374523516351 90.13048839642627 l -16.123182867905626 -8.584686735273158 a39.26619479077951,39.26619479077951 0 0,0 0.32189800172105654,-0.5922560670392133 l 15.973439516569218 8.86019763578699" fill="#ffc712" stroke="none" /><line stroke="#e1ed5e" stroke-width="0.3" x1="26.387840678322718" x2="22.05771365940052" y1="57.49999999999999" y2="54.99999999999999" /><path d="M 25.521815274538284 56.99999999999999 a86.0,86.0 0 0,1 29.574782752854787,-30.34633250058573" fill="none" id="id71" stroke="none" /><text fill="#e1ed5e" style="font-size:6.75px; font-family:Arial;" text-anchor="middle"><textPath startOffset="21.40746469413373" xlink:href="#id71">November</textPath></text><path d="M 81.81346652052679 89.5 l -24.9173899566151 -14.38606179895461 a49.772123597909214,49.772123597909214 0 0,0 0.4335538051775043,-0.7362691451065901 l 24.666762441307817 14.811682112354774" fill="#b1ff20" stroke="none" /><path d="M 82.18462484594161 88.88188828441811 l -16.280877342569628 -10.16047159024546 a40.19119980563962,40.19119980563962 0 0,0 0.3702993387962018,-0.5821720656729901 l 16.104060312147535 10.438457330597123" fill="#ffd313" stroke="none" /><path d="M 82.37810715431573 88.57770195909679 l -7.248242379352176 -4.69822313951604 a29.63772645193866,29.63772645193866 0 0,0 0.2803948539025174,-0.4245535465250389 l 7.1665230865289296 4.82195656438014" fill="#ff3e05" stroke="none" /><path d="M 82.78059297857968 87.97951657250589 l -11.871838953079655 -8.287465602726796 a35.47835095044457,35.47835095044457 0 0,0 0.3528996115525085,-0.49639749847774045 l 11.727824242997174 8.490040327914055" fill="#ff930d" stroke="none" /><path d="M 82.98947788004972 87.6856937992154 l -13.831422664481398 -10.012883360184224 a38.075306325456765,38.075306325456765 0 0,0 0.38782052984488824,-0.5261530318239472 l 13.657500115052692 10.248842701277034" fill="#ffb710" stroke="none" /><path d="M 83.2033758604659 87.39550010848427 l -19.26758951423414 -14.458758374566461 a45.08932750043307,45.08932750043307 0 0,0 0.46989096028065985,-0.6151023507098451 l 19.016546576599172 14.78738163851719" fill="#ebff1a" stroke="none" /><path d="M 83.64595745247003 86.82634096563983 l -24.606815774976678 -19.821508963226798 a52.597272036726864,52.597272036726864 0 0,0 0.5724416106364282,-0.6982856872725293 l 24.26292734510162 20.24099693219782" fill="#90ff24" stroke="none" /><path d="M 83.8745106332314 86.54754324733833 l -7.082674101462459 -5.908618639473495 a30.22366774413848,30.22366774413848 0 0,0 0.3357783807362939,-0.3955460882046251 l 6.98020115721905 6.029331510127677" fill="#ff4706" stroke="none" /><path d="M 84.34580500576568 86.00192230759919 l -10.790493506146559 -9.648925830681089 a35.475376326444014,35.475376326444014 0 0,0 0.4098289457283505,-0.4504738028197159 l 10.623266859576344 9.832737209058463" fill="#ff930d" stroke="none" /><path d="M 84.83555147118756 85.47280134310135 l -18.733556522473435 -17.94632337833674 a46.94256469165188,46.94256469165188 0 0,0 0.5624461363929487,-0.5771192847393856 l 18.422723584929685 18.265265355143857" fill="#d4ff1c" stroke="none" /><path d="M 85.86807049272753 84.46653392183569 l -26.771695363580044 -29.42678291532049 a60.78264980347251,60.78264980347251 0 0,0 0.7778297030733023,-0.6955401168241079 l 26.262600633683352 29.882018562028" fill="#37ff2e" stroke="none" /><path d="M 86.40962598614128 83.9905735841838 l -4.780454121540183 -5.631362934893429 a28.386811904512125,28.386811904512125 0 0,0 0.3741999098327246,-0.3121708736634392 l 4.683079877545549 5.712595992468749" fill="#ff2b04" stroke="none" /><path d="M 87.25179093698888 83.31218511350988 l -26.65914386708041 -34.89767509202308 a64.91534673157095,64.91534673157095 0 0,0 0.8913402954224117,-0.6688783748224754 l 26.056150582747247 35.35017249410956" fill="#34ff5b" stroke="none" /><path d="M 87.54013794807813 83.09580414077388 l -9.117793924795054 -12.370038582010137 a36.367238547489556,36.367238547489556 0 0,0 0.5057106788631804,-0.36609553220145263 l 8.904102235557906 12.52473488558467" fill="#ff9f0e" stroke="none" /><path d="M 88.12776184653039 82.6780497279521 l -6.265737819871062 -9.141898733035237 a32.08304032621166,32.08304032621166 0 0,0 0.4569598309858993,-0.30746296775661885 l 6.107881700788173 9.248111374848966" fill="#ff6209" stroke="none" /><path d="M 88.4268655584334 82.4767994020092 l -17.660119271832848 -26.73967144745965 a53.0451219659631,53.0451219659631 0 0,0 0.7641386444467747,-0.49530543726921117 l 17.198494995129046 27.038890726432765" fill="#8bff24" stroke="none" /><path d="M 88.72937992617638 82.28071324371311 l -7.765617120635911 -12.20883994835935 a35.46929791485989,35.46929791485989 0 0,0 0.5165611251909,-0.3223723468147571 l 7.5548918666553115 12.340348092015642" fill="#ff920d" stroke="none" /><line stroke="#e1ed5e" stroke-width="0.3" x1="56.869717070023135" x2="54.33264160355391" y1="26.7553504044142" y2="22.446841604673864" /><path d="M 56.362301976729285 25.89364864446614 a86.0,86.0 0 0,1 42.16139366436587,-11.88097634709845" fill="none" id="id72" stroke="none" /><text fill="#e1ed5e" style="font-size:6.75px; font-family:Arial;" text-anchor="middle"><textPath startOffset="22.145653131862474" xlink:href="#id72">December</textPath></text><path d="M 89.34428304082924 81.90426304109057 l -18.394273390689726 -31.237497589659316 a57.250938597992295,57.250938597992295 0 0,0 0.8511511548740458,-0.49141234838758857 l 17.85532976795528 31.54865683532308" fill="#5cff2a" stroke="none" /><path d="M 89.97174638481275 81.54914285379989 l -6.307816541588251 -11.605671972338685 a34.20909427068571,34.20909427068571 0 0,0 0.5183674475592401,-0.27600146866269537 l 6.107660278242449 11.712243908723957" fill="#ff810b" stroke="none" /><path d="M 90.61103034731259 81.2157712731953 l -9.734324640579572 -19.475170046723928 a42.7724441567089,42.7724441567089 0 0,0 0.6595913168648269,-0.3226391656209801 l 9.398573074452692 19.639402962442123" fill="#fff517" stroke="none" /><path d="M 90.93487009805054 81.0573650232925 l -9.59853161715818 -20.0572394111101 a43.23566194202847,43.23566194202847 0 0,0 0.6722348374908468,-0.3146398470725167 l 9.252808065795811 20.21905548975316" fill="#fffb17" stroke="none" /><path d="M 91.5904679813234 80.7573450057729 l -15.249293763442358 -34.89336839955552 a59.080022564999375,59.080022564999375 0 0,0 0.9328030114615833,-0.3981581376972314 l 14.648055676810344 35.15000118691216" fill="#48ff2c" stroke="none" /><path d="M 91.92203290615298 80.6158196554323 l -5.629528316141365 -13.508818600914347 a35.634881928278304,35.634881928278304 0 0,0 0.5666718974263771,-0.23046052743583384 l 5.396801957524548 13.603466384929472" fill="#ff950d" stroke="none" /><path d="M 92.25597844496254 80.48000691201159 l -4.079621666829837 -10.283311606528818 a32.06299283835246,32.06299283835246 0 0,0 0.5133555971297817,-0.19857697310406308 l 3.9024938072065254 10.351828467770922" fill="#ff6209" stroke="none" /><path d="M 92.93061703081487 80.22567764915836 l -10.294267865623496 -28.79489936081562 a51.5797020928705,51.5797020928705 0 0,0 0.8363138496314578,-0.2909133696916656 l 9.798448243947034 28.96737116307587" fill="#9cff22" stroke="none" /><path d="M 93.27111125876988 80.10723608172694 l -4.283234679145825 -12.662622247968882 a34.36742688446037,34.36742688446037 0 0,0 0.5604791558800345,-0.18424063106836672 l 4.06523278561803 12.734283800439275" fill="#ff830c" stroke="none" /><path d="M 93.95794788825049 79.88797359093562 l -9.872334630875043 -32.861791183358044 a55.3126844015825,55.3126844015825 0 0,0 0.9117110425668044,-0.2653857970720975 l 9.306763575926613 33.02642067473266" fill="#71ff27" stroke="none" /><path d="M 94.30408787586887 79.78721728523814 l -3.1236947713903764 -11.084890761193536 a32.516608537777316,32.516608537777316 0 0,0 0.538565772760248,-0.14678849626141605 l 2.932947597695451 11.136879751599091" fill="#ff6809" stroke="none" /><path d="M 95.00130118170881 79.60360301121753 l -3.523985140970405 -14.379061938037315 a35.80459028449263,35.80459028449263 0 0,0 0.5982228323497628,-0.14117895955822096 l 3.276630154880736 14.43743704124177" fill="#ff970d" stroke="none" /><path d="M 95.35216902796891 79.52079915486377 l -6.934233521501392 -30.553512347684684 a52.330507677195946,52.330507677195946 0 0,0 0.8777510267290559,-0.19130175092861013 l 6.408720078153218 30.66804555674701" fill="#93ff23" stroke="none" /><path d="M 95.70440661134978 79.44403061299748 l -2.4913836656044595 -11.922172730956689 a33.17970423269826,33.17970423269826 0 0,0 0.5585305740619791,-0.11172175737341658 l 2.2863566060115033 11.963183884992972" fill="#ff720a" stroke="none" /><path d="M 96.41257539226777 79.30868818359171 l -5.118645237354891 -29.522985502024177 a50.96343107887723,50.96343107887723 0 0,0 0.8632780455409922,-0.1420520738779477 l 4.611089688760827 29.606503574397795" fill="#a3ff21" stroke="none" /><path d="M 96.76829788921471 79.25015418208739 l -2.30756047071157 -14.816193554157692 a35.99481332862315,35.99481332862315 0 0,0 0.6113545829837028,-0.08984807054730587 l 2.0528807821201824 14.853622698003884" fill="#ff9a0e" stroke="none" /><path d="M 97.48249496171623 79.15144685158666 l -0.9963567364198077 -8.251263079175018 a29.311201426265995,29.311201426265995 0 0,0 0.5000548167608835,-0.05603218523259236 l 0.8545660180581249 8.26715102491458" fill="#ff3905" stroke="none" /><path d="M 97.84075906011542 79.11130261209362 l -3.451924967197998 -33.394242723747205 a54.572179450725386,54.572179450725386 0 0,0 0.9326656681855535,-0.08832440846601164 l 2.878159735627429 33.4485788877184" fill="#7aff26" stroke="none" /><path d="M 98.1996594967304 79.07731436759882 l -1.222585022518271 -14.208291175239678 a35.2607942365662,35.2607942365662 0 0,0 0.6035153674987247,-0.04671590634234353 l 0.9785006602443292 14.227184848577076" fill="#ff900d" stroke="none" /><path d="M 98.9189461498227 79.02784411241856 l -1.508812047454816 -29.2705506382442 a50.30941228446184,50.30941228446184 0 0,0 0.8628644906750382,-0.037055113906985335 l 1.0061217961789575 29.292138320577013" fill="#abff21" stroke="none" /><path d="M 99.63950707515114 79.00309439819443 l -0.32124913177153097 -18.711151397206716 a39.71390893463615,39.71390893463615 0 0,0 0.6817420566203785,-0.00585193562387098 l 4.5835857352674435e-15 18.71390893463615" fill="#ffcd13" stroke="none" /></svg>