<?xml version="1.0" encoding="utf-8" ?>
<svg baseProfile="full" height="200mm" version="1.1" viewBox="0,0,200,200" width="200mm" xmlns="http://www.w3.org/2000/svg" xmlns:ev="http://www.w3.org/2001/xml-events" xmlns:xlink="http://www.w3.org/1999/xlink"><defs /><rect fill="#1a1a1a" height="200" width="200" x="0" y="0" /><text alignment-baseline="middle" fill="#e1ed5e" style="dominant-baseline: central; font-size:9.0px; font-family:Arial;" text-anchor="middle" x="100.0" y="100.0">2020</text><line stroke="#e1ed5e" stroke-width="0.3" x1="100.0" x2="100.0" y1="15.0" y2="10.0" /><path d="M 100.0 14.0 a86.0,86.0 0 0,1 42.35913384403234,11.155469271406648" fill="none" id="id61" stroke="none" /><text fill="#e1ed5e" style="font-size:6.75px; font-family:Arial;" text-anchor="middle"><textPath startOffset="22.145653131862478" xlink:href="#id61">January</textPath></text><path d="M 100.0 79.0 l 0.0 -23.142736764875657 a44.14273676487566,44.14273676487566 0 0,0 0.7577687755811,0.0065045335686974666 l -0.3972758507322452 23.139326629501394" fill="#f7ff18" stroke="none" /><path d="M 101.44090949804482 79.04949213459386 l 1.4211734074781002 -20.663549440042583 a41.71236368247736,41.71236368247736 0 0,0 0.7139388956520896,0.05526338578861653 l -1.7756812979054233 20.636108287258914" fill="#ffe715" stroke="none" /><path d="M 102.15924093988457 79.11130261209362 l 1.5893664666109377 -15.375678807431612 a36.45760604215572,36.45760604215572 0 0,0 0.6219738742136317,0.06969346991899074 l -1.8530762424253662 15.34612957700565" fill="#ffa00e" stroke="none" /><path d="M 102.51750503828377 79.15144685158666 l 2.859479871431786 -23.68059533934639 a44.85261454769681,44.85261454769681 0 0,0 0.7636097355707299,0.09886456826913032 l -3.2655674288933074 23.62801917487686" fill="#eeff19" stroke="none" /><path d="M 103.58742460773223 79.30868818359171 l 3.3739004600888767 -19.45976127463558 a40.75007628290064,40.75007628290064 0 0,0 0.6882207934614212,0.125416754409524 l -3.7074559871013517 19.39897634629469" fill="#ffdb14" stroke="none" /><path d="M 103.94208987418118 79.37332000966035 l 1.56486947471118 -8.188058342587388 a29.336253108831194,29.336253108831194 0 0,0 0.49383183692024846,0.09878019795126322 l -1.7051977971623855 8.159988747973264" fill="#ff3a05" stroke="none" /><path d="M 105.3480935250658 79.69241777938227 l 2.044376583177898 -7.762830877621924 a29.02751635615939,29.02751635615939 0 0,0 0.480776670159269,0.13103781937079734 l -2.17733465427186 7.726592564106984" fill="#ff3505" stroke="none" /><path d="M 106.38641147887787 79.99465700312896 l 8.049623507518284 -25.215330987704235 a47.46902634084353,47.46902634084353 0 0,0 0.774145818463776,0.25447710701882537 l -8.481292063629802 25.073432959283387" fill="#cdff1d" stroke="none" /><path d="M 108.4095320186766 80.7573450057729 l 3.226453147310084 -7.382756214120047 a29.056990084945824,29.056990084945824 0 0,0 0.4553459995386892,0.20367047382636325 l -3.3527125497044046 7.326281989383831" fill="#ff3505" stroke="none" /><path d="M 108.73861861582097 80.90454125486305 l 2.445060179303863 -5.342897754885914 a26.875787240836956,26.875787240836956 0 0,0 0.41786894560578425,0.1955837659834893 l -2.5364178387811522 5.300137757331891" fill="#ff1402" stroke="none" /><line stroke="#e1ed5e" stroke-width="0.3" x1="143.13028292997686" x2="145.6673583964461" y1="26.7553504044142" y2="22.446841604673864" /><path d="M 143.63769802327073 25.89364864446614 a86.0,86.0 0 0,1 29.32050498858742,28.57503671076993" fill="none" id="id62" stroke="none" /><text fill="#e1ed5e" style="font-size:6.75px; font-family:Arial;" text-anchor="middle"><textPath startOffset="20.669276256404974" xlink:href="#id62">February</textPath></text><path d="M 110.65571695917076 81.90426304109057 l 5.790798874783625 -9.834042478938745 a32.41235046279981,32.41235046279981 0 0,0 0.4770283719539003,0.28644183121993827 l -5.95876000329496 9.733186647182885" fill="#ff6709" stroke="none" /><path d="M 111.5731344415666 82.4767994020092 l 5.990601880571766 -9.070534779145797 a31.8702305436087,31.8702305436087 0 0,0 0.4539287740379855,0.30542353737028655 l -6.145426942706751 8.966361567718392" fill="#ff5f08" stroke="none" /><path d="M 113.03279911837588 83.53348406188908 l 5.291608084300036 -6.685773951315351 a29.52646992875225,29.52646992875225 0 0,0 0.3947396993631328,0.3179743596497593 l -5.405598554018428 6.5939512978721835" fill="#ff3c05" stroke="none" /><path d="M 115.16444852881244 85.47280134310134 l 5.878198750986949 -5.6311814332102434 a29.14023494070265,29.14023494070265 0 0,0 0.34294471757854583,0.3641954056862494 l -5.973999302301755 5.529444567579499" fill="#ff3705" stroke="none" /><path d="M 116.35404254752997 86.82634096563983 l 8.670465436905845 -6.984313205926797 a32.133624829814515,32.133624829814515 0 0,0 0.3423509799809247,0.4325492794817455 l -8.789082847528329 6.834443982530373" fill="#ff6309" stroke="none" /><path d="M 117.21940702142032 87.97951657250589 l 8.996742293929096 -6.2804248433805725 a31.972014770165252,31.972014770165252 0 0,0 0.31029641642150935,0.4527317448797384 l -9.103228447165929 6.125058363430786" fill="#ff6008" stroke="none" /><line stroke="#e1ed5e" stroke-width="0.3" x1="172.87174338648825" x2="177.1583165268699" y1="56.24261187166439" y2="53.66864786411523" /><path d="M 173.72905801456457 55.72781907015455 a86.0,86.0 0 0,1 12.242430191666344,42.057860355516425" fill="none" id="id63" stroke="none" /><text fill="#e1ed5e" style="font-size:6.75px; font-family:Arial;" text-anchor="middle"><textPath startOffset="22.145653131862474" xlink:href="#id63">March</textPath></text><path d="M 118.00360718960297 89.18935116829356 l 6.933694789241606 -4.163484499706907 a29.087689819080346,29.087689819080346 0 0,0 0.253376341880976,0.4302884218731772 l -7.00414484125235 4.043844909540174" fill="#ff3605" stroke="none" /><path d="M 118.70294669586156 90.45014215332178 l 14.47396473084122 -7.390509522649344 a37.25162410450125,37.25162410450125 0 0,0 0.28591523838891725,0.5720220038030577 l -14.598699882441874 7.140955662682536" fill="#ffab0f" stroke="none" /><path d="M 119.0197475246899 91.09779779509293 l 7.64853026300865 -3.5798983600211707 a29.44486160053801,29.44486160053801 0 0,0 0.21034222239398367,0.4596357166581013 l -7.708856950257684 3.4480736611483853" fill="#ff3b05" stroke="none" /><path d="M 119.31412917781788 91.75594674310238 l 10.257020264462483 -4.378112030772918 a32.152323957794295,32.152323957794295 0 0,0 0.21231887481126294,0.5094880075745852 l -10.330664983810228 4.201391513757056" fill="#ff6309" stroke="none" /><path d="M 119.94978838288452 93.4421083053983 l 8.061348229813301 -2.649925281861105 a29.485719726797527,29.485719726797527 0 0,0 0.15393691727426578,0.48220520086090507 l -8.105649862864823 2.5111510473088132" fill="#ff3c05" stroke="none" /><path d="M 120.05942366710727 93.78553927170692 l 8.166982093637767 -2.5301519291807115 a29.549927795165104,29.549927795165104 0 0,0 0.14595367878769636,0.4858323278228473 l -8.209212092429091 2.3895819977671406" fill="#ff3d05" stroke="none" /><path d="M 120.26092885502905 94.47779374421319 l 15.333368142897061 -4.179177671806051 a36.89269343497611,36.89269343497611 0 0,0 0.16129225422747978,0.6124529608395398 l -15.402849877929272 3.915344206593713" fill="#ffa60f" stroke="none" /><path d="M 120.43855184770803 95.1765574152323 l 10.030537397036618 -2.367179513963311 a31.306076815387982,31.306076815387982 0 0,0 0.11894689986234866,0.524101987969423 l -10.069695158456632 2.194643192054862" fill="#ff5708" stroke="none" /><path d="M 120.592083275326 95.88100663000786 l 14.708545110234228 -2.9421209588773825 a35.99991249962682,35.99991249962682 0 0,0 0.11601178839846053,0.6070226988163321 l -14.756883190914845 2.689195695027736" fill="#ff9a0e" stroke="none" /><path d="M 120.65975698304385 96.23510406497455 l 22.439319591046434 -4.089191522552984 a43.80887000746068,43.80887000746068 0 0,0 0.128475107374688,0.7410102784060059 l -22.50620951591336 3.703388211226385" fill="#fbff18" stroke="none" /><path d="M 120.77682067341334 96.94652285012252 l 18.257354271482566 -2.6832023513841796 a39.45347013038188,39.45347013038188 0 0,0 0.0927259567552133,0.6709188316970506 l -18.30072474479299 2.3693952114870434" fill="#ffc912" stroke="none" /><path d="M 120.86939407059847 97.66154086499901 l 10.075480104390767 -1.1289785611373813 a31.138534998977022,31.138534998977022 0 0,0 0.054963380668475476,0.5317208492079917 l -10.093375877540907 0.9558531896464582" fill="#ff5407" stroke="none" /><path d="M 120.93736805541906 98.37931529534042 l 17.849278014623522 -1.3816470050556127 a38.902672261143074,38.902672261143074 0 0,0 0.045823714849254356,0.666266756985185 l -17.87036569063784 1.0750368239160935" fill="#ffc212" stroke="none" /><path d="M 120.96210409425399 98.7389718711861 l 27.874812026056123 -1.6768794722230398 a48.925204927669306,48.925204927669306 0 0,0 0.04323685899852384,0.8387835137516534 l -27.899490474511218 1.198124165094656" fill="#bcff1f" stroke="none" /><path d="M 120.99303781780057 99.45929381324524 l 8.183104549948396 -0.21076774573646276 a29.185818414674795,29.185818414674795 0 0,0 0.008600877790863218,0.5009580122636355 l -8.185516859337925 0.07026281750376095" fill="#ff3705" stroke="none" /><line stroke="#e1ed5e" stroke-width="0.3" x1="184.99686870605535" x2="189.99668451229388" y1="99.2704041080226" y2="99.22748670261217" /><path d="M 185.99683186730306 99.26182062694052 a86.0,86.0 0 0,1 -10.086455211305974,41.156179273409016" fill="none" id="id64" stroke="none" /><text fill="#e1ed5e" style="font-size:6.75px; font-family:Arial;" text-anchor="middle"><textPath startOffset="21.40746469413373" xlink:href="#id64">April</textPath></text><path d="M 120.99922638620191 100.18025310272382 l 10.0895381331273 0.0866065501699413 a31.08990983281626,31.08990983281626 0 0,0 -0.009162001599600789,0.5336406610229583 l -10.086564699929031 -0.25979412716197064" fill="#ff5407" stroke="none" /><path d="M 120.98066250479742 100.90099992219065 l 16.62876503445423 0.7141107197517652 a37.644091464875814,37.644091464875814 0 0,0 -0.033267357330452094,0.6453778447648362 l -16.614056087667205 -0.999460357893332" fill="#ffb110" stroke="none" /><path d="M 120.96210409425399 101.26102812881392 l 21.03868327786435 1.265634942337024 a42.076717625701434,42.076717625701434 0 0,0 -0.049562443868376146,0.7206270563849696 l -21.01385687283091 -1.626605422876337" fill="#ffec16" stroke="none" /><path d="M 120.9064616781168 101.97986365728391 l 29.381037309795488 2.7824147805869472 a50.51249202305395,50.51249202305395 0 0,0 -0.0891608204325494,0.862550057508888 l -29.328944096881273 -3.2863693603787665" fill="#a9ff21" stroke="none" /><path d="M 120.82617615685814 102.69636545807757 l 9.137747992235353 1.1830644216829733 a30.214015400217935,30.214015400217935 0 0,0 -0.07101082556600381,0.5137989597924053 l -9.116092650114139 -1.3397516896754638" fill="#ff4706" stroke="none" /><path d="M 120.7213421655516 103.40968896794604 l 10.078119524248509 1.6583507325408302 a31.213648725952822,31.213648725952822 0 0,0 -0.09153801207243296,0.5279669283537073 l -10.048166694683841 -1.8311106938151256" fill="#ff5507" stroke="none" /><path d="M 120.65975698304385 103.76489593502545 l 29.159788253250913 5.313884783396546 a50.64001724806589,50.64001724806589 0 0,0 -0.1631903679081917,0.8538809625813734 l -29.064271593060564 -5.8136683110112335" fill="#a7ff21" stroke="none" /><path d="M 120.51834098615036 104.47187691870673 l 27.840693505245515 6.0677495695647 a49.49424151810278,49.49424151810278 0 0,0 -0.18805251850411017,0.8285940945473793 l -27.73243012518374 -6.544777998051097" fill="#b5ff20" stroke="none" /><path d="M 120.35273937422433 105.17358676015961 l 9.746241788128431 2.4774565501602046 a31.056193114225312,31.056193114225312 0 0,0 -0.13577548638312317,0.5155616371229548 l -9.702276820940579 -2.6443986916559625" fill="#ff5307" stroke="none" /><path d="M 120.16314734710363 105.8691983318838 l 11.732697506242081 3.41521724990146 a33.21965218969033,33.21965218969033 0 0,0 -0.1640792653959125,0.546166510614055 l -11.67234192084254 -3.6161213641062386" fill="#ff730a" stroke="none" /><path d="M 120.05942366710727 106.21446072829308 l 26.059661978231016 8.073349894985437 a48.281586481480886,48.281586481480886 0 0,0 -0.25206502174391465,0.7895900904880007 l -25.917232240709847 -8.519509019164822" fill="#c3ff1e" stroke="none" /><path d="M 119.83427380445688 106.89939002012753 l 17.058002360670642 5.933658696598069 a39.06055785584596,39.06055785584596 0 0,0 -0.2257325075892468,0.6314139988723947 l -16.95362968303745 -6.225607651851385" fill="#ffc412" stroke="none" /><path d="M 119.58574465831526 107.57618678355244 l 11.007630880675439 4.257988095489172 a32.802474326450664,32.802474326450664 0 0,0 -0.20765735244514458,0.5234321799843712 l -10.932914853264169 -4.446321292687108" fill="#ff6c0a" stroke="none" /><path d="M 119.31412917781788 108.2440532568976 l 12.30000783722296 5.250141942033985 a34.3736376206046,34.3736376206046 0 0,0 -0.23630422020201292,0.5407103002793182 l -12.208069735003981 -5.460514312089148" fill="#ff830c" stroke="none" /><path d="M 119.16976305983485 108.57439118712176 l 28.41324754312577 12.708884224121734 a52.126008002457894,52.126008002457894 0 0,0 -0.37236718978373096,0.8136895112557617 l -28.19089588848698 -13.194762717592186" fill="#96ff23" stroke="none" /><path d="M 118.8641267826498 109.22738970284198 l 27.236566399056663 13.322769467526035 a51.32040130827866,51.32040130827866 0 0,0 -0.393896511279861,0.788056883372014 l -27.00384997456507 -13.788358207061794" fill="#9fff22" stroke="none" /><path d="M 118.5362547648365 109.86951160357373 l 9.396860774279943 5.003299082016081 a31.64584398323139,31.64584398323139 0 0,0 -0.25942758128860616,0.4773175296335881 l -9.309587843375997 -5.163871445124272" fill="#ff5c08" stroke="none" /><line stroke="#e1ed5e" stroke-width="0.3" x1="174.33088141563837" x2="178.70328620479359" y1="141.23008692659167" y2="143.65538615756765" /><path d="M 175.20536237346943 141.71514677278685 a86.0,86.0 0 0,1 -30.301960400862466,31.631185727798858" fill="none" id="id65" stroke="none" /><text fill="#e1ed5e" style="font-size:6.75px; font-family:Arial;" text-anchor="middle"><textPath startOffset="22.145653131862474" xlink:href="#id65">May</textPath></text><path d="M 118.18653347947321 110.5 l 11.167698871772537 6.447673949846551 a33.89534789969311,33.89534789969311 0 0,0 -0.29525477310246234,0.5014071535868264 l -11.05537038854031 -6.638432271726926" fill="#ff7c0b" stroke="none" /><path d="M 118.00360718960297 110.81064883170644 l 12.959494851159164 7.781804301590023 a36.11638134559544,36.11638134559544 0 0,0 -0.3237266655802991,0.5287831792220012 l -12.82400022112346 -8.003124596936582" fill="#ff9c0e" stroke="none" /><path d="M 117.62189284568427 111.42229804090321 l 15.699723029801577 10.176370789244931 a39.70935128893248,39.70935128893248 0 0,0 -0.37567988797250595,0.568827232657792 l -15.522718702908344 -10.444377900241784" fill="#ffcd13" stroke="none" /><path d="M 117.21940702142032 112.02048342749411 l 6.457535413724667 4.507861236253598 a28.875314377523353,28.875314377523353 0 0,0 -0.28721986660311316,0.4040107119066116 l -6.379200448591593 -4.618049174869714" fill="#ff3304" stroke="none" /><path d="M 116.79662413953412 112.60449989151573 l 6.100093551551653 4.577623924309667 a28.62664946946523,28.62664946946523 0 0,0 -0.29832788720780556,0.3905207808088535 l -6.020613686989543 -4.681665618359398" fill="#ff2f04" stroke="none" /><path d="M 116.57777611688842 112.89097897827486 l 12.198410154885824 9.485557517863427 a36.452411194746176,36.452411194746176 0 0,0 -0.38836324134866945,0.49068426861789954 l -12.033780482895594 -9.69356173039601" fill="#ffa00e" stroke="none" /><path d="M 116.1254893667686 113.45245675266167 l 8.402474919101481 7.009643421890647 a31.942425949860674,31.942425949860674 0 0,0 -0.35487341089875796,0.4180399857222374 l -8.280906944695609 -7.152850190062441" fill="#ff6008" stroke="none" /><path d="M 115.6541949942343 113.99807769240083 l 8.821337284469449 7.888094194837604 a32.833766159300325,32.833766159300325 0 0,0 -0.3793117695364923,0.4169300803624522 l -8.684627814091076 -8.03836185075773" fill="#ff6d0a" stroke="none" /><path d="M 115.41159269507618 114.26474011684316 l 7.835321121189832 7.252256255221038 a31.676491833161123,31.676491833161123 0 0,0 -0.37279334115556073,0.39589360955292985 l -7.709671946298012 -7.385691324718465" fill="#ff5c08" stroke="none" /><path d="M 115.16444852881244 114.52719865689866 l 11.831821263633758 11.334617123936113 a37.384918057799425,37.384918057799425 0 0,0 -0.44793042005894607,0.459616071496709 l -11.635504042424005 -11.53605588750056" fill="#ffad10" stroke="none" /><path d="M 114.91283532996324 114.78537596483092 l 20.719073643186 20.54198860776122 a50.17624562196371,50.17624562196371 0 0,0 -0.6116916331793423,0.6064635309776659 l -20.36339008987669 -20.89463214896755" fill="#adff20" stroke="none" /><path d="M 114.39649973595853 115.28858382429668 l 7.173582692149378 7.618096226231582 a31.464018289033568,31.464018289033568 0 0,0 -0.39640202448148226,0.3669037959214557 l -7.041750896353929 -7.740117768285417" fill="#ff5908" stroke="none" /><path d="M 114.13192950727249 115.5334660781643 l 7.305145172765561 8.029634217947667 a31.855421303165347,31.855421303165347 0 0,0 -0.4076507518779112,0.36452381602850553 l -7.166229394064272 -8.15385356385956" fill="#ff5f08" stroke="none" /><path d="M 113.86319453409587 115.77377054828091 l 8.992603971983604 10.231932570574717 a34.62201785073427,34.62201785073427 0 0,0 -0.4497903296046202,0.3885181739255626 l -8.815634162616128 -10.384794876964996" fill="#ff870c" stroke="none" /><path d="M 113.31354834802062 116.24036423190432 l 10.683468255732128 13.03209416435347 a37.85146795622897,37.85146795622897 0 0,0 -0.5060366890301966,0.4076273362250235 l -10.45818079634668 -13.213569794371898" fill="#ffb410" stroke="none" /><path d="M 112.45986205192187 116.90419585922612 l 6.0110557271854566 8.155151550605863 a31.131104962869465,31.131104962869465 0 0,0 -0.4328987531999569,0.3133853131168751 l -5.870175963611532 -8.257137635095816" fill="#ff5407" stroke="none" /><path d="M 112.16784306229584 117.11559508785304 l 7.360033295251879 10.35280855199323 a33.70239091751787,33.70239091751787 0 0,0 -0.4744091521142486,0.3311744326472468 l -7.181229051963872 -10.4776278004456" fill="#ff790b" stroke="none" /><path d="M 111.8722381534696 117.32195027204791 l 8.54240381851989 12.463622464051564 a36.11008100325984,36.11008100325984 0 0,0 -0.5143171078663288,0.3460555034157048 l -8.327190422556559 -12.608427641524392" fill="#ff9b0e" stroke="none" /><path d="M 111.27062007382361 117.71928675628689 l 10.076015953015839 15.84117065990661 a39.77415205439957,39.77415205439957 0 0,0 -0.5792553545336974,0.361498182769814 l -9.802596469692425 -16.011804639517973" fill="#ffce13" stroke="none" /><path d="M 110.96478420261333 117.91015095944535 l 4.11863194366871 6.727475752775812 a28.888096037168587,28.888096037168587 0 0,0 -0.4251602005005588,0.25529648455581727 l -4.002538986610714 -6.797186237867552" fill="#ff3304" stroke="none" /><line stroke="#e1ed5e" stroke-width="0.3" x1="143.1302829299769" x2="145.66735839644613" y1="173.24464959558577" y2="177.55315839532614" /><path d="M 143.63769802327073 174.10635135553383 a86.0,86.0 0 0,1 -40.68552437913181,11.842963189579606" fill="none" id="id66" stroke="none" /><text fill="#e1ed5e" style="font-size:6.75px; font-family:Arial;" text-anchor="middle"><textPath startOffset="21.407464694133747" xlink:href="#id66">June</textPath></text><path d="M 110.34350942703117 118.27599006163325 l 3.8465514919827135 6.796487916888217 a28.80949463056874,28.80949463056874 0 0,0 -0.4324933627891708,0.23989677780438362 l -3.7293139410374487 -6.861517610125744" fill="#ff3204" stroke="none" /><path d="M 109.71004243097381 118.62028667847754 l 4.428473122453425 8.492181128372843 a30.57750043139567,30.57750043139567 0 0,0 -0.46750490555058777,0.23871133587846377 l -4.282040995189255 -8.566950415924143" fill="#ff4c07" stroke="none" /><path d="M 109.06512990194946 118.94263497670748 l 5.271417362428269 11.015234859997216 a33.21160268063976,33.21160268063976 0 0,0 -0.5163791955068676,0.24169153701131127 l -5.081549453049895 -11.10410262857906" fill="#ff720a" stroke="none" /><path d="M 108.73861861582097 119.09545874513695 l 12.643349257515343 27.627999888923 a51.38355901322034,51.38355901322034 0 0,0 -0.8052209802298934,0.3601651024594471 l -12.167214874429822 -27.840968742292297" fill="#9eff22" stroke="none" /><path d="M 108.07796709384702 119.3841803445677 l 10.558395984316043 25.336306713261457 a48.44828161525014,48.44828161525014 0 0,0 -0.7704327384953317,0.31332828762791454 l -10.12190878463027 -25.51382225746866" fill="#c1ff1e" stroke="none" /><path d="M 107.74402155503746 119.51999308798841 l 4.15936284539871 10.484311467315614 a32.27923251925276,32.27923251925276 0 0,0 -0.5168177770663641,0.19991621867962914 l -3.978772805838816 -10.554167574133283" fill="#ff6509" stroke="none" /><path d="M 107.407793817531 119.65005319985036 l 11.472326983620448 30.431710318492193 a53.52235045822688,53.52235045822688 0 0,0 -0.8625020963825563,0.3167227166905476 l -10.948235735583765 -30.624163884191464" fill="#86ff25" stroke="none" /><path d="M 106.72888874123015 119.89276391827305 l 6.676512883257946 19.737924000758312 a41.836541654987286,41.836541654987286 0 0,0 -0.6822887739184084,0.2242818719640243 l -6.336701371691803 -19.849626794124354" fill="#ffe915" stroke="none" /><path d="M 106.0420521117495 120.11202640906438 l 2.72440234190028 9.06864933234574 a30.469042656657884,30.469042656657884 0 0,0 -0.5022168594247549,0.14618800839161109 l -2.5683254700939186 -9.11408103503987" fill="#ff4a06" stroke="none" /><path d="M 105.69591212413111 120.21278271476187 l 7.860699110626191 27.89484803251712 a49.981254929092074,49.981254929092074 0 0,0 -0.8278290509029843,0.22562848901588536 l -7.380688658788512 -28.025677015677147" fill="#afff20" stroke="none" /><path d="M 104.9986988182912 120.39639698878246 l 3.223960479438459 13.154858935320139 a34.544158695952774,34.544158695952774 0 0,0 -0.5771635505960369,0.1362090264057941 l -2.997664775102543 -13.208264105372157" fill="#ff850c" stroke="none" /><path d="M 104.64783097203109 120.47920084513623 l 1.612671686756897 7.105729009746413 a28.286432235958767,28.286432235958767 0 0,0 -0.47445450158384234,0.10340515035018703 l -1.490454768553919 -7.132365618230319" fill="#ff2a04" stroke="none" /><path d="M 104.29559338865022 120.5559693870025 l 6.134553845862907 29.35606088594451 a50.99018275414594,50.99018275414594 0 0,0 -0.8583432765242519,0.171692694610315 l -5.629714083807697 -29.457042977217686" fill="#a3ff22" stroke="none" /><path d="M 103.94208987418118 120.62667999033965 l 1.525893207116329 7.984118040728123 a29.128621713907226,29.128621713907226 0 0,0 -0.49194811340254135,0.08964933391582651 l -1.3886103601627304 -8.009135548575314" fill="#ff3605" stroke="none" /><path d="M 103.2317021107853 120.74984581791261 l 6.485979831196235 41.64464324427137 a63.14669910340929,63.14669910340929 0 0,0 -1.0725162968538937,0.1576229615104352 l -5.770138428734655 -41.74984727908069" fill="#32ff44" stroke="none" /><path d="M 102.875027216393 120.80226474461374 l 1.0008871418382093 7.241920766969248 a28.310758610825385,28.310758610825385 0 0,0 -0.48198686106984656,0.062402848878620874 l -0.8764224588775872 -7.258035212048263" fill="#ff2a04" stroke="none" /><path d="M 102.51750503828377 120.84855314841334 l 2.8878806996679027 23.915794938924325 a45.08952267057595,45.08952267057595 0 0,0 -0.7692360565154388,0.08619450460542705 l -2.476908741551665 -23.961845204036724" fill="#ebff1a" stroke="none" /><path d="M 101.80034050326958 120.92268563240118 l 2.1341759424434517 24.802359468603054 a45.89401016636548,45.89401016636548 0 0,0 -0.7855109622805854,0.06080351639904748 l -1.7080959853876305 -24.835340751997155" fill="#e1ff1b" stroke="none" /><path d="M 101.44090949804482 120.95050786540614 l 0.9984033816071832 14.516566049145993 a35.55085905270279,35.55085905270279 0 0,0 -0.6091989246027514,0.0366478945297223 l -0.7490601048719667 -14.531565921500407" fill="#ff940d" stroke="none" /><path d="M 100.72087961077811 120.9876233191556 l 0.807986999429817 23.523659897252166 a44.53753211262467,44.53753211262467 0 0,0 -0.7643206475017441,0.019686188647658337 l -0.40405303785732904 -23.534063803249868" fill="#f2ff19" stroke="none" /><line stroke="#e1ed5e" stroke-width="0.3" x1="101.45913802915013" x2="101.54496967792366" y1="184.9874750549273" y2="189.98673829345242" /><path d="M 101.47630435890484 185.9873277026323 a86.0,86.0 0 0,1 -42.54439059252881,-10.42667462771756" fill="none" id="id67" stroke="none" /><text fill="#e1ed5e" style="font-size:6.75px; font-family:Arial;" text-anchor="middle"><textPath startOffset="22.145653131862474" xlink:href="#id67">July</textPath></text><path d="M 100.0 121.0 l 2.3155764144590673e-15 18.908116332572476 a39.908116332572476,39.908116332572476 0 0,0 -0.685075884854157,-0.00588055252965765 l 0.3245829600053026 -18.905330178237254" fill="#ffcf13" stroke="none" /><path d="M 99.27912038922189 120.98762331915562 l -1.0440226429812247 30.39558012177408 a51.413504799977346,51.413504799977346 0 0,0 -0.8818009517227128,-0.037868327022951564 l 1.5656493553047761 -30.373179226325302" fill="#9eff22" stroke="none" /><path d="M 98.55909050195518 120.95050786540614 l -0.5328335011675546 7.747282166097222 a28.765583848049967,28.765583848049967 0 0,0 -0.49234489135151577,-0.03811060839732226 l 0.6657473872943064 -7.7369937907048465" fill="#ff3104" stroke="none" /><path d="M 98.19965949673042 120.92268563240118 l -2.6668997463199307 30.993417580755853 a52.10794573082619,52.10794573082619 0 0,0 -0.8905506892334976,-0.08433607617247332 l 3.1985499989384434 -30.943069749078195" fill="#96ff23" stroke="none" /><path d="M 97.84075906011543 120.88869738790638 l -0.913639938857824 8.838637621110784 a29.885733111859203,29.885733111859203 0 0,0 -0.5098564394437798,-0.05713047749843938 l 1.065232279902403 -8.821651383105374" fill="#ff4206" stroke="none" /><path d="M 97.12497278360702 120.80226474461374 l -4.0508423384794705 29.30987723638373 a50.588481327420354,50.588481327420354 0 0,0 -0.8592210111869171,-0.12627589974394776 l 4.553388455274073 -29.2360202633409" fill="#a8ff21" stroke="none" /><path d="M 96.76829788921471 120.74984581791261 l -2.063998400704919 13.252350345075074 a34.41211687492783,34.41211687492783 0 0,0 -0.5829125780942446,-0.09591804290115533 l 2.291188481852227 -13.214966303678251" fill="#ff840c" stroke="none" /><path d="M 96.41257539226777 120.69131181640829 l -3.4247225212982126 19.752889418253826 a41.04757752741341,41.04757752741341 0 0,0 -0.6932452390877959,-0.12633237577574072 l 3.763302493937066 -19.691188868546718" fill="#ffdf14" stroke="none" /><path d="M 95.70440661134978 120.55596938700252 l -4.918013722135658 23.53447600142746 a45.04284549783739,45.04284549783739 0 0,0 -0.7555134784169454,-0.16466064620843654 l 5.32128961717174 -23.446583897085304" fill="#ecff1a" stroke="none" /><path d="M 95.35216902796893 120.47920084513623 l -1.7631311892711448 7.768681339465514 a28.96624386676308,28.96624386676308 0 0,0 -0.48396779046554017,-0.11421508077389497 l 1.896231133476573 -7.737270115045392" fill="#ff3404" stroke="none" /><path d="M 95.00130118170881 120.39639698878247 l -8.379022212551764 34.1892699755524 a56.201053886206935,56.201053886206935 0 0,0 -0.9350643210950459,-0.23768969388177905 l 8.964691826872189 -34.040395049835354" fill="#68ff28" stroke="none" /><path d="M 94.30408787586889 120.21278271476187 l -8.23478926085052 29.222362003489824 a51.36047093234268,51.36047093234268 0 0,0 -0.8465672748855209,-0.2464233957155173 l 8.735216548117648 -29.07669491347179" fill="#9fff22" stroke="none" /><path d="M 93.95794788825049 120.11202640906438 l -2.2240714212089765 7.403210421177305 a28.730072329989337,28.730072329989337 0 0,0 -0.4711175964336818,-0.14595343565357333 l 2.350829650514292 -7.363940397717083" fill="#ff3004" stroke="none" /><path d="M 93.27111125876986 119.89276391827306 l -7.590215819316516 22.439124376843523 a44.68809150149619,44.68809150149619 0 0,0 -0.7245732006944461,-0.25204417156930764 l 7.974294792055984 -22.305521772705625" fill="#f0ff19" stroke="none" /><path d="M 92.93061703081489 119.77432235084164 l -1.8506121667266382 5.176491596332393 a26.497347600301126,26.497347600301126 0 0,0 -0.4269995181111239,-0.15680013761001252 l 1.939200836491881 -5.143960609713661" fill="#ff0e01" stroke="none" /><path d="M 92.59220618246901 119.65005319985036 l -12.286494363272267 32.59138602192227 a55.8303945795719,55.8303945795719 0 0,0 -0.8938917739801451,-0.34577654115792644 l 12.844158399745941 -32.3756695926263" fill="#6cff28" stroke="none" /><path d="M 91.92203290615298 119.3841803445677 l -4.137985286129456 9.929658306060436 a31.75737125432319,31.75737125432319 0 0,0 -0.5014109720344943,-0.2140225282221174 l 4.307831333334381 -9.857161128178914" fill="#ff5d08" stroke="none" /><path d="M 91.59046798132341 119.24265499422711 l -7.256151424774229 16.603494480156957 a39.119816843772334,39.119816843772334 0 0,0 -0.6130384479060879,-0.27420430021413167 l 7.5401032755359525 -16.47648642903297" fill="#ffc512" stroke="none" /><path d="M 90.93487009805054 118.94263497670748 l -4.779187483488725 9.986663728393731 a32.071318143127776,32.071318143127776 0 0,0 -0.49456988920511286,-0.2419189160234202 l 4.949917621955907 -9.903151062273091" fill="#ff6209" stroke="none" /><path d="M 90.6110303473126 118.78422872680471 l -3.689648040245965 7.381767677729068 a29.252514568836368,29.252514568836368 0 0,0 -0.447246958308581,-0.22836748367310636 l 3.815822220268128 -7.317342242383126" fill="#ff3805" stroke="none" /><path d="M 90.28995756902619 118.62028667847754 l -17.736852602111824 34.012753556227295 a59.35965777618061,59.35965777618061 0 0,0 -0.8994717616887073,-0.4789180501507812 l 18.318113179587094 -33.70326503835394" fill="#46ff2d" stroke="none" /><line stroke="#e1ed5e" stroke-width="0.3" x1="58.13341422392154" x2="55.67067388415222" y1="173.97424548756322" y2="178.32567169271397" /><path d="M 57.64086615596768 174.84453072859336 a86.0,86.0 0 0,1 -31.369924170532247,-30.572349798747897" fill="none" id="id68" stroke="none" /><text fill="#e1ed5e" style="font-size:6.75px; font-family:Arial;" text-anchor="middle"><textPath startOffset="22.145653131862474" xlink:href="#id68">August</textPath></text><path d="M 89.03521579738668 117.91015095944536 l -6.940533347065095 11.33683962110021 a34.29266473421602,34.29266473421602 0 0,0 -0.4994250950052979,-0.3116781966036238 l 7.1341225708601055 -11.21602562765504" fill="#ff820c" stroke="none" /><path d="M 88.72937992617639 117.7192867562869 l -17.794328212966953 27.97563951014097 a54.15530911561755,54.15530911561755 0 0,0 -0.780131385573202,-0.5056717388485475 l 18.271945230797165 -27.66605392958853" fill="#7eff26" stroke="none" /><path d="M 88.1277618465304 117.32195027204791 l -21.00549611927602 30.64764659488067 a58.15520298722133,58.15520298722133 0 0,0 -0.8186173084194631,-0.5714584583008652 l 21.528508518869252 -30.282543320774675" fill="#52ff2b" stroke="none" /><path d="M 87.54013794807813 116.9041958592261 l -15.348681602029913 20.823434392806462 a46.868850898948075,46.868850898948075 0 0,0 -0.6435472890427915,-0.4829298832634398 l 15.70388187998347 -20.556885482279007" fill="#d5ff1c" stroke="none" /><path d="M 87.2517909369889 116.68781488649013 l -6.9983675566443395 9.161087782264055 a32.52834237053358,32.52834237053358 0 0,0 -0.4408210836264,-0.3427851409103751 l 7.154598584905968 -9.039601589732886" fill="#ff6909" stroke="none" /><path d="M 86.68645165197938 116.24036423190432 l -17.344535627562912 21.157513283582425 a48.3582397913456,48.3582397913456 0 0,0 -0.6374667585237191,-0.5317974422514025 l 17.705176720248524 -20.85665365741915" fill="#c2ff1e" stroke="none" /><path d="M 86.13680546590413 115.77377054828092 l -11.56021727328494 13.153405177182913 a38.51144457663895,38.51144457663895 0 0,0 -0.4928272392998241,-0.44068915630546257 l 11.784309539408135 -12.953020490994067" fill="#ffbd11" stroke="none" /><path d="M 85.60350026404147 115.28858382429668 l -14.845951000557365 15.765885492048078 a42.655609122334155,42.655609122334155 0 0,0 -0.5287823184151461,-0.5065614995017466 l 15.114405804837826 -15.508711862240748" fill="#fff417" stroke="none" /><path d="M 85.34317274990678 115.03919595460226 l -12.111365841795957 12.427328306778499 a38.35291535731907,38.35291535731907 0 0,0 -0.46755505800215846,-0.46355888493789604 l 12.322912819928078 -12.217589411611943" fill="#ffba11" stroke="none" /><path d="M 85.08716467003676 114.78537596483092 l -4.961482442077051 4.91907686405047 a27.986674832670793,27.986674832670793 0 0,0 -0.33532460856192536,-0.34407258887021686 l 5.045193851789786 -4.833181583112515" fill="#ff2503" stroke="none" /><path d="M 84.58840730492382 114.26474011684316 l -28.088695387390214 25.998477110694996 a59.27395486020393,59.27395486020393 0 0,0 -0.6847617966323859,-0.7526731671098555 l 28.530854884864482 -25.512466368027464" fill="#46ff2c" stroke="none" /><path d="M 84.3458050057657 113.99807769240083 l -5.387018100956177 4.817104803877049 a28.22664948033076,28.22664948033076 0 0,0 -0.31988715608750784,-0.36397286275226737 l 5.468916321002277 -4.723919663313482" fill="#ff2904" stroke="none" /><path d="M 83.8745106332314 113.45245675266167 l -17.670968005514073 14.741749999955678 a44.01265528601807,44.01265528601807 0 0,0 -0.4790110647320552,-0.5843156128634525 l 17.92142588948476 -14.43623210539373" fill="#f9ff18" stroke="none" /><path d="M 83.64595745247003 113.17365903436017 l -8.640222081600767 6.9599512997078214 a32.09478975527189,32.09478975527189 0 0,0 -0.34193723189312475,-0.43202652228889493 l 8.758425744135454 -6.810604833504246" fill="#ff6209" stroke="none" /><path d="M 83.20337586046588 112.60449989151573 l -19.188463527706244 14.399380759140765 a44.9904001384059,44.9904001384059 0 0,0 -0.4582550346533514,-0.6217109649349484 l 19.432820581943425 -14.067863484936936" fill="#ecff1a" stroke="none" /><path d="M 82.98947788004972 112.3143062007846 l -10.808008545882794 7.82416469736712 a34.34281087100471,34.34281087100471 0 0,0 -0.34160450785685786,-0.48050952060521895 l 10.940728152269614 -7.637477950052397" fill="#ff830c" stroke="none" /><path d="M 82.37810715431573 111.42229804090323 l -34.84946958547004 22.58900514595507 a62.53009371374673,62.53009371374673 0 0,0 -0.5761174702183403,-0.9057523537515664 l 35.23210474731427 -21.987439117524833" fill="#31ff3d" stroke="none" /><path d="M 82.18462484594161 111.11811171558189 l -11.205579639029091 6.99311045584098 a34.20865658930596,34.20865658930596 0 0,0 -0.3066269077643379,-0.5008520099263183 l 11.323974511248833 -6.7997213297901045" fill="#ff810b" stroke="none" /><line stroke="#e1ed5e" stroke-width="0.3" x1="26.387840678322732" x2="22.057713659400548" y1="142.50000000000003" y2="145.00000000000006" /><path d="M 25.521815274538298 143.00000000000003 a86.0,86.0 0 0,1 -11.493303480769221,-40.785679425670985" fill="none" id="id69" stroke="none" /><text fill="#e1ed5e" style="font-size:6.75px; font-family:Arial;" text-anchor="middle"><textPath startOffset="21.40746469413373" xlink:href="#id69">September</textPath></text><path d="M 81.81346652052679 110.50000000000001 l -28.87608641160306 16.67161626288194 a54.34323252576385,54.34323252576385 0 0,0 -0.4595021396886034,-0.811896252185125 l 29.15802191631304 -16.173463240597695" fill="#7cff26" stroke="none" /><path d="M 81.63589988554817 110.18625677009913 l -9.779154851069594 5.424332348807219 a32.18281051576545,32.18281051576545 0 0,0 -0.26382954727322355,-0.485416651241521 l 9.870829747958147 -5.255660864091111" fill="#ff6409" stroke="none" /><path d="M 81.4637452351635 109.86951160357371 l -20.065046412429453 10.68350704638497 a43.731990901439,43.731990901439 0 0,0 -0.34713190528241983,-0.6656711994364131 l 20.245486386686824 -10.337489603844054" fill="#fcff18" stroke="none" /><path d="M 81.1358732173502 109.22738970284198 l -19.40594617915831 9.49242072059048 a42.603166393959114,42.603166393959114 0 0,0 -0.3157112555945361,-0.6597150992264562 l 19.566036692712757 -9.15789311929892" fill="#fff316" stroke="none" /><path d="M 80.9802524753101 108.90220220490708 l -4.130372583189941 1.933222923670788 a25.5604088137549,25.5604088137549 0 0,0 -0.1825932574628087,-0.3989992203926491 l 4.162950305507806 -1.86203472106345" fill="#ff0000" stroke="none" /><path d="M 80.68587082218212 108.24405325689762 l -21.779915660451405 9.296550881606253 a44.681017386731305,44.681017386731305 0 0,0 -0.29505249292169383,-0.7080185729234788 l 21.936293997909587 -8.921299799241492" fill="#f0ff19" stroke="none" /><path d="M 80.5471966667186 107.91128576633889 l -11.387994318220178 4.631398149321963 a33.29374895665915,33.29374895665915 0 0,0 -0.21076738579254667,-0.5312714956439716 l 11.465820378978849 -4.435225636464426" fill="#ff740a" stroke="none" /><path d="M 80.28708602549918 107.23885506374661 l -15.641726156219733 5.743858505046621 a37.662998159759994,37.662998159759994 0 0,0 -0.21765595487160722,-0.6088224434822953 l 15.738022281135283 -5.474501105183404" fill="#ffb110" stroke="none" /><path d="M 80.16572619554312 106.89939002012753 l -23.680802519952405 8.237412379477048 a46.072601992983216,46.072601992983216 0 0,0 -0.25343129506112216,-0.7492245920581987 l 23.818719236585896 -7.829686112944688" fill="#dfff1b" stroke="none" /><path d="M 80.05021161711548 106.5578916946017 l -13.66805674754957 4.49296173502267 a35.38758076976853,35.38758076976853 0 0,0 -0.18474892741185353,-0.5787233837659778 l 13.74317039073868 -4.2576693175653" fill="#ff910d" stroke="none" /><path d="M 79.73907114497094 105.5222062557868 l -38.49129765467716 10.490974338980038 a60.895369878246434,60.895369878246434 0 0,0 -0.2662302631004596,-1.0109196729993284 l 38.66571739858235 -9.828674161607907" fill="#35ff2f" stroke="none" /><path d="M 79.56144815229197 104.8234425847677 l -12.89023612272975 3.04206062667096 a34.244331623606705,34.244331623606705 0 0,0 -0.13011074841814943,-0.5732919645745789 l 12.940557732705566 -2.8203343281573554" fill="#ff810b" stroke="none" /><path d="M 79.48165901384964 104.47187691870673 l -29.665832772285963 6.465530178007302 a51.362225125243356,51.362225125243356 0 0,0 -0.18036038370903182,-0.8630897272415999 l 29.772450866819362 -5.955323999480292" fill="#9fff22" stroke="none" /><path d="M 79.407916724674 104.11899336999214 l -13.16338950916261 2.6330465640566176 a34.424148299926614,34.424148299926614 0 0,0 -0.110933797642139,-0.5804525054246096 l 13.206649599086905 -2.406691493598694" fill="#ff840c" stroke="none" /><path d="M 79.2786578344484 103.40968896794605 l -35.19902477717198 5.791986132283817 a56.67237654853591,56.67237654853591 0 0,0 -0.14971899466147678,-0.9613033468866397 l 35.29326526397172 -5.186894603465728" fill="#62ff29" stroke="none" /><path d="M 79.22317932658666 103.0534771498775 l -15.416629600944724 2.2657136505417066 a36.582231117493286,36.582231117493286 0 0,0 -0.08597779534727755,-0.6220924973420714 l 15.453251912847213 -2.0007328449995496" fill="#ffa20f" stroke="none" /><path d="M 79.17382384314188 102.69636545807758 l -8.546990638133405 1.106579054820216 a29.618327341944426,29.618327341944426 0 0,0 -0.060954396009393744,-0.504789839744499 l 8.564727120402459 -0.9596955381523177" fill="#ff3e05" stroke="none" /><path d="M 79.0935383218832 101.97986365728391 l -19.417941252696295 1.8388992253877399 a40.50481973396053,40.50481973396053 0 0,0 -0.05961224958370373,-0.692784701346741 l 19.44664712497774 -1.5052934766653367" fill="#ffd714" stroke="none" /><path d="M 79.06263194458094 101.62068470465958 l -7.907059793012281 0.6120564357202928 a28.930712934584005,28.930712934584005 0 0,0 -0.03407767803200928,-0.49548195956314917 l 7.916401432209356 -0.4762310520028003" fill="#ff3304" stroke="none" /><path d="M 79.03789590574601 101.26102812881392 l -21.295825357273138 1.2811039712941492 a42.334324574092875,42.334324574092875 0 0,0 -0.03741227502498666,-0.7257881407151454 l 21.314679221754695 -0.9153440372022731" fill="#fff016" stroke="none" /><path d="M 79.00696218219943 100.54070618675478 l -10.897036215678874 0.2806689984673049 a31.90065013531384,31.90065013531384 0 0,0 -0.009400921686162548,-0.54755655827934 l 10.900248568963702 -0.09356552421891252" fill="#ff5f08" stroke="none" /><line stroke="#e1ed5e" stroke-width="0.3" x1="15.003131293944662" x2="10.003315487706104" y1="100.72959589197737" y2="100.7725132973878" /><path d="M 14.003168132696942 100.73817937305945 a86.0,86.0 0 0,1 10.791469493833604,-42.45332614584628" fill="none" id="id70" stroke="none" /><text fill="#e1ed5e" style="font-size:6.75px; font-family:Arial;" text-anchor="middle"><textPath startOffset="22.145653131862435" xlink:href="#id70">October</textPath></text><path d="M 79.00077361379809 99.81974689727619 l -31.712025175172258 -0.2722095960276167 a52.71319344965008,52.71319344965008 0 0,0 0.015534247776948064,-0.9047920546688722 l 31.702679495796644 0.8165485666655413" fill="#8fff24" stroke="none" /><path d="M 79.00696218219943 99.45929381324524 l -19.982692821171632 -0.5146832835820359 a40.98931993009525,40.98931993009525 0 0,0 0.02415503161529353,-0.7032473900280772 l 19.97091310255949 0.8576369381742517" fill="#ffde14" stroke="none" /><path d="M 79.01933749520258 99.09900007780938 l -13.615845753775695 -0.5847230020456341 a34.6283952312711,34.6283952312711 0 0,0 0.030602284531527187,-0.5936761444455692 l 13.603801879787596 0.8183709398679152" fill="#ff870c" stroke="none" /><path d="M 79.06263194458094 98.37931529534042 l -50.66471259139151 -3.921769180610543 a71.81627077496235,71.81627077496235 0 0,0 0.1056943219529538,-1.2283282342064519 l 50.58992464674081 4.790918462192675" fill="#3dffac" stroke="none" /><path d="M 79.0935383218832 98.0201363427161 l -12.399111790556312 -1.1742087778736012 a33.45458708463464,33.45458708463464 0 0,0 0.0590515001781542,-0.5712696970210693 l 12.377127897896493 1.3868829971775833" fill="#ff760a" stroke="none" /><path d="M 79.13060592940154 97.66154086499901 l -27.412453710136596 -3.071622615127633 a48.584007756309546,48.584007756309546 0 0,0 0.09998568839865674,-0.828024932208762 l 27.35568593547827 3.541741224259831" fill="#c0ff1e" stroke="none" /><path d="M 79.2786578344484 96.59031103205396 l -21.31784667316136 -3.5078435576766367 a42.60452622034444,42.60452622034444 0 0,0 0.12494321537794288,-0.720639263932554 l 21.254488640291182 3.8732758545297834" fill="#fff316" stroke="none" /><path d="M 79.48165901384962 95.52812308129327 l -12.490381738151672 -2.7222205654140446 a33.7835879459374,33.7835879459374 0 0,0 0.1283601607474909,-0.5655785522925512 l 12.44181071584652 2.936233451645604" fill="#ff7b0b" stroke="none" /><path d="M 79.64726062577567 94.8264132398404 l -10.629495597328399 -2.7019762145216766 a31.967536282933587,31.967536282933587 0 0,0 0.13975981445380498,-0.5306907797810008 l 10.581546302069867 2.8840474986754616" fill="#ff6008" stroke="none" /><path d="M 79.73907114497095 94.47779374421319 l -8.126885424571178 -2.215018761121121 a29.423335136169403,29.423335136169403 0 0,0 0.13700276560997987,-0.48617448307604 l 8.087664166886617 2.354201168100174" fill="#ff3b05" stroke="none" /><path d="M 79.83685265289637 94.1308016681162 l -60.48944204131091 -17.607594995651397 a84.0,84.0 0 0,0 0.41489471998548133,-1.3810495856371061 l 60.1782710013218 18.643382184879226" fill="#4dd2ff" stroke="none" /><path d="M 80.16572619554312 93.10060997987247 l -8.739408254246763 -3.040019850770699 a30.253052324907515,30.253052324907515 0 0,0 0.17483358503821256,-0.48904065367071403 l 8.685934499164608 3.1895954608223342" fill="#ff4706" stroke="none" /><path d="M 80.28708602549916 92.7611449362534 l -10.108625662912328 -3.7120273624764635 a31.76863315062147,31.76863315062147 0 0,0 0.1923807311387892,-0.5103127455514496 l 10.043414247959102 3.8850083882220576" fill="#ff5d08" stroke="none" /><path d="M 80.5471966667186 92.08871423366112 l -13.323237087912673 -5.418444536208737 a35.382913046135755,35.382913046135755 0 0,0 0.23365217069105199,-0.5606801515724077 l 13.228259072685143 5.646357197222409" fill="#ff910d" stroke="none" /><path d="M 80.68587082218212 91.75594674310238 l -26.475830781776352 -11.30095781052622 a49.78682446920031,49.78682446920031 0 0,0 0.342263360729553,-0.7831655498851361 l 26.27793353902982 11.753785430187223" fill="#b1ff20" stroke="none" /><path d="M 80.9802524753101 91.09779779509293 l -9.211695484917161 -4.311538612713476 a31.170776711528106,31.170776711528106 0 0,0 0.2309914000863865,-0.4826831851195083 l 9.13632482687087 4.469034299898071" fill="#ff5507" stroke="none" /><path d="M 81.1358732173502 90.77261029715801 l -15.156504933651343 -7.413806065196672 a37.872586114053306,37.872586114053306 0 0,0 0.29068127222661005,-0.5815572641179304 l 15.027003748212989 7.672895185478373" fill="#ffb410" stroke="none" /><path d="M 81.46374523516351 90.13048839642627 l -16.123182867905626 -8.584686735273158 a39.26619479077951,39.26619479077951 0 0,0 0.32189800172105654,-0.5922560670392133 l 15.973439516569218 8.86019763578699" fill="#ffc712" stroke="none" /><line stroke="#e1ed5e" stroke-width="0.3" x1="26.387840678322718" x2="22.05771365940052" y1="57.49999999999999" y2="54.99999999999999" /><path d="M 25.521815274538284 56.99999999999999 a86.0,86.0 0 0,1 29.574782752854787,-30.34633250058573" fill="none" id="id71" stroke="none" /><text fill="#e1ed5e" style="font-size:6.75px; font-family:Arial;" text-anchor="middle"><textPath startOffset="21.40746469413373" xlink:href="#id71">November</textPath></text><path d="M 81.81346652052679 89.5 l -24.9173899566151 -14.38606179895461 a49.772123597909214,49.772123597909214 0 0,0 0.4335538051775043,-0.7362691451065901 l 24.666762441307817 14.811682112354774" fill="#b1ff20" stroke="none" /><path d="M 82.18462484594161 88.88188828441811 l -16.280877342569628 -10.16047159024546 a40.19119980563962,40.19119980563962 0 0,0 0.3702993387962018,-0.5821720656729901 l 16.104060312147535 10.438457330597123" fill="#ffd313" stroke="none" /><path d="M 82.37810715431573 88.57770195909679 l -7.248242379352176 -4.69822313951604 a29.63772645193866,29.63772645193866 0 0,0 0.2803948539025174,-0.4245535465250389 l 7.1665230865289296 4.82195656438014" fill="#ff3e05" stroke="none" /><path d="M 82.78059297857968 87.97951657250589 l -11.871838953079655 -8.287465602726796 a35.47835095044457,35.47835095044457 0 0,0 0.3528996115525085,-0.49639749847774045 l 11.727824242997174 8.490040327914055" fill="#ff930d" stroke="none" /><path d="M 82.98947788004972 87.6856937992154 l -13.831422664481398 -10.012883360184224 a38.075306325456765,38.075306325456765 0 0,0 0.38782052984488824,-0.5261530318239472 l 13.657500115052692 10.248842701277034" fill="#ffb710" stroke="none" /><path d="M 83.2033758604659 87.39550010848427 l -19.26759191125957 -14.45876017333903 a45.089330497317064,45.089330497317064 0 0,0 0.4698909915121901,-0.6151023915929208 l 19.016548942393072 14.787383478172835" fill="#ebff1a" stroke="none" /><path d="M 83.64595745247003 86.82634096563983 l -24.606815774976678 -19.821508963226798 a52.597272036726864,52.597272036726864 0 0,0 0.5724416106364282,-0.6982856872725293 l 24.26292734510162 20.24099693219782" fill="#90ff24" stroke="none" /><path d="M 83.8745106332314 86.54754324733833 l -7.082674101462459 -5.908618639473495 a30.22366774413848,30.22366774413848 0 0,0 0.3357783807362939,-0.3955460882046251 l 6.98020115721905 6.029331510127677" fill="#ff4706" stroke="none" /><path d="M 84.34580500576568 86.00192230759919 l -10.790493623284526 -9.64892593542658 a35.47537648358383,35.47537648358383 0 0,0 0.4098289475437067,-0.45047380481511035 l 10.623266974898954 9.83273731579935" fill="#ff930d" stroke="none" /><path d="M 84.83555147118756 85.47280134310135 l -18.733556522473435 -17.94632337833674 a46.94256469165188,46.94256469165188 0 0,0 0.5624461363929487,-0.5771192847393856 l 18.422723584929685 18.265265355143857" fill="#d4ff1c" stroke="none" /><path d="M 85.86807049272753 84.46653392183569 l -26.771695363580044 -29.42678291532049 a60.78264980347251,60.78264980347251 0 0,0 0.7778297030733023,-0.6955401168241079 l 26.262600633683352 29.882018562028" fill="#37ff2e" stroke="none" /><path d="M 86.40962598614128 83.9905735841838 l -4.780454121540183 -5.631362934893429 a28.386811904512125,28.386811904512125 0 0,0 0.3741999098327246,-0.3121708736634392 l 4.683079877545549 5.712595992468749" fill="#ff2b04" stroke="none" /><path d="M 87.25179093698888 83.31218511350988 l -26.65914356393877 -34.89767469520094 a64.91534623220869,64.91534623220869 0 0,0 0.8913402885657633,-0.6688783696771186 l 26.056150286462252 35.35017209214206" fill="#34ff5b" stroke="none" /><path d="M 87.54013794807813 83.09580414077388 l -9.117793924795054 -12.370038582010137 a36.367238547489556,36.367238547489556 0 0,0 0.5057106788631804,-0.36609553220145263 l 8.904102235557906 12.52473488558467" fill="#ff9f0e" stroke="none" /><path d="M 88.12776184653039 82.6780497279521 l -6.2657449007566175 -9.141909064258877 a32.083052851111745,32.083052851111745 0 0,0 0.4569600093784758,-0.30746308778710574 l 6.107888603281152 9.248121826103093" fill="#ff6209" stroke="none" /><path d="M 88.4268655584334 82.4767994020092 l -17.660119271832848 -26.73967144745965 a53.0451219659631,53.0451219659631 0 0,0 0.7641386444467747,-0.49530543726921117 l 17.198494995129046 27.038890726432765" fill="#8bff24" stroke="none" /><path d="M 88.72937992617638 82.28071324371311 l -7.765617120635911 -12.20883994835935 a35.46929791485989,35.46929791485989 0 0,0 0.5165611251909,-0.3223723468147571 l 7.5548918666553115 12.340348092015642" fill="#ff920d" stroke="none" /><line stroke="#e1ed5e" stroke-width="0.3" x1="56.869717070023135" x2="54.33264160355391" y1="26.7553504044142" y2="22.446841604673864" /><path d="M 56.362301976729285 25.89364864446614 a86.0,86.0 0 0,1 42.16139366436587,-11.88097634709845" fill="none" id="id72" stroke="none" /><text fill="#e1ed5e" style="font-size:6.75px; font-family:Arial;" text-anchor="middle"><textPath startOffset="22.145653131862474" xlink:href="#id72">December</textPath></text><path d="M 89.34428304082924 81.90426304109057 l -18.394274473174306 -31.237499427954788 a57.25094073132375,57.25094073132375 0 0,0 0.8511511865903386,-0.4914123666989988 l 17.855330818723566 31.54865869192996" fill="#5cff2a" stroke="none" /><path d="M 89.97174638481275 81.54914285379989 l -6.307816541588251 -11.605671972338685 a34.20909427068571,34.20909427068571 0 0,0 0.5183674475592401,-0.27600146866269537 l 6.107660278242449 11.712243908723957" fill="#ff810b" stroke="none" /><path d="M 90.61103034731259 81.2157712731953 l -9.734323933897437 -19.47516863288627 a42.77244257609618,42.77244257609618 0 0,0 0.6595912924902921,-0.32263915369817375 l 9.398572392145091 19.63940153668166" fill="#fff517" stroke="none" /><path d="M 90.93487009805054 81.0573650232925 l -9.59853161715818 -20.0572394111101 a43.23566194202847,43.23566194202847 0 0,0 0.6722348374908468,-0.3146398470725167 l 9.252808065795811 20.21905548975316" fill="#fffb17" stroke="none" /><path d="M 91.5904679813234 80.7573450057729 l -15.249291933538826 -34.893364212378124 a59.08001799542593,59.08001799542593 0 0,0 0.9328029393134749,-0.39815810690149417 l 14.64805391905492 35.14999696893903" fill="#48ff2c" stroke="none" /><path d="M 91.92203290615298 80.6158196554323 l -5.629528316141365 -13.508818600914347 a35.634881928278304,35.634881928278304 0 0,0 0.5666718974263771,-0.23046052743583384 l 5.396801957524548 13.603466384929472" fill="#ff950d" stroke="none" /><path d="M 92.25597844496254 80.48000691201159 l -4.0796214410690625 -10.28331103746419 a32.06299222614132,32.06299222614132 0 0,0 0.5133555873277643,-0.19857696931243216 l 3.9024935912477687 10.351827894914663" fill="#ff6209" stroke="none" /><path d="M 92.93061703081487 80.22567764915836 l -10.294266201104339 -28.794894704859296 a51.57969714832266,51.57969714832266 0 0,0 0.8363137694605055,-0.2909133418040467 l 9.798446659598829 28.967366479231927" fill="#9cff22" stroke="none" /><path d="M 93.27111125876988 80.10723608172694 l -4.283237207369271 -12.66262972221226 a34.36743477472196,34.36743477472196 0 0,0 0.5604792845579006,-0.18424067336733715 l 4.065235185163609 12.734291316981626" fill="#ff830c" stroke="none" /><path d="M 93.95794788825049 79.88797359093562 l -9.872334630875043 -32.861791183358044 a55.3126844015825,55.3126844015825 0 0,0 0.9117110425668044,-0.2653857970720975 l 9.306763575926613 33.02642067473266" fill="#71ff27" stroke="none" /><path d="M 94.30408787586887 79.78721728523814 l -3.1236947713903764 -11.084890761193536 a32.516608537777316,32.516608537777316 0 0,0 0.538565772760248,-0.14678849626141605 l 2.932947597695451 11.136879751599091" fill="#ff6809" stroke="none" /><path d="M 95.00130118170881 79.60360301121753 l -3.5239858546069693 -14.379064849918029 a35.804593282546406,35.804593282546406 0 0,0 0.5982228824412232,-0.14117897137966925 l 3.27663081842584 14.43743996494393" fill="#ff970d" stroke="none" /><path d="M 95.35216902796891 79.52079915486377 l -6.9342340597581495 -30.553514719343273 a52.33051010916733,52.33051010916733 0 0,0 0.8777510675210426,-0.1913017598190338 l 6.408720575617989 30.668047937296024" fill="#93ff23" stroke="none" /><path d="M 95.70440661134978 79.44403061299748 l -2.4913836656044595 -11.922172730956689 a33.17970423269826,33.17970423269826 0 0,0 0.5585305740619791,-0.11172175737341658 l 2.2863566060115033 11.963183884992972" fill="#ff720a" stroke="none" /><path d="M 96.41257539226777 79.30868818359171 l -5.118645541667112 -29.5229872572162 a50.96343286025449,50.96343286025449 0 0,0 0.8632780757160383,-0.14205207884324003 l 4.611089962898001 29.60650533455511" fill="#a3ff21" stroke="none" /><path d="M 96.76829788921471 79.25015418208739 l -2.307559533183445 -14.816187534554592 a35.99480723644945,35.99480723644945 0 0,0 0.611354479511064,-0.08984805534039125 l 2.052879948064696 14.853616663193868" fill="#ff9a0e" stroke="none" /><path d="M 97.48249496171623 79.15144685158666 l -0.9963567364198077 -8.251263079175018 a29.311201426265995,29.311201426265995 0 0,0 0.5000548167608835,-0.05603218523259236 l 0.8545660180581249 8.26715102491458" fill="#ff3905" stroke="none" /><path d="M 97.84075906011542 79.11130261209362 l -3.451925758512554 -33.39425037899771 a54.57218714676586,54.57218714676586 0 0,0 0.93266579971471,-0.08832442092195951 l 2.878160395412828 33.44858655542485" fill="#7aff26" stroke="none" /><path d="M 98.1996594967304 79.07731436759882 l -1.222584832555794 -14.208288967587748 a35.26079202075646,35.26079202075646 0 0,0 0.6035153295734522,-0.04671590340668759 l 0.9785005082071246 14.22718263798949" fill="#ff900d" stroke="none" /><path d="M 98.9189461498227 79.02784411241856 l -1.5088120736867878 -29.27055114713745 a50.309412794030735,50.309412794030735 0 0,0 0.8628644994147329,-0.03705511428230543 l 1.0061218136712349 29.292138829845584" fill="#abff21" stroke="none" /><path d="M 99.63950707515114 79.00309439819443 l -0.3212491212751832 -18.711150785847078 a39.713908323186416,39.713908323186416 0 0,0 0.6817420461240307,-0.0058519355337724585 l 4.5835855855054516e-15 18.713908323186416" fill="#ffcd13" stroke="none" /></svg>