<?xml version="1.0" encoding="utf-8" ?>
<svg baseProfile="full" height="200mm" version="1.1" viewBox="0,0,200,200" width="200mm" xmlns="http://www.w3.org/2000/svg" xmlns:ev="http://www.w3.org/2001/xml-events" xmlns:xlink="http://www.w3.org/1999/xlink"><defs /><rect fill="#1a1a1a" height="200" width="200" x="0" y="0" /><text alignment-baseline="middle" fill="#e1ed5e" style="dominant-baseline: central; font-size:9.0px; font-family:Arial;" text-anchor="middle" x="100.0" y="100.0">2022</text><line stroke="#e1ed5e" stroke-width="0.3" x1="100.0" x2="100.0" y1="15.0" y2="10.0" /><path d="M 100.0 14.0 a86.0,86.0 0 0,1 42.46469731375804,11.215312516191453" fill="none" id="id85" stroke="none" /><text fill="#e1ed5e" style="font-size:6.75px; font-family:Arial;" text-anchor="middle"><textPath startOffset="22.20632615414155" xlink:href="#id85">January</textPath></text><path d="M 100.0 79.0 l 0.0 -20.17987521209723 a41.17987521209723,41.17987521209723 0 0,0 0.7088438584786579,0.0061012428799186915 l -0.3473633792061296 20.17688534582587" fill="#ff4f07" stroke="none" /><path d="M 100.36148047927253 79.00311137660856 l 0.8821351465908533 -51.23953985294736 a72.24713266865407,72.24713266865407 0 0,0 1.2432471157140148,0.03210940506262227 l -1.764008897499736 51.21676365574238" fill="#3aff90" stroke="none" /><path d="M 101.08401301168833 79.027996857942 l 1.3255426844244342 -25.64478935486612 a46.67902421167295,46.67902421167295 0 0,0 0.8020744504145818,0.04838332121932137 l -1.766779183678628 25.618172764266493" fill="#ffb010" stroke="none" /><path d="M 101.44485096284872 79.0497635885617 l 1.794450437001843 -26.019403973455823 a47.08120847477633,47.08120847477633 0 0,0 0.8080252109993464,0.0627183077586719 l -2.2420658373635307 25.984660403508688" fill="#ffb711" stroke="none" /><path d="M 101.80526077348638 79.07773832637324 l 1.4278122217746936 -16.54778155240185 a37.60926615015426,37.60926615015426 0 0,0 0.6445061845721879,0.06120362818406008 l -1.7124435334371257 16.520752379702614" fill="#ff0c01" stroke="none" /><path d="M 102.52436894288641 79.15227682838746 l 2.924644709654468 -24.153435833543753 a45.32985838928836,45.32985838928836 0 0,0 0.7738136472088061,0.10046322000808122 l -3.33997308537112 24.099514290371534" fill="#ff990e" stroke="none" /><path d="M 102.88285421437855 79.19881850522331 l 6.2341749156085235 -44.982574298406185 a66.41251950057423,66.41251950057423 0 0,0 1.131008431490102,0.16668124278321303 l -7.007552327527281 44.868598571462" fill="#30ff38" stroke="none" /><path d="M 103.59715602781102 79.31037775812273 l 6.092211495996899 -35.040335613826606 a56.5659972563903,56.5659972563903 0 0,0 0.9578640287643959,0.17504352874390325 l -6.694470645864197 34.93027660373197" fill="#b0ff20" stroke="none" /><path d="M 104.66035177308747 79.52364482259891 l 8.651335386025552 -38.011683398250746 a59.9837617313972,59.9837617313972 0 0,0 1.0048031687613992,0.2378044461574735 l -9.304362241749475 37.8571330399524" fill="#7fff26" stroke="none" /><path d="M 105.01212808612495 79.60689891045804 l 3.9588863733366857 -16.107722832734584 a37.58708883961227,37.58708883961227 0 0,0 0.626972529558213,0.1598292579100934 l -4.235567791579924 16.037190578655622" fill="#ff0b01" stroke="none" /><path d="M 105.36241919743992 79.69619591428918 l 16.08725759231978 -60.91141225713248 a84.0,84.0 0 0,0 1.3948084431051566,0.3812538366948255 l -17.13336392464865 60.62547187961136" fill="#4dd2ff" stroke="none" /><path d="M 106.0581310904928 79.89281104454417 l 7.4902538997714245 -24.86046409979434 a46.9643328190848,46.9643328190848 0 0,0 0.7720368880966735,0.2398756192146404 l -7.917076160578817 24.72784834569718" fill="#ffb510" stroke="none" /><path d="M 106.40334571778207 80.00007090966166 l 11.344248564849082 -35.43212827789347 a58.20386659746778,58.20386659746778 0 0,0 0.9515422483248317,0.31370851875617234 l -11.95247363541633 35.23160603487806" fill="#98ff23" stroke="none" /><path d="M 107.08798089147638 80.2323363322302 l 5.397149866828272 -15.052106511786485 a36.99047019718837,36.99047019718837 0 0,0 0.5975152985175746,0.22006992708305956 l -5.655447491118423 14.956973316897102" fill="#ff0000" stroke="none" /><path d="M 107.4271985657038 80.35727306442388 l 7.9569043604930325 -21.04364091292461 a43.497714325551996,43.497714325551996 0 0,0 0.6980696196069608,0.270840167245267 l -8.31795714509966 20.903558041788795" fill="#ff790b" stroke="none" /><path d="M 107.76421540070413 80.48803036053334 l 13.363492991829794 -33.58331216701706 a57.14445740428261,57.14445740428261 0 0,0 0.910817697944414,0.3715454082619499 l -13.939594559362597 33.34830587257153" fill="#a7ff21" stroke="none" /><line stroke="#e1ed5e" stroke-width="0.3" x1="143.23703022742887" x2="145.7803849466894" y1="26.81831364943548" y2="22.513508569990506" /><path d="M 143.74570117128098 25.957352633546492 a86.0,86.0 0 0,1 28.547481713284135,27.462654790039103" fill="none" id="id86" stroke="none" /><text fill="#e1ed5e" style="font-size:6.75px; font-family:Arial;" text-anchor="middle"><textPath startOffset="19.985693538727396" xlink:href="#id86">February</textPath></text><line stroke="#e1ed5e" stroke-width="0.3" x1="172.23445277983987" x2="176.4835382374775" y1="55.19839476539836" y2="52.563006222186495" /><path d="M 173.08426987136738 54.67131705675599 a86.0,86.0 0 0,1 12.851231095245387,41.99856678651699" fill="none" id="id87" stroke="none" /><text fill="#e1ed5e" style="font-size:6.75px; font-family:Arial;" text-anchor="middle"><textPath startOffset="22.20632615414155" xlink:href="#id87">March</textPath></text><line stroke="#e1ed5e" stroke-width="0.3" x1="184.98032266829074" x2="189.97916517819016" y1="98.17113171792111" y2="98.06355123074" /><path d="M 185.9800911702706 98.14961562048488 a86.0,86.0 0 0,1 -9.607161424134198,41.387399972396054" fill="none" id="id88" stroke="none" /><text fill="#e1ed5e" style="font-size:6.75px; font-family:Arial;" text-anchor="middle"><textPath startOffset="21.466115282336823" xlink:href="#id88">April</textPath></text><line stroke="#e1ed5e" stroke-width="0.3" x1="174.80103733775053" x2="179.2010983576182" y1="140.37084112569926" y2="142.7455964860345" /><path d="M 175.68104954172406 140.8457921977663 a86.0,86.0 0 0,1 -30.038265399797805,32.042727171017184" fill="none" id="id89" stroke="none" /><text fill="#e1ed5e" style="font-size:6.75px; font-family:Arial;" text-anchor="middle"><textPath startOffset="22.206326154141568" xlink:href="#id89">May</textPath></text><line stroke="#e1ed5e" stroke-width="0.3" x1="143.8653032363475" x2="146.44561519142675" y1="172.8068346515853" y2="177.08958963109032" /><path d="M 144.38136562736335 173.6633856474863 a86.0,86.0 0 0,1 -40.68145358897372,12.25698825130547" fill="none" id="id90" stroke="none" /><text fill="#e1ed5e" style="font-size:6.75px; font-family:Arial;" text-anchor="middle"><textPath startOffset="21.466115282336833" xlink:href="#id90">June</textPath></text><line stroke="#e1ed5e" stroke-width="0.3" x1="102.19456741930631" x2="102.32365962044197" y1="184.97166512339345" y2="189.96999836594603" /><path d="M 102.22038585953345 185.97133177190398 a86.0,86.0 0 0,1 -42.740103519485714,-10.115201625700543" fill="none" id="id91" stroke="none" /><text fill="#e1ed5e" style="font-size:6.75px; font-family:Arial;" text-anchor="middle"><textPath startOffset="22.20632615414155" xlink:href="#id91">July</textPath></text><line stroke="#e1ed5e" stroke-width="0.3" x1="58.666819895761336" x2="56.23545636021788" y1="174.27360380694188" y2="178.64263932499728" /><path d="M 58.180547188652646 175.14741091055294 a86.0,86.0 0 0,1 -31.652253787137756,-30.449443065178592" fill="none" id="id92" stroke="none" /><text fill="#e1ed5e" style="font-size:6.75px; font-family:Arial;" text-anchor="middle"><textPath startOffset="22.20632615414155" xlink:href="#id92">August</textPath></text><line stroke="#e1ed5e" stroke-width="0.3" x1="26.63291911575756" x2="22.317208475507996" y1="142.92168965132927" y2="145.44649492493687" /><path d="M 25.769776987707644 143.4266507060508 a86.0,86.0 0 0,1 -11.730757126820373,-40.83630448921669" fill="none" id="id93" stroke="none" /><text fill="#e1ed5e" style="font-size:6.75px; font-family:Arial;" text-anchor="middle"><textPath startOffset="21.46611528233685" xlink:href="#id93">September</textPath></text><line stroke="#e1ed5e" stroke-width="0.3" x1="15.007084014347285" x2="10.007500721073583" y1="101.09737516637583" y2="101.16192664675087" /><path d="M 14.007167355692545 101.11028546245083 a86.0,86.0 0 0,1 10.666146001902534,-42.60595125391555" fill="none" id="id94" stroke="none" /><text fill="#e1ed5e" style="font-size:6.75px; font-family:Arial;" text-anchor="middle"><textPath startOffset="22.20632615414155" xlink:href="#id94">October</textPath></text><line stroke="#e1ed5e" stroke-width="0.3" x1="26.266209847984243" x2="21.928928074336255" y1="57.711370442889674" y2="55.22380399835377" /><path d="M 25.398753493254645 57.213857153982495 a86.0,86.0 0 0,1 29.58750427330803,-30.492523968695096" fill="none" id="id95" stroke="none" /><text fill="#e1ed5e" style="font-size:6.75px; font-family:Arial;" text-anchor="middle"><textPath startOffset="21.46611528233685" xlink:href="#id95">November</textPath></text><line stroke="#e1ed5e" stroke-width="0.3" x1="56.762969772571076" x2="54.21961505331055" y1="26.818313649435495" y2="22.513508569990535" /><path d="M 56.25429882871897 25.957352633546506 a86.0,86.0 0 0,1 42.265352541879196,-11.944610805530505" fill="none" id="id96" stroke="none" /><text fill="#e1ed5e" style="font-size:6.75px; font-family:Arial;" text-anchor="middle"><textPath startOffset="22.20632615414155" xlink:href="#id96">December</textPath></text></svg>