<?xml version="1.0" encoding="utf-8" ?>
<svg baseProfile="full" height="200mm" version="1.1" viewBox="0,0,200,200" width="200mm" xmlns="http://www.w3.org/2000/svg" xmlns:ev="http://www.w3.org/2001/xml-events" xmlns:xlink="http://www.w3.org/1999/xlink"><defs /><rect fill="#1a1a1a" height="200" width="200" x="0" y="0" /><text alignment-baseline="middle" fill="#e1ed5e" style="dominant-baseline: central; font-size:9.0px; font-family:Arial;" text-anchor="middle" x="100.0" y="100.0">2018</text><line stroke="#e1ed5e" stroke-width="0.3" x1="100.0" x2="100.0" y1="15.0" y2="10.0" /><path d="M 100.0 14.0 a86.0,86.0 0 0,1 42.46469731375804,11.215312516191453" fill="none" id="id37" stroke="none" /><text fill="#e1ed5e" style="font-size:6.75px; font-family:Arial;" text-anchor="middle"><textPath startOffset="22.20632615414155" xlink:href="#id37">January</textPath></text><path d="M 100.0 79.0 l 0.0 -63.0 a84.0,84.0 0 0,0 1.4459219170901134,0.012445506434235476 l -1.084441437817585 62.990665870174325" fill="#4dd2ff" stroke="none" /><path d="M 101.80526077348638 79.07773832637324 l 0.7741022137098414 -8.971539910044624 a30.004874379734233,30.004874379734233 0 0,0 0.5141904930514307,0.048828583038947486 l -0.9284178338515163 8.956885782490499" fill="#ff5808" stroke="none" /><path d="M 102.16513564639614 79.11191278185805 l 1.2205571012184906 -11.775291412993424 a32.83838027342641,32.83838027342641 0 0,0 0.5617447427154371,0.06311856710984227 l -1.423068547443653 11.75253689241298" fill="#ff800b" stroke="none" /><path d="M 104.307194497241 79.44645832069477 l 1.1293004792623291 -5.388919512189583 a26.505976124296193,26.505976124296193 0 0,0 0.4457513486527654,0.0974239798375618 l -1.2218945520686224 5.36868203425615" fill="#ff2603" stroke="none" /><path d="M 104.66035177308747 79.52364482259891 l 2.6435597744720787 -11.615103646761684 a32.91213838931631,32.91213838931631 0 0,0 0.5513195569891848,0.13047952671885857 l -2.843103018423787 11.567878207901956" fill="#ff810b" stroke="none" /><path d="M 106.74666289553966 80.11325718540242 l 2.9460981480646775 -8.684040848677693 a30.170172286251383,30.170172286251383 0 0,0 0.49036298770519443,0.17107801788068216 l -3.0951431398331457 8.632041977624803" fill="#ff5b08" stroke="none" /><line stroke="#e1ed5e" stroke-width="0.3" x1="143.23703022742887" x2="145.7803849466894" y1="26.81831364943548" y2="22.513508569990506" /><path d="M 143.74570117128098 25.957352633546492 a86.0,86.0 0 0,1 28.547481713284135,27.462654790039103" fill="none" id="id38" stroke="none" /><text fill="#e1ed5e" style="font-size:6.75px; font-family:Arial;" text-anchor="middle"><textPath startOffset="19.985693538727396" xlink:href="#id38">February</textPath></text><path d="M 111.60114157652 82.49532879139004 l 3.9377277919915596 -5.941538585075559 a28.127943667129,28.127943667129 0 0,0 0.40128570850805184,0.27094990168544086 l -4.039418194906154 5.872876771091448" fill="#ff3d05" stroke="none" /><path d="M 115.9244219780498 86.31012108654704 l 5.422236534499826 -4.661378711247515 a28.15046156032855,28.15046156032855 0 0,0 0.3127239955935017,0.370166572556885 l -5.501671143580444 4.5673531890615235" fill="#ff3e05" stroke="none" /><path d="M 116.15771136456269 86.58626213691792 l 5.681990389524406 -4.717049828776588 a28.38482050383142,28.38482050383142 0 0,0 0.3088559184412356,0.378620836474083 l -5.762344800042051 4.618544822694404" fill="#ff4106" stroke="none" /><path d="M 116.60985879189232 87.15038557335679 l 4.5665481749205155 -3.5327442601175054 a26.773529617250013,26.773529617250013 0 0,0 0.27885786154356473,0.36694425844021894 l -4.626681976688194 3.453615225796253" fill="#ff2904" stroke="none" /><path d="M 117.65298651832404 88.62581576622439 l 6.138330115124547 -3.955053018631556 a28.30216002169437,28.30216002169437 0 0,0 0.26034268013439604,0.41179959854274606 l -6.2055003915048985 3.8488057723746034" fill="#ff4006" stroke="none" /><line stroke="#e1ed5e" stroke-width="0.3" x1="172.23445277983987" x2="176.4835382374775" y1="55.19839476539836" y2="52.563006222186495" /><path d="M 173.08426987136738 54.67131705675599 a86.0,86.0 0 0,1 12.851231095245387,41.99856678651699" fill="none" id="id39" stroke="none" /><text fill="#e1ed5e" style="font-size:6.75px; font-family:Arial;" text-anchor="middle"><textPath startOffset="22.20632615414155" xlink:href="#id39">March</textPath></text><path d="M 117.84615892207809 88.93136811851018 l 8.779799026878804 -5.445449849813838 a31.33139850258519,31.33139850258519 0 0,0 0.28031784743973415,0.46076883657569995 l -8.872232672604762 5.293513240031057" fill="#ff6b09" stroke="none" /><path d="M 118.21658344932153 89.55222093294921 l 13.461566293210883 -7.720628345001949 a36.51843642601145,36.51843642601145 0 0,0 0.308045807848381,0.5479791194873379 l -13.592469742351698 7.487765715579818" fill="#ffb210" stroke="none" /><path d="M 118.3937258080291 89.86733742301442 l 6.357481355362026 -3.5021840645923423 a28.258296109009354,28.258296109009354 0 0,0 0.23103431294301313,0.42807149385229826 l -6.416823767523504 3.392231587407585" fill="#ff3f05" stroke="none" /><path d="M 119.04729006885535 91.15688171328212 l 10.567600128430387 -4.906237979503868 a32.6509803701632,32.6509803701632 0 0,0 0.2322848007703629,0.5118087679803601 l -10.650487246164097 4.723607202681445" fill="#ff7e0b" stroke="none" /><path d="M 119.196687751892 91.48605970444005 l 3.9722988122548943 -1.7617578282653783 a25.345451472435975,25.345451472435975 0 0,0 0.17344651618193124,0.40033847305932196 l -4.002036038279506 1.6931202106194536" fill="#ff1402" stroke="none" /><path d="M 119.34039704204932 91.81776055985345 l 10.618804903183385 -4.4924416027832565 a32.53000646687977,32.53000646687977 0 0,0 0.21373501989910287,0.5175763039953823 l -10.694561609968686 4.308990728334571" fill="#ff7c0b" stroke="none" /><path d="M 120.37134235888165 94.90015583598534 l 5.988391900008035 -1.4991582265453198 a27.17319309079996,27.17319309079996 0 0,0 0.10968549934662673,0.4547172073846521 l -6.013310199615481 1.3958557875012616" fill="#ff2f04" stroke="none" /><path d="M 120.45610955862082 95.25157060432595 l 7.882714874333965 -1.829796370602158 a29.09230180776241,29.09230180776241 0 0,0 0.10903464034769861,0.488780913134268 l -7.913043901683702 1.6938372879179262" fill="#ff4b07" stroke="none" /><path d="M 120.6074358757038 95.95851677861258 l 14.073186647130045 -2.7600011980572146 a35.34127571097623,35.34127571097623 0 0,0 0.11193806523893604,0.5979776205023669 l -14.118610436278841 2.5173455000922846" fill="#ffa20f" stroke="none" /><path d="M 120.78858239683441 97.02765380044208 l 11.713938667106598 -1.6748559576785127 a32.8330681387249,32.8330681387249 0 0,0 0.07517834663412269,0.5601660041831524 l -11.741033012798557 1.472971611430696" fill="#ff800b" stroke="none" /><path d="M 120.94382443527127 98.46500227214037 l 13.488947243427416 -0.9886209385430884 a34.52512732273134,34.52512732273134 0 0,0 0.03833836022206672,0.593077463675486 l -13.503966194653898 0.7562844106145672" fill="#ff970e" stroke="none" /><line stroke="#e1ed5e" stroke-width="0.3" x1="184.98032266829074" x2="189.97916517819016" y1="98.17113171792111" y2="98.06355123074" /><path d="M 185.9800911702706 98.14961562048488 a86.0,86.0 0 0,1 -9.607161424134198,41.387399972396054" fill="none" id="id40" stroke="none" /><text fill="#e1ed5e" style="font-size:6.75px; font-family:Arial;" text-anchor="middle"><textPath startOffset="21.466115282336823" xlink:href="#id40">April</textPath></text><path d="M 120.9904718944345 100.63252640178507 l 12.140708565147806 0.36584783526806997 a33.14621953952849,33.14621953952849 0 0,0 -0.02209411321900822,0.5701508891974582 l -12.132612319077595 -0.5747759714795343" fill="#ff840c" stroke="none" /><path d="M 120.92983693683757 101.71520430193887 l 15.948233475909378 1.3069609069939767 a37.00169671673998,37.00169671673998 0 0,0 -0.05748549018175513,0.6343475939670307 l -15.923373389450546 -1.581289889509578" fill="#ffb911" stroke="none" /><path d="M 120.81339534386255 102.79330883721812 l 4.071393641091845 0.5464105999797411 a25.107896143343126,25.107896143343126 0 0,0 -0.06117473015003649,0.42785592018766455 l -4.061384859925207 -0.6164119921478148" fill="#ff1101" stroke="none" /><path d="M 120.5718875245553 104.21870165774334 l 2.93288203072869 0.6014496370462844 a23.9939169447522,23.9939169447522 0 0,0 -0.08645346620907375,0.40388181228791037 l -2.922094525795173 -0.6518452687503639" fill="#ff0000" stroke="none" /><path d="M 120.49622156327973 104.57218783832717 l 26.779049308813693 5.973727557233201 a48.43725392257619,48.43725392257619 0 0,0 -0.18853493921473752,0.8122035837192974 l -26.672253803668404 -6.433799798301063" fill="#b6ff1f" stroke="none" /><path d="M 119.79798401119884 107.00284435728193 l 53.62565263166922 18.968198919891215 a77.88148372218339,77.88148372218339 0 0,0 -0.4579273217431428,1.2600193174782355 l -53.29120104892085 -19.888466034375583" fill="#45fff0" stroke="none" /><path d="M 118.97047184881838 109.00673069616215 l 7.550692136677349 3.5848897795822654 a29.358491878002546,29.358491878002546 0 0,0 -0.22067344445933632,0.4546526569014376 l -7.4878654356032985 -3.7143313924489783" fill="#ff4f07" stroke="none" /><path d="M 118.64920377521936 109.65438752849418 l 10.110785925192193 5.234188371578447 a32.38528523728025,32.38528523728025 0 0,0 -0.26054346244094745,0.4928500425708307 l -10.019189954526352 -5.407453429235412" fill="#ff7a0b" stroke="none" /><line stroke="#e1ed5e" stroke-width="0.3" x1="174.80103733775053" x2="179.2010983576182" y1="140.37084112569926" y2="142.7455964860345" /><path d="M 175.68104954172406 140.8457921977663 a86.0,86.0 0 0,1 -30.038265399797805,32.042727171017184" fill="none" id="id41" stroke="none" /><text fill="#e1ed5e" style="font-size:6.75px; font-family:Arial;" text-anchor="middle"><textPath startOffset="22.206326154141568" xlink:href="#id41">May</textPath></text><path d="M 118.30583269289576 110.29060199501025 l 5.672963706870049 3.1890497754955125 a27.507884117749235,27.507884117749235 0 0,0 -0.2355827642213744,0.41075840675025765 l -5.6172289464962954 -3.286228028104085" fill="#ff3405" stroke="none" /><path d="M 118.12598468904814 110.60418214915192 l 9.653552365745774 5.647584361835872 a32.18419788819247,32.18419788819247 0 0,0 -0.28386328329552263,0.47577119058884476 l -9.554908206752026 -5.8129176463108205" fill="#ff770b" stroke="none" /><path d="M 117.94076556474637 110.91462005526583 l 5.611796821003451 3.414047739911325 a27.568712623537284,27.568712623537284 0 0,0 -0.25013402826743125,0.4032956979755785 l -5.552198153068057 -3.510139769252177" fill="#ff3505" stroke="none" /><path d="M 117.55443506779139 111.5257021239791 l 21.27711423645964 13.969898763490255 a46.45336248304966,46.45336248304966 0 0,0 -0.44461817153919514,0.6646438398653953 l -21.033492959509722 -14.334079517561458" fill="#ceff1d" stroke="none" /><path d="M 116.93607887273984 112.41649034213515 l 6.56736376920506 4.814786788981877 a29.143244973622107,29.143244973622107 0 0,0 -0.3000903989281271,0.4020201294363437 l -6.483512103581841 -4.927119797927536" fill="#ff4c07" stroke="none" /><path d="M 116.71984013943494 112.70617746262583 l 10.044640064299562 7.633385136510337 a33.61599630087251,33.61599630087251 0 0,0 -0.3540775816274109,0.4576930043917593 l -9.911755665454084 -7.805156135015348" fill="#ff8b0c" stroke="none" /><path d="M 116.27256486870786 113.27417163493432 l 9.137833540926815 7.454090475127045 a32.792517400159596,32.792517400159596 0 0,0 -0.3605677829170206,0.43432712217881897 l -9.008169758116251 -7.610278854419635" fill="#ff800b" stroke="none" /><path d="M 116.0416608686014 113.55231037782055 l 9.107424454969529 7.694131173031166 a32.922450868457666,32.922450868457666 0 0,0 -0.36944867383047947,0.42975227308446134 l -8.97363327156827 -7.849760545277155" fill="#ff810b" stroke="none" /><path d="M 115.32070863581623 114.36230785411682 l 3.8523320971043677 3.6113459794910248 a26.280367635872196,26.280367635872196 0 0,0 -0.31222759773820974,0.32736938795902704 l -3.7895979479871933 -3.6771224840325587" fill="#ff2203" stroke="none" /><path d="M 115.07121518719521 114.62390073753431 l 5.372389225851642 5.212936434548679 a28.485804717242623,28.485804717242623 0 0,0 -0.34448748384671485,0.34896400238671854 l -5.2818611169493925 -5.304640930916062" fill="#ff4206" stroke="none" /><path d="M 114.55890576462653 115.13401014063108 l 5.643211706882812 5.866129266747357 a29.13985939331197,29.13985939331197 0 0,0 -0.3644760406434988,0.34463484587584287 l -5.541399831848506 -5.962398749369121" fill="#ff4c07" stroke="none" /><path d="M 114.29624159901734 115.38237550388516 l 6.022337034534263 6.479874380587394 a29.84631648460057,29.84631648460057 0 0,0 -0.37933311030925987,0.34651180236627277 l -5.909904374758138 -6.582578949540251" fill="#ff5608" stroke="none" /><path d="M 113.75828350139079 115.86535959552629 l 8.203801169672799 9.460210323032006 a33.521898138362495,33.521898138362495 0 0,0 -0.43919197469195864,0.3742889288988957 l -8.039743718403793 -9.60002364215385" fill="#ff8a0c" stroke="none" /><path d="M 113.20401910651253 116.32954008644616 l 4.490579939960728 5.553544307188415 a28.14192989107864,28.14192989107864 0 0,0 -0.3793029712449248,0.301341220330905 l -4.3943194759984525 -5.630019441524445" fill="#ff3d05" stroke="none" /><path d="M 112.92097659922987 116.55440617244103 l 7.410814452282247 9.49476470060232 a33.04453102308094,33.04453102308094 0 0,0 -0.45140603004416296,0.3461188948972727 l -7.24627969374459 -9.620922937326963" fill="#ff830c" stroke="none" /><path d="M 112.34349029814194 116.9893568818739 l 6.424634294823036 8.842750489033492 a31.930240712514905,31.930240712514905 0 0,0 -0.4474379646142903,0.31923510753751566 l -6.271469002359861 -8.952029858415226" fill="#ff740a" stroke="none" /><path d="M 111.7513745106137 117.40417183066458 l 8.375792115354106 12.404823372949885 a35.967749880115974,35.967749880115974 0 0,0 -0.5160949080129317,0.3420395632357931 l -8.16102250860121 -12.547160957276997" fill="#ffab0f" stroke="none" /><line stroke="#e1ed5e" stroke-width="0.3" x1="143.8653032363475" x2="146.44561519142675" y1="172.8068346515853" y2="177.08958963109032" /><path d="M 144.38136562736335 173.6633856474863 a86.0,86.0 0 0,1 -40.68145358897372,12.25698825130547" fill="none" id="id42" stroke="none" /><text fill="#e1ed5e" style="font-size:6.75px; font-family:Arial;" text-anchor="middle"><textPath startOffset="21.466115282336833" xlink:href="#id42">June</textPath></text><path d="M 110.8373102113329 117.98757091392108 l 3.146849909806086 5.223084400491772 a27.097809033538773,27.097809033538773 0 0,0 -0.4016051807606958,0.23727541965706864 l -3.056476858017008 -5.27647839244259" fill="#ff2e04" stroke="none" /><path d="M 110.21172684928248 118.3499491758327 l 4.590000973963866 8.247996233387063 a30.439149898531987,30.439149898531987 0 0,0 -0.4600329430430852,0.2508466401155521 l -4.447345219052132 -8.325783525262386" fill="#ff5e08" stroke="none" /><path d="M 109.57404056367764 118.69057910512821 l 2.713988284650196 5.2982867982711515 a26.95294678339668,26.95294678339668 0 0,0 -0.41474949664234034,0.2079640076747831 l -2.622384880325095 -5.344218646855237" fill="#ff2c04" stroke="none" /><path d="M 108.92500713936063 119.00905698771935 l 2.8856640548100057 6.146073791177529 a27.789792344676076,27.789792344676076 0 0,0 -0.4347541036287455,0.19957428563372911 l -2.7794419554138408 -6.194835147145333" fill="#ff3805" stroke="none" /><path d="M 108.2653958097858 119.30500536409082 l 5.663794726442694 13.22859668083083 a35.39007786105998,35.39007786105998 0 0,0 -0.5620762389176451,0.2349479134533084 l -5.435247028027588 -13.324129637304111" fill="#ffa30f" stroke="none" /><path d="M 107.93186726928326 119.44442032107085 l 3.200601055702125 7.846050632760873 a29.473745196169688,29.473745196169688 0 0,0 -0.47140999150027085,0.18758376441140698 l -3.065069988159988 -7.899981241578349" fill="#ff5107" stroke="none" /><path d="M 107.2578585660854 119.70592522655815 l 4.100165411706128 11.132423191208575 a32.863481888194116,32.863481888194116 0 0,0 -0.5325142883881641,0.19094067786510943 l -3.90793156268823 -11.201351410113645" fill="#ff810b" stroke="none" /><path d="M 106.57524785965236 119.94407469862006 l 3.852122260633866 11.684276510050964 a33.3028924840543,33.3028924840543 0 0,0 -0.5459750013805355,0.17480395411976946 l -3.6504259141623905 -11.74885331083044" fill="#ff870c" stroke="none" /><path d="M 106.2309692047433 120.05430185196036 l 3.5214192923023346 11.333647000114956 a32.86810634243786,32.86810634243786 0 0,0 -0.5417368641846202,0.16322087324356632 l -3.3258074536774687 -11.392583242464248" fill="#ff810b" stroke="none" /><path d="M 105.53697534728816 120.25689768951611 l 5.090826123788971 18.624670957803026 a40.30789680180324,40.30789680180324 0 0,0 -0.670856912495148,0.1771794079135638 l -4.769478768482325 -18.709541715020173" fill="#ffe415" stroke="none" /><path d="M 104.83641907484287 120.43548508189849 l 2.6525500475623627 11.207909423711584 a32.517519498787316,32.517519498787316 0 0,0 -0.5457985911927261,0.12422198238781224 l -2.4592313069767746 -11.25190813967708" fill="#ff7c0b" stroke="none" /><path d="M 104.13013068566511 120.58985236759428 l 2.483137181453989 12.379130798953968 a33.62572174568765,33.62572174568765 0 0,0 -0.5684866763390285,0.10895182453006794 l -2.269682890543256 -12.420039821832503" fill="#ff8b0c" stroke="none" /><path d="M 102.34483914955558 120.86867818915974 l 1.301778325049722 11.58561044335805 a32.65851603562033,32.65851603562033 0 0,0 -0.5591875147448709,0.05796207228311005 l -1.1021582136992485 -11.606301884096919" fill="#ff7e0b" stroke="none" /><path d="M 101.62511606390274 120.93702456842531 l 1.1412607165388642 14.703321314644906 a35.747546701224785,35.747546701224785 0 0,0 -0.6138998357740935,0.04233812694956522 l -0.8879981199858404 -14.720787786110758" fill="#ffa80f" stroke="none" /><line stroke="#e1ed5e" stroke-width="0.3" x1="102.19456741930631" x2="102.32365962044197" y1="184.97166512339345" y2="189.96999836594603" /><path d="M 102.22038585953345 185.97133177190398 a86.0,86.0 0 0,1 -42.740103519485714,-10.115201625700543" fill="none" id="id43" stroke="none" /><text fill="#e1ed5e" style="font-size:6.75px; font-family:Arial;" text-anchor="middle"><textPath startOffset="22.20632615414155" xlink:href="#id43">July</textPath></text><path d="M 100.54218724476979 120.99299961872073 l 0.3054105560337978 11.825220434857396 a32.8291637041976,32.8291637041976 0 0,0 -0.5650372909433119,0.009727629383597931 l -0.10181357519781799 -11.828725541520154" fill="#ff800b" stroke="none" /><path d="M 99.81925306533755 120.99922214144158 l -0.09779259486709754 11.361567084040999 a32.361987942115356,32.361987942115356 0 0,0 -0.5569965217851388,-0.009589200250541614 l 0.29334880654490425 -11.358200406511298" fill="#ff7a0b" stroke="none" /><path d="M 99.09653310690486 120.98055641714683 l -0.25763434862069895 5.98285562818322 a26.988400197487877,26.988400197487877 0 0,0 -0.4639587850345179,-0.023981369660197732 l 0.36058120206870575 -5.97753445176082" fill="#ff2d04" stroke="none" /><path d="M 98.73552117531835 120.96189622390904 l -0.2109098146561307 3.496357203560741 a24.50271275510987,24.50271275510987 0 0,0 -0.4207900324490343,-0.029020144288643707 l 0.27106260788409503 -3.492208714755812" fill="#ff0801" stroke="none" /><path d="M 98.01472825383883 120.90594882070398 l -0.8731091232806777 9.194295280477771 a30.235658354755863,30.235658354755863 0 0,0 -0.5177027221209507,-0.05366200390655263 l 1.0312444420072215 -9.177903908115457" fill="#ff5c08" stroke="none" /><path d="M 97.2962882734958 120.8252237178851 l -1.5850101816881867 12.208473005907562 a33.31093296269738,33.31093296269738 0 0,0 -0.5679853664206704,-0.07871759629145558 l 1.794924139295688 -12.179380844123502" fill="#ff870c" stroke="none" /><path d="M 96.58105272829116 120.7198165907248 l -2.13344950811091 12.929325608328519 a34.104162220067266,34.104162220067266 0 0,0 -0.5783920215124292,-0.10056086681032204 l 2.3556905010953892 -12.89068616299719" fill="#ff920d" stroke="none" /><path d="M 95.86986931433489 120.58985236759428 l -2.286326626073184 11.397975337278215 a32.62502177332557,32.62502177332557 0 0,0 -0.5496672035454646,-0.11518810681706974 l 2.4821852910480353 -11.356931249734604" fill="#ff7d0b" stroke="none" /><path d="M 93.08242187328487 119.8279376855182 l -3.6906286737589076 10.578493516549164 a32.20380583048654,32.20380583048654 0 0,0 -0.5218250093996634,-0.18710788272616222 l 3.8721732437882976 -10.513398092783044" fill="#ff770b" stroke="none" /><path d="M 92.40401165467489 119.57807347666478 l -4.664993457769443 12.023660455005816 a33.89692113251463,33.89692113251463 0 0,0 -0.5421553045468102,-0.21573478448948893 l 4.871269838358112 -11.941578826110261" fill="#ff8f0d" stroke="none" /><path d="M 91.07499286063937 119.00905698771935 l -3.8516529133135373 8.20349928945125 a30.062705487693165,30.062705487693165 0 0,0 -0.4665264230513718,-0.22396103382870158 l 3.9922920043651513 -8.135983979122985" fill="#ff5908" stroke="none" /><line stroke="#e1ed5e" stroke-width="0.3" x1="58.666819895761336" x2="56.23545636021788" y1="174.27360380694188" y2="178.64263932499728" /><path d="M 58.180547188652646 175.14741091055294 a86.0,86.0 0 0,1 -31.652253787137756,-30.449443065178592" fill="none" id="id44" stroke="none" /><text fill="#e1ed5e" style="font-size:6.75px; font-family:Arial;" text-anchor="middle"><textPath startOffset="22.20632615414155" xlink:href="#id44">August</textPath></text><path d="M 87.95078237400918 117.19931262002967 l -6.307440283865611 9.003376039981903 a31.992933323360553,31.992933323360553 0 0,0 -0.44831647519131906,-0.3198619015083257 l 6.461484086905817 -8.893469876629359" fill="#ff740a" stroke="none" /><path d="M 87.36589467227662 116.77436683061367 l -8.734976373821857 11.597473200552662 a35.518994348396284,35.518994348396284 0 0,0 -0.485208527207481,-0.3720372083096803 l 8.933313629522823 -11.445396650415613" fill="#ffa50f" stroke="none" /><path d="M 86.79598089348748 116.32954008644616 l -6.810589947067762 8.422723464413732 a31.831731439852362,31.831731439852362 0 0,0 -0.4231041478574275,-0.3481859089029253 l 6.954564223469879 -8.304242436653626" fill="#ff720a" stroke="none" /><path d="M 85.97065885151581 115.62618273729859 l -8.271449023042507 9.212918309444422 a33.381225008749624,33.381225008749624 0 0,0 -0.42426019019921785,-0.3875516246349642 l 8.428808762708579 -9.069173918222884" fill="#ff880c" stroke="none" /><path d="M 85.44109423537348 115.13401014063109 l -5.851431296914488 6.0825739252926425 a29.440198681261023,29.440198681261023 0 0,0 -0.36218460625570786,-0.3544738669759976 l 5.95526585554599 -5.980949955394075" fill="#ff5007" stroke="none" /><path d="M 84.9287848128048 114.62390073753433 l -10.80725142527694 10.486491641570073 a36.05865831732261,36.05865831732261 0 0,0 -0.42839995315412643,-0.44917563816165884 l 10.986157929810023 -10.298908886825913" fill="#ffac0f" stroke="none" /><path d="M 84.67929136418377 114.36230785411682 l -6.386464239688338 5.986953194533178 a29.75388679606659,29.75388679606659 0 0,0 -0.34706292603737915,-0.37666826045319796 l 6.488573573721446 -5.876133679278635" fill="#ff5507" stroke="none" /><path d="M 82.6465618267979 111.8261652097733 l -9.792057480168944 6.673172678996913 a32.84970984027218,32.84970984027218 0 0,0 -0.3144137936215848,-0.470005961240552 l 9.905474379201259 -6.50362980355054" fill="#ff800b" stroke="none" /><path d="M 82.44556493220864 111.52570212397912 l -5.792814633313902 3.803383912109205 a27.929821827350743,27.929821827350743 0 0,0 -0.26040587050194813,-0.4041556938749693 l 5.857425367192895 -3.703106618312787" fill="#ff3a05" stroke="none" /><path d="M 82.24976979558568 111.22182372390057 l -5.23655589049191 3.3105884513452315 a27.195281550375732,27.195281550375732 0 0,0 -0.24674584616820147,-0.397832869610951 l 5.292766376328067 -3.2199592503690164" fill="#ff3004" stroke="none" /><line stroke="#e1ed5e" stroke-width="0.3" x1="26.63291911575756" x2="22.317208475507996" y1="142.92168965132927" y2="145.44649492493687" /><path d="M 25.769776987707644 143.4266507060508 a86.0,86.0 0 0,1 -11.730757126820373,-40.83630448921669" fill="none" id="id45" stroke="none" /><text fill="#e1ed5e" style="font-size:6.75px; font-family:Arial;" text-anchor="middle"><textPath startOffset="21.46611528233685" xlink:href="#id45">September</textPath></text><path d="M 81.87401531095188 110.60418214915194 l -10.802138777613502 6.319537898950218 a33.51490157480631,33.51490157480631 0 0,0 -0.2870280070180221,-0.5004575238986397 l 10.9093187807839 -6.132660529193271" fill="#ff8a0c" stroke="none" /><path d="M 81.69416730710424 110.29060199501025 l -8.68220483066931 4.880691080840416 a30.960011352819468,30.960011352819468 0 0,0 -0.2571503020752658,-0.46680249262098844 l 8.764931542196091 -4.7305180698216045" fill="#ff6609" stroke="none" /><path d="M 81.35079622478065 109.6543875284942 l -8.403851707612906 4.350536467680288 a30.46318609561095,30.46318609561095 0 0,0 -0.23706354258539264,-0.467748859745099 l 8.477493919984566 -4.205233396232504" fill="#ff5f08" stroke="none" /><path d="M 81.18737489456691 109.33194174019688 l -5.948255711221629 2.950612976223221 a27.63986919611656,27.63986919611656 0 0,0 -0.2077553971524831,-0.42803765325009674 l 5.998164364988831 -2.8477863670078394" fill="#ff3605" stroke="none" /><path d="M 80.73074385275274 108.34839909993369 l -8.138592101577514 3.5260424406804836 a29.869591686731688,29.869591686731688 0 0,0 -0.20033822291726638,-0.4735403800220622 l 8.198081305687086 -3.3854275349922625" fill="#ff5608" stroke="none" /><path d="M 80.58989483394504 108.01547362559985 l -11.660553399651567 4.815267997530496 a33.61567721028749,33.61567721028749 0 0,0 -0.21625667195606413,-0.5367313247143617 l 11.741712685865018 -4.613837304973329" fill="#ff8b0c" stroke="none" /><path d="M 80.20201598880116 107.00284435728193 l -6.0297953405450855 2.132829193730827 a27.395888696536996,27.395888696536996 0 0,0 -0.1534289383415008,-0.4459363133144632 l 6.065615109829815 -2.028720177327067" fill="#ff3304" stroke="none" /><path d="M 79.97269907076064 106.31721596034903 l -3.7786331684657117 1.1918950958232004 a24.96215629945067,24.96215629945067 0 0,0 -0.12572989699996795,-0.4108925780790516 l 3.79858983797181 -1.1266755451921011" fill="#ff0f01" stroke="none" /><path d="M 79.76711848015287 105.62410040840567 l -49.11932055984698 13.653615801103744 a71.98165235361793,71.98165235361793 0 0,0 -0.3215589178757383,-1.1966403562692538 l 49.3470675540645 -12.80608451165895" fill="#3effb2" stroke="none" /><path d="M 79.35854240842038 103.8639653848113 l -7.0033916857822405 1.3109957438847188 a28.125040697776235,28.125040697776235 0 0,0 -0.08498256626804802,-0.47662736281922924 l 7.024920694389477 -1.1902496303322758" fill="#ff3d05" stroke="none" /><path d="M 79.23777060512086 103.15116336523772 l -10.754874452770508 1.6323086374173452 a31.878040080025585,31.878040080025585 0 0,0 -0.07767000821073339,-0.5432238565251156 l 10.781378511997842 -1.446939308911829" fill="#ff730a" stroke="none" /><path d="M 79.0095281055655 100.63252640178507 l -6.109544678343663 0.1841048801271833 a27.11231795504488,27.11231795504488 0 0,0 -0.010041805215165997,-0.46660322983282704 l 6.111808546243837 -0.07891183450422741" fill="#ff2e04" stroke="none" /><line stroke="#e1ed5e" stroke-width="0.3" x1="15.007084014347285" x2="10.007500721073583" y1="101.09737516637583" y2="101.16192664675087" /><path d="M 14.007167355692545 101.11028546245083 a86.0,86.0 0 0,1 10.666146001902534,-42.60595125391555" fill="none" id="id46" stroke="none" /><text fill="#e1ed5e" style="font-size:6.75px; font-family:Arial;" text-anchor="middle"><textPath startOffset="22.20632615414155" xlink:href="#id46">October</textPath></text><path d="M 79.00486145842228 99.54816195383935 l -3.8123545611950047 -0.08204598568333818 a24.813237318084347,24.813237318084347 0 0,0 0.012865433783994887,-0.42694111343104973 l 3.8103774329553644 0.1476572465393823" fill="#ff0c01" stroke="none" /><path d="M 79.05617556472873 98.46500227214037 l -5.442987874476306 -0.3989230355664242 a26.457587066644162,26.457587066644162 0 0,0 0.037198757858727,-0.45391906687501765 l 5.435314632798082 0.49255601964922024" fill="#ff2503" stroke="none" /><path d="M 79.08570108090925 98.10471618934814 l -50.22964990015533 -4.551883026955115 a71.43547727724261,71.43547727724261 0 0,0 0.12151812269547367,-1.223670912020563 l 50.14385465177762 5.415829469680108" fill="#3dffac" stroke="none" /><path d="M 80.02781315780177 93.51064311812611 l -6.364742636379698 -2.068030244013117 a27.69228644915193,27.69228644915193 0 0,0 0.1512034526622398,-0.45207907792138 l 6.328201889945685 2.1772824248568194" fill="#ff3705" stroke="none" /><path d="M 81.43458229118936 90.18545643968196 l -7.288984350037577 -3.853296248754495 a29.244827762649635,29.244827762649635 0 0,0 0.2391000031713201,-0.4430159928793002 l 7.221576247647786 3.978193224966268" fill="#ff4d07" stroke="none" /><path d="M 81.6062741919709 89.86733742301443 l -5.8190349097856995 -3.205566826424058 a27.64355521990862,27.64355521990862 0 0,0 0.23318307498655017,-0.4148066711343604 l 5.762994193506719 3.305257007493203" fill="#ff3605" stroke="none" /><line stroke="#e1ed5e" stroke-width="0.3" x1="26.266209847984243" x2="21.928928074336255" y1="57.711370442889674" y2="55.22380399835377" /><path d="M 25.398753493254645 57.213857153982495 a86.0,86.0 0 0,1 29.58750427330803,-30.492523968695096" fill="none" id="id47" stroke="none" /><text fill="#e1ed5e" style="font-size:6.75px; font-family:Arial;" text-anchor="middle"><textPath startOffset="21.46611528233685" xlink:href="#id47">November</textPath></text><path d="M 81.78341655067845 89.55222093294921 l -10.337093185616265 -5.928645516833031 a32.916557103139255,32.916557103139255 0 0,0 0.286123764234437,-0.4890782614575327 l 10.233509746911503 6.105703190644456" fill="#ff810b" stroke="none" /><path d="M 82.7489923806493 88.02491185347247 l -5.339180727536129 -3.7062855256505047 a27.499492537032385,27.499492537032385 0 0,0 0.27327605020362333,-0.3865295929169418 l 5.274592057528627 3.797641618899233" fill="#ff3404" stroke="none" /><path d="M 83.6137871275137 86.86637796730984 l -9.405925208132834 -7.538890621809995 a33.05430631884736,33.05430631884736 0 0,0 0.35966470653454513,-0.4409064029777497 l 9.274762009521897 7.699681194395827" fill="#ff830c" stroke="none" /><path d="M 83.84228863543731 86.58626213691792 l -11.337246287394187 -9.411905334677456 a35.734894482484876,35.734894482484876 0 0,0 0.3969796005200594,-0.46989863320409925 l 11.173556073387005 9.60566291751067" fill="#ffa80f" stroke="none" /><path d="M 84.80347519578584 85.50635884689758 l -8.599244335525464 -8.201504172348157 a32.883251820571296,32.883251820571296 0 0,0 0.39418521947082324,-0.4062425185237036 l 8.456794852351523 8.348310886421984" fill="#ff810b" stroke="none" /><path d="M 85.57189188830299 84.74124197986013 l -4.960761445416138 -5.246360638916849 a28.22034999649624,28.22034999649624 0 0,0 0.3558345807439078,-0.33070946254790773 l 4.869718980877375 5.330974687539404" fill="#ff3f05" stroke="none" /><path d="M 86.10567301691215 84.25364557470407 l -5.912801483051224 -6.700941176342502 a29.93665675892138,29.93665675892138 0 0,0 0.389327933744972,-0.33762134764247187 l 5.796579750659478 6.801727517404655" fill="#ff5708" stroke="none" /><path d="M 87.51073957382395 83.11751280151077 l -6.413616378216801 -8.669672399042005 a31.784140881574274,31.784140881574274 0 0,0 0.44263908888036374,-0.32159612262913 l 6.263431972982656 8.778787756487803" fill="#ff710a" stroke="none" /><path d="M 88.09926311788651 82.69761687909137 l -4.919966665146171 -7.153098923681122 a29.681756515712564,29.681756515712564 0 0,0 0.42345309113693297,-0.2859174173895296 l 4.7961088796026985 7.236728253369317" fill="#ff5407" stroke="none" /><line stroke="#e1ed5e" stroke-width="0.3" x1="56.762969772571076" x2="54.21961505331055" y1="26.818313649435495" y2="22.513508569990535" /><path d="M 56.25429882871897 25.957352633546506 a86.0,86.0 0 0,1 42.265352541879196,-11.944610805530505" fill="none" id="id48" stroke="none" /><text fill="#e1ed5e" style="font-size:6.75px; font-family:Arial;" text-anchor="middle"><textPath startOffset="22.20632615414155" xlink:href="#id48">December</textPath></text><path d="M 89.94658935756843 81.56283822128135 l -5.524840599248734 -10.132121680184826 a32.540526564640736,32.540526564640736 0 0,0 0.4940813373196651,-0.26392113927586963 l 5.349614215400764 10.225721545962445" fill="#ff7c0b" stroke="none" /><path d="M 90.26544431104013 81.39251694778311 l -3.9035982702426457 -7.461679914018171 a29.42108939476975,29.42108939476975 0 0,0 0.4507584264990769,-0.230895973605097 l 3.7745793561548053 7.527768412935773" fill="#ff5007" stroke="none" /><path d="M 93.25333710446033 80.11325718540243 l -2.6888971196191265 -7.925904450944176 a29.3695955150409,29.3695955150409 0 0,0 0.4801469830526588,-0.158296911255247 l 2.5520673143240584 7.9710150864586575" fill="#ff4f07" stroke="none" /><path d="M 93.94186890950719 79.89281104454417 l -3.0377766788616403 -10.08250709236127 a31.530196409286532,31.530196409286532 0 0,0 0.5210136471963944,-0.1520981707515413 l 2.8637728139418246 10.13330359203151" fill="#ff6e0a" stroke="none" /><path d="M 94.63758080256005 79.69619591428918 l -1.859847368514078 -7.041966547050713 a28.283428113460726,28.283428113460726 0 0,0 0.47178254598390895,-0.12026787564787549 l 1.7383559338451695 7.0729374188674505" fill="#ff4006" stroke="none" /></svg>