<?xml version="1.0" encoding="utf-8" ?>
<svg baseProfile="full" height="200mm" version="1.1" viewBox="0,0,200,200" width="200mm" xmlns="http://www.w3.org/2000/svg" xmlns:ev="http://www.w3.org/2001/xml-events" xmlns:xlink="http://www.w3.org/1999/xlink"><defs /><rect fill="#1a1a1a" height="200" width="200" x="0" y="0" /><text alignment-baseline="middle" fill="#e1ed5e" style="dominant-baseline: central; font-size:9.0px; font-family:Arial;" text-anchor="middle" x="100.0" y="100.0">2021</text><line stroke="#e1ed5e" stroke-width="0.3" x1="100.0" x2="100.0" y1="15.0" y2="10.0" /><path d="M 100.0 14.0 a86.0,86.0 0 0,1 42.46469731375804,11.215312516191453" fill="none" id="id73" stroke="none" /><text fill="#e1ed5e" style="font-size:6.75px; font-family:Arial;" text-anchor="middle"><textPath startOffset="22.20632615414155" xlink:href="#id73">January</textPath></text><path d="M 100.36148047927253 79.00311137660856 l 0.38458653627222755 -22.339022799833785 a43.34233305756978,43.34233305756978 0 0,0 0.7458459397866051,0.019263000164827414 l -0.7690591112537004 22.3290930075266" fill="#ffac0f" stroke="none" /><path d="M 100.72285384407766 79.0124445844662 l 1.2018948711715574 -34.89617634190635 a55.91686805208584,55.91686805208584 0 0,0 0.961661405766043,0.04141116304078837 l -1.8023971093269318 34.87031745234137" fill="#9aff23" stroke="none" /><path d="M 101.44485096284872 79.0497635885617 l 3.2979830397529 -47.82051999848485 a68.93410920269602,68.93410920269602 0 0,0 1.1830728211533033,0.09182922053415124 l -4.120646050268545 47.756665515762236" fill="#36ff70" stroke="none" /><path d="M 102.16513564639614 79.11191278185805 l 1.8097570138485088 -17.45958153330199 a38.553125299136724,38.553125299136724 0 0,0 0.6595031567243569,0.0741028639727672 l -2.1100268740825907 17.42584271585862" fill="#ff5e08" stroke="none" /><path d="M 102.88285421437855 79.19881850522331 l 6.633080876727178 -47.86087291482309 a69.31832900759349,69.31832900759349 0 0,0 1.180494508474645,0.1739742041640421 l -7.4559443656304785 47.73960422649808" fill="#37ff76" stroke="none" /><path d="M 103.2404852339499 79.25152402106235 l 3.4623958623689584 -22.169345697764108 a43.43809425451996,43.43809425451996 0 0,0 0.7377666457892381,0.12173781798377706 l -3.8434917142970715 22.106461616840708" fill="#ffae10" stroke="none" /><path d="M 103.95276090670814 79.375362276772 l 7.083764098542228 -36.96152428579721 a58.6342130425677,58.6342130425677 0 0,0 0.9896159360355609,0.19850764694536752 l -7.7189464440449145 36.83411268277464" fill="#76ff27" stroke="none" /><path d="M 104.307194497241 79.44645832069477 l 4.680601599162839 -22.335406519078578 a43.82057001265708,43.82057001265708 0 0,0 0.7369311015099799,0.16106459574866638 l -5.064375424826347 22.251528425234042" fill="#ffb410" stroke="none" /><path d="M 105.36241919743992 79.69619591428918 l 12.281271321415138 -46.50075230084907 a69.09521379321579,69.09521379321579 0 0,0 1.147316518773015,0.31360494471324696 l -13.079885729411865 46.282460815309534" fill="#36ff73" stroke="none" /><path d="M 105.71112130821622 79.79150937346287 l 3.538091709473396 -12.519344151184495 a34.00969142295242,34.00969142295242 0 0,0 0.5619855055224832,0.1640589797192532 l -3.7530674327193063 12.456586842546539" fill="#ff1001" stroke="none" /><path d="M 106.40334571778207 80.00007090966166 l 13.88787168042944 -43.376769124456 a66.5457690624325,66.5457690624325 0 0,0 1.0879193155343891,0.3586698936419844 l -14.632473818206247 43.131285506554775" fill="#33ff4f" stroke="none" /><path d="M 107.08798089147638 80.2323363322302 l 8.113462558303494 -22.627628585519442 a45.038258050225046,45.038258050225046 0 0,0 0.7275130070024702,0.2679491802138384 l -8.50175789107854 22.48461613749928" fill="#ffc712" stroke="none" /><path d="M 107.76421540070413 80.48803036053334 l 17.576276512415028 -44.170306461875214 a68.53884168737021,68.53884168737021 0 0,0 1.0924312320233653,0.4456301288570229 l -18.33399161402678 43.86121544683461" fill="#36ff6b" stroke="none" /><path d="M 108.76106565485865 80.91482961587045 l 22.742015563190865 -49.54137533044505 a75.51189908183758,75.51189908183758 0 0,0 1.1766256517011018,0.552441520301165 l -23.591419426191568 49.14256882750389" fill="#40ffc8" stroke="none" /><path d="M 109.08828744355905 81.06846463323043 l 7.680065614672095 -15.998111273023012 a38.74606920277543,38.74606920277543 0 0,0 0.5987720355572781,0.2938148374095568 l -7.954308917239805 15.863541275478623" fill="#ff6209" stroke="none" /><path d="M 110.05341064243156 81.56283822128135 l 10.002590228059804 -18.34396114912546 a41.89384411521972,41.89384411521972 0 0,0 0.6301550558175806,0.3506806063080807 l -10.31686937294942 18.1690651452572" fill="#ff950d" stroke="none" /><path d="M 110.36928655335952 81.73862282372117 l 12.265637424390311 -21.601045564866133 a45.84051188929139,45.84051188929139 0 0,0 0.682812471639634,0.39552905606912414 l -12.635646628495275 21.38671235140696" fill="#ffd313" stroke="none" /><line stroke="#e1ed5e" stroke-width="0.3" x1="143.23703022742887" x2="145.7803849466894" y1="26.81831364943548" y2="22.513508569990506" /><path d="M 143.74570117128098 25.957352633546492 a86.0,86.0 0 0,1 28.547481713284135,27.462654790039103" fill="none" id="id74" stroke="none" /><text fill="#e1ed5e" style="font-size:6.75px; font-family:Arial;" text-anchor="middle"><textPath startOffset="19.985693538727396" xlink:href="#id74">February</textPath></text><path d="M 110.99172775467656 82.1063720568725 l 32.97518326402967 -53.68088382938249 a84.0,84.0 0 0,0 1.225523390510947,0.7674226347082231 l -33.894325806912875 53.10531685335132" fill="#4dd2ff" stroke="none" /><path d="M 111.60114157652 82.49532879139004 l 6.907240711828322 -10.422162062394971 a33.503257027909314,33.503257027909314 0 0,0 0.4779723108406031,0.32272903790199603 l -7.0856177170754675 10.301721112194304" fill="#ff0701" stroke="none" /><path d="M 111.90073688211348 82.69761687909136 l 13.735737245411633 -19.970275002503858 a45.23803542679602,45.23803542679602 0 0,0 0.6377892188707582,0.4468121062428356 l -14.07745760386604 19.730878053497086" fill="#ffca12" stroke="none" /><path d="M 112.19680574252982 82.90503203632743 l 27.40522785431334 -38.4109989202354 a68.18528745061491,68.18528745061491 0 0,0 0.9495765081283603,0.6899077167500778 l -28.06234967879549 37.933571968668645" fill="#35ff66" stroke="none" /><path d="M 112.77801427241765 83.33499621200491 l 8.229486284757556 -10.732842927306429 a34.524731487657874,34.524731487657874 0 0,0 0.4684964055164107,0.36566887567240663 l -8.413015245433398 10.5895956624108" fill="#ff1902" stroke="none" /><path d="M 113.06298171725822 83.55741782278167 l 30.253426428984216 -38.08046745895698 a69.6352938984298,69.6352938984298 0 0,0 0.9321068788005448,0.7536989389682595 l -30.90443670634925 37.55406242272459" fill="#37ff7a" stroke="none" /><path d="M 113.34407831869373 83.78471172551755 l 20.623304967990638 -25.060766824191607 a53.45555024366788,53.45555024366788 0 0,0 0.7054668027493224,0.5908081591634216 l -21.05162930769908 24.70205750763437" fill="#bcff1f" stroke="none" /><path d="M 114.42810811169701 84.74124197986012 l 15.33558410266476 -16.218478896090183 a43.320824300926404,43.320824300926404 0 0,0 0.537419077662556,0.5169967269148017 l -15.612486423939734 15.95209908241308" fill="#ffac0f" stroke="none" /><path d="M 114.68862486808459 84.99185889309783 l 22.187207499234265 -22.669837640155357 a52.720556666696154,52.720556666696154 0 0,0 0.6431009149170261,0.6403392352115747 l -22.57414421431861 22.284562554293665" fill="#c6ff1e" stroke="none" /><path d="M 115.19652480421416 85.50635884689758 l 28.125573090982517 -26.824683199477988 a59.866585783273486,59.866585783273486 0 0,0 0.7048083965563674,0.751840456102032 l -28.58314880950935 26.336573326497902" fill="#67ff28" stroke="none" /><path d="M 115.9244219780498 86.31012108654704 l 28.307574386610142 -24.335405468432207 a58.33002447047774,58.33002447047774 0 0,0 0.647989315428533,0.7670149631160781 l -28.72227431552579 23.844531555687023" fill="#7aff26" stroke="none" /><path d="M 116.15771136456269 86.58626213691792 l 30.530151359451967 -25.345386980614077 a60.679702408512696,60.679702408512696 0 0,0 0.6602573095571389,0.8093973918139932 l -30.961907161085513 24.81610541919198" fill="#5cff2a" stroke="none" /><path d="M 116.60985879189232 87.15038557335679 l 18.689884912443006 -14.458751143655467 a44.629796500912214,44.629796500912214 0 0,0 0.46483858465005584,0.6116730896330435 l -18.935999437317175 14.13489327814139" fill="#ffc111" stroke="none" /><path d="M 116.82858285166822 87.43820079747576 l 17.970880100101695 -13.4144740112646 a43.425446362806795,43.425446362806795 0 0,0 0.4419829264769509,0.6028642150041579 l -18.199125639092273 13.103147352588948" fill="#ffae10" stroke="none" /><path d="M 117.2510076193507 88.02491185347247 l 16.08114034762495 -11.163004353640028 a40.57589694188742,40.57589694188742 0 0,0 0.39334570956738757,0.5771862924788991 l -16.27091052286107 10.884540037890723" fill="#ff800b" stroke="none" /><path d="M 117.65298651832404 88.62581576622439 l 46.54925422869443 -29.99264702278237 a76.37501191585282,76.37501191585282 0 0,0 0.7025497446918604,1.1112649784163982 l -47.05863156963224 29.186934396651765" fill="#41ffd3" stroke="none" /><line stroke="#e1ed5e" stroke-width="0.3" x1="172.23445277983987" x2="176.4835382374775" y1="55.19839476539836" y2="52.563006222186495" /><path d="M 173.08426987136738 54.67131705675599 a86.0,86.0 0 0,1 12.851231095245387,41.99856678651699" fill="none" id="id75" stroke="none" /><text fill="#e1ed5e" style="font-size:6.75px; font-family:Arial;" text-anchor="middle"><textPath startOffset="22.20632615414155" xlink:href="#id75">March</textPath></text><path d="M 118.03404312379186 89.2402003453031 l 28.044486404371664 -16.732412862638377 a53.65680415917598,53.65680415917598 0 0,0 0.46640621419513706,0.7972394078551449 l -28.328352293037128 16.247194042429335" fill="#b9ff1f" stroke="none" /><path d="M 118.21658344932153 89.55222093294921 l 18.354054116447394 -10.526622784497961 a42.15847560096405,42.15847560096405 0 0,0 0.35562151464143743,0.632610993232163 l -18.53253327238126 10.209128281331004" fill="#ff990e" stroke="none" /><path d="M 118.56541770881063 90.18545643968196 l 20.20973099904221 -10.683804067509811 a43.85994086620932,43.85994086620932 0 0,0 0.3471004016247193,0.6704874961000682 l -20.39064083382705 10.334343849149398" fill="#ffb410" stroke="none" /><path d="M 118.73160827565052 90.50648371742162 l 39.445351096725176 -19.9916140353825 a65.2221703999659,65.2221703999659 0 0,0 0.4989185051524348,1.0057892619674558 l -39.78362961483102 19.309665184916092" fill="#31ff3c" stroke="none" /><path d="M 118.89224826269711 90.83032412892265 l 15.059408257456404 -7.309341408759719 a37.739541478026084,37.739541478026084 0 0,0 0.2786288892541487,0.5868634999951348 l -15.18299534055231 7.049035493124045" fill="#ff5107" stroke="none" /><path d="M 119.196687751892 91.48605970444005 l 44.38672330851865 -19.685995680531953 a69.55635521742664,69.55635521742664 0 0,0 0.4759949730584158,1.0986620250027872 l -44.71900899141974 18.919034510942563" fill="#37ff79" stroke="none" /><path d="M 119.47837535516314 92.15188598940014 l 24.52317824893661 -9.880736729354657 a47.43889615214553,47.43889615214553 0 0,0 0.29865371703837246,0.7600411341445195 l -24.689625515856683 9.457146590314354" fill="#ffec16" stroke="none" /><path d="M 119.7369772167798 92.82701384747503 l 41.632265838723434 -15.13036485169152 a65.2964276145542,65.2964276145542 0 0,0 0.37482300871713264,1.0596751198525154 l -41.886541928250374 14.411492105412389" fill="#31ff3d" stroke="none" /><path d="M 120.08093135843002 93.85539295169968 l 54.07247848598254 -16.545753107440134 a77.54728000098157,77.54728000098157 0 0,0 0.3795906228156443,1.279790875527559 l -54.349275005909895 15.612532845166047" fill="#43ffe1" stroke="none" /><path d="M 120.28053869075195 94.5502522615342 l 23.878757898227942 -6.4166543521145 a45.72586766600301,45.72586766600301 0 0,0 0.19771792916600928,0.7618878352959381 l -23.985672159264254 6.004670091269712" fill="#ffd113" stroke="none" /><path d="M 120.45610955862082 95.25157060432595 l 34.91238830671646 -8.104131943257764 a56.840644690528144,56.840644690528144 0 0,0 0.2130322754079712,0.9549819192224889 l -35.04671496912647 7.501971854485311" fill="#8eff24" stroke="none" /><path d="M 120.53481517161879 95.60439243477599 l 30.907352816648906 -6.615915104494218 a52.60751161990912,52.60751161990912 0 0,0 0.18192354923798962,0.887123834917905 l -31.016655661801895 6.082915613412901" fill="#c7ff1e" stroke="none" /><path d="M 120.67395015179393 96.31383870115 l 59.66375224709827 -10.63803544376564 a81.60471211305222,81.60471211305222 0 0,0 0.23466460265168243,1.3850037684517382 l -59.83802871127018 9.609445886998063" fill="#49edff" stroke="none" /><path d="M 120.73433829027371 96.67025291283417 l 11.942541696415502 -1.9178641184633167 a33.09555724005769,33.09555724005769 0 0,0 0.08548756826740186,0.5632562634988224 l -11.973785158122203 1.7120087425724122" fill="#ff0000" stroke="none" /><path d="M 120.87857604477298 97.74499172005257 l 44.336138811718584 -4.788562203999246 a65.59398538719711,65.59398538719711 0 0,0 0.1115812236185034,1.123607694399549 l -44.411997161019315 4.0246789788952615" fill="#31ff41" stroke="none" /><path d="M 120.94382443527127 98.46500227214037 l 20.983143844125912 -1.5378794939591918 a42.03942487144597,42.03942487144597 0 0,0 0.046682597262685505,0.7221591174471259 l -21.006507032393014 1.1764613122590306" fill="#ff980e" stroke="none" /><path d="M 120.96714384426684 98.82574320788733 l 27.994202728706007 -1.5678045106248693 a49.03807050065012,49.03807050065012 0 0,0 0.03994592597416861,0.8431953624010987 l -28.017042262913673 1.0856980416007707" fill="#fbff18" stroke="none" /><path d="M 120.98425023603335 99.18683210126433 l 21.355959960314213 -0.8275721501162607 a42.37198871163355,42.37198871163355 0 0,0 0.02196948379115354,0.729060211165912 l -21.36704113856101 0.45984179152534954" fill="#ff9d0e" stroke="none" /><line stroke="#e1ed5e" stroke-width="0.3" x1="184.98032266829074" x2="189.97916517819016" y1="98.17113171792111" y2="98.06355123074" /><path d="M 185.9800911702706 98.14961562048488 a86.0,86.0 0 0,1 -9.607161424134198,41.387399972396054" fill="none" id="id76" stroke="none" /><text fill="#e1ed5e" style="font-size:6.75px; font-family:Arial;" text-anchor="middle"><textPath startOffset="21.466115282336823" xlink:href="#id76">April</textPath></text><path d="M 120.99980553446 99.90962569577887 l 25.857375081802925 -0.1112792343799586 a46.85761453013497,46.85761453013497 0 0,0 -0.0034712627586644743,0.8065992155537663 l -25.855459521754756 -0.3338294593774925" fill="#ffe315" stroke="none" /><path d="M 120.99824983174949 100.27111621757518 l 48.89254130958261 0.631269795040253 a69.89661641937377,69.89661641937377 0 0,0 -0.025888166716188946,1.2029213817035027 l -48.87443108018142 -1.4727809925338706" fill="#38ff7e" stroke="none" /><path d="M 120.9904718944345 100.63252640178507 l 19.434989162789492 0.585653520592385 a40.44381119544024,40.44381119544024 0 0,0 -0.026958433147847304,0.6956773724410801 l -19.42202859679044 -0.9201081400474711" fill="#ff7e0b" stroke="none" /><path d="M 120.95626037817324 101.35467743843564 l 29.260282178956626 1.8914750721162912 a50.32135384221888,50.32135384221888 0 0,0 -0.06331730196099888,0.8639142794272082 l -29.22338831833129 -2.39486248804027" fill="#e8ff1a" stroke="none" /><path d="M 120.92983693683757 101.71520430193887 l 20.1907414361594 1.6546352785808505 a41.258426830506075,41.258426830506075 0 0,0 -0.06409870630085751,0.7073238827709142 l -20.159268133581467 -2.0019405499003353" fill="#ff8b0c" stroke="none" /><line stroke="#e1ed5e" stroke-width="0.3" x1="174.80103733775053" x2="179.2010983576182" y1="140.37084112569926" y2="142.7455964860345" /><path d="M 175.68104954172406 140.8457921977663 a86.0,86.0 0 0,1 -30.038265399797805,32.042727171017184" fill="none" id="id77" stroke="none" /><text fill="#e1ed5e" style="font-size:6.75px; font-family:Arial;" text-anchor="middle"><textPath startOffset="22.206326154141568" xlink:href="#id77">May</textPath></text><line stroke="#e1ed5e" stroke-width="0.3" x1="143.8653032363475" x2="146.44561519142675" y1="172.8068346515853" y2="177.08958963109032" /><path d="M 144.38136562736335 173.6633856474863 a86.0,86.0 0 0,1 -40.68145358897372,12.25698825130547" fill="none" id="id78" stroke="none" /><text fill="#e1ed5e" style="font-size:6.75px; font-family:Arial;" text-anchor="middle"><textPath startOffset="21.466115282336833" xlink:href="#id78">June</textPath></text><line stroke="#e1ed5e" stroke-width="0.3" x1="102.19456741930631" x2="102.32365962044197" y1="184.97166512339345" y2="189.96999836594603" /><path d="M 102.22038585953345 185.97133177190398 a86.0,86.0 0 0,1 -42.740103519485714,-10.115201625700543" fill="none" id="id79" stroke="none" /><text fill="#e1ed5e" style="font-size:6.75px; font-family:Arial;" text-anchor="middle"><textPath startOffset="22.20632615414155" xlink:href="#id79">July</textPath></text><line stroke="#e1ed5e" stroke-width="0.3" x1="58.666819895761336" x2="56.23545636021788" y1="174.27360380694188" y2="178.64263932499728" /><path d="M 58.180547188652646 175.14741091055294 a86.0,86.0 0 0,1 -31.652253787137756,-30.449443065178592" fill="none" id="id80" stroke="none" /><text fill="#e1ed5e" style="font-size:6.75px; font-family:Arial;" text-anchor="middle"><textPath startOffset="22.20632615414155" xlink:href="#id80">August</textPath></text><line stroke="#e1ed5e" stroke-width="0.3" x1="26.63291911575756" x2="22.317208475507996" y1="142.92168965132927" y2="145.44649492493687" /><path d="M 25.769776987707644 143.4266507060508 a86.0,86.0 0 0,1 -11.730757126820373,-40.83630448921669" fill="none" id="id81" stroke="none" /><text fill="#e1ed5e" style="font-size:6.75px; font-family:Arial;" text-anchor="middle"><textPath startOffset="21.46611528233685" xlink:href="#id81">September</textPath></text><line stroke="#e1ed5e" stroke-width="0.3" x1="15.007084014347285" x2="10.007500721073583" y1="101.09737516637583" y2="101.16192664675087" /><path d="M 14.007167355692545 101.11028546245083 a86.0,86.0 0 0,1 10.666146001902534,-42.60595125391555" fill="none" id="id82" stroke="none" /><text fill="#e1ed5e" style="font-size:6.75px; font-family:Arial;" text-anchor="middle"><textPath startOffset="22.20632615414155" xlink:href="#id82">October</textPath></text><line stroke="#e1ed5e" stroke-width="0.3" x1="26.266209847984243" x2="21.928928074336255" y1="57.711370442889674" y2="55.22380399835377" /><path d="M 25.398753493254645 57.213857153982495 a86.0,86.0 0 0,1 29.58750427330803,-30.492523968695096" fill="none" id="id83" stroke="none" /><text fill="#e1ed5e" style="font-size:6.75px; font-family:Arial;" text-anchor="middle"><textPath startOffset="21.46611528233685" xlink:href="#id83">November</textPath></text><line stroke="#e1ed5e" stroke-width="0.3" x1="56.762969772571076" x2="54.21961505331055" y1="26.818313649435495" y2="22.513508569990535" /><path d="M 56.25429882871897 25.957352633546506 a86.0,86.0 0 0,1 42.265352541879196,-11.944610805530505" fill="none" id="id84" stroke="none" /><text fill="#e1ed5e" style="font-size:6.75px; font-family:Arial;" text-anchor="middle"><textPath startOffset="22.20632615414155" xlink:href="#id84">December</textPath></text></svg>