<?xml version="1.0" encoding="utf-8" ?>
<svg baseProfile="full" height="200mm" version="1.1" viewBox="0,0,200,200" width="200mm" xmlns="http://www.w3.org/2000/svg" xmlns:ev="http://www.w3.org/2001/xml-events" xmlns:xlink="http://www.w3.org/1999/xlink"><defs /><rect fill="#1a1a1a" height="200" width="200" x="0" y="0" /><text alignment-baseline="middle" fill="#e1ed5e" style="dominant-baseline: central; font-size:9.0px; font-family:Arial;" text-anchor="middle" x="100.0" y="100.0">2020</text><line stroke="#e1ed5e" stroke-width="0.3" x1="100.0" x2="100.0" y1="15.0" y2="10.0" /><path d="M 100.0 14.0 a86.0,86.0 0 0,1 42.35913384403234,11.155469271406648" fill="none" id="id61" stroke="none" /><text fill="#e1ed5e" style="font-size:6.75px; font-family:Arial;" text-anchor="middle"><textPath startOffset="22.145653131862478" xlink:href="#id61">January</textPath></text><path d="M 100.0 79.0 l 0.0 -23.142734323019837 a44.14273432301984,44.14273432301984 0 0,0 0.7577687336633977,0.006504533208884407 l -0.397275808814543 23.13932418800539" fill="#f7ff18" stroke="none" /><path d="M 101.44090949804482 79.04949213459386 l 1.4211734042269293 -20.663549392771273 a41.71236363509438,41.71236363509438 0 0,0 0.7139388948410937,0.05526338572584032 l -1.7756812938432565 20.636108240050376" fill="#ffe715" stroke="none" /><path d="M 102.15924093988457 79.11130261209362 l 1.589366462974997 -15.375678772257183 a36.45760600679387,36.45760600679387 0 0,0 0.6219738736103516,0.06969346985139195 l -1.8530762381861454 15.346129541898822" fill="#ffa00e" stroke="none" /><path d="M 102.51750503828377 79.15144685158666 l 2.859479864890249 -23.68059528517308 a44.85261449312998,44.85261449312998 0 0,0 0.7636097346417369,0.09886456814885357 l -3.2655674214227774 23.62801912082383" fill="#eeff19" stroke="none" /><path d="M 103.58742460773223 79.30868818359171 l 3.37390212904863 -19.459770900751927 a40.750086052626465,40.750086052626465 0 0,0 0.6882209584605836,0.1254167844778678 l -3.7074578210602676 19.398985942342694" fill="#ffdb14" stroke="none" /><path d="M 103.94208987418118 79.37332000966035 l 1.5648694711312807 -8.188058323855842 a29.33625308976063,29.33625308976063 0 0,0 0.4938318365992241,0.09878019788704936 l -1.705197793261462 8.159988729305933" fill="#ff3a05" stroke="none" /><path d="M 105.3480935250658 79.69241777938227 l 2.0443766901663105 -7.762831283874354 a29.02751677626361,29.02751677626361 0 0,0 0.4807766771173672,0.13103782126725794 l -2.177334768218371 7.7265929684629535" fill="#ff3505" stroke="none" /><path d="M 106.38641147887787 79.99465700312896 l 8.049623489103428 -25.215330930019963 a47.46902628029122,47.46902628029122 0 0,0 0.7741458174762622,0.25447710669421 l -8.481292044227432 25.07343290192373" fill="#cdff1d" stroke="none" /><path d="M 108.4095320186766 80.7573450057729 l 3.226453139929034 -7.382756197230759 a29.056990066514114,29.056990066514114 0 0,0 0.45534599924984975,0.20367047369716904 l -3.3527125420345154 7.326281972623738" fill="#ff3505" stroke="none" /><path d="M 108.73861861582097 80.90454125486305 l 2.445060173710381 -5.342897742663146 a26.875787227395115,26.875787227395115 0 0,0 0.41786894539678837,0.1955837658856687 l -2.536417832978674 5.300137745206944" fill="#ff1402" stroke="none" /><line stroke="#e1ed5e" stroke-width="0.3" x1="143.13028292997686" x2="145.6673583964461" y1="26.7553504044142" y2="22.446841604673864" /><path d="M 143.63769802327073 25.89364864446614 a86.0,86.0 0 0,1 29.32050498858742,28.57503671076993" fill="none" id="id62" stroke="none" /><text fill="#e1ed5e" style="font-size:6.75px; font-family:Arial;" text-anchor="middle"><textPath startOffset="20.669276256404974" xlink:href="#id62">February</textPath></text><path d="M 110.65571695917076 81.90426304109057 l 5.79079618788984 -9.834037916005688 a32.4123451675419,32.4123451675419 0 0,0 0.47702829402100677,0.2864417844234749 l -5.958757238468281 9.733182131046291" fill="#ff6709" stroke="none" /><path d="M 111.5731344415666 82.4767994020092 l 5.990602203409292 -9.07053526796296 a31.870231129412666,31.870231129412666 0 0,0 0.4539287823816113,0.30542354298425034 l -6.145427273887904 8.96636205092159" fill="#ff5f08" stroke="none" /><path d="M 113.03279911837588 83.53348406188908 l 5.2916080721946015 -6.685773936020531 a29.52646990924653,29.52646990924653 0 0,0 0.3947396991023606,0.31797435943969965 l -5.405598541652221 6.5939512827874225" fill="#ff3c05" stroke="none" /><path d="M 115.16444852881244 85.47280134310134 l 5.878198737539591 -5.631181420327978 a29.14023492208051,29.14023492208051 0 0,0 0.34294471735938614,0.3641954054535094 l -5.9739992886352375 5.529444554929975" fill="#ff3705" stroke="none" /><path d="M 116.35404254752997 86.82634096563983 l 8.670465417070709 -6.984313189949016 a32.13362480434449,32.13362480434449 0 0,0 0.34235097970956757,0.4325492791388946 l -8.789082827421836 6.834443966895443" fill="#ff6309" stroke="none" /><path d="M 117.21940702142032 87.97951657250589 l 8.996735469758153 -6.280420079579263 a31.97200644771898,31.97200644771898 0 0,0 0.3102963356500824,0.45273162703181263 l -9.10322154222356 6.125053717477401" fill="#ff6008" stroke="none" /><line stroke="#e1ed5e" stroke-width="0.3" x1="172.87174338648825" x2="177.1583165268699" y1="56.24261187166439" y2="53.66864786411523" /><path d="M 173.72905801456457 55.72781907015455 a86.0,86.0 0 0,1 12.242430191666344,42.057860355516425" fill="none" id="id63" stroke="none" /><text fill="#e1ed5e" style="font-size:6.75px; font-family:Arial;" text-anchor="middle"><textPath startOffset="22.145653131862474" xlink:href="#id63">March</textPath></text><path d="M 118.00360718960297 89.18935116829356 l 6.933694773379625 -4.163484490182244 a29.08768980057841,29.08768980057841 0 0,0 0.2533763417198098,0.4302884215994817 l -7.004144825229203 4.043844900289206" fill="#ff3605" stroke="none" /><path d="M 118.70294669586156 90.45014215332178 l 14.47396469772961 -7.39050950574232 a37.25162406732295,37.25162406732295 0 0,0 0.2859152381035648,0.5720220032321616 l -14.59869984904491 7.1409556463464074" fill="#ffab0f" stroke="none" /><path d="M 119.0197475246899 91.09779779509293 l 7.6485302455113615 -3.579898351831557 a29.444861581218984,29.444861581218984 0 0,0 0.21034222225597632,0.4596357163565304 l -7.708856932622389 3.448073653260342" fill="#ff3b05" stroke="none" /><path d="M 119.31412917781788 91.75594674310238 l 10.257020240997836 -4.378112020757256 a32.15232393228149,32.15232393228149 0 0,0 0.21231887464278834,0.5094880071703075 l -10.330664960177106 4.20139150414567" fill="#ff6309" stroke="none" /><path d="M 119.94978838288452 93.4421083053983 l 8.061338489690653 -2.6499220800893277 a29.48570947392809,29.48570947392809 0 0,0 0.15393686374682508,0.48220503318695945 l -8.105640069214736 2.5111480132109816" fill="#ff3c05" stroke="none" /><path d="M 120.05942366710727 93.78553927170692 l 8.166983220638746 -2.5301522783284955 a29.549928975010594,29.549928975010594 0 0,0 0.14595368461521616,0.48583234722076546 l -8.20921322525759 2.3895823275170067" fill="#ff3d05" stroke="none" /><path d="M 120.26092885502905 94.47779374421319 l 15.333367846331882 -4.179177590975892 a36.89269312759293,36.89269312759293 0 0,0 0.1612922528836222,0.6124529557366937 l -15.402849580020234 3.9153441308664005" fill="#ffa60f" stroke="none" /><path d="M 120.43855184770803 95.1765574152323 l 10.030537754419692 -2.3671795983047437 a31.30607718258839,31.30607718258839 0 0,0 0.11894690125752028,0.5241019941168066 l -10.069695517234878 2.1946432702489105" fill="#ff5708" stroke="none" /><path d="M 120.592083275326 95.88100663000786 l 14.708545076585985 -2.9421209521467917 a35.99991246531202,35.99991246531202 0 0,0 0.11601178828787914,0.6070226982377235 l -14.75688315715602 2.6891956888757536" fill="#ff9a0e" stroke="none" /><path d="M 120.65975698304385 96.23510406497455 l 22.439351560039107 -4.089197348368391 a43.80890250294679,43.80890250294679 0 0,0 0.12847520267185195,0.7410108280547232 l -22.50624158020319 3.7033934873930754" fill="#fbff18" stroke="none" /><path d="M 120.77682067341334 96.94652285012252 l 18.25735422971583 -2.6832023452459075 a39.4534700881665,39.4534700881665 0 0,0 0.09272595665599614,0.6709188309791645 l -18.300724702927038 2.3693952060666574" fill="#ffc912" stroke="none" /><path d="M 120.86939407059847 97.66154086499901 l 10.075480081341427 -1.1289785585546546 a31.138534975783433,31.138534975783433 0 0,0 0.05496338062753591,0.5317208488119385 l -10.093375854450628 0.9558531874597845" fill="#ff5407" stroke="none" /><path d="M 120.93736805541906 98.37931529534042 l 17.84927797379032 -1.3816470018948646 a38.902672220187725,38.902672220187725 0 0,0 0.04582371480101278,0.6662667562837631 l -17.870365649756398 1.0750368214567674" fill="#ffc212" stroke="none" /><path d="M 120.96210409425399 98.7389718711861 l 27.874811962287843 -1.6768794683868986 a48.925204863785744,48.925204863785744 0 0,0 0.04323685894206778,0.8387835126564208 l -27.899490410686482 1.198124162353747" fill="#bcff1f" stroke="none" /><path d="M 120.99303781780057 99.45929381324524 l 8.183106252670973 -0.21076778959255635 a29.185820117962066,29.185820117962066 0 0,0 0.008600878292811304,0.500958041499595 l -8.18551856256245 0.07026283212389502" fill="#ff3705" stroke="none" /><line stroke="#e1ed5e" stroke-width="0.3" x1="184.99686870605535" x2="189.99668451229388" y1="99.2704041080226" y2="99.22748670261217" /><path d="M 185.99683186730306 99.26182062694052 a86.0,86.0 0 0,1 -10.086455211305974,41.156179273409016" fill="none" id="id64" stroke="none" /><text fill="#e1ed5e" style="font-size:6.75px; font-family:Arial;" text-anchor="middle"><textPath startOffset="21.40746469413373" xlink:href="#id64">April</textPath></text><path d="M 120.99922638620191 100.18025310272382 l 10.089540118258737 0.08660656720990717 a31.08991181802083,31.08991181802083 0 0,0 -0.009162002184628135,0.5336406950978683 l -10.086566684475441 -0.25979417827684653" fill="#ff5407" stroke="none" /><path d="M 120.98066250479742 100.90099992219065 l 16.62875176756999 0.7141101500146722 a37.64407818576373,37.64407818576373 0 0,0 -0.03326734559525144,0.6453776171050787 l -16.61404283251817 -0.9994595604964814" fill="#ffb110" stroke="none" /><path d="M 120.96210409425399 101.26102812881392 l 21.038683229734854 1.265634939441673 a42.07671757748493,42.07671757748493 0 0,0 -0.049562443811581605,0.7206270555591894 l -21.013856824758207 -1.626605419155206" fill="#ffec16" stroke="none" /><path d="M 120.9064616781168 101.97986365728391 l 29.38103133619936 2.7824142148811832 a50.51248602273115,50.51248602273115 0 0,0 -0.08916080984123462,0.8625499550475252 l -29.32893813387646 -3.28636869221164" fill="#a9ff21" stroke="none" /><path d="M 120.82617615685814 102.69636545807757 l 9.137747971331232 1.1830644189765165 a30.21401537913934,30.21401537913934 0 0,0 -0.07101082551646362,0.513798959433957 l -9.116092629259558 -1.3397516866105585" fill="#ff4706" stroke="none" /><path d="M 120.7213421655516 103.40968896794604 l 10.07811950119313 1.6583507287470765 a31.2136487025874,31.2136487025874 0 0,0 -0.09153801200391087,0.5279669279584901 l -10.048166671696986 -1.8311106896261546" fill="#ff5507" stroke="none" /><path d="M 120.65975698304385 103.76489593502545 l 29.15979243804079 5.313885546004663 a50.640021501774555,50.640021501774555 0 0,0 -0.16319038161601251,0.8538810343064842 l -29.064275764142614 -5.813669145344462" fill="#a7ff21" stroke="none" /><path d="M 120.51834098615036 104.47187691870673 l 27.84069344155528 6.067749555683711 a49.49424145291745,49.49424145291745 0 0,0 -0.18805251825643962,0.8285940934560971 l -27.732430061741177 -6.544777983078825" fill="#b5ff20" stroke="none" /><path d="M 120.35273937422433 105.17358676015961 l 9.746241815181223 2.4774565570369185 a31.05619314213844,31.05619314213844 0 0,0 -0.1357754865051574,0.5155616375863386 l -9.702276847871335 -2.6443986989960604" fill="#ff5307" stroke="none" /><path d="M 120.16314734710363 105.8691983318838 l 11.732711717042617 3.415221386458386 a33.21966699029691,33.21966699029691 0 0,0 -0.1640793384994068,0.5461667539518119 l -11.672356058539581 -3.6161257440009216" fill="#ff730a" stroke="none" /><path d="M 120.05942366710727 106.21446072829308 l 26.0596619186152 8.073349876516303 a48.28158641906971,48.28158641906971 0 0,0 -0.25206502141808285,0.7895900894673373 l -25.91723218141986 -8.519508999675026" fill="#c3ff1e" stroke="none" /><path d="M 119.83427380445688 106.89939002012753 l 17.058002321647617 5.933658683023834 a39.06055781452942,39.06055781452942 0 0,0 -0.22573250735047687,0.6314139982045127 l -16.953629644253198 -6.225607637609269" fill="#ffc412" stroke="none" /><path d="M 119.58574465831526 107.57618678355244 l 11.007613640443363 4.257981426597043 a32.802455841328964,32.802455841328964 0 0,0 -0.20765723542435544,0.5234318850155388 l -10.932897730052883 -4.446314328826146" fill="#ff6c0a" stroke="none" /><path d="M 119.31412917781788 108.2440532568976 l 12.300007809084645 5.250141930023412 a34.373637590010176,34.373637590010176 0 0,0 -0.23630421999168919,0.5407102997980564 l -12.20806970707599 -5.460514299597313" fill="#ff830c" stroke="none" /><path d="M 119.16976305983485 108.57439118712176 l 28.41324584686483 12.708883465405792 a52.126006144246105,52.126006144246105 0 0,0 -0.372367176509415,0.8136894822489856 l -28.19089420550036 -13.194761929869466" fill="#96ff23" stroke="none" /><path d="M 118.8641267826498 109.22738970284198 l 27.236517274669197 13.32274543832647 a51.320346621828094,51.320346621828094 0 0,0 -0.3938960915481063,0.7880560436273374 l -27.00380126990936 -13.788333338117553" fill="#9fff22" stroke="none" /><path d="M 118.5362547648365 109.86951160357373 l 9.396859862520726 5.003298596555653 a31.64584295028575,31.64584295028575 0 0,0 -0.2594275728206826,0.47731751405356243 l -9.309586940084705 -5.163870944083818" fill="#ff5c08" stroke="none" /><line stroke="#e1ed5e" stroke-width="0.3" x1="174.33088141563837" x2="178.70328620479359" y1="141.23008692659167" y2="143.65538615756765" /><path d="M 175.20536237346943 141.71514677278685 a86.0,86.0 0 0,1 -30.301960400862466,31.631185727798858" fill="none" id="id65" stroke="none" /><text fill="#e1ed5e" style="font-size:6.75px; font-family:Arial;" text-anchor="middle"><textPath startOffset="22.145653131862474" xlink:href="#id65">May</textPath></text><path d="M 118.18653347947321 110.5 l 11.167698846224566 6.4476739350964225 a33.89534787019285,33.89534787019285 0 0,0 -0.29525477284549223,0.501407153150435 l -11.055370363249308 -6.638432256540407" fill="#ff7c0b" stroke="none" /><path d="M 118.00360718960297 110.81064883170644 l 12.95949482151216 7.781804283787849 a36.1163813110142,36.1163813110142 0 0,0 -0.32372666527033256,0.5287831787156941 l -12.824000191786423 -8.0031245786281" fill="#ff9c0e" stroke="none" /><path d="M 117.62189284568427 111.42229804090321 l 15.699722993885846 10.176370765964789 a39.709351246131725,39.709351246131725 0 0,0 -0.3756798875675791,0.5688272320446811 l -15.522718667397541 -10.44437787634853" fill="#ffcd13" stroke="none" /><path d="M 117.21940702142032 112.02048342749411 l 6.457535398951978 4.507861225941114 a28.875314359507257,28.875314359507257 0 0,0 -0.28721986642390884,0.40401071165453833 l -6.3792004339981085 -4.618049164305156" fill="#ff3304" stroke="none" /><path d="M 116.79662413953412 112.60449989151573 l 6.100094194777338 4.577624406998213 a28.626650273658935,28.626650273658935 0 0,0 -0.2983278955885771,0.39052079177955246 l -6.020614321834456 -4.681666112018642" fill="#ff2f04" stroke="none" /><path d="M 116.57777611688842 112.89097897827486 l 12.198410774754404 9.485557999876983 a36.45241197996852,36.45241197996852 0 0,0 -0.38836324971441216,0.49068427918774216 l -12.03378109439843 -9.69356222297941" fill="#ffa00e" stroke="none" /><path d="M 116.1254893667686 113.45245675266167 l 8.402477498311434 7.009645573559323 a31.94242930872984,31.94242930872984 0 0,0 -0.35487344821506445,0.4180400296807526 l -8.280909486589255 -7.1528523856896316" fill="#ff6008" stroke="none" /><path d="M 115.6541949942343 113.99807769240083 l 8.821337264289168 7.888094176792273 a32.83376613222861,32.83376613222861 0 0,0 -0.3793117692237466,0.4169300800186899 l -8.684627794223543 -8.038361832368635" fill="#ff6d0a" stroke="none" /><path d="M 115.41159269507618 114.26474011684316 l 7.835321103265231 7.252256238630294 a31.67649180873687,31.67649180873687 0 0,0 -0.37279334086811733,0.3958936092476749 l -7.709671928660853 -7.385691307822466" fill="#ff5c08" stroke="none" /><path d="M 115.16444852881244 114.52719865689866 l 11.831821236566492 11.334617098006287 a37.38491802031619,37.38491802031619 0 0,0 -0.4479304196098377,0.45961607103588425 l -11.635504015805848 -11.536055861109908" fill="#ffad10" stroke="none" /><path d="M 114.91283532996324 114.78537596483092 l 20.719075105719437 20.541990057794447 a50.176247681478316,50.176247681478316 0 0,0 -0.6116916582865984,0.6064635558703314 l -20.363391527302873 -20.89463362389344" fill="#adff20" stroke="none" /><path d="M 114.39649973595853 115.28858382429668 l 7.173579468036618 7.618092802335558 a31.464013586059288,31.464013586059288 0 0,0 -0.39640196523067367,0.36690374107979185 l -7.041747731491976 -7.740114289547729" fill="#ff5908" stroke="none" /><path d="M 114.13192950727249 115.5334660781643 l 7.305145156053824 8.02963419957854 a31.85542127833176,31.85542127833176 0 0,0 -0.4076507515601182,0.36452381574433307 l -7.166229377670327 -8.15385354520626" fill="#ff5f08" stroke="none" /><path d="M 113.86319453409587 115.77377054828091 l 8.992603951411528 10.231932547167471 a34.62201781957164,34.62201781957164 0 0,0 -0.44979032919977235,0.3885181735758647 l -8.8156341424489 -10.384794853208053" fill="#ff870c" stroke="none" /><path d="M 113.31354834802062 116.24036423190432 l 10.683470911263438 13.032097403669885 a37.85147214490625,37.85147214490625 0 0,0 -0.5060367450286689,0.4076273813334289 l -10.458183395879516 -13.213573078796717" fill="#ffb410" stroke="none" /><path d="M 112.45986205192187 116.90419585922612 l 6.011055713434166 8.155151531949596 a31.131104939692875,31.131104939692875 0 0,0 -0.432898752877671,0.31338531288356497 l -5.870175950182527 -8.257137616206238" fill="#ff5407" stroke="none" /><path d="M 112.16784306229584 117.11559508785304 l 7.360033756381397 10.352809200629647 a33.7023917133631,33.7023917133631 0 0,0 -0.47440916331690375,0.33117444046757005 l -7.181229501890735 -10.477628456902337" fill="#ff790b" stroke="none" /><path d="M 111.8722381534696 117.32195027204791 l 8.542403281670982 12.463621680772963 a36.11008005366408,36.11008005366408 0 0,0 -0.5143170943412041,0.3460554943153973 l -8.327189899232774 -12.608426849145483" fill="#ff9b0e" stroke="none" /><path d="M 111.27062007382361 117.71928675628689 l 10.076015929965271 15.84117062366729 a39.77415201145057,39.77415201145057 0 0,0 -0.5792553539082047,0.3614981823794603 l -9.802596447267351 -16.011804602888297" fill="#ffce13" stroke="none" /><path d="M 110.96478420261333 117.91015095944535 l 4.118629279928505 6.727471401756374 a28.888090935513755,28.888090935513755 0 0,0 -0.42516012541701614,0.2552964394703072 l -4.002536397954052 -6.797181841762605" fill="#ff3304" stroke="none" /><line stroke="#e1ed5e" stroke-width="0.3" x1="143.1302829299769" x2="145.66735839644613" y1="173.24464959558577" y2="177.55315839532614" /><path d="M 143.63769802327073 174.10635135553383 a86.0,86.0 0 0,1 -40.68552437913181,11.842963189579606" fill="none" id="id66" stroke="none" /><text fill="#e1ed5e" style="font-size:6.75px; font-family:Arial;" text-anchor="middle"><textPath startOffset="21.407464694133747" xlink:href="#id66">June</textPath></text><path d="M 110.34350942703117 118.27599006163325 l 3.8465514831830863 6.796487901340118 a28.80949461270322,28.80949461270322 0 0,0 -0.4324933625209703,0.23989677765561734 l -3.729313932506021 -6.861517594428879" fill="#ff3204" stroke="none" /><path d="M 109.71004243097381 118.62028667847754 l 4.428473112322554 8.492181108945564 a30.57750040948554,30.57750040948554 0 0,0 -0.46750490521559984,0.23871133570741657 l -4.282040985393372 -8.566950396325817" fill="#ff4c07" stroke="none" /><path d="M 109.06512990194946 118.94263497670748 l 5.27141699129295 11.015234084467142 a33.21160182087914,33.21160182087914 0 0,0 -0.5163791821391749,0.24169153075455616 l -5.081549095282269 -11.104101846792231" fill="#ff720a" stroke="none" /><path d="M 108.73861861582097 119.09545874513695 l 12.643349228591577 27.62799982571935 a51.38355894371289,51.38355894371289 0 0,0 -0.8052209791406567,0.3601651019722454 l -12.167214846595293 -27.840968678601445" fill="#9eff22" stroke="none" /><path d="M 108.07796709384702 119.3841803445677 l 10.558395907922629 25.336306529945073 a48.44828141665293,48.44828141665293 0 0,0 -0.7704327353372055,0.3133282863435321 l -10.121908711394981 -25.513822072867896" fill="#c1ff1e" stroke="none" /><path d="M 107.74402155503746 119.51999308798841 l 4.159362835883476 10.48431144333101 a32.27923249344964,32.27923249344964 0 0,0 -0.5168177766532344,0.1999162185198217 l -3.9787727967367124 -10.554167549988872" fill="#ff6509" stroke="none" /><path d="M 107.407793817531 119.65005319985036 l 11.47232695737559 30.431710248874584 a53.522350383826584,53.522350383826584 0 0,0 -0.8625020951836102,0.316722716250278 l -10.948235710537851 -30.624163814133585" fill="#86ff25" stroke="none" /><path d="M 106.72888874123015 119.89276391827305 l 6.676511666217625 19.737920402794856 a41.83653785676031,41.83653785676031 0 0,0 -0.6822887119752475,0.224281851602077 l -6.336700216594643 -19.849623175798953" fill="#ffe915" stroke="none" /><path d="M 106.0420521117495 120.11202640906438 l 2.7244023356677567 9.068649311599696 a30.469042634995873,30.469042634995873 0 0,0 -0.5022168590677032,0.1461880082876785 l -2.5683254642184465 -9.114081014189894" fill="#ff4a06" stroke="none" /><path d="M 105.69591212413111 120.21278271476187 l 7.860699092643532 27.894847968703008 a49.981254862792625,49.981254862792625 0 0,0 -0.8278290498048804,0.22562848871659227 l -7.380688641903957 -28.025676951563742" fill="#afff20" stroke="none" /><path d="M 104.9986988182912 120.39639698878246 l 3.2239606525826554 13.154859641807546 a34.54415942334769,34.54415942334769 0 0,0 -0.5771635627493459,0.13620902927394193 l -2.99766493609343 -13.208264814727713" fill="#ff850c" stroke="none" /><path d="M 104.64783097203109 120.47920084513623 l 1.612671683067641 7.10572899349087 a28.286432219289836,28.286432219289836 0 0,0 -0.4744545013042507,0.10340515028925135 l -1.4904547651442546 -7.132365601913841" fill="#ff2a04" stroke="none" /><path d="M 104.29559338865022 120.5559693870025 l 6.134553831829093 29.35606081878763 a50.9901826855384,50.9901826855384 0 0,0 -0.8583432753693468,0.17169269437930165 l -5.629714070928788 -29.45704290982979" fill="#a3ff22" stroke="none" /><path d="M 103.94208987418118 120.62667999033965 l 1.5258932036255943 7.984118022463124 a29.12862169531165,29.12862169531165 0 0,0 -0.49194811308848396,0.08964933385859479 l -1.388610356986053 -8.009135530253083" fill="#ff3605" stroke="none" /><path d="M 103.2317021107853 120.74984581791261 l 6.4859797330870235 41.64464261433986 a63.1466984658835,63.1466984658835 0 0,0 -1.072516286025825,0.15762295991908198 l -5.770138341453513 -41.74984664755782" fill="#32ff44" stroke="none" /><path d="M 102.875027216393 120.80226474461374 l 1.0008874686012577 7.241923131263889 a28.310760997593754,28.310760997593754 0 0,0 -0.48198690170425734,0.06240285413955887 l -0.876422745006225 -7.258037581603843" fill="#ff2a04" stroke="none" /><path d="M 102.51750503828377 120.84855314841334 l 2.887880693061394 23.915794884212957 a45.08952261546715,45.08952261546715 0 0,0 -0.769236055575272,0.08619450450007939 l -2.4769087358853232 -23.961845149220007" fill="#ebff1a" stroke="none" /><path d="M 101.80034050326958 120.92268563240118 l 2.1341759375611686 24.802359411863524 a45.894010109416286,45.894010109416286 0 0,0 -0.7855109613058564,0.0608035163235973 l -1.7080959814800762 -24.835340695182175" fill="#e1ff1b" stroke="none" /><path d="M 101.44090949804482 120.95050786540614 l 0.9984033793231688 14.516566015936924 a35.55085901941527,35.55085901941527 0 0,0 -0.609198924032337,0.03664789449540759 l -0.7490601031583666 -14.531565888257022" fill="#ff940d" stroke="none" /><path d="M 100.72087961077811 120.9876233191556 l 0.807986997581412 23.523659843437873 a44.53753205877864,44.53753205877864 0 0,0 -0.7643206465776778,0.019686188623857667 l -0.4040530369329904 -23.534063749411775" fill="#f2ff19" stroke="none" /><line stroke="#e1ed5e" stroke-width="0.3" x1="101.45913802915013" x2="101.54496967792366" y1="184.9874750549273" y2="189.98673829345242" /><path d="M 101.47630435890484 185.9873277026323 a86.0,86.0 0 0,1 -42.54439059252881,-10.42667462771756" fill="none" id="id67" stroke="none" /><text fill="#e1ed5e" style="font-size:6.75px; font-family:Arial;" text-anchor="middle"><textPath startOffset="22.145653131862474" xlink:href="#id67">July</textPath></text><path d="M 100.0 121.0 l 2.3155764091618013e-15 18.908116289317014 a39.908116289317014,39.908116289317014 0 0,0 -0.6850758841116196,-0.005880552523283858 l 0.32458295926276515 -18.905330134988166" fill="#ffcf13" stroke="none" /><path d="M 99.27912038922189 120.98762331915562 l -1.0440240805838434 30.39562197600576 a51.413546678891024,51.413546678891024 0 0,0 -0.8818016699944213,-0.037868357868629264 l 1.5656515111791034 -30.373221049711304" fill="#9eff22" stroke="none" /><path d="M 98.55909050195518 120.95050786540614 l -0.5328337060426948 7.747285144936797 a28.765586833926562,28.765586833926562 0 0,0 -0.4923449424570694,-0.03811061235321533 l 0.6657476432750004 -7.736996765588529" fill="#ff3104" stroke="none" /><path d="M 98.19965949673042 120.92268563240118 l -2.666899740218953 30.99341750985325 a52.10794565966158,52.10794565966158 0 0,0 -0.890550688017259,-0.08433607605729426 l 3.1985499916212277 -30.94306967829077" fill="#96ff23" stroke="none" /><path d="M 97.84075906011543 120.88869738790638 l -0.9136399367677202 8.838637600890927 a29.885733091531606,29.885733091531606 0 0,0 -0.5098564390969871,-0.057130477459580525 l 1.0652322774655065 -8.821651362924374" fill="#ff4206" stroke="none" /><path d="M 97.12497278360702 120.80226474461374 l -4.050842329212495 29.30987716933251 a50.58848125973178,50.58848125973178 0 0,0 -0.8592210100372593,-0.12627589957498767 l 4.553388444857439 -29.23602019645864" fill="#a8ff21" stroke="none" /><path d="M 96.76829788921471 120.74984581791261 l -2.0639976628307175 13.252345607393387 a34.412112080130015,34.412112080130015 0 0,0 -0.582912496874366,-0.0959180295364552 l 2.291187662758147 -13.214961579361264" fill="#ff840c" stroke="none" /><path d="M 96.41257539226777 120.69131181640829 l -3.4247225260320984 19.75288944555762 a41.04757755512454,41.04757755512454 0 0,0 -0.6932452395558043,-0.12633237586102744 l 3.76330249913896 -19.691188895765226" fill="#ffdf14" stroke="none" /><path d="M 95.70440661134978 120.55596938700252 l -4.918013710884881 23.534475947588422 a45.04284544283537,45.04284544283537 0 0,0 -0.7555134774943845,-0.16466064600736868 l 5.321289604998403 -23.446583843447335" fill="#ecff1a" stroke="none" /><path d="M 95.35216902796893 120.47920084513623 l -1.7631311852376892 7.768681321693365 a28.966243848538973,28.966243848538973 0 0,0 -0.4839677901610519,-0.11421508070203658 l 1.896231129138629 -7.737270097345101" fill="#ff3404" stroke="none" /><path d="M 95.00130118170881 120.39639698878247 l -8.379022193383353 34.18926989733874 a56.201053805678654,56.201053805678654 0 0,0 -0.935064319755229,-0.2376896935412028 l 8.96469180636396 -34.04039497196227" fill="#68ff28" stroke="none" /><path d="M 94.30408787586889 120.21278271476187 l -8.23478924201207 29.22236193663881 a51.36047086288805,51.36047086288805 0 0,0 -0.8465672737407103,-0.2464233953822796 l 8.735216528134387 -29.076694846954013" fill="#9fff22" stroke="none" /><path d="M 93.95794788825049 120.11202640906438 l -2.224071342601781 7.403210159519516 a28.730072056778997,28.730072056778997 0 0,0 -0.47111759195356084,-0.1459534342656204 l 2.3508295674269752 -7.363940137447247" fill="#ff3004" stroke="none" /><path d="M 93.27111125876986 119.89276391827306 l -7.590216341004498 22.43912591912135 a44.68809312961757,44.68809312961757 0 0,0 -0.7245732270928238,-0.2520441807520338 l 7.974295340142344 -22.305523305800723" fill="#f0ff19" stroke="none" /><path d="M 92.93061703081489 119.77432235084164 l -1.8506121624930545 5.176491584490305 a26.497347587725027,26.497347587725027 0 0,0 -0.4269995179084626,-0.15680013753559247 l 1.939200832055636 -5.143960597945994" fill="#ff0e01" stroke="none" /><path d="M 92.59220618246901 119.65005319985036 l -12.286494970729871 32.59138763327574 a55.830396301624376,55.830396301624376 0 0,0 -0.8938918015516597,-0.34577655182318057 l 12.844159034775059 -32.37567119331452" fill="#6cff28" stroke="none" /><path d="M 91.92203290615298 119.3841803445677 l -4.137985276663125 9.929658283344688 a31.75737122971391,31.75737122971391 0 0,0 -0.5014109716459431,-0.21402252805626804 l 4.307831323479499 -9.857161105629016" fill="#ff5d08" stroke="none" /><path d="M 91.59046798132341 119.24265499422711 l -7.256151408174572 16.60349444217369 a39.11981680232023,39.11981680232023 0 0,0 -0.6130384472565007,-0.27420429992357953 l 7.540103258286709 -16.47648639134026" fill="#ffc512" stroke="none" /><path d="M 90.93487009805054 118.94263497670748 l -4.779187472555536 9.986663705547572 a32.07131811780029,32.07131811780029 0 0,0 -0.49456988881453917,-0.24191891583237102 l 4.949917610632144 -9.90315103961798" fill="#ff6209" stroke="none" /><path d="M 90.6110303473126 118.78422872680471 l -3.689647769672927 7.381767136401744 a29.252513963654543,29.252513963654543 0 0,0 -0.4472469490558472,-0.22836747894859455 l 3.815821940442357 -7.317341705780313" fill="#ff3805" stroke="none" /><path d="M 90.28995756902619 118.62028667847754 l -17.7368535004693 34.012755278946216 a59.35965971906677,59.35965971906677 0 0,0 -0.8994717911290933,-0.47891806582612845 l 18.318114107384957 -33.703266745397514" fill="#46ff2d" stroke="none" /><line stroke="#e1ed5e" stroke-width="0.3" x1="58.13341422392154" x2="55.67067388415222" y1="173.97424548756322" y2="178.32567169271397" /><path d="M 57.64086615596768 174.84453072859336 a86.0,86.0 0 0,1 -31.369924170532247,-30.572349798747897" fill="none" id="id68" stroke="none" /><text fill="#e1ed5e" style="font-size:6.75px; font-family:Arial;" text-anchor="middle"><textPath startOffset="22.145653131862474" xlink:href="#id68">August</textPath></text><path d="M 89.03521579738668 117.91015095944536 l -6.940533630653164 11.336840084320007 a34.29266527735023,34.29266527735023 0 0,0 -0.49942510291529435,-0.31167820154004655 l 7.13412286235817 -11.216026085938413" fill="#ff820c" stroke="none" /><path d="M 88.72937992617639 117.7192867562869 l -17.79432759511222 27.97563853877071 a54.15530796439878,54.15530796439878 0 0,0 -0.7801313689893822,-0.5056717280991159 l 18.271944596358612 -27.666052968967698" fill="#7eff26" stroke="none" /><path d="M 88.1277618465304 117.32195027204791 l -21.00549607122245 30.647646524769073 a58.15520290222261,58.15520290222261 0 0,0 -0.8186173072229851,-0.5714584574656306 l 21.5285084696192 -30.282543251498314" fill="#52ff2b" stroke="none" /><path d="M 87.54013794807813 116.9041958592261 l -15.348681846193854 20.82343472406174 a46.86885131046489,46.86885131046489 0 0,0 -0.6435472946932507,-0.4829298875036497 l 15.70388212979787 -20.556885809294076" fill="#d5ff1c" stroke="none" /><path d="M 87.2517909369889 116.68781488649013 l -6.998367540634409 9.161087761306542 a32.52834234416058,32.52834234416058 0 0,0 -0.4408210832689955,-0.3427851406324552 l 7.154598568538633 -9.039601569053293" fill="#ff6909" stroke="none" /><path d="M 86.68645165197938 116.24036423190432 l -17.344535587884398 21.15751323518109 a48.358239728759074,48.358239728759074 0 0,0 -0.6374667576986925,-0.5317974415631359 l 17.705176679744984 -20.856653609706083" fill="#c2ff1e" stroke="none" /><path d="M 86.13680546590413 115.77377054828092 l -11.560217536613212 13.153405476802149 a38.511444975529244,38.511444975529244 0 0,0 -0.4928272444043847,-0.4406891608699921 l 11.784309807840968 -12.953020786048775" fill="#ffbd11" stroke="none" /><path d="M 85.60350026404147 115.28858382429668 l -14.845948664891242 15.765883011651596 a42.65560571532624,42.65560571532624 0 0,0 -0.528782276180008,-0.5065614590414396 l 15.114403426936565 -15.508709422304573" fill="#fff417" stroke="none" /><path d="M 85.34317274990678 115.03919595460226 l -12.111302968565496 12.427263793305217 a38.352825273850314,38.352825273850314 0 0,0 -0.46755395980711734,-0.4635577961290809 l 12.322848848502577 -12.217525986947477" fill="#ffba11" stroke="none" /><path d="M 85.08716467003676 114.78537596483092 l -4.961482430726833 4.919076852797262 a27.98667481668761,27.98667481668761 0 0,0 -0.33532460837042155,-0.3440725886737171 l 5.045193840248064 -4.833181572055808" fill="#ff2503" stroke="none" /><path d="M 84.58840730492382 114.26474011684316 l -28.088695323132647 25.99847705121915 a59.27395477264589,59.27395477264589 0 0,0 -0.6847617956208725,-0.7526731659980251 l 28.5308548195954 -25.512466309663452" fill="#46ff2c" stroke="none" /><path d="M 84.3458050057657 113.99807769240083 l -5.387018088632475 4.817104792857118 a28.226649463798594,28.226649463798594 0 0,0 -0.319887155900152,-0.36397286253909084 l 5.468916308491219 -4.723919652506727" fill="#ff2904" stroke="none" /><path d="M 83.8745106332314 113.45245675266167 l -17.67096796508879 14.741749966231469 a44.01265523337278,44.01265523337278 0 0,0 -0.479011064159091,-0.5843156121645293 l 17.92142584848651 -14.436232072368444" fill="#f9ff18" stroke="none" /><path d="M 83.64595745247003 113.17365903436017 l -8.640222061834823 6.9599512837857755 a32.094789729890714,32.094789729890714 0 0,0 -0.3419372316227142,-0.43202652194724006 l 8.758425724099098 -6.8106048179238545" fill="#ff6209" stroke="none" /><path d="M 83.20337586046588 112.60449989151573 l -19.188463483809436 14.399380726199782 a44.990400083523866,44.990400083523866 0 0,0 -0.4582550340943439,-0.6217109641765474 l 19.43282053748761 -14.067863452754356" fill="#ecff1a" stroke="none" /><path d="M 82.98947788004972 112.3143062007846 l -10.808010905448347 7.824166405510615 a34.34281378395919,34.34281378395919 0 0,0 -0.341604536831725,-0.4805095613619981 l 10.940730540810032 -7.637479617439113" fill="#ff830c" stroke="none" /><path d="M 82.37810715431573 111.42229804090323 l -34.84947583812555 22.58900919885083 a62.53010116503286,62.53010116503286 0 0,0 -0.5761175388703422,-0.9057524616839162 l 35.23211106862178 -21.987443062488243" fill="#31ff3d" stroke="none" /><path d="M 82.18462484594161 111.11811171558189 l -11.2055779486858 6.993109400941749 a34.2086545968018,34.2086545968018 0 0,0 -0.30662688990466574,-0.5008519807538862 l 11.323972803045871 -6.799720304063306" fill="#ff810b" stroke="none" /><line stroke="#e1ed5e" stroke-width="0.3" x1="26.387840678322732" x2="22.057713659400548" y1="142.50000000000003" y2="145.00000000000006" /><path d="M 25.521815274538298 143.00000000000003 a86.0,86.0 0 0,1 -11.493303480769221,-40.785679425670985" fill="none" id="id69" stroke="none" /><text fill="#e1ed5e" style="font-size:6.75px; font-family:Arial;" text-anchor="middle"><textPath startOffset="21.40746469413373" xlink:href="#id69">September</textPath></text><path d="M 81.81346652052679 110.50000000000001 l -28.876086691121962 16.671616424262254 a54.34323284852448,54.34323284852448 0 0,0 -0.4595021424177233,-0.8118962570072183 l 29.158022198561063 -16.173463397155913" fill="#7cff26" stroke="none" /><path d="M 81.63589988554817 110.18625677009913 l -9.77915865006903 5.424334456048167 a32.18281486005609,32.18281486005609 0 0,0 -0.2638295828870253,-0.4854167167669049 l 9.870833582571386 -5.255662905806676" fill="#ff6409" stroke="none" /><path d="M 81.4637452351635 109.86951160357371 l -20.065047533444574 10.683507643262379 a43.731992171453776,43.731992171453776 0 0,0 -0.34713191536343013,-0.6656712187680794 l 20.24548751778295 -10.337490181389796" fill="#fcff18" stroke="none" /><path d="M 81.1358732173502 109.22738970284198 l -19.40594536059937 9.492420320192286 a42.603165482719604,42.603165482719604 0 0,0 -0.3157112488417852,-0.659715085115804 l 19.56603586740107 -9.157892733011378" fill="#fff316" stroke="none" /><path d="M 80.9802524753101 108.90220220490708 l -4.130372573741025 1.9332229192482178 a25.560408803322204,25.560408803322204 0 0,0 -0.18259325738828172,-0.3989992202297942 l 4.162950295984363 -1.8620347168037348" fill="#ff0000" stroke="none" /><path d="M 80.68587082218212 108.24405325689762 l -21.779916029226275 9.296551039014314 a44.681017787695396,44.681017787695396 0 0,0 -0.2950524955694727,-0.7080185792771843 l 21.936294369332234 -8.921299950295849" fill="#f0ff19" stroke="none" /><path d="M 80.5471966667186 107.91128576633889 l -11.387994292168244 4.631398138726868 a33.29374892853515,33.29374892853515 0 0,0 -0.21076738561450659,-0.5312714951951942 l 11.465820352748874 -4.4352256263181085" fill="#ff740a" stroke="none" /><path d="M 80.28708602549918 107.23885506374661 l -15.641726120436674 5.743858491906586 a37.662998121640605,37.662998121640605 0 0,0 -0.21765595465131377,-0.6088224428660953 l 15.738022245131932 -5.47450109265957" fill="#ffb110" stroke="none" /><path d="M 80.16572619554312 106.89939002012753 l -23.680788434619252 8.237407479867011 a46.072587079808216,46.072587079808216 0 0,0 -0.2534312130283068,-0.7492243495427562 l 23.818705069219924 -7.829681455850094" fill="#dfff1b" stroke="none" /><path d="M 80.05021161711548 106.5578916946017 l -13.668063425926908 4.49296393033795 a35.387587799713984,35.387587799713984 0 0,0 -0.1847489641132853,-0.5787234987326901 l 13.743177105817448 -4.257671397913868" fill="#ff910d" stroke="none" /><path d="M 79.73907114497094 105.5222062557868 l -38.4912975666219 10.490974314980187 a60.89536978697913,60.89536978697913 0 0,0 -0.2662302627014454,-1.0109196714842066 l 38.66571731012809 -9.828674139123178" fill="#35ff2f" stroke="none" /><path d="M 79.56144815229197 104.8234425847677 l -12.890236093241187 3.04206061971174 a34.24433159330809,34.24433159330809 0 0,0 -0.13011074830303035,-0.5732919640673431 l 12.940557703101884 -2.8203343217053707" fill="#ff810b" stroke="none" /><path d="M 79.48165901384964 104.47187691870673 l -29.665832704420424 6.465530163216323 a51.362225055784705,51.362225055784705 0 0,0 -0.18036038346512515,-0.8630897260744183 l 29.77245079870992 -5.955323985856496" fill="#9fff22" stroke="none" /><path d="M 79.407916724674 104.11899336999214 l -13.163388416500267 2.6330463454935473 a34.42414718561929,34.42414718561929 0 0,0 -0.11093379405121956,-0.5804524866354017 l 13.206648502833643 -2.406691293824831" fill="#ff840c" stroke="none" /><path d="M 79.2786578344484 103.40968896794605 l -35.19902469664834 5.791986119033683 a56.6723764669294,56.6723764669294 0 0,0 -0.14971899444588596,-0.9613033455023919 l 35.29326518323249 -5.186894591599842" fill="#62ff29" stroke="none" /><path d="M 79.22317932658666 103.0534771498775 l -15.416628077533662 2.2657134266527423 a36.58222957771813,36.58222957771813 0 0,0 -0.08597779172840388,-0.6220924711577043 l 15.45325038581728 -2.0007326472949525" fill="#ffa20f" stroke="none" /><path d="M 79.17382384314188 102.69636545807758 l -8.54699061858074 1.106579052288732 a29.618327322228566,29.618327322228566 0 0,0 -0.06095439596881859,-0.5047898394084784 l 8.56472710080922 -0.9596955359568543" fill="#ff3e05" stroke="none" /><path d="M 79.0935383218832 101.97986365728391 l -19.417941208274524 1.8388992211809518 a40.50481968934001,40.50481968934001 0 0,0 -0.059612249518034274,-0.6927847005835623 l 19.446647080490298 -1.5052934732217276" fill="#ffd714" stroke="none" /><path d="M 79.06263194458094 101.62068470465958 l -7.907059774923564 0.6120564343201117 a28.930712916441177,28.930712916441177 0 0,0 -0.034077678010638726,-0.49548195925242594 l 7.916401414099268 -0.4762310509133424" fill="#ff3304" stroke="none" /><path d="M 79.03789590574601 101.26102812881392 l -21.295825308555386 1.2811039683634105 a42.33432452528705,42.33432452528705 0 0,0 -0.0374122749818553,-0.7257881398784085 l 21.314679172993813 -0.915344035108271" fill="#fff016" stroke="none" /><path d="M 79.00696218219943 100.54070618675478 l -10.897036190750091 0.28066899782522786 a31.900650110376787,31.900650110376787 0 0,0 -0.009400921678813755,-0.5475565578513096 l 10.900248544027571 -0.09356552400486583" fill="#ff5f08" stroke="none" /><line stroke="#e1ed5e" stroke-width="0.3" x1="15.003131293944662" x2="10.003315487706104" y1="100.72959589197737" y2="100.7725132973878" /><path d="M 14.003168132696942 100.73817937305945 a86.0,86.0 0 0,1 10.791469493833604,-42.45332614584628" fill="none" id="id70" stroke="none" /><text fill="#e1ed5e" style="font-size:6.75px; font-family:Arial;" text-anchor="middle"><textPath startOffset="22.145653131862435" xlink:href="#id70">October</textPath></text><path d="M 79.00077361379809 99.81974689727619 l -31.71201325890355 -0.27220949374078157 a52.71318153294237,52.71318153294237 0 0,0 0.015534244265168981,-0.9047918501253464 l 31.702667583039712 0.8165482598351802" fill="#8fff24" stroke="none" /><path d="M 79.00696218219943 99.45929381324524 l -19.98269236685538 -0.5146832718804608 a40.98931947562833,40.98931947562833 0 0,0 0.024155031347475892,-0.7032473822308589 l 19.970912648511057 0.8576369186754583" fill="#ffde14" stroke="none" /><path d="M 79.01933749520258 99.09900007780938 l -13.615845722627181 -0.5847230007079829 a34.62839520009388,34.62839520009388 0 0,0 0.03060228450397482,-0.5936761439110606 l 13.603801848666636 0.8183709379957554" fill="#ff870c" stroke="none" /><path d="M 79.06263194458094 98.37931529534042 l -50.66471247548754 -3.921769171638842 a71.81627065871166,71.81627065871166 0 0,0 0.10569432178186391,-1.2283282322181281 l 50.58992453100793 4.790918451232651" fill="#3dffac" stroke="none" /><path d="M 79.0935383218832 98.0201363427161 l -12.399108907879583 -1.174208504881118 a33.45458418906043,33.45458418906043 0 0,0 0.059051495067106184,-0.571269647576316 l 12.377125020330812 1.3868826747403467" fill="#ff760a" stroke="none" /><path d="M 79.13060592940154 97.66154086499901 l -27.412453647426045 -3.071622608100785 a48.58400769320654,48.58400769320654 0 0,0 0.09998568826879099,-0.8280249311332875 l 27.355685872897585 3.5417412161575084" fill="#c0ff1e" stroke="none" /><path d="M 79.2786578344484 96.59031103205396 l -21.317846624393226 -3.507843549651859 a42.60452617092048,42.60452617092048 0 0,0 0.12494321523300081,-0.7206392630965666 l 21.254488591667993 3.8732758456690184" fill="#fff316" stroke="none" /><path d="M 79.48165901384962 95.52812308129327 l -12.490375078129297 -2.722219113893166 a33.78358112957393,33.78358112957393 0 0,0 0.12836013484883527,-0.5655784381782959 l 12.4418040817228 2.9362318860104697" fill="#ff7b0b" stroke="none" /><path d="M 79.64726062577567 94.8264132398404 l -10.629495573011654 -2.7019762083404557 a31.96753625784352,31.96753625784352 0 0,0 0.13975981434411297,-0.5306907793644824 l 10.581546277862817 2.8840474920777224" fill="#ff6008" stroke="none" /><path d="M 79.73907114497095 94.47779374421319 l -8.126887474437426 -2.215019319821282 a29.423337260809962,29.423337260809962 0 0,0 0.13700277550286355,-0.4861745181823942 l 8.087666206859982 2.3542017619066895" fill="#ff3b05" stroke="none" /><path d="M 79.83685265289637 94.1308016681162 l -60.48944204131091 -17.607594995651397 a84.0,84.0 0 0,0 0.41489471998548133,-1.3810495856371061 l 60.1782710013218 18.643382184879226" fill="#4dd2ff" stroke="none" /><path d="M 80.16572619554312 93.10060997987247 l -8.73940823425391 -3.0400198438161468 a30.253052303739615,30.253052303739615 0 0,0 0.17483358491588244,-0.4890406533285349 l 8.685934479294085 3.189595453525603" fill="#ff4706" stroke="none" /><path d="M 80.28708602549916 92.7611449362534 l -10.108625639787162 -3.7120273539845825 a31.768633125986426,31.768633125986426 0 0,0 0.19238073098960723,-0.5103127451557267 l 10.043414224983119 3.885008379334454" fill="#ff5d08" stroke="none" /><path d="M 80.5471966667186 92.08871423366112 l -13.323237057433543 -5.4184445238131405 a35.38291301323244,35.38291301323244 0 0,0 0.2336521704737739,-0.5606801510510194 l 13.228259042423291 5.646357184305424" fill="#ff910d" stroke="none" /><path d="M 80.68587082218212 91.75594674310238 l -26.475829628562845 -11.300957318287947 a49.78682321532635,49.78682321532635 0 0,0 0.3422633521096998,-0.7831655301612251 l 26.277932394436167 11.75378491822504" fill="#b1ff20" stroke="none" /><path d="M 80.9802524753101 91.09779779509293 l -9.211693177000848 -4.311537532492108 a31.170774163321695,31.170774163321695 0 0,0 0.23099138120287352,-0.4826831456602289 l 9.13632253783807 4.469033180217425" fill="#ff5507" stroke="none" /><path d="M 81.1358732173502 90.77261029715801 l -15.156504898978309 -7.413806048236354 a37.87258607545445,37.87258607545445 0 0,0 0.2906812719303545,-0.5815572635252209 l 15.02700371383621 7.672895167925345" fill="#ffb410" stroke="none" /><path d="M 81.46374523516351 90.13048839642627 l -16.12318283102116 -8.584686715634259 a39.26619474899255,39.26619474899255 0 0,0 0.32189800137849367,-0.5922560664089362 l 15.973439480027317 8.860197615517814" fill="#ffc712" stroke="none" /><line stroke="#e1ed5e" stroke-width="0.3" x1="26.387840678322718" x2="22.05771365940052" y1="57.49999999999999" y2="54.99999999999999" /><path d="M 25.521815274538284 56.99999999999999 a86.0,86.0 0 0,1 29.574782752854787,-30.34633250058573" fill="none" id="id71" stroke="none" /><text fill="#e1ed5e" style="font-size:6.75px; font-family:Arial;" text-anchor="middle"><textPath startOffset="21.40746469413373" xlink:href="#id71">November</textPath></text><path d="M 81.81346652052679 89.5 l -24.91738989961242 -14.386061766044097 a49.77212353208819,49.77212353208819 0 0,0 0.4335538046041521,-0.7362691441329128 l 24.66676238487849 14.811682078470582" fill="#b1ff20" stroke="none" /><path d="M 82.18462484594161 88.88188828441811 l -16.28087730532441 -10.160471567001691 a40.191199761736556,40.191199761736556 0 0,0 0.3702993383917034,-0.5821720650370513 l 16.104060275306814 10.438457306717414" fill="#ffd313" stroke="none" /><path d="M 82.37810715431573 88.57770195909679 l -7.248221988400465 -4.698209922347497 a29.637702152052736,29.637702152052736 0 0,0 0.2803946240075902,-0.4245531984348179 l 7.1665029254721455 4.821942999121377" fill="#ff3e05" stroke="none" /><path d="M 82.78059297857968 87.97951657250589 l -11.871838925920843 -8.287465583767835 a35.47835091732293,35.47835091732293 0 0,0 0.3528996112230508,-0.496397498014317 l 11.72782421616782 8.490040308491672" fill="#ff930d" stroke="none" /><path d="M 82.98947788004972 87.6856937992154 l -13.831422632839722 -10.012883337278092 a38.07530628639417,38.07530628639417 0 0,0 0.3878205294470115,-0.526153031284151 l 13.657500083808891 10.248842677831107" fill="#ffb710" stroke="none" /><path d="M 83.2033758604659 87.39550010848427 l -19.26759186718174 -14.458760140262205 a45.089330442208706,45.089330442208706 0 0,0 0.4698909909378875,-0.6151023908411403 l 19.016548898889546 14.787383444344231" fill="#ebff1a" stroke="none" /><path d="M 83.64595745247003 86.82634096563983 l -24.60681571868449 -19.821508917881797 a52.59727196444285,52.59727196444285 0 0,0 0.5724416098497261,-0.6982856863128807 l 24.262927289596135 20.24099688589317" fill="#90ff24" stroke="none" /><path d="M 83.8745106332314 86.54754324733833 l -7.082674085259661 -5.908618625956544 a30.223667723037803,30.223667723037803 0 0,0 0.33577838050187,-0.3955460879284743 l 6.980201141250676 6.029331496334575" fill="#ff4706" stroke="none" /><path d="M 84.34580500576568 86.00192230759919 l -10.790493598599474 -9.648925913353054 a35.47537645046899,35.47537645046899 0 0,0 0.40982894716114787,-0.45047380439461115 l 10.62326695059646 9.832737293305323" fill="#ff930d" stroke="none" /><path d="M 84.83555147118756 85.47280134310135 l -18.733556479617302 -17.946323337281534 a46.94256463230394,46.94256463230394 0 0,0 0.5624461356818666,-0.5771192840097527 l 18.422723542784635 18.265265313359016" fill="#d4ff1c" stroke="none" /><path d="M 85.86807049272753 84.46653392183569 l -26.77169495517421 -29.426782466410938 a60.7826491965828,60.7826491965828 0 0,0 0.7778296953069933,-0.6955401098794265 l 26.262600233043823 29.882018106173764" fill="#37ff2e" stroke="none" /><path d="M 86.40962598614128 83.9905735841838 l -4.78046090608786 -5.631370927073532 a28.386822388072112,28.386822388072112 0 0,0 0.3742000480288424,-0.3121709889515558 l 4.683086523897108 5.71260409993697" fill="#ff2b04" stroke="none" /><path d="M 87.25179093698888 83.31218511350988 l -26.659143806093173 -34.89767501218883 a64.91534663110727,64.91534663110727 0 0,0 0.891340294042964,-0.6688783737873121 l 26.056150523139454 35.35017241324014" fill="#34ff5b" stroke="none" /><path d="M 87.54013794807813 83.09580414077388 l -9.117793903936581 -12.370038553711613 a36.36723851233444,36.36723851233444 0 0,0 0.505710678374325,-0.36609553184755905 l 8.904102215188288 12.524734856932252" fill="#ff9f0e" stroke="none" /><path d="M 88.12776184653039 82.6780497279521 l -6.265744886422681 -9.141909043345235 a32.08305282575741,32.08305282575741 0 0,0 0.45696000901735323,-0.3074630875441263 l 6.107888589308338 9.248121804946472" fill="#ff6209" stroke="none" /><path d="M 88.4268655584334 82.4767994020092 l -17.66011849250309 -26.739670267455068 a53.04512055183238,53.04512055183238 0 0,0 0.764138624075591,-0.495305424064856 l 17.198494236170475 27.03888953322383" fill="#8bff24" stroke="none" /><path d="M 88.72937992617638 82.28071324371311 l -7.765620440713444 -12.208845168072681 a35.4693041009994,35.4693041009994 0 0,0 0.5165612152834413,-0.32237240303916614 l 7.554895096640304 12.340353367953384" fill="#ff920d" stroke="none" /><line stroke="#e1ed5e" stroke-width="0.3" x1="56.869717070023135" x2="54.33264160355391" y1="26.7553504044142" y2="22.446841604673864" /><path d="M 56.362301976729285 25.89364864446614 a86.0,86.0 0 0,1 42.16139366436587,-11.88097634709845" fill="none" id="id72" stroke="none" /><text fill="#e1ed5e" style="font-size:6.75px; font-family:Arial;" text-anchor="middle"><textPath startOffset="22.145653131862474" xlink:href="#id72">December</textPath></text><path d="M 89.34428304082924 81.90426304109057 l -18.39427334860976 -31.23749751819834 a57.25093851506224,57.25093851506224 0 0,0 0.8511511536411226,-0.49141234767576 l 17.85532972710824 31.548656763150273" fill="#5cff2a" stroke="none" /><path d="M 89.97174638481275 81.54914285379989 l -6.30781652715807 -11.605671945788778 a34.20909424046771,34.20909424046771 0 0,0 0.5183674471013493,-0.27600146841889434 l 6.107660264270159 11.712243881930247" fill="#ff810b" stroke="none" /><path d="M 90.61103034731259 81.2157712731953 l -9.73432391162855 -19.47516858833358 a42.772442526288096,42.772442526288096 0 0,0 0.6595912917222047,-0.3226391533224637 l 9.398572370644292 19.639401491753258" fill="#fff517" stroke="none" /><path d="M 90.93487009805054 81.0573650232925 l -9.59853059735179 -20.057237280106968 a43.23565957957648,43.23565957957648 0 0,0 0.6722348007590735,-0.3146398298801921 l 9.252807082721192 20.219053341557704" fill="#fffb17" stroke="none" /><path d="M 91.5904679813234 80.7573450057729 l -15.24929189865353 -34.89336413255374 a59.08001790831155,59.08001790831155 0 0,0 0.9328029379380428,-0.39815810631440396 l 14.648053885545057 35.14999688852755" fill="#48ff2c" stroke="none" /><path d="M 91.92203290615298 80.6158196554323 l -5.629528303262882 -13.508818570010675 a35.634881894798575,35.634881894798575 0 0,0 0.5666718968939768,-0.2304605272193113 l 5.396801945178464 13.603466353809278" fill="#ff950d" stroke="none" /><path d="M 92.25597844496254 80.48000691201159 l -4.0796216574970225 -10.28331158300403 a32.06299281304402,32.06299281304402 0 0,0 0.5133555967245723,-0.19857697294731935 l 3.902493798278921 10.35182844408939" fill="#ff6209" stroke="none" /><path d="M 92.93061703081487 80.22567764915836 l -10.294267842073642 -28.79489929494249 a51.57970202291433,51.57970202291433 0 0,0 0.8363138484971878,-0.2909133692971076 l 9.79844822153145 28.967371096808183" fill="#9cff22" stroke="none" /><path d="M 93.27111125876988 80.10723608172694 l -4.28323719757065 -12.662629693244382 a34.36743474414172,34.36743474414172 0 0,0 0.5604792840591846,-0.1842406732033993 l 4.065235175863704 12.734291287849809" fill="#ff830c" stroke="none" /><path d="M 93.95794788825049 79.88797359093562 l -9.872331614863542 -32.86178114403666 a55.312673919011296,55.312673919011296 0 0,0 0.9117108697840869,-0.26538574677756654 l 9.306760732697832 33.02641058511675" fill="#71ff27" stroke="none" /><path d="M 94.30408787586887 79.78721728523814 l -3.123694764244405 -11.084890735835005 a32.51660851143116,32.51660851143116 0 0,0 0.538565772323882,-0.14678849614248257 l 2.9329475909858456 11.136879726121627" fill="#ff6809" stroke="none" /><path d="M 95.00130118170881 79.60360301121753 l -3.523985846545264 -14.379064817023519 a35.80459324867843,35.80459324867843 0 0,0 0.5982228818753573,-0.14117897124612644 l 3.2766308109300004 14.437439931915877" fill="#ff970d" stroke="none" /><path d="M 95.35216902796891 79.52079915486377 l -6.934234043894934 -30.55351464944702 a52.33051003749357,52.33051003749357 0 0,0 0.877751066318843,-0.19130175955701997 l 6.408720560956973 30.668047867137755" fill="#93ff23" stroke="none" /><path d="M 95.70440661134978 79.44403061299748 l -2.4913836599050043 -11.922172703682733 a33.17970420483516,33.17970420483516 0 0,0 0.5585305735929457,-0.11172175727959674 l 2.286356600781082 11.963183857625197" fill="#ff720a" stroke="none" /><path d="M 96.41257539226777 79.30868818359171 l -5.118645225645137 -29.52298543448543 a50.963431010330886,50.963431010330886 0 0,0 0.8632780443798743,-0.14205207368688616 l 4.61108967821219 29.606503506667984" fill="#a3ff21" stroke="none" /><path d="M 96.76829788921471 79.25015418208739 l -2.307560465432642 -14.816193520263187 a35.994813294320025,35.994813294320025 0 0,0 0.6113545824010806,-0.08984807046168049 l 2.0528807774238764 14.853622664023753" fill="#ff9a0e" stroke="none" /><path d="M 97.48249496171623 79.15144685158666 l -0.9963567341404753 -8.251263060298877 a29.311201407252735,29.311201407252735 0 0,0 0.5000548164365135,-0.05603218519624603 l 0.8545660161031625 8.267151006002093" fill="#ff3905" stroke="none" /><path d="M 97.84075906011542 79.11130261209362 l -3.451925750615699 -33.3942503026028 a54.572187069963896,54.572187069963896 0 0,0 0.9326657984021263,-0.08832442079765646 l 2.878160388828557 33.44858647890564" fill="#7aff26" stroke="none" /><path d="M 98.1996594967304 79.07731436759882 l -1.2225850197214039 -14.208291142735844 a35.260794203942254,35.260794203942254 0 0,0 0.603515366940341,-0.046715906299121104 l 0.9785006580058458 14.227184816030018" fill="#ff900d" stroke="none" /><path d="M 98.9189461498227 79.02784411241856 l -1.5088120702351293 -29.27055108017619 a50.309412726980575,50.309412726980575 0 0,0 0.8628644982647452,-0.03705511423292001 l 1.0061218113695638 29.29213876283494" fill="#abff21" stroke="none" /><path d="M 99.63950707515114 79.00309439819443 l -0.3212491205402723 -18.711150743042207 a39.713908280375236,39.713908280375236 0 0,0 0.6817420453891199,-0.005851935527464132 l 4.5835855750197365e-15 18.713908280375236" fill="#ffcd13" stroke="none" /></svg>