<?xml version="1.0" encoding="utf-8" ?>
<svg baseProfile="full" height="200mm" version="1.1" viewBox="0,0,200,200" width="200mm" xmlns="http://www.w3.org/2000/svg" xmlns:ev="http://www.w3.org/2001/xml-events" xmlns:xlink="http://www.w3.org/1999/xlink"><defs /><rect fill="#1a1a1a" height="200" width="200" x="0" y="0" /><text alignment-baseline="middle" fill="#e1ed5e" style="dominant-baseline: central; font-size:9.0px; font-family:Arial;" text-anchor="middle" x="100.0" y="100.0">2020</text><line stroke="#e1ed5e" stroke-width="0.3" x1="100.0" x2="100.0" y1="15.0" y2="10.0" /><path d="M 100.0 14.0 a86.0,86.0 0 0,1 42.35913384403234,11.155469271406648" fill="none" id="id61" stroke="none" /><text fill="#e1ed5e" style="font-size:6.75px; font-family:Arial;" text-anchor="middle"><textPath startOffset="22.145653131862478" xlink:href="#id61">January</textPath></text><path d="M 100.0 79.0 l 0.0 -23.14273671193279 a44.14273671193279,44.14273671193279 0 0,0 0.7577687746722652,0.006504533560896213 l -0.39727584982341047 23.13932657656633" fill="#f7ff18" stroke="none" /><path d="M 101.44090949804482 79.04949213459386 l 1.4211735516019843 -20.66355153557223 a41.71236578295735,41.71236578295735 0 0,0 0.7139389316034055,0.05526338857147575 l -1.7756814779806234 20.6361103800057" fill="#ffe715" stroke="none" /><path d="M 102.15924093988457 79.11130261209362 l 1.589366462974997 -15.375678772257183 a36.45760600679387,36.45760600679387 0 0,0 0.6219738736103516,0.06969346985139195 l -1.8530762381861454 15.346129541898822" fill="#ffa00e" stroke="none" /><path d="M 102.51750503828377 79.15144685158666 l 2.859479864890249 -23.68059528517308 a44.85261449312998,44.85261449312998 0 0,0 0.7636097346417369,0.09886456814885357 l -3.2655674214227774 23.62801912082383" fill="#eeff19" stroke="none" /><path d="M 103.58742460773223 79.30868818359171 l 3.373900452370518 -19.459761230118136 a40.75007623771906,40.75007623771906 0 0,0 0.6882207926983575,0.12541675427046836 l -3.707455978619929 19.398976301916303" fill="#ffdb14" stroke="none" /><path d="M 103.94208987418118 79.37332000966035 l 1.5648694711312807 -8.188058323855842 a29.33625308976063,29.33625308976063 0 0,0 0.4938318365992241,0.09878019788704936 l -1.705197793261462 8.159988729305933" fill="#ff3a05" stroke="none" /><path d="M 105.3480935250658 79.69241777938227 l 2.0443766901663105 -7.762831283874354 a29.02751677626361,29.02751677626361 0 0,0 0.4807766771173672,0.13103782126725794 l -2.177334768218371 7.7265929684629535" fill="#ff3505" stroke="none" /><path d="M 106.38641147887787 79.99465700312896 l 8.049621944319698 -25.215326091006933 a47.46902120068455,47.46902120068455 0 0,0 0.7741457346357963,0.2544770794629034 l -8.481290416603237 25.073428090142006" fill="#cdff1d" stroke="none" /><path d="M 108.4095320186766 80.7573450057729 l 3.226453139929034 -7.382756197230759 a29.056990066514114,29.056990066514114 0 0,0 0.45534599924984975,0.20367047369716904 l -3.3527125420345154 7.326281972623738" fill="#ff3505" stroke="none" /><path d="M 108.73861861582097 80.90454125486305 l 2.445060173710381 -5.342897742663146 a26.875787227395115,26.875787227395115 0 0,0 0.41786894539678837,0.1955837658856687 l -2.536417832978674 5.300137745206944" fill="#ff1402" stroke="none" /><line stroke="#e1ed5e" stroke-width="0.3" x1="143.13028292997686" x2="145.6673583964461" y1="26.7553504044142" y2="22.446841604673864" /><path d="M 143.63769802327073 25.89364864446614 a86.0,86.0 0 0,1 29.32050498858742,28.57503671076993" fill="none" id="id62" stroke="none" /><text fill="#e1ed5e" style="font-size:6.75px; font-family:Arial;" text-anchor="middle"><textPath startOffset="20.669276256404974" xlink:href="#id62">February</textPath></text><path d="M 110.65571695917076 81.90426304109057 l 5.790798861536206 -9.83404245644173 a32.41235043669215,32.41235043669215 0 0,0 0.4770283715696612,0.2864418309892137 l -5.958759989663301 9.733186624916597" fill="#ff6709" stroke="none" /><path d="M 111.5731344415666 82.4767994020092 l 5.990602203409292 -9.07053526796296 a31.870231129412666,31.870231129412666 0 0,0 0.4539287823816113,0.30542354298425034 l -6.145427273887904 8.96636205092159" fill="#ff5f08" stroke="none" /><path d="M 113.03279911837588 83.53348406188908 l 5.291609161236347 -6.6857753119892 a29.52647166404045,29.52647166404045 0 0,0 0.39473972256221973,0.3179743783373015 l -5.405599654153827 6.5939526398584904" fill="#ff3c05" stroke="none" /><path d="M 115.16444852881244 85.47280134310134 l 5.878196454007613 -5.631179232755998 a29.140231759804514,29.140231759804514 0 0,0 0.34294468014328783,0.3641953659313027 l -5.97399696788716 5.529442406880201" fill="#ff3705" stroke="none" /><path d="M 116.35404254752997 86.82634096563983 l 8.670465417070709 -6.984313189949016 a32.13362480434449,32.13362480434449 0 0,0 0.34235097970956757,0.4325492791388946 l -8.789082827421836 6.834443966895443" fill="#ff6309" stroke="none" /><path d="M 117.21940702142032 87.97951657250589 l 8.996735469758153 -6.280420079579263 a31.97200644771898,31.97200644771898 0 0,0 0.3102963356500824,0.45273162703181263 l -9.10322154222356 6.125053717477401" fill="#ff6008" stroke="none" /><line stroke="#e1ed5e" stroke-width="0.3" x1="172.87174338648825" x2="177.1583165268699" y1="56.24261187166439" y2="53.66864786411523" /><path d="M 173.72905801456457 55.72781907015455 a86.0,86.0 0 0,1 12.242430191666344,42.057860355516425" fill="none" id="id63" stroke="none" /><text fill="#e1ed5e" style="font-size:6.75px; font-family:Arial;" text-anchor="middle"><textPath startOffset="22.145653131862474" xlink:href="#id63">March</textPath></text><path d="M 118.00360718960297 89.18935116829356 l 6.933694773379625 -4.163484490182244 a29.08768980057841,29.08768980057841 0 0,0 0.2533763417198098,0.4302884215994817 l -7.004144825229203 4.043844900289206" fill="#ff3605" stroke="none" /><path d="M 118.70294669586156 90.45014215332178 l 14.47396469772961 -7.39050950574232 a37.25162406732295,37.25162406732295 0 0,0 0.2859152381035648,0.5720220032321616 l -14.59869984904491 7.1409556463464074" fill="#ffab0f" stroke="none" /><path d="M 119.0197475246899 91.09779779509293 l 7.6485302455113615 -3.579898351831557 a29.444861581218984,29.444861581218984 0 0,0 0.21034222225597632,0.4596357163565304 l -7.708856932622389 3.448073653260342" fill="#ff3b05" stroke="none" /><path d="M 119.31412917781788 91.75594674310238 l 10.257020240997836 -4.378112020757256 a32.15232393228149,32.15232393228149 0 0,0 0.21231887464278834,0.5094880071703075 l -10.330664960177106 4.20139150414567" fill="#ff6309" stroke="none" /><path d="M 119.94978838288452 93.4421083053983 l 8.061348211371625 -2.64992527579896 a29.48571970738503,29.48571970738503 0 0,0 0.15393691717291844,0.4822052005434359 l -8.1056498443218 2.511151041564137" fill="#ff3c05" stroke="none" /><path d="M 120.05942366710727 93.78553927170692 l 8.166983220638746 -2.5301522783284955 a29.549928975010594,29.549928975010594 0 0,0 0.14595368461521616,0.48583234722076546 l -8.20921322525759 2.3895823275170067" fill="#ff3d05" stroke="none" /><path d="M 120.26092885502905 94.47779374421319 l 15.333368107819432 -4.179177662245488 a36.89269339861893,36.89269339861893 0 0,0 0.16129225406852876,0.612452960235977 l -15.402849842692692 3.915344197636712" fill="#ffa60f" stroke="none" /><path d="M 120.43855184770803 95.1765574152323 l 10.030537374090093 -2.367179508547994 a31.306076791811115,31.306076791811115 0 0,0 0.11894689977276876,0.5241019875747175 l -10.069695135420528 2.19464318703425" fill="#ff5708" stroke="none" /><path d="M 120.592083275326 95.88100663000786 l 14.708545076585985 -2.9421209521467917 a35.99991246531202,35.99991246531202 0 0,0 0.11601178828787914,0.6070226982377235 l -14.75688315715602 2.6891956888757536" fill="#ff9a0e" stroke="none" /><path d="M 120.65975698304385 96.23510406497455 l 22.439351560039107 -4.089197348368391 a43.80890250294679,43.80890250294679 0 0,0 0.12847520267185195,0.7410108280547232 l -22.50624158020319 3.7033934873930754" fill="#fbff18" stroke="none" /><path d="M 120.77682067341334 96.94652285012252 l 18.25735422971583 -2.6832023452459075 a39.4534700881665,39.4534700881665 0 0,0 0.09272595665599614,0.6709188309791645 l -18.300724702927038 2.3693952060666574" fill="#ffc912" stroke="none" /><path d="M 120.86939407059847 97.66154086499901 l 10.075480081341427 -1.1289785585546546 a31.138534975783433,31.138534975783433 0 0,0 0.05496338062753591,0.5317208488119385 l -10.093375854450628 0.9558531874597845" fill="#ff5407" stroke="none" /><path d="M 120.93736805541906 98.37931529534042 l 17.849268651227604 -1.3816462802695506 a38.90266286973754,38.90266286973754 0 0,0 0.04582370378705569,0.6662665961432442 l -17.870356316179727 1.0750362599719723" fill="#ffc212" stroke="none" /><path d="M 120.96210409425399 98.7389718711861 l 27.874811962287843 -1.6768794683868986 a48.925204863785744,48.925204863785744 0 0,0 0.04323685894206778,0.8387835126564208 l -27.899490410686482 1.198124162353747" fill="#bcff1f" stroke="none" /><path d="M 120.99303781780057 99.45929381324524 l 8.183106252670973 -0.21076778959255635 a29.185820117962066,29.185820117962066 0 0,0 0.008600878292811304,0.500958041499595 l -8.18551856256245 0.07026283212389502" fill="#ff3705" stroke="none" /><line stroke="#e1ed5e" stroke-width="0.3" x1="184.99686870605535" x2="189.99668451229388" y1="99.2704041080226" y2="99.22748670261217" /><path d="M 185.99683186730306 99.26182062694052 a86.0,86.0 0 0,1 -10.086455211305974,41.156179273409016" fill="none" id="id64" stroke="none" /><text fill="#e1ed5e" style="font-size:6.75px; font-family:Arial;" text-anchor="middle"><textPath startOffset="21.40746469413373" xlink:href="#id64">April</textPath></text><path d="M 120.99922638620191 100.18025310272382 l 10.089538110045801 0.08660654997181438 a31.08990980973391,31.08990980973391 0 0,0 -0.009162001592798565,0.5336406606267629 l -10.086564676854334 -0.2597941265676483" fill="#ff5407" stroke="none" /><path d="M 120.98066250479742 100.90099992219065 l 16.62876499641316 0.714110718118118 a37.64409142679968,37.64409142679968 0 0,0 -0.033267357296802934,0.6453778441120513 l -16.614056049659784 -0.9994603556069" fill="#ffb110" stroke="none" /><path d="M 120.96210409425399 101.26102812881392 l 21.03868265148331 1.265634904655496 a42.076716998188004,42.076716998188004 0 0,0 -0.04956244312922393,0.7206270456378585 l -21.013856247189022 -1.626605374447698" fill="#ffec16" stroke="none" /><path d="M 120.9064616781168 101.97986365728391 l 29.38103133619936 2.7824142148811832 a50.51248602273115,50.51248602273115 0 0,0 -0.08916080984123462,0.8625499550475252 l -29.32893813387646 -3.28636869221164" fill="#a9ff21" stroke="none" /><path d="M 120.82617615685814 102.69636545807757 l 9.137747971331232 1.1830644189765165 a30.21401537913934,30.21401537913934 0 0,0 -0.07101082551646362,0.513798959433957 l -9.116092629259558 -1.3397516866105585" fill="#ff4706" stroke="none" /><path d="M 120.7213421655516 103.40968896794604 l 10.07811683057132 1.6583502892972737 a31.213645996051422,31.213645996051422 0 0,0 -0.09153800406664839,0.5279668821784694 l -10.048164009012437 -1.831110204396331" fill="#ff5507" stroke="none" /><path d="M 120.65975698304385 103.76489593502545 l 29.159788186543036 5.313884771240148 a50.640017180259406,50.640017180259406 0 0,0 -0.1631903676896814,0.8538809614380353 l -29.064271526571194 -5.813668297711497" fill="#a7ff21" stroke="none" /><path d="M 120.51834098615036 104.47187691870673 l 27.84069344155528 6.067749555683711 a49.49424145291745,49.49424145291745 0 0,0 -0.18805251825643962,0.8285940934560971 l -27.732430061741177 -6.544777983078825" fill="#b5ff20" stroke="none" /><path d="M 120.35273937422433 105.17358676015961 l 9.74624176583228 2.47745654449261 a31.056193091220095,31.056193091220095 0 0,0 -0.135775486282546,0.5155616367410468 l -9.702276798745004 -2.64439868560646" fill="#ff5307" stroke="none" /><path d="M 120.16314734710363 105.8691983318838 l 11.732711717042617 3.415221386458386 a33.21966699029691,33.21966699029691 0 0,0 -0.1640793384994068,0.5461667539518119 l -11.672356058539581 -3.6161257440009216" fill="#ff730a" stroke="none" /><path d="M 120.05942366710727 106.21446072829308 l 26.0596619186152 8.073349876516303 a48.28158641906971,48.28158641906971 0 0,0 -0.25206502141808285,0.7895900894673373 l -25.91723218141986 -8.519508999675026" fill="#c3ff1e" stroke="none" /><path d="M 119.83427380445688 106.89939002012753 l 17.058002321647617 5.933658683023834 a39.06055781452942,39.06055781452942 0 0,0 -0.22573250735047687,0.6314139982045127 l -16.953629644253198 -6.225607637609269" fill="#ffc412" stroke="none" /><path d="M 119.58574465831526 107.57618678355244 l 11.007630855493648 4.257988085748315 a32.80247429945054,32.80247429945054 0 0,0 -0.20765735227421922,0.5234321795535276 l -10.932914828253304 -4.446321282515407" fill="#ff6c0a" stroke="none" /><path d="M 119.31412917781788 108.2440532568976 l 12.300008341281872 5.250142157186762 a34.37363816866126,34.37363816866126 0 0,0 -0.23630422396967066,0.5407103089004565 l -12.208070235295235 -5.460514535863063" fill="#ff830c" stroke="none" /><path d="M 119.16976305983485 108.57439118712176 l 28.41324747812573 12.708884195048043 a52.12600793125196,52.12600793125196 0 0,0 -0.3723671892750645,0.8136895101442336 l -28.190895823995607 -13.194762687406966" fill="#96ff23" stroke="none" /><path d="M 118.8641267826498 109.22738970284198 l 27.23656633674848 13.32276943704798 a51.32040123891569,51.32040123891569 0 0,0 -0.3938965107474834,0.7880568823069022 l -27.003849912789267 -13.788358175518628" fill="#9fff22" stroke="none" /><path d="M 118.5362547648365 109.86951160357373 l 9.396859862520726 5.003298596555653 a31.64584295028575,31.64584295028575 0 0,0 -0.2594275728206826,0.47731751405356243 l -9.309586940084705 -5.163870944083818" fill="#ff5c08" stroke="none" /><line stroke="#e1ed5e" stroke-width="0.3" x1="174.33088141563837" x2="178.70328620479359" y1="141.23008692659167" y2="143.65538615756765" /><path d="M 175.20536237346943 141.71514677278685 a86.0,86.0 0 0,1 -30.301960400862466,31.631185727798858" fill="none" id="id65" stroke="none" /><text fill="#e1ed5e" style="font-size:6.75px; font-family:Arial;" text-anchor="middle"><textPath startOffset="22.145653131862474" xlink:href="#id65">May</textPath></text><path d="M 118.18653347947321 110.5 l 11.167698846224566 6.4476739350964225 a33.89534787019285,33.89534787019285 0 0,0 -0.29525477284549223,0.501407153150435 l -11.055370363249308 -6.638432256540407" fill="#ff7c0b" stroke="none" /><path d="M 118.00360718960297 110.81064883170644 l 12.95949482151216 7.781804283787849 a36.1163813110142,36.1163813110142 0 0,0 -0.32372666527033256,0.5287831787156941 l -12.824000191786423 -8.0031245786281" fill="#ff9c0e" stroke="none" /><path d="M 117.62189284568427 111.42229804090321 l 15.699722993885846 10.176370765964789 a39.709351246131725,39.709351246131725 0 0,0 -0.3756798875675791,0.5688272320446811 l -15.522718667397541 -10.44437787634853" fill="#ffcd13" stroke="none" /><path d="M 117.21940702142032 112.02048342749411 l 6.457535398951978 4.507861225941114 a28.875314359507257,28.875314359507257 0 0,0 -0.28721986642390884,0.40401071165453833 l -6.3792004339981085 -4.618049164305156" fill="#ff3304" stroke="none" /><path d="M 116.79662413953412 112.60449989151573 l 6.100093537596672 4.5776239138375905 a28.626649452018,28.626649452018 0 0,0 -0.2983278870259821,0.39052078057084083 l -6.020613673216386 -4.681665607649308" fill="#ff2f04" stroke="none" /><path d="M 116.57777611688842 112.89097897827486 l 12.19841012697993 9.485557496163635 a36.45241115939621,36.45241115939621 0 0,0 -0.38836324097205166,0.49068426814205524 l -12.033780455366317 -9.693561708220374" fill="#ffa00e" stroke="none" /><path d="M 116.1254893667686 113.45245675266167 l 8.40247489987942 7.00964340585492 a31.94242592482805,31.94242592482805 0 0,0 -0.3548734106206509,0.418039985394628 l -8.280906925751655 -7.152850173699104" fill="#ff6008" stroke="none" /><path d="M 115.6541949942343 113.99807769240083 l 8.821337264289168 7.888094176792273 a32.83376613222861,32.83376613222861 0 0,0 -0.3793117692237466,0.4169300800186899 l -8.684627794223543 -8.038361832368635" fill="#ff6d0a" stroke="none" /><path d="M 115.41159269507618 114.26474011684316 l 7.835321103265231 7.252256238630294 a31.67649180873687,31.67649180873687 0 0,0 -0.37279334086811733,0.3958936092476749 l -7.709671928660853 -7.385691307822466" fill="#ff5c08" stroke="none" /><path d="M 115.16444852881244 114.52719865689866 l 11.831821236566492 11.334617098006287 a37.38491802031619,37.38491802031619 0 0,0 -0.4479304196098377,0.45961607103588425 l -11.635504015805848 -11.536055861109908" fill="#ffad10" stroke="none" /><path d="M 114.91283532996324 114.78537596483092 l 20.719073595787666 20.541988560768 a50.17624555521819,50.17624555521819 0 0,0 -0.6116916323656568,0.606463530170935 l -20.363390043292046 -20.894632101167595" fill="#adff20" stroke="none" /><path d="M 114.39649973595853 115.28858382429668 l 7.173579468036618 7.618092802335558 a31.464013586059288,31.464013586059288 0 0,0 -0.39640196523067367,0.36690374107979185 l -7.041747731491976 -7.740114289547729" fill="#ff5908" stroke="none" /><path d="M 114.13192950727249 115.5334660781643 l 7.305145156053824 8.02963419957854 a31.85542127833176,31.85542127833176 0 0,0 -0.4076507515601182,0.36452381574433307 l -7.166229377670327 -8.15385354520626" fill="#ff5f08" stroke="none" /><path d="M 113.86319453409587 115.77377054828091 l 8.992603951411528 10.231932547167471 a34.62201781957164,34.62201781957164 0 0,0 -0.44979032919977235,0.3885181735758647 l -8.8156341424489 -10.384794853208053" fill="#ff870c" stroke="none" /><path d="M 113.31354834802062 116.24036423190432 l 10.683470911263438 13.032097403669885 a37.85147214490625,37.85147214490625 0 0,0 -0.5060367450286689,0.4076273813334289 l -10.458183395879516 -13.213573078796717" fill="#ffb410" stroke="none" /><path d="M 112.45986205192187 116.90419585922612 l 6.011055713434166 8.155151531949596 a31.131104939692875,31.131104939692875 0 0,0 -0.432898752877671,0.31338531288356497 l -5.870175950182527 -8.257137616206238" fill="#ff5407" stroke="none" /><path d="M 112.16784306229584 117.11559508785304 l 7.3600332784145746 10.352808528309453 a33.70239088845903,33.70239088845903 0 0,0 -0.4744091517052041,0.3311744323617019 l -7.181229035535613 -10.477627776476277" fill="#ff790b" stroke="none" /><path d="M 111.8722381534696 117.32195027204791 l 8.542403798977716 12.46362243553895 a36.11008096869301,36.11008096869301 0 0,0 -0.5143171073739923,0.3460555030844388 l -8.327190403506721 -12.60842761268051" fill="#ff9b0e" stroke="none" /><path d="M 111.27062007382361 117.71928675628689 l 10.076015897235058 15.84117057220996 a39.77415195046595,39.77415195046595 0 0,0 -0.5792553530200483,0.361498181825185 l -9.802596415425295 -16.011804550876693" fill="#ffce13" stroke="none" /><path d="M 110.96478420261333 117.91015095944535 l 4.118631934246653 6.72747573738559 a28.888096019123253,28.888096019123253 0 0,0 -0.42516020023497686,0.25529648439634295 l -4.00253897745424 -6.7971862223178565" fill="#ff3304" stroke="none" /><line stroke="#e1ed5e" stroke-width="0.3" x1="143.1302829299769" x2="145.66735839644613" y1="173.24464959558577" y2="177.55315839532614" /><path d="M 143.63769802327073 174.10635135553383 a86.0,86.0 0 0,1 -40.68552437913181,11.842963189579606" fill="none" id="id66" stroke="none" /><text fill="#e1ed5e" style="font-size:6.75px; font-family:Arial;" text-anchor="middle"><textPath startOffset="21.407464694133747" xlink:href="#id66">June</textPath></text><path d="M 110.34350942703117 118.27599006163325 l 3.8465514831830863 6.796487901340118 a28.80949461270322,28.80949461270322 0 0,0 -0.4324933625209703,0.23989677765561734 l -3.729313932506021 -6.861517594428879" fill="#ff3204" stroke="none" /><path d="M 109.71004243097381 118.62028667847754 l 4.428473112322554 8.492181108945564 a30.57750040948554,30.57750040948554 0 0,0 -0.46750490521559984,0.23871133570741657 l -4.282040985393372 -8.566950396325817" fill="#ff4c07" stroke="none" /><path d="M 109.06512990194946 118.94263497670748 l 5.27141699129295 11.015234084467142 a33.21160182087914,33.21160182087914 0 0,0 -0.5163791821391749,0.24169153075455616 l -5.081549095282269 -11.104101846792231" fill="#ff720a" stroke="none" /><path d="M 108.73861861582097 119.09545874513695 l 12.643349424811893 27.628000254496154 a51.383559415255,51.383559415255 0 0,0 -0.8052209865300942,0.36016510527744683 l -12.167215035426173 -27.84096911068345" fill="#9eff22" stroke="none" /><path d="M 108.07796709384702 119.3841803445677 l 10.558395960161953 25.336306655300433 a48.44828155245762,48.44828155245762 0 0,0 -0.7704327374967945,0.31332828722181816 l -10.121908761474717 -25.513822199101543" fill="#c1ff1e" stroke="none" /><path d="M 107.74402155503746 119.51999308798841 l 4.159362835883476 10.48431144333101 a32.27923249344964,32.27923249344964 0 0,0 -0.5168177766532344,0.1999162185198217 l -3.9787727967367124 -10.554167549988872" fill="#ff6509" stroke="none" /><path d="M 107.407793817531 119.65005319985036 l 11.47232723843581 30.43171099442021 a53.522351180590746,53.522351180590746 0 0,0 -0.8625021080233072,0.31672272096519255 l -10.948235978758374 -30.62416456439413" fill="#86ff25" stroke="none" /><path d="M 106.72888874123015 119.89276391827305 l 6.676512867984309 19.73792395560452 a41.83654160732022,41.83654160732022 0 0,0 -0.6822887731410329,0.22428187170848554 l -6.336701357195542 -19.84962674871502" fill="#ffe915" stroke="none" /><path d="M 106.0420521117495 120.11202640906438 l 2.724398119372055 9.068635276922581 a30.469027980668486,30.469027980668486 0 0,0 -0.502216617522527,0.146187937977398 l -2.568321489467921 -9.114066909202498" fill="#ff4a06" stroke="none" /><path d="M 105.69591212413111 120.21278271476187 l 7.860699092643532 27.894847968703008 a49.981254862792625,49.981254862792625 0 0,0 -0.8278290498048804,0.22562848871659227 l -7.380688641903957 -28.025676951563742" fill="#afff20" stroke="none" /><path d="M 104.9986988182912 120.39639698878246 l 3.223960472063113 13.15485890522621 a34.54415866496826,34.54415866496826 0 0,0 -0.5771635500783479,0.1362090262836209 l -2.997664768244886 -13.208264075156055" fill="#ff850c" stroke="none" /><path d="M 104.64783097203109 120.47920084513623 l 1.612671683067641 7.10572899349087 a28.286432219289836,28.286432219289836 0 0,0 -0.4744545013042507,0.10340515028925135 l -1.4904547651442546 -7.132365601913841" fill="#ff2a04" stroke="none" /><path d="M 104.29559338865022 120.5559693870025 l 6.134554252025199 29.356062829578107 a50.990184739764075,50.990184739764075 0 0,0 -0.8583433099491562,0.17169270129623196 l -5.629714456545084 -29.4570449275372" fill="#a3ff22" stroke="none" /><path d="M 103.94208987418118 120.62667999033965 l 1.5258932036255943 7.984118022463124 a29.12862169531165,29.12862169531165 0 0,0 -0.49194811308848396,0.08964933385859479 l -1.388610356986053 -8.009135530253083" fill="#ff3605" stroke="none" /><path d="M 103.2317021107853 120.74984581791261 l 6.4859798163584745 41.644643149002306 a63.14669900699169,63.14669900699169 0 0,0 -1.0725162952162872,0.15762296126976344 l -5.770138415534501 -41.74984718357095" fill="#32ff44" stroke="none" /><path d="M 102.875027216393 120.80226474461374 l 1.0008874686012577 7.241923131263889 a28.310760997593754,28.310760997593754 0 0,0 -0.48198690170425734,0.06240285413955887 l -0.876422745006225 -7.258037581603843" fill="#ff2a04" stroke="none" /><path d="M 102.51750503828377 120.84855314841334 l 2.88788063586316 23.91579441052952 a45.089522138342815,45.089522138342815 0 0,0 -0.7692360474354376,0.08619450358799398 l -2.476908686826923 -23.961844674624487" fill="#ebff1a" stroke="none" /><path d="M 101.80034050326958 120.92268563240118 l 2.1341758675278157 24.80235859796981 a45.89400929251504,45.89400929251504 0 0,0 -0.785510947323969,0.06080351524131078 l -1.708095925428611 -24.835339880206174" fill="#e1ff1b" stroke="none" /><path d="M 101.44090949804482 120.95050786540614 l 0.9984036495460166 14.516569944917824 a35.550862957677744,35.550862957677744 0 0,0 -0.6091989915183367,0.03664789855519775 l -0.7490603058952147 -14.531569821297714" fill="#ff940d" stroke="none" /><path d="M 100.72087961077811 120.9876233191556 l 0.807986997581412 23.523659843437873 a44.53753205877864,44.53753205877864 0 0,0 -0.7643206465776778,0.019686188623857667 l -0.4040530369329904 -23.534063749411775" fill="#f2ff19" stroke="none" /><line stroke="#e1ed5e" stroke-width="0.3" x1="101.45913802915013" x2="101.54496967792366" y1="184.9874750549273" y2="189.98673829345242" /><path d="M 101.47630435890484 185.9873277026323 a86.0,86.0 0 0,1 -42.54439059252881,-10.42667462771756" fill="none" id="id67" stroke="none" /><text fill="#e1ed5e" style="font-size:6.75px; font-family:Arial;" text-anchor="middle"><textPath startOffset="22.145653131862474" xlink:href="#id67">July</textPath></text><path d="M 100.0 121.0 l 2.3155764091618013e-15 18.908116289317014 a39.908116289317014,39.908116289317014 0 0,0 -0.6850758841116196,-0.005880552523283858 l 0.32458295926276515 -18.905330134988166" fill="#ffcf13" stroke="none" /><path d="M 99.27912038922189 120.98762331915562 l -1.044022640592849 30.395580052239126 a51.413504730401385,51.413504730401385 0 0,0 -0.8818009505294047,-0.037868326971705786 l 1.5656493517230923 -30.37317915684159" fill="#9eff22" stroke="none" /><path d="M 98.55909050195518 120.95050786540614 l -0.5328334999486091 7.747282148374023 a28.7655838302849,28.7655838302849 0 0,0 -0.4923448910474531,-0.03811060837378589 l 0.6657473857712983 -7.736993773005183" fill="#ff3104" stroke="none" /><path d="M 98.19965949673042 120.92268563240118 l -2.666899740218953 30.99341750985325 a52.10794565966158,52.10794565966158 0 0,0 -0.890550688017259,-0.08433607605729426 l 3.1985499916212277 -30.94306967829077" fill="#96ff23" stroke="none" /><path d="M 97.84075906011543 120.88869738790638 l -0.9136399367677202 8.838637600890927 a29.885733091531606,29.885733091531606 0 0,0 -0.5098564390969871,-0.057130477459580525 l 1.0652322774655065 -8.821651362924374" fill="#ff4206" stroke="none" /><path d="M 97.12497278360702 120.80226474461374 l -4.050842329212495 29.30987716933251 a50.58848125973178,50.58848125973178 0 0,0 -0.8592210100372593,-0.12627589957498767 l 4.553388444857439 -29.23602019645864" fill="#a8ff21" stroke="none" /><path d="M 96.76829788921471 120.74984581791261 l -2.063998395983178 13.25235031475811 a34.412116844245375,34.412116844245375 0 0,0 -0.5829125775745093,-0.09591804281563308 l 2.291188476610751 -13.214966273446809" fill="#ff840c" stroke="none" /><path d="M 96.41257539226777 120.69131181640829 l -3.4247225134635886 19.752889373065795 a41.04757748155123,41.04757748155123 0 0,0 -0.6932452383132377,-0.1263323756345904 l 3.763302485327883 -19.69118882349984" fill="#ffdf14" stroke="none" /><path d="M 95.70440661134978 120.55596938700252 l -4.918010879760321 23.534462399632524 a45.04283160222934,45.04283160222934 0 0,0 -0.7555132453428788,-0.1646605954110285 l 5.321286541722337 -23.44657034608778" fill="#ecff1a" stroke="none" /><path d="M 95.35216902796893 120.47920084513623 l -1.7631311852376892 7.768681321693365 a28.966243848538973,28.966243848538973 0 0,0 -0.4839677901610519,-0.11421508070203658 l 1.896231129138629 -7.737270097345101" fill="#ff3404" stroke="none" /><path d="M 95.00130118170881 120.39639698878247 l -8.379022193383353 34.18926989733874 a56.201053805678654,56.201053805678654 0 0,0 -0.935064319755229,-0.2376896935412028 l 8.96469180636396 -34.04039497196227" fill="#68ff28" stroke="none" /><path d="M 94.30408787586889 120.21278271476187 l -8.234791532503493 29.222370064784823 a51.36047930759696,51.36047930759696 0 0,0 -0.8465674129336358,-0.24642343589931162 l 8.735218957818734 -29.076702934582997" fill="#9fff22" stroke="none" /><path d="M 93.95794788825049 120.11202640906438 l -2.224071416121043 7.403210404241229 a28.73007231230551,28.73007231230551 0 0,0 -0.47111759614370124,-0.1459534355637366 l 2.3508296451363777 -7.363940380870843" fill="#ff3004" stroke="none" /><path d="M 93.27111125876986 119.89276391827306 l -7.590215801952634 22.439124325510292 a44.68809144730574,44.68809144730574 0 0,0 -0.7245731998158015,-0.25204417126366946 l 7.974294773813457 -22.305521721678033" fill="#f0ff19" stroke="none" /><path d="M 92.93061703081489 119.77432235084164 l -1.8506121624930545 5.176491584490305 a26.497347587725027,26.497347587725027 0 0,0 -0.4269995179084626,-0.15680013753559247 l 1.939200832055636 -5.143960597945994" fill="#ff0e01" stroke="none" /><path d="M 92.59220618246901 119.65005319985036 l -12.286494335164864 32.591385947364046 a55.83039449989157,55.83039449989157 0 0,0 -0.8938917727043956,-0.34577654066443914 l 12.844158370362788 -32.375669518561565" fill="#6cff28" stroke="none" /><path d="M 91.92203290615298 119.3841803445677 l -4.1379378281522685 9.929544424191656 a31.757247879529835,31.757247879529835 0 0,0 -0.5014090240938235,-0.2140216967620768 l 4.307781927416523 -9.857048077770175" fill="#ff5d08" stroke="none" /><path d="M 91.59046798132341 119.24265499422711 l -7.256151408174572 16.60349444217369 a39.11981680232023,39.11981680232023 0 0,0 -0.6130384472565007,-0.27420429992357953 l 7.540103258286709 -16.47648639134026" fill="#ffc512" stroke="none" /><path d="M 90.93487009805054 118.94263497670748 l -4.779183223579086 9.986654826820981 a32.07130827475265,32.07130827475265 0 0,0 -0.4945697370254871,-0.24191884158473942 l 4.949913209866643 -9.90314223513902" fill="#ff6209" stroke="none" /><path d="M 90.6110303473126 118.78422872680471 l -3.689647769672927 7.381767136401744 a29.252513963654543,29.252513963654543 0 0,0 -0.4472469490558472,-0.22836747894859455 l 3.815821940442357 -7.317341705780313" fill="#ff3805" stroke="none" /><path d="M 90.28995756902619 118.62028667847754 l -17.736852561535816 34.01275347841746 a59.3596576884265,59.3596576884265 0 0,0 -0.8994717603589769,-0.4789180494427746 l 18.318113137681355 -33.70326496125211" fill="#46ff2d" stroke="none" /><line stroke="#e1ed5e" stroke-width="0.3" x1="58.13341422392154" x2="55.67067388415222" y1="173.97424548756322" y2="178.32567169271397" /><path d="M 57.64086615596768 174.84453072859336 a86.0,86.0 0 0,1 -31.369924170532247,-30.572349798747897" fill="none" id="id68" stroke="none" /><text fill="#e1ed5e" style="font-size:6.75px; font-family:Arial;" text-anchor="middle"><textPath startOffset="22.145653131862474" xlink:href="#id68">August</textPath></text><path d="M 89.03521579738668 117.91015095944536 l -6.94053333118747 11.336839595165303 a34.292664703806835,34.292664703806835 0 0,0 -0.49942509456243034,-0.31167819632724164 l 7.134122554539613 -11.216025601996513" fill="#ff820c" stroke="none" /><path d="M 88.72937992617639 117.7192867562869 l -17.79432759511222 27.97563853877071 a54.15530796439878,54.15530796439878 0 0,0 -0.7801313689893822,-0.5056717280991159 l 18.271944596358612 -27.666052968967698" fill="#7eff26" stroke="none" /><path d="M 88.1277618465304 117.32195027204791 l -21.00549607122245 30.647646524769073 a58.15520290222261,58.15520290222261 0 0,0 -0.8186173072229851,-0.5714584574656306 l 21.5285084696192 -30.282543251498314" fill="#52ff2b" stroke="none" /><path d="M 87.54013794807813 116.9041958592261 l -15.348681566917246 20.823434345169385 a46.86885083976877,46.86885083976877 0 0,0 -0.6435472882302116,-0.4829298826536647 l 15.703881844058225 -20.556885435251708" fill="#d5ff1c" stroke="none" /><path d="M 87.2517909369889 116.68781488649013 l -6.998367540634409 9.161087761306542 a32.52834234416058,32.52834234416058 0 0,0 -0.4408210832689955,-0.3427851406324552 l 7.154598568538633 -9.039601569053293" fill="#ff6909" stroke="none" /><path d="M 86.68645165197938 116.24036423190432 l -17.344535587884398 21.15751323518109 a48.358239728759074,48.358239728759074 0 0,0 -0.6374667576986925,-0.5317974415631359 l 17.705176679744984 -20.856653609706083" fill="#c2ff1e" stroke="none" /><path d="M 86.13680546590413 115.77377054828092 l -11.560217536613212 13.153405476802149 a38.511444975529244,38.511444975529244 0 0,0 -0.4928272444043847,-0.4406891608699921 l 11.784309807840968 -12.953020786048775" fill="#ffbd11" stroke="none" /><path d="M 85.60350026404147 115.28858382429668 l -14.845948664891242 15.765883011651596 a42.65560571532624,42.65560571532624 0 0,0 -0.528782276180008,-0.5065614590414396 l 15.114403426936565 -15.508709422304573" fill="#fff417" stroke="none" /><path d="M 85.34317274990678 115.03919595460226 l -12.111365814089186 12.427328278348911 a38.35291531762138,38.35291531762138 0 0,0 -0.46755505751820947,-0.46355888445808335 l 12.322912791737359 -12.217589383662169" fill="#ffba11" stroke="none" /><path d="M 85.08716467003676 114.78537596483092 l -4.961448822560364 4.919043531878352 a27.986627490241617,27.986627490241617 0 0,0 -0.3353240413247803,-0.3440720068349351 l 5.045159665035953 -4.83314883297568" fill="#ff2503" stroke="none" /><path d="M 84.58840730492382 114.26474011684316 l -28.088695323132647 25.99847705121915 a59.27395477264589,59.27395477264589 0 0,0 -0.6847617956208725,-0.7526731659980251 l 28.5308548195954 -25.512466309663452" fill="#46ff2c" stroke="none" /><path d="M 84.3458050057657 113.99807769240083 l -5.387018088632475 4.817104792857118 a28.226649463798594,28.226649463798594 0 0,0 -0.319887155900152,-0.36397286253909084 l 5.468916308491219 -4.723919652506727" fill="#ff2904" stroke="none" /><path d="M 83.8745106332314 113.45245675266167 l -17.67096796508879 14.741749966231469 a44.01265523337278,44.01265523337278 0 0,0 -0.479011064159091,-0.5843156121645293 l 17.92142584848651 -14.436232072368444" fill="#f9ff18" stroke="none" /><path d="M 83.64595745247003 113.17365903436017 l -8.640222061834823 6.9599512837857755 a32.094789729890714,32.094789729890714 0 0,0 -0.3419372316227142,-0.43202652194724006 l 8.758425724099098 -6.8106048179238545" fill="#ff6209" stroke="none" /><path d="M 83.20337586046588 112.60449989151573 l -19.188463483809436 14.399380726199782 a44.990400083523866,44.990400083523866 0 0,0 -0.4582550340943439,-0.6217109641765474 l 19.43282053748761 -14.067863452754356" fill="#ecff1a" stroke="none" /><path d="M 82.98947788004972 112.3143062007846 l -10.808008521157678 7.8241646794680415 a34.34281084048081,34.34281084048081 0 0,0 -0.3416045075532397,-0.48050952017814197 l 10.940728127240877 -7.637477932580396" fill="#ff830c" stroke="none" /><path d="M 82.37810715431573 111.42229804090323 l -34.84947583812555 22.58900919885083 a62.53010116503286,62.53010116503286 0 0,0 -0.5761175388703422,-0.9057524616839162 l 35.23211106862178 -21.987443062488243" fill="#31ff3d" stroke="none" /><path d="M 82.18462484594161 111.11811171558189 l -11.2055779486858 6.993109400941749 a34.2086545968018,34.2086545968018 0 0,0 -0.30662688990466574,-0.5008519807538862 l 11.323972803045871 -6.799720304063306" fill="#ff810b" stroke="none" /><line stroke="#e1ed5e" stroke-width="0.3" x1="26.387840678322732" x2="22.057713659400548" y1="142.50000000000003" y2="145.00000000000006" /><path d="M 25.521815274538298 143.00000000000003 a86.0,86.0 0 0,1 -11.493303480769221,-40.785679425670985" fill="none" id="id69" stroke="none" /><text fill="#e1ed5e" style="font-size:6.75px; font-family:Arial;" text-anchor="middle"><textPath startOffset="21.40746469413373" xlink:href="#id69">September</textPath></text><path d="M 81.81346652052679 110.50000000000001 l -28.876086345544195 16.671616224742838 a54.34323244948565,54.34323244948565 0 0,0 -0.4595021390436289,-0.8118962510455168 l 29.158021849609202 -16.1734632035982" fill="#7cff26" stroke="none" /><path d="M 81.63589988554817 110.18625677009913 l -9.779154828698152 5.424332336398158 a32.182810490182916,32.182810490182916 0 0,0 -0.263829547063502,-0.485416650855657 l 9.870829725376984 -5.255660852067914" fill="#ff6409" stroke="none" /><path d="M 81.4637452351635 109.86951160357371 l -20.065046366527312 10.683507021944665 a43.731990849435775,43.731990849435775 0 0,0 -0.3471319048696333,-0.6656711986448404 l 20.245486340371894 -10.33748958019532" fill="#fcff18" stroke="none" /><path d="M 81.1358732173502 109.22738970284198 l -19.40594536059937 9.492420320192286 a42.603165482719604,42.603165482719604 0 0,0 -0.3157112488417852,-0.659715085115804 l 19.56603586740107 -9.157892733011378" fill="#fff316" stroke="none" /><path d="M 80.9802524753101 108.90220220490708 l -4.130372573741025 1.9332229192482178 a25.560408803322204,25.560408803322204 0 0,0 -0.18259325738828172,-0.3989992202297942 l 4.162950295984363 -1.8620347168037348" fill="#ff0000" stroke="none" /><path d="M 80.68587082218212 108.24405325689762 l -21.779915610626222 9.296550860338844 a44.68101733255703,44.68101733255703 0 0,0 -0.29505249256395233,-0.7080185720650295 l 21.936293947726657 -8.921299778832532" fill="#f0ff19" stroke="none" /><path d="M 80.5471966667186 107.91128576633889 l -11.387994292168244 4.631398138726868 a33.29374892853515,33.29374892853515 0 0,0 -0.21076738561450659,-0.5312714951951942 l 11.465820352748874 -4.4352256263181085" fill="#ff740a" stroke="none" /><path d="M 80.28708602549918 107.23885506374661 l -15.641729963939328 5.743859903293998 a37.66300221609137,37.66300221609137 0 0,0 -0.21765597831330658,-0.6088225090529004 l 15.738026112296577 -5.474502437860177" fill="#ffb110" stroke="none" /><path d="M 80.16572619554312 106.89939002012753 l -23.680802465778633 8.237412360632598 a46.07260193562547,46.07260193562547 0 0,0 -0.25343129474561477,-0.749224591125457 l 23.818719182096615 -7.829686095032979" fill="#dfff1b" stroke="none" /><path d="M 80.05021161711548 106.5578916946017 l -13.668056716281614 4.492961724744271 a35.387580736854545,35.387580736854545 0 0,0 -0.18474892724001854,-0.5787233832277071 l 13.743170359298887 -4.257669307825172" fill="#ff910d" stroke="none" /><path d="M 79.73907114497094 105.5222062557868 l -38.49129271403407 10.490972992385792 a60.89536475738027,60.89536475738027 0 0,0 -0.2662302407123939,-1.0109195879881963 l 38.66571243555119 -9.828672900024793" fill="#35ff2f" stroke="none" /><path d="M 79.56144815229197 104.8234425847677 l -12.890235624703163 3.0420605091380417 a34.2443311118993,34.2443311118993 0 0,0 -0.13011074647392595,-0.5732919560079716 l 12.940557232734756 -2.820334219191044" fill="#ff810b" stroke="none" /><path d="M 79.48165901384964 104.47187691870673 l -29.665832704420424 6.465530163216323 a51.362225055784705,51.362225055784705 0 0,0 -0.18036038346512515,-0.8630897260744183 l 29.77245079870992 -5.955323985856496" fill="#9fff22" stroke="none" /><path d="M 79.407916724674 104.11899336999214 l -13.163388416500267 2.6330463454935473 a34.42414718561929,34.42414718561929 0 0,0 -0.11093379405121956,-0.5804524866354017 l 13.206648502833643 -2.406691293824831" fill="#ff840c" stroke="none" /><path d="M 79.2786578344484 103.40968896794605 l -35.19902284636841 5.7919858145708245 a56.67237459176715,56.67237459176715 0 0,0 -0.14971898949201912,-0.9613033136950132 l 35.293263327998694 -5.186894318944361" fill="#62ff29" stroke="none" /><path d="M 79.22317932658666 103.0534771498775 l -15.416628077533662 2.2657134266527423 a36.58222957771813,36.58222957771813 0 0,0 -0.08597779172840388,-0.6220924711577043 l 15.45325038581728 -2.0007326472949525" fill="#ffa20f" stroke="none" /><path d="M 79.17382384314188 102.69636545807758 l -8.54699068935648 1.1065790614520687 a29.61832739359503,29.61832739359503 0 0,0 -0.06095439611569048,-0.5047898406247884 l 8.564727171731834 -0.959695543903881" fill="#ff3e05" stroke="none" /><path d="M 79.0935383218832 101.97986365728391 l -19.417911901276913 1.8388964457778076 a40.50479025121895,40.50479025121895 0 0,0 -0.05961220619300205,-0.6927841970810151 l 19.446617730167656 -1.5052912013211306" fill="#ffd714" stroke="none" /><path d="M 79.06263194458094 101.62068470465958 l -7.907059774923564 0.6120564343201117 a28.930712916441177,28.930712916441177 0 0,0 -0.034077678010638726,-0.49548195925242594 l 7.916401414099268 -0.4762310509133424" fill="#ff3304" stroke="none" /><path d="M 79.03789590574601 101.26102812881392 l -21.295819203158036 1.2811036010778667 a42.334318408852184,42.334318408852184 0 0,0 -0.03741226957655486,-0.7257880350170239 l 21.31467306219116 -0.9153437726841119" fill="#fff016" stroke="none" /><path d="M 79.00696218219943 100.54070618675478 l -10.897036190750091 0.28066899782522786 a31.900650110376787,31.900650110376787 0 0,0 -0.009400921678813755,-0.5475565578513096 l 10.900248544027571 -0.09356552400486583" fill="#ff5f08" stroke="none" /><line stroke="#e1ed5e" stroke-width="0.3" x1="15.003131293944662" x2="10.003315487706104" y1="100.72959589197737" y2="100.7725132973878" /><path d="M 14.003168132696942 100.73817937305945 a86.0,86.0 0 0,1 10.791469493833604,-42.45332614584628" fill="none" id="id70" stroke="none" /><text fill="#e1ed5e" style="font-size:6.75px; font-family:Arial;" text-anchor="middle"><textPath startOffset="22.145653131862435" xlink:href="#id70">October</textPath></text><path d="M 79.00077361379809 99.81974689727619 l -31.71202510262571 -0.27220959540489187 a52.71319337710086,52.71319337710086 0 0,0 0.015534247755568263,-0.904792053423606 l 31.702679423271476 0.8165485647975502" fill="#8fff24" stroke="none" /><path d="M 79.00696218219943 99.45929381324524 l -19.98269236685538 -0.5146832718804608 a40.98931947562833,40.98931947562833 0 0,0 0.024155031347475892,-0.7032473822308589 l 19.970912648511057 0.8576369186754583" fill="#ffde14" stroke="none" /><path d="M 79.01933749520258 99.09900007780938 l -13.615845722627181 -0.5847230007079829 a34.62839520009388,34.62839520009388 0 0,0 0.03060228450397482,-0.5936761439110606 l 13.603801848666636 0.8183709379957554" fill="#ff870c" stroke="none" /><path d="M 79.06263194458094 98.37931529534042 l -50.664699502688364 -3.9217681674621403 a71.81625764710572,71.81625764710572 0 0,0 0.10569430263226379,-1.2283280096707474 l 50.58991157735836 4.7909172245085685" fill="#3dffac" stroke="none" /><path d="M 79.0935383218832 98.0201363427161 l -12.39911176219128 -1.1742087751874033 a33.4545870561427,33.4545870561427 0 0,0 0.059051500127862394,-0.5712696965345416 l 12.377127869581754 1.3868829940048577" fill="#ff760a" stroke="none" /><path d="M 79.13060592940154 97.66154086499901 l -27.412453647426045 -3.071622608100785 a48.58400769320654,48.58400769320654 0 0,0 0.09998568826879099,-0.8280249311332875 l 27.355685872897585 3.5417412161575084" fill="#c0ff1e" stroke="none" /><path d="M 79.2786578344484 96.59031103205396 l -21.317846624393226 -3.507843549651859 a42.60452617092048,42.60452617092048 0 0,0 0.12494321523300081,-0.7206392630965666 l 21.254488591667993 3.8732758456690184" fill="#fff316" stroke="none" /><path d="M 79.48165901384962 95.52812308129327 l -12.490381709577843 -2.7222205591865114 a33.78358791669281,33.78358791669281 0 0,0 0.1283601606363766,-0.565578551802961 l 12.441810687383803 2.9362334449284804" fill="#ff7b0b" stroke="none" /><path d="M 79.64726062577567 94.8264132398404 l -10.629495573011654 -2.7019762083404557 a31.96753625784352,31.96753625784352 0 0,0 0.13975981434411297,-0.5306907793644824 l 10.581546277862817 2.8840474920777224" fill="#ff6008" stroke="none" /><path d="M 79.73907114497095 94.47779374421319 l -8.126887474437426 -2.215019319821282 a29.423337260809962,29.423337260809962 0 0,0 0.13700277550286355,-0.4861745181823942 l 8.087666206859982 2.3542017619066895" fill="#ff3b05" stroke="none" /><path d="M 79.83685265289637 94.1308016681162 l -60.48944204131091 -17.607594995651397 a84.0,84.0 0 0,0 0.41489471998548133,-1.3810495856371061 l 60.1782710013218 18.643382184879226" fill="#4dd2ff" stroke="none" /><path d="M 80.16572619554312 93.10060997987247 l -8.739421890284104 -3.040024594092329 a30.253066762380094,30.253066762380094 0 0,0 0.1748336684729372,-0.48904088705248827 l 8.685948051767225 3.1896004375257383" fill="#ff4706" stroke="none" /><path d="M 80.28708602549916 92.7611449362534 l -10.108625639787162 -3.7120273539845825 a31.768633125986426,31.768633125986426 0 0,0 0.19238073098960723,-0.5103127451557267 l 10.043414224983119 3.885008379334454" fill="#ff5d08" stroke="none" /><path d="M 80.5471966667186 92.08871423366112 l -13.323237057433543 -5.4184445238131405 a35.38291301323244,35.38291301323244 0 0,0 0.2336521704737739,-0.5606801510510194 l 13.228259042423291 5.646357184305424" fill="#ff910d" stroke="none" /><path d="M 80.68587082218212 91.75594674310238 l -26.475829628562845 -11.300957318287947 a49.78682321532635,49.78682321532635 0 0,0 0.3422633521096998,-0.7831655301612251 l 26.277932394436167 11.75378491822504" fill="#b1ff20" stroke="none" /><path d="M 80.9802524753101 91.09779779509293 l -9.211695463843872 -4.311538602850113 a31.17077668826076,31.17077668826076 0 0,0 0.23099139991396356,-0.4826831847592106 l 9.136324805970004 4.46903428967441" fill="#ff5507" stroke="none" /><path d="M 81.1358732173502 90.77261029715801 l -15.156504898978309 -7.413806048236354 a37.87258607545445,37.87258607545445 0 0,0 0.2906812719303545,-0.5815572635252209 l 15.02700371383621 7.672895167925345" fill="#ffb410" stroke="none" /><path d="M 81.46374523516351 90.13048839642627 l -16.12318283102116 -8.584686715634259 a39.26619474899255,39.26619474899255 0 0,0 0.32189800137849367,-0.5922560664089362 l 15.973439480027317 8.860197615517814" fill="#ffc712" stroke="none" /><line stroke="#e1ed5e" stroke-width="0.3" x1="26.387840678322718" x2="22.05771365940052" y1="57.49999999999999" y2="54.99999999999999" /><path d="M 25.521815274538284 56.99999999999999 a86.0,86.0 0 0,1 29.574782752854787,-30.34633250058573" fill="none" id="id71" stroke="none" /><text fill="#e1ed5e" style="font-size:6.75px; font-family:Arial;" text-anchor="middle"><textPath startOffset="21.40746469413373" xlink:href="#id71">November</textPath></text><path d="M 81.81346652052679 89.5 l -24.91738989961242 -14.386061766044097 a49.77212353208819,49.77212353208819 0 0,0 0.4335538046041521,-0.7362691441329128 l 24.66676238487849 14.811682078470582" fill="#b1ff20" stroke="none" /><path d="M 82.18462484594161 88.88188828441811 l -16.28087730532441 -10.160471567001691 a40.191199761736556,40.191199761736556 0 0,0 0.3702993383917034,-0.5821720650370513 l 16.104060275306814 10.438457306717414" fill="#ffd313" stroke="none" /><path d="M 82.37810715431573 88.57770195909679 l -7.248242362770613 -4.698223128768071 a29.63772643217842,29.63772643217842 0 0,0 0.2803948537155709,-0.42455354624197805 l 7.166523070134313 4.821956553349111" fill="#ff3e05" stroke="none" /><path d="M 82.78059297857968 87.97951657250589 l -11.871838925920843 -8.287465583767835 a35.47835091732293,35.47835091732293 0 0,0 0.3528996112230508,-0.496397498014317 l 11.72782421616782 8.490040308491672" fill="#ff930d" stroke="none" /><path d="M 82.98947788004972 87.6856937992154 l -13.831422632839722 -10.012883337278092 a38.07530628639417,38.07530628639417 0 0,0 0.3878205294470115,-0.526153031284151 l 13.657500083808891 10.248842677831107" fill="#ffb710" stroke="none" /><path d="M 83.2033758604659 87.39550010848427 l -19.26759186718174 -14.458760140262205 a45.089330442208706,45.089330442208706 0 0,0 0.4698909909378875,-0.6151023908411403 l 19.016548898889546 14.787383444344231" fill="#ebff1a" stroke="none" /><path d="M 83.64595745247003 86.82634096563983 l -24.606815718684487 -19.821508917881793 a52.59727196444284,52.59727196444284 0 0,0 0.5724416098497261,-0.6982856863128806 l 24.26292728959613 20.240996885893168" fill="#90ff24" stroke="none" /><path d="M 83.8745106332314 86.54754324733833 l -7.082674085259661 -5.908618625956544 a30.223667723037803,30.223667723037803 0 0,0 0.33577838050187,-0.3955460879284743 l 6.980201141250676 6.029331496334575" fill="#ff4706" stroke="none" /><path d="M 84.34580500576568 86.00192230759919 l -10.790493598599474 -9.648925913353054 a35.47537645046899,35.47537645046899 0 0,0 0.40982894716114787,-0.45047380439461115 l 10.62326695059646 9.832737293305323" fill="#ff930d" stroke="none" /><path d="M 84.83555147118756 85.47280134310135 l -18.733556479617302 -17.946323337281534 a46.94256463230394,46.94256463230394 0 0,0 0.5624461356818666,-0.5771192840097527 l 18.422723542784635 18.265265313359016" fill="#d4ff1c" stroke="none" /><path d="M 85.86807049272753 84.46653392183569 l -26.77169530233533 -29.426782848001825 a60.78264971246307,60.78264971246307 0 0,0 0.7778297019086633,-0.6955401157826805 l 26.262600573603276 29.882018493667903" fill="#37ff2e" stroke="none" /><path d="M 86.40962598614128 83.9905735841838 l -4.780454110604097 -5.631362922010746 a28.38681188761356,28.38681188761356 0 0,0 0.3741999096099648,-0.3121708734776051 l 4.683079866832223 5.712595979400233" fill="#ff2b04" stroke="none" /><path d="M 87.25179093698888 83.31218511350988 l -26.65914350295154 -34.8976746153667 a64.91534613174503,64.91534613174503 0 0,0 0.8913402871863159,-0.6688783686419555 l 26.05615022685447 35.350172011272655" fill="#34ff5b" stroke="none" /><path d="M 87.54013794807813 83.09580414077388 l -9.117793903936581 -12.370038553711613 a36.36723851233444,36.36723851233444 0 0,0 0.505710678374325,-0.36609553184755905 l 8.904102215188288 12.524734856932252" fill="#ff9f0e" stroke="none" /><path d="M 88.12776184653039 82.6780497279521 l -6.265744886422681 -9.141909043345235 a32.08305282575741,32.08305282575741 0 0,0 0.45696000901735323,-0.3074630875441263 l 6.107888589308338 9.248121804946472" fill="#ff6209" stroke="none" /><path d="M 88.4268655584334 82.4767994020092 l -17.66011849250309 -26.739670267455068 a53.04512055183238,53.04512055183238 0 0,0 0.764138624075591,-0.495305424064856 l 17.198494236170475 27.03888953322383" fill="#8bff24" stroke="none" /><path d="M 88.72937992617638 82.28071324371311 l -7.76561710287077 -12.208839920429597 a35.46929788175896,35.46929788175896 0 0,0 0.516561124708831,-0.3223723465139104 l 7.554891849372241 12.340348063785044" fill="#ff920d" stroke="none" /><line stroke="#e1ed5e" stroke-width="0.3" x1="56.869717070023135" x2="54.33264160355391" y1="26.7553504044142" y2="22.446841604673864" /><path d="M 56.362301976729285 25.89364864446614 a86.0,86.0 0 0,1 42.16139366436587,-11.88097634709845" fill="none" id="id72" stroke="none" /><text fill="#e1ed5e" style="font-size:6.75px; font-family:Arial;" text-anchor="middle"><textPath startOffset="22.145653131862474" xlink:href="#id72">December</textPath></text><path d="M 89.34428304082924 81.90426304109057 l -18.39427334860976 -31.23749751819834 a57.25093851506224,57.25093851506224 0 0,0 0.8511511536411226,-0.49141234767576 l 17.85532972710824 31.548656763150273" fill="#5cff2a" stroke="none" /><path d="M 89.97174638481275 81.54914285379989 l -6.30781652715807 -11.605671945788778 a34.20909424046771,34.20909424046771 0 0,0 0.5183674471013493,-0.27600146841889434 l 6.107660264270159 11.712243881930247" fill="#ff810b" stroke="none" /><path d="M 90.61103034731259 81.2157712731953 l -9.73432391162855 -19.47516858833358 a42.772442526288096,42.772442526288096 0 0,0 0.6595912917222047,-0.3226391533224637 l 9.398572370644292 19.639401491753258" fill="#fff517" stroke="none" /><path d="M 90.93487009805054 81.0573650232925 l -9.59853059735179 -20.057237280106968 a43.23565957957648,43.23565957957648 0 0,0 0.6722348007590735,-0.3146398298801921 l 9.252807082721192 20.219053341557704" fill="#fffb17" stroke="none" /><path d="M 91.5904679813234 80.7573450057729 l -15.24929189865353 -34.89336413255374 a59.08001790831155,59.08001790831155 0 0,0 0.9328029379380428,-0.39815810631440396 l 14.648053885545057 35.14999688852755" fill="#48ff2c" stroke="none" /><path d="M 91.92203290615298 80.6158196554323 l -5.629528303262882 -13.508818570010675 a35.634881894798575,35.634881894798575 0 0,0 0.5666718968939768,-0.2304605272193113 l 5.396801945178464 13.603466353809278" fill="#ff950d" stroke="none" /><path d="M 92.25597844496254 80.48000691201159 l -4.0796216574970225 -10.28331158300403 a32.06299281304402,32.06299281304402 0 0,0 0.5133555967245723,-0.19857697294731935 l 3.902493798278921 10.35182844408939" fill="#ff6209" stroke="none" /><path d="M 92.93061703081487 80.22567764915836 l -10.294267842073642 -28.79489929494249 a51.57970202291433,51.57970202291433 0 0,0 0.8363138484971878,-0.2909133692971076 l 9.79844822153145 28.967371096808183" fill="#9cff22" stroke="none" /><path d="M 93.27111125876988 80.10723608172694 l -4.283234669347212 -12.66262221900102 a34.367426853880154,34.367426853880154 0 0,0 0.5604791553813189,-0.18424063090442896 l 4.065232776318132 12.73428377130748" fill="#ff830c" stroke="none" /><path d="M 93.95794788825049 79.88797359093562 l -9.872331614863542 -32.86178114403666 a55.312673919011296,55.312673919011296 0 0,0 0.9117108697840869,-0.26538574677756654 l 9.306760732697832 33.02641058511675" fill="#71ff27" stroke="none" /><path d="M 94.30408787586887 79.78721728523814 l -3.123694764244405 -11.084890735835005 a32.51660851143116,32.51660851143116 0 0,0 0.538565772323882,-0.14678849614248257 l 2.9329475909858456 11.136879726121627" fill="#ff6809" stroke="none" /><path d="M 95.00130118170881 79.60360301121753 l -3.523985846545264 -14.379064817023519 a35.80459324867843,35.80459324867843 0 0,0 0.5982228818753573,-0.14117897124612644 l 3.2766308109300004 14.437439931915877" fill="#ff970d" stroke="none" /><path d="M 95.35216902796891 79.52079915486377 l -6.934234043894934 -30.55351464944702 a52.33051003749357,52.33051003749357 0 0,0 0.877751066318843,-0.19130175955701997 l 6.408720560956973 30.668047867137755" fill="#93ff23" stroke="none" /><path d="M 95.70440661134978 79.44403061299748 l -2.4913836599050043 -11.922172703682733 a33.17970420483516,33.17970420483516 0 0,0 0.5585305735929457,-0.11172175727959674 l 2.286356600781082 11.963183857625197" fill="#ff720a" stroke="none" /><path d="M 96.41257539226777 79.30868818359171 l -5.118645225645137 -29.52298543448543 a50.963431010330886,50.963431010330886 0 0,0 0.8632780443798743,-0.14205207368688616 l 4.61108967821219 29.606503506667984" fill="#a3ff21" stroke="none" /><path d="M 96.76829788921471 79.25015418208739 l -2.307560465432642 -14.816193520263187 a35.994813294320025,35.994813294320025 0 0,0 0.6113545824010806,-0.08984807046168049 l 2.0528807774238764 14.853622664023753" fill="#ff9a0e" stroke="none" /><path d="M 97.48249496171623 79.15144685158666 l -0.9963561826675679 -8.251258493312099 a29.311196807090717,29.311196807090717 0 0,0 0.5000547379568517,-0.05603217640243623 l 0.8545655431099168 8.267146430221505" fill="#ff3905" stroke="none" /><path d="M 97.84075906011542 79.11130261209362 l -3.451925750615699 -33.3942503026028 a54.572187069963896,54.572187069963896 0 0,0 0.9326657984021263,-0.08832442079765646 l 2.878160388828557 33.44858647890564" fill="#7aff26" stroke="none" /><path d="M 98.1996594967304 79.07731436759882 l -1.2225850197214039 -14.208291142735844 a35.260794203942254,35.260794203942254 0 0,0 0.603515366940341,-0.046715906299121104 l 0.9785006580058458 14.227184816030018" fill="#ff900d" stroke="none" /><path d="M 98.9189461498227 79.02784411241856 l -1.5088120440031567 -29.270550571282936 a50.309412217411676,50.309412217411676 0 0,0 0.8628644895250505,-0.037055113857599915 l 1.0061217938772862 29.292138253566364" fill="#abff21" stroke="none" /><path d="M 99.63950707515114 79.00309439819443 l -0.3212491205402723 -18.711150743042207 a39.713908280375236,39.713908280375236 0 0,0 0.6817420453891199,-0.005851935527464132 l 4.5835855750197365e-15 18.713908280375236" fill="#ffcd13" stroke="none" /></svg>