<?xml version="1.0" encoding="utf-8" ?>
<svg baseProfile="full" height="200mm" version="1.1" viewBox="0,0,200,200" width="200mm" xmlns="http://www.w3.org/2000/svg" xmlns:ev="http://www.w3.org/2001/xml-events" xmlns:xlink="http://www.w3.org/1999/xlink"><defs /><rect fill="#1a1a1a" height="200" width="200" x="0" y="0" /><text alignment-baseline="middle" fill="#e1ed5e" style="dominant-baseline: central; font-size:9.0px; font-family:Arial;" text-anchor="middle" x="100.0" y="100.0">2021</text><line stroke="#e1ed5e" stroke-width="0.3" x1="100.0" x2="100.0" y1="15.0" y2="10.0" /><path d="M 100.0 14.0 a86.0,86.0 0 0,1 42.46469731375804,11.215312516191453" fill="none" id="id73" stroke="none" /><text fill="#e1ed5e" style="font-size:6.75px; font-family:Arial;" text-anchor="middle"><textPath startOffset="22.20632615414155" xlink:href="#id73">January</textPath></text><path d="M 100.36148047927253 79.00311137660856 l 0.3845865362722277 -22.339022799833792 a43.34233305756979,43.34233305756979 0 0,0 0.7458459397866052,0.019263000164827418 l -0.7690591112537006 22.329093007526605" fill="#ffac0f" stroke="none" /><path d="M 100.72285384407766 79.0124445844662 l 1.2018948711715574 -34.89617634190635 a55.91686805208584,55.91686805208584 0 0,0 0.961661405766043,0.04141116304078837 l -1.8023971093269318 34.87031745234137" fill="#9aff23" stroke="none" /><path d="M 101.44485096284872 79.0497635885617 l 3.2979820593603293 -47.820505782862156 a68.93409495330663,68.93409495330663 0 0,0 1.1830725765999826,0.09182920155210685 l -4.120644825322653 47.75665131912159" fill="#36ff70" stroke="none" /><path d="M 102.16513564639614 79.11191278185805 l 1.8097570138485088 -17.45958153330199 a38.553125299136724,38.553125299136724 0 0,0 0.6595031567243569,0.0741028639727672 l -2.1100268740825907 17.42584271585862" fill="#ff5e08" stroke="none" /><path d="M 102.88285421437855 79.19881850522331 l 6.633080876727178 -47.86087291482309 a69.31832900759349,69.31832900759349 0 0,0 1.180494508474645,0.1739742041640421 l -7.4559443656304785 47.73960422649808" fill="#37ff76" stroke="none" /><path d="M 103.2404852339499 79.25152402106235 l 3.462398037744511 -22.16935962645816 a43.43810835206502,43.43810835206502 0 0,0 0.7377668852265042,0.12173785749297755 l -3.8434941291098905 22.106475506025557" fill="#ffae10" stroke="none" /><path d="M 103.95276090670814 79.375362276772 l 7.083764098542228 -36.96152428579721 a58.6342130425677,58.6342130425677 0 0,0 0.9896159360355609,0.19850764694536752 l -7.7189464440449145 36.83411268277464" fill="#76ff27" stroke="none" /><path d="M 104.307194497241 79.44645832069477 l 4.680601599162839 -22.335406519078578 a43.82057001265708,43.82057001265708 0 0,0 0.7369311015099799,0.16106459574866638 l -5.064375424826347 22.251528425234042" fill="#ffb410" stroke="none" /><path d="M 105.36241919743992 79.69619591428918 l 12.281271321415142 -46.500752300849086 a69.0952137932158,69.0952137932158 0 0,0 1.1473165187730152,0.31360494471324707 l -13.079885729411869 46.28246081530955" fill="#36ff73" stroke="none" /><path d="M 105.71112130821622 79.79150937346287 l 3.538091709473396 -12.519344151184495 a34.00969142295242,34.00969142295242 0 0,0 0.5619855055224832,0.1640589797192532 l -3.7530674327193063 12.456586842546539" fill="#ff1001" stroke="none" /><path d="M 106.40334571778207 80.00007090966166 l 13.887826207815422 -43.37662709728833 a66.54561993337771,66.54561993337771 0 0,0 1.0879168775074268,0.3586690898628265 l -14.632425907565265 43.131144283166265" fill="#33ff4f" stroke="none" /><path d="M 107.08798089147638 80.2323363322302 l 8.113462558303496 -22.62762858551945 a45.03825805022505,45.03825805022505 0 0,0 0.7275130070024703,0.26794918021383846 l -8.501757891078544 22.484616137499287" fill="#ffc712" stroke="none" /><path d="M 107.76421540070413 80.48803036053334 l 17.576275878568374 -44.170304868978064 a68.53883997299484,68.53883997299484 0 0,0 1.0924312046981706,0.44563011771038985 l -18.333990952854933 43.861213865084096" fill="#36ff6b" stroke="none" /><path d="M 108.76106565485865 80.91482961587045 l 22.742008047248166 -49.541358957659746 a75.51188106635831,75.51188106635831 0 0,0 1.1766253709840853,0.5524413885007616 l -23.59141162953185 49.14255258651898" fill="#40ffc8" stroke="none" /><path d="M 109.08828744355905 81.06846463323043 l 7.680065614672095 -15.998111273023012 a38.74606920277543,38.74606920277543 0 0,0 0.5987720355572781,0.2938148374095568 l -7.954308917239805 15.863541275478623" fill="#ff6209" stroke="none" /><path d="M 110.05341064243156 81.56283822128135 l 10.002590228059804 -18.34396114912546 a41.89384411521972,41.89384411521972 0 0,0 0.6301550558175806,0.3506806063080807 l -10.31686937294942 18.1690651452572" fill="#ff950d" stroke="none" /><path d="M 110.36928655335952 81.73862282372117 l 12.265641783207332 -21.60105324118998 a45.84052071681843,45.84052071681843 0 0,0 0.6828126031291246,0.39552913223632413 l -12.635651118801785 21.386719951563606" fill="#ffd313" stroke="none" /><line stroke="#e1ed5e" stroke-width="0.3" x1="143.23703022742887" x2="145.7803849466894" y1="26.81831364943548" y2="22.513508569990506" /><path d="M 143.74570117128098 25.957352633546492 a86.0,86.0 0 0,1 28.547481713284135,27.462654790039103" fill="none" id="id74" stroke="none" /><text fill="#e1ed5e" style="font-size:6.75px; font-family:Arial;" text-anchor="middle"><textPath startOffset="19.985693538727396" xlink:href="#id74">February</textPath></text><path d="M 110.99172775467656 82.1063720568725 l 32.97518326402967 -53.68088382938249 a84.0,84.0 0 0,0 1.225523390510947,0.7674226347082231 l -33.894325806912875 53.10531685335132" fill="#4dd2ff" stroke="none" /><path d="M 111.60114157652 82.49532879139004 l 6.907240711828322 -10.422162062394971 a33.503257027909314,33.503257027909314 0 0,0 0.4779723108406031,0.32272903790199603 l -7.0856177170754675 10.301721112194304" fill="#ff0701" stroke="none" /><path d="M 111.90073688211348 82.69761687909136 l 13.735737245411633 -19.970275002503858 a45.23803542679602,45.23803542679602 0 0,0 0.6377892188707582,0.4468121062428356 l -14.07745760386604 19.730878053497086" fill="#ffca12" stroke="none" /><path d="M 112.19680574252982 82.90503203632743 l 27.40522785431335 -38.41099892023541 a68.18528745061492,68.18528745061492 0 0,0 0.9495765081283604,0.6899077167500779 l -28.062349678795496 37.93357196866866" fill="#35ff66" stroke="none" /><path d="M 112.77801427241765 83.33499621200491 l 8.229486284757556 -10.732842927306429 a34.524731487657874,34.524731487657874 0 0,0 0.4684964055164107,0.36566887567240663 l -8.413015245433398 10.5895956624108" fill="#ff1902" stroke="none" /><path d="M 113.06298171725822 83.55741782278167 l 30.25344029931857 -38.080484917766725 a69.63531619632684,69.63531619632684 0 0,0 0.9321071772702153,0.7536991803099757 l -30.904450875153277 37.55407964019262" fill="#37ff7a" stroke="none" /><path d="M 113.34407831869373 83.78471172551755 l 20.623304967990645 -25.060766824191614 a53.455550243667886,53.455550243667886 0 0,0 0.7054668027493225,0.5908081591634216 l -21.051629307699084 24.702057507634372" fill="#bcff1f" stroke="none" /><path d="M 114.42810811169701 84.74124197986012 l 15.33558410266476 -16.218478896090183 a43.320824300926404,43.320824300926404 0 0,0 0.537419077662556,0.5169967269148017 l -15.612486423939734 15.95209908241308" fill="#ffac0f" stroke="none" /><path d="M 114.68862486808459 84.99185889309783 l 22.187203427696154 -22.66983348005058 a52.72055084570875,52.72055084570875 0 0,0 0.6431008439109033,0.6403391645103746 l -22.57414007177438 22.284558464890086" fill="#c6ff1e" stroke="none" /><path d="M 115.19652480421416 85.50635884689758 l 28.125573090982524 -26.824683199477995 a59.86658578327349,59.86658578327349 0 0,0 0.7048083965563675,0.751840456102032 l -28.583148809509353 26.336573326497906" fill="#67ff28" stroke="none" /><path d="M 115.9244219780498 86.31012108654704 l 28.307574386610142 -24.335405468432207 a58.33002447047774,58.33002447047774 0 0,0 0.647989315428533,0.7670149631160781 l -28.72227431552579 23.844531555687023" fill="#7aff26" stroke="none" /><path d="M 116.15771136456269 86.58626213691792 l 30.530086685103818 -25.345333289547753 a60.67961835197273,60.67961835197273 0 0,0 0.6602563949358944,0.8093962705964934 l -30.96184157211612 24.81605284934316" fill="#5cff2a" stroke="none" /><path d="M 116.60985879189232 87.15038557335679 l 18.689884912443013 -14.458751143655473 a44.62979650091222,44.62979650091222 0 0,0 0.4648385846500559,0.6116730896330436 l -18.935999437317182 14.134893278141394" fill="#ffc111" stroke="none" /><path d="M 116.82858285166822 87.43820079747576 l 17.970882265393946 -13.414475627560321 a43.425449064825,43.425449064825 0 0,0 0.4419829539780134,0.6028642525155762 l -18.199127831885587 13.103148931373251" fill="#ffae10" stroke="none" /><path d="M 117.2510076193507 88.02491185347247 l 16.08112696742654 -11.162995065541677 a40.57588065390165,40.57588065390165 0 0,0 0.3933455516704635,0.5771860607846464 l -16.270896984765734 10.884530981486625" fill="#ff800b" stroke="none" /><path d="M 117.65298651832404 88.62581576622439 l 46.54925422869444 -29.99264702278238 a76.37501191585284,76.37501191585284 0 0,0 0.7025497446918605,1.1112649784163984 l -47.058631569632254 29.186934396651772" fill="#41ffd3" stroke="none" /><line stroke="#e1ed5e" stroke-width="0.3" x1="172.23445277983987" x2="176.4835382374775" y1="55.19839476539836" y2="52.563006222186495" /><path d="M 173.08426987136738 54.67131705675599 a86.0,86.0 0 0,1 12.851231095245387,41.99856678651699" fill="none" id="id75" stroke="none" /><text fill="#e1ed5e" style="font-size:6.75px; font-family:Arial;" text-anchor="middle"><textPath startOffset="22.20632615414155" xlink:href="#id75">March</textPath></text><path d="M 118.03404312379186 89.2402003453031 l 28.044486404371664 -16.732412862638377 a53.65680415917598,53.65680415917598 0 0,0 0.46640621419513706,0.7972394078551449 l -28.328352293037128 16.247194042429335" fill="#b9ff1f" stroke="none" /><path d="M 118.21658344932153 89.55222093294921 l 18.354054116447397 -10.526622784497965 a42.15847560096406,42.15847560096406 0 0,0 0.3556215146414375,0.6326109932321631 l -18.53253327238127 10.209128281331008" fill="#ff990e" stroke="none" /><path d="M 118.56541770881063 90.18545643968196 l 20.20973099904222 -10.683804067509815 a43.85994086620933,43.85994086620933 0 0,0 0.34710040162471933,0.6704874961000683 l -20.390640833827053 10.334343849149402" fill="#ffb410" stroke="none" /><path d="M 118.73160827565052 90.50648371742162 l 39.445351096725176 -19.9916140353825 a65.2221703999659,65.2221703999659 0 0,0 0.4989185051524348,1.0057892619674558 l -39.78362961483102 19.309665184916092" fill="#31ff3c" stroke="none" /><path d="M 118.89224826269711 90.83032412892265 l 15.059408731322378 -7.309341638758676 a37.73954200475987,37.73954200475987 0 0,0 0.27862889314299427,0.5868635081860353 l -15.182995818307129 7.0490357149321" fill="#ff5107" stroke="none" /><path d="M 119.196687751892 91.48605970444005 l 44.38672330851865 -19.685995680531953 a69.55635521742664,69.55635521742664 0 0,0 0.4759949730584158,1.0986620250027872 l -44.71900899141974 18.919034510942563" fill="#37ff79" stroke="none" /><path d="M 119.47837535516314 92.15188598940014 l 24.523177956055022 -9.880736611348507 a47.438895836384425,47.438895836384425 0 0,0 0.2986537150504841,0.7600411290855605 l -24.689625220987207 9.457146477367163" fill="#ffec16" stroke="none" /><path d="M 119.7369772167798 92.82701384747503 l 41.63226583872345 -15.130364851691525 a65.29642761455422,65.29642761455422 0 0,0 0.37482300871713276,1.0596751198525156 l -41.88654192825039 14.411492105412394" fill="#31ff3d" stroke="none" /><path d="M 120.08093135843002 93.85539295169968 l 54.07247848598256 -16.54575310744014 a77.54728000098159,77.54728000098159 0 0,0 0.37959062281564443,1.2797908755275593 l -54.34927500590991 15.61253284516605" fill="#43ffe1" stroke="none" /><path d="M 120.28053869075195 94.5502522615342 l 23.878757898227942 -6.4166543521145 a45.72586766600301,45.72586766600301 0 0,0 0.19771792916600928,0.7618878352959381 l -23.985672159264254 6.004670091269712" fill="#ffd113" stroke="none" /><path d="M 120.45610955862082 95.25157060432595 l 34.91240016994404 -8.104134697041342 a56.840656869177195,56.840656869177195 0 0,0 0.21303232105216355,0.9549821238364532 l -35.046726877998246 7.501974403654926" fill="#8eff24" stroke="none" /><path d="M 120.53481517161879 95.60439243477599 l 30.907350195145007 -6.615914543344664 a52.607508939019056,52.607508939019056 0 0,0 0.18192353996712657,0.8871237897098844 l -31.01665303102713 6.082915097471367" fill="#c7ff1e" stroke="none" /><path d="M 120.67395015179393 96.31383870115 l 59.66375224709827 -10.63803544376564 a81.60471211305222,81.60471211305222 0 0,0 0.23466460265168243,1.3850037684517382 l -59.83802871127018 9.609445886998063" fill="#49edff" stroke="none" /><path d="M 120.73433829027371 96.67025291283417 l 11.942541696415502 -1.9178641184633167 a33.09555724005769,33.09555724005769 0 0,0 0.08548756826740186,0.5632562634988224 l -11.973785158122203 1.7120087425724122" fill="#ff0000" stroke="none" /><path d="M 120.87857604477298 97.74499172005257 l 44.336138811718584 -4.788562203999246 a65.59398538719711,65.59398538719711 0 0,0 0.1115812236185034,1.123607694399549 l -44.411997161019315 4.0246789788952615" fill="#31ff41" stroke="none" /><path d="M 120.94382443527127 98.46500227214037 l 20.983143844125912 -1.5378794939591918 a42.03942487144597,42.03942487144597 0 0,0 0.046682597262685505,0.7221591174471259 l -21.006507032393014 1.1764613122590306" fill="#ff980e" stroke="none" /><path d="M 120.96714384426684 98.82574320788733 l 27.994202728706007 -1.5678045106248693 a49.03807050065012,49.03807050065012 0 0,0 0.03994592597416861,0.8431953624010987 l -28.017042262913673 1.0856980416007707" fill="#fbff18" stroke="none" /><path d="M 120.98425023603335 99.18683210126433 l 21.355959960314213 -0.8275721501162607 a42.37198871163355,42.37198871163355 0 0,0 0.02196948379115354,0.729060211165912 l -21.36704113856101 0.45984179152534954" fill="#ff9d0e" stroke="none" /><line stroke="#e1ed5e" stroke-width="0.3" x1="184.98032266829074" x2="189.97916517819016" y1="98.17113171792111" y2="98.06355123074" /><path d="M 185.9800911702706 98.14961562048488 a86.0,86.0 0 0,1 -9.607161424134198,41.387399972396054" fill="none" id="id76" stroke="none" /><text fill="#e1ed5e" style="font-size:6.75px; font-family:Arial;" text-anchor="middle"><textPath startOffset="21.466115282336823" xlink:href="#id76">April</textPath></text><path d="M 120.99980553446 99.90962569577887 l 25.857375081802925 -0.1112792343799586 a46.85761453013497,46.85761453013497 0 0,0 -0.0034712627586644743,0.8065992155537663 l -25.855459521754756 -0.3338294593774925" fill="#ffe315" stroke="none" /><path d="M 120.99824983174949 100.27111621757518 l 48.89254130958261 0.631269795040253 a69.89661641937377,69.89661641937377 0 0,0 -0.025888166716188946,1.2029213817035027 l -48.87443108018142 -1.4727809925338706" fill="#38ff7e" stroke="none" /><path d="M 120.9904718944345 100.63252640178507 l 19.4349891627895 0.5856535205923851 a40.44381119544025,40.44381119544025 0 0,0 -0.026958433147847308,0.6956773724410802 l -19.422028596790447 -0.9201081400474714" fill="#ff7e0b" stroke="none" /><path d="M 120.95626037817324 101.35467743843564 l 29.260282178956626 1.8914750721162912 a50.32135384221888,50.32135384221888 0 0,0 -0.06331730196099888,0.8639142794272082 l -29.22338831833129 -2.39486248804027" fill="#e8ff1a" stroke="none" /><path d="M 120.92983693683757 101.71520430193887 l 20.190741436159406 1.654635278580851 a41.25842683050608,41.25842683050608 0 0,0 -0.06409870630085752,0.7073238827709143 l -20.159268133581474 -2.0019405499003358" fill="#ff8b0c" stroke="none" /><path d="M 120.81339534386255 102.79330883721812 l 49.461085994855765 6.638037010553221 a70.9045344948131,70.9045344948131 0 0,0 -0.17275703784063037,1.2082623202900062 l -49.339494905998535 -7.488444802823636" fill="#39ff8b" stroke="none" /><line stroke="#e1ed5e" stroke-width="0.3" x1="174.80103733775053" x2="179.2010983576182" y1="140.37084112569926" y2="142.7455964860345" /><path d="M 175.68104954172406 140.8457921977663 a86.0,86.0 0 0,1 -30.038265399797805,32.042727171017184" fill="none" id="id77" stroke="none" /><text fill="#e1ed5e" style="font-size:6.75px; font-family:Arial;" text-anchor="middle"><textPath startOffset="22.206326154141568" xlink:href="#id77">May</textPath></text><line stroke="#e1ed5e" stroke-width="0.3" x1="143.8653032363475" x2="146.44561519142675" y1="172.8068346515853" y2="177.08958963109032" /><path d="M 144.38136562736335 173.6633856474863 a86.0,86.0 0 0,1 -40.68145358897372,12.25698825130547" fill="none" id="id78" stroke="none" /><text fill="#e1ed5e" style="font-size:6.75px; font-family:Arial;" text-anchor="middle"><textPath startOffset="21.466115282336833" xlink:href="#id78">June</textPath></text><line stroke="#e1ed5e" stroke-width="0.3" x1="102.19456741930631" x2="102.32365962044197" y1="184.97166512339345" y2="189.96999836594603" /><path d="M 102.22038585953345 185.97133177190398 a86.0,86.0 0 0,1 -42.740103519485714,-10.115201625700543" fill="none" id="id79" stroke="none" /><text fill="#e1ed5e" style="font-size:6.75px; font-family:Arial;" text-anchor="middle"><textPath startOffset="22.20632615414155" xlink:href="#id79">July</textPath></text><line stroke="#e1ed5e" stroke-width="0.3" x1="58.666819895761336" x2="56.23545636021788" y1="174.27360380694188" y2="178.64263932499728" /><path d="M 58.180547188652646 175.14741091055294 a86.0,86.0 0 0,1 -31.652253787137756,-30.449443065178592" fill="none" id="id80" stroke="none" /><text fill="#e1ed5e" style="font-size:6.75px; font-family:Arial;" text-anchor="middle"><textPath startOffset="22.20632615414155" xlink:href="#id80">August</textPath></text><line stroke="#e1ed5e" stroke-width="0.3" x1="26.63291911575756" x2="22.317208475507996" y1="142.92168965132927" y2="145.44649492493687" /><path d="M 25.769776987707644 143.4266507060508 a86.0,86.0 0 0,1 -11.730757126820373,-40.83630448921669" fill="none" id="id81" stroke="none" /><text fill="#e1ed5e" style="font-size:6.75px; font-family:Arial;" text-anchor="middle"><textPath startOffset="21.46611528233685" xlink:href="#id81">September</textPath></text><line stroke="#e1ed5e" stroke-width="0.3" x1="15.007084014347285" x2="10.007500721073583" y1="101.09737516637583" y2="101.16192664675087" /><path d="M 14.007167355692545 101.11028546245083 a86.0,86.0 0 0,1 10.666146001902534,-42.60595125391555" fill="none" id="id82" stroke="none" /><text fill="#e1ed5e" style="font-size:6.75px; font-family:Arial;" text-anchor="middle"><textPath startOffset="22.20632615414155" xlink:href="#id82">October</textPath></text><line stroke="#e1ed5e" stroke-width="0.3" x1="26.266209847984243" x2="21.928928074336255" y1="57.711370442889674" y2="55.22380399835377" /><path d="M 25.398753493254645 57.213857153982495 a86.0,86.0 0 0,1 29.58750427330803,-30.492523968695096" fill="none" id="id83" stroke="none" /><text fill="#e1ed5e" style="font-size:6.75px; font-family:Arial;" text-anchor="middle"><textPath startOffset="21.46611528233685" xlink:href="#id83">November</textPath></text><line stroke="#e1ed5e" stroke-width="0.3" x1="56.762969772571076" x2="54.21961505331055" y1="26.818313649435495" y2="22.513508569990535" /><path d="M 56.25429882871897 25.957352633546506 a86.0,86.0 0 0,1 42.265352541879196,-11.944610805530505" fill="none" id="id84" stroke="none" /><text fill="#e1ed5e" style="font-size:6.75px; font-family:Arial;" text-anchor="middle"><textPath startOffset="22.20632615414155" xlink:href="#id84">December</textPath></text></svg>