<?xml version="1.0" encoding="utf-8" ?>
<svg baseProfile="full" height="200mm" version="1.1" viewBox="0,0,200,200" width="200mm" xmlns="http://www.w3.org/2000/svg" xmlns:ev="http://www.w3.org/2001/xml-events" xmlns:xlink="http://www.w3.org/1999/xlink"><defs /><rect fill="#1a1a1a" height="200" width="200" x="0" y="0" /><text alignment-baseline="middle" fill="#e1ed5e" style="dominant-baseline: central; font-size:9.0px; font-family:Arial;" text-anchor="middle" x="100.0" y="100.0">2019</text><line stroke="#e1ed5e" stroke-width="0.3" x1="100.0" x2="100.0" y1="15.0" y2="10.0" /><path d="M 100.0 14.0 a86.0,86.0 0 0,1 42.46469731375804,11.215312516191453" fill="none" id="id49" stroke="none" /><text fill="#e1ed5e" style="font-size:6.75px; font-family:Arial;" text-anchor="middle"><textPath startOffset="22.20632615414155" xlink:href="#id49">January</textPath></text><path d="M 104.307194497241 79.44645832069477 l 2.15005861604134 -10.259884805773682 a31.482747172385647,31.482747172385647 0 0,0 0.5294457727410922,0.11571633926517005 l -2.3263471129359603 10.221354968412642" fill="#ff6109" stroke="none" /><path d="M 107.08798089147638 80.2323363322302 l 3.7610415189566355 -10.489165380885614 a32.14307065825596,32.14307065825596 0 0,0 0.5192141748200632,0.1912309624149003 l -3.9410380195492754 10.422871150664388" fill="#ff6b09" stroke="none" /><path d="M 107.4271985657038 80.35727306442388 l 2.782217559717777 -7.3581363575301895 a28.866568833081523,28.866568833081523 0 0,0 0.46326284121163763,0.17973878517005493 l -2.908463565929082 7.309154868469588" fill="#ff3b05" stroke="none" /><path d="M 108.76106565485865 80.91482961587045 l 3.355050156841056 -7.30866613870219 a29.04195015415609,29.04195015415609 0 0,0 0.45253137508527963,0.2124695483858067 l -3.4803597432259337 7.24983160767638" fill="#ff3e05" stroke="none" /><path d="M 109.08828744355905 81.06846463323043 l 5.817979501239228 -12.119256281766294 a34.4434094745333,34.4434094745333 0 0,0 0.532279811267199,0.26118739172297456 l -6.02573057951686 12.017313729908487" fill="#ff8b0c" stroke="none" /><line stroke="#e1ed5e" stroke-width="0.3" x1="143.23703022742887" x2="145.7803849466894" y1="26.81831364943548" y2="22.513508569990506" /><path d="M 143.74570117128098 25.957352633546492 a86.0,86.0 0 0,1 28.547481713284135,27.462654790039103" fill="none" id="id50" stroke="none" /><text fill="#e1ed5e" style="font-size:6.75px; font-family:Arial;" text-anchor="middle"><textPath startOffset="19.985693538727396" xlink:href="#id50">February</textPath></text><path d="M 113.6212207817346 84.01681056812373 l 4.392698684879496 -5.154408428041196 a27.77227642519147,27.77227642519147 0 0,0 0.3611800436864793,0.3132117747576634 l -4.48077252721274 5.0780316598638615" fill="#ff2b04" stroke="none" /><path d="M 113.89432698308785 84.25364557470407 l 6.027687092535413 -6.831140323628019 a30.110295813342987,30.110295813342987 0 0,0 0.38568279685827267,0.3462698231034288 l -6.144380876989676 6.726371491755293" fill="#ff4d07" stroke="none" /><path d="M 114.94478906791727 85.2469230424477 l 3.2235925608119205 -3.182240238609076 a25.529702190469557,25.529702190469557 0 0,0 0.3060351608742002,0.31539613453097515 l -3.2778919853892297 3.1262799085279864" fill="#ff0901" stroke="none" /><path d="M 115.19652480421416 85.50635884689758 l 11.056599562091817 -10.545199543389614 a36.27905845549239,36.27905845549239 0 0,0 0.42711279896864307,0.4556141543610545 l -11.236479683030923 10.353315972150504" fill="#ffa50f" stroke="none" /><path d="M 115.9244219780498 86.31012108654704 l 5.928031037296501 -5.096199234587139 a28.817467532248354,28.817467532248354 0 0,0 0.3201337772120541,0.378937416827818 l -6.014875427995672 4.9934028681302145" fill="#ff3a05" stroke="none" /><path d="M 116.15771136456269 86.58626213691792 l 11.7315914438992 -9.739281064914566 a36.24742055129235,36.24742055129235 0 0,0 0.394409059729089,0.4834988717756975 l -11.897498995704698 9.535898023530768" fill="#ffa40f" stroke="none" /><path d="M 116.82858285166822 87.43820079747576 l 5.357252318093279 -3.9989539517568002 a27.685191478782574,27.685191478782574 0 0,0 0.2817790713683333,0.384346336676717 l -5.425294001975239 3.9061451714085895" fill="#ff2a04" stroke="none" /><path d="M 117.2510076193507 88.02491185347247 l 10.183714658778346 -7.069203340978251 a33.396841538372385,33.396841538372385 0 0,0 0.32375142195956186,0.4750652628984571 l -10.30389054640664 6.892860054809387" fill="#ff7d0b" stroke="none" /><path d="M 117.65298651832404 88.62581576622439 l 8.737086910325415 -5.629485757630624 a31.39364217076698,31.39364217076698 0 0,0 0.2887802533676853,0.45678101009982597 l -8.832694759939056 5.4782570998165925" fill="#ff6008" stroke="none" /><line stroke="#e1ed5e" stroke-width="0.3" x1="172.23445277983987" x2="176.4835382374775" y1="55.19839476539836" y2="52.563006222186495" /><path d="M 173.08426987136738 54.67131705675599 a86.0,86.0 0 0,1 12.851231095245387,41.99856678651699" fill="none" id="id51" stroke="none" /><text fill="#e1ed5e" style="font-size:6.75px; font-family:Arial;" text-anchor="middle"><textPath startOffset="22.20632615414155" xlink:href="#id51">March</textPath></text><path d="M 118.03404312379186 89.2402003453031 l 17.55579060266491 -10.474455914729303 a41.443091996912436,41.443091996912436 0 0,0 0.3602397859082176,0.6157665675594379 l -17.733490063043455 10.170709934815969" fill="#ffea16" stroke="none" /><path d="M 118.21658344932153 89.55222093294921 l 5.906052236655986 -3.387305259447051 a27.808471924212277,27.808471924212277 0 0,0 0.234574205176577,0.41728133651593335 l -5.963484083124996 3.2851404129963235" fill="#ff2b04" stroke="none" /><path d="M 118.56541770881063 90.18545643968196 l 5.922565581977666 -3.130943715075939 a27.69922321017892,27.69922321017892 0 0,0 0.21920712411067125,0.42343839155556245 l -5.975582139248453 3.0285326012600318" fill="#ff2a04" stroke="none" /><path d="M 118.89224826269711 90.83032412892265 l 14.832806949729818 -7.199356587740942 a37.48765893889736,37.48765893889736 0 0,0 0.2767692547871848,0.5829466355417917 l -14.954534398358758 6.942967536558609" fill="#ffb510" stroke="none" /><path d="M 119.34039704204932 91.81776055985345 l 11.670361984351889 -4.937318292977131 a33.67179785081708,33.67179785081708 0 0,0 0.22123704128403354,0.5357430438339905 l -11.75362071252212 4.735700678689837" fill="#ff810b" stroke="none" /><path d="M 119.61058180528143 92.48833698450437 l 9.530676358786698 -3.6506427921315434 a31.205928897051834,31.205928897051834 0 0,0 0.18782315353009,0.5032726716637711 l -9.592104100818412 3.486046983438439" fill="#ff5d08" stroke="none" /><path d="M 120.08093135843002 93.85539295169968 l 6.685900139350021 -2.0458328544226507 a27.991901940215964,27.991901940215964 0 0,0 0.13701916419436666,0.46196050578817366 l -6.720125200656089 1.9304429618879473" fill="#ff2e04" stroke="none" /><path d="M 120.18372546131832 94.20196356495316 l 12.770253199370975 -3.6684205538084207 a34.28671050846103,34.28671050846103 0 0,0 0.15806700814192032,0.5686511291925531 l -12.831506978079258 3.4480581211969157" fill="#ff890c" stroke="none" /><path d="M 120.28053869075195 94.5502522615342 l 11.087581191170512 -2.979433704549049 a32.48091816322201,32.48091816322201 0 0,0 0.1404469768305271,0.5411994936555546 l -11.137224499871342 2.788137785344644" fill="#ff700a" stroke="none" /><path d="M 120.45610955862082 95.25157060432595 l 12.023697003077336 -2.791032973815367 a33.3433850577034,33.3433850577034 0 0,0 0.12496721716160222,0.5602035309266332 l -12.069958607240977 2.58365127333877" fill="#ff7c0b" stroke="none" /><path d="M 120.6074358757038 95.95851677861258 l 11.73944794465695 -2.302313697970532 a32.96308013887615,32.96308013887615 0 0,0 0.10440549586374487,0.5577383337000518 l -11.777339164430554 2.0998972868079173" fill="#ff770a" stroke="none" /><path d="M 120.73433829027371 96.67025291283417 l 20.39309446134716 -3.2749464164391204 a41.654383935135314,41.654383935135314 0 0,0 0.1075954686141807,0.7089197043418265 l -20.446445823400644 2.923427599705212" fill="#ffec16" stroke="none" /><path d="M 120.78858239683441 97.02765380044208 l 11.195903566445134 -1.6007874313453667 a32.30976467790078,32.30976467790078 0 0,0 0.073980131200632,0.5512379074428018 l -11.2217996967036 1.4078311818379006" fill="#ff6d0a" stroke="none" /><path d="M 120.87857604477298 97.74499172005257 l 11.536743952431674 -1.24603579672187 a32.603838426601826,32.603838426601826 0 0,0 0.05546203916144858,0.5584951654765568 l -11.556483117275352 1.0472651005408782" fill="#ff710a" stroke="none" /><path d="M 120.98425023603335 99.18683210126433 l 18.517709424596987 -0.7175861273489856 a39.531607922249265,39.531607922249265 0 0,0 0.020496772653194866,0.6801880982190032 l -18.527317891705824 0.3987278817049834" fill="#ffd113" stroke="none" /><line stroke="#e1ed5e" stroke-width="0.3" x1="184.98032266829074" x2="189.97916517819016" y1="98.17113171792111" y2="98.06355123074" /><path d="M 185.9800911702706 98.14961562048488 a86.0,86.0 0 0,1 -9.607161424134198,41.387399972396054" fill="none" id="id52" stroke="none" /><text fill="#e1ed5e" style="font-size:6.75px; font-family:Arial;" text-anchor="middle"><textPath startOffset="21.466115282336823" xlink:href="#id52">April</textPath></text><path d="M 120.99513854157772 99.54816195383933 l 11.742115256267487 -0.2527029962045001 a32.74483416212253,32.74483416212253 0 0,0 0.007277138474581453,0.5636223945443048 l -11.744725401859785 0.050544343599732505" fill="#ff730a" stroke="none" /><path d="M 120.99824983174949 100.27111621757518 l 15.73211755262861 0.20312322405402514 a36.7334287977502,36.7334287977502 0 0,0 -0.013605252693030619,0.632182631831219 l -15.726290237250572 -0.47389567167535906" fill="#ffab0f" stroke="none" /><path d="M 120.9764740272857 100.99374915477107 l 11.67716049392769 0.5531991866637012 a32.69025690654705,32.69025690654705 0 0,0 -0.03146616107168876,0.5618494437063857 l -11.665907981968473 -0.7541203467055102" fill="#ff730a" stroke="none" /><path d="M 120.89721153311464 102.0752229133903 l 8.533055833331888 0.8473854494178912 a29.575027927339043,29.575027927339043 0 0,0 -0.05466831034197226,0.5061606579736031 l -8.517205221488863 -0.9941424292762858" fill="#ff4606" stroke="none" /><path d="M 120.81339534386255 102.79330883721812 l 17.314632392507818 2.323749435213462 a38.46986852627506,38.46986852627506 0 0,0 -0.09373082525778301,0.6555531735450413 l -17.272067516233435 -2.6214480807389124" fill="#ffc312" stroke="none" /><path d="M 120.76222939487914 103.15116336523771 l 11.779457279500186 1.7878135115248608 a32.91435650597886,32.91435650597886 0 0,0 -0.08983777005951527,0.5594198799174498 l -11.746937755079381 -1.9903126211355155" fill="#ff760a" stroke="none" /><path d="M 120.5718875245553 104.21870165774334 l 27.673805965926935 5.67510059371896 a49.24971333285707,49.24971333285707 0 0,0 -0.17745366199410675,0.8290044314704867 l -27.572018265208385 -6.150618844605615" fill="#b3ff20" stroke="none" /><path d="M 120.32669344350535 105.2749913415812 l 15.222406562699568 3.950375059251236 a36.7266374240927,36.7266374240927 0 0,0 -0.16406650029772438,0.6105524818440471 l -15.152151986060067 -4.211818474270832" fill="#ffab0f" stroke="none" /><path d="M 120.23288151984713 105.62410040840565 l 11.540175946281291 3.207803504848683 a32.97771531623827,32.97771531623827 0 0,0 -0.15673422891593494,0.5456124124554779 l -11.483249080479256 -3.4059733928087432" fill="#ff770a" stroke="none" /><path d="M 119.67450827220406 107.3425965602758 l 10.903511402896644 4.069229289707068 a32.63809210847324,32.63809210847324 0 0,0 -0.20096628632283875,0.524659558064272 l -10.8318508369803 -4.256312414604484" fill="#ff720a" stroke="none" /><path d="M 119.41010516605496 108.01547362559984 l 11.238804158918741 4.641105112435836 a33.15938220417498,33.15938220417498 0 0,0 -0.2224031641774885,0.5256953832829492 l -11.157250013548945 -4.833875021384949" fill="#ff790b" stroke="none" /><path d="M 119.26925614724726 108.34839909993367 l 6.150599037237514 2.664745077555155 a27.703039224502678,27.703039224502678 0 0,0 -0.1933393989709577,0.4359293045688206 l -6.103818553535284 -2.770222718616663" fill="#ff2a04" stroke="none" /><path d="M 119.12269723197855 108.67885076344098 l 17.593642343852125 7.984888033070123 a40.320835588143,40.320835588143 0 0,0 -0.29227879270205864,0.6295425171381742 l -17.453588934310236 -8.286550617487128" fill="#ffdb14" stroke="none" /><path d="M 118.97047184881838 109.00673069616215 l 14.249496084431852 6.765323225025046 a36.77395755665971,36.77395755665971 0 0,0 -0.2764118781765454,0.5694903395376169 l -14.130930949640591 -7.009602520527938" fill="#ffac0f" stroke="none" /><line stroke="#e1ed5e" stroke-width="0.3" x1="174.80103733775053" x2="179.2010983576182" y1="140.37084112569926" y2="142.7455964860345" /><path d="M 175.68104954172406 140.8457921977663 a86.0,86.0 0 0,1 -30.038265399797805,32.042727171017184" fill="none" id="id53" stroke="none" /><text fill="#e1ed5e" style="font-size:6.75px; font-family:Arial;" text-anchor="middle"><textPath startOffset="22.206326154141568" xlink:href="#id53">May</textPath></text><path d="M 118.48025628344425 109.97397251340804 l 5.009166646379057 2.703495540309335 a26.692155885749166,26.692155885749166 0 0,0 -0.22170198424154247,0.40245349909284456 l -4.9618882526860055 -2.7893195577999843" fill="#ff1b02" stroke="none" /><path d="M 118.30583269289576 110.29060199501025 l 9.345950124996818 5.253814705674812 a31.72144359218911,31.72144359218911 0 0,0 -0.271668490915243,0.4736769129159726 l -9.254129637929196 -5.4139114644491" fill="#ff6509" stroke="none" /><path d="M 117.75023020441432 111.22182372390056 l 6.432932135818154 4.0669461536343094 a28.610694244325074,28.610694244325074 0 0,0 -0.2667540375450032,0.41400819010009515 l -6.361973234896101 -4.177075943655858" fill="#ff3705" stroke="none" /><path d="M 117.55443506779139 111.5257021239791 l 9.905654196933435 6.503747866342614 a32.849924952428225,32.849924952428225 0 0,0 -0.3144158525204257,0.47000903901496416 l -9.792235239002288 -6.673293819563385" fill="#ff750a" stroke="none" /><path d="M 116.93607887273984 112.41649034213515 l 6.081677076267332 4.458711207527688 a28.541014632801648,28.541014632801648 0 0,0 -0.2938891834016129,0.3937125878504198 l -6.004026626170627 -4.5627366748874225" fill="#ff3605" stroke="none" /><path d="M 116.27256486870786 113.27417163493432 l 48.81769460612357 39.822514904802965 a84.0,84.0 0 0,0 -0.9236160004258265,1.1125549715449181 l -48.12498260580419 -40.656931133461654" fill="#4dd2ff" stroke="none" /><path d="M 115.56566222782051 114.09645910891815 l 5.156964479154287 4.670211767579932 a27.957381734050614,27.957381734050614 0 0,0 -0.32610767041859473,0.353925469192259 l -5.075810400739971 -4.758288491573526" fill="#ff2e04" stroke="none" /><path d="M 114.81725581225074 114.88116024355365 l 5.877778264556432 5.903128172938965 a29.330378115874318,29.330378115874318 0 0,0 -0.3608335515748616,0.35315157561146987 l -5.775294760605776 -6.003429851473007" fill="#ff4206" stroke="none" /><path d="M 114.29624159901734 115.38237550388516 l 9.158134956773537 9.853909493949143 a34.452545045507875,34.452545045507875 0 0,0 -0.4378761806980579,0.39998950912363823 l -8.987159226608616 -10.010091769659363" fill="#ff8c0c" stroke="none" /><path d="M 112.04921762599082 117.19931262002967 l 7.572618297451928 10.80931837176627 a34.19795103571413,34.19795103571413 0 0,0 -0.4850297274281519,0.33360786926226466 l -7.385431685400893 -10.93806703039363" fill="#ff880c" stroke="none" /><path d="M 111.45004920935366 117.60387380957326 l 5.039665562645916 7.7482319058328875 a30.24301501945582,30.24301501945582 0 0,0 -0.43883795416172355,0.28008714524519013 l -4.905545806437262 -7.8338334799018865" fill="#ff4f07" stroke="none" /><line stroke="#e1ed5e" stroke-width="0.3" x1="143.8653032363475" x2="146.44561519142675" y1="172.8068346515853" y2="177.08958963109032" /><path d="M 144.38136562736335 173.6633856474863 a86.0,86.0 0 0,1 -40.68145358897372,12.25698825130547" fill="none" id="id54" stroke="none" /><text fill="#e1ed5e" style="font-size:6.75px; font-family:Arial;" text-anchor="middle"><textPath startOffset="21.466115282336833" xlink:href="#id54">June</textPath></text><path d="M 110.8373102113329 117.98757091392108 l 5.204466071571852 8.638278383283527 a31.08495515692787,31.08495515692787 0 0,0 -0.46069698916561586,0.2721879016400319 l -5.055001211377853 -8.72658485721731" fill="#ff5c08" stroke="none" /><path d="M 110.5260780823613 118.17145234162733 l 7.190001049411356 12.41229263010748 a35.34437602079494,35.34437602079494 0 0,0 -0.5290737230732234,0.30042186793695924 l -6.975278559416934 -12.534217663839067" fill="#ff980e" stroke="none" /><path d="M 109.89434966115114 118.52300852407294 l 4.900617931049224 9.174346047872383 a31.40118654347824,31.40118654347824 0 0,0 -0.47895646292088884,0.250567384519809 l -4.741970565601839 -9.25734285133691" fill="#ff6008" stroke="none" /><path d="M 109.2508944713604 118.85261126421891 l 6.744020715332896 13.743795402447567 a36.30926933178648,36.30926933178648 0 0,0 -0.5634633766379461,0.2704966623992225 l -6.506444670694717 -13.857846341346349" fill="#ffa50f" stroke="none" /><path d="M 108.92500713936063 119.00905698771935 l 1.887416025148344 4.019940625408826 a25.440975330239866,25.440975330239866 0 0,0 -0.39800831499406386,0.18270609633866733 l -1.8179397143868608 -4.051833792081569" fill="#ff0801" stroke="none" /><path d="M 108.59647513512805 119.15986991738527 l 5.241528179681969 11.682346137504398 a33.80432852338865,33.80432852338865 0 0,0 -0.5329482991033887,0.23362887242014396 l -5.0396592059208265 -11.770839563218995" fill="#ff820c" stroke="none" /><path d="M 107.59598834532513 119.57807347666477 l 2.241911674216324 5.778354243133194 a27.19802756642166,27.19802756642166 0 0,0 -0.4379268122281008,0.16558644847690956 l -2.142114641227949 -5.816088941716734" fill="#ff2203" stroke="none" /><path d="M 106.91757812671514 119.82793768551818 l 2.685891508906104 7.6986032529193125 a29.153680472245263,29.153680472245263 0 0,0 -0.47524701056792723,0.16122958909395632 l -2.55297476540095 -7.743695828911392" fill="#ff3f05" stroke="none" /><path d="M 106.2309692047433 120.05430185196036 l 2.7418673929313964 8.824668286602302 a30.240812040561416,30.240812040561416 0 0,0 -0.4984334209755734,0.15017390102824177 l -2.5895589975155775 -8.87055755673627" fill="#ff4f07" stroke="none" /><path d="M 105.88484417918355 120.15858648285463 l 2.8410918316811915 9.732185534710794 a31.13840411889759,31.13840411889759 0 0,0 -0.5158133460917923,0.1457740039257929 l -2.6731473174847937 -9.779648331975105" fill="#ff5c08" stroke="none" /><path d="M 105.18746579009965 120.34920634021253 l 3.318480317988361 13.017616589502747 a34.43393662677375,34.43393662677375 0 0,0 -0.5756152545804456,0.14147222492630834 l -3.093911778664704 -13.072810072743087" fill="#ff8b0c" stroke="none" /><path d="M 104.48393922423573 120.51570834832081 l 2.0138953188029536 9.214328504118432 a30.43184097283801,30.43184097283801 0 0,0 -0.5127164371720663,0.10744471445794929 l -1.854987420201509 -9.247629199302922" fill="#ff5207" stroke="none" /><path d="M 104.13013068566511 120.58985236759428 l 2.6188430885564493 13.055662561580302 a34.315729947859765,34.315729947859765 0 0,0 -0.580152164814374,0.11118754316046447 l -2.393723309170371 -13.098807303089234" fill="#ff8a0c" stroke="none" /><path d="M 103.41894727170886 120.7198165907248 l 3.0221604740921557 18.315172991723063 a39.56283964397438,39.56283964397438 0 0,0 -0.6728774978397538,0.10508962673790087 l -2.7064471126438847 -18.36448092580807" fill="#ffd113" stroke="none" /><path d="M 102.70371172650421 120.8252237178851 l 2.0674025151270783 15.924079283447496 a37.05772257155651,37.05772257155651 0 0,0 -0.6332857331000721,0.07668208290426748 l -1.7929893589756256 -15.957306895077114" fill="#ffaf10" stroke="none" /><path d="M 101.98527174616119 120.90594882070398 l 1.1448832016594448 12.0562183317511 a33.1104565565586,33.1104565565586 0 0,0 -0.5678532890960194,0.048996771185232865 l -0.9371855948218836 -12.074139355214996" fill="#ff790b" stroke="none" /><path d="M 101.62511606390274 120.93702456842531 l 0.9484018932540625 12.21864344391212 a33.25539529189428,33.25539529189428 0 0,0 -0.5711016165368624,0.039386511174987954 l -0.7379375159382697 -12.233158299603394" fill="#ff7b0b" stroke="none" /><line stroke="#e1ed5e" stroke-width="0.3" x1="102.19456741930631" x2="102.32365962044197" y1="184.97166512339345" y2="189.96999836594603" /><path d="M 102.22038585953345 185.97133177190398 a86.0,86.0 0 0,1 -42.740103519485714,-10.115201625700543" fill="none" id="id55" stroke="none" /><text fill="#e1ed5e" style="font-size:6.75px; font-family:Arial;" text-anchor="middle"><textPath startOffset="22.20632615414155" xlink:href="#id55">July</textPath></text><path d="M 100.54218724476979 120.99299961872073 l 0.29562484804543676 11.446326674352573 a32.45014359677542,32.45014359677542 0 0,0 -0.5585138078402839,0.009615321705974605 l -0.09855135031248484 -11.449719473337709" fill="#ff6f0a" stroke="none" /><path d="M 100.18074693466247 120.99922214144158 l 0.03902841503060793 4.534330601991226 a25.534498563825323,25.534498563825323 0 0,0 -0.4395506993861236,0.0 l 0.03902841503060481 -4.534330601991226" fill="#ff0901" stroke="none" /><path d="M 99.45781275523022 120.99299961872073 l -0.2175396045475946 8.422936687238815 a29.4257454220253,29.4257454220253 0 0,0 -0.5062344265609897,-0.01743573722612899 l 0.3624943827832273 -8.417944151586592" fill="#ff4306" stroke="none" /><path d="M 99.09653310690486 120.98055641714683 l -0.3633226447424394 8.437178278366705 a29.444997373896904,29.444997373896904 0 0,0 -0.5061902560719175,-0.026164254327779714 l 0.5085009692278458 -8.429674217276723" fill="#ff4406" stroke="none" /><path d="M 98.73552117531835 120.96189622390904 l -1.0851388999252811 17.98888883290501 a39.02158838378975,39.02158838378975 0 0,0 -0.670125614511948,-0.046215785843283216 l 1.3946272752161593 -17.96754470254544" fill="#ffca12" stroke="none" /><path d="M 98.37488393609728 120.93702456842531 l -0.6546432777778444 8.434032925299842 a29.45940123213112,29.45940123213112 0 0,0 -0.5052367023658977,-0.04359394860530186 l 0.7997242978852838 -8.421514724415877" fill="#ff4406" stroke="none" /><path d="M 97.65516085044442 120.86867818915974 l -1.2288037484208056 10.936148856217796 a32.00496753550354,32.00496753550354 0 0,0 -0.5469383416487038,-0.06622661630560425 l 1.4168695131208988 -10.913376711186844" fill="#ff6909" stroke="none" /><path d="M 96.93821686468263 120.77559828337769 l -2.1059991540551377 14.290167028844003 a35.444518204119554,35.444518204119554 0 0,0 -0.6028338444850739,-0.09415024860438627 l 2.3516688621487285 -14.25179847289251" fill="#ff990e" stroke="none" /><path d="M 96.22490169976321 120.6578951692458 l -2.191087590037099 11.98995473542574 a33.18851424024982,33.18851424024982 0 0,0 -0.5610951133112935,-0.10753521388373141 l 2.397150317920088 -11.950462323193541" fill="#ff7a0b" stroke="none" /><path d="M 95.86986931433489 120.58985236759428 l -4.563431400283467 22.749977173264572 a44.203154258185506,44.203154258185506 0 0,0 -0.7447358765857139,-0.15606664386983712 l 4.954358738298568 -22.668054548668195" fill="#f1ff19" stroke="none" /><path d="M 95.16358092515715 120.4354850818985 l -2.8161469917312165 11.899161124664648 a33.22786650850291,33.22786650850291 0 0,0 -0.5554539710857634,-0.13651707196490565 l 3.0205542475601903 -11.848922794385713" fill="#ff7a0b" stroke="none" /><path d="M 94.46302465271185 120.25689768951611 l -4.115763749013441 15.057427557234476 a36.60979294798805,36.60979294798805 0 0,0 -0.6064479004165974,-0.171388234302076 l 4.374342817534652 -14.984350529593879" fill="#ffa90f" stroke="none" /><path d="M 93.76903079525671 120.05430185196036 l -4.056792373454838 13.05673902962995 a34.672454002452646,34.672454002452646 0 0,0 -0.5684278964933637,-0.18199266209583898 l 4.280941615039143 -12.984973520874405" fill="#ff8f0d" stroke="none" /><path d="M 93.42475214034765 119.94407469862007 l -8.036576367395138 24.376583638166885 a46.66718507311465,46.66718507311465 0 0,0 -0.7607423775784404,-0.2580851182982873 l 8.454988477910804 -24.234635532970476" fill="#d2ff1c" stroke="none" /><path d="M 92.7421414339146 119.70592522655815 l -4.751258326397072 12.900215739880656 a34.74736417716582,34.74736417716582 0 0,0 -0.5594818370660539,-0.2115481578206065 l 4.972610384223408 -12.816519331953415" fill="#ff900d" stroke="none" /><path d="M 92.06813273071674 119.44442032107085 l -4.7267463332611435 11.587289516421169 a33.51428820334427,33.51428820334427 0 0,0 -0.5322843633544205,-0.22249490705168867 l 4.925502156113026 -11.504209566349507" fill="#ff7e0b" stroke="none" /><path d="M 91.40352486487194 119.15986991738527 l -4.32459713789829 9.638685310522177 a31.564392785219322,31.564392785219322 0 0,0 -0.49380539162440523,-0.22668183566975866 l 4.489870525290115 -9.562816404518344" fill="#ff6309" stroke="none" /><path d="M 90.42595943632237 118.69057910512821 l -4.173495540804911 8.1475577663889 a30.154275645061304,30.154275645061304 0 0,0 -0.4599375627065172,-0.24061759481638562 l 4.313124006037924 -8.074510752627798" fill="#ff4e07" stroke="none" /><line stroke="#e1ed5e" stroke-width="0.3" x1="58.666819895761336" x2="56.23545636021788" y1="174.27360380694188" y2="178.64263932499728" /><path d="M 58.180547188652646 175.14741091055294 a86.0,86.0 0 0,1 -31.652253787137756,-30.449443065178592" fill="none" id="id56" stroke="none" /><text fill="#e1ed5e" style="font-size:6.75px; font-family:Arial;" text-anchor="middle"><textPath startOffset="22.20632615414155" xlink:href="#id56">August</textPath></text><path d="M 89.7882731507175 118.34994917583269 l -7.08640960683941 12.73391445382936 a35.57291248973074,35.57291248973074 0 0,0 -0.5324947097786117,-0.3023643934705473 l 7.304553083539228 -12.610046894564181" fill="#ff9b0e" stroke="none" /><path d="M 89.4739219176387 118.17145234162733 l -2.209858814971792 3.8149388427277175 a25.408767895439862,25.408767895439862 0 0,0 -0.37657261555444965,-0.22248573889858206 l 2.2751993015546237 -3.776334531535386" fill="#ff0701" stroke="none" /><path d="M 89.1626897886671 117.98757091392108 l -6.88185264286731 11.422374188687728 a34.33531131637126,34.33531131637126 0 0,0 -0.5036185743924728,-0.30936366171883545 l 7.077450417192091 -11.302222060140513" fill="#ff8a0c" stroke="none" /><path d="M 88.8546689885994 117.79835938074946 l -6.447572969179618 10.296349271428562 a33.14849807639377,33.14849807639377 0 0,0 -0.480997647556654,-0.30699545628668906 l 6.623852418783196 -10.183839386318068" fill="#ff790b" stroke="none" /><path d="M 88.24862548938628 117.40417183066458 l -7.600444439504355 11.256507985093965 a34.58218420197859,34.58218420197859 0 0,0 -0.4904793085363034,-0.3373561408403812 l 7.793080632663548 -11.124011054888483" fill="#ff8d0d" stroke="none" /><path d="M 87.65650970185807 116.9893568818739 l -5.576840141963571 7.675861944756555 a30.487887149622836,30.487887149622836 0 0,0 -0.4219161059934816,-0.3121234486244582 l 5.7081412183756175 -7.57872854739233" fill="#ff5307" stroke="none" /><path d="M 86.79598089348748 116.32954008644616 l -11.279556730132605 13.9495385682377 a38.93928722929177,38.93928722929177 0 0,0 -0.5175770589939835,-0.4259306830852651 l 11.518003917671276 -13.753312766295254" fill="#ffc912" stroke="none" /><path d="M 86.24171649860922 115.8653595955263 l -11.870743625097905 13.688743676450747 a39.118947476395334,39.118947476395334 0 0,0 -0.5049280885582141,-0.4455403311704327 l 12.104614066562707 -13.482380203508024" fill="#ffcb12" stroke="none" /><path d="M 85.70375840098266 115.38237550388516 l -8.408705466073435 9.047543306039536 a33.351694923767916,33.351694923767916 0 0,0 -0.4171569104192155,-0.39444789642288164 l 8.563198210883469 -8.901460772870724" fill="#ff7c0b" stroke="none" /><path d="M 85.18274418774928 114.88116024355367 l -21.11766940431759 21.2087465019142 a50.92936499915274,50.92936499915274 0 0,0 -0.6159042715001634,-0.6239077753124029 l 21.479614300873283 -20.84209823262113" fill="#a0ff22" stroke="none" /><path d="M 84.9287848128048 114.62390073753433 l -16.44585003562333 15.957736352252912 a43.91539510639574,43.91539510639574 0 0,0 -0.5217430177452537,-0.5470454682048013 l 16.71809960474754 -15.672283767465611" fill="#f5ff19" stroke="none" /><path d="M 84.43433777217949 114.09645910891817 l -6.095347563029076 5.520023267838457 a29.22337636203053,29.22337636203053 0 0,0 -0.3344561853338084,-0.3757650697682142 l 6.189462598011223 -5.414284028329378" fill="#ff4006" stroke="none" /><path d="M 83.95833913139862 113.55231037782056 l -6.66140774913271 5.627688186961185 a29.720391478016786,29.720391478016786 0 0,0 -0.32678844176210137,-0.3936377297039274 l 6.757292190788347 -5.512189200143498" fill="#ff4806" stroke="none" /><path d="M 83.72743513129214 113.27417163493432 l -6.510428316581547 5.310812621643115 a29.401809779300567,29.401809779300567 0 0,0 -0.31653440687000384,-0.39492534196034396 l 6.600880635506412 -5.1979594461045115" fill="#ff4306" stroke="none" /><path d="M 83.50135304334701 112.99209946851258 l -14.75828229759437 11.621624009441328 a39.78480878242604,39.78480878242604 0 0,0 -0.41905373718835043,-0.5416834443281874 l 14.95614285200079 -11.365862570999887" fill="#ffd413" stroke="none" /><path d="M 83.28015986056508 112.70617746262583 l -7.5312701661595645 5.723359461105298 a30.459221629537424,30.459221629537424 0 0,0 -0.3136411191726114,-0.42017353363088095 l 7.62867255202726 -5.592873047965109" fill="#ff5307" stroke="none" /><path d="M 82.85270091963577 112.12312394758628 l -9.224433562514626 6.521665651280186 a32.297003913265414,32.297003913265414 0 0,0 -0.3170321470505498,-0.45670845320116255 l 9.33532661672731 -6.36191593589201" fill="#ff6d0a" stroke="none" /><path d="M 82.44556493220864 111.52570212397912 l -11.804097393509299 7.750207276658539 a35.12099246181457,35.12099246181457 0 0,0 -0.32745331035213016,-0.5082148094508137 l 11.935755567238475 -7.545870867286277" fill="#ff950d" stroke="none" /><path d="M 82.05923443525364 110.91462005526583 l -10.902083854681925 6.632498633075102 a33.76109205719712,33.76109205719712 0 0,0 -0.29777142410978236,-0.4990820345883104 l 11.014636154489938 -6.44385450460068" fill="#ff820c" stroke="none" /><line stroke="#e1ed5e" stroke-width="0.3" x1="26.63291911575756" x2="22.317208475507996" y1="142.92168965132927" y2="145.44649492493687" /><path d="M 25.769776987707644 143.4266507060508 a86.0,86.0 0 0,1 -11.730757126820373,-40.83630448921669" fill="none" id="id57" stroke="none" /><text fill="#e1ed5e" style="font-size:6.75px; font-family:Arial;" text-anchor="middle"><textPath startOffset="21.46611528233685" xlink:href="#id57">September</textPath></text><path d="M 81.51974371655577 109.97397251340807 l -10.975719695460695 5.923701753826214 a33.472235777983336,33.472235777983336 0 0,0 -0.2692881085140721,-0.5093916174352586 l 11.076060312199653 -5.73389512130483" fill="#ff7e0b" stroke="none" /><path d="M 81.18737489456691 109.33194174019688 l -15.534778691193035 7.705976644971154 a38.341032986451125,38.341032986451125 0 0,0 -0.2881908188066165,-0.5937584460425346 l 15.66512276661437 -7.437429242963335" fill="#ffc111" stroke="none" /><path d="M 80.87730276802145 108.67885076344099 l -12.392124756475809 5.6241752980088595 a34.608677517040135,34.608677517040135 0 0,0 -0.2415338207515402,-0.5445950027282738 l 12.487099661958629 -5.41003195878789" fill="#ff8e0d" stroke="none" /><path d="M 80.58989483394504 108.01547362559985 l -24.62802277681003 10.170231708142525 a47.645320769177864,47.645320769177864 0 0,0 -0.30651229898971977,-0.760738389201793 l 24.799437690057136 -9.744793951097927" fill="#c7ff1e" stroke="none" /><path d="M 80.45479744820244 107.68017299344265 l -13.201371909001459 5.187401856962633 a35.18398245576299,35.18398245576299 0 0,0 -0.21664239039103667,-0.5655849191438677 l 13.288708578986006 -4.959393370985607" fill="#ff960d" stroke="none" /><path d="M 79.97269907076064 106.31721596034903 l -15.250094532777108 4.810340690424227 a36.99077111388282,36.99077111388282 0 0,0 -0.18631586896201854,-0.6088910399319112 l 15.330637174245258 -4.547122677940268" fill="#ffaf10" stroke="none" /><path d="M 79.86692584326677 105.97154293290107 l -25.71294203735635 7.626552016444991 a47.82013579152776,47.82013579152776 0 0,0 -0.22727626938575346,-0.791178509577211 l 25.840410943628207 -7.182816031363184" fill="#c4ff1e" stroke="none" /><path d="M 79.67330655649465 105.27499134158121 l -9.125888375783155 2.3682642875629054 a30.42817662026969,30.42817662026969 0 0,0 -0.1272023635186335,-0.5081102113632257 l 9.165302053596848 -2.210826236802288" fill="#ff5207" stroke="none" /><path d="M 79.50377843672027 104.57218783832718 l -8.773442348526576 1.9571327467529074 a29.98908556146464,29.98908556146464 0 0,0 -0.10805490413253412,-0.5047965387773335 l 8.80583129138355 -1.80582238855941" fill="#ff4c07" stroke="none" /><path d="M 79.4281124754447 104.21870165774334 l -4.286002307489103 0.8789356357365625 a25.375196410627705,25.375196410627705 0 0,0 -0.08406448166871416,-0.4286429809345087 l 4.300496722133484 -0.8050289277340991" fill="#ff0701" stroke="none" /><path d="M 79.35854240842038 103.8639653848113 l -28.680723774244548 5.368871039428107 a50.17890834922592,50.17890834922592 0 0,0 -0.15162048829972247,-0.8503682185793379 l 28.768890704883457 -4.874384070115556" fill="#a8ff21" stroke="none" /><path d="M 79.29508885075956 103.50808413554451 l -14.375258136740168 2.435635422454123 a35.58013602162297,35.58013602162297 0 0,0 -0.09711385601647964,-0.6047280741170431 l 14.415053747117938 -2.187828118643866" fill="#ff9b0e" stroke="none" /><path d="M 79.18660465613746 102.79330883721812 l -16.577073617306233 2.224763690182404 a37.725697091324605,37.725697091324605 0 0,0 -0.08083806817715138,-0.6443589406566327 l 16.612913194730233 -1.9390869952383627" fill="#ffb911" stroke="none" /><path d="M 79.07016306316243 101.71520430193888 l -8.22023939042515 0.6736502538445016 a29.24779608746494,29.24779608746494 0 0,0 -0.03680130591021962,-0.5021245803712405 l 8.230617254999704 -0.5320525369765005" fill="#ff4106" stroke="none" /><path d="M 79.04373962182676 101.35467743843564 l -13.753878119624154 0.8890931895012381 a34.78258502709465,34.78258502709465 0 0,0 -0.03348014137915654,-0.5978104150117132 l 13.767144611890844 -0.6522110581540872" fill="#ff900d" stroke="none" /><path d="M 79.0235259727143 100.99374915477108 l -3.9346915373002425 0.1864038915401545 a24.93910445462969,24.93910445462969 0 0,0 -0.016623536712663388,-0.4289796175288968 l 3.9373172068641065 -0.11864702699726093" fill="#ff0000" stroke="none" /><line stroke="#e1ed5e" stroke-width="0.3" x1="15.007084014347285" x2="10.007500721073583" y1="101.09737516637583" y2="101.16192664675087" /><path d="M 14.007167355692545 101.11028546245083 a86.0,86.0 0 0,1 10.666146001902534,-42.60595125391555" fill="none" id="id58" stroke="none" /><text fill="#e1ed5e" style="font-size:6.75px; font-family:Arial;" text-anchor="middle"><textPath startOffset="22.20632615414155" xlink:href="#id58">October</textPath></text><path d="M 79.00175016825051 100.2711162175752 l -18.245248858834366 0.23557119755029393 a39.246769569156946,39.246769569156946 0 0,0 -0.0029074431331899105,-0.6755873909702218 l 18.246600599257057 0.07852567162360329" fill="#ffcd13" stroke="none" /><path d="M 79.00019446554 99.90962569577889 l -6.267307853766706 -0.02697184912947307 a27.267365891228252,27.267365891228252 0 0,0 0.006059838215857524,-0.46934114799417226 l 6.265915008433133 0.1348492551841173" fill="#ff2303" stroke="none" /><path d="M 79.00486145842228 99.54816195383935 l -9.961021383519423 -0.21437193333022114 a30.963327874195997,30.963327874195997 0 0,0 0.01605419878877562,-0.5327606998102286 l 9.955855490275002 0.38580278056544415" fill="#ff5a08" stroke="none" /><path d="M 79.05617556472873 98.46500227214037 l -9.114526054396112 -0.6680144224496909 a30.138973053076935,30.138973053076935 0 0,0 0.0423747017401126,-0.5170786924130196 l 9.101676868836503 0.8248070320704889" fill="#ff4e07" stroke="none" /><path d="M 79.26566170972629 96.67025291283419 l -17.262338265705356 -2.7721753042327033 a38.48351447269779,38.48351447269779 0 0,0 0.11066418100789407,-0.6531462606487147 l 17.21206222317724 3.068907353197246" fill="#ffc312" stroke="none" /><path d="M 79.32604984820605 96.31383870115002 l -7.8668141981415065 -1.4026514444273492 a28.99088209790602,28.99088209790602 0 0,0 0.09182416837889387,-0.4905283791944691 l 7.841504305852751 1.537857901084391" fill="#ff3d05" stroke="none" /><path d="M 79.3925641242962 95.95851677861259 l -39.28202830019374 -7.703901603036113 a61.0303365872245,61.0303365872245 0 0,0 0.21105076254805286,-1.029158471337027 l 39.14359824173069 8.378935730536542" fill="#32ff2f" stroke="none" /><path d="M 79.54389044137918 95.25157060432595 l -15.240747331304396 -3.5377994252825964 a36.64597085483007,36.64597085483007 0 0,0 0.14792268243274956,-0.6132350170746003 l 15.177591848610833 3.799619674016593" fill="#ffaa0f" stroke="none" /><path d="M 79.71946130924805 94.55025226153421 l -7.926392871529449 -2.129965198878419 a29.20758525403581,29.20758525403581 0 0,0 0.1346514596381689,-0.484412942781345 l 7.88855464132492 2.266089445078707" fill="#ff4006" stroke="none" /><path d="M 79.91906864156998 93.8553929516997 l -16.250039994425624 -4.972384422946211 a37.99377552723321,37.99377552723321 0 0,0 0.19674355902516338,-0.6237308471355151 l 16.162040951632257 5.2513654365081415" fill="#ffbc11" stroke="none" /><path d="M 80.02781315780177 93.51064311812611 l -14.582163891392801 -4.738032262009801 a36.33259447945082,36.33259447945082 0 0,0 0.19838064796698063,-0.5931328870557948 l 14.498445949654048 4.988338251987917" fill="#ffa60f" stroke="none" /><path d="M 80.2630227832202 92.82701384747504 l -12.052972688163356 -4.38039752690473 a33.82427514970436,33.82427514970436 0 0,0 0.20358253219909786,-0.5454999714265846 l 11.97578556746263 4.587220635360656" fill="#ff830c" stroke="none" /><path d="M 80.38941819471856 92.48833698450439 l -9.381111143270909 -3.593353135508903 a31.045766921388992,31.045766921388992 0 0,0 0.19545003027986943,-0.49739900830835804 l 9.317867563109347 3.7543011487130244" fill="#ff5b08" stroke="none" /><path d="M 80.803312248108 91.48605970444005 l -11.919934012618043 -5.286620682802009 a34.0396773391445,34.0396773391445 0 0,0 0.2421642345611091,-0.5335767907696983 l 11.827167461093584 5.491019482413778" fill="#ff860c" stroke="none" /><path d="M 81.26839172434947 90.50648371742162 l -8.850647681837467 -4.485667575491221 a30.922458263244458,30.922458263244458 0 0,0 0.24471527937387202,-0.472712028441322 l 8.772122969303481 4.637352326192879" fill="#ff5908" stroke="none" /><path d="M 81.43458229118936 90.18545643968196 l -8.775363190746628 -4.6390652579996186 a30.926123392215608,30.926123392215608 0 0,0 0.2528459480482657,-0.46848514108905914 l 8.69420914347989 4.78943138242115" fill="#ff5908" stroke="none" /><path d="M 81.6062741919709 89.86733742301443 l -6.399922810714592 -3.525564044855823 a28.30675124918627,28.30675124918627 0 0,0 0.23877736588710907,-0.4247582904187014 l 6.338287803535052 3.6352058452093092" fill="#ff3304" stroke="none" /><line stroke="#e1ed5e" stroke-width="0.3" x1="26.266209847984243" x2="21.928928074336255" y1="57.711370442889674" y2="55.22380399835377" /><path d="M 25.398753493254645 57.213857153982495 a86.0,86.0 0 0,1 29.58750427330803,-30.492523968695096" fill="none" id="id59" stroke="none" /><text fill="#e1ed5e" style="font-size:6.75px; font-family:Arial;" text-anchor="middle"><textPath startOffset="21.46611528233685" xlink:href="#id59">November</textPath></text><path d="M 82.15384107792192 88.93136811851018 l -48.445562155161966 -30.04714326083576 a78.00704614928623,78.00704614928623 0 0,0 0.7175623149718925,-1.1350112593228643 l 47.92117224394411 30.87660216787284" fill="#45fff1" stroke="none" /><path d="M 82.7489923806493 88.02491185347247 l -5.618021424659767 -3.8998476641976567 a27.838930949489406,27.838930949489406 0 0,0 0.27664921749093696,-0.39130069882773993 l 5.550059587364951 3.9959748633571825" fill="#ff2c04" stroke="none" /><path d="M 82.95767976084542 87.72973835380427 l -10.083977455638314 -7.260340146099687 a33.42574506268693,33.42574506268693 0 0,0 0.34020625830876294,-0.4640409540016737 l 9.957508584815917 7.432843543772862" fill="#ff7d0b" stroke="none" /><path d="M 83.39014120810768 87.1503855733568 l -11.152014332412312 -8.627351144119588 a35.099596144367794,35.099596144367794 0 0,0 0.3738038785946402,-0.47469296543698736 l 11.001856373223701 8.818036503509623" fill="#ff950d" stroke="none" /><path d="M 83.6137871275137 86.86637796730984 l -11.740353509910046 -9.409945222195196 a36.046028367059904,36.046028367059904 0 0,0 0.3922177065014437,-0.48081253182712425 l 11.57663731133221 9.610641923630402" fill="#ffa20e" stroke="none" /><path d="M 84.07557802195018 86.31012108654704 l -11.13485791578039 -9.57239495384213 a35.68386209268391,35.68386209268391 0 0,0 0.4044309293821395,-0.4623344652389897 l 10.968435122820406 9.762644975284063" fill="#ff9d0e" stroke="none" /><path d="M 84.5562425177563 85.77008943001954 l -5.808046021223954 -5.35154579857728 a28.89762249154298,28.89762249154298 0 0,0 0.3402112665367122,-0.36291365859679064 l 5.715067432716785 5.45072887405212" fill="#ff3c05" stroke="none" /><path d="M 85.31137513191541 84.99185889309783 l -40.0896351286273 -40.961690174413135 a78.31525893417111,78.31525893417111 0 0,0 0.9715446301515768,-0.9346251644520052 l 39.37860725486329 41.64569842562746" fill="#46fff4" stroke="none" /><path d="M 86.37877921826538 84.01681056812374 l -5.019355522989703 -5.889729814632835 a28.738400813833707,28.738400813833707 0 0,0 0.3792681516858181,-0.3176261698687392 l 4.9172298343447745 5.975257141895387" fill="#ff3905" stroke="none" /><path d="M 87.22198572758235 83.33499621200491 l -6.86586935114999 -8.954422518667705 a32.28369817878359,32.28369817878359 0 0,0 0.4439067628584296,-0.3343413706326426 l 6.71071643453317 9.071280478806202" fill="#ff6d0a" stroke="none" /><path d="M 87.80319425747018 82.90503203632743 l -7.885280143840639 -11.051960184419531 a34.57657787753755,34.57657787753755 0 0,0 0.4874784766333031,-0.34150982557877313 l 7.693870527623676 11.186054852762247" fill="#ff8d0d" stroke="none" /><path d="M 88.09926311788651 82.69761687909137 l -10.106767158567688 -14.694145347771046 a38.8343671011596,38.8343671011596 0 0,0 0.5540282894857399,-0.37408237418977114 l 9.852334174675407 14.865939634259483" fill="#ffc712" stroke="none" /><path d="M 88.70189139769569 82.29822771554957 l -7.190288052683816 -11.2656769596155 a34.36471921287459,34.36471921287459 0 0,0 0.5013662762347814,-0.31395551618279094 l 6.995302624076793 11.387776817121223" fill="#ff8a0c" stroke="none" /><path d="M 89.00827224532344 82.1063720568725 l -10.058379619669306 -16.374214012762813 a40.21681256371974,40.21681256371974 0 0,0 0.5929833688353461,-0.35726584478710083 l 9.775034184616311 16.544926467008533" fill="#ffda14" stroke="none" /><line stroke="#e1ed5e" stroke-width="0.3" x1="56.762969772571076" x2="54.21961505331055" y1="26.818313649435495" y2="22.513508569990535" /><path d="M 56.25429882871897 25.957352633546506 a86.0,86.0 0 0,1 42.265352541879196,-11.944610805530505" fill="none" id="id60" stroke="none" /><text fill="#e1ed5e" style="font-size:6.75px; font-family:Arial;" text-anchor="middle"><textPath startOffset="22.20632615414155" xlink:href="#id60">December</textPath></text><path d="M 89.3179101791058 81.91981866633112 l -6.176968723438323 -10.454949966224602 a33.14334885468564,33.14334885468564 0 0,0 0.4936832294660694,-0.2859731915543038 l 5.996088761506933 10.559727315168953" fill="#ff790b" stroke="none" /><path d="M 89.94658935756843 81.56283822128135 l -5.910666979324988 -10.839696814730683 a33.34645743425074,33.34645743425074 0 0,0 0.5063182444592317,-0.27045767127889475 l 5.723203688337451 10.939833212511328" fill="#ff7c0b" stroke="none" /><path d="M 90.26544431104013 81.39251694778311 l -7.759988518107591 -14.833122275918996 a37.740338654087196,37.740338654087196 0 0,0 0.5782170550857594,-0.2961852336871884 l 7.503510975433069 14.964500034918688" fill="#ffb911" stroke="none" /><path d="M 91.56875222667455 80.76684994638697 l -5.708575190114106 -13.022257935671158 a35.218545370196516,35.218545370196516 0 0,0 0.5573187930245354,-0.23861482189217106 l 5.483572639299263 13.118592285526116" fill="#ff960d" stroke="none" /><path d="M 92.23578459929587 80.48803036053334 l -5.349332093428793 -13.443213513749424 a35.468425740972734,35.468425740972734 0 0,0 0.5692122183650781,-0.22084549748325516 l 5.117136710064039 13.53330171512323" fill="#ff9a0e" stroke="none" /><path d="M 92.57280143429618 80.3572730644239 l -6.90098148707777 -18.251039572858016 a40.512149829657915,40.512149829657915 0 0,0 0.654401773484274,-0.2410216958980054 l 6.585797387820927 18.367124536562343" fill="#ffde14" stroke="none" /><path d="M 93.59665428221793 80.00007090966166 l -5.878875328012236 -18.36182128425035 a40.2799807053083,40.2799807053083 0 0,0 0.6621542155429544,-0.20573453797075494 l 5.561935739758553 18.460295957103632" fill="#ffdb14" stroke="none" /><path d="M 94.63758080256005 79.69619591428918 l -3.2861957201314325 -12.44256960006103 a33.86921211898277,33.86921211898277 0 0,0 0.564956378691522,-0.14401996020697094 l 3.071530452754911 12.497292556436866" fill="#ff830c" stroke="none" /><path d="M 94.98787191387505 79.60689891045804 l -4.546408263069173 -18.498203100547656 a40.04870982622221,40.04870982622221 0 0,0 0.6708660706940849,-0.15877232411986036 l 4.227318505412554 18.573721336808386" fill="#ffd814" stroke="none" /><path d="M 96.04723909329186 79.375362276772 l -3.563223866386702 -18.592119054372095 a39.93049009545008,39.93049009545008 0 0,0 0.6761655759378402,-0.12356493706104854 l 3.2426631693459687 18.650699472783877" fill="#ffd614" stroke="none" /><path d="M 96.40284397218896 79.31037775812273 l -3.2707952252479857 -18.812505523174828 a40.09472349799778,40.09472349799778 0 0,0 0.6809817552225115,-0.11236782448854857 l 2.9464842638865885 18.866019610603004" fill="#ffd814" stroke="none" /><path d="M 97.47563105711357 79.15227682838746 l -1.921468217539993 -15.868614449250027 a36.98452265943413,36.98452265943413 0 0,0 0.6326700949556215,-0.07108785683300493 l 1.6480314190746534 15.89933825955363" fill="#ffae10" stroke="none" /><path d="M 98.55514903715128 79.0497635885617 l -1.3258297172416498 -19.224436797798173 a40.27010105400741,40.27010105400741 0 0,0 0.6919514646356845,-0.041740401984305626 l 0.9947162037663423 19.244410469162787" fill="#ffda14" stroke="none" /></svg>