<?xml version="1.0" encoding="utf-8" ?>
<svg baseProfile="full" height="200mm" version="1.1" viewBox="0,0,200,200" width="200mm" xmlns="http://www.w3.org/2000/svg" xmlns:ev="http://www.w3.org/2001/xml-events" xmlns:xlink="http://www.w3.org/1999/xlink"><defs /><rect fill="#1a1a1a" height="200" width="200" x="0" y="0" /><text alignment-baseline="middle" fill="#e1ed5e" style="dominant-baseline: central; font-size:9.0px; font-family:Arial;" text-anchor="middle" x="100.0" y="100.0">2020</text><line stroke="#e1ed5e" stroke-width="0.3" x1="100.0" x2="100.0" y1="15.0" y2="10.0" /><path d="M 100.0 14.0 a86.0,86.0 0 0,1 42.35913384403234,11.155469271406648" fill="none" id="id61" stroke="none" /><text fill="#e1ed5e" style="font-size:6.75px; font-family:Arial;" text-anchor="middle"><textPath startOffset="22.145653131862478" xlink:href="#id61">January</textPath></text><path d="M 100.0 79.0 l 0.0 -23.142734323019837 a44.14273432301984,44.14273432301984 0 0,0 0.7577687336633977,0.006504533208884407 l -0.397275808814543 23.13932418800539" fill="#f7ff18" stroke="none" /><path d="M 101.44090949804482 79.04949213459386 l 1.4211735516019843 -20.66355153557223 a41.71236578295735,41.71236578295735 0 0,0 0.7139389316034055,0.05526338857147575 l -1.7756814779806234 20.6361103800057" fill="#ffe715" stroke="none" /><path d="M 102.15924093988457 79.11130261209362 l 1.589366462974997 -15.375678772257183 a36.45760600679387,36.45760600679387 0 0,0 0.6219738736103516,0.06969346985139195 l -1.8530762381861454 15.346129541898822" fill="#ffa00e" stroke="none" /><path d="M 102.51750503828377 79.15144685158666 l 2.859479864890249 -23.68059528517308 a44.85261449312998,44.85261449312998 0 0,0 0.7636097346417369,0.09886456814885357 l -3.2655674214227774 23.62801912082383" fill="#eeff19" stroke="none" /><path d="M 103.58742460773223 79.30868818359171 l 3.373900452370518 -19.459761230118136 a40.75007623771906,40.75007623771906 0 0,0 0.6882207926983575,0.12541675427046836 l -3.707455978619929 19.398976301916303" fill="#ffdb14" stroke="none" /><path d="M 103.94208987418118 79.37332000966035 l 1.5648699360356806 -8.188060756432112 a29.33625556636383,29.33625556636383 0 0,0 0.4938318782891258,0.09878020622619729 l -1.7051982998557633 8.159991153543055" fill="#ff3a05" stroke="none" /><path d="M 105.3480935250658 79.69241777938227 l 2.0443766901663105 -7.762831283874354 a29.02751677626361,29.02751677626361 0 0,0 0.4807766771173672,0.13103782126725794 l -2.177334768218371 7.7265929684629535" fill="#ff3505" stroke="none" /><path d="M 106.38641147887787 79.99465700312896 l 8.049621944319698 -25.215326091006933 a47.46902120068455,47.46902120068455 0 0,0 0.7741457346357963,0.2544770794629034 l -8.481290416603237 25.073428090142006" fill="#cdff1d" stroke="none" /><path d="M 108.4095320186766 80.7573450057729 l 3.226483169049052 -7.382824909734024 a29.0570650542208,29.0570650542208 0 0,0 0.4553471743664793,0.20367099931189056 l -3.352743746271163 7.326350159512281" fill="#ff3505" stroke="none" /><path d="M 108.73861861582097 80.90454125486305 l 2.445060173710381 -5.342897742663146 a26.875787227395115,26.875787227395115 0 0,0 0.41786894539678837,0.1955837658856687 l -2.536417832978674 5.300137745206944" fill="#ff1402" stroke="none" /><line stroke="#e1ed5e" stroke-width="0.3" x1="143.13028292997686" x2="145.6673583964461" y1="26.7553504044142" y2="22.446841604673864" /><path d="M 143.63769802327073 25.89364864446614 a86.0,86.0 0 0,1 29.32050498858742,28.57503671076993" fill="none" id="id62" stroke="none" /><text fill="#e1ed5e" style="font-size:6.75px; font-family:Arial;" text-anchor="middle"><textPath startOffset="20.669276256404974" xlink:href="#id62">February</textPath></text><path d="M 110.65571695917076 81.90426304109057 l 5.79079618788984 -9.834037916005688 a32.4123451675419,32.4123451675419 0 0,0 0.47702829402100677,0.2864417844234749 l -5.958757238468281 9.733182131046291" fill="#ff6709" stroke="none" /><path d="M 111.5731344415666 82.4767994020092 l 5.990602203409292 -9.07053526796296 a31.870231129412666,31.870231129412666 0 0,0 0.4539287823816113,0.30542354298425034 l -6.145427273887904 8.96636205092159" fill="#ff5f08" stroke="none" /><path d="M 113.03279911837588 83.53348406188908 l 5.2916080721946015 -6.685773936020531 a29.52646990924653,29.52646990924653 0 0,0 0.3947396991023606,0.31797435943969965 l -5.405598541652221 6.5939512827874225" fill="#ff3c05" stroke="none" /><path d="M 115.16444852881244 85.47280134310134 l 5.878196454007613 -5.631179232755998 a29.140231759804514,29.140231759804514 0 0,0 0.34294468014328783,0.3641953659313027 l -5.97399696788716 5.529442406880201" fill="#ff3705" stroke="none" /><path d="M 116.35404254752997 86.82634096563983 l 8.670465248837312 -6.9843130544321 a32.13362458831831,32.13362458831831 0 0,0 0.34235097740802906,0.43254927623097594 l -8.789082656886901 6.8344438342864455" fill="#ff6309" stroke="none" /><path d="M 117.21940702142032 87.97951657250589 l 8.996742273347547 -6.280424829013054 a31.97201474506494,31.97201474506494 0 0,0 0.3102964161779045,0.4527317445243117 l -9.103228426340777 6.125058349418693" fill="#ff6008" stroke="none" /><line stroke="#e1ed5e" stroke-width="0.3" x1="172.87174338648825" x2="177.1583165268699" y1="56.24261187166439" y2="53.66864786411523" /><path d="M 173.72905801456457 55.72781907015455 a86.0,86.0 0 0,1 12.242430191666344,42.057860355516425" fill="none" id="id63" stroke="none" /><text fill="#e1ed5e" style="font-size:6.75px; font-family:Arial;" text-anchor="middle"><textPath startOffset="22.145653131862474" xlink:href="#id63">March</textPath></text><path d="M 118.00360718960297 89.18935116829356 l 6.933694773379625 -4.163484490182244 a29.08768980057841,29.08768980057841 0 0,0 0.2533763417198098,0.4302884215994817 l -7.004144825229203 4.043844900289206" fill="#ff3605" stroke="none" /><path d="M 118.70294669586156 90.45014215332178 l 14.47396469772961 -7.39050950574232 a37.25162406732295,37.25162406732295 0 0,0 0.2859152381035648,0.5720220032321616 l -14.59869984904491 7.1409556463464074" fill="#ffab0f" stroke="none" /><path d="M 119.0197475246899 91.09779779509293 l 7.6485302455113615 -3.579898351831557 a29.444861581218984,29.444861581218984 0 0,0 0.21034222225597632,0.4596357163565304 l -7.708856932622389 3.448073653260342" fill="#ff3b05" stroke="none" /><path d="M 119.31412917781788 91.75594674310238 l 10.257020240997836 -4.378112020757256 a32.15232393228149,32.15232393228149 0 0,0 0.21231887464278834,0.5094880071703075 l -10.330664960177106 4.20139150414567" fill="#ff6309" stroke="none" /><path d="M 119.94978838288452 93.4421083053983 l 8.061338489690653 -2.6499220800893277 a29.48570947392809,29.48570947392809 0 0,0 0.15393686374682508,0.48220503318695945 l -8.105640069214736 2.5111480132109816" fill="#ff3c05" stroke="none" /><path d="M 120.05942366710727 93.78553927170692 l 8.166982074954433 -2.530151923392567 a29.549927775605717,29.549927775605717 0 0,0 0.14595367869108816,0.4858323275012701 l -8.209212073649148 2.389581992300573" fill="#ff3d05" stroke="none" /><path d="M 120.26092885502905 94.47779374421319 l 15.333368107819432 -4.179177662245488 a36.89269339861893,36.89269339861893 0 0,0 0.16129225406852876,0.612452960235977 l -15.402849842692692 3.915344197636712" fill="#ffa60f" stroke="none" /><path d="M 120.43855184770803 95.1765574152323 l 10.030537374090093 -2.367179508547994 a31.306076791811115,31.306076791811115 0 0,0 0.11894689977276876,0.5241019875747175 l -10.069695135420528 2.19464318703425" fill="#ff5708" stroke="none" /><path d="M 120.592083275326 95.88100663000786 l 14.708545076585985 -2.9421209521467917 a35.99991246531202,35.99991246531202 0 0,0 0.11601178828787914,0.6070226982377235 l -14.75688315715602 2.6891956888757536" fill="#ff9a0e" stroke="none" /><path d="M 120.65975698304385 96.23510406497455 l 22.439351560039107 -4.089197348368391 a43.80890250294679,43.80890250294679 0 0,0 0.12847520267185195,0.7410108280547232 l -22.50624158020319 3.7033934873930754" fill="#fbff18" stroke="none" /><path d="M 120.77682067341334 96.94652285012252 l 18.257363730794566 -2.6832037415772945 a39.45347969130341,39.45347969130341 0 0,0 0.09272597922587542,0.6709189942835677 l -18.300734226575656 2.369396439093641" fill="#ffc912" stroke="none" /><path d="M 120.86939407059847 97.66154086499901 l 10.075470575320168 -1.1289774933851449 a31.138525410271097,31.138525410271097 0 0,0 0.05496336374321891,0.5317206854714878 l -10.093366331545052 0.9558522856307257" fill="#ff5407" stroke="none" /><path d="M 120.93736805541906 98.37931529534042 l 17.849268651227604 -1.3816462802695506 a38.90266286973754,38.90266286973754 0 0,0 0.04582370378705569,0.6662665961432442 l -17.870356316179727 1.0750362599719723" fill="#ffc212" stroke="none" /><path d="M 120.96210409425399 98.7389718711861 l 27.874810856445574 -1.6768794018621738 a48.9252037559443,48.9252037559443 0 0,0 0.04323685796303081,0.8387834936633652 l -27.89948930386518 1.1981241148220778" fill="#bcff1f" stroke="none" /><path d="M 120.99303781780057 99.45929381324524 l 8.183106252670973 -0.21076778959255635 a29.185820117962066,29.185820117962066 0 0,0 0.008600878292811304,0.500958041499595 l -8.18551856256245 0.07026283212389502" fill="#ff3705" stroke="none" /><line stroke="#e1ed5e" stroke-width="0.3" x1="184.99686870605535" x2="189.99668451229388" y1="99.2704041080226" y2="99.22748670261217" /><path d="M 185.99683186730306 99.26182062694052 a86.0,86.0 0 0,1 -10.086455211305974,41.156179273409016" fill="none" id="id64" stroke="none" /><text fill="#e1ed5e" style="font-size:6.75px; font-family:Arial;" text-anchor="middle"><textPath startOffset="21.40746469413373" xlink:href="#id64">April</textPath></text><path d="M 120.99922638620191 100.18025310272382 l 10.089538110045801 0.08660654997181438 a31.08990980973391,31.08990980973391 0 0,0 -0.009162001592798565,0.5336406606267629 l -10.086564676854334 -0.2597941265676483" fill="#ff5407" stroke="none" /><path d="M 120.98066250479742 100.90099992219065 l 16.628764996413167 0.7141107181181183 a37.64409142679969,37.64409142679969 0 0,0 -0.033267357296802934,0.6453778441120515 l -16.61405604965979 -0.9994603556069004" fill="#ffb110" stroke="none" /><path d="M 120.96210409425399 101.26102812881392 l 21.03868265148331 1.265634904655496 a42.076716998188004,42.076716998188004 0 0,0 -0.04956244312922393,0.7206270456378585 l -21.013856247189022 -1.626605374447698" fill="#ffec16" stroke="none" /><path d="M 120.9064616781168 101.97986365728391 l 29.38103133619936 2.7824142148811832 a50.51248602273115,50.51248602273115 0 0,0 -0.08916080984123462,0.8625499550475252 l -29.32893813387646 -3.28636869221164" fill="#a9ff21" stroke="none" /><path d="M 120.82617615685814 102.69636545807757 l 9.137747971331232 1.1830644189765165 a30.21401537913934,30.21401537913934 0 0,0 -0.07101082551646362,0.513798959433957 l -9.116092629259558 -1.3397516866105585" fill="#ff4706" stroke="none" /><path d="M 120.7213421655516 103.40968896794604 l 10.07811683057132 1.6583502892972737 a31.213645996051422,31.213645996051422 0 0,0 -0.09153800406664839,0.5279668821784694 l -10.048164009012437 -1.831110204396331" fill="#ff5507" stroke="none" /><path d="M 120.65975698304385 103.76489593502545 l 29.159788186543036 5.313884771240148 a50.640017180259406,50.640017180259406 0 0,0 -0.1631903676896814,0.8538809614380353 l -29.064271526571194 -5.813668297711497" fill="#a7ff21" stroke="none" /><path d="M 120.51834098615036 104.47187691870673 l 27.84069344155528 6.067749555683711 a49.49424145291745,49.49424145291745 0 0,0 -0.18805251825643962,0.8285940934560971 l -27.732430061741177 -6.544777983078825" fill="#b5ff20" stroke="none" /><path d="M 120.35273937422433 105.17358676015961 l 9.74624176583228 2.47745654449261 a31.056193091220095,31.056193091220095 0 0,0 -0.135775486282546,0.5155616367410468 l -9.702276798745004 -2.64439868560646" fill="#ff5307" stroke="none" /><path d="M 120.16314734710363 105.8691983318838 l 11.732711717042617 3.415221386458386 a33.21966699029691,33.21966699029691 0 0,0 -0.1640793384994068,0.5461667539518119 l -11.672356058539581 -3.6161257440009216" fill="#ff730a" stroke="none" /><path d="M 120.05942366710727 106.21446072829308 l 26.05966230137717 8.07334999509694 a48.2815868197792,48.2815868197792 0 0,0 -0.25206502351007803,0.7895900960204825 l -25.917232562089836 -8.519509124808806" fill="#c3ff1e" stroke="none" /><path d="M 119.83427380445688 106.89939002012753 l 17.058007303773863 5.9336604160659645 a39.060563089471785,39.060563089471785 0 0,0 -0.22573253783457728,0.6314140834739671 l -16.953634595895345 -6.225609455920853" fill="#ffc412" stroke="none" /><path d="M 119.58574465831526 107.57618678355244 l 11.007613640443363 4.257981426597043 a32.802455841328964,32.802455841328964 0 0,0 -0.20765723542435544,0.5234318850155388 l -10.932897730052883 -4.446314328826146" fill="#ff6c0a" stroke="none" /><path d="M 119.31412917781788 108.2440532568976 l 12.300008341281872 5.250142157186762 a34.37363816866126,34.37363816866126 0 0,0 -0.23630422396967066,0.5407103089004565 l -12.208070235295235 -5.460514535863063" fill="#ff830c" stroke="none" /><path d="M 119.16976305983485 108.57439118712176 l 28.41324747812573 12.708884195048043 a52.12600793125196,52.12600793125196 0 0,0 -0.3723671892750645,0.8136895101442336 l -28.190895823995607 -13.194762687406966" fill="#96ff23" stroke="none" /><path d="M 118.8641267826498 109.22738970284198 l 27.236517274669197 13.32274543832647 a51.320346621828094,51.320346621828094 0 0,0 -0.3938960915481063,0.7880560436273374 l -27.00380126990936 -13.788333338117553" fill="#9fff22" stroke="none" /><path d="M 118.5362547648365 109.86951160357373 l 9.396859862520726 5.003298596555653 a31.64584295028575,31.64584295028575 0 0,0 -0.2594275728206826,0.47731751405356243 l -9.309586940084705 -5.163870944083818" fill="#ff5c08" stroke="none" /><line stroke="#e1ed5e" stroke-width="0.3" x1="174.33088141563837" x2="178.70328620479359" y1="141.23008692659167" y2="143.65538615756765" /><path d="M 175.20536237346943 141.71514677278685 a86.0,86.0 0 0,1 -30.301960400862466,31.631185727798858" fill="none" id="id65" stroke="none" /><text fill="#e1ed5e" style="font-size:6.75px; font-family:Arial;" text-anchor="middle"><textPath startOffset="22.145653131862474" xlink:href="#id65">May</textPath></text><path d="M 118.18653347947321 110.5 l 11.167698846224566 6.4476739350964225 a33.89534787019285,33.89534787019285 0 0,0 -0.29525477284549223,0.501407153150435 l -11.055370363249308 -6.638432256540407" fill="#ff7c0b" stroke="none" /><path d="M 118.00360718960297 110.81064883170644 l 12.95949482151216 7.781804283787849 a36.1163813110142,36.1163813110142 0 0,0 -0.32372666527033256,0.5287831787156941 l -12.824000191786423 -8.0031245786281" fill="#ff9c0e" stroke="none" /><path d="M 117.62189284568427 111.42229804090321 l 15.699722993885846 10.176370765964789 a39.709351246131725,39.709351246131725 0 0,0 -0.3756798875675791,0.5688272320446811 l -15.522718667397541 -10.44437787634853" fill="#ffcd13" stroke="none" /><path d="M 117.21940702142032 112.02048342749411 l 6.457535398951978 4.507861225941114 a28.875314359507257,28.875314359507257 0 0,0 -0.28721986642390884,0.40401071165453833 l -6.3792004339981085 -4.618049164305156" fill="#ff3304" stroke="none" /><path d="M 116.79662413953412 112.60449989151573 l 6.100093537596672 4.5776239138375905 a28.626649452018,28.626649452018 0 0,0 -0.2983278870259821,0.39052078057084083 l -6.020613673216386 -4.681665607649308" fill="#ff2f04" stroke="none" /><path d="M 116.57777611688842 112.89097897827486 l 12.198410774754404 9.485557999876983 a36.45241197996852,36.45241197996852 0 0,0 -0.38836324971441216,0.49068427918774216 l -12.03378109439843 -9.69356222297941" fill="#ffa00e" stroke="none" /><path d="M 116.1254893667686 113.45245675266167 l 8.402477498311434 7.009645573559323 a31.94242930872984,31.94242930872984 0 0,0 -0.35487344821506445,0.4180400296807526 l -8.280909486589255 -7.1528523856896316" fill="#ff6008" stroke="none" /><path d="M 115.6541949942343 113.99807769240083 l 8.821337264289168 7.888094176792273 a32.83376613222861,32.83376613222861 0 0,0 -0.3793117692237466,0.4169300800186899 l -8.684627794223543 -8.038361832368635" fill="#ff6d0a" stroke="none" /><path d="M 115.41159269507618 114.26474011684316 l 7.835321103265231 7.252256238630294 a31.67649180873687,31.67649180873687 0 0,0 -0.37279334086811733,0.3958936092476749 l -7.709671928660853 -7.385691307822466" fill="#ff5c08" stroke="none" /><path d="M 115.16444852881244 114.52719865689866 l 11.831821236566492 11.334617098006287 a37.38491802031619,37.38491802031619 0 0,0 -0.4479304196098377,0.45961607103588425 l -11.635504015805848 -11.536055861109908" fill="#ffad10" stroke="none" /><path d="M 114.91283532996324 114.78537596483092 l 20.719075105719437 20.541990057794447 a50.176247681478316,50.176247681478316 0 0,0 -0.6116916582865984,0.6064635558703314 l -20.363391527302873 -20.89463362389344" fill="#adff20" stroke="none" /><path d="M 114.39649973595853 115.28858382429668 l 7.173582675738613 7.618096208803918 a31.464018265095383,31.464018265095383 0 0,0 -0.3964020241798951,0.3669037956423111 l -7.041750880244751 -7.740117750578609" fill="#ff5908" stroke="none" /><path d="M 114.13192950727249 115.5334660781643 l 7.30514479635059 8.029633804201676 a31.85542074381396,31.85542074381396 0 0,0 -0.4076507447199455,0.3645238096278084 l -7.166229024807267 -8.15385314371287" fill="#ff5f08" stroke="none" /><path d="M 113.86319453409587 115.77377054828091 l 8.992603951411528 10.231932547167471 a34.62201781957164,34.62201781957164 0 0,0 -0.44979032919977235,0.3885181735758647 l -8.8156341424489 -10.384794853208053" fill="#ff870c" stroke="none" /><path d="M 113.31354834802062 116.24036423190432 l 10.683470911263438 13.032097403669885 a37.85147214490625,37.85147214490625 0 0,0 -0.5060367450286689,0.4076273813334289 l -10.458183395879516 -13.213573078796717" fill="#ffb410" stroke="none" /><path d="M 112.45986205192187 116.90419585922612 l 6.011055713434166 8.155151531949596 a31.131104939692875,31.131104939692875 0 0,0 -0.432898752877671,0.31338531288356497 l -5.870175950182527 -8.257137616206238" fill="#ff5407" stroke="none" /><path d="M 112.16784306229584 117.11559508785304 l 7.360033756381397 10.352809200629647 a33.7023917133631,33.7023917133631 0 0,0 -0.47440916331690375,0.33117444046757005 l -7.181229501890735 -10.477628456902337" fill="#ff790b" stroke="none" /><path d="M 111.8722381534696 117.32195027204791 l 8.542403281670982 12.463621680772963 a36.11008005366408,36.11008005366408 0 0,0 -0.5143170943412041,0.3460554943153973 l -8.327189899232774 -12.608426849145483" fill="#ff9b0e" stroke="none" /><path d="M 111.27062007382361 117.71928675628689 l 10.076015897235058 15.84117057220996 a39.77415195046595,39.77415195046595 0 0,0 -0.5792553530200483,0.361498181825185 l -9.802596415425295 -16.011804550876693" fill="#ffce13" stroke="none" /><path d="M 110.96478420261333 117.91015095944535 l 4.118631934246653 6.72747573738559 a28.888096019123253,28.888096019123253 0 0,0 -0.42516020023497686,0.25529648439634295 l -4.00253897745424 -6.7971862223178565" fill="#ff3304" stroke="none" /><line stroke="#e1ed5e" stroke-width="0.3" x1="143.1302829299769" x2="145.66735839644613" y1="173.24464959558577" y2="177.55315839532614" /><path d="M 143.63769802327073 174.10635135553383 a86.0,86.0 0 0,1 -40.68552437913181,11.842963189579606" fill="none" id="id66" stroke="none" /><text fill="#e1ed5e" style="font-size:6.75px; font-family:Arial;" text-anchor="middle"><textPath startOffset="21.407464694133747" xlink:href="#id66">June</textPath></text><path d="M 110.34350942703117 118.27599006163325 l 3.8465514831830863 6.796487901340118 a28.80949461270322,28.80949461270322 0 0,0 -0.4324933625209703,0.23989677765561734 l -3.729313932506021 -6.861517594428879" fill="#ff3204" stroke="none" /><path d="M 109.71004243097381 118.62028667847754 l 4.428473112322554 8.492181108945564 a30.57750040948554,30.57750040948554 0 0,0 -0.46750490521559984,0.23871133570741657 l -4.282040985393372 -8.566950396325817" fill="#ff4c07" stroke="none" /><path d="M 109.06512990194946 118.94263497670748 l 5.271417350369024 11.015234834798031 a33.21160265270368,33.21160265270368 0 0,0 -0.5163791950725131,0.24169153680801145 l -5.081549441425005 -11.104102603176576" fill="#ff720a" stroke="none" /><path d="M 108.73861861582097 119.09545874513695 l 12.643349228591577 27.62799982571935 a51.38355894371289,51.38355894371289 0 0,0 -0.8052209791406567,0.3601651019722454 l -12.167214846595293 -27.840968678601445" fill="#9eff22" stroke="none" /><path d="M 108.07796709384702 119.3841803445677 l 10.558395960161953 25.336306655300433 a48.44828155245762,48.44828155245762 0 0,0 -0.7704327374967945,0.31332828722181816 l -10.121908761474717 -25.513822199101543" fill="#c1ff1e" stroke="none" /><path d="M 107.74402155503746 119.51999308798841 l 4.159362835883476 10.48431144333101 a32.27923249344964,32.27923249344964 0 0,0 -0.5168177766532344,0.1999162185198217 l -3.9787727967367124 -10.554167549988872" fill="#ff6509" stroke="none" /><path d="M 107.407793817531 119.65005319985036 l 11.47232695737559 30.431710248874584 a53.522350383826584,53.522350383826584 0 0,0 -0.8625020951836102,0.316722716250278 l -10.948235710537851 -30.624163814133585" fill="#86ff25" stroke="none" /><path d="M 106.72888874123015 119.89276391827305 l 6.676512867984309 19.73792395560452 a41.83654160732022,41.83654160732022 0 0,0 -0.6822887731410329,0.22428187170848554 l -6.336701357195542 -19.84962674871502" fill="#ffe915" stroke="none" /><path d="M 106.0420521117495 120.11202640906438 l 2.7244023356677567 9.068649311599696 a30.469042634995873,30.469042634995873 0 0,0 -0.5022168590677032,0.1461880082876785 l -2.5683254642184465 -9.114081014189894" fill="#ff4a06" stroke="none" /><path d="M 105.69591212413111 120.21278271476187 l 7.860699092643532 27.894847968703008 a49.981254862792625,49.981254862792625 0 0,0 -0.8278290498048804,0.22562848871659227 l -7.380688641903957 -28.025676951563742" fill="#afff20" stroke="none" /><path d="M 104.9986988182912 120.39639698878246 l 3.223960472063113 13.15485890522621 a34.54415866496826,34.54415866496826 0 0,0 -0.5771635500783479,0.1362090262836209 l -2.997664768244886 -13.208264075156055" fill="#ff850c" stroke="none" /><path d="M 104.64783097203109 120.47920084513623 l 1.612671683067641 7.10572899349087 a28.286432219289836,28.286432219289836 0 0,0 -0.4744545013042507,0.10340515028925135 l -1.4904547651442546 -7.132365601913841" fill="#ff2a04" stroke="none" /><path d="M 104.29559338865022 120.5559693870025 l 6.134554252025199 29.356062829578107 a50.990184739764075,50.990184739764075 0 0,0 -0.8583433099491562,0.17169270129623196 l -5.629714456545084 -29.4570449275372" fill="#a3ff22" stroke="none" /><path d="M 103.94208987418118 120.62667999033965 l 1.5258932036255943 7.984118022463124 a29.12862169531165,29.12862169531165 0 0,0 -0.49194811308848396,0.08964933385859479 l -1.388610356986053 -8.009135530253083" fill="#ff3605" stroke="none" /><path d="M 103.2317021107853 120.74984581791261 l 6.4859797330870235 41.64464261433986 a63.1466984658835,63.1466984658835 0 0,0 -1.072516286025825,0.15762295991908198 l -5.770138341453513 -41.74984664755782" fill="#32ff44" stroke="none" /><path d="M 102.875027216393 120.80226474461374 l 1.0008871395485128 7.241920750402144 a28.310758594100804,28.310758594100804 0 0,0 -0.4819868607851128,0.06240284884175639 l -0.8764224568726245 -7.258035195444296" fill="#ff2a04" stroke="none" /><path d="M 102.51750503828377 120.84855314841334 l 2.88788063586316 23.91579441052952 a45.089522138342815,45.089522138342815 0 0,0 -0.7692360474354376,0.08619450358799398 l -2.476908686826923 -23.961844674624487" fill="#ebff1a" stroke="none" /><path d="M 101.80034050326958 120.92268563240118 l 2.1341758675278157 24.80235859796981 a45.89400929251504,45.89400929251504 0 0,0 -0.785510947323969,0.06080351524131078 l -1.708095925428611 -24.835339880206174" fill="#e1ff1b" stroke="none" /><path d="M 101.44090949804482 120.95050786540614 l 0.9984033793231688 14.516566015936924 a35.55085901941527,35.55085901941527 0 0,0 -0.609198924032337,0.03664789449540759 l -0.7490601031583666 -14.531565888257022" fill="#ff940d" stroke="none" /><path d="M 100.72087961077811 120.9876233191556 l 0.8079872386895893 23.52366686303938 a44.5375390825197,44.5375390825197 0 0,0 -0.764320767114,0.019686191728445754 l -0.40405315750484555 -23.53407077211787" fill="#f2ff19" stroke="none" /><line stroke="#e1ed5e" stroke-width="0.3" x1="101.45913802915013" x2="101.54496967792366" y1="184.9874750549273" y2="189.98673829345242" /><path d="M 101.47630435890484 185.9873277026323 a86.0,86.0 0 0,1 -42.54439059252881,-10.42667462771756" fill="none" id="id67" stroke="none" /><text fill="#e1ed5e" style="font-size:6.75px; font-family:Arial;" text-anchor="middle"><textPath startOffset="22.145653131862474" xlink:href="#id67">July</textPath></text><path d="M 100.0 121.0 l 2.3155768669046737e-15 18.90812002707122 a39.90812002707122,39.90812002707122 0 0,0 -0.6850759482751408,-0.0058805530740505185 l 0.32458302342628637 -18.905333872191605" fill="#ffcf13" stroke="none" /><path d="M 99.27912038922189 120.98762331915562 l -1.044022640592849 30.395580052239126 a51.413504730401385,51.413504730401385 0 0,0 -0.8818009505294047,-0.037868326971705786 l 1.5656493517230923 -30.37317915684159" fill="#9eff22" stroke="none" /><path d="M 98.55909050195518 120.95050786540614 l -0.5328337060426948 7.747285144936797 a28.765586833926562,28.765586833926562 0 0,0 -0.4923449424570694,-0.03811061235321533 l 0.6657476432750004 -7.736996765588529" fill="#ff3104" stroke="none" /><path d="M 98.19965949673042 120.92268563240118 l -2.666899740218953 30.99341750985325 a52.10794565966158,52.10794565966158 0 0,0 -0.890550688017259,-0.08433607605729426 l 3.1985499916212277 -30.94306967829077" fill="#96ff23" stroke="none" /><path d="M 97.84075906011543 120.88869738790638 l -0.9136399367677202 8.838637600890927 a29.885733091531606,29.885733091531606 0 0,0 -0.5098564390969871,-0.057130477459580525 l 1.0652322774655065 -8.821651362924374" fill="#ff4206" stroke="none" /><path d="M 97.12497278360702 120.80226474461374 l -4.050842329212495 29.30987716933251 a50.58848125973178,50.58848125973178 0 0,0 -0.8592210100372593,-0.12627589957498767 l 4.553388444857439 -29.23602019645864" fill="#a8ff21" stroke="none" /><path d="M 96.76829788921471 120.74984581791261 l -2.063998395983178 13.25235031475811 a34.412116844245375,34.412116844245375 0 0,0 -0.5829125775745093,-0.09591804281563308 l 2.291188476610751 -13.214966273446809" fill="#ff840c" stroke="none" /><path d="M 96.41257539226777 120.69131181640829 l -3.4247225260320984 19.75288944555762 a41.04757755512454,41.04757755512454 0 0,0 -0.6932452395558043,-0.12633237586102744 l 3.76330249913896 -19.691188895765226" fill="#ffdf14" stroke="none" /><path d="M 95.70440661134978 120.55596938700252 l -4.918013710884881 23.534475947588422 a45.04284544283537,45.04284544283537 0 0,0 -0.7555134774943845,-0.16466064600736868 l 5.321289604998403 -23.446583843447335" fill="#ecff1a" stroke="none" /><path d="M 95.35216902796893 120.47920084513623 l -1.7631311852376892 7.768681321693365 a28.966243848538973,28.966243848538973 0 0,0 -0.4839677901610519,-0.11421508070203658 l 1.896231129138629 -7.737270097345101" fill="#ff3404" stroke="none" /><path d="M 95.00130118170881 120.39639698878247 l -8.379022193383353 34.18926989733874 a56.201053805678654,56.201053805678654 0 0,0 -0.935064319755229,-0.2376896935412028 l 8.96469180636396 -34.04039497196227" fill="#68ff28" stroke="none" /><path d="M 94.30408787586889 120.21278271476187 l -8.23478924201207 29.22236193663881 a51.36047086288805,51.36047086288805 0 0,0 -0.8465672737407103,-0.2464233953822796 l 8.735216528134387 -29.076694846954013" fill="#9fff22" stroke="none" /><path d="M 93.95794788825049 120.11202640906438 l -2.224071342601781 7.403210159519516 a28.730072056778997,28.730072056778997 0 0,0 -0.47111759195356084,-0.1459534342656204 l 2.3508295674269752 -7.363940137447247" fill="#ff3004" stroke="none" /><path d="M 93.27111125876986 119.89276391827306 l -7.590215801952634 22.439124325510292 a44.68809144730574,44.68809144730574 0 0,0 -0.7245731998158015,-0.25204417126366946 l 7.974294773813457 -22.305521721678033" fill="#f0ff19" stroke="none" /><path d="M 92.93061703081489 119.77432235084164 l -1.8506121624930545 5.176491584490305 a26.497347587725027,26.497347587725027 0 0,0 -0.4269995179084626,-0.15680013753559247 l 1.939200832055636 -5.143960597945994" fill="#ff0e01" stroke="none" /><path d="M 92.59220618246901 119.65005319985036 l -12.286494970729871 32.59138763327574 a55.830396301624376,55.830396301624376 0 0,0 -0.8938918015516597,-0.34577655182318057 l 12.844159034775059 -32.37567119331452" fill="#6cff28" stroke="none" /><path d="M 91.92203290615298 119.3841803445677 l -4.137985276663125 9.929658283344688 a31.75737122971391,31.75737122971391 0 0,0 -0.5014109716459431,-0.21402252805626804 l 4.307831323479499 -9.857161105629016" fill="#ff5d08" stroke="none" /><path d="M 91.59046798132341 119.24265499422711 l -7.256151408174572 16.60349444217369 a39.11981680232023,39.11981680232023 0 0,0 -0.6130384472565007,-0.27420429992357953 l 7.540103258286709 -16.47648639134026" fill="#ffc512" stroke="none" /><path d="M 90.93487009805054 118.94263497670748 l -4.779183223579086 9.986654826820981 a32.07130827475265,32.07130827475265 0 0,0 -0.4945697370254871,-0.24191884158473942 l 4.949913209866643 -9.90314223513902" fill="#ff6209" stroke="none" /><path d="M 90.6110303473126 118.78422872680471 l -3.689648031805281 7.381767660842048 a29.252514549957368,29.252514549957368 0 0,0 -0.44724695801993664,-0.22836748352572245 l 3.8158222115388 -7.317342225643489" fill="#ff3805" stroke="none" /><path d="M 90.28995756902619 118.62028667847754 l -17.7368535004693 34.012755278946216 a59.35965971906677,59.35965971906677 0 0,0 -0.8994717911290933,-0.47891806582612845 l 18.318114107384957 -33.703266745397514" fill="#46ff2d" stroke="none" /><line stroke="#e1ed5e" stroke-width="0.3" x1="58.13341422392154" x2="55.67067388415222" y1="173.97424548756322" y2="178.32567169271397" /><path d="M 57.64086615596768 174.84453072859336 a86.0,86.0 0 0,1 -31.369924170532247,-30.572349798747897" fill="none" id="id68" stroke="none" /><text fill="#e1ed5e" style="font-size:6.75px; font-family:Arial;" text-anchor="middle"><textPath startOffset="22.145653131862474" xlink:href="#id68">August</textPath></text><path d="M 89.03521579738668 117.91015095944536 l -6.940533630653164 11.336840084320007 a34.29266527735023,34.29266527735023 0 0,0 -0.49942510291529435,-0.31167820154004655 l 7.13412286235817 -11.216026085938413" fill="#ff820c" stroke="none" /><path d="M 88.72937992617639 117.7192867562869 l -17.794328172259462 27.975639446142036 a54.15530903976926,54.15530903976926 0 0,0 -0.7801313844805736,-0.505671738140319 l 18.271945188997048 -27.666053866297823" fill="#7eff26" stroke="none" /><path d="M 88.1277618465304 117.32195027204791 l -21.00549607122245 30.647646524769073 a58.15520290222261,58.15520290222261 0 0,0 -0.8186173072229851,-0.5714584574656306 l 21.5285084696192 -30.282543251498314" fill="#52ff2b" stroke="none" /><path d="M 87.54013794807813 116.9041958592261 l -15.348681566917246 20.823434345169385 a46.86885083976877,46.86885083976877 0 0,0 -0.6435472882302116,-0.4829298826536647 l 15.703881844058225 -20.556885435251708" fill="#d5ff1c" stroke="none" /><path d="M 87.2517909369889 116.68781488649013 l -6.998367540634409 9.161087761306542 a32.52834234416058,32.52834234416058 0 0,0 -0.4408210832689955,-0.3427851406324552 l 7.154598568538633 -9.039601569053293" fill="#ff6909" stroke="none" /><path d="M 86.68645165197938 116.24036423190432 l -17.344537672840676 21.157515778488737 a48.358243017445204,48.358243017445204 0 0,0 -0.6374668010507273,-0.5317974777289451 l 17.705178808053297 -20.856656116847923" fill="#c2ff1e" stroke="none" /><path d="M 86.13680546590413 115.77377054828092 l -11.560217536613212 13.153405476802149 a38.511444975529244,38.511444975529244 0 0,0 -0.4928272444043847,-0.4406891608699921 l 11.784309807840968 -12.953020786048775" fill="#ffbd11" stroke="none" /><path d="M 85.60350026404147 115.28858382429668 l -14.845950966594783 15.76588545598099 a42.65560907279335,42.65560907279335 0 0,0 -0.528782317801011,-0.5065614989134191 l 15.114405770261108 -15.50871182676199" fill="#fff417" stroke="none" /><path d="M 85.34317274990678 115.03919595460226 l -12.111365814089186 12.427328278348911 a38.35291531762138,38.35291531762138 0 0,0 -0.46755505751820947,-0.46355888445808335 l 12.322912791737359 -12.217589383662169" fill="#ffba11" stroke="none" /><path d="M 85.08716467003676 114.78537596483092 l -4.961448822560364 4.919043531878352 a27.986627490241617,27.986627490241617 0 0,0 -0.3353240413247803,-0.3440720068349351 l 5.045159665035953 -4.83314883297568" fill="#ff2503" stroke="none" /><path d="M 84.58840730492382 114.26474011684316 l -28.088695323132647 25.99847705121915 a59.27395477264589,59.27395477264589 0 0,0 -0.6847617956208725,-0.7526731659980251 l 28.5308548195954 -25.512466309663452" fill="#46ff2c" stroke="none" /><path d="M 84.3458050057657 113.99807769240083 l -5.387018088632475 4.817104792857118 a28.226649463798594,28.226649463798594 0 0,0 -0.319887155900152,-0.36397286253909084 l 5.468916308491219 -4.723919652506727" fill="#ff2904" stroke="none" /><path d="M 83.8745106332314 113.45245675266167 l -17.67096796508879 14.741749966231469 a44.01265523337278,44.01265523337278 0 0,0 -0.479011064159091,-0.5843156121645293 l 17.92142584848651 -14.436232072368444" fill="#f9ff18" stroke="none" /><path d="M 83.64595745247003 113.17365903436017 l -8.640222061834823 6.9599512837857755 a32.094789729890714,32.094789729890714 0 0,0 -0.3419372316227142,-0.43202652194724006 l 8.758425724099098 -6.8106048179238545" fill="#ff6209" stroke="none" /><path d="M 83.20337586046588 112.60449989151573 l -19.18846075446238 14.399378678046869 a44.99039667115435,44.99039667115435 0 0,0 -0.45825499933725117,-0.6217109170218758 l 19.432817773383462 -14.067861451756112" fill="#ecff1a" stroke="none" /><path d="M 82.98947788004972 112.3143062007846 l -10.808008521157678 7.8241646794680415 a34.34281084048081,34.34281084048081 0 0,0 -0.3416045075532397,-0.48050952017814197 l 10.940728127240877 -7.637477932580396" fill="#ff830c" stroke="none" /><path d="M 82.37810715431573 111.42229804090323 l -34.84946950574607 22.589005094278956 a62.53009361873972,62.53009361873972 0 0,0 -0.5761174693429986,-0.9057523523753838 l 35.23210466671496 -21.9874390672249" fill="#31ff3d" stroke="none" /><path d="M 82.18462484594161 111.11811171558189 l -11.2055779486858 6.993109400941749 a34.2086545968018,34.2086545968018 0 0,0 -0.30662688990466574,-0.5008519807538862 l 11.323972803045871 -6.799720304063306" fill="#ff810b" stroke="none" /><line stroke="#e1ed5e" stroke-width="0.3" x1="26.387840678322732" x2="22.057713659400548" y1="142.50000000000003" y2="145.00000000000006" /><path d="M 25.521815274538298 143.00000000000003 a86.0,86.0 0 0,1 -11.493303480769221,-40.785679425670985" fill="none" id="id69" stroke="none" /><text fill="#e1ed5e" style="font-size:6.75px; font-family:Arial;" text-anchor="middle"><textPath startOffset="21.40746469413373" xlink:href="#id69">September</textPath></text><path d="M 81.81346652052679 110.50000000000001 l -28.876086345544195 16.671616224742838 a54.34323244948565,54.34323244948565 0 0,0 -0.4595021390436289,-0.8118962510455168 l 29.158021849609202 -16.1734632035982" fill="#7cff26" stroke="none" /><path d="M 81.63589988554817 110.18625677009913 l -9.77915865006903 5.424334456048167 a32.18281486005609,32.18281486005609 0 0,0 -0.2638295828870253,-0.4854167167669049 l 9.870833582571386 -5.255662905806676" fill="#ff6409" stroke="none" /><path d="M 81.4637452351635 109.86951160357371 l -20.065047533444574 10.683507643262379 a43.731992171453776,43.731992171453776 0 0,0 -0.34713191536343013,-0.6656712187680794 l 20.24548751778295 -10.337490181389796" fill="#fcff18" stroke="none" /><path d="M 81.1358732173502 109.22738970284198 l -19.40594536059937 9.492420320192286 a42.603165482719604,42.603165482719604 0 0,0 -0.3157112488417852,-0.659715085115804 l 19.56603586740107 -9.157892733011378" fill="#fff316" stroke="none" /><path d="M 80.9802524753101 108.90220220490708 l -4.130372573741025 1.9332229192482178 a25.560408803322204,25.560408803322204 0 0,0 -0.18259325738828172,-0.3989992202297942 l 4.162950295984363 -1.8620347168037348" fill="#ff0000" stroke="none" /><path d="M 80.68587082218212 108.24405325689762 l -21.779916029226275 9.296551039014314 a44.681017787695396,44.681017787695396 0 0,0 -0.2950524955694727,-0.7080185792771843 l 21.936294369332234 -8.921299950295849" fill="#f0ff19" stroke="none" /><path d="M 80.5471966667186 107.91128576633889 l -11.387994292168244 4.631398138726868 a33.29374892853515,33.29374892853515 0 0,0 -0.21076738561450659,-0.5312714951951942 l 11.465820352748874 -4.4352256263181085" fill="#ff740a" stroke="none" /><path d="M 80.28708602549918 107.23885506374661 l -15.641726120436674 5.743858491906586 a37.662998121640605,37.662998121640605 0 0,0 -0.21765595465131377,-0.6088224428660953 l 15.738022245131932 -5.47450109265957" fill="#ffb110" stroke="none" /><path d="M 80.16572619554312 106.89939002012753 l -23.680788434619252 8.237407479867011 a46.072587079808216,46.072587079808216 0 0,0 -0.2534312130283068,-0.7492243495427562 l 23.818705069219924 -7.829681455850094" fill="#dfff1b" stroke="none" /><path d="M 80.05021161711548 106.5578916946017 l -13.668063425926908 4.49296393033795 a35.387587799713984,35.387587799713984 0 0,0 -0.1847489641132853,-0.5787234987326901 l 13.743177105817448 -4.257671397913868" fill="#ff910d" stroke="none" /><path d="M 79.73907114497094 105.5222062557868 l -38.49129271403407 10.490972992385792 a60.89536475738027,60.89536475738027 0 0,0 -0.2662302407123939,-1.0109195879881963 l 38.66571243555119 -9.828672900024793" fill="#35ff2f" stroke="none" /><path d="M 79.56144815229197 104.8234425847677 l -12.890236093241187 3.04206061971174 a34.24433159330809,34.24433159330809 0 0,0 -0.13011074830303035,-0.5732919640673431 l 12.940557703101884 -2.8203343217053707" fill="#ff810b" stroke="none" /><path d="M 79.48165901384964 104.47187691870673 l -29.665832704420424 6.465530163216323 a51.362225055784705,51.362225055784705 0 0,0 -0.18036038346512515,-0.8630897260744183 l 29.77245079870992 -5.955323985856496" fill="#9fff22" stroke="none" /><path d="M 79.407916724674 104.11899336999214 l -13.163389479049169 2.633046558033086 a34.424148269216644,34.424148269216644 0 0,0 -0.11093379754317434,-0.5804525049067847 l 13.2066495688745 -2.4066914880929873" fill="#ff840c" stroke="none" /><path d="M 79.2786578344484 103.40968896794605 l -35.19902284636841 5.7919858145708245 a56.67237459176715,56.67237459176715 0 0,0 -0.14971898949201912,-0.9613033136950132 l 35.293263327998694 -5.186894318944361" fill="#62ff29" stroke="none" /><path d="M 79.22317932658666 103.0534771498775 l -15.416628077533662 2.2657134266527423 a36.58222957771813,36.58222957771813 0 0,0 -0.08597779172840388,-0.6220924711577043 l 15.45325038581728 -2.0007326472949525" fill="#ffa20f" stroke="none" /><path d="M 79.17382384314188 102.69636545807758 l -8.54699061858074 1.106579052288732 a29.618327322228566,29.618327322228566 0 0,0 -0.06095439596881859,-0.5047898394084784 l 8.56472710080922 -0.9596955359568543" fill="#ff3e05" stroke="none" /><path d="M 79.0935383218832 101.97986365728391 l -19.417941208274524 1.8388992211809518 a40.50481968934001,40.50481968934001 0 0,0 -0.059612249518034274,-0.6927847005835623 l 19.446647080490298 -1.5052934732217276" fill="#ffd714" stroke="none" /><path d="M 79.06263194458094 101.62068470465958 l -7.907059774923564 0.6120564343201117 a28.930712916441177,28.930712916441177 0 0,0 -0.034077678010638726,-0.49548195925242594 l 7.916401414099268 -0.4762310509133424" fill="#ff3304" stroke="none" /><path d="M 79.03789590574601 101.26102812881392 l -21.295825308555386 1.2811039683634105 a42.33432452528705,42.33432452528705 0 0,0 -0.0374122749818553,-0.7257881398784085 l 21.314679172993813 -0.915344035108271" fill="#fff016" stroke="none" /><path d="M 79.00696218219943 100.54070618675478 l -10.897036190750091 0.28066899782522786 a31.900650110376787,31.900650110376787 0 0,0 -0.009400921678813755,-0.5475565578513096 l 10.900248544027571 -0.09356552400486583" fill="#ff5f08" stroke="none" /><line stroke="#e1ed5e" stroke-width="0.3" x1="15.003131293944662" x2="10.003315487706104" y1="100.72959589197737" y2="100.7725132973878" /><path d="M 14.003168132696942 100.73817937305945 a86.0,86.0 0 0,1 10.791469493833604,-42.45332614584628" fill="none" id="id70" stroke="none" /><text fill="#e1ed5e" style="font-size:6.75px; font-family:Arial;" text-anchor="middle"><textPath startOffset="22.145653131862435" xlink:href="#id70">October</textPath></text><path d="M 79.00077361379809 99.81974689727619 l -31.71202510262571 -0.27220959540489187 a52.71319337710086,52.71319337710086 0 0,0 0.015534247755568263,-0.904792053423606 l 31.702679423271476 0.8165485647975502" fill="#8fff24" stroke="none" /><path d="M 79.00696218219943 99.45929381324524 l -19.98269236685538 -0.5146832718804608 a40.98931947562833,40.98931947562833 0 0,0 0.024155031347475892,-0.7032473822308589 l 19.970912648511057 0.8576369186754583" fill="#ffde14" stroke="none" /><path d="M 79.01933749520258 99.09900007780938 l -13.615845722627181 -0.5847230007079829 a34.62839520009388,34.62839520009388 0 0,0 0.03060228450397482,-0.5936761439110606 l 13.603801848666636 0.8183709379957554" fill="#ff870c" stroke="none" /><path d="M 79.06263194458094 98.37931529534042 l -50.66471247548754 -3.921769171638842 a71.81627065871166,71.81627065871166 0 0,0 0.10569432178186391,-1.2283282322181281 l 50.58992453100793 4.790918451232651" fill="#3dffac" stroke="none" /><path d="M 79.0935383218832 98.0201363427161 l -12.399108907879583 -1.174208504881118 a33.45458418906043,33.45458418906043 0 0,0 0.059051495067106184,-0.571269647576316 l 12.377125020330812 1.3868826747403467" fill="#ff760a" stroke="none" /><path d="M 79.13060592940154 97.66154086499901 l -27.412453647426045 -3.071622608100785 a48.58400769320654,48.58400769320654 0 0,0 0.09998568826879099,-0.8280249311332875 l 27.355685872897585 3.5417412161575084" fill="#c0ff1e" stroke="none" /><path d="M 79.2786578344484 96.59031103205396 l -21.317846624393226 -3.507843549651859 a42.60452617092048,42.60452617092048 0 0,0 0.12494321523300081,-0.7206392630965666 l 21.254488591667993 3.8732758456690184" fill="#fff316" stroke="none" /><path d="M 79.48165901384962 95.52812308129327 l -12.490375078129297 -2.722219113893166 a33.78358112957393,33.78358112957393 0 0,0 0.12836013484883527,-0.5655784381782959 l 12.4418040817228 2.9362318860104697" fill="#ff7b0b" stroke="none" /><path d="M 79.64726062577567 94.8264132398404 l -10.629498491230187 -2.7019769501401947 a31.96753926886764,31.96753926886764 0 0,0 0.1397598275080981,-0.5306908293502781 l 10.581549182917364 2.8840482838632573" fill="#ff6008" stroke="none" /><path d="M 79.73907114497095 94.47779374421319 l -8.126887474437426 -2.215019319821282 a29.423337260809962,29.423337260809962 0 0,0 0.13700277550286355,-0.4861745181823942 l 8.087666206859982 2.3542017619066895" fill="#ff3b05" stroke="none" /><path d="M 79.83685265289637 94.1308016681162 l -60.48944204131091 -17.607594995651397 a84.0,84.0 0 0,0 0.41489471998548133,-1.3810495856371061 l 60.1782710013218 18.643382184879226" fill="#4dd2ff" stroke="none" /><path d="M 80.16572619554312 93.10060997987247 l -8.739421890284104 -3.040024594092329 a30.253066762380094,30.253066762380094 0 0,0 0.1748336684729372,-0.48904088705248827 l 8.685948051767225 3.1896004375257383" fill="#ff4706" stroke="none" /><path d="M 80.28708602549916 92.7611449362534 l -10.108624629106764 -3.7120269828487404 a31.768632049317173,31.768632049317173 0 0,0 0.19238072446964088,-0.5103127278607413 l 10.043413220822686 3.885007990903627" fill="#ff5d08" stroke="none" /><path d="M 80.5471966667186 92.08871423366112 l -13.323237057433543 -5.4184445238131405 a35.38291301323244,35.38291301323244 0 0,0 0.2336521704737739,-0.5606801510510194 l 13.228259042423291 5.646357184305424" fill="#ff910d" stroke="none" /><path d="M 80.68587082218212 91.75594674310238 l -26.475829628562845 -11.300957318287947 a49.78682321532635,49.78682321532635 0 0,0 0.3422633521096998,-0.7831655301612251 l 26.277932394436167 11.75378491822504" fill="#b1ff20" stroke="none" /><path d="M 80.9802524753101 91.09779779509293 l -9.211695463843872 -4.311538602850113 a31.17077668826076,31.17077668826076 0 0,0 0.23099139991396356,-0.4826831847592106 l 9.136324805970004 4.46903428967441" fill="#ff5507" stroke="none" /><path d="M 81.1358732173502 90.77261029715801 l -15.156504898978309 -7.413806048236354 a37.87258607545445,37.87258607545445 0 0,0 0.2906812719303545,-0.5815572635252209 l 15.02700371383621 7.672895167925345" fill="#ffb410" stroke="none" /><path d="M 81.46374523516351 90.13048839642627 l -16.12318283102116 -8.584686715634259 a39.26619474899255,39.26619474899255 0 0,0 0.32189800137849367,-0.5922560664089362 l 15.973439480027317 8.860197615517814" fill="#ffc712" stroke="none" /><line stroke="#e1ed5e" stroke-width="0.3" x1="26.387840678322718" x2="22.05771365940052" y1="57.49999999999999" y2="54.99999999999999" /><path d="M 25.521815274538284 56.99999999999999 a86.0,86.0 0 0,1 29.574782752854787,-30.34633250058573" fill="none" id="id71" stroke="none" /><text fill="#e1ed5e" style="font-size:6.75px; font-family:Arial;" text-anchor="middle"><textPath startOffset="21.40746469413373" xlink:href="#id71">November</textPath></text><path d="M 81.81346652052679 89.5 l -24.91738989961242 -14.386061766044097 a49.77212353208819,49.77212353208819 0 0,0 0.4335538046041521,-0.7362691441329128 l 24.66676238487849 14.811682078470582" fill="#b1ff20" stroke="none" /><path d="M 82.18462484594161 88.88188828441811 l -16.28087730532441 -10.160471567001691 a40.191199761736556,40.191199761736556 0 0,0 0.3702993383917034,-0.5821720650370513 l 16.104060275306814 10.438457306717414" fill="#ffd313" stroke="none" /><path d="M 82.37810715431573 88.57770195909679 l -7.248242362770613 -4.698223128768071 a29.63772643217842,29.63772643217842 0 0,0 0.2803948537155709,-0.42455354624197805 l 7.166523070134313 4.821956553349111" fill="#ff3e05" stroke="none" /><path d="M 82.78059297857968 87.97951657250589 l -11.871838925920843 -8.287465583767835 a35.47835091732293,35.47835091732293 0 0,0 0.3528996112230508,-0.496397498014317 l 11.72782421616782 8.490040308491672" fill="#ff930d" stroke="none" /><path d="M 82.98947788004972 87.6856937992154 l -13.831405986524233 -10.012871286629403 a38.07528573601818,38.07528573601818 0 0,0 0.38782032012872963,-0.5261527473037009 l 13.657483646811684 10.248830343201968" fill="#ffb710" stroke="none" /><path d="M 83.2033758604659 87.39550010848427 l -19.267589470156317 -14.458758341489641 a45.08932744532472,45.08932744532472 0 0,0 0.46989095970635725,-0.6151023499580647 l 19.016546533095653 14.787381604688589" fill="#ebff1a" stroke="none" /><path d="M 83.64595745247003 86.82634096563983 l -24.60681571868449 -19.821508917881797 a52.59727196444285,52.59727196444285 0 0,0 0.5724416098497261,-0.6982856863128807 l 24.262927289596135 20.24099688589317" fill="#90ff24" stroke="none" /><path d="M 83.8745106332314 86.54754324733833 l -7.082652977342141 -5.90860101698102 a30.22364023449108,30.22364023449108 0 0,0 0.3357780751100894,-0.3955457281777247 l 6.980180338724938 6.029313527608302" fill="#ff4706" stroke="none" /><path d="M 84.34580500576568 86.00192230759919 l -10.790493598599474 -9.648925913353054 a35.47537645046899,35.47537645046899 0 0,0 0.40982894716114787,-0.45047380439461115 l 10.62326695059646 9.832737293305323" fill="#ff930d" stroke="none" /><path d="M 84.83555147118756 85.47280134310135 l -18.733557512842825 -17.946324327088213 a46.94256606313316,46.94256606313316 0 0,0 0.5624461528254626,-0.5771193016005924 l 18.422724558866562 18.265266320756535" fill="#d4ff1c" stroke="none" /><path d="M 85.86807049272753 84.46653392183569 l -26.77169495517421 -29.426782466410938 a60.7826491965828,60.7826491965828 0 0,0 0.7778296953069933,-0.6955401098794265 l 26.262600233043823 29.882018106173764" fill="#37ff2e" stroke="none" /><path d="M 86.40962598614128 83.9905735841838 l -4.78046090608786 -5.631370927073532 a28.386822388072112,28.386822388072112 0 0,0 0.3742000480288424,-0.3121709889515558 l 4.683086523897108 5.71260409993697" fill="#ff2b04" stroke="none" /><path d="M 87.25179093698888 83.31218511350988 l -26.659143806093173 -34.89767501218883 a64.91534663110727,64.91534663110727 0 0,0 0.891340294042964,-0.6688783737873121 l 26.056150523139454 35.35017241324014" fill="#34ff5b" stroke="none" /><path d="M 87.54013794807813 83.09580414077388 l -9.117795889943043 -12.370041248110802 a36.3672418595734,36.3672418595734 0 0,0 0.5057107249199126,-0.36609556554297495 l 8.904104154649163 12.524737585026855" fill="#ff9f0e" stroke="none" /><path d="M 88.12776184653039 82.6780497279521 l -6.265737805537145 -9.141898712121625 a32.08304030085736,32.08304030085736 0 0,0 0.4569598306247772,-0.3074629675136398 l 6.107881686815379 9.248111353692373" fill="#ff6209" stroke="none" /><path d="M 88.4268655584334 82.4767994020092 l -17.660119231432382 -26.739671386288194 a53.04512189265454,53.04512189265454 0 0,0 0.7641386433907323,-0.4953054365846972 l 17.198494955784625 27.038890664576797" fill="#8bff24" stroke="none" /><path d="M 88.72937992617638 82.28071324371311 l -7.765620440713444 -12.208845168072681 a35.4693041009994,35.4693041009994 0 0,0 0.5165612152834413,-0.32237240303916614 l 7.554895096640304 12.340353367953384" fill="#ff920d" stroke="none" /><line stroke="#e1ed5e" stroke-width="0.3" x1="56.869717070023135" x2="54.33264160355391" y1="26.7553504044142" y2="22.446841604673864" /><path d="M 56.362301976729285 25.89364864446614 a86.0,86.0 0 0,1 42.16139366436587,-11.88097634709845" fill="none" id="id72" stroke="none" /><text fill="#e1ed5e" style="font-size:6.75px; font-family:Arial;" text-anchor="middle"><textPath startOffset="22.145653131862474" xlink:href="#id72">December</textPath></text><path d="M 89.34428304082924 81.90426304109057 l -18.394274431094335 -31.2374993564938 a57.25094064839368,57.25094064839368 0 0,0 0.8511511853574152,-0.4914123659871701 l 17.85533077787652 31.54865861975714" fill="#5cff2a" stroke="none" /><path d="M 89.97174638481275 81.54914285379989 l -6.30781652715807 -11.605671945788778 a34.20909424046771,34.20909424046771 0 0,0 0.5183674471013493,-0.27600146841889434 l 6.107660264270159 11.712243881930247" fill="#ff810b" stroke="none" /><path d="M 90.61103034731259 81.2157712731953 l -9.734324618310682 -19.475170002171232 a42.77244410690081,42.77244410690081 0 0,0 0.6595913160967392,-0.3226391652452699 l 9.39857305295189 19.639402917513717" fill="#fff517" stroke="none" /><path d="M 90.93487009805054 81.0573650232925 l -9.59853059735179 -20.057237280106968 a43.23565957957648,43.23565957957648 0 0,0 0.6722348007590735,-0.3146398298801921 l 9.252807082721192 20.219053341557704" fill="#fffb17" stroke="none" /><path d="M 91.5904679813234 80.7573450057729 l -15.24929372855706 -34.893368319731124 a59.08002247788498,59.08002247788498 0 0,0 0.932803010086151,-0.39815813711014114 l 14.648055643300477 35.150001106500675" fill="#48ff2c" stroke="none" /><path d="M 91.92203290615298 80.6158196554323 l -5.6295282138338605 -13.50881835541358 a35.63488166231317,35.63488166231317 0 0,0 0.5666718931969548,-0.23046052571576459 l 5.396801859446465 13.603466137708635" fill="#ff950d" stroke="none" /><path d="M 92.25597844496254 80.48000691201159 l -4.0796216574970225 -10.28331158300403 a32.06299281304402,32.06299281304402 0 0,0 0.5133555967245723,-0.19857697294731935 l 3.902493798278921 10.35182844408939" fill="#ff6209" stroke="none" /><path d="M 92.93061703081487 80.22567764915836 l -10.29426617755449 -28.794894638986175 a51.57969707836651,51.57969707836651 0 0,0 0.8363137683262357,-0.2909133414094888 l 9.79844663718325 28.96736641296425" fill="#9cff22" stroke="none" /><path d="M 93.27111125876988 80.10723608172694 l -4.28323719757065 -12.662629693244382 a34.36743474414172,34.36743474414172 0 0,0 0.5604792840591846,-0.1842406732033993 l 4.065235175863704 12.734291287849809" fill="#ff830c" stroke="none" /><path d="M 93.95794788825049 79.88797359093562 l -9.872334608290432 -32.861791108181215 a55.312684323086515,55.312684323086515 0 0,0 0.9117110412729662,-0.26538579669548007 l 9.30676355463584 33.02642059917922" fill="#71ff27" stroke="none" /><path d="M 94.30408787586887 79.78721728523814 l -3.123694764244405 -11.084890735835005 a32.51660851143116,32.51660851143116 0 0,0 0.538565772323882,-0.14678849614248257 l 2.9329475909858456 11.136879726121627" fill="#ff6809" stroke="none" /><path d="M 95.00130118170881 79.60360301121753 l -3.523985846545264 -14.379064817023519 a35.80459324867843,35.80459324867843 0 0,0 0.5982228818753573,-0.14117897124612644 l 3.2766308109300004 14.437439931915877" fill="#ff970d" stroke="none" /><path d="M 95.35216902796891 79.52079915486377 l -6.9342335056381765 -30.553512277788432 a52.330507605522186,52.330507605522186 0 0,0 0.8777510255268562,-0.19130175066659633 l 6.4087200634922015 30.668045486588742" fill="#93ff23" stroke="none" /><path d="M 95.70440661134978 79.44403061299748 l -2.4913836599050043 -11.922172703682733 a33.17970420483516,33.17970420483516 0 0,0 0.5585305735929457,-0.11172175727959674 l 2.286356600781082 11.963183857625197" fill="#ff720a" stroke="none" /><path d="M 96.41257539226777 79.30868818359171 l -5.118645225645137 -29.52298543448543 a50.963431010330886,50.963431010330886 0 0,0 0.8632780443798743,-0.14205207368688616 l 4.61108967821219 29.606503506667984" fill="#a3ff21" stroke="none" /><path d="M 96.76829788921471 79.25015418208739 l -2.3075595279045182 -14.816187500660094 a35.994807202146326,35.994807202146326 0 0,0 0.6113544789284421,-0.08984805525476589 l 2.0528799433683913 14.853616629213745" fill="#ff9a0e" stroke="none" /><path d="M 97.48249496171623 79.15144685158666 l -0.9963567341404753 -8.251263060298877 a29.311201407252735,29.311201407252735 0 0,0 0.5000548164365135,-0.05603218519624603 l 0.8545660161031625 8.267151006002093" fill="#ff3905" stroke="none" /><path d="M 97.84075906011542 79.11130261209362 l -3.451925750615699 -33.3942503026028 a54.572187069963896,54.572187069963896 0 0,0 0.9326657984021263,-0.08832442079765646 l 2.878160388828557 33.44858647890564" fill="#7aff26" stroke="none" /><path d="M 98.1996594967304 79.07731436759882 l -1.2225850197214039 -14.208291142735844 a35.260794203942254,35.260794203942254 0 0,0 0.603515366940341,-0.046715906299121104 l 0.9785006580058458 14.227184816030018" fill="#ff900d" stroke="none" /><path d="M 98.9189461498227 79.02784411241856 l -1.5088120440031567 -29.270550571282936 a50.309412217411676,50.309412217411676 0 0,0 0.8628644895250505,-0.037055113857599915 l 1.0061217938772862 29.292138253566364" fill="#abff21" stroke="none" /><path d="M 99.63950707515114 79.00309439819443 l -0.32124913103662 -18.711151354401835 a39.713908891824964,39.713908891824964 0 0,0 0.6817420558854675,-0.005851935617562653 l 4.583585724781727e-15 18.713908891824964" fill="#ffcd13" stroke="none" /></svg>