<?xml version="1.0" encoding="utf-8" ?>
<svg baseProfile="full" height="200mm" version="1.1" viewBox="0,0,200,200" width="200mm" xmlns="http://www.w3.org/2000/svg" xmlns:ev="http://www.w3.org/2001/xml-events" xmlns:xlink="http://www.w3.org/1999/xlink"><defs /><rect fill="#1a1a1a" height="200" width="200" x="0" y="0" /><text alignment-baseline="middle" fill="#e1ed5e" style="dominant-baseline: central; font-size:9.0px; font-family:Arial;" text-anchor="middle" x="100.0" y="100.0">2021</text><line stroke="#e1ed5e" stroke-width="0.3" x1="100.0" x2="100.0" y1="15.0" y2="10.0" /><path d="M 100.0 14.0 a86.0,86.0 0 0,1 42.46469731375804,11.215312516191453" fill="none" id="id73" stroke="none" /><text fill="#e1ed5e" style="font-size:6.75px; font-family:Arial;" text-anchor="middle"><textPath startOffset="22.20632615414155" xlink:href="#id73">January</textPath></text><path d="M 100.36148047927253 79.00311137660856 l 0.38458649823703506 -22.339020590528587 a43.342330847937205,43.342330847937205 0 0,0 0.7458459017626832,0.019262999182781695 l -0.7690590351945861 22.329090799203446" fill="#ffe315" stroke="none" /><path d="M 100.72285384407766 79.0124445844662 l 1.2018947523054546 -34.89617289071226 a55.91686459884536,55.91686459884536 0 0,0 0.9616613463770212,0.04141116048337216 l -1.8023969310718073 34.870314003704685" fill="#7aff26" stroke="none" /><path d="M 101.44485096284872 79.0497635885617 l 3.2979817331934704 -47.82050105346586 a68.93409021267648,68.93409021267648 0 0,0 1.1830724952395248,0.09182919523696945 l -4.1206444177953365 47.756646596040426" fill="#38ff82" stroke="none" /><path d="M 102.16513564639614 79.11191278185805 l 1.809756586211852 -17.459577407688982 a38.55312115141979,38.55312115141979 0 0,0 0.6595030857720698,0.07410285600045105 l -2.1100263754936472 17.425838598217933" fill="#ff9f0e" stroke="none" /><path d="M 102.88285421437855 79.19881850522331 l 6.633080220722653 -47.860868181434526 a69.31832422896301,69.31832422896301 0 0,0 1.1804944270943358,0.17397419217069998 l -7.455943628245644 47.73959950510285" fill="#39ff87" stroke="none" /><path d="M 103.2404852339499 79.25152402106235 l 3.4623976953170894 -22.169357433932465 a43.43810613296037,43.43810613296037 0 0,0 0.7377668475365129,0.12173785127380604 l -3.8434937489924774 22.106473319719036" fill="#ffe415" stroke="none" /><path d="M 103.95276090670814 79.375362276772 l 7.083773786072482 -36.96157483320108 a58.63426450991929,58.63426450991929 0 0,0 0.9896168046907142,0.19850782118941937 l -7.718957000230321 36.83416305593445" fill="#5aff2a" stroke="none" /><path d="M 104.307194497241 79.44645832069477 l 4.680601136256404 -22.335404310131032 a43.82056775572739,43.82056775572739 0 0,0 0.7369310635551636,0.16106458745321361 l -5.0643749239650955 22.251526224581948" fill="#ffea15" stroke="none" /><path d="M 105.36241919743992 79.69619591428918 l 12.281270265596586 -46.50074830318827 a69.09520965847943,69.09520965847943 0 0,0 1.1473164501162867,0.3136049259467696 l -13.079884604936582 46.2824568364152" fill="#38ff84" stroke="none" /><path d="M 105.71112130821622 79.79150937346287 l 3.538091359559952 -12.519342913034897 a34.00969013630801,34.00969013630801 0 0,0 0.5619854842616167,0.16405897351262325 l -3.753067061544996 12.45658561060357" fill="#ff5b08" stroke="none" /><path d="M 106.40334571778207 80.00007090966166 l 13.887824834324432 -43.37662280738682 a66.54561542896516,66.54561542896516 0 0,0 1.087916803867322,0.35866906558484174 l -14.632424460434171 43.13114001754275" fill="#35ff64" stroke="none" /><path d="M 107.08798089147638 80.2323363322302 l 8.113461755890821 -22.62762634767145 a45.03825567286732,45.03825567286732 0 0,0 0.7275129686004818,0.267949166070062 l -8.50175705026388 22.48461391379506" fill="#fffa17" stroke="none" /><path d="M 107.76421540070413 80.48803036053334 l 17.57627477414029 -44.170302093479684 a68.53883698583019,68.53883698583019 0 0,0 1.0924311570861613,0.44563009828825584 l -18.33398980081484 43.86121110900785" fill="#38ff7e" stroke="none" /><path d="M 108.76106565485865 80.91482961587045 l 22.742013314030125 -49.54137043085662 a75.51189369066972,75.51189369066972 0 0,0 1.1766255676959785,0.5524414808596332 l -23.5914170930257 49.14256396735698" fill="#41ffd1" stroke="none" /><path d="M 109.08828744355905 81.06846463323043 l 7.680058092869056 -15.9980956045837 a38.746051822398236,38.746051822398236 0 0,0 0.5987717669652881,0.29381470561263373 l -7.954301126844776 15.863525738836234" fill="#ffa20e" stroke="none" /><path d="M 110.05341064243156 81.56283822128135 l 10.00257683023802 -18.343936578577562 a41.893816129268735,41.893816129268735 0 0,0 0.6301546348610205,0.3506803720462108 l -10.316855554171076 18.16904080897117" fill="#ffcf13" stroke="none" /><path d="M 110.36928655335952 81.73862282372117 l 12.265640570148625 -21.601051104869175 a45.8405182601178,45.8405182601178 0 0,0 0.6828125665356014,0.3955291110389936 l -12.635649869149555 21.38671783644013" fill="#f9ff18" stroke="none" /><line stroke="#e1ed5e" stroke-width="0.3" x1="143.23703022742887" x2="145.7803849466894" y1="26.81831364943548" y2="22.513508569990506" /><path d="M 143.74570117128098 25.957352633546492 a86.0,86.0 0 0,1 28.547481713284135,27.462654790039103" fill="none" id="id74" stroke="none" /><text fill="#e1ed5e" style="font-size:6.75px; font-family:Arial;" text-anchor="middle"><textPath startOffset="19.985693538727396" xlink:href="#id74">February</textPath></text><path d="M 110.99172775467656 82.1063720568725 l 32.97518326402967 -53.68088382938249 a84.0,84.0 0 0,0 1.225523390510947,0.7674226347082231 l -33.894325806912875 53.10531685335132" fill="#4dd2ff" stroke="none" /><path d="M 111.60114157652 82.49532879139004 l 6.907240028709683 -10.42216103165441 a33.50325579135071,33.50325579135071 0 0,0 0.4779722931993101,0.3227290259905162 l -7.085617016315536 10.301720093365224" fill="#ff5307" stroke="none" /><path d="M 111.90073688211348 82.69761687909136 l 13.735737417451395 -19.970275252631048 a45.2380357303768,45.2380357303768 0 0,0 0.6377892231507971,0.4468121092412764 l -14.077457780185844 19.730878300625836" fill="#fffd17" stroke="none" /><path d="M 112.19680574252982 82.90503203632743 l 27.405213126117182 -38.41097827728619 a68.18526209216239,68.18526209216239 0 0,0 0.9495761549760645,0.6899074601699161 l -28.062334597447034 37.9335515822996" fill="#37ff79" stroke="none" /><path d="M 112.77801427241765 83.33499621200491 l 8.229484858105096 -10.732841066675492 a34.524729143028964,34.524729143028964 0 0,0 0.4684963737000817,0.36566885083925715 l -8.413013786964607 10.589593826613012" fill="#ff6309" stroke="none" /><path d="M 113.06298171725822 83.55741782278167 l 30.253437307286045 -38.08048115164795 a69.63531138634667,69.63531138634667 0 0,0 0.9321071128859734,0.7536991282490632 l -30.90444781873651 37.55407592613476" fill="#39ff8b" stroke="none" /><path d="M 113.34407831869373 83.78471172551755 l 20.62330292836809 -25.06076434570888 a53.45554703384907,53.45554703384907 0 0,0 0.7054667603885085,0.5908081236874582 l -21.051627225715716 24.702055064627604" fill="#97ff23" stroke="none" /><path d="M 114.42810811169701 84.74124197986012 l 15.335582585992082 -16.218477292100168 a43.32082209342103,43.32082209342103 0 0,0 0.537419050277216,0.5169967005701263 l -15.612484879881716 15.952097504767739" fill="#ffe315" stroke="none" /><path d="M 114.68862486808459 84.99185889309783 l 22.18720530494344 -22.66983539813294 a52.72055352956741,52.72055352956741 0 0,0 0.6431008766494036,0.6403391971082855 l -22.574141981760167 22.284560350374534" fill="#a0ff22" stroke="none" /><path d="M 115.19652480421416 85.50635884689758 l 28.125570309393765 -26.82468054654584 a59.866581939410196,59.866581939410196 0 0,0 0.7048083513026239,0.7518404078284935 l -28.583145982666853 26.33657072183929" fill="#4dff2c" stroke="none" /><path d="M 115.9244219780498 86.31012108654704 l 28.30757158702165 -24.335403061686925 a58.33002077857869,58.33002077857869 0 0,0 0.6479892744151585,0.767014914569179 l -28.722271474923925 23.84452919748864" fill="#5eff2a" stroke="none" /><path d="M 116.15771136456269 86.58626213691792 l 30.530083665711263 -25.3453307829217 a60.67961442770139,60.67961442770139 0 0,0 0.660256352235803,0.8093962182512303 l -30.961838510023476 24.81605039506237" fill="#43ff2d" stroke="none" /><path d="M 116.60985879189232 87.15038557335679 l 18.689881257346457 -14.458748316022678 a44.62979187973942,44.62979187973942 0 0,0 0.46483853651854756,0.6116730262976204 l -18.93599573408912 14.134890513844024" fill="#fff517" stroke="none" /><path d="M 116.82858285166822 87.43820079747576 l 17.970880488093126 -13.414474300883189 a43.42544684697234,43.42544684697234 0 0,0 0.44198293140477374,0.6028642217257026 l -18.199126032011524 13.103147635485993" fill="#ffe415" stroke="none" /><path d="M 117.2510076193507 88.02491185347247 l 16.081138757217563 -11.163003249630972 a40.57589500585239,40.57589500585239 0 0,0 0.3933456907993225,0.5771862649390794 l -16.27090891368562 10.884538961421486" fill="#ffbc11" stroke="none" /><path d="M 117.65298651832404 88.62581576622439 l 46.549249625023535 -29.99264405654202 a76.37500643932404,76.37500643932404 0 0,0 0.7025496943149923,1.1112648987322908 l -47.05862691558448 29.186931510095523" fill="#42ffdb" stroke="none" /><line stroke="#e1ed5e" stroke-width="0.3" x1="172.23445277983987" x2="176.4835382374775" y1="55.19839476539836" y2="52.563006222186495" /><path d="M 173.08426987136738 54.67131705675599 a86.0,86.0 0 0,1 12.851231095245387,41.99856678651699" fill="none" id="id75" stroke="none" /><text fill="#e1ed5e" style="font-size:6.75px; font-family:Arial;" text-anchor="middle"><textPath startOffset="22.20632615414155" xlink:href="#id75">March</textPath></text><path d="M 118.03404312379186 89.2402003453031 l 28.04448191049517 -16.732410181419837 a53.65679892621708,53.65679892621708 0 0,0 0.4664061687081837,0.7972393301031967 l -28.32834775367368 16.247191438962744" fill="#95ff23" stroke="none" /><path d="M 118.21658344932153 89.55222093294921 l 18.354047596828394 -10.526619045293018 a42.158468085174974,42.158468085174974 0 0,0 0.3556214512431229,0.6326108804536356 l -18.53252668936395 10.209124654904588" fill="#ffd213" stroke="none" /><path d="M 118.56541770881063 90.18545643968196 l 20.209771734209298 -10.683825602014343 a43.85998694319623,43.85998694319623 0 0,0 0.3471007662704608,0.6704882004795765 l -20.390681933639875 10.334364679274422" fill="#ffea16" stroke="none" /><path d="M 118.73160827565052 90.50648371742162 l 39.44534719562261 -19.99161205823349 a65.22216602644107,65.22216602644107 0 0,0 0.49891847169705517,1.0057891945234518 l -39.783625680273076 19.309663275211086" fill="#33ff53" stroke="none" /><path d="M 118.89224826269711 90.83032412892265 l 15.059406768097212 -7.3093406858737575 a37.73953982250353,37.73953982250353 0 0,0 0.2786288770315198,0.5868634742511611 l -15.182993838970487 7.049034795982056" fill="#ff930d" stroke="none" /><path d="M 119.196687751892 91.48605970444005 l 44.38671891871973 -19.685993733608274 a69.55635041525564,69.55635041525564 0 0,0 0.47599494019572125,1.0986619491511571 l -44.71900456875813 18.919032639870515" fill="#39ff8a" stroke="none" /><path d="M 119.47837535516314 92.15188598940014 l 24.523175530739245 -9.880735634154343 a47.43889322160622,47.43889322160622 0 0,0 0.2986536985890296,0.7600410871929544 l -24.689622779209976 9.457145542065604" fill="#e4ff1a" stroke="none" /><path d="M 119.7369772167798 92.82701384747503 l 41.632258679618346 -15.130362249866474 a65.29641999731854,65.29641999731854 0 0,0 0.37482296499169016,1.0596749962348013 l -41.88653472541984 14.411489627205057" fill="#33ff54" stroke="none" /><path d="M 120.08093135843002 93.85539295169968 l 54.072482148729236 -16.545754228211813 a77.54728383136569,77.54728383136569 0 0,0 0.37959064156521094,1.2797909387417767 l -54.349278687406155 15.612533902723507" fill="#44ffe8" stroke="none" /><path d="M 120.28053869075195 94.5502522615342 l 23.878755536644615 -6.4166537175143255 a45.725865220641445,45.725865220641445 0 0,0 0.1977179185923045,0.7618877945511403 l -23.98566978710722 6.004669497414334" fill="#fbff18" stroke="none" /><path d="M 120.45610955862082 95.25157060432595 l 34.91239671714543 -8.104133895551186 a56.840653324574994,56.840653324574994 0 0,0 0.2130323077673974,0.9549820642834514 l -35.04672341191486 7.501973661717771" fill="#6fff27" stroke="none" /><path d="M 120.53481517161879 95.60439243477599 l 30.90734975994515 -6.61591445018737 a52.60750849396041,52.60750849396041 0 0,0 0.18192353842805647,0.8871237822048319 l -31.0166525942882 6.082915011819127" fill="#a2ff22" stroke="none" /><path d="M 120.67395015179393 96.31383870115 l 59.66374674118443 -10.63803446206227 a81.60470652030435,81.60470652030435 0 0,0 0.23466458656903325,1.3850036735310323 l -59.838023189273684 9.6094450002154" fill="#4aebff" stroke="none" /><path d="M 120.73433829027371 96.67025291283417 l 11.94254051531104 -1.917863928788629 a33.09555604382015,33.09555604382015 0 0,0 0.08548756517745729,0.5632562431399483 l -11.973783973927796 1.7120085732565986" fill="#ff4d07" stroke="none" /><path d="M 120.87857604477298 97.74499172005257 l 44.336134426922406 -4.788561730415623 a65.59398097690018,65.59398097690018 0 0,0 0.11158121611619469,1.123607618852324 l -44.41199276872083 4.024678580858864" fill="#34ff58" stroke="none" /><path d="M 120.94382443527127 98.46500227214037 l 20.983141768915683 -1.5378793418645733 a42.03942279066961,42.03942279066961 0 0,0 0.046682594952091455,0.7221590817032587 l -21.00650495487219 1.1764611959082794" fill="#ffd113" stroke="none" /><path d="M 120.96714384426684 98.82574320788733 l 27.994199960109633 -1.5678043555706986 a49.03806772771527,49.03806772771527 0 0,0 0.039945923715363374,0.8431953147212903 l -28.017039492058494 1.0856979342264086" fill="#cfff1d" stroke="none" /><path d="M 120.98425023603335 99.18683210126433 l 21.35595784823287 -0.8275720682702702 a42.37198659796698,42.37198659796698 0 0,0 0.021969482695237,0.7290601747977773 l -21.367039025383754 0.4598417460474937" fill="#ffd513" stroke="none" /><line stroke="#e1ed5e" stroke-width="0.3" x1="184.98032266829074" x2="189.97916517819016" y1="98.17113171792111" y2="98.06355123074" /><path d="M 185.9800911702706 98.14961562048488 a86.0,86.0 0 0,1 -9.607161424134198,41.387399972396054" fill="none" id="id76" stroke="none" /><text fill="#e1ed5e" style="font-size:6.75px; font-family:Arial;" text-anchor="middle"><textPath startOffset="21.466115282336823" xlink:href="#id76">April</textPath></text><path d="M 120.99980553446 99.90962569577887 l 25.857372524536494 -0.11127922337456268 a46.85761197284486,46.85761197284486 0 0,0 -0.003471262569217657,0.806599171532998 l -25.855456964677774 -0.33382942636212004" fill="#ebff1a" stroke="none" /><path d="M 120.99824983174949 100.27111621757518 l 48.89253647416316 0.6312697326083531 a69.89661158355129,69.89661158355129 0 0,0 -0.025888164925106844,1.2029212984789555 l -48.87442624655304 -1.4727808468774233" fill="#3aff8e" stroke="none" /><path d="M 120.9904718944345 100.63252640178507 l 19.434987240690084 0.5856534626718851 a40.44380927246834,40.44380927246834 0 0,0 -0.026958431866061346,0.69567733936388 l -19.42202667597282 -0.9201080490497713" fill="#ffba11" stroke="none" /><path d="M 120.95626037817324 101.35467743843564 l 29.260279285146368 1.8914748850514524 a50.3213509423687,50.3213509423687 0 0,0 -0.06331729831223597,0.8639142296427372 l -29.223385428169795 -2.39486225119096" fill="#beff1e" stroke="none" /><path d="M 120.92983693683757 101.71520430193887 l 20.19073943931691 1.6546351149392111 a41.25842482696957,41.25842482696957 0 0,0 -0.06409870318818192,0.7073238484227985 l -20.159266139851653 -2.00194035191058" fill="#ffc612" stroke="none" /><path d="M 120.81339534386255 102.79330883721812 l 49.46108110320786 6.638036354058541 a70.90452955930863,70.90452955930863 0 0,0 -0.1727570258154032,1.2082622361855955 l -49.339490026375856 -7.488444062224546" fill="#3bff9b" stroke="none" /><path d="M 120.64145759157962 103.86396538481128 l 23.96809624386889 4.486693530010899 a45.38442241242559,45.38442241242559 0 0,0 -0.15035225281396286,0.7666428978932325 l -23.887314058079262 -4.898600154972077" fill="#ffff18" stroke="none" /><path d="M 120.5718875245553 104.21870165774334 l 23.58921911725087 4.837469467788582 a45.08012394929604,45.08012394929604 0 0,0 -0.16243004347832093,0.7588190873848735 l -23.502455035048104 -5.2428023745896235" fill="#fffb17" stroke="none" /><path d="M 120.41448212921028 104.9243191809786 l 15.81227739316303 3.814189376408107 a37.26579715099875,37.26579715099875 0 0,0 -0.15578644541109743,0.6222894096913857 l -15.74427963345687 -4.085806625496889" fill="#ff8c0c" stroke="none" /><path d="M 120.32669344350535 105.2749913415812 l 19.689268614133788 5.10957287520894 a41.34146094867782,41.34146094867782 0 0,0 -0.18468199897317913,0.6872704215691632 l -19.59839853881883 -5.447734229953651" fill="#ffc712" stroke="none" /><path d="M 120.23288151984713 105.62410040840565 l 45.84154357316695 12.742497586361688 a68.57960027058863,68.57960027058863 0 0,0 -0.3259404317339426,1.1346414022333318 l -45.61541050454691 -13.529696464099603" fill="#38ff7e" stroke="none" /><path d="M 120.02730092923936 106.31721596034902 l 19.10678394722836 6.026857085177664 a41.034774746206146,41.034774746206146 0 0,0 -0.21828106271209732,0.6718000331861458 l -19.000210633500014 -6.3548560183416045" fill="#ffc312" stroke="none" /><path d="M 119.9155931802556 106.66101706037122 l 23.993198082231707 8.024822575561384 a46.29963105625153,46.29963105625153 0 0,0 -0.25929814934098705,0.7536417967581496 l -23.85150910194749 -8.436637075408834" fill="#f3ff19" stroke="none" /><path d="M 119.67450827220406 107.3425965602758 l 22.27629848459608 8.313593934124196 a44.77707547778583,44.77707547778583 0 0,0 -0.2757110477310009,0.7197945441635257 l -22.12989315727157 -8.695812045120865" fill="#fff717" stroke="none" /><path d="M 119.54520255179757 107.68017299344265 l 31.038645335620743 12.196454092912692 a54.348927969441206,54.348927969441206 0 0,0 -0.34963800412308527,0.8677728526294776 l -30.824104717240264 -12.728926313384983" fill="#8dff24" stroke="none" /><path d="M 119.26925614724726 108.34839909993367 l 30.515030230796544 13.220627146503706 a54.25585741088775,54.25585741088775 0 0,0 -0.37865140995783036,0.8537589684020664 l -30.282937736107442 -13.74393445139846" fill="#8eff24" stroke="none" /><path d="M 118.97047184881838 109.00673069616215 l 21.313363784233022 10.119080292980655 a44.59354279829219,44.59354279829219 0 0,0 -0.3351878812725135,0.6905863147923703 l -21.136022646345797 -10.484455563738301" fill="#fff417" stroke="none" /><line stroke="#e1ed5e" stroke-width="0.3" x1="174.80103733775053" x2="179.2010983576182" y1="140.37084112569926" y2="142.7455964860345" /><path d="M 175.68104954172406 140.8457921977663 a86.0,86.0 0 0,1 -30.038265399797805,32.042727171017184" fill="none" id="id77" stroke="none" /><text fill="#e1ed5e" style="font-size:6.75px; font-family:Arial;" text-anchor="middle"><textPath startOffset="22.206326154141568" xlink:href="#id77">May</textPath></text><path d="M 118.12598468904814 110.60418214915192 l 29.506265676252916 17.261948585960457 a55.18471271112225,55.18471271112225 0 0,0 -0.48672686491423683,0.8157822220732232 l -29.204757935640455 -17.767292901919784" fill="#83ff25" stroke="none" /><path d="M 117.75023020441432 111.22182372390056 l 34.88475645736619 22.054394963193744 a62.271570969400926,62.271570969400926 0 0,0 -0.58059384503236,0.9010945407885358 l -34.499957748956774 -22.65161110390373" fill="#32ff2f" stroke="none" /><path d="M 117.35343817320211 111.8261652097733 l 12.752307958246893 8.690548767046229 a36.43201205722623,36.43201205722623 0 0,0 -0.35762199598736816,0.515181157928628 l -12.60082505509739 -8.908771187161877" fill="#ff800b" stroke="none" /><path d="M 116.93607887273984 112.41649034213515 l 36.51471739113622 26.77034272452526 a66.27665884032399,66.27665884032399 0 0,0 -0.6824562264434851,0.9142616407236648 l -36.048499897997644 -27.39491724475824" fill="#35ff61" stroke="none" /><path d="M 116.498646956653 112.99209946851258 l 30.36405405048861 23.910615914607636 a59.64832896512968,59.64832896512968 0 0,0 -0.642162797851212,0.8011968273633968 l -29.947973340582543 -24.429740575549285" fill="#4fff2b" stroke="none" /><path d="M 116.0416608686014 113.55231037782055 l 9.899099503263427 8.362953813076816 a33.958825851718444,33.958825851718444 0 0,0 -0.38107865133994906,0.44328056435912166 l -9.753678342352698 -8.532111476597466" fill="#ff5a08" stroke="none" /><path d="M 115.80600337817218 113.82643327865902 l 16.72548024849742 14.630753339502409 a43.221625341640475,43.221625341640475 0 0,0 -0.49466357879420975,0.5557597746678893 l -16.47115782005487 -14.916487283911165" fill="#ffe115" stroke="none" /><path d="M 115.56566222782051 114.09645910891815 l 24.72634380703382 22.392487340881228 a54.35889037985475,54.35889037985475 0 0,0 -0.6340669264720101,0.6881544189464847 l -24.337230472566088 -22.814793014629046" fill="#8cff24" stroke="none" /><path d="M 115.32070863581623 114.36230785411682 l 18.58649569328526 17.423800649280963 a46.47639399959098,46.47639399959098 0 0,0 -0.5521693246870455,0.5789473293904985 l -18.283819817219253 -17.74115509525397" fill="#f0ff19" stroke="none" /><path d="M 114.81725581225074 114.88116024355365 l 18.938192748538565 19.019870115308446 a47.84046578925191,47.84046578925191 0 0,0 -0.5885517435722579,0.5760217548070743 l -18.607991052590513 -19.343041973038094" fill="#deff1b" stroke="none" /><path d="M 114.55890576462653 115.13401014063108 l 15.638528934703428 16.256280472492325 a43.55726583701783,43.55726583701783 0 0,0 -0.5448063279665747,0.5151483881888285 l -15.356386772346047 -16.523063497427078" fill="#ffe615" stroke="none" /><path d="M 114.0293411484842 115.62618273729858 l 15.591308796737732 17.365935990358164 a44.33805139287443,44.33805139287443 0 0,0 -0.5722937089171112,0.5049826586707857 l -15.290072734914032 -17.63174179080124" fill="#fff116" stroke="none" /><path d="M 113.48314897796784 116.09983520530334 l 13.66525270058003 16.317279952752124 a42.28362648674319,42.28362648674319 0 0,0 -0.5620296774242343,0.46251216173451465 l -13.382352894611104 -16.550087233343817" fill="#ffd413" stroke="none" /><path d="M 112.92097659922987 116.55440617244103 l 18.380095449366415 23.548650771117565 a50.872510136710574,50.872510136710574 0 0,0 -0.6949457936974186,0.5328548005983131 l -17.972020927175503 -23.861544913543252" fill="#b7ff1f" stroke="none" /><path d="M 112.63410532772338 116.77436683061366 l 11.540866820790807 15.322868424280227 a40.1828544206287,40.1828544206287 0 0,0 -0.5560829250532159,0.41137685388920775 l -11.275398925319026 -15.519255226909204" fill="#ffb610" stroke="none" /><path d="M 112.04921762599082 117.19931262002967 l 14.001353655074901 19.985833611120118 a45.40228369038148,45.40228369038148 0 0,0 -0.6439408390275655,0.4429083808492196 l -13.655255931424453 -20.22388278133443" fill="#ffff18" stroke="none" /><path d="M 111.7513745106137 117.40417183066458 l 19.084903713622527 28.26536957898625 a55.10520000227127,55.10520000227127 0 0,0 -0.7906948091275676,0.5240294042196313 l -18.595534205754998 -28.589697004297197" fill="#84ff25" stroke="none" /><line stroke="#e1ed5e" stroke-width="0.3" x1="143.8653032363475" x2="146.44561519142675" y1="172.8068346515853" y2="177.08958963109032" /><path d="M 144.38136562736335 173.6633856474863 a86.0,86.0 0 0,1 -40.68145358897372,12.25698825130547" fill="none" id="id78" stroke="none" /><text fill="#e1ed5e" style="font-size:6.75px; font-family:Arial;" text-anchor="middle"><textPath startOffset="21.466115282336833" xlink:href="#id78">June</textPath></text><path d="M 110.8373102113329 117.98757091392108 l 15.316498439279686 25.422046287961663 a50.679547872360224,50.679547872360224 0 0,0 -0.7511001704587477,0.44376321991794604 l -14.876630397792555 -25.681928080173357" fill="#baff1f" stroke="none" /><path d="M 110.5260780823613 118.17145234162733 l 9.42085335851477 16.26347310766937 a39.79502688283589,39.79502688283589 0 0,0 -0.5956959890963568,0.33825172931923153 l -9.139508602497212 -16.42322800278323" fill="#ffb110" stroke="none" /><path d="M 109.89434966115114 118.52300852407294 l 9.767539355771177 18.28560955921564 a41.73085483087027,41.73085483087027 0 0,0 -0.6365129736987565,0.33299350437821923 l -9.451335479545925 -18.451032482538576" fill="#ffcc13" stroke="none" /><path d="M 109.57404056367764 118.69057910512821 l 7.253740912497311 14.160856895414845 a36.910582177848035,36.910582177848035 0 0,0 -0.5679766855202827,0.28479530112244533 l -7.008910319294268 -14.283620037446594" fill="#ff870c" stroke="none" /><path d="M 109.2508944713604 118.85261126421891 l 18.374005987963123 37.44481069694437 a62.70992620678805,62.70992620678805 0 0,0 -0.9731605019729734,0.46717617981334075 l -17.72673281798992 -37.75554115325727" fill="#30ff32" stroke="none" /><path d="M 108.59647513512805 119.15986991738527 l 12.418473248882103 27.67835982550839 a51.3366128706472,51.3366128706472 0 0,0 -0.809356721646188,0.35479820196814454 l -11.940195852578162 -27.88802258077099" fill="#b2ff20" stroke="none" /><path d="M 108.2653958097858 119.30500536409082 l 2.856164210305875 6.670977006981115 a28.256694028543777,28.256694028543777 0 0,0 -0.44878161517938153,0.18759075154224816 l -2.7409111356290325 -6.719152801543337" fill="#ff0000" stroke="none" /><path d="M 107.59598834532513 119.57807347666477 l 8.620486089414051 22.218637310967463 a44.83234408055776,44.83234408055776 0 0,0 -0.7218643146075427,0.2729473163105209 l -8.236751554046233 -22.363732877384614" fill="#fff717" stroke="none" /><path d="M 107.2578585660854 119.70592522655815 l 8.851854932366573 24.033809673372883 a46.612093689497044,46.612093689497044 0 0,0 -0.7552944628871439,0.2708217223014901 l -8.436840908849694 -24.18261893671433" fill="#efff19" stroke="none" /><path d="M 106.57524785965236 119.94407469862006 l 6.5691840117845395 19.92568180493478 a41.98063330722394,41.98063330722394 0 0,0 -0.6882398079638822,0.22035265261323822 l -6.225222858729717 -20.035807304207722" fill="#ffd013" stroke="none" /><path d="M 106.2309692047433 120.05430185196036 l 9.256683009259449 29.79252651004705 a52.19744887303718,52.19744887303718 0 0,0 -0.8603258726349503,0.25920912806416396 l -8.742482162184253 -29.94745100721694" fill="#a7ff21" stroke="none" /><path d="M 105.88484417918355 120.15858648285463 l 5.778667834818096 19.794878463550486 a41.621110914106836,41.621110914106836 0 0,0 -0.6894612969466186,0.19484864935986562 l -5.437075369766872 -19.89141590624887" fill="#ffcb12" stroke="none" /><line stroke="#e1ed5e" stroke-width="0.3" x1="102.19456741930631" x2="102.32365962044197" y1="184.97166512339345" y2="189.96999836594603" /><path d="M 102.22038585953345 185.97133177190398 a86.0,86.0 0 0,1 -42.740103519485714,-10.115201625700543" fill="none" id="id79" stroke="none" /><text fill="#e1ed5e" style="font-size:6.75px; font-family:Arial;" text-anchor="middle"><textPath startOffset="22.20632615414155" xlink:href="#id79">July</textPath></text><line stroke="#e1ed5e" stroke-width="0.3" x1="58.666819895761336" x2="56.23545636021788" y1="174.27360380694188" y2="178.64263932499728" /><path d="M 58.180547188652646 175.14741091055294 a86.0,86.0 0 0,1 -31.652253787137756,-30.449443065178592" fill="none" id="id80" stroke="none" /><text fill="#e1ed5e" style="font-size:6.75px; font-family:Arial;" text-anchor="middle"><textPath startOffset="22.20632615414155" xlink:href="#id80">August</textPath></text><line stroke="#e1ed5e" stroke-width="0.3" x1="26.63291911575756" x2="22.317208475507996" y1="142.92168965132927" y2="145.44649492493687" /><path d="M 25.769776987707644 143.4266507060508 a86.0,86.0 0 0,1 -11.730757126820373,-40.83630448921669" fill="none" id="id81" stroke="none" /><text fill="#e1ed5e" style="font-size:6.75px; font-family:Arial;" text-anchor="middle"><textPath startOffset="21.46611528233685" xlink:href="#id81">September</textPath></text><line stroke="#e1ed5e" stroke-width="0.3" x1="15.007084014347285" x2="10.007500721073583" y1="101.09737516637583" y2="101.16192664675087" /><path d="M 14.007167355692545 101.11028546245083 a86.0,86.0 0 0,1 10.666146001902534,-42.60595125391555" fill="none" id="id82" stroke="none" /><text fill="#e1ed5e" style="font-size:6.75px; font-family:Arial;" text-anchor="middle"><textPath startOffset="22.20632615414155" xlink:href="#id82">October</textPath></text><line stroke="#e1ed5e" stroke-width="0.3" x1="26.266209847984243" x2="21.928928074336255" y1="57.711370442889674" y2="55.22380399835377" /><path d="M 25.398753493254645 57.213857153982495 a86.0,86.0 0 0,1 29.58750427330803,-30.492523968695096" fill="none" id="id83" stroke="none" /><text fill="#e1ed5e" style="font-size:6.75px; font-family:Arial;" text-anchor="middle"><textPath startOffset="21.46611528233685" xlink:href="#id83">November</textPath></text><line stroke="#e1ed5e" stroke-width="0.3" x1="56.762969772571076" x2="54.21961505331055" y1="26.818313649435495" y2="22.513508569990535" /><path d="M 56.25429882871897 25.957352633546506 a86.0,86.0 0 0,1 42.265352541879196,-11.944610805530505" fill="none" id="id84" stroke="none" /><text fill="#e1ed5e" style="font-size:6.75px; font-family:Arial;" text-anchor="middle"><textPath startOffset="22.20632615414155" xlink:href="#id84">December</textPath></text></svg>