<?xml version="1.0" encoding="utf-8" ?>
<svg baseProfile="full" height="200mm" version="1.1" viewBox="0,0,200,200" width="200mm" xmlns="http://www.w3.org/2000/svg" xmlns:ev="http://www.w3.org/2001/xml-events" xmlns:xlink="http://www.w3.org/1999/xlink"><defs /><rect fill="#1a1a1a" height="200" width="200" x="0" y="0" /><text alignment-baseline="middle" fill="#e1ed5e" style="dominant-baseline: central; font-size:9.0px; font-family:Arial;" text-anchor="middle" x="100.0" y="100.0">2021</text><line stroke="#e1ed5e" stroke-width="0.3" x1="100.0" x2="100.0" y1="15.0" y2="10.0" /><path d="M 100.0 14.0 a86.0,86.0 0 0,1 42.46469731375804,11.215312516191453" fill="none" id="id73" stroke="none" /><text fill="#e1ed5e" style="font-size:6.75px; font-family:Arial;" text-anchor="middle"><textPath startOffset="22.20632615414155" xlink:href="#id73">January</textPath></text><path d="M 100.36148047927253 79.00311137660856 l 0.38458649823703506 -22.339020590528587 a43.342330847937205,43.342330847937205 0 0,0 0.7458459017626832,0.019262999182781695 l -0.7690590351945861 22.329090799203446" fill="#ffac0f" stroke="none" /><path d="M 100.72285384407766 79.0124445844662 l 1.2018947523054546 -34.89617289071226 a55.91686459884536,55.91686459884536 0 0,0 0.9616613463770212,0.04141116048337216 l -1.8023969310718073 34.870314003704685" fill="#9aff23" stroke="none" /><path d="M 101.44485096284872 79.0497635885617 l 3.2979817331934704 -47.82050105346586 a68.93409021267648,68.93409021267648 0 0,0 1.1830724952395248,0.09182919523696945 l -4.1206444177953365 47.756646596040426" fill="#36ff70" stroke="none" /><path d="M 102.16513564639614 79.11191278185805 l 1.809756586211852 -17.459577407688982 a38.55312115141979,38.55312115141979 0 0,0 0.6595030857720698,0.07410285600045105 l -2.1100263754936472 17.425838598217933" fill="#ff5e08" stroke="none" /><path d="M 102.88285421437855 79.19881850522331 l 6.633080220722653 -47.860868181434526 a69.31832422896301,69.31832422896301 0 0,0 1.1804944270943358,0.17397419217069998 l -7.455943628245644 47.73959950510285" fill="#37ff76" stroke="none" /><path d="M 103.2404852339499 79.25152402106235 l 3.4623955199417527 -22.169343505239798 a43.43809203541671,43.43809203541671 0 0,0 0.7377666080992705,0.12173781176460947 l -3.843491334179898 22.106459430535566" fill="#ffae10" stroke="none" /><path d="M 103.95276090670814 79.375362276772 l 7.083773786072482 -36.96157483320108 a58.63426450991929,58.63426450991929 0 0,0 0.9896168046907142,0.19850782118941937 l -7.718957000230321 36.83416305593445" fill="#76ff27" stroke="none" /><path d="M 104.307194497241 79.44645832069477 l 4.680597059538158 -22.33538485640113 a43.82054787942897,43.82054787942897 0 0,0 0.7369307292951921,0.16106451439693048 l -5.064370512986878 22.25150684390833" fill="#ffb410" stroke="none" /><path d="M 105.36241919743992 79.69619591428918 l 12.281270265596586 -46.50074830318827 a69.09520965847943,69.09520965847943 0 0,0 1.1473164501162867,0.3136049259467696 l -13.079884604936582 46.2824568364152" fill="#36ff73" stroke="none" /><path d="M 105.71112130821622 79.79150937346287 l 3.538091359559952 -12.519342913034897 a34.00969013630801,34.00969013630801 0 0,0 0.5619854842616167,0.16405897351262325 l -3.753067061544996 12.45658561060357" fill="#ff1001" stroke="none" /><path d="M 106.40334571778207 80.00007090966166 l 13.887824834324432 -43.37662280738682 a66.54561542896516,66.54561542896516 0 0,0 1.087916803867322,0.35866906558484174 l -14.632424460434171 43.13114001754275" fill="#33ff4f" stroke="none" /><path d="M 107.08798089147638 80.2323363322302 l 8.113468389288096 -22.627644847547266 a45.038275326044285,45.038275326044285 0 0,0 0.7275132860626238,0.267949282994048 l -8.501764001123297 22.484632296746895" fill="#ffc712" stroke="none" /><path d="M 107.76421540070413 80.48803036053334 l 17.57627477414029 -44.170302093479684 a68.53883698583019,68.53883698583019 0 0,0 1.0924311570861613,0.44563009828825584 l -18.33398980081484 43.86121110900785" fill="#36ff6b" stroke="none" /><path d="M 108.76106565485865 80.91482961587045 l 22.742005798088172 -49.54135405807293 a75.51187567519224,75.51187567519224 0 0,0 1.1766252869789897,0.5524413490592429 l -23.59140929636676 49.14254772637369" fill="#40ffc8" stroke="none" /><path d="M 109.08828744355905 81.06846463323043 l 7.680064855121914 -15.998109690827112 a38.746067447708384,38.746067447708384 0 0,0 0.5987720084349121,0.29381482410072957 l -7.954308130567258 15.86353970659155" fill="#ff6209" stroke="none" /><path d="M 110.05341064243156 81.56283822128135 l 10.00258923881445 -18.343959334927543 a41.89384204884114,41.89384204884114 0 0,0 0.630155024735713,0.3506805890110551 l -10.316868352622198 18.169063348356307" fill="#ff950d" stroke="none" /><path d="M 110.36928655335952 81.73862282372117 l 12.265640570148625 -21.601051104869175 a45.8405182601178,45.8405182601178 0 0,0 0.6828125665356014,0.3955291110389936 l -12.635649869149555 21.38671783644013" fill="#ffd313" stroke="none" /><line stroke="#e1ed5e" stroke-width="0.3" x1="143.23703022742887" x2="145.7803849466894" y1="26.81831364943548" y2="22.513508569990506" /><path d="M 143.74570117128098 25.957352633546492 a86.0,86.0 0 0,1 28.547481713284135,27.462654790039103" fill="none" id="id74" stroke="none" /><text fill="#e1ed5e" style="font-size:6.75px; font-family:Arial;" text-anchor="middle"><textPath startOffset="19.985693538727396" xlink:href="#id74">February</textPath></text><path d="M 110.99172775467656 82.1063720568725 l 32.97518326402967 -53.68088382938249 a84.0,84.0 0 0,0 1.225523390510947,0.7674226347082231 l -33.894325806912875 53.10531685335132" fill="#4dd2ff" stroke="none" /><path d="M 111.60114157652 82.49532879139004 l 6.907242642912653 -10.422164976159626 a33.503260523493836,33.503260523493836 0 0,0 0.47797236071016086,0.32272907157414404 l -7.0856196980293555 10.301723992286812" fill="#ff0701" stroke="none" /><path d="M 111.90073688211348 82.69761687909136 l 13.735737417451395 -19.970275252631048 a45.2380357303768,45.2380357303768 0 0,0 0.6377892231507971,0.4468121092412764 l -14.077457780185844 19.730878300625836" fill="#ffca12" stroke="none" /><path d="M 112.19680574252982 82.90503203632743 l 27.40522514396595 -38.41099512142915 a68.18528278404102,68.18528278404102 0 0,0 0.9495764431397226,0.6899076695330687 l -28.06234690345946 37.93356821707941" fill="#35ff66" stroke="none" /><path d="M 112.77801427241765 83.33499621200491 l 8.229485470870262 -10.732841865839871 a34.52473015007656,34.52473015007656 0 0,0 0.46849638736559496,0.36566886150540706 l -8.413014413395288 10.58959461511124" fill="#ff1902" stroke="none" /><path d="M 113.06298171725822 83.55741782278167 l 30.25342343695306 -38.080463692839935 a69.63528908845183,69.63528908845183 0 0,0 0.9321068144163325,0.7536988869073706 l -30.904433649933885 37.554058708668435" fill="#37ff7a" stroke="none" /><path d="M 113.34407831869373 83.78471172551755 l 20.62330292836809 -25.06076434570888 a53.45554703384907,53.45554703384907 0 0,0 0.7054667603885085,0.5908081236874582 l -21.051627225715716 24.702055064627604" fill="#bcff1f" stroke="none" /><path d="M 114.42810811169701 84.74124197986012 l 15.335582585992082 -16.218477292100168 a43.32082209342103,43.32082209342103 0 0,0 0.537419050277216,0.5169967005701263 l -15.612484879881716 15.952097504767739" fill="#ffac0f" stroke="none" /><path d="M 114.68862486808459 84.99185889309783 l 22.18720530494344 -22.66983539813294 a52.72055352956741,52.72055352956741 0 0,0 0.6431008766494036,0.6403391971082855 l -22.574141981760167 22.284560350374534" fill="#c6ff1e" stroke="none" /><path d="M 115.19652480421416 85.50635884689758 l 28.125570309393765 -26.82468054654584 a59.866581939410196,59.866581939410196 0 0,0 0.7048083513026239,0.7518404078284935 l -28.583145982666853 26.33657072183929" fill="#67ff28" stroke="none" /><path d="M 115.9244219780498 86.31012108654704 l 28.307561896471405 -24.335394730931835 a58.330007999367275,58.330007999367275 0 0,0 0.6479891324506637,0.7670147465279951 l -28.722261642409187 23.844521034774733" fill="#7aff26" stroke="none" /><path d="M 116.15771136456269 86.58626213691792 l 30.530148340053017 -25.345384473982715 a60.67969848423304,60.67969848423304 0 0,0 0.6602572668569571,0.8093973394686191 l -30.96190409898638 24.816102964905994" fill="#5cff2a" stroke="none" /><path d="M 116.60985879189232 87.15038557335679 l 18.689883064033605 -14.458749713700618 a44.6297941639509,44.6297941639509 0 0,0 0.4648385603095955,0.6116730576038508 l -18.935997564567312 14.134891880215735" fill="#ffc111" stroke="none" /><path d="M 116.82858285166822 87.43820079747576 l 17.970878322801095 -13.414472684587633 a43.42544414495441,43.42544414495441 0 0,0 0.44198290390371403,0.6028641842142881 l -18.199123839218437 13.103146056701851" fill="#ffae10" stroke="none" /><path d="M 117.2510076193507 88.02491185347247 l 16.081138757217563 -11.163003249630972 a40.57589500585239,40.57589500585239 0 0,0 0.3933456907993225,0.5771862649390794 l -16.27090891368562 10.884538961421486" fill="#ff800b" stroke="none" /><path d="M 117.65298651832404 88.62581576622439 l 46.549249625023535 -29.99264405654202 a76.37500643932404,76.37500643932404 0 0,0 0.7025496943149923,1.1112648987322908 l -47.05862691558448 29.186931510095523" fill="#41ffd3" stroke="none" /><line stroke="#e1ed5e" stroke-width="0.3" x1="172.23445277983987" x2="176.4835382374775" y1="55.19839476539836" y2="52.563006222186495" /><path d="M 173.08426987136738 54.67131705675599 a86.0,86.0 0 0,1 12.851231095245387,41.99856678651699" fill="none" id="id75" stroke="none" /><text fill="#e1ed5e" style="font-size:6.75px; font-family:Arial;" text-anchor="middle"><textPath startOffset="22.20632615414155" xlink:href="#id75">March</textPath></text><path d="M 118.03404312379186 89.2402003453031 l 28.044483630802294 -16.732411207820842 a53.65680092945337,53.65680092945337 0 0,0 0.46640618612110774,0.7972393598675284 l -28.328349491393727 16.24719243559942" fill="#b9ff1f" stroke="none" /><path d="M 118.21658344932153 89.55222093294921 l 18.354052301251297 -10.526621743426357 a42.15847350841371,42.15847350841371 0 0,0 0.355621496990042,0.6326109618323001 l -18.532531439533773 10.209127271659263" fill="#ff990e" stroke="none" /><path d="M 118.56541770881063 90.18545643968196 l 20.209771734209298 -10.683825602014343 a43.85998694319623,43.85998694319623 0 0,0 0.3471007662704608,0.6704882004795765 l -20.390681933639875 10.334364679274422" fill="#ffb410" stroke="none" /><path d="M 118.73160827565052 90.50648371742162 l 39.44534719562261 -19.99161205823349 a65.22216602644107,65.22216602644107 0 0,0 0.49891847169705517,1.0057891945234518 l -39.783625680273076 19.309663275211086" fill="#31ff3c" stroke="none" /><path d="M 118.89224826269711 90.83032412892265 l 15.059407241963147 -7.309340915872695 a37.739540349237274,37.739540349237274 0 0,0 0.2786288809203651,0.586863482442061 l -15.182994316725267 7.049035017790094" fill="#ff5107" stroke="none" /><path d="M 119.196687751892 91.48605970444005 l 44.38671891871973 -19.685993733608274 a69.55635041525564,69.55635041525564 0 0,0 0.47599494019572125,1.0986619491511571 l -44.71900456875813 18.919032639870515" fill="#37ff79" stroke="none" /><path d="M 119.47837535516314 92.15188598940014 l 24.523175530739245 -9.880735634154343 a47.43889322160622,47.43889322160622 0 0,0 0.2986536985890296,0.7600410871929544 l -24.689622779209976 9.457145542065604" fill="#ffec16" stroke="none" /><path d="M 119.7369772167798 92.82701384747503 l 41.632258679618346 -15.130362249866474 a65.29641999731854,65.29641999731854 0 0,0 0.37482296499169016,1.0596749962348013 l -41.88653472541984 14.411489627205057" fill="#31ff3d" stroke="none" /><path d="M 120.08093135843002 93.85539295169968 l 54.07247313827291 -16.54575147108305 a77.54727440851674,77.54727440851674 0 0,0 0.3795905954407679,1.2797907832330846 l -54.34926963082538 15.612531301103434" fill="#43ffe1" stroke="none" /><path d="M 120.28053869075195 94.5502522615342 l 23.878751981352238 -6.4166527621429275 a45.72586153922346,45.72586153922346 0 0,0 0.1977179026739113,0.7618877332110777 l -23.98566621589645 6.004668603383" fill="#ffd113" stroke="none" /><path d="M 120.45610955862082 95.25157060432595 l 34.91239671714543 -8.104133895551186 a56.840653324574994,56.840653324574994 0 0,0 0.2130323077673974,0.9549820642834514 l -35.04672341191486 7.501973661717771" fill="#8eff24" stroke="none" /><path d="M 120.53481517161879 95.60439243477599 l 30.90734975994515 -6.61591445018737 a52.60750849396041,52.60750849396041 0 0,0 0.18192353842805647,0.8871237822048319 l -31.0166525942882 6.082915011819127" fill="#c7ff1e" stroke="none" /><path d="M 120.67395015179393 96.31383870115 l 59.66367425654077 -10.638021538064377 a81.60463289250194,81.60463289250194 0 0,0 0.23466437484303668,1.3850024239122154 l -59.837950492904035 9.609433325836324" fill="#49edff" stroke="none" /><path d="M 120.73433829027371 96.67025291283417 l 11.942527949436977 -1.9178619108229735 a33.09554331694401,33.09554331694401 0 0,0 0.08548753230326558,0.5632560265400992 l -11.973771375179542 1.712006771890792" fill="#ff0000" stroke="none" /><path d="M 120.87857604477298 97.74499172005257 l 44.336134426922406 -4.788561730415623 a65.59398097690018,65.59398097690018 0 0,0 0.11158121611619469,1.123607618852324 l -44.41199276872083 4.024678580858864" fill="#31ff41" stroke="none" /><path d="M 120.94382443527127 98.46500227214037 l 20.983141768915683 -1.5378793418645733 a42.03942279066961,42.03942279066961 0 0,0 0.046682594952091455,0.7221590817032587 l -21.00650495487219 1.1764611959082794" fill="#ff980e" stroke="none" /><path d="M 120.96714384426684 98.82574320788733 l 27.994199960109633 -1.5678043555706986 a49.03806772771527,49.03806772771527 0 0,0 0.039945923715363374,0.8431953147212903 l -28.017039492058494 1.0856979342264086" fill="#fbff18" stroke="none" /><path d="M 120.98425023603335 99.18683210126433 l 21.35595784823287 -0.8275720682702702 a42.37198659796698,42.37198659796698 0 0,0 0.021969482695237,0.7290601747977773 l -21.367039025383754 0.4598417460474937" fill="#ff9d0e" stroke="none" /><line stroke="#e1ed5e" stroke-width="0.3" x1="184.98032266829074" x2="189.97916517819016" y1="98.17113171792111" y2="98.06355123074" /><path d="M 185.9800911702706 98.14961562048488 a86.0,86.0 0 0,1 -9.607161424134198,41.387399972396054" fill="none" id="id76" stroke="none" /><text fill="#e1ed5e" style="font-size:6.75px; font-family:Arial;" text-anchor="middle"><textPath startOffset="21.466115282336823" xlink:href="#id76">April</textPath></text><path d="M 120.99980553446 99.90962569577887 l 25.857372524536494 -0.11127922337456268 a46.85761197284486,46.85761197284486 0 0,0 -0.003471262569217657,0.806599171532998 l -25.855456964677774 -0.33382942636212004" fill="#ffe315" stroke="none" /><path d="M 120.99824983174949 100.27111621757518 l 48.89253647416316 0.6312697326083531 a69.89661158355129,69.89661158355129 0 0,0 -0.025888164925106844,1.2029212984789555 l -48.87442624655304 -1.4727808468774233" fill="#38ff7e" stroke="none" /><path d="M 120.9904718944345 100.63252640178507 l 19.434987240690084 0.5856534626718851 a40.44380927246834,40.44380927246834 0 0,0 -0.026958431866061346,0.69567733936388 l -19.42202667597282 -0.9201080490497713" fill="#ff7e0b" stroke="none" /><path d="M 120.95626037817324 101.35467743843564 l 29.260279285146368 1.8914748850514524 a50.3213509423687,50.3213509423687 0 0,0 -0.06331729831223597,0.8639142296427372 l -29.223385428169795 -2.39486225119096" fill="#e8ff1a" stroke="none" /><path d="M 120.92983693683757 101.71520430193887 l 20.19073943931691 1.6546351149392111 a41.25842482696957,41.25842482696957 0 0,0 -0.06409870318818192,0.7073238484227985 l -20.159266139851653 -2.00194035191058" fill="#ff8b0c" stroke="none" /><path d="M 120.81339534386255 102.79330883721812 l 49.46108110320786 6.638036354058541 a70.90452955930863,70.90452955930863 0 0,0 -0.1727570258154032,1.2082622361855955 l -49.339490026375856 -7.488444062224546" fill="#39ff8b" stroke="none" /><path d="M 120.64145759157962 103.86396538481128 l 23.96809624386889 4.486693530010899 a45.38442241242559,45.38442241242559 0 0,0 -0.15035225281396286,0.7666428978932325 l -23.887314058079262 -4.898600154972077" fill="#ffcc13" stroke="none" /><path d="M 120.5718875245553 104.21870165774334 l 23.58921911725087 4.837469467788582 a45.08012394929604,45.08012394929604 0 0,0 -0.16243004347832093,0.7588190873848735 l -23.502455035048104 -5.2428023745896235" fill="#ffc812" stroke="none" /><line stroke="#e1ed5e" stroke-width="0.3" x1="174.80103733775053" x2="179.2010983576182" y1="140.37084112569926" y2="142.7455964860345" /><path d="M 175.68104954172406 140.8457921977663 a86.0,86.0 0 0,1 -30.038265399797805,32.042727171017184" fill="none" id="id77" stroke="none" /><text fill="#e1ed5e" style="font-size:6.75px; font-family:Arial;" text-anchor="middle"><textPath startOffset="22.206326154141568" xlink:href="#id77">May</textPath></text><line stroke="#e1ed5e" stroke-width="0.3" x1="143.8653032363475" x2="146.44561519142675" y1="172.8068346515853" y2="177.08958963109032" /><path d="M 144.38136562736335 173.6633856474863 a86.0,86.0 0 0,1 -40.68145358897372,12.25698825130547" fill="none" id="id78" stroke="none" /><text fill="#e1ed5e" style="font-size:6.75px; font-family:Arial;" text-anchor="middle"><textPath startOffset="21.466115282336833" xlink:href="#id78">June</textPath></text><line stroke="#e1ed5e" stroke-width="0.3" x1="102.19456741930631" x2="102.32365962044197" y1="184.97166512339345" y2="189.96999836594603" /><path d="M 102.22038585953345 185.97133177190398 a86.0,86.0 0 0,1 -42.740103519485714,-10.115201625700543" fill="none" id="id79" stroke="none" /><text fill="#e1ed5e" style="font-size:6.75px; font-family:Arial;" text-anchor="middle"><textPath startOffset="22.20632615414155" xlink:href="#id79">July</textPath></text><line stroke="#e1ed5e" stroke-width="0.3" x1="58.666819895761336" x2="56.23545636021788" y1="174.27360380694188" y2="178.64263932499728" /><path d="M 58.180547188652646 175.14741091055294 a86.0,86.0 0 0,1 -31.652253787137756,-30.449443065178592" fill="none" id="id80" stroke="none" /><text fill="#e1ed5e" style="font-size:6.75px; font-family:Arial;" text-anchor="middle"><textPath startOffset="22.20632615414155" xlink:href="#id80">August</textPath></text><line stroke="#e1ed5e" stroke-width="0.3" x1="26.63291911575756" x2="22.317208475507996" y1="142.92168965132927" y2="145.44649492493687" /><path d="M 25.769776987707644 143.4266507060508 a86.0,86.0 0 0,1 -11.730757126820373,-40.83630448921669" fill="none" id="id81" stroke="none" /><text fill="#e1ed5e" style="font-size:6.75px; font-family:Arial;" text-anchor="middle"><textPath startOffset="21.46611528233685" xlink:href="#id81">September</textPath></text><line stroke="#e1ed5e" stroke-width="0.3" x1="15.007084014347285" x2="10.007500721073583" y1="101.09737516637583" y2="101.16192664675087" /><path d="M 14.007167355692545 101.11028546245083 a86.0,86.0 0 0,1 10.666146001902534,-42.60595125391555" fill="none" id="id82" stroke="none" /><text fill="#e1ed5e" style="font-size:6.75px; font-family:Arial;" text-anchor="middle"><textPath startOffset="22.20632615414155" xlink:href="#id82">October</textPath></text><line stroke="#e1ed5e" stroke-width="0.3" x1="26.266209847984243" x2="21.928928074336255" y1="57.711370442889674" y2="55.22380399835377" /><path d="M 25.398753493254645 57.213857153982495 a86.0,86.0 0 0,1 29.58750427330803,-30.492523968695096" fill="none" id="id83" stroke="none" /><text fill="#e1ed5e" style="font-size:6.75px; font-family:Arial;" text-anchor="middle"><textPath startOffset="21.46611528233685" xlink:href="#id83">November</textPath></text><line stroke="#e1ed5e" stroke-width="0.3" x1="56.762969772571076" x2="54.21961505331055" y1="26.818313649435495" y2="22.513508569990535" /><path d="M 56.25429882871897 25.957352633546506 a86.0,86.0 0 0,1 42.265352541879196,-11.944610805530505" fill="none" id="id84" stroke="none" /><text fill="#e1ed5e" style="font-size:6.75px; font-family:Arial;" text-anchor="middle"><textPath startOffset="22.20632615414155" xlink:href="#id84">December</textPath></text></svg>