<?xml version="1.0" encoding="utf-8" ?>
<svg baseProfile="full" height="200mm" version="1.1" viewBox="0,0,200,200" width="200mm" xmlns="http://www.w3.org/2000/svg" xmlns:ev="http://www.w3.org/2001/xml-events" xmlns:xlink="http://www.w3.org/1999/xlink"><defs /><rect fill="#1a1a1a" height="200" width="200" x="0" y="0" /><text alignment-baseline="middle" fill="#e1ed5e" style="dominant-baseline: central; font-size:9.0px; font-family:Arial;" text-anchor="middle" x="100.0" y="100.0">2022</text><line stroke="#e1ed5e" stroke-width="0.3" x1="100.0" x2="100.0" y1="15.0" y2="10.0" /><path d="M 100.0 14.0 a86.0,86.0 0 0,1 42.46469731375804,11.215312516191453" fill="none" id="id85" stroke="none" /><text fill="#e1ed5e" style="font-size:6.75px; font-family:Arial;" text-anchor="middle"><textPath startOffset="22.20632615414155" xlink:href="#id85">January</textPath></text><path d="M 100.0 79.0 l 0.0 -20.17987521209723 a41.17987521209723,41.17987521209723 0 0,0 0.7088438584786579,0.0061012428799186915 l -0.3473633792061296 20.17688534582587" fill="#ff970d" stroke="none" /><path d="M 100.36148047927253 79.00311137660856 l 0.8821351465908533 -51.23953985294736 a72.24713266865407,72.24713266865407 0 0,0 1.2432471157140148,0.03210940506262227 l -1.764008897499736 51.21676365574238" fill="#3cffa0" stroke="none" /><path d="M 101.08401301168833 79.027996857942 l 1.3255426844244342 -25.64478935486612 a46.67902421167295,46.67902421167295 0 0,0 0.8020744504145818,0.04838332121932137 l -1.766779183678628 25.618172764266493" fill="#ffeb16" stroke="none" /><path d="M 101.44485096284872 79.0497635885617 l 1.794450437001843 -26.019403973455823 a47.08120847477633,47.08120847477633 0 0,0 0.8080252109993464,0.0627183077586719 l -2.2420658373635307 25.984660403508688" fill="#fff116" stroke="none" /><path d="M 101.80526077348638 79.07773832637324 l 1.4278122217746936 -16.54778155240185 a37.60926615015426,37.60926615015426 0 0,0 0.6445061845721879,0.06120362818406008 l -1.7124435334371257 16.520752379702614" fill="#ff5e08" stroke="none" /><path d="M 102.52436894288641 79.15227682838746 l 2.924644709654468 -24.153435833543753 a45.32985838928836,45.32985838928836 0 0,0 0.7738136472088061,0.10046322000808122 l -3.33997308537112 24.099514290371534" fill="#ffd714" stroke="none" /><path d="M 102.88285421437855 79.19881850522331 l 6.2341749156085235 -44.982574298406185 a66.41251950057423,66.41251950057423 0 0,0 1.131008431490102,0.16668124278321303 l -7.007552327527281 44.868598571462" fill="#33ff52" stroke="none" /><path d="M 103.59715602781102 79.31037775812273 l 6.092211495996899 -35.040335613826606 a56.5659972563903,56.5659972563903 0 0,0 0.9578640287643959,0.17504352874390325 l -6.694470645864197 34.93027660373197" fill="#8aff24" stroke="none" /><path d="M 104.66035177308747 79.52364482259891 l 8.651335386025552 -38.011683398250746 a59.9837617313972,59.9837617313972 0 0,0 1.0048031687613992,0.2378044461574735 l -9.304362241749475 37.8571330399524" fill="#5fff29" stroke="none" /><path d="M 105.01212808612495 79.60689891045804 l 3.9588863733366857 -16.107722832734584 a37.58708883961227,37.58708883961227 0 0,0 0.626972529558213,0.1598292579100934 l -4.235567791579924 16.037190578655622" fill="#ff5d08" stroke="none" /><path d="M 105.36241919743992 79.69619591428918 l 16.08725759231978 -60.91141225713248 a84.0,84.0 0 0,0 1.3948084431051566,0.3812538366948255 l -17.13336392464865 60.62547187961136" fill="#4dd2ff" stroke="none" /><path d="M 106.0581310904928 79.89281104454417 l 7.4902538997714245 -24.86046409979434 a46.9643328190848,46.9643328190848 0 0,0 0.7720368880966735,0.2398756192146404 l -7.917076160578817 24.72784834569718" fill="#ffef16" stroke="none" /><path d="M 106.40334571778207 80.00007090966166 l 11.344248564849082 -35.43212827789347 a58.20386659746778,58.20386659746778 0 0,0 0.9515422483248317,0.31370851875617234 l -11.95247363541633 35.23160603487806" fill="#75ff27" stroke="none" /><path d="M 107.08798089147638 80.2323363322302 l 5.397149866828272 -15.052106511786485 a36.99047019718837,36.99047019718837 0 0,0 0.5975152985175746,0.22006992708305956 l -5.655447491118423 14.956973316897102" fill="#ff5307" stroke="none" /><path d="M 107.4271985657038 80.35727306442388 l 7.9569043604930325 -21.04364091292461 a43.497714325551996,43.497714325551996 0 0,0 0.6980696196069608,0.270840167245267 l -8.31795714509966 20.903558041788795" fill="#ffbb11" stroke="none" /><path d="M 107.76421540070413 80.48803036053334 l 13.363492991829794 -33.58331216701706 a57.14445740428261,57.14445740428261 0 0,0 0.910817697944414,0.3715454082619499 l -13.939594559362597 33.34830587257153" fill="#83ff25" stroke="none" /><path d="M 108.43124777332544 80.76684994638697 l 10.360445302637856 -23.63398686470946 a46.805118910600086,46.805118910600086 0 0,0 0.7351031030478364,0.3298193345964311 l -10.765730524152474 23.4521471995965" fill="#ffed16" stroke="none" /><path d="M 108.76106565485865 80.91482961587045 l 10.782182100177895 -23.48798543479549 a46.844552823110746,46.844552823110746 0 0,0 0.7299313507451793,0.3427125564857104 l -11.184891662222672 23.298907895669775" fill="#ffed16" stroke="none" /><path d="M 109.41281617654863 81.2277094730956 l 17.07548528082573 -34.05420488059231 a59.095420559760896,59.095420559760896 0 0,0 0.9053967522207096,0.46377938228809185 l -17.659142520635196 33.75523297299171" fill="#6aff28" stroke="none" /><path d="M 109.73455568895987 81.39251694778311 l 7.324272493053222 -14.00025647178442 a36.80038445191248,36.80038445191248 0 0,0 0.5587611843883246,0.2984708735749896 l -7.5641787239698575 13.872106871707675" fill="#ff5007" stroke="none" /><path d="M 110.05341064243156 81.56283822128135 l 27.30183529586954 -50.06941147727067 a78.02925719490858,78.02925719490858 0 0,0 1.173693461689248,0.6531591406991178 l -28.159652846630824 49.59203693901137" fill="#44ffe8" stroke="none" /><line stroke="#e1ed5e" stroke-width="0.3" x1="143.23703022742887" x2="145.7803849466894" y1="26.81831364943548" y2="22.513508569990506" /><path d="M 143.74570117128098 25.957352633546492 a86.0,86.0 0 0,1 28.547481713284135,27.462654790039103" fill="none" id="id86" stroke="none" /><text fill="#e1ed5e" style="font-size:6.75px; font-family:Arial;" text-anchor="middle"><textPath startOffset="19.985693538727396" xlink:href="#id86">February</textPath></text><path d="M 110.68208982089419 81.91981866633111 l 13.162691956168025 -22.278773292211575 a46.87663422740157,46.87663422740157 0 0,0 0.6911801983259139,0.41642833582333905 l -13.544234220711578 22.048898346929622" fill="#ffee16" stroke="none" /><path d="M 110.99172775467656 82.1063720568725 l 18.044485407716405 -29.374936817689743 a55.47448863540335,55.47448863540335 0 0,0 0.8093486118966727,0.5068140265199121 l -18.54745317198534 29.059978449846888" fill="#98ff23" stroke="none" /><path d="M 111.90073688211348 82.69761687909136 l 20.2237382478359 -29.403126106161558 a56.6867400238775,56.6867400238775 0 0,0 0.7991989771232025,0.5598899569167837 l -20.726868364542753 29.05065130648084" fill="#89ff24" stroke="none" /><path d="M 112.19680574252982 82.90503203632743 l 28.865361815588543 -40.457513705957695 a70.69929102122677,70.69929102122677 0 0,0 0.984587561410681,0.7153447359099454 l -29.55749469335301 39.95464973523107" fill="#39ff8c" stroke="none" /><path d="M 112.77801427241765 83.33499621200491 l 12.293353326558988 -16.032912108768972 a41.203485013708146,41.203485013708146 0 0,0 0.5591262782325294,0.43640692887455773 l -12.567512159950947 15.81892679067119" fill="#ff970e" stroke="none" /><path d="M 113.06298171725822 83.55741782278167 l 16.02815148598024 -20.174888372457215 a46.76679570491139,46.76679570491139 0 0,0 0.6259993967942544,0.5061813102009738 l -16.373054281338984 19.896000964992112" fill="#ffec16" stroke="none" /><path d="M 114.68862486808459 84.99185889309783 l 19.17765567808848 -19.594820148325287 a48.41786742167476,48.41786742167476 0 0,0 0.5906154412227608,0.5880791508211811 l -19.512106919478565 19.261805146853984" fill="#faff18" stroke="none" /><path d="M 115.19652480421416 85.50635884689758 l 14.922221007288623 -14.232024707843186 a41.62094098422826,41.62094098422826 0 0,0 0.4900027000780986,0.5227007159930755 l -15.164991029337186 13.973054574972055" fill="#ff9e0e" stroke="none" /><path d="M 115.4437574822437 85.77008943001954 l 9.599868595003901 -8.84533907940021 a34.05363935731744,34.05363935731744 0 0,0 0.3934920071533873,0.4345037023391044 l -9.750704242773324 8.678782589791558" fill="#ff2203" stroke="none" /><path d="M 115.9244219780498 86.31012108654704 l 24.690613471918518 -21.225982908224196 a53.56023255506493,53.56023255506493 0 0,0 0.5950016092504014,0.7042942321840453 l -25.052325694656037 20.79782972641104" fill="#b2ff20" stroke="none" /><path d="M 116.38621287248628 86.86637796730983 l 19.822738554233272 -15.888012553606774 a46.404131685476926,46.404131685476926 0 0,0 0.49419498547796437,0.6275774452704885 l -20.0932876203052 15.544442714383248" fill="#ffe715" stroke="none" /><path d="M 116.82858285166822 87.43820079747576 l 16.77436050266663 -12.521324596524995 a41.93233718257386,41.93233718257386 0 0,0 0.4267861047905267,0.582135767302407 l -16.987409219970786 12.230726385551094" fill="#ffa30f" stroke="none" /><path d="M 117.04232023915458 87.72973835380427 l 18.48592343327857 -13.30963824847838 a43.77884622816521,43.77884622816521 0 0,0 0.43505203463640285,0.6153502501239905 l -18.712288087718854 12.989461498022596" fill="#ffbf11" stroke="none" /><path d="M 117.2510076193507 88.02491185347247 l 9.10694072728313 -6.321741915648271 a32.08606288356297,32.08606288356297 0 0,0 0.3110446379099025,0.4564196252403796 l -9.214409830861765 6.164044267137485" fill="#ff0000" stroke="none" /><path d="M 117.45458315368197 88.32363383020206 l 37.67715540192343 -25.204398113422528 a66.33022968660742,66.33022968660742 0 0,0 0.6266733689192651,0.9544665344525998 l -38.105425406200624 24.552113514992254" fill="#33ff51" stroke="none" /><line stroke="#e1ed5e" stroke-width="0.3" x1="172.23445277983987" x2="176.4835382374775" y1="55.19839476539836" y2="52.563006222186495" /><path d="M 173.08426987136738 54.67131705675599 a86.0,86.0 0 0,1 12.851231095245387,41.99856678651699" fill="none" id="id87" stroke="none" /><text fill="#e1ed5e" style="font-size:6.75px; font-family:Arial;" text-anchor="middle"><textPath startOffset="22.20632615414155" xlink:href="#id87">March</textPath></text><path d="M 117.84615892207809 88.93136811851018 l 17.47075477857591 -10.835796889413677 a41.55825300850634,41.55825300850634 0 0,0 0.371816151958207,0.6111679913447867 l -17.654686728820337 10.53346112486181" fill="#ff9d0e" stroke="none" /><path d="M 118.03404312379186 89.2402003453031 l 20.19310952059584 -12.047981218383574 a44.514155811963604,44.514155811963604 0 0,0 0.38693469012354326,0.6613968121437691 l -20.39750388518971 11.69860499388591" fill="#ffcb12" stroke="none" /><path d="M 118.56541770881063 90.18545643968196 l 26.18331750669978 -13.841719817658008 a50.61687564830561,50.61687564830561 0 0,0 0.40057367884075296,0.7737808474791521 l -26.41770061870065 13.388966247918512" fill="#daff1b" stroke="none" /><path d="M 118.73160827565052 90.50648371742162 l 34.23325154571496 -17.350028154139387 a59.37888727336457,59.37888727336457 0 0,0 0.45422017535401543,0.9156801566228977 l -34.52683173402238 16.75818840901754" fill="#67ff28" stroke="none" /><path d="M 119.04729006885535 91.15688171328212 l 31.72622878230678 -14.729591080893979 a55.97877136432357,55.97877136432357 0 0,0 0.3982427971937372,0.877475214533214 l -31.975073896463865 14.181293857518702" fill="#92ff23" stroke="none" /><line stroke="#e1ed5e" stroke-width="0.3" x1="184.98032266829074" x2="189.97916517819016" y1="98.17113171792111" y2="98.06355123074" /><path d="M 185.9800911702706 98.14961562048488 a86.0,86.0 0 0,1 -9.607161424134198,41.387399972396054" fill="none" id="id88" stroke="none" /><text fill="#e1ed5e" style="font-size:6.75px; font-family:Arial;" text-anchor="middle"><textPath startOffset="21.466115282336823" xlink:href="#id88">April</textPath></text><line stroke="#e1ed5e" stroke-width="0.3" x1="174.80103733775053" x2="179.2010983576182" y1="140.37084112569926" y2="142.7455964860345" /><path d="M 175.68104954172406 140.8457921977663 a86.0,86.0 0 0,1 -30.038265399797805,32.042727171017184" fill="none" id="id89" stroke="none" /><text fill="#e1ed5e" style="font-size:6.75px; font-family:Arial;" text-anchor="middle"><textPath startOffset="22.206326154141568" xlink:href="#id89">May</textPath></text><line stroke="#e1ed5e" stroke-width="0.3" x1="143.8653032363475" x2="146.44561519142675" y1="172.8068346515853" y2="177.08958963109032" /><path d="M 144.38136562736335 173.6633856474863 a86.0,86.0 0 0,1 -40.68145358897372,12.25698825130547" fill="none" id="id90" stroke="none" /><text fill="#e1ed5e" style="font-size:6.75px; font-family:Arial;" text-anchor="middle"><textPath startOffset="21.466115282336833" xlink:href="#id90">June</textPath></text><line stroke="#e1ed5e" stroke-width="0.3" x1="102.19456741930631" x2="102.32365962044197" y1="184.97166512339345" y2="189.96999836594603" /><path d="M 102.22038585953345 185.97133177190398 a86.0,86.0 0 0,1 -42.740103519485714,-10.115201625700543" fill="none" id="id91" stroke="none" /><text fill="#e1ed5e" style="font-size:6.75px; font-family:Arial;" text-anchor="middle"><textPath startOffset="22.20632615414155" xlink:href="#id91">July</textPath></text><line stroke="#e1ed5e" stroke-width="0.3" x1="58.666819895761336" x2="56.23545636021788" y1="174.27360380694188" y2="178.64263932499728" /><path d="M 58.180547188652646 175.14741091055294 a86.0,86.0 0 0,1 -31.652253787137756,-30.449443065178592" fill="none" id="id92" stroke="none" /><text fill="#e1ed5e" style="font-size:6.75px; font-family:Arial;" text-anchor="middle"><textPath startOffset="22.20632615414155" xlink:href="#id92">August</textPath></text><line stroke="#e1ed5e" stroke-width="0.3" x1="26.63291911575756" x2="22.317208475507996" y1="142.92168965132927" y2="145.44649492493687" /><path d="M 25.769776987707644 143.4266507060508 a86.0,86.0 0 0,1 -11.730757126820373,-40.83630448921669" fill="none" id="id93" stroke="none" /><text fill="#e1ed5e" style="font-size:6.75px; font-family:Arial;" text-anchor="middle"><textPath startOffset="21.46611528233685" xlink:href="#id93">September</textPath></text><line stroke="#e1ed5e" stroke-width="0.3" x1="15.007084014347285" x2="10.007500721073583" y1="101.09737516637583" y2="101.16192664675087" /><path d="M 14.007167355692545 101.11028546245083 a86.0,86.0 0 0,1 10.666146001902534,-42.60595125391555" fill="none" id="id94" stroke="none" /><text fill="#e1ed5e" style="font-size:6.75px; font-family:Arial;" text-anchor="middle"><textPath startOffset="22.20632615414155" xlink:href="#id94">October</textPath></text><line stroke="#e1ed5e" stroke-width="0.3" x1="26.266209847984243" x2="21.928928074336255" y1="57.711370442889674" y2="55.22380399835377" /><path d="M 25.398753493254645 57.213857153982495 a86.0,86.0 0 0,1 29.58750427330803,-30.492523968695096" fill="none" id="id95" stroke="none" /><text fill="#e1ed5e" style="font-size:6.75px; font-family:Arial;" text-anchor="middle"><textPath startOffset="21.46611528233685" xlink:href="#id95">November</textPath></text><line stroke="#e1ed5e" stroke-width="0.3" x1="56.762969772571076" x2="54.21961505331055" y1="26.818313649435495" y2="22.513508569990535" /><path d="M 56.25429882871897 25.957352633546506 a86.0,86.0 0 0,1 42.265352541879196,-11.944610805530505" fill="none" id="id96" stroke="none" /><text fill="#e1ed5e" style="font-size:6.75px; font-family:Arial;" text-anchor="middle"><textPath startOffset="22.20632615414155" xlink:href="#id96">December</textPath></text></svg>