<?xml version="1.0" encoding="utf-8" ?>
<svg baseProfile="full" height="200mm" version="1.1" viewBox="0,0,200,200" width="200mm" xmlns="http://www.w3.org/2000/svg" xmlns:ev="http://www.w3.org/2001/xml-events" xmlns:xlink="http://www.w3.org/1999/xlink"><defs /><rect fill="#1a1a1a" height="200" width="200" x="0" y="0" /><text alignment-baseline="middle" fill="#e1ed5e" style="dominant-baseline: central; font-size:9.0px; font-family:Arial;" text-anchor="middle" x="100.0" y="100.0">2016</text><line stroke="#e1ed5e" stroke-width="0.3" x1="100.0" x2="100.0" y1="15.0" y2="10.0" /><path d="M 100.0 14.0 a86.0,86.0 0 0,1 42.35913384403234,11.155469271406648" fill="none" id="id13" stroke="none" /><text fill="#e1ed5e" style="font-size:6.75px; font-family:Arial;" text-anchor="middle"><textPath startOffset="22.145653131862478" xlink:href="#id13">January</textPath></text><path d="M 101.08105385017728 79.02784411241856 l 0.5746529001878317 -11.14811274388753 a32.1629137641622,32.1629137641622 0 0,0 0.5511431509481111,0.0331554033518624 l -0.7659404032684051 11.136605362710977" fill="#ff6d0a" stroke="none" /><path d="M 101.44090949804482 79.04949213459386 l 0.44663341556544406 -6.493951839760874 a27.509292734624346,27.509292734624346 0 0,0 0.470842511458495,0.036446188203047444 l -0.5580449217991725 6.485327884562773" fill="#ff2904" stroke="none" /><path d="M 101.80034050326958 79.07731436759882 l 0.924207937456556 -10.74069716215118 a31.78038662760757,31.78038662760757 0 0,0 0.5431426017353073,0.05143616908756746 l -1.1084501025768763 10.723249237558429" fill="#ff6809" stroke="none" /><path d="M 102.87502721639298 79.19773525538626 l 3.967972687210469 -28.710273721271797 a49.98317830046936,49.98317830046936 0 0,0 0.848940230557729,0.1247649790295807 l -4.46023802337588 28.637927668943334" fill="#aaff21" stroke="none" /><path d="M 103.94208987418118 79.37332000966035 l 2.7522077732768504 -14.400714042091328 a35.66135097968028,35.66135097968028 0 0,0 0.6003053762871919,0.12007788779003484 l -2.9990096350949993 14.351346757638435" fill="#ff9e0e" stroke="none" /><path d="M 104.29559338865022 79.4440306129975 l 2.006518668651218 -9.60191819743069 a30.809329754769003,30.809329754769003 0 0,0 0.5167716123049543,0.11262796767385945 l -2.1710526975753064 9.566058771623112" fill="#ff5a08" stroke="none" /><path d="M 104.9986988182912 79.60360301121754 l 1.5348872799362006 -6.262863883708284 a27.448204632916635,27.448204632916635 0 0,0 0.45667892424796563,0.11608599671479156 l -1.6421714974095605 6.235592655158225" fill="#ff2903" stroke="none" /><path d="M 105.3480935250658 79.69241777938227 l 4.156330089457709 -15.782262339298065 a37.32038248200567,37.32038248200567 0 0,0 0.6181296738796498,0.1684739913164645 l -4.426641164272051 15.708587853837459" fill="#ffb510" stroke="none" /><path d="M 106.04205211174951 79.88797359093562 l 2.981625933394361 -9.924863010990324 a31.363059345271246,31.363059345271246 0 0,0 0.514293488921291,0.15932943751315115 l -3.1515600551872827 9.872216985670525" fill="#ff6209" stroke="none" /><path d="M 106.38641147887787 79.99465700312896 l 3.287717451208313 -10.298728089436755 a31.810776396685547,31.810776396685547 0 0,0 0.5187841720779371,0.17053466172500856 l -3.464024360933993 10.240772506309726" fill="#ff6809" stroke="none" /><path d="M 108.73861861582097 80.90454125486305 l 7.448179385311116 -16.2756161392708 a38.89891216998021,38.89891216998021 0 0,0 0.6048063734104572,0.2830799212201528 l -7.726474472593078 16.145359986480113" fill="#ffca12" stroke="none" /><path d="M 109.06512990194946 81.05736502329252 l 6.180824590895467 -12.915546202510775 a35.318307383647294,35.318307383647294 0 0,0 0.5446415171240969,0.26641145835986635 l -6.401626357281631 12.807540994053689" fill="#ff9a0e" stroke="none" /><path d="M 110.02825361518725 81.54914285379988 l 13.774207949253515 -25.34299120525235 a49.844341002331404,49.844341002331404 0 0,0 0.7482722946911508,0.4150540282492282 l -14.207224432100766 25.102804261569975" fill="#abff21" stroke="none" /><line stroke="#e1ed5e" stroke-width="0.3" x1="143.13028292997686" x2="145.6673583964461" y1="26.7553504044142" y2="22.446841604673864" /><path d="M 143.63769802327073 25.89364864446614 a86.0,86.0 0 0,1 29.32050498858742,28.57503671076993" fill="none" id="id14" stroke="none" /><text fill="#e1ed5e" style="font-size:6.75px; font-family:Arial;" text-anchor="middle"><textPath startOffset="20.669276256404974" xlink:href="#id14">February</textPath></text><path d="M 110.65571695917076 81.90426304109057 l 5.034636741280234 -8.5499138634176 a30.922126495288666,30.922126495288666 0 0,0 0.4550960189181521,0.27327208338965825 l -5.180665516755821 8.462227779492022" fill="#ff5b08" stroke="none" /><path d="M 111.27062007382361 82.28071324371311 l 6.0701070140684035 -9.543216444091968 a32.31013612919976,32.31013612919976 0 0,0 0.4654419239435662,0.3016938317904274 l -6.233034570268978 9.437608770597645" fill="#ff6f0a" stroke="none" /><path d="M 111.5731344415666 82.4767994020092 l 3.617328454891765 -5.477096327182047 a27.563813626833163,27.563813626833163 0 0,0 0.39259233190420306,0.2641536417442383 l -3.7108170748929687 5.41419301138069" fill="#ff2a04" stroke="none" /><path d="M 113.03279911837588 83.53348406188908 l 2.8628567033444883 -3.61712592252587 a25.612976093943377,25.612976093943377 0 0,0 0.3424201574897027,0.2758294402225686 l -2.9245276311894504 3.567448188509893" fill="#ff0d01" stroke="none" /><path d="M 113.86319453409587 84.22622945171908 l 6.686608537240302 -7.608133071580214 a31.128890490333454,31.128890490333454 0 0,0 0.39835340718751616,0.3562100730760788 l -6.816226971251194 7.492227468620748" fill="#ff5e08" stroke="none" /><path d="M 114.13192950727249 84.46653392183569 l 3.812622097509719 -4.190739558249972 a26.665543690017806,26.665543690017806 0 0,0 0.33594804724311766,0.3109484971151042 l -3.8839999160668017 4.124673315002493" fill="#ff1d02" stroke="none" /><path d="M 114.39649973595853 84.71141617570332 l 33.21843980838877 -35.27683192702755 a69.4553362810671,69.4553362810671 0 0,0 0.8610064303542381,0.8248246835259464 l -33.81911872460832 34.70139511319602" fill="#3aff94" stroke="none" /><path d="M 115.8921839302757 86.27271002978787 l 6.343506221264823 -5.479369588798617 a29.382336325266163,29.382336325266163 0 0,0 0.3264313715022407,0.3845353348296336 l -6.436632156274175 5.369667471519431" fill="#ff4506" stroke="none" /><path d="M 116.35404254752997 86.82634096563983 l 8.028804780489638 -6.467436801892521 a31.30967724954021,31.30967724954021 0 0,0 0.3335726593571618,0.42145815813873094 l -8.138643870488359 6.328658699839112" fill="#ff6109" stroke="none" /><path d="M 116.7966241395341 87.39550010848427 l 9.024247795532892 -6.771963783608272 a32.28257691140115,32.28257691140115 0 0,0 0.32881800018945345,0.4461047685824239 l -9.139167815306172 6.616052705756974" fill="#ff6f0a" stroke="none" /><path d="M 117.01052211995028 87.68569379921539 l 5.3920937279191605 -3.9034600326025024 a27.65670151026695,27.65670151026695 0 0,0 0.27509844618849527,0.38696041608638493 l -5.458307272637616 3.8103223898066134" fill="#ff2c04" stroke="none" /><path d="M 117.42321728460499 88.27688183743584 l 19.784105360548565 -13.31162902314617 a44.84555078347225,44.84555078347225 0 0,0 0.42427214113407136,0.642402097268383 l -20.00970194060336 12.970047047538728" fill="#e8ff1a" stroke="none" /><path d="M 117.81537515405839 88.88188828441811 l 9.453359833422185 -5.8995957035257645 a32.143215047966166,32.143215047966166 0 0,0 0.28811346654411496,0.4706116950322041 l -9.553241264421702 5.736446892369005" fill="#ff6d0a" stroke="none" /><line stroke="#e1ed5e" stroke-width="0.3" x1="172.87174338648825" x2="177.1583165268699" y1="56.24261187166439" y2="53.66864786411523" /><path d="M 173.72905801456457 55.72781907015455 a86.0,86.0 0 0,1 12.242430191666344,42.057860355516425" fill="none" id="id15" stroke="none" /><text fill="#e1ed5e" style="font-size:6.75px; font-family:Arial;" text-anchor="middle"><textPath startOffset="22.145653131862474" xlink:href="#id15">March</textPath></text><path d="M 118.70294669586156 90.45014215332178 l 9.26528957001235 -4.7309228722502334 a31.40323132682149,31.40323132682149 0 0,0 0.2410274071756661,0.48221627221049956 l -9.345136890399754 4.571174743875983" fill="#ff6209" stroke="none" /><path d="M 118.8641267826498 90.77261029715802 l 8.461652227574023 -4.139018123306886 a30.41971493440599,30.41971493440599 0 0,0 0.2254256481304861,0.4710529041624899 l -8.531457133664421 3.9931527170792918" fill="#ff5407" stroke="none" /><path d="M 119.16976305983485 91.42560881287824 l 11.103510968340144 -4.966459225180729 a33.1636208860451,33.1636208860451 0 0,0 0.22798586693234543,0.5216762801064072 l -11.18713071728946 4.775120875298472" fill="#ff7b0b" stroke="none" /><path d="M 119.58574465831526 92.42381321644754 l 9.650126374131133 -3.732876189839602 a31.346946587538408,31.346946587538408 0 0,0 0.18982713152583397,0.5035390191922005 l -9.712784189471407 3.5666688904532435" fill="#ff6209" stroke="none" /><path d="M 119.83427380445688 93.10060997987247 l 15.150067768715013 -5.269980005229149 a37.040487606434304,37.040487606434304 0 0,0 0.20374839574339515,0.6023459282979945 l -15.238301586030772 5.009132402456992" fill="#ffb110" stroke="none" /><path d="M 119.94978838288452 93.4421083053983 l 9.669738292859725 -3.1786350422704515 a31.178779857347706,31.178779857347706 0 0,0 0.16277592339898309,0.5098932616539258 l -9.722878932035966 3.0121727469251387" fill="#ff5f08" stroke="none" /><path d="M 120.43855184770803 95.1765574152323 l 21.64714221126611 -5.108666619746468 a43.24179040784466,43.24179040784466 0 0,0 0.16429643815932812,0.7239204212572825 l -21.731649510983104 4.736311864550159" fill="#fcff18" stroke="none" /><path d="M 120.65975698304385 96.23510406497455 l 6.631154982517918 -1.2084173332094656 a27.740362664825483,27.740362664825483 0 0,0 0.08135215702594698,0.4692176232312136 l -6.6509219570361 1.0944066770576593" fill="#ff2d04" stroke="none" /><path d="M 120.7213421655516 96.59031103205396 l 9.994134510759919 -1.6445310305313317 a31.128534293250077,31.128534293250077 0 0,0 0.08223641116725504,0.5280167521146709 l -10.020892414065438 1.4727260964852196" fill="#ff5e08" stroke="none" /><path d="M 120.82617615685814 97.30363454192243 l 3.8590377448438664 -0.4996296966972519 a24.891246863147007,24.891246863147007 0 0,0 0.05122608380099548,0.4242254591228846 l -3.8670459149045255 0.4333105606509543" fill="#ff0200" stroke="none" /><path d="M 120.93736805541906 98.37931529534042 l 11.052315415811997 -0.8555191129117895 a32.08537726029894,32.08537726029894 0 0,0 0.03779357799734572,0.5495103295312147 l -11.065372954974407 0.6656653592262407" fill="#ff6c0a" stroke="none" /><line stroke="#e1ed5e" stroke-width="0.3" x1="184.99686870605535" x2="189.99668451229388" y1="99.2704041080226" y2="99.22748670261217" /><path d="M 185.99683186730306 99.26182062694052 a86.0,86.0 0 0,1 -10.086455211305974,41.156179273409016" fill="none" id="id16" stroke="none" /><text fill="#e1ed5e" style="font-size:6.75px; font-family:Arial;" text-anchor="middle"><textPath startOffset="21.40746469413373" xlink:href="#id16">April</textPath></text><path d="M 120.99303781780057 100.54070618675476 l 25.794892655543027 0.6643849340232437 a46.80344733657781,46.80344733657781 0 0,0 -0.027581300496037815,0.8029994701034544 l -25.779686668050143 -1.1070906686908089" fill="#cfff1d" stroke="none" /><path d="M 120.96210409425399 101.26102812881392 l 6.726663232009281 0.4046593562593361 a27.738823890819063,27.738823890819063 0 0,0 -0.03267374404755681,0.4750690675503655 l -6.718725526796659 -0.520071847964045" fill="#ff2d04" stroke="none" /><path d="M 120.86939407059847 102.33845913500097 l 10.471542424473622 1.1733581702096079 a31.5370759769088,31.5370759769088 0 0,0 -0.06490317281868943,0.537491376356311 l -10.449857165395269 -1.3529432234893275" fill="#ff6409" stroke="none" /><path d="M 120.77682067341334 103.0534771498775 l 22.035432479942067 3.238449742759289 a43.272131494638394,43.272131494638394 0 0,0 -0.11431777558662941,0.7340021253050705 l -21.976593212217168 -3.61624004999581" fill="#fbff18" stroke="none" /><path d="M 120.592083275326 104.11899336999214 l 9.954547996224502 1.991188392621148 a31.151741575909348,31.151741575909348 0 0,0 -0.10939051121977976,0.5234731959974644 l -9.918899774180357 -2.1617780399040214" fill="#ff5f08" stroke="none" /><path d="M 120.51834098615036 104.47187691870673 l 9.729476219552806 2.1204940578135543 a30.957871386800804,30.957871386800804 0 0,0 -0.11762389933149903,0.5182726035205177 l -9.691641458663643 -2.287200995273089" fill="#ff5c08" stroke="none" /><path d="M 120.26092885502905 105.52220625578681 l 23.3257175383868 6.35752803994587 a45.17658498339465,45.17658498339465 0 0,0 -0.21035402869510603,0.7464722387790609 l -23.213145017617116 -6.757008202627939" fill="#e3ff1b" stroke="none" /><path d="M 119.94978838288452 106.5578916946017 l 6.5656399026411725 2.158256246177307 a27.911273207978205,27.911273207978205 0 0,0 -0.15353137895229269,0.4538882411342278 l -6.527623102116515 -2.2706461617856952" fill="#ff2f04" stroke="none" /><path d="M 119.83427380445688 106.89939002012753 l 10.508412664899168 3.655371413260186 a32.12602700449235,32.12602700449235 0 0,0 -0.18565757973470853,0.5193172932565567 l -10.444114915120517 -3.8352236628976644" fill="#ff6d0a" stroke="none" /><path d="M 119.4528033332814 107.91128576633889 l 14.008424490741799 5.697104287937311 a36.122597461429976,36.122597461429976 0 0,0 -0.23853669981487113,0.5724012433191867 l -13.908561946390442 -5.936738040697775" fill="#ffa50f" stroke="none" /><path d="M 119.31412917781788 108.2440532568976 l 8.262788965839958 3.5268932737140686 a29.9840223540559,29.9840223540559 0 0,0 -0.20612747184626537,0.4716599944873157 l -8.201027611976727 -3.668215337977229" fill="#ff4e07" stroke="none" /><path d="M 119.0197475246899 108.90220220490707 l 9.033263613399289 4.228023487289749 a30.973767298179627,30.973767298179627 0 0,0 -0.22953145955808218,0.47963247091965483 l -8.959352895881294 -4.382468460274508" fill="#ff5c08" stroke="none" /><path d="M 118.5362547648365 109.86951160357373 l 9.02003202980252 4.802659000545295 a31.21892906787116,31.21892906787116 0 0,0 -0.25592780090775674,0.47087832792130463 l -8.936258879279425 -4.956792161941203" fill="#ff6008" stroke="none" /><line stroke="#e1ed5e" stroke-width="0.3" x1="174.33088141563837" x2="178.70328620479359" y1="141.23008692659167" y2="143.65538615756765" /><path d="M 175.20536237346943 141.71514677278685 a86.0,86.0 0 0,1 -30.301960400862466,31.631185727798858" fill="none" id="id17" stroke="none" /><text fill="#e1ed5e" style="font-size:6.75px; font-family:Arial;" text-anchor="middle"><textPath startOffset="22.145653131862474" xlink:href="#id17">May</textPath></text><path d="M 117.81537515405839 111.11811171558189 l 8.623251795327052 5.38154689322935 a31.164719302058355,31.164719302058355 0 0,0 -0.28713437287587784,0.45142292591256167 l -8.529599730825284 -5.528783493820584" fill="#ff5f08" stroke="none" /><path d="M 117.21940702142032 112.02048342749411 l 43.917506592353675 30.657830406909497 a74.55977922422994,74.55977922422994 0 0,0 -0.741638673184817,1.0432076717900165 l -43.3847528206389 -31.407215305409018" fill="#41ffcc" stroke="none" /><path d="M 116.57777611688842 112.89097897827486 l 4.39870415222614 3.4204589540952575 a26.572085576825064,26.572085576825064 0 0,0 -0.2830984548286167,0.35768564957908355 l -4.339339266755961 -3.495464547589024" fill="#ff1b02" stroke="none" /><path d="M 115.41159269507618 114.26474011684316 l 4.7222651368679 4.370858111359944 a27.434608663510083,27.434608663510083 0 0,0 -0.32287159451977043,0.3428784446104241 l -4.64653770861187 -4.451278015914864" fill="#ff2803" stroke="none" /><path d="M 114.91283532996324 114.78537596483092 l 6.461571851582997 6.406345073593642 a30.09907511756702,30.09907511756702 0 0,0 -0.36693363936725165,0.363797473260362 l -6.350646292085781 -6.516322557082666" fill="#ff5007" stroke="none" /><path d="M 114.13192950727249 115.5334660781643 l 7.437721412662395 8.175358729533169 a32.052429152404954,32.052429152404954 0 0,0 -0.4101718423103393,0.36677819063899775 l -7.296284543528677 -8.301832450055555" fill="#ff6c09" stroke="none" /><path d="M 113.31354834802062 116.24036423190432 l 6.346418997034475 7.741599263087543 a31.010464186847564,31.010464186847564 0 0,0 -0.4145792348277849,0.3339556850530538 l -6.212588991851438 -7.849403241934" fill="#ff5d08" stroke="none" /><path d="M 113.03279911837588 116.46651593811092 l 17.09704364901548 21.601556134180264 a48.54879541748571,48.54879541748571 0 0,0 -0.6579287797978627,0.5116093986174687 l -16.723704924582385 -21.891866584418523" fill="#baff1f" stroke="none" /><path d="M 112.45986205192187 116.90419585922612 l 10.712995328099089 14.53423565289219 a39.055810004363565,39.055810004363565 0 0,0 -0.5430970560238345,0.393160386110577 l -10.461917261701286 -14.715996810375845" fill="#ffcc13" stroke="none" /><path d="M 111.8722381534696 117.32195027204791 l 3.9879458236417906 5.818532137898218 a28.054007948114066,28.054007948114066 0 0,0 -0.39957418623986135,0.2688513449315271 l -3.887475349304926 -5.886133156886867" fill="#ff3204" stroke="none" /><path d="M 110.96478420261333 117.91015095944535 l 9.456912266752221 15.447155473191563 a39.11208993556516,39.11208993556516 0 0,0 -0.5756317057934643,0.34565030008670056 l -9.190347804401322 -15.607219773814187" fill="#ffcd13" stroke="none" /><line stroke="#e1ed5e" stroke-width="0.3" x1="143.1302829299769" x2="145.66735839644613" y1="173.24464959558577" y2="177.55315839532614" /><path d="M 143.63769802327073 174.10635135553383 a86.0,86.0 0 0,1 -40.68552437913181,11.842963189579606" fill="none" id="id18" stroke="none" /><text fill="#e1ed5e" style="font-size:6.75px; font-family:Arial;" text-anchor="middle"><textPath startOffset="21.407464694133747" xlink:href="#id18">June</textPath></text><path d="M 110.34350942703117 118.27599006163325 l 4.943372082805576 8.734464805553062 a31.03632417713311,31.03632417713311 0 0,0 -0.4659229321482254,0.25843959640605246 l -4.792704962501256 -8.818037317392257" fill="#ff5d08" stroke="none" /><path d="M 109.3889696526874 118.78422872680471 l 4.577930933522286 9.158928501402025 a31.239307736653615,31.239307736653615 0 0,0 -0.4817395062220673,0.2356429327677187 l -4.420031178038149 -9.236165184266968" fill="#ff6008" stroke="none" /><path d="M 108.73861861582097 119.09545874513695 l 4.96011344833898 10.838743042576155 a32.91977668261391,32.91977668261391 0 0,0 -0.5158789184397184,0.2307460785031495 l -4.773321127043634 -10.922292871989153" fill="#ff780b" stroke="none" /><path d="M 107.74402155503746 119.51999308798841 l 2.358500308625523 5.944961464168601 a27.395708757927956,27.395708757927956 0 0,0 -0.4386284368125866,0.16967090217113198 l -2.2560996093194072 -5.984572254477773" fill="#ff2803" stroke="none" /><path d="M 107.407793817531 119.65005319985036 l 8.384576710485888 22.241085872202017 a44.76903505379818,44.76903505379818 0 0,0 -0.7214441491515222,0.26492428461115564 l -8.001543409680238 -22.381741005821894" fill="#e8ff1a" stroke="none" /><path d="M 106.0420521117495 120.11202640906438 l 3.141226929678491 10.456122820209348 a31.917775004781884,31.917775004781884 0 0,0 -0.5260961069029458,0.15313890931263072 l -2.961270810393939 -10.508505423824499" fill="#ff6a09" stroke="none" /><path d="M 105.3480935250658 120.30758222061773 l 1.2890080448252617 4.894573501873197 a26.061461400115927,26.061461400115927 0 0,0 -0.43360650781005383,0.11022107868025503 l -1.2047962437898103 -4.915979812388721" fill="#ff1402" stroke="none" /><path d="M 103.58742460773223 120.69131181640829 l 1.1921965172393751 6.876272697541002 a27.97885798298443,27.97885798298443 0 0,0 -0.47393853444908113,0.07798640548882983 l -1.0739804797372217 -6.895725101525502" fill="#ff3004" stroke="none" /><path d="M 103.2317021107853 120.74984581791261 l 1.0204492014538111 6.552015894198027 a27.631005116162353,27.631005116162353 0 0,0 -0.4692993253219385,0.0689708396124914 l -0.907824770524187 -6.5685678071094005" fill="#ff2b04" stroke="none" /><path d="M 102.51750503828377 120.84855314841334 l 1.2747077805020328 10.556409026537603 a31.63309228123395,31.63309228123395 0 0,0 -0.5396667278911903,0.0604707824972832 l -1.0933051510100433 -10.576735569541857" fill="#ff6609" stroke="none" /><path d="M 101.80034050326958 120.92268563240118 l 0.4845435412371673 5.631130427885302 a26.651938812408567,26.651938812408567 0 0,0 -0.4561682456444247,0.03531030722249544 l -0.3878063008175068 -5.638618502102851" fill="#ff1d02" stroke="none" /><path d="M 101.44090949804482 120.95050786540614 l 0.609741029120548 8.865500743651529 a29.88644403337346,29.88644403337346 0 0,0 -0.5121336038136395,0.030808685865503706 l -0.45746307317444335 -8.874661407341724" fill="#ff4c07" stroke="none" /><path d="M 100.72087961077811 120.9876233191556 l 0.23150752886921763 6.740089106156221 a27.74406382642164,27.74406382642164 0 0,0 -0.47612339126732633,0.012263249633106424 l -0.11577082353114745 -6.743070073139373" fill="#ff2d04" stroke="none" /><line stroke="#e1ed5e" stroke-width="0.3" x1="101.45913802915013" x2="101.54496967792366" y1="184.9874750549273" y2="189.98673829345242" /><path d="M 101.47630435890484 185.9873277026323 a86.0,86.0 0 0,1 -42.54439059252881,-10.42667462771756" fill="none" id="id19" stroke="none" /><text fill="#e1ed5e" style="font-size:6.75px; font-family:Arial;" text-anchor="middle"><textPath startOffset="22.145653131862474" xlink:href="#id19">July</textPath></text><path d="M 99.63950707515114 120.99690560180557 l -0.08918201805886067 5.194405452882474 a26.19517097324816,26.19517097324816 0 0,0 -0.4495424216380548,-0.011578618144643928 l 0.17833775376765934 -5.192109117387783" fill="#ff1602" stroke="none" /><path d="M 98.91894614982273 120.97215588758144 l -0.5720728585671078 11.098060625709252 a32.11279519326381,32.11279519326381 0 0,0 -0.5502843199576195,-0.03310373821213844 l 0.7625015306571736 -11.086604909672422" fill="#ff6d0a" stroke="none" /><path d="M 98.19965949673042 120.92268563240118 l -0.8828584674249248 10.260153642207552 a31.298067383504964,31.298067383504964 0 0,0 -0.5348995261497688,-0.050655541259323915 l 1.058857556959709 -10.243486345443044" fill="#ff6108" stroke="none" /><path d="M 97.48249496171623 120.84855314841334 l -0.519027474886871 4.2982920514997485 a25.329515455530025,25.329515455530025 0 0,0 -0.4312315969577091,-0.05583156378351706 l 0.5927368937353741 -4.2887488915158345" fill="#ff0901" stroke="none" /><path d="M 97.12497278360702 120.80226474461374 l -1.5288186379964994 11.061770084390034 a32.16691738250945,32.16691738250945 0 0,0 -0.546339612396804,-0.080293108784508 l 1.7184833560009884 -11.033895902306645" fill="#ff6d0a" stroke="none" /><path d="M 96.41257539226777 120.69131181640829 l -1.9461330816756137 11.224778450363853 a32.39223793779541,32.39223793779541 0 0,0 -0.5470667475755125,-0.09969378516044772 l 2.1385345628021835 -11.189716491272039" fill="#ff710a" stroke="none" /><path d="M 94.30408787586889 120.21278271476187 l -1.6451750762576496 5.838145957915448 a27.065521350837358,27.065521350837358 0 0,0 -0.4461171059649619,-0.12985818776603575 l 1.745152194604218 -5.809044075846897" fill="#ff2303" stroke="none" /><path d="M 93.27111125876986 119.89276391827306 l -5.3766930858480215 15.89523773255798 a37.779970533762594,37.779970533762594 0 0,0 -0.6125648523359676,-0.21308185369196705 l 5.648763710229011 -15.800597446297424" fill="#ffbb11" stroke="none" /><path d="M 92.59220618246901 119.65005319985036 l -2.3270805894206013 6.172857737243937 a27.59692933976941,27.59692933976941 0 0,0 -0.441850148287459,-0.17091712937985712 l 2.4327030002015886 -6.132000719726038" fill="#ff2b04" stroke="none" /><path d="M 91.26138138417905 119.09545874513695 l -4.709305872899346 10.290683226679812 a32.317054522992876,32.317054522992876 0 0,0 -0.5024706207708376,-0.23518162174973953 l 4.885265207541674 -10.208325373359546" fill="#ff6f0a" stroke="none" /><path d="M 90.93487009805054 118.94263497670748 l -4.851231980540375 10.13720901836651 a32.238214200266384,32.238214200266384 0 0,0 -0.49714358337382286,-0.24317783881079574 l 5.024535813176268 -10.052437429458495" fill="#ff6e0a" stroke="none" /><path d="M 89.97174638481275 118.45085714620012 l -10.92083354582022 20.093103685192 a43.86913686695212,43.86913686695212 0 0,0 -0.6585714456134304,-0.3652984793518145 l 11.264149179589753 -19.902672290407036" fill="#f4ff19" stroke="none" /><line stroke="#e1ed5e" stroke-width="0.3" x1="58.13341422392154" x2="55.67067388415222" y1="173.97424548756322" y2="178.32567169271397" /><path d="M 57.64086615596768 174.84453072859336 a86.0,86.0 0 0,1 -31.369924170532247,-30.572349798747897" fill="none" id="id20" stroke="none" /><text fill="#e1ed5e" style="font-size:6.75px; font-family:Arial;" text-anchor="middle"><textPath startOffset="22.145653131862474" xlink:href="#id20">August</textPath></text><path d="M 89.34428304082925 118.09573695890944 l -5.727132619266984 9.725923258298575 a32.286878721107314,32.286878721107314 0 0,0 -0.4751817431284427,-0.28533298366820375 l 5.8932471189528535 -9.626176274094453" fill="#ff6f0a" stroke="none" /><path d="M 88.4268655584334 117.5232005979908 l -6.192161094943821 9.375721119427945 a32.23596927438942,32.23596927438942 0 0,0 -0.4591380031790833,-0.3089285392169285 l 6.35219538621991 -9.268042906153896" fill="#ff6e0a" stroke="none" /><path d="M 87.83215693770417 117.11559508785305 l -10.124710018113872 14.241672592650112 a38.473837334344644,38.473837334344644 0 0,0 -0.5350043383529607,-0.3873018826094579 l 10.367695366840787 -14.065769938667588" fill="#ffc412" stroke="none" /><path d="M 86.96720088162412 116.46651593811092 l -6.602960058931756 8.342624332773342 a31.639476598857197,31.639476598857197 0 0,0 -0.42298850864247034,-0.3407296007769054 l 6.745199337929488 -8.228046438203027" fill="#ff6609" stroke="none" /><path d="M 86.40962598614128 116.0094264158162 l -4.267638489525761 5.027267409837003 a27.59440337614336,27.59440337614336 0 0,0 -0.3584914040339454,-0.3096563365106409 l 4.353309373322569 -4.953266940861639" fill="#ff2b04" stroke="none" /><path d="M 86.13680546590413 115.77377054828092 l -41.58958360228758 47.321311644842766 a84.0,84.0 0 0,0 -1.0749398927065164,-0.9612178804664708 l 42.39578852181747 -46.600398234492914" fill="#4dd2ff" stroke="none" /><path d="M 85.34317274990678 115.03919595460226 l -3.2979693988894985 3.3840071385071133 a25.725262582066595,25.725262582066595 0 0,0 -0.31361309894225675,-0.3109326612116759 l 3.3555744179617175 -3.326894467066778" fill="#ff0f01" stroke="none" /><path d="M 84.58840730492382 114.26474011684316 l -7.078194240974055 6.551470918141315 a30.64482269946989,30.64482269946989 0 0,0 -0.3540240211516355,-0.3891344151259935 l 7.1896159629675696 -6.428998927457648" fill="#ff5708" stroke="none" /><path d="M 83.8745106332314 113.45245675266167 l -5.111833348165365 4.264473187692694 a27.65706930623119,27.65706930623119 0 0,0 -0.301005293356038,-0.367177515118278 l 5.184285460760033 -4.176093390875921" fill="#ff2c04" stroke="none" /><path d="M 83.64595745247003 113.17365903436017 l -8.920333240947576 7.185589021649025 a32.45447662346898,32.45447662346898 0 0,0 -0.3457693284108911,-0.43686825105437616 l 9.042369000000027 -7.031400826679969" fill="#ff710a" stroke="none" /><path d="M 82.98947788004972 112.3143062007846 l -5.5020245729257296 3.9830414867622306 a27.792414437175314,27.792414437175314 0 0,0 -0.27644836911066023,-0.38885925173188907 l 5.569588040566351 -3.8880050083208375" fill="#ff2e04" stroke="none" /><path d="M 82.576782715395 111.72311816256416 l -5.861030224680734 3.943562704633396 a28.064231175435623,28.064231175435623 0 0,0 -0.2655084226208622,-0.40201359221501237 l 5.927863086222323 -3.8423692340793227" fill="#ff3204" stroke="none" /><path d="M 82.18462484594161 111.11811171558189 l -5.838894884513913 3.6439022507352012 a27.882638817002952,27.882638817002952 0 0,0 -0.24992408861329587,-0.4082322162253856 l 5.900586937582613 -3.543132918385259" fill="#ff2f04" stroke="none" /><path d="M 81.99639281039703 110.81064883170644 l -6.360454812962697 3.8192703644737316 a28.419043843022337,28.419043843022337 0 0,0 -0.24755191675540372,-0.42039727466900095 l 6.4250804398478705 -3.7095219215111714" fill="#ff3705" stroke="none" /><line stroke="#e1ed5e" stroke-width="0.3" x1="26.387840678322732" x2="22.057713659400548" y1="142.50000000000003" y2="145.00000000000006" /><path d="M 25.521815274538298 143.00000000000003 a86.0,86.0 0 0,1 -11.493303480769221,-40.785679425670985" fill="none" id="id21" stroke="none" /><text fill="#e1ed5e" style="font-size:6.75px; font-family:Arial;" text-anchor="middle"><textPath startOffset="21.40746469413373" xlink:href="#id21">September</textPath></text><path d="M 81.63589988554817 110.18625677009913 l -5.4333407380007985 3.0137825176176958 a27.213217897250757,27.213217897250757 0 0,0 -0.22308961966395519,-0.41045977307414483 l 5.484275707280084 -2.9200679110689642" fill="#ff2503" stroke="none" /><path d="M 81.4637452351635 109.86951160357371 l -14.336060903977987 7.63314494952661 a37.2415376138791,37.2415376138791 0 0,0 -0.2956125628190271,-0.5668760671829249 l 14.464981535771964 -7.3859226392391815" fill="#ffb410" stroke="none" /><path d="M 81.29705330413844 109.54985784667822 l -4.375837718953047 2.2343339183755986 a25.91326813856275,25.91326813856275 0 0,0 -0.19889060988290833,-0.39791445130349024 l 4.413548242047693 -2.1588876109083555" fill="#ff1101" stroke="none" /><path d="M 80.9802524753101 108.90220220490708 l -6.213624322520413 2.9082899272243274 a27.860559563345525,27.860559563345525 0 0,0 -0.1990246072539459,-0.4349046850727895 l 6.262633394629415 -2.801196259936849" fill="#ff2f04" stroke="none" /><path d="M 80.83023694016515 108.57439118712176 l -3.4397351705183885 1.5385497901078262 a24.76814456993651,24.76814456993651 0 0,0 -0.17027051815258323,-0.3896122672726363 l 3.46563957068794 -1.4792754530593406" fill="#ff0000" stroke="none" /><path d="M 80.5471966667186 107.91128576633889 l -9.764215434817608 3.9710214134935504 a31.540821321128384,31.540821321128384 0 0,0 -0.19967040852797718,-0.5032998638551816 l 9.830944518311709 -3.8028205324248034" fill="#ff6409" stroke="none" /><path d="M 80.41425534168474 107.57618678355246 l -10.294931348417206 3.9823006058819668 a32.03831189920955,32.03831189920955 0 0,0 -0.1940138198077285,-0.5146447072684166 l 10.361775852039372 -3.804987618419405" fill="#ff6b09" stroke="none" /><path d="M 80.05021161711548 106.5578916946017 l -3.741415448963878 1.229877572028013 a24.938373827345888,24.938373827345888 0 0,0 -0.13019646202924454,-0.40783856293765264 l 3.7619766267703776 -1.1654699753989688" fill="#ff0300" stroke="none" /><path d="M 79.73907114497094 105.5222062557868 l -6.444490272364144 1.7564744811081576 a27.679570156333433,27.679570156333433 0 0,0 -0.1210131289121334,-0.45950656128945644 l 6.47369288208101 -1.6455874154458987" fill="#ff2c04" stroke="none" /><path d="M 79.64726062577567 105.17358676015961 l -47.07301505368016 11.965776349052028 a69.57003757337986,69.57003757337986 0 0,0 -0.2842846192631487,-1.1599782589578391 l 47.2714871994596 -11.15594226548609" fill="#3aff95" stroke="none" /><path d="M 79.34024301695615 103.76489593502545 l -6.35055021843936 1.157281797757854 a27.45513665512527,27.45513665512527 0 0,0 -0.08051569531816843,-0.46439313438179575 l 6.369480731249762 -1.0480956304554654" fill="#ff2903" stroke="none" /><path d="M 79.17382384314188 102.69636545807758 l -10.928300908492627 1.4148873448107229 a32.019513008525664,32.019513008525664 0 0,0 -0.06589602624810068,-0.5457136270278479 l 10.95097902100039 -1.2270800408594755" fill="#ff6b09" stroke="none" /><line stroke="#e1ed5e" stroke-width="0.3" x1="15.003131293944662" x2="10.003315487706104" y1="100.72959589197737" y2="100.7725132973878" /><path d="M 14.003168132696942 100.73817937305945 a86.0,86.0 0 0,1 10.791469493833604,-42.45332614584628" fill="none" id="id22" stroke="none" /><text fill="#e1ed5e" style="font-size:6.75px; font-family:Arial;" text-anchor="middle"><textPath startOffset="22.145653131862435" xlink:href="#id22">October</textPath></text><path d="M 79.64726062577567 94.8264132398404 l -9.427888839832104 -2.396532475612793 a30.727715861542087,30.727715861542087 0 0,0 0.13433940699681177,-0.5101086097822471 l 9.385359952030567 2.5580215897678245" fill="#ff5908" stroke="none" /><path d="M 79.73907114497095 94.47779374421319 l -7.345173130521714 -2.001959599257773 a28.61310781182025,28.61310781182025 0 0,0 0.13323013467963524,-0.47278674681954386 l 7.309724503767497 2.12775426998033" fill="#ff3a05" stroke="none" /><path d="M 80.41425534168474 92.42381321644754 l -10.325082079386133 -3.993963556332215 a32.070639766308474,32.070639766308474 0 0,0 0.2030244450103298,-0.5117542268095043 l 10.254998959409672 4.170618800355302" fill="#ff6c09" stroke="none" /><path d="M 80.5471966667186 92.08871423366112 l -8.699649564666744 -3.5380717418415584 a30.39158422197363,30.39158422197363 0 0,0 0.2006917750086037,-0.48158720074526884 l 8.637631945121662 3.686891452028091" fill="#ff5407" stroke="none" /><path d="M 80.83023694016515 91.42560881287825 l -10.340967272223896 -4.625383129072165 a32.32827317890556,32.32827317890556 0 0,0 0.23094015244027413,-0.5046459111437701 l 10.260042654928574 4.802218022430606" fill="#ff700a" stroke="none" /><path d="M 81.1358732173502 90.77261029715801 l -8.950991281512676 -4.378378375680986 a30.96445894779776,30.96445894779776 0 0,0 0.2376597228836873,-0.4754786477042609 l 8.874511645417245 4.531388879549017" fill="#ff5c08" stroke="none" /><path d="M 81.46374523516351 90.13048839642627 l -21.114738092773635 -11.242408742049237 a44.921202291058265,44.921202291058265 0 0,0 0.36825685120358315,-0.6775511285810261 l 20.9186358919547 11.603214704104882" fill="#e7ff1a" stroke="none" /><line stroke="#e1ed5e" stroke-width="0.3" x1="26.387840678322718" x2="22.05771365940052" y1="57.49999999999999" y2="54.99999999999999" /><path d="M 25.521815274538284 56.99999999999999 a86.0,86.0 0 0,1 29.574782752854787,-30.34633250058573" fill="none" id="id23" stroke="none" /><text fill="#e1ed5e" style="font-size:6.75px; font-family:Arial;" text-anchor="middle"><textPath startOffset="21.40746469413373" xlink:href="#id23">November</textPath></text><path d="M 81.99639281039701 89.18935116829357 l -7.391964199107725 -4.438662113181879 a29.622230342312047,29.622230342312047 0 0,0 0.2655167959383151,-0.43370173180334887 l 7.314679438714017 4.564900961109771" fill="#ff4906" stroke="none" /><path d="M 83.2033758604659 87.39550010848427 l -7.994222579323809 -5.9990136587431255 a30.994786617309906,30.994786617309906 0 0,0 0.3230070363582604,-0.42282657925812395 l 7.890063565611242 6.135361151242133" fill="#ff5d08" stroke="none" /><path d="M 84.10781606972428 86.27271002978789 l -4.796709381995715 -4.143283319547495 a27.338392348329837,27.338392348329837 0 0,0 0.30982070990769395,-0.35251909487167704 l 4.724877608129428 4.225014692230473" fill="#ff2703" stroke="none" /><path d="M 84.58840730492382 85.73525988315684 l -8.144582372628546 -7.538503852550317 a32.09789450118569,32.09789450118569 0 0,0 0.3777527321579357,-0.40116031093506194 l 8.01397380673434 7.67720562342989" fill="#ff6c0a" stroke="none" /><path d="M 85.86807049272753 84.46653392183569 l -9.680104024617917 -10.640130027688299 a35.38460221672946,35.38460221672946 0 0,0 0.4528133394084638,-0.4049084802846576 l 9.49602565838606 10.804734037856356" fill="#ff9a0e" stroke="none" /><path d="M 86.96720088162412 83.53348406188908 l -6.9678320642914455 -8.803628192117303 a32.22740188205671,32.22740188205671 0 0,0 0.4367427659941305,-0.33961381645204025 l 6.815679353662071 8.921943060190149" fill="#ff6e0a" stroke="none" /><path d="M 88.12776184653039 82.6780497279521 l -27.27925669645531 -39.801250770591565 a69.25243422683064,69.25243422683064 0 0,0 0.9863647683601975,-0.6636702362137263 l 26.591995639998125 40.2636706808624" fill="#3aff91" stroke="none" /><path d="M 89.03521579738668 82.08984904055464 l -3.404925659895885 -5.561690175342431 a27.521189796035532,27.521189796035532 0 0,0 0.40504277459620813,-0.24321654832084766 l 3.308950128742243 5.619320724199202" fill="#ff2a04" stroke="none" /><line stroke="#e1ed5e" stroke-width="0.3" x1="56.869717070023135" x2="54.33264160355391" y1="26.7553504044142" y2="22.446841604673864" /><path d="M 56.362301976729285 25.89364864446614 a86.0,86.0 0 0,1 42.16139366436587,-11.88097634709845" fill="none" id="id24" stroke="none" /><text fill="#e1ed5e" style="font-size:6.75px; font-family:Arial;" text-anchor="middle"><textPath startOffset="22.145653131862474" xlink:href="#id24">December</textPath></text><path d="M 90.61103034731259 81.2157712731953 l -5.377644945763984 -10.75889223306441 a33.02800179769668,33.02800179769668 0 0,0 0.5093228509304074,-0.24913532888360004 l 5.1921618455715235 10.849621312045224" fill="#ff7a0b" stroke="none" /><path d="M 91.5904679813234 80.7573450057729 l -4.843468059414727 -11.082802780926121 a33.09494523854798,33.09494523854798 0 0,0 0.522529668107517,-0.2230368437803974 l 4.652503316136779 11.164314274365923" fill="#ff7a0b" stroke="none" /><path d="M 92.25597844496254 80.48000691201159 l -4.163742682521684 -10.495351517986874 a32.2911096271519,32.2911096271519 0 0,0 0.5170079395957473,-0.19998977763115097 l 3.9829624804324073 10.565281183756067" fill="#ff6f0a" stroke="none" /><path d="M 92.592206182469 80.34994680014964 l -2.237328774098222 -5.934780383944197 a27.34249621592766,27.34249621592766 0 0,0 0.44061892096790006,-0.16180137098740785 l 2.1351207014761955 5.972312603940328" fill="#ff2703" stroke="none" /><path d="M 93.61358852112211 79.99465700312896 l -3.370672233705068 -10.558582764095119 a32.08355093340202,32.08355093340202 0 0,0 0.5261081568884566,-0.1629896518502249 l 3.1889234439449954 10.614889003751987" fill="#ff6c0a" stroke="none" /><path d="M 94.6519064749342 79.69241777938228 l -3.0444382120286106 -11.560227773989922 a32.954391252313435,32.954391252313435 0 0,0 0.5482899937399152,-0.13937317233734545 l 2.845542925063317 11.610786178162531" fill="#ff780b" stroke="none" /><path d="M 96.76829788921471 79.25015418208739 l -1.6199534873213626 -10.401263464824746 a31.52665811004531,31.52665811004531 0 0,0 0.5354651167591922,-0.07869493240959934 l 1.4411632649544854 10.42753947053323" fill="#ff6409" stroke="none" /><path d="M 97.84075906011542 79.11130261209362 l -1.1951350756024313 -11.561847717312313 a32.623453466472654,32.623453466472654 0 0,0 0.5575510330002696,-0.052800662508749284 l 0.996484479217146 11.580660135326246" fill="#ff740a" stroke="none" /><path d="M 98.1996594967304 79.07731436759882 l -0.5989502883513398 -6.960710248895939 a27.986431751402222,27.986431751402222 0 0,0 0.4790091093838705,-0.03707833453164483 l 0.47937218419225214 6.969966350422638" fill="#ff3104" stroke="none" /></svg>