<?xml version="1.0" encoding="utf-8" ?>
<svg baseProfile="full" height="200mm" version="1.1" viewBox="0,0,200,200" width="200mm" xmlns="http://www.w3.org/2000/svg" xmlns:ev="http://www.w3.org/2001/xml-events" xmlns:xlink="http://www.w3.org/1999/xlink"><defs /><rect fill="#1a1a1a" height="200" width="200" x="0" y="0" /><text alignment-baseline="middle" fill="#e1ed5e" style="dominant-baseline: central; font-size:9.0px; font-family:Arial;" text-anchor="middle" x="100.0" y="100.0">2019</text><line stroke="#e1ed5e" stroke-width="0.3" x1="100.0" x2="100.0" y1="15.0" y2="10.0" /><path d="M 100.0 14.0 a86.0,86.0 0 0,1 42.46469731375804,11.215312516191453" fill="none" id="id49" stroke="none" /><text fill="#e1ed5e" style="font-size:6.75px; font-family:Arial;" text-anchor="middle"><textPath startOffset="22.20632615414155" xlink:href="#id49">January</textPath></text><path d="M 104.307194497241 79.44645832069477 l 2.1500583527523425 -10.259883549382455 a31.482745888703437,31.482745888703437 0 0,0 0.5294457511533917,0.11571633454693485 l -2.326346828059262 10.22135371673965" fill="#ff6109" stroke="none" /><path d="M 107.08798089147638 80.2323363322302 l 3.7610410583920526 -10.489164096417454 a32.14306929371274,32.14306929371274 0 0,0 0.5192141527782929,0.19123095429673032 l -3.9410375369429222 10.422869874314399" fill="#ff6b09" stroke="none" /><path d="M 107.4271985657038 80.35727306442388 l 2.782217219016705 -7.358135456477381 a28.86656786976777,28.86656786976777 0 0,0 0.46326282575197325,0.17973877917194533 l -2.908463209768345 7.3091539734148885" fill="#ff3b05" stroke="none" /><path d="M 108.76106565485865 80.91482961587045 l 3.355049745992819 -7.308665243707344 a29.041949169365733,29.041949169365733 0 0,0 0.4525313597402862,0.21246954118112651 l -3.4803593170327027 7.249830719886214" fill="#ff3e05" stroke="none" /><path d="M 109.08828744355905 81.06846463323043 l 5.817981632811319 -12.119260721979336 a34.44341439988521,34.44341439988521 0 0,0 0.5322798873823521,0.2611874290723496 l -6.025732787204103 12.017318132772154" fill="#ff8b0c" stroke="none" /><line stroke="#e1ed5e" stroke-width="0.3" x1="143.23703022742887" x2="145.7803849466894" y1="26.81831364943548" y2="22.513508569990506" /><path d="M 143.74570117128098 25.957352633546492 a86.0,86.0 0 0,1 28.547481713284135,27.462654790039103" fill="none" id="id50" stroke="none" /><text fill="#e1ed5e" style="font-size:6.75px; font-family:Arial;" text-anchor="middle"><textPath startOffset="19.985693538727396" xlink:href="#id50">February</textPath></text><path d="M 113.6212207817346 84.01681056812373 l 4.3926981469642845 -5.1544077968495525 a27.772275595881116,27.772275595881116 0 0,0 0.3611800329012507,0.3132117654048194 l -4.4807719785122995 5.078031038025062" fill="#ff2b04" stroke="none" /><path d="M 113.89432698308785 84.25364557470407 l 6.0276873482823765 -6.831140613464464 a30.11029619988105,30.11029619988105 0 0,0 0.3856828018094389,0.3462698275486348 l -6.144381137687805 6.7263717771465314" fill="#ff4d07" stroke="none" /><path d="M 114.94478906791727 85.2469230424477 l 3.2235932111176444 -3.1822408805726625 a25.52970310426099,25.52970310426099 0 0,0 0.3060351718281982,0.315396145820033 l -3.2778926466489517 3.126280539202515" fill="#ff0901" stroke="none" /><path d="M 115.19652480421416 85.50635884689758 l 11.056598208137562 -10.545198252059697 a36.27905658446992,36.27905658446992 0 0,0 0.42711277694112426,0.4556141308636332 l -11.236478307049149 10.353314704318008" fill="#ffa50f" stroke="none" /><path d="M 115.9244219780498 86.31012108654704 l 5.928030311369618 -5.096198610523601 a28.81746657494739,28.81746657494739 0 0,0 0.3201337665773801,0.37893740423971833 l -6.014874691434115 4.993402256654776" fill="#ff3a05" stroke="none" /><path d="M 116.15771136456269 86.58626213691792 l 11.73158858202052 -9.739278689052691 a36.24741683174006,36.24741683174006 0 0,0 0.3944090192565506,0.4834988221611509 l -11.897496093353478 9.53589569728344" fill="#ffa40f" stroke="none" /><path d="M 116.82858285166822 87.43820079747576 l 5.357251662062049 -3.998953462058253 a27.68519066013635,27.68519066013635 0 0,0 0.28177906303617595,0.3843463253116637 l -5.425293337611851 3.906144693075096" fill="#ff2a04" stroke="none" /><path d="M 117.2510076193507 88.02491185347247 l 10.183713411714653 -7.069202475307215 a33.396840020296565,33.396840020296565 0 0,0 0.32375140724322393,0.4750652413040471 l -10.30388928462661 6.8928592107327615" fill="#ff7d0b" stroke="none" /><path d="M 117.65298651832404 88.62581576622439 l 8.737083774002308 -5.629483736832794 a31.393638439795726,31.393638439795726 0 0,0 0.28878021904765266,0.45678095581377626 l -8.832691589295916 5.478255133304812" fill="#ff6008" stroke="none" /><line stroke="#e1ed5e" stroke-width="0.3" x1="172.23445277983987" x2="176.4835382374775" y1="55.19839476539836" y2="52.563006222186495" /><path d="M 173.08426987136738 54.67131705675599 a86.0,86.0 0 0,1 12.851231095245387,41.99856678651699" fill="none" id="id51" stroke="none" /><text fill="#e1ed5e" style="font-size:6.75px; font-family:Arial;" text-anchor="middle"><textPath startOffset="22.20632615414155" xlink:href="#id51">March</textPath></text><path d="M 118.03404312379186 89.2402003453031 l 17.555789537093997 -10.474455278968954 a41.44309075609311,41.44309075609311 0 0,0 0.3602397751225241,0.6157665491231915 l -17.73348898668685 10.170709317491868" fill="#ffea16" stroke="none" /><path d="M 118.21658344932153 89.55222093294921 l 5.90605195692988 -3.3873050990154003 a27.80847160174521,27.80847160174521 0 0,0 0.2345742024564543,0.4172813316771386 l -5.963483800678767 3.2851402574034676" fill="#ff2b04" stroke="none" /><path d="M 118.56541770881063 90.18545643968196 l 5.922562310698682 -3.1309419857256717 a27.69921950991967,27.69921950991967 0 0,0 0.21920709482742448,0.42343833498965033 l -5.975578838686222 3.0285309284756763" fill="#ff2a04" stroke="none" /><path d="M 118.89224826269711 90.83032412892265 l 14.832805133353817 -7.1993557061317786 a37.487656919873714,37.487656919873714 0 0,0 0.276769239880848,0.5829466041452448 l -14.954532567076422 6.942966686345994" fill="#ffb510" stroke="none" /><path d="M 119.34039704204932 91.81776055985345 l 11.670359996616634 -4.937317452036495 a33.6717956925139,33.6717956925139 0 0,0 0.2212370271031273,0.5357430094938013 l -11.753618710605958 4.73569987208939" fill="#ff810b" stroke="none" /><path d="M 119.61058180528143 92.48833698450437 l 9.530675191691898 -3.6506423450860184 a31.205927647267863,31.205927647267863 0 0,0 0.18782314600785385,0.503272651507918 l -9.592102926201377 3.486046556548767" fill="#ff5d08" stroke="none" /><path d="M 120.08093135843002 93.85539295169968 l 6.685899587492182 -2.045832685558493 a27.99190136310057,27.99190136310057 0 0,0 0.13701916136941147,0.46196049626382907 l -6.720124645973296 1.930442802548134" fill="#ff2e04" stroke="none" /><path d="M 120.18372546131832 94.20196356495316 l 12.770251635568409 -3.668420104585889 a34.286708881414825,34.286708881414825 0 0,0 0.1580670006409871,0.5686511022077055 l -12.83150540677576 3.4480576989592318" fill="#ff890c" stroke="none" /><path d="M 120.28053869075195 94.5502522615342 l 11.087579833422344 -2.9794333396975468 a32.48091675730711,32.48091675730711 0 0,0 0.14044697075137327,0.5411994702300952 l -11.13722313604402 2.788137443918601" fill="#ff700a" stroke="none" /><path d="M 120.45610955862082 95.25157060432595 l 12.023686757679416 -2.791030595574846 a33.34337453989914,33.34337453989914 0 0,0 0.12496717774206736,0.5602033542165878 l -12.069948322423521 2.5836490718082943" fill="#ff7c0b" stroke="none" /><path d="M 120.6074358757038 95.95851677861258 l 11.73944650708336 -2.302313416036885 a32.96307867391731,32.96307867391731 0 0,0 0.10440549122371263,0.5577383089128141 l -11.77733772221693 2.0998970296615083" fill="#ff770a" stroke="none" /><path d="M 120.73433829027371 96.67025291283417 l 20.393085730216566 -3.274945014298562 a41.654375092135844,41.654375092135844 0 0,0 0.10759544577224711,0.7089195538420237 l -20.446437069428114 2.9234263480644564" fill="#ffec16" stroke="none" /><path d="M 120.78858239683441 97.02765380044208 l 11.19590219543217 -1.6007872353182835 a32.309763292944766,32.309763292944766 0 0,0 0.07398012802947837,0.5512378838140238 l -11.221798322519485 1.4078310094395954" fill="#ff6d0a" stroke="none" /><path d="M 120.87857604477298 97.74499172005257 l 11.536744435943419 -1.2460358489439654 a32.60383891292554,32.60383891292554 0 0,0 0.055462039988728624,0.5584951738071539 l -11.556483601614376 1.0472651444323764" fill="#ff710a" stroke="none" /><path d="M 120.98425023603335 99.18683210126433 l 18.517704805626543 -0.7175859483576733 a39.53160329981205,39.53160329981205 0 0,0 0.020496770256503972,0.6801880186845003 l -18.527313270338695 0.39872778224817385" fill="#ffd113" stroke="none" /><line stroke="#e1ed5e" stroke-width="0.3" x1="184.98032266829074" x2="189.97916517819016" y1="98.17113171792111" y2="98.06355123074" /><path d="M 185.9800911702706 98.14961562048488 a86.0,86.0 0 0,1 -9.607161424134198,41.387399972396054" fill="none" id="id52" stroke="none" /><text fill="#e1ed5e" style="font-size:6.75px; font-family:Arial;" text-anchor="middle"><textPath startOffset="21.466115282336823" xlink:href="#id52">April</textPath></text><path d="M 120.99513854157772 99.54816195383933 l 11.742113818367267 -0.2527029652593351 a32.74483272388936,32.74483272388936 0 0,0 0.00727713815495174,0.5636223697886313 l -11.744723963639935 0.05054433741024098" fill="#ff730a" stroke="none" /><path d="M 120.99824983174949 100.27111621757518 l 15.732115626126035 0.2031231991802335 a36.733426871087055,36.733426871087055 0 0,0 -0.013605251979437039,0.6321825986733294 l -15.726288311461591 -0.47389561364367777" fill="#ffab0f" stroke="none" /><path d="M 120.9764740272857 100.99374915477107 l 11.677159063981614 0.5531991189207763 a32.69025547499723,32.69025547499723 0 0,0 -0.03146615969374372,0.5618494191022515 l -11.665906553400342 -0.7541202543584511" fill="#ff730a" stroke="none" /><path d="M 120.89721153311464 102.0752229133903 l 8.533057283267338 0.847385593405488 a29.575029384406385,29.575029384406385 0 0,0 -0.05466831303530563,0.5061606829105252 l -8.517206668730982 -0.9941425982008046" fill="#ff4606" stroke="none" /><path d="M 120.81339534386255 102.79330883721812 l 17.31463027221575 2.3237491506548658 a38.469866386973294,38.469866386973294 0 0,0 -0.0937308200454304,0.6555531370898592 l -17.27206540115372 -2.621447759725134" fill="#ffc312" stroke="none" /><path d="M 120.76222939487914 103.15116336523771 l 11.779455837027179 1.7878132925951877 a32.91435504698654,32.91435504698654 0 0,0 -0.08983776607728289,0.559419855120085 l -11.746936316588608 -1.9903123774084777" fill="#ff760a" stroke="none" /><path d="M 120.5718875245553 104.21870165774334 l 27.673802577085077 5.675099898765094 a49.24970987349152,49.24970987349152 0 0,0 -0.17745364952952486,0.8290043732401098 l -27.57201488883111 -6.150618091421372" fill="#b3ff20" stroke="none" /><path d="M 120.32669344350535 105.2749913415812 l 15.222404698614497 3.9503745755014994 a36.7266354982612,36.7266354982612 0 0,0 -0.16406649169458354,0.6105524498285596 l -15.152150130578137 -4.211817958505607" fill="#ffab0f" stroke="none" /><path d="M 120.23288151984713 105.62410040840565 l 11.540174533109878 3.207803112031777 a32.977713849487245,32.977713849487245 0 0,0 -0.15673422194486106,0.5456123881882552 l -11.483247674278918 -3.405972975724614" fill="#ff770a" stroke="none" /><path d="M 119.67450827220406 107.3425965602758 l 10.903504707893314 4.0692267911079805 a32.63808496242069,32.63808496242069 0 0,0 -0.20096624232162577,0.5246594431909896 l -10.831844185978182 -4.256309801132114" fill="#ff720a" stroke="none" /><path d="M 119.41010516605496 108.01547362559984 l 11.23880325874454 4.641104740705621 a33.1593812302669,33.1593812302669 0 0,0 -0.2224031576453934,0.5256953678430059 l -11.157249119906837 -4.83387463421479" fill="#ff790b" stroke="none" /><path d="M 119.26925614724726 108.34839909993367 l 6.150603166013977 2.664746866346245 a27.7030437241214,27.7030437241214 0 0,0 -0.1933394303737786,0.43592937537389165 l -6.103822650908926 -2.770224578212824" fill="#ff2a04" stroke="none" /><path d="M 119.12269723197855 108.67885076344098 l 17.59364024137545 7.984887078859476 a40.320833279263155,40.320833279263155 0 0,0 -0.2922787759653863,0.629542481088871 l -17.453586848570232 -8.286549627227178" fill="#ffdb14" stroke="none" /><path d="M 118.97047184881838 109.00673069616215 l 14.249496606342799 6.765323472816001 a36.773958134406534,36.773958134406534 0 0,0 -0.2764118825191861,0.5694903484847429 l -14.130931467208898 -7.00960277726602" fill="#ffac0f" stroke="none" /><line stroke="#e1ed5e" stroke-width="0.3" x1="174.80103733775053" x2="179.2010983576182" y1="140.37084112569926" y2="142.7455964860345" /><path d="M 175.68104954172406 140.8457921977663 a86.0,86.0 0 0,1 -30.038265399797805,32.042727171017184" fill="none" id="id53" stroke="none" /><text fill="#e1ed5e" style="font-size:6.75px; font-family:Arial;" text-anchor="middle"><textPath startOffset="22.206326154141568" xlink:href="#id53">May</textPath></text><path d="M 118.48025628344425 109.97397251340804 l 5.009164230901932 2.703494236653039 a26.692153140926862,26.692153140926862 0 0,0 -0.22170196144336332,0.4024534577075272 l -4.961885860007059 -2.789318212758371" fill="#ff1b02" stroke="none" /><path d="M 118.30583269289576 110.29060199501025 l 9.345953454993285 5.253816577628352 a31.72144741227897,31.72144741227897 0 0,0 -0.27166852363122085,0.47367696995903763 l -9.254132935209686 -5.413913393445704" fill="#ff6509" stroke="none" /><path d="M 117.75023020441432 111.22182372390056 l 6.432930581793969 4.066945171168997 a28.610692405785095,28.610692405785095 0 0,0 -0.26675402040323243,0.41400816349568625 l -6.3619716980136864 -4.177074934586136" fill="#ff3705" stroke="none" /><path d="M 117.55443506779139 111.5257021239791 l 9.905655724196452 6.503748869096536 a32.84992677946072,32.84992677946072 0 0,0 -0.31441587000746657,0.4700090651557176 l -9.792236748778265 -6.6732948484580605" fill="#ff750a" stroke="none" /><path d="M 116.93607887273984 112.41649034213515 l 6.081676331525469 4.458710661528804 a28.541013709354182,28.541013709354182 0 0,0 -0.2938891738927981,0.39371257511180846 l -6.004025890937579 -4.562736116149928" fill="#ff3605" stroke="none" /><path d="M 116.27256486870786 113.27417163493432 l 48.81769460612357 39.822514904802965 a84.0,84.0 0 0,0 -0.9236160004258265,1.1125549715449181 l -48.12498260580419 -40.656931133461654" fill="#4dd2ff" stroke="none" /><path d="M 115.56566222782051 114.09645910891815 l 5.15696384764964 4.6702111956813965 a27.957380882072883,27.957380882072883 0 0,0 -0.3261076604807373,0.3539254584066775 l -5.0758097791731815 -4.758287908889409" fill="#ff2e04" stroke="none" /><path d="M 114.81725581225074 114.88116024355365 l 5.877777544783334 5.903127450061602 a29.33037709576403,29.33037709576403 0 0,0 -0.36083353902507387,0.3531515633288613 l -5.775294053382466 -6.003429116313035" fill="#ff4206" stroke="none" /><path d="M 114.29624159901734 115.38237550388516 l 9.158136749770524 9.853911423166183 a34.45254767927259,34.45254767927259 0 0,0 -0.4378762141720098,0.39998953970129963 l -8.987160986131649 -10.010093729454065" fill="#ff8c0c" stroke="none" /><path d="M 112.04921762599082 117.19931262002967 l 7.57261737013438 10.809317048093241 a34.19794941953712,34.19794941953712 0 0,0 -0.48502970450590455,0.33360785349613387 l -7.385430781005592 -10.938065690954469" fill="#ff880c" stroke="none" /><path d="M 111.45004920935366 117.60387380957326 l 5.0396649455053 7.748230957010282 a30.243013887587068,30.243013887587068 0 0,0 -0.43883793773786606,0.28008713476270725 l -4.905545205720504 -7.833832520596799" fill="#ff4f07" stroke="none" /><line stroke="#e1ed5e" stroke-width="0.3" x1="143.8653032363475" x2="146.44561519142675" y1="172.8068346515853" y2="177.08958963109032" /><path d="M 144.38136562736335 173.6633856474863 a86.0,86.0 0 0,1 -40.68145358897372,12.25698825130547" fill="none" id="id54" stroke="none" /><text fill="#e1ed5e" style="font-size:6.75px; font-family:Arial;" text-anchor="middle"><textPath startOffset="21.466115282336833" xlink:href="#id54">June</textPath></text><path d="M 110.8373102113329 117.98757091392108 l 5.204461063107317 8.63827007032494 a31.08494545177473,31.08494545177473 0 0,0 -0.46069684532964095,0.2721878166592026 l -5.054996346749293 -8.726576459277894" fill="#ff5c08" stroke="none" /><path d="M 110.5260780823613 118.17145234162733 l 7.1900001689478374 12.412291110139572 a35.34437426423055,35.34437426423055 0 0,0 -0.5290736967790244,0.30042185300642676 l -6.975277705247614 -12.534216128940628" fill="#ff980e" stroke="none" /><path d="M 109.89434966115114 118.52300852407294 l 4.900617330935918 9.174344924412605 a31.40118526978367,31.40118526978367 0 0,0 -0.4789564434934623,0.2505673743562976 l -4.7419699849159604 -9.257341717713619" fill="#ff6008" stroke="none" /><path d="M 109.2508944713604 118.85261126421891 l 6.744019889482642 13.74379371942828 a36.309267457064486,36.309267457064486 0 0,0 -0.5634633475451771,0.27049664843292537 l -6.506443873937232 -13.857844644360766" fill="#ffa50f" stroke="none" /><path d="M 108.92500713936063 119.00905698771935 l 1.8875578570321898 4.020242708120986 a25.44130905205255,25.44130905205255 0 0,0 -0.39801353586530086,0.1827084929845847 l -1.8180763253994696 -4.052138271439645" fill="#ff0801" stroke="none" /><path d="M 108.59647513512805 119.15986991738527 l 5.241527153759223 11.682343850922276 a33.80432601720125,33.80432601720125 0 0,0 -0.5329482595916347,0.23362885509935216 l -5.039658219509834 -11.770837259316082" fill="#ff820c" stroke="none" /><path d="M 107.59598834532513 119.57807347666477 l 2.2419113996793065 5.778353535535227 a27.1980268074319,27.1980268074319 0 0,0 -0.4379268000072894,0.16558644385604437 l -2.1421143789117423 -5.816088229497902" fill="#ff2203" stroke="none" /><path d="M 106.91757812671514 119.82793768551818 l 2.6858917798175574 7.698604029436081 a29.153681294663226,29.153681294663226 0 0,0 -0.4752470239745254,0.1612295936422023 l -2.552975022905805 -7.743696609976406" fill="#ff3f05" stroke="none" /><path d="M 106.2309692047433 120.05430185196036 l 2.7418666271846863 8.82466582205543 a30.24080945979422,30.24080945979422 0 0,0 -0.49843337843899665,0.1501738882123201 l -2.589558274305444 -8.870555079373476" fill="#ff4f07" stroke="none" /><path d="M 105.88484417918355 120.15858648285463 l 2.8410914837705747 9.732184342939858 a31.138402877382482,31.138402877382482 0 0,0 -0.515813325525868,0.14577399811365727 l -2.673146990140101 -9.779647134392034" fill="#ff5c08" stroke="none" /><path d="M 105.18746579009965 120.34920634021253 l 3.3184799116183434 13.017614995408893 a34.433934981698734,34.433934981698734 0 0,0 -0.5756152270805323,0.14147221816749872 l -3.0939113997946 -13.07280847189042" fill="#ff8b0c" stroke="none" /><path d="M 104.48393922423573 120.51570834832081 l 2.013893275763463 9.21431915644438 a30.43183140450375,30.43183140450375 0 0,0 -0.5127162759645253,0.10744468067534169 l -1.8549855383695597 -9.247619817846264" fill="#ff5207" stroke="none" /><path d="M 104.13013068566511 120.58985236759428 l 2.6188428650907816 13.055661447541677 a34.31572881162961,34.31572881162961 0 0,0 -0.5801521456049216,0.11118753947892719 l -2.3937231049141556 -13.098806185369073" fill="#ff8a0c" stroke="none" /><path d="M 103.41894727170886 120.7198165907248 l 3.022160104008478 18.315170748908148 a39.56283737083103,39.56283737083103 0 0,0 -0.67287745917855,0.10508962069981595 l -2.706446781221411 -18.36447867695507" fill="#ffd113" stroke="none" /><path d="M 102.70371172650421 120.8252237178851 l 2.06740226195987 15.924077333437925 a37.05772060518143,37.05772060518143 0 0,0 -0.6332856994963535,0.07668207883532513 l -1.7929891394121367 -15.9573049409986" fill="#ffaf10" stroke="none" /><path d="M 101.98527174616119 120.90594882070398 l 1.1448830614608712 12.056216855386866 a33.11045507355254,33.11045507355254 0 0,0 -0.5678532636620641,0.04899676899068418 l -0.9371854800572654 -12.074137876656213" fill="#ff790b" stroke="none" /><path d="M 101.62511606390274 120.93702456842531 l 0.9484017771159335 12.218641947657844 a33.2553937911395,33.2553937911395 0 0,0 -0.5711015907640976,0.0393865093975472 l -0.7379374255729056 -12.233156801571676" fill="#ff7b0b" stroke="none" /><line stroke="#e1ed5e" stroke-width="0.3" x1="102.19456741930631" x2="102.32365962044197" y1="184.97166512339345" y2="189.96999836594603" /><path d="M 102.22038585953345 185.97133177190398 a86.0,86.0 0 0,1 -42.740103519485714,-10.115201625700543" fill="none" id="id55" stroke="none" /><text fill="#e1ed5e" style="font-size:6.75px; font-family:Arial;" text-anchor="middle"><textPath startOffset="22.20632615414155" xlink:href="#id55">July</textPath></text><path d="M 100.54218724476979 120.99299961872073 l 0.29562481184420514 11.446325272673636 a32.45014219462907,32.45014219462907 0 0,0 -0.5585137837073215,0.009615321290503772 l -0.09855133824421561 -11.449718071243298" fill="#ff6f0a" stroke="none" /><path d="M 100.18074693466247 120.99922214144158 l 0.039028410251318583 4.534330046732246 a25.534498008545775,25.534498008545775 0 0,0 -0.4395506898275449,0.0 l 0.03902841025131546 -4.534330046732246" fill="#ff0901" stroke="none" /><path d="M 99.45781275523022 120.99299961872073 l -0.21753957790842104 8.422935655794115 a29.425744390236652,29.425744390236652 0 0,0 -0.5062344088103116,-0.017435736614759747 l 0.36249433839337564 -8.417943120753261" fill="#ff4306" stroke="none" /><path d="M 99.09653310690486 120.98055641714683 l -0.3633226002511618 8.437177245178033 a29.44499633975073,29.44499633975073 0 0,0 -0.5061902382938648,-0.026164253408857457 l 0.5085009069585155 -8.429673185006973" fill="#ff4406" stroke="none" /><path d="M 98.73552117531835 120.96189622390904 l -1.085138767042795 17.98888663004575 a39.02158617692621,39.02158617692621 0 0,0 -0.670125576613035,-0.04621578322955228 l 1.3946271044347602 -17.967542502299914" fill="#ffca12" stroke="none" /><path d="M 98.37488393609728 120.93702456842531 l -0.6546431976124147 8.434031892496336 a29.459400196221097,29.459400196221097 0 0,0 -0.5052366845997605,-0.04359394707236478 l 0.7997241999537169 -8.421513693145307" fill="#ff4406" stroke="none" /><path d="M 97.65516085044442 120.86867818915974 l -1.2288035979456022 10.936147517013529 a32.004966187871965,32.004966187871965 0 0,0 -0.5469383186187983,-0.06622661351700342 l 1.4168693396157899 -10.913375374771176" fill="#ff6909" stroke="none" /><path d="M 96.93821686468263 120.77559828337769 l -2.1059988961615144 14.290165278917872 a35.444516435292094,35.444516435292094 0 0,0 -0.602833814401182,-0.09415024390590104 l 2.3516685741712138 -14.251796727664866" fill="#ff990e" stroke="none" /><path d="M 96.22490169976321 120.6578951692458 l -2.1910873217238294 11.989953267175919 a33.18851274768507,33.18851274768507 0 0,0 -0.5610950880775398,-0.10753520904762248 l 2.397150024373064 -11.950460859779827" fill="#ff7a0b" stroke="none" /><path d="M 95.86986931433489 120.58985236759428 l -4.563430841460899 22.749974387378348 a44.20315141680473,44.20315141680473 0 0,0 -0.7447358287140577,-0.15606663383786612 l 4.9543581316043435 -22.66805177281394" fill="#f1ff19" stroke="none" /><path d="M 95.16358092515715 120.4354850818985 l -2.8161466468752616 11.89915966753312 a33.22786501111922,33.22786501111922 0 0,0 -0.5554539460547336,-0.1365170658128875 l 3.0205538776732057 -11.848921343406202" fill="#ff7a0b" stroke="none" /><path d="M 94.46302465271185 120.25689768951611 l -4.115762454070131 15.057422819713988 a36.60978803667676,36.60978803667676 0 0,0 -0.6064478190598298,-0.17138821130984083 l 4.3743414412345745 -14.984345815065627" fill="#ffa90f" stroke="none" /><path d="M 93.76903079525671 120.05430185196036 l -4.056791659901011 13.056736733065263 a34.67245159758915,34.67245159758915 0 0,0 -0.5684278570674985,-0.18199264947292196 l 4.28094086205945 -12.984971236932635" fill="#ff8f0d" stroke="none" /><path d="M 93.42475214034765 119.94407469862007 l -8.036575383262836 24.37658065309186 a46.667181929996886,46.667181929996886 0 0,0 -0.7607423263410906,-0.2580851009157964 l 8.454987442541151 -24.23463256527794" fill="#d2ff1c" stroke="none" /><path d="M 92.7421414339146 119.70592522655815 l -4.751258789294705 12.900216996701255 a34.74736551652098,34.74736551652098 0 0,0 -0.5594818586315712,-0.21154816597483989 l 4.9726108686865595 -12.816520580619782" fill="#ff900d" stroke="none" /><path d="M 92.06813273071674 119.44442032107085 l -4.726745754439572 11.58728809748039 a33.51428667088633,33.51428667088633 0 0,0 -0.5322843390154463,-0.2224948968779954 l 4.925501552952481 -11.50420815758242" fill="#ff7e0b" stroke="none" /><path d="M 91.40352486487194 119.15986991738527 l -4.324594149731455 9.638678650479898 a31.56438548554096,31.56438548554096 0 0,0 -0.4938052774254546,-0.22668178324662155 l 4.48986742292433 -9.562809796899202" fill="#ff6309" stroke="none" /><path d="M 90.42595943632237 118.69057910512821 l -4.173494692377763 8.14755611007727 a30.154273784094663,30.154273784094663 0 0,0 -0.45993753432153883,-0.2406175799667065 l 4.313123129225797 -8.074509111165847" fill="#ff4e07" stroke="none" /><line stroke="#e1ed5e" stroke-width="0.3" x1="58.666819895761336" x2="56.23545636021788" y1="174.27360380694188" y2="178.64263932499728" /><path d="M 58.180547188652646 175.14741091055294 a86.0,86.0 0 0,1 -31.652253787137756,-30.449443065178592" fill="none" id="id56" stroke="none" /><text fill="#e1ed5e" style="font-size:6.75px; font-family:Arial;" text-anchor="middle"><textPath startOffset="22.20632615414155" xlink:href="#id56">August</textPath></text><path d="M 89.7882731507175 118.34994917583269 l -7.086408739061352 12.733912894476719 a35.57291070518054,35.57291070518054 0 0,0 -0.53249468306549,-0.3023643783021396 l 7.30455218904805 -12.610045350379947" fill="#ff9b0e" stroke="none" /><path d="M 89.4739219176387 118.17145234162733 l -2.209858191302028 3.8149377660697925 a25.408766651190586,25.408766651190586 0 0,0 -0.37657259711395674,-0.22248572800361383 l 2.275198659444367 -3.7763334657724292" fill="#ff0701" stroke="none" /><path d="M 89.1626897886671 117.98757091392108 l -6.881851800138619 11.422372789941933 a34.33530968337357,34.33530968337357 0 0,0 -0.5036185504402226,-0.3093636470054071 l 7.07744955051115 -11.302220676108147" fill="#ff8a0c" stroke="none" /><path d="M 88.8546689885994 117.79835938074946 l -6.447572179631364 10.296348010572014 a33.148496588729266,33.148496588729266 0 0,0 -0.48099762597006124,-0.30699544250910427 l 6.623851607648349 -10.183838139239105" fill="#ff790b" stroke="none" /><path d="M 88.24862548938628 117.40417183066458 l -7.600443508779313 11.256506606659592 a34.58218253874968,34.58218253874968 0 0,0 -0.49047928494671855,-0.3373561246152496 l 7.793079678348922 -11.124009692679241" fill="#ff8d0d" stroke="none" /><path d="M 87.65650970185807 116.9893568818739 l -5.576839459042351 7.675861004796135 a30.48788598776786,30.48788598776786 0 0,0 -0.4219160899147903,-0.31212343672982673 l 5.708140519375706 -7.578727619326542" fill="#ff5307" stroke="none" /><path d="M 86.79598089348748 116.32954008644616 l -11.279562309015786 13.949545467697314 a38.939296102086175,38.939296102086175 0 0,0 -0.5175771769302674,-0.42593078013879765 l 11.518009614490742 -13.753319568701336" fill="#ffc912" stroke="none" /><path d="M 86.24171649860922 115.8653595955263 l -11.870744285209406 13.688744437658082 a39.11894848395863,39.11894848395863 0 0,0 -0.5049281015633446,-0.44554034264594816 l 12.104614739679338 -13.482380953239845" fill="#ffcb12" stroke="none" /><path d="M 85.70375840098266 115.38237550388516 l -8.408704507285572 9.047542274409311 a33.35169351538761,33.35169351538761 0 0,0 -0.41715689280345175,-0.39444787976607754 l 8.56319723447984 -8.901459757897303" fill="#ff7c0b" stroke="none" /><path d="M 85.18274418774928 114.88116024355367 l -21.117666818318316 21.208743904761928 a50.92936133410265,50.92936133410265 0 0,0 -0.6159042271776001,-0.6239077304138803 l 21.47961167055145 -20.842095680367386" fill="#a0ff22" stroke="none" /><path d="M 84.9287848128048 114.62390073753433 l -16.44584802171946 15.957734398121813 a43.91539230025299,43.91539230025299 0 0,0 -0.5217429844064807,-0.547045433249231 l 16.718097557504898 -15.672281848290082" fill="#f5ff19" stroke="none" /><path d="M 84.43433777217949 114.09645910891817 l -6.095346816613169 5.5200225918748425 a29.22337535502332,29.22337535502332 0 0,0 -0.3344561738087955,-0.37576505681974004 l 6.189461840070304 -5.414283365314238" fill="#ff4006" stroke="none" /><path d="M 83.95833913139862 113.55231037782056 l -6.661406933398962 5.627687497813283 a29.720390410146766,29.720390410146766 0 0,0 -0.3267884300204128,-0.3936377155603072 l 6.757291363312911 -5.512188525139215" fill="#ff4806" stroke="none" /><path d="M 83.72743513129214 113.27417163493432 l -6.51042751933624 5.3108119712987385 a29.401808750443003,29.401808750443003 0 0,0 -0.31653439579351494,-0.394925328140721 l 6.600879827184615 -5.197958809579758" fill="#ff4306" stroke="none" /><path d="M 83.50135304334701 112.99209946851258 l -14.758275280733734 11.621618483912382 a39.78479985114375,39.78479985114375 0 0,0 -0.41905364311507637,-0.5416833227257994 l 14.95613574106688 -11.36585716707333" fill="#ffd413" stroke="none" /><path d="M 83.28015986056508 112.70617746262583 l -7.531268647197859 5.723358306776261 a30.459219721732353,30.459219721732353 0 0,0 -0.3136410995277851,-0.42017350731342584 l 7.628671013420729 -5.592871919953526" fill="#ff5307" stroke="none" /><path d="M 82.85270091963577 112.12312394758628 l -9.2244269940499 6.521661007381945 a32.2969958689805,32.2969958689805 0 0,0 -0.31703206808666434,-0.45670833944779615 l 9.335319969298697 -6.361911405747136" fill="#ff6d0a" stroke="none" /><path d="M 82.44556493220864 111.52570212397912 l -11.804095948018952 7.7502063275940385 a35.120990732604994,35.120990732604994 0 0,0 -0.3274532942297099,-0.5082147844284594 l 11.935754105625708 -7.5458699432441305" fill="#ff950d" stroke="none" /><path d="M 82.05923443525364 110.91462005526583 l -10.902082519649143 6.632497820881469 a33.7610904945164,33.7610904945164 0 0,0 -0.2977714103270036,-0.49908201148758047 l 11.01463480567438 -6.443853715507778" fill="#ff820c" stroke="none" /><line stroke="#e1ed5e" stroke-width="0.3" x1="26.63291911575756" x2="22.317208475507996" y1="142.92168965132927" y2="145.44649492493687" /><path d="M 25.769776987707644 143.4266507060508 a86.0,86.0 0 0,1 -11.730757126820373,-40.83630448921669" fill="none" id="id57" stroke="none" /><text fill="#e1ed5e" style="font-size:6.75px; font-family:Arial;" text-anchor="middle"><textPath startOffset="21.46611528233685" xlink:href="#id57">September</textPath></text><path d="M 81.51974371655577 109.97397251340807 l -10.97571918940745 5.923701480704398 a33.472235202930804,33.472235202930804 0 0,0 -0.26928810388770624,-0.509391608683918 l 11.07605980152004 -5.733894856934354" fill="#ff7e0b" stroke="none" /><path d="M 81.18737489456691 109.33194174019688 l -15.534776788855911 7.705975701322986 a38.34103086292613,38.34103086292613 0 0,0 -0.2881908028451163,-0.5937584131571165 l 15.665120848315746 -7.437428332200585" fill="#ffc111" stroke="none" /><path d="M 80.87730276802145 108.67885076344099 l -12.392122824540857 5.624174421198704 a34.608675395444344,34.608675395444344 0 0,0 -0.24153380594493173,-0.5445949693432806 l 12.48709771521707 -5.410031115362728" fill="#ff8e0d" stroke="none" /><path d="M 80.58989483394504 108.01547362559985 l -24.62801976094461 10.170230462729915 a47.64531750628087,47.64531750628087 0 0,0 -0.30651227799882197,-0.7607383371041061 l 24.79943465320082 -9.744792757783003" fill="#c7ff1e" stroke="none" /><path d="M 80.45479744820244 107.68017299344265 l -13.20137029240554 5.187401221730725 a35.18398071883986,35.18398071883986 0 0,0 -0.21664237969607972,-0.5655848912227099 l 13.28870695169513 -4.959392763674857" fill="#ff960d" stroke="none" /><path d="M 79.97269907076064 106.31721596034903 l -15.250092665301455 4.810340101365969 a36.99076915570639,36.99076915570639 0 0,0 -0.1863158590990356,-0.6088910076991123 l 15.330635296906621 -4.547122121114809" fill="#ffaf10" stroke="none" /><path d="M 79.86692584326677 105.97154293290107 l -25.712938888635335 7.6265510825229 a47.8201325072235,47.8201325072235 0 0,0 -0.22727625377633687,-0.7911784552387842 l 25.840407779297777 -7.18281515177952" fill="#c4ff1e" stroke="none" /><path d="M 79.67330655649465 105.27499134158121 l -9.125887258257343 2.36826399755317 a30.428175465726667,30.428175465726667 0 0,0 -0.12720235869216617,-0.5081101920838877 l 9.165300931244568 -2.2108259660718903" fill="#ff5207" stroke="none" /><path d="M 79.50377843672027 104.57218783832718 l -8.773442274818862 1.9571327303105839 a29.98908548594526,29.98908548594526 0 0,0 -0.10805490386042714,-0.5047965375061404 l 8.80583121740373 -1.8058223733882797" fill="#ff4c07" stroke="none" /><path d="M 79.4281124754447 104.21870165774334 l -4.286001782639573 0.8789355281050396 a25.375195874855763,25.375195874855763 0 0,0 -0.08406447989377655,-0.42864297188414 l 4.300496195509016 -0.8050288291529448" fill="#ff0701" stroke="none" /><path d="M 79.35854240842038 103.8639653848113 l -28.68072211443549 5.368870728721138 a50.17890666058596,50.17890666058596 0 0,0 -0.15162048319733137,-0.8503681899624189 l 28.768889039972013 -4.874383788025506" fill="#a8ff21" stroke="none" /><path d="M 79.29508885075956 103.50808413554451 l -14.375255938921066 2.4356350500722144 a35.58013379248029,35.58013379248029 0 0,0 -0.09711384993216785,-0.6047280362300278 l 14.415051543214524 -2.1878277841489733" fill="#ff9b0e" stroke="none" /><path d="M 79.18660465613746 102.79330883721812 l -16.57707158733315 2.2247634177452715 a37.72569504315159,37.72569504315159 0 0,0 -0.0808380637883564,-0.6443589056736185 l 16.612911160368355 -1.9390867577842443" fill="#ffb911" stroke="none" /><path d="M 79.07016306316243 101.71520430193888 l -8.220238383802082 0.6736501713515409 a29.247795077467373,29.247795077467373 0 0,0 -0.03680130463938098,-0.502124563031657 l 8.230616247105798 -0.5320524718231234" fill="#ff4106" stroke="none" /><path d="M 79.04373962182676 101.35467743843564 l -13.753876255329246 0.8890930689874533 a34.78258315890861,34.78258315890861 0 0,0 -0.033480139580925244,-0.5978103829030855 l 13.767142745797702 -0.6522109697489302" fill="#ff900d" stroke="none" /><path d="M 79.0235259727143 100.99374915477108 l -3.934691055471058 0.18640386871375653 a24.939103972260114,24.939103972260114 0 0,0 -0.016623536391132662,-0.4289796092316175 l 3.9373167247133916 -0.11864701246814227" fill="#ff0000" stroke="none" /><line stroke="#e1ed5e" stroke-width="0.3" x1="15.007084014347285" x2="10.007500721073583" y1="101.09737516637583" y2="101.16192664675087" /><path d="M 14.007167355692545 101.11028546245083 a86.0,86.0 0 0,1 10.666146001902534,-42.60595125391555" fill="none" id="id58" stroke="none" /><text fill="#e1ed5e" style="font-size:6.75px; font-family:Arial;" text-anchor="middle"><textPath startOffset="22.20632615414155" xlink:href="#id58">October</textPath></text><path d="M 79.00175016825051 100.2711162175752 l -18.245246941996875 0.23557117280129178 a39.24676765215969,39.24676765215969 0 0,0 -0.0029074429911766803,-0.6755873579713486 l 18.246598682277554 0.07852566337373218" fill="#ffcd13" stroke="none" /><path d="M 79.00019446554 99.90962569577889 l -6.267307086293117 -0.026971845826590502 a27.267365123747556,27.267365123747556 0 0,0 0.006059838045294336,-0.4693411347838654 l 6.265914241130107 0.13484923867092785" fill="#ff2303" stroke="none" /><path d="M 79.00486145842228 99.54816195383935 l -9.961020163726008 -0.2143719070789501 a30.963326654120138,30.963326654120138 0 0,0 0.016054198156177587,-0.5327606788173795 l 9.955854271114186 0.38580273332132403" fill="#ff5a08" stroke="none" /><path d="M 79.05617556472873 98.46500227214037 l -9.114524938261692 -0.6680143406468757 a30.138971933948817,30.138971933948817 0 0,0 0.04237470016664425,-0.5170786732127204 l 9.10167575427555 0.8248069310673743" fill="#ff4e07" stroke="none" /><path d="M 79.26566170972629 96.67025291283419 l -17.26233615181706 -2.772174964761373 a38.483512331724995,38.483512331724995 0 0,0 0.1106641748512578,-0.653146224311899 l 17.21206011544558 3.0689069773891" fill="#ffc312" stroke="none" /><path d="M 79.32604984820605 96.31383870115002 l -7.866813234797711 -1.4026512726633376 a28.990881119369284,28.990881119369284 0 0,0 0.09182416527952898,-0.49052836263753796 l 7.84150334560832 1.537857712763448" fill="#ff3d05" stroke="none" /><path d="M 79.3925641242962 95.95851677861259 l -39.28202361496626 -7.703900684180009 a61.030331812745146,61.030331812745146 0 0,0 0.2110507460372885,-1.0291583908246762 l 39.14359357301398 8.378934731168087" fill="#32ff2f" stroke="none" /><path d="M 79.54389044137918 95.25157060432595 l -15.240745464973381 -3.5377989920554946 a36.645968938876734,36.645968938876734 0 0,0 0.1479226746989401,-0.613234985012967 l 15.177589990013628 3.7996192087278584" fill="#ffaa0f" stroke="none" /><path d="M 79.71946130924805 94.55025226153421 l -7.926391900889848 -2.1299649380499934 a29.207584248962327,29.207584248962327 0 0,0 0.13465145500462558,-0.4844129261120244 l 7.888553675318861 2.2660891675809607" fill="#ff4006" stroke="none" /><path d="M 79.91906864156998 93.8553929516997 l -16.25003654925093 -4.972383368749853 a37.993771924378976,37.993771924378976 0 0,0 0.19674354036846622,-0.6237307879886865 l 16.162037525114258 5.251364323164954" fill="#ffbc11" stroke="none" /><path d="M 80.02781315780177 93.51064311812611 l -14.582162105709711 -4.738031681806193 a36.332592601872506,36.332592601872506 0 0,0 0.1983806377151611,-0.5931328564041592 l 14.498444174222778 4.988337641132675" fill="#ffa60f" stroke="none" /><path d="M 80.2630227832202 92.82701384747504 l -12.05298713395167 -4.380402776920394 a33.82429051991791,33.82429051991791 0 0,0 0.20358262470978672,-0.5455002193092373 l 11.975799920740256 4.587226133258972" fill="#ff830c" stroke="none" /><path d="M 80.38941819471856 92.48833698450439 l -9.381111714294295 -3.593353354234451 a31.045767532869633,31.045767532869633 0 0,0 0.19545003412947348,-0.4973990181051804 l 9.31786813028313 3.754301377235395" fill="#ff5b08" stroke="none" /><path d="M 80.803312248108 91.48605970444005 l -11.91993255294273 -5.286620035420094 a34.039675742349154,34.039675742349154 0 0,0 0.242164223201227,-0.5335767657397039 l 11.82716601277815 5.491018810001869" fill="#ff860c" stroke="none" /><path d="M 81.26839172434947 90.50648371742162 l -8.850648955512396 -4.485668221012603 a30.92245969116101,30.92245969116101 0 0,0 0.24471529067417017,-0.4727120502699012 l 8.772124231678111 4.63735299354284" fill="#ff5908" stroke="none" /><path d="M 81.43458229118936 90.18545643968196 l -8.775362116144958 -4.63906468991518 a30.92612217669569,30.92612217669569 0 0,0 0.2528459381104121,-0.4684851226757258 l 8.694208078816075 4.789430795923379" fill="#ff5908" stroke="none" /><path d="M 81.6062741919709 89.86733742301443 l -6.399922027001416 -3.5255636131270234 a28.306750354425912,28.306750354425912 0 0,0 0.23877735833949193,-0.42475827699233265 l 6.338287027369494 3.6352054000541405" fill="#ff3304" stroke="none" /><line stroke="#e1ed5e" stroke-width="0.3" x1="26.266209847984243" x2="21.928928074336255" y1="57.711370442889674" y2="55.22380399835377" /><path d="M 25.398753493254645 57.213857153982495 a86.0,86.0 0 0,1 29.58750427330803,-30.492523968695096" fill="none" id="id59" stroke="none" /><text fill="#e1ed5e" style="font-size:6.75px; font-family:Arial;" text-anchor="middle"><textPath startOffset="21.46611528233685" xlink:href="#id59">November</textPath></text><path d="M 82.15384107792192 88.93136811851018 l -48.44555677529477 -30.04713992410824 a78.00703981866843,78.00703981866843 0 0,0 0.7175622567385278,-1.1350111672116663 l 47.92116692231028 30.876598739034122" fill="#45fff1" stroke="none" /><path d="M 82.7489923806493 88.02491185347247 l -5.618007493440531 -3.899837993598581 a27.838913990734856,27.838913990734856 0 0,0 0.2766490489634104,-0.39130046045750516 l 5.550045824673242 3.995964954387872" fill="#ff2c04" stroke="none" /><path d="M 82.95767976084542 87.72973835380427 l -10.083976220788108 -7.260339257022678 a33.42574354107168,33.42574354107168 0 0,0 0.34020624282180734,-0.4640409328774837 l 9.957507365452667 7.432842633571663" fill="#ff7d0b" stroke="none" /><path d="M 83.39014120810768 87.1503855733568 l -11.152017167863404 -8.627353337663418 a35.09959972925516,35.09959972925516 0 0,0 0.37380391677299407,-0.47469301391961966 l 11.00185917049644 8.818038745536086" fill="#ff950d" stroke="none" /><path d="M 83.6137871275137 86.86637796730984 l -11.740351301576045 -9.409943452205734 a36.04602553693592,36.04602553693592 0 0,0 0.3922176757067962,-0.4808124940765276 l 11.576635133792855 9.610640115890345" fill="#ffa20e" stroke="none" /><path d="M 84.07557802195018 86.31012108654704 l -11.134857359765185 -9.572394475847963 a35.68386135945043,35.68386135945043 0 0,0 0.404430921071876,-0.46233445573892196 l 10.968434575115465 9.762644487789828" fill="#ff9d0e" stroke="none" /><path d="M 84.5562425177563 85.77008943001954 l -5.808041115867281 -5.351541278771342 a28.89761582137283,28.89761582137283 0 0,0 0.3402111880089013,-0.36291357482879716 l 5.7150626058879235 5.450724270478189" fill="#ff3c05" stroke="none" /><path d="M 85.31137513191541 84.99185889309783 l -40.08963021938445 -40.96168515838134 a78.3152519155359,78.3152519155359 0 0,0 0.9715445430814776,-0.9346250806906388 l 39.37860243269055 41.645693325834294" fill="#46fff4" stroke="none" /><path d="M 86.37877921826538 84.01681056812374 l -5.019354908336187 -5.889729093396189 a28.738399866214984,28.738399866214984 0 0,0 0.3792681391798473,-0.31762615939534833 l 4.917229232197229 5.9752564101853505" fill="#ff3905" stroke="none" /><path d="M 87.22198572758235 83.33499621200491 l -6.865868510378555 -8.954421422139024 a32.28369679701959,32.28369679701959 0 0,0 0.44390674385892154,-0.334341356322607 l 6.710715612761244 9.071279367967485" fill="#ff6d0a" stroke="none" /><path d="M 87.80319425747018 82.90503203632743 l -7.885279217629862 -11.0519588862482 a34.57657628282278,34.57657628282278 0 0,0 0.48747845415018953,-0.34150980982791523 l 7.6938696238960125 11.186053538840058" fill="#ff8d0d" stroke="none" /><path d="M 88.09926311788651 82.69761687909137 l -10.106765920926739 -14.694143548375086 a38.83436491722257,38.83436491722257 0 0,0 0.5540282583287265,-0.3740823531524166 l 9.852332968191472 14.865937813826168" fill="#ffc712" stroke="none" /><path d="M 88.70189139769569 82.29822771554957 l -7.190287172185154 -11.265675580058325 a34.36471757627571,34.36471757627571 0 0,0 0.501366252357517,-0.31395550123085014 l 6.995301767455395 11.387775422612105" fill="#ff8a0c" stroke="none" /><path d="M 89.00827224532344 82.1063720568725 l -10.058377844818517 -16.374211123451836 a40.2168091728182,40.2168091728182 0 0,0 0.5929833188376439,-0.35726581466404467 l 9.775032459763224 16.5449235475745" fill="#ffda14" stroke="none" /><line stroke="#e1ed5e" stroke-width="0.3" x1="56.762969772571076" x2="54.21961505331055" y1="26.818313649435495" y2="22.513508569990535" /><path d="M 56.25429882871897 25.957352633546506 a86.0,86.0 0 0,1 42.265352541879196,-11.944610805530505" fill="none" id="id60" stroke="none" /><text fill="#e1ed5e" style="font-size:6.75px; font-family:Arial;" text-anchor="middle"><textPath startOffset="22.20632615414155" xlink:href="#id60">December</textPath></text><path d="M 89.3179101791058 81.91981866633112 l -6.176967952175075 -10.454948660807815 a33.143347338453474,33.143347338453474 0 0,0 0.4936832068811943,-0.28597317847168635 l 5.996088012828561 10.559725996669549" fill="#ff790b" stroke="none" /><path d="M 89.94658935756843 81.56283822128135 l -5.910668363857262 -10.839699353853616 a33.346460326321775,33.346460326321775 0 0,0 0.5063182883711925,-0.2704576947351434 l 5.723205028957764 10.93983577509051" fill="#ff7c0b" stroke="none" /><path d="M 90.26544431104013 81.39251694778311 l -7.7599892311311205 -14.83312363885467 a37.74034019226671,37.74034019226671 0 0,0 0.5782170786520987,-0.29618524575878274 l 7.503511664890258 14.964501409925958" fill="#ffb911" stroke="none" /><path d="M 91.56875222667455 80.76684994638697 l -5.708574700078242 -13.022256817813687 a35.218544149647265,35.218544149647265 0 0,0 0.5573187737098525,-0.23861481362263184 l 5.483572168578081 13.118591159399106" fill="#ff960d" stroke="none" /><path d="M 92.23578459929587 80.48803036053334 l -5.349329483525514 -13.44320695489564 a35.468418681924774,35.468418681924774 0 0,0 0.5692121050785066,-0.22084545352982543 l 5.11713421344733 13.533295112316017" fill="#ff9a0e" stroke="none" /><path d="M 92.57280143429618 80.3572730644239 l -6.900985066036997 -18.251049038138657 a40.51215994897048,40.51215994897048 0 0,0 0.6544019369437822,-0.24102175610152177 l 6.5858008033206445 18.3671340620465" fill="#ffde14" stroke="none" /><path d="M 93.59665428221793 80.00007090966166 l -5.878874590404839 -18.361818980439768 a40.27997828629861,40.27997828629861 0 0,0 0.6621541757773578,-0.20573452561539052 l 5.561935041916753 18.46029364093768" fill="#ffdb14" stroke="none" /><path d="M 94.63758080256005 79.69619591428918 l -3.286191829407014 -12.44255486855582 a33.86919688234987,33.86919688234987 0 0,0 0.5649561245364233,-0.1440198954171773 l 3.071526816185591 12.497277760141861" fill="#ff830c" stroke="none" /><path d="M 94.98787191387505 79.60689891045804 l -4.546406925665035 -18.498197658983248 a40.048704222716786,40.048704222716786 0 0,0 0.6708659768283479,-0.1587723019048731 l 4.227317261874153 18.57371587302899" fill="#ffd814" stroke="none" /><path d="M 96.04723909329186 79.375362276772 l -3.5632234300462073 -18.592116777643284 a39.930487777285485,39.930487777285485 0 0,0 0.6761655366830478,-0.12356492988748613 l 3.242662772260266 18.650697188881505" fill="#ffd614" stroke="none" /><path d="M 96.40284397218896 79.31037775812273 l -3.270799777179215 -18.812531704340415 a40.094750071923144,40.094750071923144 0 0,0 0.6809822065626571,-0.11236789896353983 l 2.946488364477672 18.866045866243585" fill="#ffd814" stroke="none" /><path d="M 97.47563105711357 79.15227682838746 l -1.9214673118856749 -15.868606969824102 a36.98451512537666,36.98451512537666 0 0,0 0.6326699660754168,-0.07108784235181226 l 1.64803064230054 15.899330765646512" fill="#ffae10" stroke="none" /><path d="M 98.55514903715128 79.0497635885617 l -1.32582956314772 -19.22443456344713 a40.27009881434906,40.27009881434906 0 0,0 0.6919514261521735,-0.04174039966287515 l 0.9947160881559235 19.24440823249031" fill="#ffda14" stroke="none" /></svg>