<?xml version="1.0" encoding="utf-8" ?>
<svg baseProfile="full" height="200mm" version="1.1" viewBox="0,0,200,200" width="200mm" xmlns="http://www.w3.org/2000/svg" xmlns:ev="http://www.w3.org/2001/xml-events" xmlns:xlink="http://www.w3.org/1999/xlink"><defs /><rect fill="#1a1a1a" height="200" width="200" x="0" y="0" /><text alignment-baseline="middle" fill="#e1ed5e" style="dominant-baseline: central; font-size:9.0px; font-family:Arial;" text-anchor="middle" x="100.0" y="100.0">2021</text><line stroke="#e1ed5e" stroke-width="0.3" x1="100.0" x2="100.0" y1="15.0" y2="10.0" /><path d="M 100.0 14.0 a86.0,86.0 0 0,1 42.46469731375804,11.215312516191453" fill="none" id="id73" stroke="none" /><text fill="#e1ed5e" style="font-size:6.75px; font-family:Arial;" text-anchor="middle"><textPath startOffset="22.20632615414155" xlink:href="#id73">January</textPath></text><path d="M 100.36148047927253 79.00311137660856 l 0.3313128445492876 -19.24457694230205 a40.247428656554284,40.247428656554284 0 0,0 0.692588034208263,0.017887505589865342 l -0.6625275139524184 19.236022644569825" fill="#ffc212" stroke="none" /><path d="M 100.72285384407766 79.0124445844662 l 1.0354064723993557 -30.062302213819578 a51.080127675229505,51.080127675229505 0 0,0 0.8784788758396456,0.03782914832305794 l -1.552726180628333 30.040025338972328" fill="#aeff20" stroke="none" /><path d="M 101.44485096284872 79.0497635885617 l 2.841139871319892 -41.19632648114685 a62.29418108292795,62.29418108292795 0 0,0 1.0691159051393377,0.08298397061805822 l -3.5498459658215706 41.14131724834032" fill="#30ff31" stroke="none" /><path d="M 102.16513564639614 79.11191278185805 l 1.5590658737381096 -15.041045582375522 a36.12163147976279,36.12163147976279 0 0,0 0.6179091786229556,0.06942929589366453 l -1.8177417558707905 15.011980333011257" fill="#ff880c" stroke="none" /><path d="M 102.88285421437855 79.19881850522331 l 5.714247588473246 -41.231048244159844 a62.625136213766424,62.625136213766424 0 0,0 1.066509110234457,0.15717571945886397 l -6.423125679136359 41.12657804054001" fill="#30ff36" stroke="none" /><path d="M 103.2404852339499 79.25152402106235 l 2.9827779028258767 -19.09840384979994 a40.3299248220897,40.3299248220897 0 0,0 0.6849764906025818,0.11302699005447485 l -3.311083599567334 19.044230596805843" fill="#ffc412" stroke="none" /><path d="M 103.95276090670814 79.375362276772 l 6.102507010133278 -31.841540446795314 a53.42104701939201,53.42104701939201 0 0,0 0.9016292145289825,0.18085833834724827 l -6.649702634129386 31.731778152370858" fill="#91ff24" stroke="none" /><path d="M 104.307194497241 79.44645832069477 l 4.032235358657743 -19.24146159594773 a40.659419277688265,40.659419277688265 0 0,0 0.6837699880765675,0.14944563540467062 l -4.362848070887838 19.16920246244719" fill="#ffc812" stroke="none" /><path d="M 105.36241919743992 79.69619591428918 l 10.580045334471276 -40.05937614716854 a62.432969680917196,62.432969680917196 0 0,0 1.0366908718937091,0.2833667765131119 l -11.268034095588696 39.87132282982914" fill="#30ff33" stroke="none" /><path d="M 105.71112130821622 79.79150937346287 l 3.047988210674478 -10.78513970568228 a32.20756309834993,32.20756309834993 0 0,0 0.5322066408770186,0.15536571253900702 l -3.2331850692749238 10.73107566422457" fill="#ff4d07" stroke="none" /><path d="M 106.40334571778207 80.00007090966166 l 11.964096080372443 -37.36813281421945 a60.23667856791051,60.23667856791051 0 0,0 0.984775546829795,0.32466501476644166 l -12.605554449444655 37.15665407519377" fill="#44ff2d" stroke="none" /><path d="M 107.08798089147638 80.2323363322302 l 6.9895695917782135 -19.4932044806858 a41.708430747020394,41.708430747020394 0 0,0 0.6737255654133247,0.24813881154566378 l -7.324077482964114 19.370002401333814" fill="#ffd714" stroke="none" /><path d="M 107.76421540070413 80.48803036053334 l 15.141575740943514 -38.05174778177601 a61.953666809781815,61.953666809781815 0 0,0 0.9874710294943105,0.40281422685168594 l -15.794330640026212 37.785472668740745" fill="#31ff2f" stroke="none" /><path d="M 108.76106565485865 80.91482961587045 l 19.591746346761138 -42.67880551074545 a67.96080242861981,67.96080242861981 0 0,0 1.0589645396289333,0.49719805052001603 l -20.323489097689666 42.33524247758543" fill="#37ff7a" stroke="none" /><path d="M 109.08828744355905 81.06846463323043 l 6.6162018290198805 -13.782008953572932 a36.28783494935403,36.28783494935403 0 0,0 0.5607830999546873,0.2751738316935014 l -6.852456195985 13.666079961744598" fill="#ff8a0c" stroke="none" /><path d="M 110.05341064243156 81.56283822128135 l 8.617000850628985 -15.802899571202357 a38.99956495355508,38.99956495355508 0 0,0 0.5866201478808831,0.32645347717555334 l -8.887745087581903 15.652230696466622" fill="#ffb110" stroke="none" /><path d="M 110.36928655335952 81.73862282372117 l 10.566580694183486 -18.608832394312998 a42.39956239380432,42.39956239380432 0 0,0 0.6315581742296275,0.3658392587732639 l -10.885335600878442 18.424188978149683" fill="#ffe015" stroke="none" /><line stroke="#e1ed5e" stroke-width="0.3" x1="143.23703022742887" x2="145.7803849466894" y1="26.81831364943548" y2="22.513508569990506" /><path d="M 143.74570117128098 25.957352633546492 a86.0,86.0 0 0,1 28.547481713284135,27.462654790039103" fill="none" id="id74" stroke="none" /><text fill="#e1ed5e" style="font-size:6.75px; font-family:Arial;" text-anchor="middle"><textPath startOffset="19.985693538727396" xlink:href="#id74">February</textPath></text><path d="M 110.99172775467656 82.1063720568725 l 28.407398119333298 -46.24490563491102 a75.27312009726478,75.27312009726478 0 0,0 1.0982020161421149,0.6876940017589457 l -29.199219287847676 45.749067291829135" fill="#41ffd0" stroke="none" /><path d="M 111.60114157652 82.49532879139004 l 5.950435993949134 -8.97846344990497 a31.771281002711092,31.771281002711092 0 0,0 0.45326317338585054,0.3060453179933342 l -6.104103861741526 8.874706219612964" fill="#ff4706" stroke="none" /><path d="M 111.90073688211348 82.69761687909136 l 11.833036928283068 -17.203954716848887 a41.880536890738654,41.880536890738654 0 0,0 0.5904534681364695,0.4136503878249216 l -12.127421536003189 16.997719486260028" fill="#ffd914" stroke="none" /><path d="M 112.19680574252982 82.90503203632743 l 23.608990845791983 -33.0902164618505 a61.64906978331499,61.64906978331499 0 0,0 0.8585504381220281,0.6237734057332847 l -24.1750866002678 32.67892382130054" fill="#35ff2f" stroke="none" /><path d="M 112.77801427241765 83.33499621200491 l 7.089520953056504 -9.246107495183084 a32.65125792162838,32.65125792162838 0 0,0 0.44307359717889755,0.34582597051507374 l -7.247627105394832 9.122703135444787" fill="#ff5407" stroke="none" /><path d="M 113.06298171725822 83.55741782278167 l 26.06267359259375 -32.80550042706376 a62.89825548950892,62.89825548950892 0 0,0 0.8419278978249188,0.6807804745470649 l -26.62350488898316 32.352013855252565" fill="#30ff39" stroke="none" /><path d="M 113.34407831869373 83.78471172551755 l 17.766523756088784 -21.589299572442997 a48.95974288873835,48.95974288873835 0 0,0 0.6461344635253945,0.5411190313701121 l -18.135515756573295 21.280279383679066" fill="#c8ff1d" stroke="none" /><path d="M 114.42810811169701 84.74124197986012 l 13.211268499223342 -13.97186295030022 a40.22889933564953,40.22889933564953 0 0,0 0.4990620175221885,0.48009726545002707 l -13.449813760357948 13.742382598087891" fill="#ffc212" stroke="none" /><path d="M 114.68862486808459 84.99185889309783 l 19.113791399013742 -19.52956665314434 a48.326562083522674,48.326562083522674 0 0,0 0.589501671751895,0.5869701642303781 l -19.44712887093296 19.19766063826384" fill="#d0ff1d" stroke="none" /><path d="M 115.19652480421416 85.50635884689758 l 24.229562781044322 -23.108874744022927 a54.482709037583994,54.482709037583994 0 0,0 0.6414240981745692,0.6842265059307285 l -24.623754201189353 22.688378821214144" fill="#85ff25" stroke="none" /><path d="M 115.9244219780498 86.31012108654704 l 24.38635289530708 -20.964416714004436 a53.15899525316176,53.15899525316176 0 0,0 0.590544256678636,0.6990181326604489 l -24.743607765472834 20.541539631714883" fill="#94ff23" stroke="none" /><path d="M 116.15771136456269 86.58626213691792 l 26.301054086460418 -21.83449357885419 a55.18319113107992,55.18319113107992 0 0,0 0.6004496374041668,0.7360802574932065 l -26.673002215940993 21.378529151752883" fill="#7dff26" stroke="none" /><path d="M 116.60985879189232 87.15038557335679 l 16.100924891081444 -12.455896185205818 a41.356550103710376,41.356550103710376 0 0,0 0.43074631128611396,0.5668116541374603 l -16.31294714259167 12.176899755187325" fill="#ffd213" stroke="none" /><path d="M 116.82858285166822 87.43820079747576 l 15.481519920378897 -11.55627579005564 a40.3190312692152,40.3190312692152 0 0,0 0.41036592426016494,0.5597386595123636 l -15.678148457152687 11.288074686871783" fill="#ffc312" stroke="none" /><path d="M 117.2510076193507 88.02491185347247 l 13.853537283908 -9.61667479237065 a37.86419074070399,37.86419074070399 0 0,0 0.3670582315266578,0.5386126621585461 l -14.017019981103392 9.376784106941699" fill="#ffa10e" stroke="none" /><path d="M 117.65298651832404 88.62581576622439 l 40.10116670293332 -25.838010899461967 a68.70436435146331,68.70436435146331 0 0,0 0.6319898671507543,0.999656197137612 l -40.53998416633003 25.14390705461015" fill="#38ff83" stroke="none" /><line stroke="#e1ed5e" stroke-width="0.3" x1="172.23445277983987" x2="176.4835382374775" y1="55.19839476539836" y2="52.563006222186495" /><path d="M 173.08426987136738 54.67131705675599 a86.0,86.0 0 0,1 12.851231095245387,41.99856678651699" fill="none" id="id75" stroke="none" /><text fill="#e1ed5e" style="font-size:6.75px; font-family:Arial;" text-anchor="middle"><textPath startOffset="22.20632615414155" xlink:href="#id75">March</textPath></text><path d="M 118.03404312379186 89.2402003453031 l 24.159706901490058 -14.414604877664994 a49.133116985949314,49.133116985949314 0 0,0 0.4270845318525085,0.7300259064209863 l -24.404251107812893 13.996599558890113" fill="#c6ff1e" stroke="none" /><path d="M 118.21658344932153 89.55222093294921 l 15.811614044718898 -9.068454065070751 a39.227561488840195,39.227561488840195 0 0,0 0.3308982270704415,0.5886310233419225 l -15.965369913081773 8.794939531794036" fill="#ffb410" stroke="none" /><path d="M 118.56541770881063 90.18545643968196 l 17.4102756899849 -9.203881745973918 a40.69337804428562,40.69337804428562 0 0,0 0.3220407411337859,0.6220802083613175 l -17.5661258642788 8.902828815352255" fill="#ffc912" stroke="none" /><path d="M 118.73160827565052 90.50648371742162 l 33.98130262898941 -17.222335907530685 a59.09642742403523,59.09642742403523 0 0,0 0.4520594921855655,0.9113243512019767 l -34.27272213412839 16.634851967829757" fill="#50ff2b" stroke="none" /><path d="M 118.89224826269711 90.83032412892265 l 12.973349489471188 -6.296837100936669 a35.4207473610661,35.4207473610661 0 0,0 0.2615093641111684,0.5508054140207833 l -13.079817047424113 6.072589271275345" fill="#ff7d0b" stroke="none" /><path d="M 119.196687751892 91.48605970444005 l 38.2381861364954 -16.959052414890852 a62.83023234241335,62.83023234241335 0 0,0 0.429966099540365,0.9924210387524288 l -38.52444294587844 16.29833223155182" fill="#30ff38" stroke="none" /><path d="M 119.47837535516314 92.15188598940014 l 21.126178835582735 -8.512037430576886 a43.77652768559259,43.77652768559259 0 0,0 0.27559711065798365,0.7013645858107082 l -21.26956949612242 8.147123839870392" fill="#fff316" stroke="none" /><path d="M 119.7369772167798 92.82701384747503 l 35.86528159242703 -13.03447662695642 a59.16039838160444,59.16039838160444 0 0,0 0.33960017918889257,0.9600954376189459 l -36.084334852425734 12.41518356291086" fill="#4fff2b" stroke="none" /><path d="M 120.08093135843002 93.85539295169968 l 46.58225900976488 -14.25380486234232 a69.71424645323538,69.71424645323538 0 0,0 0.34124825822352484,1.150519483133397 l -46.82071316510011 13.449855992462394" fill="#3aff8f" stroke="none" /><path d="M 120.28053869075195 94.5502522615342 l 20.571024873230783 -5.527806632273261 a42.30079131156596,42.30079131156596 0 0,0 0.18290795313709612,0.7048189562870981 l -20.66312915823818 5.172891250437313" fill="#ffdf14" stroke="none" /><path d="M 120.45610955862082 95.25157060432595 l 30.076265077983912 -6.981533844405775 a51.875937813477634,51.875937813477634 0 0,0 0.1944251183549493,0.8715696826506392 l -30.1919845833409 6.462785992205172" fill="#a4ff21" stroke="none" /><path d="M 120.53481517161879 95.60439243477599 l 26.626002589404578 -5.6994649056018165 a48.229173951869456,48.229173951869456 0 0,0 0.16678269380108815,0.8132916466422115 l -26.720164579120663 5.240297602796193" fill="#d1ff1c" stroke="none" /><path d="M 120.67395015179393 96.31383870115 l 51.399010649394775 -9.164433621241812 a73.20962688369593,73.20962688369593 0 0,0 0.21052348030025872,1.2425214977830537 l -51.54914599121526 8.278326335142921" fill="#3effb9" stroke="none" /><path d="M 120.73433829027371 96.67025291283417 l 10.288226248646572 -1.6521960288264272 a31.420045636224927,31.420045636224927 0 0,0 0.08115963350635455,0.5347405809080036 l -10.315141775592227 1.4748563355263415" fill="#ff4106" stroke="none" /><path d="M 120.87857604477298 97.74499172005257 l 38.19460870477516 -4.125241045841478 a59.41673785991182,59.41673785991182 0 0,0 0.10107317423531405,1.0177930711395469 l -38.2599590046927 3.4671724439974967" fill="#4dff2c" stroke="none" /><path d="M 120.94382443527127 98.46500227214037 l 18.076517035591966 -1.3248493685098175 a39.125001903097484,39.125001903097484 0 0,0 0.043446281968159604,0.6720947522678649 l -18.09664390856454 1.0134955519889173" fill="#ffb310" stroke="none" /><path d="M 120.96714384426684 98.82574320788733 l 24.11639010256945 -1.3506291123635454 a45.15418122351643,45.15418122351643 0 0,0 0.03678214828119855,0.776413015683051 l -24.136065859084145 0.9353049900574947" fill="#f9ff18" stroke="none" /><path d="M 120.98425023603335 99.18683210126433 l 18.397689922051857 -0.7129352103233997 a39.41149833886659,39.41149833886659 0 0,0 0.020434496946400788,0.6781214706925028 l -18.4072361134539 0.3961435922058978" fill="#ffb710" stroke="none" /><line stroke="#e1ed5e" stroke-width="0.3" x1="184.98032266829074" x2="189.97916517819016" y1="98.17113171792111" y2="98.06355123074" /><path d="M 185.9800911702706 98.14961562048488 a86.0,86.0 0 0,1 -9.607161424134198,41.387399972396054" fill="none" id="id76" stroke="none" /><text fill="#e1ed5e" style="font-size:6.75px; font-family:Arial;" text-anchor="middle"><textPath startOffset="21.466115282336823" xlink:href="#id76">April</textPath></text><path d="M 120.99980553446 99.90962569577887 l 22.275560070220376 -0.09586461356409515 a43.27576634969334,43.27576634969334 0 0,0 -0.0032059155718596297,0.7449418742326699 l -22.273909857359016 -0.2875867388722595" fill="#ffec16" stroke="none" /><path d="M 120.99824983174949 100.27111621757518 l 42.11984926860564 0.5438250478035137 a63.12335988608551,63.12335988608551 0 0,0 -0.023379501728842286,1.0863535773512876 l -42.10424770419179 -1.2687684409449163" fill="#31ff3c" stroke="none" /><path d="M 120.9904718944345 100.63252640178507 l 16.742815819091767 0.5045276303963523 a37.750415806237854,37.750415806237854 0 0,0 -0.02516310977464555,0.6493480535188196 l -16.73165057646592 -0.7926529309291781" fill="#ff9f0e" stroke="none" /><path d="M 120.95626037817324 101.35467743843564 l 25.207089709877103 1.6294641840850406 a46.25970160490832,46.25970160490832 0 0,0 -0.058206691026787584,0.7941840536291866 l -25.17530646018598 -2.0631213742109975" fill="#eaff1a" stroke="none" /><path d="M 120.92983693683757 101.71520430193887 l 17.39387978480361 1.4254319096864654 a38.452189263738575,38.452189263738575 0 0,0 -0.05973896184570382,0.6592144659999393 l -17.366766226680827 -1.7246277642349752" fill="#ffa90f" stroke="none" /><path d="M 120.81339534386255 102.79330883721812 l 42.60963801357069 5.718522924663949 a63.991659145553285,63.991659145553285 0 0,0 -0.1559139984383055,1.0904621419391665 l -42.50488996411578 -6.4511305385835245" fill="#32ff48" stroke="none" /><path d="M 120.64145759157962 103.86396538481128 l 20.64798993565551 3.865188203077816 a42.006645810984274,42.006645810984274 0 0,0 -0.13916215069227209,0.7095848082554993 l -20.578397851987575 -4.2200367384012605" fill="#ffdb14" stroke="none" /><path d="M 120.5718875245553 104.21870165774334 l 20.32159558970239 4.1673739903514475 a41.74449935011374,41.74449935011374 0 0,0 -0.1504113176806294,0.702671601697901 l -20.24685023329732 -4.516559411465518" fill="#ffd714" stroke="none" /><path d="M 120.41448212921028 104.9243191809786 l 13.621930634450822 3.2858406047541053 a35.012627972284164,35.012627972284164 0 0,0 -0.1463672663220388,0.5846644714007647 l -13.563352053833722 -3.519832915552266" fill="#ff770b" stroke="none" /><path d="M 120.32669344350535 105.2749913415812 l 16.96187365273316 4.40178511590383 a38.52372306383195,38.52372306383195 0 0,0 -0.17209450319498662,0.640427667115142 l -16.883591073196396 -4.69310371619452" fill="#ffaa0f" stroke="none" /><path d="M 120.23288151984713 105.62410040840565 l 39.49148571096009 10.977382568947847 a61.988783486754095,61.988783486754095 0 0,0 -0.2946160486881634,1.0255971154779868 l -39.29667702538583 -11.655537159930416" fill="#31ff2f" stroke="none" /><path d="M 120.02730092923936 106.31721596034902 l 16.46007587048279 5.192005371315849 a38.25951961781736,38.25951961781736 0 0,0 -0.203518324462196,0.6263649967107967 l -16.368265295004345 -5.4745692680044415" fill="#ffa60f" stroke="none" /><path d="M 119.9155931802556 106.66101706037122 l 20.669614619594043 6.913208879407695 a42.79507801162586,42.79507801162586 0 0,0 -0.2396711221269968,0.6965964684665041 l -20.547552666523814 -7.2679780509634995" fill="#ffe515" stroke="none" /><path d="M 119.67450827220406 107.3425965602758 l 19.19054322185715 7.161979079787533 a41.48342972964444,41.48342972964444 0 0,0 -0.25543070314875305,0.666848963983871 l -19.064418239114893 -7.4912516106045475" fill="#ffd413" stroke="none" /><path d="M 119.54520255179757 107.68017299344265 l 26.73911311042145 10.506978059451221 a49.729370996833566,49.729370996833566 0 0,0 -0.31991942934745066,0.7940137872389309 l -26.554291066816607 -10.965691214532965" fill="#beff1e" stroke="none" /><path d="M 119.26925614724726 108.34839909993367 l 26.288030166471213 11.3892807124342 a49.64919274918451,49.64919274918451 0 0,0 -0.34650151587087774,0.7812694445601528 l -26.088087565869063 -11.84009849348704" fill="#bfff1e" stroke="none" /><path d="M 118.97047184881838 109.00673069616215 l 18.360996068863063 8.717366031981026 a41.32532034621697,41.32532034621697 0 0,0 -0.3106222493335255,0.6399738368982222 l -18.208220562914825 -9.032128824844524" fill="#ffd113" stroke="none" /><line stroke="#e1ed5e" stroke-width="0.3" x1="174.80103733775053" x2="179.2010983576182" y1="140.37084112569926" y2="142.7455964860345" /><path d="M 175.68104954172406 140.8457921977663 a86.0,86.0 0 0,1 -30.038265399797805,32.042727171017184" fill="none" id="id77" stroke="none" /><text fill="#e1ed5e" style="font-size:6.75px; font-family:Arial;" text-anchor="middle"><textPath startOffset="22.206326154141568" xlink:href="#id77">May</textPath></text><path d="M 118.12598468904814 110.60418214915192 l 25.41900159792184 14.870790614581615 a50.449381245416376,50.449381245416376 0 0,0 -0.44496143884963335,0.745780965646129 l -25.15925928337398 -15.306133674113848" fill="#b5ff1f" stroke="none" /><path d="M 117.75023020441432 111.22182372390056 l 30.052453599594728 18.99937819857024 a56.55455440992195,56.55455440992195 0 0,0 -0.5272907955876528,0.8183670243448676 l -29.720957940630026 -19.51386682283656" fill="#6dff28" stroke="none" /><path d="M 117.35343817320211 111.8261652097733 l 10.98583398944824 7.486717411825975 a34.29434037657583,34.29434037657583 0 0,0 -0.3366382959381079,0.4849525729693662 l -10.855334786347996 -7.67471124698236" fill="#ff6d0a" stroke="none" /><path d="M 116.93607887273984 112.41649034213515 l 31.456629242647917 23.06206390052536 a60.004849886409346,60.004849886409346 0 0,0 -0.6178748919803956,0.827744389479511 l -31.05499308397243 -23.600121169514185" fill="#46ff2c" stroke="none" /><path d="M 116.498646956653 112.99209946851258 l 26.157967494000115 20.59847189100112 a54.29468888068381,54.29468888068381 0 0,0 -0.584526506022719,0.7292866913223508 l -25.79952307592254 -21.045686415901724" fill="#87ff25" stroke="none" /><path d="M 116.0416608686014 113.55231037782055 l 8.527857399926825 7.204501534365022 a32.163744631267534,32.163744631267534 0 0,0 -0.3609346353624212,0.41984852286432794 l -8.402580254993627 -7.350227156390878" fill="#ff4d07" stroke="none" /><path d="M 115.80600337817218 113.82643327865902 l 14.408634892240167 12.604073541401142 a40.14344350671867,40.14344350671867 0 0,0 -0.4594343519753195,0.5161793648743966 l -14.189541690616508 -12.850227076016406" fill="#ffc111" stroke="none" /><path d="M 115.56566222782051 114.09645910891815 l 21.30120360326041 19.290637376636955 a49.737953395195994,49.737953395195994 0 0,0 -0.5801662068140302,0.6296558332791687 l -20.96599098845066 -19.65444446471746" fill="#beff1f" stroke="none" /><path d="M 115.32070863581623 114.36230785411682 l 16.01185893569787 15.010222622051206 a42.94735541563551,42.94735541563551 0 0,0 -0.5102420862762005,0.5349867875396177 l -15.751110298042706 -15.283616526173331" fill="#ffe815" stroke="none" /><path d="M 114.81725581225074 114.88116024355365 l 16.31483824550131 16.38520150797639 a44.122473384866595,44.122473384866595 0 0,0 -0.542811576203716,0.5312553740078607 l -16.0303767169218 -16.663606984906824" fill="#fff717" stroke="none" /><path d="M 114.55890576462653 115.13401014063108 l 13.472250143138245 14.004429562196767 a40.43259044187931,40.43259044187931 0 0,0 -0.5057234586587827,0.47819309582860664 l -13.229190850088656 -14.234257294771295" fill="#ffc512" stroke="none" /><path d="M 114.0293411484842 115.62618273729858 l 13.431571028553774 14.960373485811452 a41.10522009653352,41.10522009653352 0 0,0 -0.5305659163153915,0.468162733307022 l -13.172062759331796 -15.189359360890764" fill="#ffce13" stroke="none" /><path d="M 113.48314897796784 116.09983520530334 l 11.772315888540508 14.05697927835567 a39.33537803841808,39.33537803841808 0 0,0 -0.5228418578814104,0.4302632541439419 l -11.528603902114405 -14.25753765135679" fill="#ffb610" stroke="none" /><path d="M 112.92097659922987 116.55440617244103 l 15.834049646391323 20.286646848085883 a46.73451317867385,46.73451317867385 0 0,0 -0.6384185342287496,0.4895121084837373 l -15.482502383669079 -20.556198298396993" fill="#e4ff1a" stroke="none" /><path d="M 112.63410532772338 116.77436683061366 l 9.942203983989168 13.200315527389632 a37.52560891712901,37.52560891712901 0 0,0 -0.5193098069291826,0.3841729802221403 l -9.713509206641422 -13.369498456351542" fill="#ff9c0e" stroke="none" /><path d="M 112.04921762599082 117.19931262002967 l 12.061859499145356 17.217357901909104 a42.02203291072381,42.02203291072381 0 0,0 -0.5959987236480813,0.40993335673166265 l -11.76370389087439 -17.42243204800586" fill="#ffdb14" stroke="none" /><path d="M 111.7513745106137 117.40417183066458 l 16.44122652847889 24.349996789744363 a50.38088278832545,50.38088278832545 0 0,0 -0.7229064135208916,0.47910295199975844 l -16.019645416218033 -24.629397762835442" fill="#b6ff1f" stroke="none" /><line stroke="#e1ed5e" stroke-width="0.3" x1="143.8653032363475" x2="146.44561519142675" y1="172.8068346515853" y2="177.08958963109032" /><path d="M 144.38136562736335 173.6633856474863 a86.0,86.0 0 0,1 -40.68145358897372,12.25698825130547" fill="none" id="id78" stroke="none" /><text fill="#e1ed5e" style="font-size:6.75px; font-family:Arial;" text-anchor="middle"><textPath startOffset="21.466115282336833" xlink:href="#id78">June</textPath></text><path d="M 110.8373102113329 117.98757091392108 l 13.194827924834836 21.900536052456623 a46.56828041443056,46.56828041443056 0 0,0 -0.6901688121871676,0.4077638994490721 l -12.815891241619285 -22.12441852419944" fill="#e6ff1a" stroke="none" /><path d="M 110.5260780823613 118.17145234162733 l 8.115858821355433 14.010625859859932 a37.191503987991624,37.191503987991624 0 0,0 -0.5567235780323957,0.31612217719966457 l -7.873486476401838 -14.148251202854224" fill="#ff970d" stroke="none" /><path d="M 109.89434966115114 118.52300852407294 l 8.414521214452844 15.752652121571474 a38.85917736436164,38.85917736436164 0 0,0 -0.5927118109591195,0.3100788062036376 l -8.142118500967229 -15.895160346719829" fill="#ffaf10" stroke="none" /><path d="M 109.57404056367764 118.69057910512821 l 6.248938915847769 12.199268047063965 a34.70661805326582,34.70661805326582 0 0,0 -0.5340622857838004,0.2677899170431836 l -6.038022722381208 -12.30502580501645" fill="#ff730a" stroke="none" /><path d="M 109.2508944713604 118.85261126421891 l 15.828803708771188 32.25788425356519 a56.932187845540625,56.932187845540625 0 0,0 -0.8834989905663244,0.4241332056170741 l -15.27119205020463 -32.52557173568182" fill="#68ff28" stroke="none" /><path d="M 108.59647513512805 119.15986991738527 l 10.698242699384892 23.8443007445258 a47.134327518616885,47.134327518616885 0 0,0 -0.7431048264440071,0.3257553180752355 l -10.286217198283131 -24.02492061589549" fill="#dfff1b" stroke="none" /><path d="M 108.2653958097858 119.30500536409082 l 2.4605229079911135 5.746900575650444 a27.251482960639056,27.251482960639056 0 0,0 -0.43281653992341673,0.18091734879044893 l -2.3612349085702355 -5.788402967460866" fill="#ff0000" stroke="none" /><path d="M 107.59598834532513 119.57807347666477 l 7.426359949643956 19.140869383741354 a41.5310424203722,41.5310424203722 0 0,0 -0.6687086764379102,0.25284840230192046 l -7.095781052445771 -19.265866036149905" fill="#ffd413" stroke="none" /><path d="M 107.2578585660854 119.70592522655815 l 7.6256791401253405 20.70460061583762 a43.064257726229684,43.064257726229684 0 0,0 -0.6978059304874178,0.25020837992696093 l -7.268153649008188 -20.83279653680454" fill="#ffe915" stroke="none" /><path d="M 106.57524785965236 119.94407469862006 l 5.65920813988276 17.16553843839855 a39.074356050787905,39.074356050787905 0 0,0 -0.6405936544096635,0.20509785886111528 l -5.362893140382155 -17.260409143919368" fill="#ffb210" stroke="none" /><path d="M 106.2309692047433 120.05430185196036 l 7.9744296613309285 25.665609036202042 a47.87591887959722,47.87591887959722 0 0,0 -0.7890977926617765,0.2377486918610962 l -7.531456894228906 -25.799073097168865" fill="#d6ff1c" stroke="none" /><path d="M 105.88484417918355 120.15858648285463 l 4.97819576827434 17.05285422481008 a38.76463538381488,38.76463538381488 0 0,0 -0.6421432585627881,0.18147609906548484 l -4.683921341606946 -17.136019117214083" fill="#ffae10" stroke="none" /><path d="M 105.18746579009965 120.34920634021253 l 4.741545332003022 18.599965423684736 a40.19481612044532,40.19481612044532 0 0,0 -0.6719170556872835,0.16514086462718888 l -4.420674991572527 -18.678827546625957" fill="#ffc212" stroke="none" /><path d="M 104.83641907484287 120.43548508189849 l 4.542934066538655 19.19541295081329 a40.725671808208915,40.725671808208915 0 0,0 -0.6835704149920384,0.15557840093798717 l -4.211843502153755 -19.27076808532896" fill="#ffc912" stroke="none" /><path d="M 104.48393922423573 120.51570834832081 l 8.137838851992196 37.233673367096635 a59.11260754118819,59.11260754118819 0 0,0 -0.9959307278688819,0.20870696727801258 l -7.495716662693936 -37.368236315101186" fill="#50ff2b" stroke="none" /><path d="M 103.7750983002368 120.6578951692458 l 4.989903559029422 27.30548887180239 a48.75768110013044,48.75768110013044 0 0,0 -0.8269094415452023,0.14376880579712134 l -4.519145146012169 -27.387336256120516" fill="#caff1d" stroke="none" /><path d="M 103.06178313531738 120.77559828337769 l 4.382464194561075 29.737023026632297 a51.058219024138296,51.058219024138296 0 0,0 -0.8705946865459321,0.12065649067841563 l -3.869940916828313 -29.808054082803316" fill="#aeff20" stroke="none" /><path d="M 102.34483914955558 120.86867818915974 l 4.426985240588923 39.39943187639106 a60.647363474798325,60.647363474798325 0 0,0 -1.0384197622547358,0.10763645419994781 l -3.7481328817285853 -39.469797699046765" fill="#3fff2d" stroke="none" /><path d="M 101.98527174616119 120.90594882070398 l 1.0582203810476458 11.143613548113075 a32.19374616848863,32.19374616848863 0 0,0 -0.5521314578936977,0.04764022543508091 l -0.8662446054124064 -11.16017802582682" fill="#ff4d07" stroke="none" /><path d="M 101.26447882468166 120.96189622390904 l 1.6856362153743456 27.943632371095894 a48.994427294401646,48.994427294401646 0 0,0 -0.8422653730727274,0.04353549908994212 l -1.2043827738881385 -27.96850767694804" fill="#c7ff1e" stroke="none" /><path d="M 100.90346689309514 120.98055641714683 l 0.7848968917090853 18.227091268093076 a39.24398309651731,39.24398309651731 0 0,0 -0.6751453529521745,0.0232533710587111 l -0.4710311870822585 -18.23790143757788" fill="#ffb410" stroke="none" /><line stroke="#e1ed5e" stroke-width="0.3" x1="102.19456741930631" x2="102.32365962044197" y1="184.97166512339345" y2="189.96999836594603" /><path d="M 102.22038585953345 185.97133177190398 a86.0,86.0 0 0,1 -42.740103519485714,-10.115201625700543" fill="none" id="id79" stroke="none" /><text fill="#e1ed5e" style="font-size:6.75px; font-family:Arial;" text-anchor="middle"><textPath startOffset="22.20632615414155" xlink:href="#id79">July</textPath></text><path d="M 99.81925306533755 120.99922214144158 l -0.24675659340700964 28.66824009766024 a49.66930203394363,49.66930203394363 0 0,0 -0.8548803776173012,-0.014717540973071217 l 0.7401966609169787 -28.65974507940801" fill="#bfff1e" stroke="none" /><path d="M 99.45781275523022 120.99299961872073 l -0.9358692641739222 36.2360112590215 a57.24809461535266,57.24809461535266 0 0,0 -0.9848843566633987,-0.033921408620042295 l 1.559473972511964 -36.21453305197537" fill="#65ff29" stroke="none" /><path d="M 98.73552117531835 120.96189622390904 l -1.7710574417244043 29.359702650106055 a50.41307165470026,50.41307165470026 0 0,0 -0.86575385629548,-0.05970745476531118 l 2.2761740587988144 -29.32486685082446" fill="#b6ff1f" stroke="none" /><path d="M 98.01472825383883 120.90594882070398 l -1.7869479269944502 18.817495377771877 a39.90215107299314,39.90215107299314 0 0,0 -0.683214897674642,-0.07081801764114756 l 2.1105954212746854 -18.78394799167497" fill="#ffbe11" stroke="none" /><path d="M 97.2962882734958 120.8252237178851 l -1.9158078822569786 14.756428119677851 a35.880271862198526,35.880271862198526 0 0,0 -0.6117952140141396,-0.08478924197166972 l 2.1695316874579493 -14.721264312213577" fill="#ff840c" stroke="none" /><path d="M 96.22490169976321 120.6578951692458 l -4.290235809276462 23.476803661991635 a44.86559099379066,44.86559099379066 0 0,0 -0.7585113235321987,-0.14537050042710728 l 4.693714747380356 -23.39947596321606" fill="#fdff18" stroke="none" /><path d="M 95.86986931433489 120.58985236759428 l -3.5939588094771824 17.91688615548821 a39.27378859002543,39.27378859002543 0 0,0 -0.6616857973889583,-0.13866269229336156 l 3.9018360682955278 -17.852367482468306" fill="#ffb510" stroke="none" /><path d="M 95.16358092515715 120.4354850818985 l -4.721656585193877 19.950575253182024 a41.501694901675414,41.501694901675414 0 0,0 -0.6937635082296476,-0.17051019114055205 l 5.064373378166735 -19.866343803727442" fill="#ffd413" stroke="none" /><path d="M 94.81253420990036 120.34920634021253 l -3.951938123383905 15.502522343370808 a36.99831284660249,36.99831284660249 0 0,0 -0.6157744733208582,-0.1626316350911351 l 4.218203039516252 -15.43219935897609" fill="#ff940d" stroke="none" /><path d="M 94.46302465271185 120.25689768951611 l -5.107843020465277 18.68692688515404 a40.37243652029369,40.37243652029369 0 0,0 -0.6687767777659614,-0.1890029976273343 l 5.428750966335852 -18.596235094188184" fill="#ffc412" stroke="none" /><path d="M 93.76903079525671 120.05430185196036 l -5.997715830744245 19.303578583001787 a41.21387496984399,41.21387496984399 0 0,0 -0.6756694018194309,-0.21632800552612738 l 6.329106577654617 -19.197477730815955" fill="#ffd013" stroke="none" /><path d="M 93.42475214034765 119.94407469862007 l -6.31709114831726 19.161032470446273 a41.17550014026033,41.17550014026033 0 0,0 -0.6712199980694579,-0.22771426663170244 l 6.645980879323944 -19.049455216916446" fill="#ffcf13" stroke="none" /><path d="M 92.06813273071674 119.44442032107085 l -13.505790958110067 33.108506136379226 a56.75723098880601,56.75723098880601 0 0,0 -0.9014360197458035,-0.37680032936237307 l 14.073698437353332 -32.871120763996885" fill="#6aff28" stroke="none" /><path d="M 91.40352486487194 119.15986991738527 l -6.2678605502855484 13.969841233303715 a36.31151657940971,36.31151657940971 0 0,0 -0.5680712056456214,-0.2607736283787433 l 6.507399751698589 -13.859880534590896" fill="#ff8a0c" stroke="none" /><path d="M 90.10565033884886 118.52300852407294 l -14.0120162272422 26.23160742294399 a50.739432185970685,50.739432185970685 0 0,0 -0.7668351578364369,-0.4181396697230308 l 14.461474196947277 -25.986527101461196" fill="#b2ff20" stroke="none" /><line stroke="#e1ed5e" stroke-width="0.3" x1="58.666819895761336" x2="56.23545636021788" y1="174.27360380694188" y2="178.64263932499728" /><path d="M 58.180547188652646 175.14741091055294 a86.0,86.0 0 0,1 -31.652253787137756,-30.449443065178592" fill="none" id="id80" stroke="none" /><text fill="#e1ed5e" style="font-size:6.75px; font-family:Arial;" text-anchor="middle"><textPath startOffset="22.20632615414155" xlink:href="#id80">August</textPath></text><path d="M 89.7882731507175 118.34994917583269 l -17.143911168356453 30.806728700977292 a56.25575447220092,56.25575447220092 0 0,0 -0.8420983707673414,-0.4781654323391559 l 17.671658306045 -30.507060102843504" fill="#70ff27" stroke="none" /><path d="M 89.1626897886671 117.98757091392108 l -11.461653352589893 19.02384433499897 a43.20982104514144,43.20982104514144 0 0,0 -0.63378684043363,-0.3893236422867916 l 11.787419392955831 -18.823732225883802" fill="#ffeb16" stroke="none" /><path d="M 88.8546689885994 117.79835938074946 l -7.7334821185624785 12.349861468446194 a35.57140432380962,35.57140432380962 0 0,0 -0.5161549630576925,-0.3294345184502626 l 7.9449188836670945 -12.214912521172128" fill="#ff800b" stroke="none" /><path d="M 88.24862548938628 117.40417183066458 l -6.998856732518996 10.365536821326511 a33.507131931686104,33.507131931686104 0 0,0 -0.4752318362802486,-0.32686879038879185 l 7.176245453422134 -10.243527241572618" fill="#ff6108" stroke="none" /><path d="M 87.95078237400918 117.19931262002967 l -7.288707686369009 10.404058253829179 a33.703136930947636,33.703136930947636 0 0,0 -0.47228153164499165,-0.33696033297630784 l 7.466716545862888 -10.277053659008653" fill="#ff6409" stroke="none" /><path d="M 87.65650970185807 116.9893568818739 l -21.362699649607674 29.403233570175885 a57.34439545104122,57.34439545104122 0 0,0 -0.7935782466825663,-0.5870702151193543 l 21.865662866708803 -29.031153406316765" fill="#64ff29" stroke="none" /><path d="M 87.07902340077011 116.55440617244103 l -13.532633872241805 17.338063882677154 a42.99410463555951,42.99410463555951 0 0,0 -0.5794837702105248,-0.46037695382153027 l 13.829075135169688 -17.102553014850493" fill="#ffe815" stroke="none" /><path d="M 86.79598089348748 116.32954008644616 l -7.310795599665725 9.041332706772119 a32.627270935806,32.627270935806 0 0,0 -0.43367837820234006,-0.35688778058685144 l 7.465344106412753 -8.914149807328087" fill="#ff5407" stroke="none" /><path d="M 85.97065885151581 115.62618273729859 l -25.933976853409984 28.88582272874885 a59.81960729000112,59.81960729000112 0 0,0 -0.7602800064960537,-0.6944977598691745 l 26.42735640937289 -28.435132202293097" fill="#48ff2c" stroke="none" /><path d="M 85.70375840098266 115.38237550388516 l -26.121778418665652 28.1063384164421 a59.37073842048698,59.37073842048698 0 0,0 -0.7425983556580132,-0.7021730959269796 l 26.601712608714486 -27.65253068376919" fill="#4dff2c" stroke="none" /><path d="M 83.50135304334701 112.99209946851258 l -13.881221496615876 10.930969727536652 a38.66845803748684,38.66845803748684 0 0,0 -0.4072952050752989,-0.5264839565059883 l 14.067323518909243 -10.690407776917413" fill="#ffac0f" stroke="none" /><path d="M 83.06392112726016 112.41649034213515 l -8.739011880433988 6.406905484354244 a31.835994026014173,31.835994026014173 0 0,0 -0.3202097746716016,-0.44474337068051817 l 8.848001447481197 -6.2555285082225875" fill="#ff4806" stroke="none" /><path d="M 82.6465618267979 111.8261652097733 l -19.86898451745205 13.540480630326742 a45.044150254375865,45.044150254375865 0 0,0 -0.4311302057400956,-0.644481161066973 l 20.099117828602875 -13.196462555053948" fill="#faff18" stroke="none" /><path d="M 82.24976979558568 111.22182372390057 l -16.282332407288113 10.293808135688325 a40.26335470669083,40.26335470669083 0 0,0 -0.36531394272458295,-0.5890023941636705 l 16.457110989680654 -10.01200941015939" fill="#ffc312" stroke="none" /><path d="M 82.05923443525364 110.91462005526583 l -20.925759480116998 12.730600222665748 a45.493990933472716,45.493990933472716 0 0,0 -0.40125510293763783,-0.6725266326738817 l 21.141795458752867 -12.368511496105755" fill="#f4ff19" stroke="none" /><line stroke="#e1ed5e" stroke-width="0.3" x1="26.63291911575756" x2="22.317208475507996" y1="142.92168965132927" y2="145.44649492493687" /><path d="M 25.769776987707644 143.4266507060508 a86.0,86.0 0 0,1 -11.730757126820373,-40.83630448921669" fill="none" id="id81" stroke="none" /><text fill="#e1ed5e" style="font-size:6.75px; font-family:Arial;" text-anchor="middle"><textPath startOffset="21.46611528233685" xlink:href="#id81">September</textPath></text><path d="M 81.87401531095188 110.60418214915194 l -15.690882443726103 9.179582702325435 a39.17879342672842,39.17879342672842 0 0,0 -0.33553465671216526,-0.5850329562780499 l 15.846569096590645 -8.908129900189078" fill="#ffb310" stroke="none" /><path d="M 81.35079622478065 109.6543875284942 l -18.27649845913055 9.46144408711079 a41.58031389799789,41.58031389799789 0 0,0 -0.32357667656739986,-0.6384474805947492 l 18.436653805484216 -9.145442394813356" fill="#ffd513" stroke="none" /><path d="M 81.18737489456691 109.33194174019688 l -36.10222012293303 17.908389339118692 a61.29988469618952,61.29988469618952 0 0,0 -0.46076129377079733,-0.9493047381550218 l 36.40513467331855 -17.284295644998384" fill="#38ff2e" stroke="none" /><path d="M 81.02952815118164 109.00673069616217 l -8.562436139748652 4.06524186790884 a30.478475831686904,30.478475831686904 0 0,0 -0.22093322198174384,-0.47587050500654265 l 8.631143978570222 -3.917251295623471" fill="#ff3304" stroke="none" /><path d="M 80.87730276802145 108.67885076344099 l -18.214467616482906 8.266650057850025 a41.00260817320722,41.00260817320722 0 0,0 -0.28615703700255274,-0.6452085751892624 l 18.35406573821674 -7.951893146168067" fill="#ffcd13" stroke="none" /><path d="M 80.58989483394504 108.01547362559985 l -16.41794248639915 6.779849148704761 a38.76274725277323,38.76274725277323 0 0,0 -0.2493688484786327,-0.618913031333544 l 16.53221394913517 -6.4962367495284115" fill="#ffae10" stroke="none" /><path d="M 80.32549172779594 107.34259656027581 l -37.90262917033771 14.145396201068765 a61.45616803046657,61.45616803046657 0 0,0 -0.36134979825471253,-0.9942794512339644 l 38.14050322959765 -13.490868952828684" fill="#37ff2e" stroke="none" /><path d="M 80.20201598880116 107.00284435728193 l -9.939621938268212 3.5157935961835522 a31.54309674083796,31.54309674083796 0 0,0 -0.17665511415082435,-0.5134424521482595 l 9.998667883362264 -3.3441784409459956" fill="#ff4306" stroke="none" /><path d="M 79.97269907076064 106.31721596034903 l -27.202251769765684 8.580412290430543 a49.52342855302447,49.52342855302447 0 0,0 -0.24944061307692653,-0.8151863560726823 l 27.345919155348742 -8.110898961805812" fill="#c1ff1e" stroke="none" /><path d="M 79.76711848015287 105.62410040840567 l -12.983337368663262 3.6089566839968037 a34.475593403464394,34.475593403464394 0 0,0 -0.15401055887799098,-0.5731305829191905 l 13.043536003883029 -3.3849351679020745" fill="#ff6f0a" stroke="none" /><path d="M 79.07016306316243 101.71520430193888 l -18.79783062545049 1.5404859604588392 a39.86084656682979,39.86084656682979 0 0,0 -0.0501552733737408,-0.6843288566344291 l 18.821562457488564 -1.2166839673276495" fill="#ffbd11" stroke="none" /><line stroke="#e1ed5e" stroke-width="0.3" x1="15.007084014347285" x2="10.007500721073583" y1="101.09737516637583" y2="101.16192664675087" /><path d="M 14.007167355692545 101.11028546245083 a86.0,86.0 0 0,1 10.666146001902534,-42.60595125391555" fill="none" id="id82" stroke="none" /><text fill="#e1ed5e" style="font-size:6.75px; font-family:Arial;" text-anchor="middle"><textPath startOffset="22.20632615414155" xlink:href="#id82">October</textPath></text><path d="M 79.03285615573316 98.82574320788736 l -17.63201699083901 -0.9874743009310541 a38.659646900780174,38.659646900780174 0 0,0 0.04292952941448873,-0.6641008189826473 l 17.61240687042011 1.2908341841667132" fill="#ffac0f" stroke="none" /><path d="M 79.05617556472873 98.46500227214037 l -21.811934076722956 -1.5986225128782305 a42.87043808674141,42.87043808674141 0 0,0 0.060274848256920574,-0.7355058193265964 l 21.781184744646538 1.9738422494126053" fill="#ffe715" stroke="none" /><path d="M 79.08570108090925 98.10471618934814 l -62.742896757272284 -5.685851431955563 a84.0,84.0 0 0,0 0.1428914972710853,-1.4388978771822787 l 62.635728134318974 6.7650248398422725" fill="#4dd2ff" stroke="none" /><path d="M 79.16333360222342 97.38593545837743 l -16.94616928867519 -2.1259821224851017 a38.079006222423025,38.079006222423025 0 0,0 0.08719004624170186,-0.6496671181857082 l 16.907063243375653 2.4173675827354693" fill="#ffa40f" stroke="none" /><path d="M 79.26566170972629 96.67025291283419 l -12.25639963195319 -1.9682668625494635 a33.41343652581156,33.41343652581156 0 0,0 0.09608453485742603,-0.5670963637622023 l 12.220703235575542 2.1789490146274937" fill="#ff5f08" stroke="none" /><path d="M 79.32604984820605 96.31383870115002 l -18.727801572870003 -3.339163385013047 a40.02315861955117,40.02315861955117 0 0,0 0.12676721059143944,-0.6771955079390155 l 18.6675486383687 3.661036970414635" fill="#ffbf11" stroke="none" /><path d="M 79.46518482838121 95.60439243477599 l -20.90325420671322 -4.474474279944832 a42.37678545788309,42.37678545788309 0 0,0 0.15882337506408703,-0.7119740482780467 l 20.823136444647098 4.833626497772837" fill="#ffe015" stroke="none" /><path d="M 79.62865764111835 94.90015583598534 l -39.88538758164969 -9.985069098750616 a62.116246757762795,62.116246757762795 0 0,0 0.2685896693359043,-1.034985560572857 l 39.70760158044347 10.670151084872337" fill="#30ff2f" stroke="none" /><path d="M 79.71946130924805 94.55025226153421 l -17.29666097167257 -4.64792579974053 a38.91026786535798,38.91026786535798 0 0,0 0.17938231857967915,-0.6453336418307303 l 17.214091882526528 4.9449707449902025" fill="#ffb010" stroke="none" /><path d="M 79.91906864156998 93.8553929516997 l -26.59978416676905 -8.13932473335114 a48.81720914889988,48.81720914889988 0 0,0 0.25279065679445384,-0.801415463314769 l 26.455738026206394 8.595990363092325" fill="#caff1d" stroke="none" /><path d="M 80.14247586403 93.16781622104843 l -17.072786651160193 -5.87406643551637 a39.05504640051899,39.05504640051899 0 0,0 0.22418883440059528,-0.6338120244436053 l 16.96914473594979 6.1670760863865866" fill="#ffb210" stroke="none" /><path d="M 80.38941819471856 92.48833698450439 l -29.749157762442263 -11.39515646833584 a52.856898444646724,52.856898444646724 0 0,0 0.3327629956014622,-0.8468455276107126 l 29.54860121695911 11.905551000842316" fill="#98ff23" stroke="none" /><path d="M 80.52162464483688 92.15188598940014 l -12.5318699893302 -5.049268362939118 a34.51084292079709,34.51084292079709 0 0,0 0.22674989954032942,-0.5490928673776013 l 12.443098402903672 5.264235800770031" fill="#ff700a" stroke="none" /><path d="M 80.803312248108 91.48605970444005 l -18.995760782284435 -8.424826994082293 a41.78019820834231,41.78019820834231 0 0,0 0.2972316575780128,-0.6549105579239157 l 18.847926807743068 8.750559560848279" fill="#ffd814" stroke="none" /><path d="M 81.10775173730289 90.83032412892265 l -22.43687384724089 -10.89012053402262 a45.940088878802,45.940088878802 0 0,0 0.3514197753528485,-0.7084408231859772 l 22.246094058934627 11.274720945707559" fill="#efff19" stroke="none" /><path d="M 81.43458229118936 90.18545643968196 l -21.615273789008114 -11.426839379420114 a45.44979998234847,45.44979998234847 0 0,0 0.37158869281474644,-0.6884974132438331 l 21.415376996974896 11.79721777599642" fill="#f5ff19" stroke="none" /><path d="M 81.6062741919709 89.86733742301443 l -33.59847190733572 -18.508592684944457 a59.35916210874799,59.35916210874799 0 0,0 0.5007153327070759,-0.890716705567657 l 33.27489893333622 19.0841929004469" fill="#4dff2c" stroke="none" /><line stroke="#e1ed5e" stroke-width="0.3" x1="26.266209847984243" x2="21.928928074336255" y1="57.711370442889674" y2="55.22380399835377" /><path d="M 25.398753493254645 57.213857153982495 a86.0,86.0 0 0,1 29.58750427330803,-30.492523968695096" fill="none" id="id83" stroke="none" /><text fill="#e1ed5e" style="font-size:6.75px; font-family:Arial;" text-anchor="middle"><textPath startOffset="21.46611528233685" xlink:href="#id83">November</textPath></text><path d="M 81.96595687620814 89.24020034530311 l -21.706359044833192 -12.950843743253461 a46.276280910082065,46.276280910082065 0 0,0 0.4140277189082641,-0.6805527086264569 l 21.480215527638713 13.322564225086992" fill="#eaff1a" stroke="none" /><path d="M 82.95767976084542 87.72973835380427 l -29.681607802561572 -21.370393743713752 a57.57446610008742,57.57446610008742 0 0,0 0.5859912366740506,-0.7992913882732148 l 29.30935395337389 21.878147575658467" fill="#61ff29" stroke="none" /><path d="M 83.39014120810768 87.1503855733568 l -19.911313707273365 -15.403665201012208 a46.17406036328519,46.17406036328519 0 0,0 0.49174477060268557,-0.6244659212020999 l 19.64321485607671 15.744123516167356" fill="#ecff1a" stroke="none" /><path d="M 83.84228863543731 86.58626213691792 l -23.819876862378052 -19.774680767202877 a51.95843234376761,51.95843234376761 0 0,0 0.5772071812213481,-0.683231242049167 l 23.475959067669578 20.18177095888116" fill="#a3ff22" stroke="none" /><path d="M 84.31358615837235 86.03803664274999 l -8.644561035900715 -7.694240738597871 a32.572803292500566,32.572803292500566 0 0,0 0.37638085056609005,-0.4156091358591693 l 8.510836544718579 7.8419026617265954" fill="#ff5307" stroke="none" /><path d="M 84.5562425177563 85.77008943001954 l -29.58183628495441 -27.256766063225452 a61.22457376051664,61.22457376051664 0 0,0 0.7207959681918992,-0.7688948828216136 l 29.108272994792053 27.761930362925117" fill="#39ff2e" stroke="none" /><path d="M 85.05521093208273 85.24692304244772 l -22.072062353765602 -21.788921411814677 a52.01504526578597,52.01504526578597 0 0,0 0.634494878560526,-0.6317701559101788 l 21.693731675037764 22.165627418374967" fill="#a2ff22" stroke="none" /><path d="M 85.57189188830299 84.74124197986013 l -17.301834260038895 -18.29792930817229 a46.18268622940623,46.18268622940623 0 0,0 0.5823243437486968,-0.5412070135147811 l 16.984302032495343 18.59304090776172" fill="#ebff1a" stroke="none" /><path d="M 86.10567301691215 84.25364557470407 l -8.652524742800546 -9.805852520933046 a34.07749701154868,34.07749701154868 0 0,0 0.4431797981166661,-0.3843211537605213 l 8.482451146037107 9.953338668113249" fill="#ff6909" stroke="none" /><path d="M 86.37877921826538 84.01681056812374 l -24.652976797336915 -28.92789159837017 a59.007791007859005,59.007791007859005 0 0,0 0.7787411685009573,-0.6521733332224705 l 24.151378091876847 29.347966088986453" fill="#51ff2b" stroke="none" /><path d="M 86.93701828274178 83.55741782278169 l -14.661190039832434 -18.454272329515042 a44.56927365439984,44.56927365439984 0 0,0 0.6047996205568881,-0.47205569701726846 l 14.34135786411612 18.703906415755533" fill="#fffd17" stroke="none" /><path d="M 87.22198572758235 83.33499621200491 l -9.59716018276847 -12.516554402750053 a36.77243220593191,36.77243220593191 0 0,0 0.5056276778629377,-0.38082828420527776 l 9.380286351147141 12.679899276461185" fill="#ff910d" stroke="none" /><path d="M 87.51073957382395 83.11751280151077 l -18.31825701692736 -24.761893741821844 a51.801135073556694,51.801135073556694 0 0,0 0.7214040271643831,-0.5241307056092606 l 17.889307673409196 25.07354368224777" fill="#a5ff21" stroke="none" /><path d="M 88.09926311788651 82.69761687909137 l -6.502404680278586 -9.453792491998108 a32.47412127824474,32.47412127824474 0 0,0 0.46329020420165856,-0.3128156139598736 l 6.338709781670388 9.564320018256646" fill="#ff5107" stroke="none" /><path d="M 88.39885842347998 82.49532879139004 l -25.295898752227927 -38.16834642206493 a66.78979321068968,66.78979321068968 0 0,0 0.9637861754232248,-0.6268733379518628 l 24.635145551020415 38.59811868417633" fill="#36ff6b" stroke="none" /><path d="M 89.00827224532344 82.1063720568725 l -14.550752285328745 -23.687426899334287 a48.799614838704244,48.799614838704244 0 0,0 0.7195339003824253,-0.4335111240606549 l 14.140856318728671 23.93438463285356" fill="#caff1d" stroke="none" /><line stroke="#e1ed5e" stroke-width="0.3" x1="56.762969772571076" x2="54.21961505331055" y1="26.818313649435495" y2="22.513508569990535" /><path d="M 56.25429882871897 25.957352633546506 a86.0,86.0 0 0,1 42.265352541879196,-11.944610805530505" fill="none" id="id84" stroke="none" /><text fill="#e1ed5e" style="font-size:6.75px; font-family:Arial;" text-anchor="middle"><textPath startOffset="22.20632615414155" xlink:href="#id84">December</textPath></text><path d="M 89.3179101791058 81.91981866633112 l -7.761460959747211 -13.136813481191478 a36.258313952376724,36.258313952376724 0 0,0 0.5400818609334148,-0.3128502737246242 l 7.5341823663484755 13.268467912306148" fill="#ff8a0c" stroke="none" /><path d="M 89.63071344664047 81.73862282372117 l -15.08320093067813 -26.563063890974632 a51.54667434584672,51.54667434584672 0 0,0 0.7753501292524262,-0.43148150747520464 l 14.623726712353658 26.81876079601002" fill="#a8ff21" stroke="none" /><path d="M 90.26544431104013 81.39251694778311 l -7.237269228716703 -13.833950805829323 a36.61269550036237,36.61269550036237 0 0,0 0.5609405142070311,-0.2873355184246155 l 6.998068226920909 13.956478849566444" fill="#ff8f0d" stroke="none" /><path d="M 90.58718382345135 81.22770947309562 l -22.29083103246961 -44.4553413536529 a70.73086087117245,70.73086087117245 0 0,0 1.0930569838944493,-0.5363583149026429 l 21.522302781564736 44.832454828690366" fill="#3bff9b" stroke="none" /><path d="M 91.23893434514133 80.91482961587045 l -10.089277777884405 -21.978557521361484 a45.18368286260609,45.18368286260609 0 0,0 0.7096374553149454,-0.31839364076449644 l 9.709458204102686 22.14897149264251" fill="#f9ff18" stroke="none" /><path d="M 91.56875222667455 80.76684994638697 l -6.21574229959872 -14.179194771264523 a36.481764004675824,36.481764004675824 0 0,0 0.5773087011054603,-0.24717345730169107 l 5.970749840702951 14.284087756529" fill="#ff8d0d" stroke="none" /><path d="M 91.90106846888425 80.62456947434976 l -9.670575442336979 -23.135343459342227 a46.075169917024695,46.075169917024695 0 0,0 0.7343858372706841,-0.29957442235293646 l 9.270905735477916 23.29837876787874" fill="#edff1a" stroke="none" /><path d="M 92.57280143429618 80.3572730644239 l -4.118993801314403 -10.893511163435882 a32.6462309526803,32.6462309526803 0 0,0 0.527341835050465,-0.1942244482699032 l 3.9308696404913688 10.962798879512107" fill="#ff5407" stroke="none" /><path d="M 92.91201910852362 80.23233633223022 l -12.279740026790599 -34.246956149268804 a57.381946355514074,57.381946355514074 0 0,0 0.9326424253815302,-0.3253806293015543 l 11.688415597345784 34.453257631742574" fill="#63ff29" stroke="none" /><path d="M 93.59665428221793 80.00007090966166 l -9.397819481533832 -29.352737071891063 a51.820483198987404,51.820483198987404 0 0,0 0.8518661330232562,-0.26467895420217885 l 8.891167975799846 29.510156160975768" fill="#a4ff21" stroke="none" /><path d="M 94.28887869178378 79.79150937346287 l -9.350046997977845 -33.08463030622129 a55.38046162231873,55.38046162231873 0 0,0 0.919584945879389,-0.25135730323141714 l 8.779164162874732 33.240674150279006" fill="#7aff26" stroke="none" /><path d="M 94.98787191387505 79.60689891045804 l -5.0875796865144505 -20.70009486297931 a42.31612991147729,42.31612991147729 0 0,0 0.7088481982035196,-0.16776146654802132 l 4.730507801348397 20.7846022416682" fill="#ffdf14" stroke="none" /><path d="M 95.33964822691252 79.52364482259891 l -12.308136601500568 -54.078702401756445 a76.46166495931163,76.46166495931163 0 0,0 1.2858568239865085,-0.2810384975226188 l 11.375437053360539 54.28255439737493" fill="#43ffdd" stroke="none" /><path d="M 96.04723909329186 79.375362276772 l -4.076336309664073 -21.26942701800743 a42.65652426830839,42.65652426830839 0 0,0 0.722327054600157,-0.13200065222984098 l 3.709614133961022 21.336443151588007" fill="#ffe415" stroke="none" /><path d="M 96.40284397218896 79.31037775812273 l -6.170823945332455 -35.49248777728195 a57.02493243275825,57.02493243275825 0 0,0 0.9685299009842043,-0.15981573234681384 l 5.558964838209365 35.59344977256839" fill="#67ff28" stroke="none" /><path d="M 97.11714578562143 79.19881850522333 l -4.227737314245276 -30.505160735230785 a51.796730253072774,51.796730253072774 0 0,0 0.8842078527227644,-0.11479555621870938 l 3.7020147330146544 30.57341461461363" fill="#a5ff21" stroke="none" /><path d="M 97.47563105711357 79.15227682838746 l -1.963254498152565 -16.213710126740864 a37.3321389994849,37.3321389994849 0 0,0 0.6386165408484942,-0.0717560093151092 l 1.6838712537943528 16.245102089526572" fill="#ff990e" stroke="none" /><path d="M 97.83486435360386 79.11191278185805 l -6.292943465116878 -60.711000798952895 a82.03627409553778,82.03627409553778 0 0,0 1.4058473197201045,-0.13350214272468586 l 5.246971018306536 60.81032848619276" fill="#4ae6ff" stroke="none" /><path d="M 98.55514903715128 79.0497635885617 l -1.3119629579530176 -19.023369772321324 a40.068556429302916,40.068556429302916 0 0,0 0.688488371804934,-0.04153149876745848 l 0.9843125373084605 19.04313454046909" fill="#ffc011" stroke="none" /><path d="M 98.91598698831166 79.02799685794201 l -1.5043594549552621 -29.104291992739583 a50.14314515916837,50.14314515916837 0 0,0 0.8623645984317401,-0.03713523364059537 l 1.003154024134198 29.125874952904372" fill="#b9ff1f" stroke="none" /><path d="M 99.27714615592234 79.0124445844662 l -0.6491756666025628 -18.848361102128386 a39.85953724995222,39.85953724995222 0 0,0 0.6859130997900139,-0.017715111726817265 l 0.3246359316176698 18.856743005997565" fill="#ffbd11" stroke="none" /></svg>