<?xml version="1.0" encoding="utf-8" ?>
<svg baseProfile="full" height="200mm" version="1.1" viewBox="0,0,200,200" width="200mm" xmlns="http://www.w3.org/2000/svg" xmlns:ev="http://www.w3.org/2001/xml-events" xmlns:xlink="http://www.w3.org/1999/xlink"><defs /><rect fill="#1a1a1a" height="200" width="200" x="0" y="0" /><text alignment-baseline="middle" fill="#e1ed5e" style="dominant-baseline: central; font-size:9.0px; font-family:Arial;" text-anchor="middle" x="100.0" y="100.0">2021</text><line stroke="#e1ed5e" stroke-width="0.3" x1="100.0" x2="100.0" y1="15.0" y2="10.0" /><path d="M 100.0 14.0 a86.0,86.0 0 0,1 42.46469731375804,11.215312516191453" fill="none" id="id73" stroke="none" /><text fill="#e1ed5e" style="font-size:6.75px; font-family:Arial;" text-anchor="middle"><textPath startOffset="22.20632615414155" xlink:href="#id73">January</textPath></text><path d="M 100.36148047927253 79.00311137660856 l 0.38458649823703506 -22.339020590528587 a43.342330847937205,43.342330847937205 0 0,0 0.7458459017626832,0.019262999182781695 l -0.7690590351945861 22.329090799203446" fill="#ffac0f" stroke="none" /><path d="M 100.72285384407766 79.0124445844662 l 1.201895296313485 -34.89618868560465 a55.91688040310334,55.91688040310334 0 0,0 0.9616616181795287,0.04141117218775989 l -1.8023977468823453 34.87032978689269" fill="#9aff23" stroke="none" /><path d="M 101.44485096284872 79.0497635885617 l 3.2979817331934704 -47.82050105346586 a68.93409021267648,68.93409021267648 0 0,0 1.1830724952395248,0.09182919523696945 l -4.1206444177953365 47.756646596040426" fill="#36ff70" stroke="none" /><path d="M 102.16513564639614 79.11191278185805 l 1.8097568348654973 -17.459579806568257 a38.553123563151615,38.553123563151615 0 0,0 0.6595031270279924,0.07410286063603465 l -2.110026665403215 17.425840992461623" fill="#ff5e08" stroke="none" /><path d="M 102.88285421437855 79.19881850522331 l 6.633073562541644 -47.860820139452066 a69.3182757277934,69.3182757277934 0 0,0 1.1804936011170628,0.1739740704431208 l -7.455936144087363 47.73955158484798" fill="#37ff76" stroke="none" /><path d="M 103.2404852339499 79.25152402106235 l 3.4623955199417527 -22.169343505239798 a43.43809203541671,43.43809203541671 0 0,0 0.7377666080992705,0.12173781176460947 l -3.843491334179898 22.106459430535566" fill="#ffae10" stroke="none" /><path d="M 103.95276090670814 79.375362276772 l 7.083763397965619 -36.961520630342434 a58.63420932058473,58.63420932058473 0 0,0 0.9896158732167138,0.19850763434449775 l -7.718945680649458 36.834109039920726" fill="#76ff27" stroke="none" /><path d="M 104.307194497241 79.44645832069477 l 4.680597059538158 -22.33538485640113 a43.82054787942897,43.82054787942897 0 0,0 0.7369307292951921,0.16106451439693048 l -5.064370512986878 22.25150684390833" fill="#ffb410" stroke="none" /><path d="M 105.36241919743992 79.69619591428918 l 12.281270265596586 -46.50074830318827 a69.09520965847943,69.09520965847943 0 0,0 1.1473164501162867,0.3136049259467696 l -13.079884604936582 46.2824568364152" fill="#36ff73" stroke="none" /><path d="M 105.71112130821622 79.79150937346287 l 3.538091359559952 -12.519342913034897 a34.00969013630801,34.00969013630801 0 0,0 0.5619854842616167,0.16405897351262325 l -3.753067061544996 12.45658561060357" fill="#ff1001" stroke="none" /><path d="M 106.40334571778207 80.00007090966166 l 13.887824834324432 -43.37662280738682 a66.54561542896516,66.54561542896516 0 0,0 1.087916803867322,0.35866906558484174 l -14.632424460434171 43.13114001754275" fill="#33ff4f" stroke="none" /><path d="M 107.08798089147638 80.2323363322302 l 8.113461755890821 -22.62762634767145 a45.03825567286732,45.03825567286732 0 0,0 0.7275129686004818,0.267949166070062 l -8.50175705026388 22.48461391379506" fill="#ffc712" stroke="none" /><path d="M 107.76421540070413 80.48803036053334 l 17.576274140293705 -44.17030050058269 a68.53883527145499,68.53883527145499 0 0,0 1.0924311297609692,0.4456300871416239 l -18.33398913964306 43.861209527257486" fill="#36ff6b" stroke="none" /><path d="M 108.76106565485865 80.91482961587045 l 22.742013314030125 -49.54137043085662 a75.51189369066972,75.51189369066972 0 0,0 1.1766255676959785,0.5524414808596332 l -23.5914170930257 49.14256396735698" fill="#40ffc8" stroke="none" /><path d="M 109.08828744355905 81.06846463323043 l 7.680058092869056 -15.9980956045837 a38.746051822398236,38.746051822398236 0 0,0 0.5987717669652881,0.29381470561263373 l -7.954301126844776 15.863525738836234" fill="#ff6209" stroke="none" /><path d="M 110.05341064243156 81.56283822128135 l 10.00258923881445 -18.343959334927543 a41.89384204884114,41.89384204884114 0 0,0 0.630155024735713,0.3506805890110551 l -10.316868352622198 18.169063348356307" fill="#ff950d" stroke="none" /><path d="M 110.36928655335952 81.73862282372117 l 12.265636211332035 -21.601043428546088 a45.84050943259163,45.84050943259163 0 0,0 0.6828124350461239,0.39552903487180113 l -12.635645378843488 21.386710236284237" fill="#ffd313" stroke="none" /><line stroke="#e1ed5e" stroke-width="0.3" x1="143.23703022742887" x2="145.7803849466894" y1="26.81831364943548" y2="22.513508569990506" /><path d="M 143.74570117128098 25.957352633546492 a86.0,86.0 0 0,1 28.547481713284135,27.462654790039103" fill="none" id="id74" stroke="none" /><text fill="#e1ed5e" style="font-size:6.75px; font-family:Arial;" text-anchor="middle"><textPath startOffset="19.985693538727396" xlink:href="#id74">February</textPath></text><path d="M 110.99172775467656 82.1063720568725 l 32.97518326402967 -53.68088382938249 a84.0,84.0 0 0,0 1.225523390510947,0.7674226347082231 l -33.894325806912875 53.10531685335132" fill="#4dd2ff" stroke="none" /><path d="M 111.60114157652 82.49532879139004 l 6.907240028709683 -10.42216103165441 a33.50325579135071,33.50325579135071 0 0,0 0.4779722931993101,0.3227290259905162 l -7.085617016315536 10.301720093365224" fill="#ff0701" stroke="none" /><path d="M 111.90073688211348 82.69761687909136 l 13.735737417451395 -19.970275252631048 a45.2380357303768,45.2380357303768 0 0,0 0.6377892231507971,0.4468121092412764 l -14.077457780185844 19.730878300625836" fill="#ffca12" stroke="none" /><path d="M 112.19680574252982 82.90503203632743 l 27.40522514396595 -38.41099512142915 a68.18528278404102,68.18528278404102 0 0,0 0.9495764431397226,0.6899076695330687 l -28.06234690345946 37.93356821707941" fill="#35ff66" stroke="none" /><path d="M 112.77801427241765 83.33499621200491 l 8.229484858105096 -10.732841066675492 a34.524729143028964,34.524729143028964 0 0,0 0.4684963737000817,0.36566885083925715 l -8.413013786964607 10.589593826613012" fill="#ff1902" stroke="none" /><path d="M 113.06298171725822 83.55741782278167 l 30.253437307286045 -38.08048115164795 a69.63531138634667,69.63531138634667 0 0,0 0.9321071128859734,0.7536991282490632 l -30.90444781873651 37.55407592613476" fill="#37ff7a" stroke="none" /><path d="M 113.34407831869373 83.78471172551755 l 20.62330292836809 -25.06076434570888 a53.45554703384907,53.45554703384907 0 0,0 0.7054667603885085,0.5908081236874582 l -21.051627225715716 24.702055064627604" fill="#bcff1f" stroke="none" /><path d="M 114.42810811169701 84.74124197986012 l 15.335582585992082 -16.218477292100168 a43.32082209342103,43.32082209342103 0 0,0 0.537419050277216,0.5169967005701263 l -15.612484879881716 15.952097504767739" fill="#ffac0f" stroke="none" /><path d="M 114.68862486808459 84.99185889309783 l 22.18720530494344 -22.66983539813294 a52.72055352956741,52.72055352956741 0 0,0 0.6431008766494036,0.6403391971082855 l -22.574141981760167 22.284560350374534" fill="#c6ff1e" stroke="none" /><path d="M 115.19652480421416 85.50635884689758 l 28.125570309393765 -26.82468054654584 a59.866581939410196,59.866581939410196 0 0,0 0.7048083513026239,0.7518404078284935 l -28.583145982666853 26.33657072183929" fill="#67ff28" stroke="none" /><path d="M 115.9244219780498 86.31012108654704 l 28.30757158702165 -24.335403061686925 a58.33002077857869,58.33002077857869 0 0,0 0.6479892744151585,0.767014914569179 l -28.722271474923925 23.84452919748864" fill="#7aff26" stroke="none" /><path d="M 116.15771136456269 86.58626213691792 l 30.530083665711263 -25.3453307829217 a60.67961442770139,60.67961442770139 0 0,0 0.660256352235803,0.8093962182512303 l -30.961838510023476 24.81605039506237" fill="#5cff2a" stroke="none" /><path d="M 116.60985879189232 87.15038557335679 l 18.689881257346457 -14.458748316022678 a44.62979187973942,44.62979187973942 0 0,0 0.46483853651854756,0.6116730262976204 l -18.93599573408912 14.134890513844024" fill="#ffc111" stroke="none" /><path d="M 116.82858285166822 87.43820079747576 l 17.970880488093126 -13.414474300883189 a43.42544684697234,43.42544684697234 0 0,0 0.44198293140477374,0.6028642217257026 l -18.199126032011524 13.103147635485993" fill="#ffae10" stroke="none" /><path d="M 117.2510076193507 88.02491185347247 l 16.081138757217563 -11.163003249630972 a40.57589500585239,40.57589500585239 0 0,0 0.3933456907993225,0.5771862649390794 l -16.27090891368562 10.884538961421486" fill="#ff800b" stroke="none" /><path d="M 117.65298651832404 88.62581576622439 l 46.549249625023535 -29.99264405654202 a76.37500643932404,76.37500643932404 0 0,0 0.7025496943149923,1.1112648987322908 l -47.05862691558448 29.186931510095523" fill="#41ffd3" stroke="none" /><line stroke="#e1ed5e" stroke-width="0.3" x1="172.23445277983987" x2="176.4835382374775" y1="55.19839476539836" y2="52.563006222186495" /><path d="M 173.08426987136738 54.67131705675599 a86.0,86.0 0 0,1 12.851231095245387,41.99856678651699" fill="none" id="id75" stroke="none" /><text fill="#e1ed5e" style="font-size:6.75px; font-family:Arial;" text-anchor="middle"><textPath startOffset="22.20632615414155" xlink:href="#id75">March</textPath></text><path d="M 118.03404312379186 89.2402003453031 l 28.04448191049517 -16.732410181419837 a53.65679892621708,53.65679892621708 0 0,0 0.4664061687081837,0.7972393301031967 l -28.32834775367368 16.247191438962744" fill="#b9ff1f" stroke="none" /><path d="M 118.21658344932153 89.55222093294921 l 18.354052301251297 -10.526621743426357 a42.15847350841371,42.15847350841371 0 0,0 0.355621496990042,0.6326109618323001 l -18.532531439533773 10.209127271659263" fill="#ff990e" stroke="none" /><path d="M 118.56541770881063 90.18545643968196 l 20.209729000321673 -10.683803010893143 a43.85993860538589,43.85993860538589 0 0,0 0.3471003837329322,0.6704874615388305 l -20.39063881721472 10.334342827093968" fill="#ffb410" stroke="none" /><path d="M 118.73160827565052 90.50648371742162 l 39.44534719562261 -19.99161205823349 a65.22216602644107,65.22216602644107 0 0,0 0.49891847169705517,1.0057891945234518 l -39.783625680273076 19.309663275211086" fill="#31ff3c" stroke="none" /><path d="M 118.89224826269711 90.83032412892265 l 15.059406768097212 -7.3093406858737575 a37.73953982250353,37.73953982250353 0 0,0 0.2786288770315198,0.5868634742511611 l -15.182993838970487 7.049034795982056" fill="#ff5107" stroke="none" /><path d="M 119.196687751892 91.48605970444005 l 44.38671891871973 -19.685993733608274 a69.55635041525564,69.55635041525564 0 0,0 0.47599494019572125,1.0986619491511571 l -44.71900456875813 18.919032639870515" fill="#37ff79" stroke="none" /><path d="M 119.47837535516314 92.15188598940014 l 24.523175823620814 -9.880735752160485 a47.438893537367306,47.438893537367306 0 0,0 0.2986537005769178,0.760041092251913 l -24.68962307407943 9.457145655012788" fill="#ffec16" stroke="none" /><path d="M 119.7369772167798 92.82701384747503 l 41.63226172133738 -15.130363355314802 a65.29642323368543,65.29642323368543 0 0,0 0.37482298356950244,1.0596750487567783 l -41.88653778571669 14.41149068013141" fill="#31ff3d" stroke="none" /><path d="M 120.08093135843002 93.85539295169968 l 54.072473138272926 -16.545751471083054 a77.54727440851676,77.54727440851676 0 0,0 0.37959059544076795,1.2797907832330848 l -54.34926963082539 15.612531301103438" fill="#43ffe1" stroke="none" /><path d="M 120.28053869075195 94.5502522615342 l 23.878755536644615 -6.4166537175143255 a45.725865220641445,45.725865220641445 0 0,0 0.1977179185923045,0.7618877945511403 l -23.98566978710722 6.004669497414334" fill="#ffd113" stroke="none" /><path d="M 120.45610955862082 95.25157060432595 l 34.91239671714543 -8.104133895551186 a56.840653324574994,56.840653324574994 0 0,0 0.2130323077673974,0.9549820642834514 l -35.04672341191486 7.501973661717771" fill="#8eff24" stroke="none" /><path d="M 120.53481517161879 95.60439243477599 l 30.90734975994515 -6.61591445018737 a52.60750849396041,52.60750849396041 0 0,0 0.18192353842805647,0.8871237822048319 l -31.0166525942882 6.082915011819127" fill="#c7ff1e" stroke="none" /><path d="M 120.67395015179393 96.31383870115 l 59.663746346417696 -10.638034391675438 a81.60470611931173,81.60470611931173 0 0,0 0.23466458541592858,1.3850036667253434 l -59.83802279335385 9.609444936634256" fill="#49edff" stroke="none" /><path d="M 120.73433829027371 96.67025291283417 l 11.942527949436977 -1.9178619108229735 a33.09554331694401,33.09554331694401 0 0,0 0.08548753230326558,0.5632560265400992 l -11.973771375179542 1.712006771890792" fill="#ff0000" stroke="none" /><path d="M 120.87857604477298 97.74499172005257 l 44.336134426922406 -4.788561730415623 a65.59398097690018,65.59398097690018 0 0,0 0.11158121611619469,1.123607618852324 l -44.41199276872083 4.024678580858864" fill="#31ff41" stroke="none" /><path d="M 120.94382443527127 98.46500227214037 l 20.983141768915683 -1.5378793418645733 a42.03942279066961,42.03942279066961 0 0,0 0.046682594952091455,0.7221590817032587 l -21.00650495487219 1.1764611959082794" fill="#ff980e" stroke="none" /><path d="M 120.96714384426684 98.82574320788733 l 27.994199960109633 -1.5678043555706986 a49.03806772771527,49.03806772771527 0 0,0 0.039945923715363374,0.8431953147212903 l -28.017039492058494 1.0856979342264086" fill="#fbff18" stroke="none" /><path d="M 120.98425023603335 99.18683210126433 l 21.35595784823287 -0.8275720682702702 a42.37198659796698,42.37198659796698 0 0,0 0.021969482695237,0.7290601747977773 l -21.367039025383754 0.4598417460474937" fill="#ff9d0e" stroke="none" /><line stroke="#e1ed5e" stroke-width="0.3" x1="184.98032266829074" x2="189.97916517819016" y1="98.17113171792111" y2="98.06355123074" /><path d="M 185.9800911702706 98.14961562048488 a86.0,86.0 0 0,1 -9.607161424134198,41.387399972396054" fill="none" id="id76" stroke="none" /><text fill="#e1ed5e" style="font-size:6.75px; font-family:Arial;" text-anchor="middle"><textPath startOffset="21.466115282336823" xlink:href="#id76">April</textPath></text><path d="M 120.99980553446 99.90962569577887 l 25.857372524536494 -0.11127922337456268 a46.85761197284486,46.85761197284486 0 0,0 -0.003471262569217657,0.806599171532998 l -25.855456964677774 -0.33382942636212004" fill="#ffe315" stroke="none" /><path d="M 120.99824983174949 100.27111621757518 l 48.89253647416316 0.6312697326083531 a69.89661158355129,69.89661158355129 0 0,0 -0.025888164925106844,1.2029212984789555 l -48.87442624655304 -1.4727808468774233" fill="#38ff7e" stroke="none" /><path d="M 120.9904718944345 100.63252640178507 l 19.434987240690084 0.5856534626718851 a40.44380927246834,40.44380927246834 0 0,0 -0.026958431866061346,0.69567733936388 l -19.42202667597282 -0.9201080490497713" fill="#ff7e0b" stroke="none" /><path d="M 120.95626037817324 101.35467743843564 l 29.260279285146368 1.8914748850514524 a50.3213509423687,50.3213509423687 0 0,0 -0.06331729831223597,0.8639142296427372 l -29.223385428169795 -2.39486225119096" fill="#e8ff1a" stroke="none" /><path d="M 120.92983693683757 101.71520430193887 l 20.19073943931691 1.6546351149392111 a41.25842482696957,41.25842482696957 0 0,0 -0.06409870318818192,0.7073238484227985 l -20.159266139851653 -2.00194035191058" fill="#ff8b0c" stroke="none" /><path d="M 120.81339534386255 102.79330883721812 l 49.46108110320786 6.638036354058541 a70.90452955930863,70.90452955930863 0 0,0 -0.1727570258154032,1.2082622361855955 l -49.339490026375856 -7.488444062224546" fill="#39ff8b" stroke="none" /><line stroke="#e1ed5e" stroke-width="0.3" x1="174.80103733775053" x2="179.2010983576182" y1="140.37084112569926" y2="142.7455964860345" /><path d="M 175.68104954172406 140.8457921977663 a86.0,86.0 0 0,1 -30.038265399797805,32.042727171017184" fill="none" id="id77" stroke="none" /><text fill="#e1ed5e" style="font-size:6.75px; font-family:Arial;" text-anchor="middle"><textPath startOffset="22.206326154141568" xlink:href="#id77">May</textPath></text><line stroke="#e1ed5e" stroke-width="0.3" x1="143.8653032363475" x2="146.44561519142675" y1="172.8068346515853" y2="177.08958963109032" /><path d="M 144.38136562736335 173.6633856474863 a86.0,86.0 0 0,1 -40.68145358897372,12.25698825130547" fill="none" id="id78" stroke="none" /><text fill="#e1ed5e" style="font-size:6.75px; font-family:Arial;" text-anchor="middle"><textPath startOffset="21.466115282336833" xlink:href="#id78">June</textPath></text><line stroke="#e1ed5e" stroke-width="0.3" x1="102.19456741930631" x2="102.32365962044197" y1="184.97166512339345" y2="189.96999836594603" /><path d="M 102.22038585953345 185.97133177190398 a86.0,86.0 0 0,1 -42.740103519485714,-10.115201625700543" fill="none" id="id79" stroke="none" /><text fill="#e1ed5e" style="font-size:6.75px; font-family:Arial;" text-anchor="middle"><textPath startOffset="22.20632615414155" xlink:href="#id79">July</textPath></text><line stroke="#e1ed5e" stroke-width="0.3" x1="58.666819895761336" x2="56.23545636021788" y1="174.27360380694188" y2="178.64263932499728" /><path d="M 58.180547188652646 175.14741091055294 a86.0,86.0 0 0,1 -31.652253787137756,-30.449443065178592" fill="none" id="id80" stroke="none" /><text fill="#e1ed5e" style="font-size:6.75px; font-family:Arial;" text-anchor="middle"><textPath startOffset="22.20632615414155" xlink:href="#id80">August</textPath></text><line stroke="#e1ed5e" stroke-width="0.3" x1="26.63291911575756" x2="22.317208475507996" y1="142.92168965132927" y2="145.44649492493687" /><path d="M 25.769776987707644 143.4266507060508 a86.0,86.0 0 0,1 -11.730757126820373,-40.83630448921669" fill="none" id="id81" stroke="none" /><text fill="#e1ed5e" style="font-size:6.75px; font-family:Arial;" text-anchor="middle"><textPath startOffset="21.46611528233685" xlink:href="#id81">September</textPath></text><line stroke="#e1ed5e" stroke-width="0.3" x1="15.007084014347285" x2="10.007500721073583" y1="101.09737516637583" y2="101.16192664675087" /><path d="M 14.007167355692545 101.11028546245083 a86.0,86.0 0 0,1 10.666146001902534,-42.60595125391555" fill="none" id="id82" stroke="none" /><text fill="#e1ed5e" style="font-size:6.75px; font-family:Arial;" text-anchor="middle"><textPath startOffset="22.20632615414155" xlink:href="#id82">October</textPath></text><line stroke="#e1ed5e" stroke-width="0.3" x1="26.266209847984243" x2="21.928928074336255" y1="57.711370442889674" y2="55.22380399835377" /><path d="M 25.398753493254645 57.213857153982495 a86.0,86.0 0 0,1 29.58750427330803,-30.492523968695096" fill="none" id="id83" stroke="none" /><text fill="#e1ed5e" style="font-size:6.75px; font-family:Arial;" text-anchor="middle"><textPath startOffset="21.46611528233685" xlink:href="#id83">November</textPath></text><line stroke="#e1ed5e" stroke-width="0.3" x1="56.762969772571076" x2="54.21961505331055" y1="26.818313649435495" y2="22.513508569990535" /><path d="M 56.25429882871897 25.957352633546506 a86.0,86.0 0 0,1 42.265352541879196,-11.944610805530505" fill="none" id="id84" stroke="none" /><text fill="#e1ed5e" style="font-size:6.75px; font-family:Arial;" text-anchor="middle"><textPath startOffset="22.20632615414155" xlink:href="#id84">December</textPath></text></svg>