<?xml version="1.0" encoding="utf-8" ?>
<svg baseProfile="full" height="200mm" version="1.1" viewBox="0,0,200,200" width="200mm" xmlns="http://www.w3.org/2000/svg" xmlns:ev="http://www.w3.org/2001/xml-events" xmlns:xlink="http://www.w3.org/1999/xlink"><defs /><rect fill="#1a1a1a" height="200" width="200" x="0" y="0" /><text alignment-baseline="middle" fill="#e1ed5e" style="dominant-baseline: central; font-size:9.0px; font-family:Arial;" text-anchor="middle" x="100.0" y="100.0">2018</text><line stroke="#e1ed5e" stroke-width="0.3" x1="100.0" x2="100.0" y1="15.0" y2="10.0" /><path d="M 100.0 14.0 a86.0,86.0 0 0,1 42.46469731375804,11.215312516191453" fill="none" id="id37" stroke="none" /><text fill="#e1ed5e" style="font-size:6.75px; font-family:Arial;" text-anchor="middle"><textPath startOffset="22.20632615414155" xlink:href="#id37">January</textPath></text><path d="M 100.0 79.0 l 0.0 -63.0 a84.0,84.0 0 0,0 1.4459219170901134,0.012445506434235476 l -1.084441437817585 62.990665870174325" fill="#4dd2ff" stroke="none" /><path d="M 101.80526077348638 79.07773832637324 l 0.7741022137098414 -8.971539910044624 a30.004874379734233,30.004874379734233 0 0,0 0.5141904930514307,0.048828583038947486 l -0.9284178338515163 8.956885782490499" fill="#ff5808" stroke="none" /><path d="M 102.16513564639614 79.11191278185805 l 1.2205571012184906 -11.775291412993424 a32.83838027342641,32.83838027342641 0 0,0 0.5617447427154371,0.06311856710984227 l -1.423068547443653 11.75253689241298" fill="#ff800b" stroke="none" /><path d="M 104.307194497241 79.44645832069477 l 1.1293004792623291 -5.388919512189583 a26.505976124296193,26.505976124296193 0 0,0 0.4457513486527654,0.0974239798375618 l -1.2218945520686224 5.36868203425615" fill="#ff2603" stroke="none" /><path d="M 104.66035177308747 79.52364482259891 l 2.6435597744720787 -11.615103646761684 a32.91213838931631,32.91213838931631 0 0,0 0.5513195569891848,0.13047952671885857 l -2.843103018423787 11.567878207901956" fill="#ff810b" stroke="none" /><path d="M 106.74666289553966 80.11325718540242 l 2.9460981480646775 -8.684040848677693 a30.170172286251383,30.170172286251383 0 0,0 0.49036298770519443,0.17107801788068216 l -3.0951431398331457 8.632041977624803" fill="#ff5b08" stroke="none" /><line stroke="#e1ed5e" stroke-width="0.3" x1="143.23703022742887" x2="145.7803849466894" y1="26.81831364943548" y2="22.513508569990506" /><path d="M 143.74570117128098 25.957352633546492 a86.0,86.0 0 0,1 28.547481713284135,27.462654790039103" fill="none" id="id38" stroke="none" /><text fill="#e1ed5e" style="font-size:6.75px; font-family:Arial;" text-anchor="middle"><textPath startOffset="19.985693538727396" xlink:href="#id38">February</textPath></text><path d="M 111.60114157652 82.49532879139004 l 3.9377277919915596 -5.941538585075559 a28.127943667129,28.127943667129 0 0,0 0.40128570850805184,0.27094990168544086 l -4.039418194906154 5.872876771091448" fill="#ff3d05" stroke="none" /><path d="M 115.9244219780498 86.31012108654704 l 5.422236534499826 -4.661378711247515 a28.15046156032855,28.15046156032855 0 0,0 0.3127239955935017,0.370166572556885 l -5.501671143580444 4.5673531890615235" fill="#ff3e05" stroke="none" /><path d="M 116.15771136456269 86.58626213691792 l 5.681990389524406 -4.717049828776588 a28.38482050383142,28.38482050383142 0 0,0 0.3088559184412356,0.378620836474083 l -5.762344800042051 4.618544822694404" fill="#ff4106" stroke="none" /><path d="M 116.60985879189232 87.15038557335679 l 4.5665481749205155 -3.5327442601175054 a26.773529617250013,26.773529617250013 0 0,0 0.27885786154356473,0.36694425844021894 l -4.626681976688194 3.453615225796253" fill="#ff2904" stroke="none" /><path d="M 117.65298651832404 88.62581576622439 l 6.138330115124547 -3.955053018631556 a28.30216002169437,28.30216002169437 0 0,0 0.26034268013439604,0.41179959854274606 l -6.2055003915048985 3.8488057723746034" fill="#ff4006" stroke="none" /><line stroke="#e1ed5e" stroke-width="0.3" x1="172.23445277983987" x2="176.4835382374775" y1="55.19839476539836" y2="52.563006222186495" /><path d="M 173.08426987136738 54.67131705675599 a86.0,86.0 0 0,1 12.851231095245387,41.99856678651699" fill="none" id="id39" stroke="none" /><text fill="#e1ed5e" style="font-size:6.75px; font-family:Arial;" text-anchor="middle"><textPath startOffset="22.20632615414155" xlink:href="#id39">March</textPath></text><path d="M 117.84615892207809 88.93136811851018 l 8.779799026878804 -5.445449849813838 a31.33139850258519,31.33139850258519 0 0,0 0.28031784743973415,0.46076883657569995 l -8.872232672604762 5.293513240031057" fill="#ff6b09" stroke="none" /><path d="M 118.21658344932153 89.55222093294921 l 13.461566293210883 -7.720628345001949 a36.51843642601145,36.51843642601145 0 0,0 0.308045807848381,0.5479791194873379 l -13.592469742351698 7.487765715579818" fill="#ffb210" stroke="none" /><path d="M 118.3937258080291 89.86733742301442 l 6.357481355362026 -3.5021840645923423 a28.258296109009354,28.258296109009354 0 0,0 0.23103431294301313,0.42807149385229826 l -6.416823767523504 3.392231587407585" fill="#ff3f05" stroke="none" /><path d="M 119.04729006885535 91.15688171328212 l 10.567600128430387 -4.906237979503868 a32.6509803701632,32.6509803701632 0 0,0 0.2322848007703629,0.5118087679803601 l -10.650487246164097 4.723607202681445" fill="#ff7e0b" stroke="none" /><path d="M 119.196687751892 91.48605970444005 l 3.9722988122548943 -1.7617578282653783 a25.345451472435975,25.345451472435975 0 0,0 0.17344651618193124,0.40033847305932196 l -4.002036038279506 1.6931202106194536" fill="#ff1402" stroke="none" /><path d="M 119.34039704204932 91.81776055985345 l 10.618804903183385 -4.4924416027832565 a32.53000646687977,32.53000646687977 0 0,0 0.21373501989910287,0.5175763039953823 l -10.694561609968686 4.308990728334571" fill="#ff7c0b" stroke="none" /><path d="M 120.37134235888165 94.90015583598534 l 5.988391900008035 -1.4991582265453198 a27.17319309079996,27.17319309079996 0 0,0 0.10968549934662673,0.4547172073846521 l -6.013310199615481 1.3958557875012616" fill="#ff2f04" stroke="none" /><path d="M 120.45610955862082 95.25157060432595 l 7.882714874333965 -1.829796370602158 a29.09230180776241,29.09230180776241 0 0,0 0.10903464034769861,0.488780913134268 l -7.913043901683702 1.6938372879179262" fill="#ff4b07" stroke="none" /><path d="M 120.6074358757038 95.95851677861258 l 14.073186647130045 -2.7600011980572146 a35.34127571097623,35.34127571097623 0 0,0 0.11193806523893604,0.5979776205023669 l -14.118610436278841 2.5173455000922846" fill="#ffa20f" stroke="none" /><path d="M 120.78858239683441 97.02765380044208 l 11.713938667106598 -1.6748559576785127 a32.8330681387249,32.8330681387249 0 0,0 0.07517834663412269,0.5601660041831524 l -11.741033012798557 1.472971611430696" fill="#ff800b" stroke="none" /><path d="M 120.94382443527127 98.46500227214037 l 13.488947243427416 -0.9886209385430884 a34.52512732273134,34.52512732273134 0 0,0 0.03833836022206672,0.593077463675486 l -13.503966194653898 0.7562844106145672" fill="#ff970e" stroke="none" /><line stroke="#e1ed5e" stroke-width="0.3" x1="184.98032266829074" x2="189.97916517819016" y1="98.17113171792111" y2="98.06355123074" /><path d="M 185.9800911702706 98.14961562048488 a86.0,86.0 0 0,1 -9.607161424134198,41.387399972396054" fill="none" id="id40" stroke="none" /><text fill="#e1ed5e" style="font-size:6.75px; font-family:Arial;" text-anchor="middle"><textPath startOffset="21.466115282336823" xlink:href="#id40">April</textPath></text><path d="M 120.9904718944345 100.63252640178507 l 12.140708565147806 0.36584783526806997 a33.14621953952849,33.14621953952849 0 0,0 -0.02209411321900822,0.5701508891974582 l -12.132612319077595 -0.5747759714795343" fill="#ff840c" stroke="none" /><path d="M 120.92983693683757 101.71520430193887 l 15.948233475909378 1.3069609069939767 a37.00169671673998,37.00169671673998 0 0,0 -0.05748549018175513,0.6343475939670307 l -15.923373389450546 -1.581289889509578" fill="#ffb911" stroke="none" /><path d="M 120.81339534386255 102.79330883721812 l 4.071393641091845 0.5464105999797411 a25.107896143343126,25.107896143343126 0 0,0 -0.06117473015003649,0.42785592018766455 l -4.061384859925207 -0.6164119921478148" fill="#ff1101" stroke="none" /><path d="M 120.5718875245553 104.21870165774334 l 2.932892649774833 0.6014518147068182 a23.993927784786628,23.993927784786628 0 0,0 -0.08645350526724639,0.4038819947546898 l -2.9221051057831433 -0.651847628877677" fill="#ff0000" stroke="none" /><path d="M 120.49622156327973 104.57218783832717 l 26.779049308813693 5.973727557233201 a48.43725392257619,48.43725392257619 0 0,0 -0.18853493921473752,0.8122035837192974 l -26.672253803668404 -6.433799798301063" fill="#b6ff1f" stroke="none" /><path d="M 119.79798401119884 107.00284435728193 l 53.62565263166922 18.968198919891215 a77.88148372218339,77.88148372218339 0 0,0 -0.4579273217431428,1.2600193174782355 l -53.29120104892085 -19.888466034375583" fill="#45fff0" stroke="none" /><path d="M 118.97047184881838 109.00673069616215 l 7.550706536275682 3.5848966161704827 a29.35850781812082,29.35850781812082 0 0,0 -0.22067356427342005,0.45465290375393785 l -7.487879715387547 -3.714338475889696" fill="#ff4f07" stroke="none" /><path d="M 118.64920377521936 109.65438752849418 l 10.110785012007481 5.2341878988376696 a32.38528420898547,32.38528420898547 0 0,0 -0.2605434541681939,0.4928500269218987 l -10.019189049614395 -5.407452940845703" fill="#ff7a0b" stroke="none" /><line stroke="#e1ed5e" stroke-width="0.3" x1="174.80103733775053" x2="179.2010983576182" y1="140.37084112569926" y2="142.7455964860345" /><path d="M 175.68104954172406 140.8457921977663 a86.0,86.0 0 0,1 -30.038265399797805,32.042727171017184" fill="none" id="id41" stroke="none" /><text fill="#e1ed5e" style="font-size:6.75px; font-family:Arial;" text-anchor="middle"><textPath startOffset="22.206326154141568" xlink:href="#id41">May</textPath></text><path d="M 118.30583269289576 110.29060199501025 l 5.672963706870049 3.1890497754955125 a27.507884117749235,27.507884117749235 0 0,0 -0.2355827642213744,0.41075840675025765 l -5.6172289464962954 -3.286228028104085" fill="#ff3405" stroke="none" /><path d="M 118.12598468904814 110.60418214915192 l 9.653552365745774 5.647584361835872 a32.18419788819247,32.18419788819247 0 0,0 -0.28386328329552263,0.47577119058884476 l -9.554908206752026 -5.8129176463108205" fill="#ff770b" stroke="none" /><path d="M 117.94076556474637 110.91462005526583 l 5.611796821003451 3.414047739911325 a27.568712623537284,27.568712623537284 0 0,0 -0.25013402826743125,0.4032956979755785 l -5.552198153068057 -3.510139769252177" fill="#ff3505" stroke="none" /><path d="M 117.55443506779139 111.5257021239791 l 21.27711423645964 13.969898763490255 a46.45336248304966,46.45336248304966 0 0,0 -0.44461817153919514,0.6646438398653953 l -21.033492959509722 -14.334079517561458" fill="#ceff1d" stroke="none" /><path d="M 116.93607887273984 112.41649034213515 l 6.56736376920506 4.814786788981877 a29.143244973622107,29.143244973622107 0 0,0 -0.3000903989281271,0.4020201294363437 l -6.483512103581841 -4.927119797927536" fill="#ff4c07" stroke="none" /><path d="M 116.71984013943494 112.70617746262583 l 10.044628945448498 7.633376686782729 a33.61598233567485,33.61598233567485 0 0,0 -0.35407743453186236,0.4576928142509342 l -9.911744693698566 -7.805147495146916" fill="#ff8b0c" stroke="none" /><path d="M 116.27256486870786 113.27417163493432 l 9.137833540926815 7.454090475127045 a32.792517400159596,32.792517400159596 0 0,0 -0.3605677829170206,0.43432712217881897 l -9.008169758116251 -7.610278854419635" fill="#ff800b" stroke="none" /><path d="M 116.0416608686014 113.55231037782055 l 9.107424307698322 7.6941310486135555 a32.9224506756662,32.9224506756662 0 0,0 -0.369448671667015,0.4297522705678634 l -8.973633126460527 -7.849760418342947" fill="#ff810b" stroke="none" /><path d="M 115.32070863581623 114.36230785411682 l 3.852332496247517 3.6113463536654136 a26.280368182975227,26.280368182975227 0 0,0 -0.3122276042381441,0.32736939477418225 l -3.789598340630408 -3.6771228650221026" fill="#ff2203" stroke="none" /><path d="M 115.07121518719521 114.62390073753431 l 5.372389225851642 5.212936434548679 a28.485804717242623,28.485804717242623 0 0,0 -0.34448748384671485,0.34896400238671854 l -5.2818611169493925 -5.304640930916062" fill="#ff4206" stroke="none" /><path d="M 114.55890576462653 115.13401014063108 l 5.6432164961405755 5.866134245189881 a29.13986630141445,29.13986630141445 0 0,0 -0.3644761270487833,0.34463492757743247 l -5.541404534700985 -5.962403809513234" fill="#ff4c07" stroke="none" /><path d="M 114.29624159901734 115.38237550388516 l 6.022337034534263 6.479874380587394 a29.84631648460057,29.84631648460057 0 0,0 -0.37933311030925987,0.34651180236627277 l -5.909904374758138 -6.582578949540251" fill="#ff5608" stroke="none" /><path d="M 113.75828350139079 115.86535959552629 l 8.203801169672799 9.460210323032006 a33.521898138362495,33.521898138362495 0 0,0 -0.43919197469195864,0.3742889288988957 l -8.039743718403793 -9.60002364215385" fill="#ff8a0c" stroke="none" /><path d="M 113.20401910651253 116.32954008644616 l 4.490581890551758 5.553546719503495 a28.14193299334707,28.14193299334707 0 0,0 -0.37930301305796454,0.3013412535497126 l -4.394321384776442 -5.630021887058334" fill="#ff3d05" stroke="none" /><path d="M 112.92097659922987 116.55440617244103 l 7.410814452282247 9.49476470060232 a33.04453102308094,33.04453102308094 0 0,0 -0.45140603004416296,0.3461188948972727 l -7.24627969374459 -9.620922937326963" fill="#ff830c" stroke="none" /><path d="M 112.34349029814194 116.9893568818739 l 6.424629430564351 8.84274379395578 a31.93023243694374,31.93023243694374 0 0,0 -0.4474378486488408,0.3192350247992465 l -6.271464254066625 -8.952023080599247" fill="#ff740a" stroke="none" /><path d="M 111.7513745106137 117.40417183066458 l 8.375788810584295 12.404818478477193 a35.967743974409714,35.967743974409714 0 0,0 -0.5160948232729927,0.34203950707478226 l -8.161019288571339 -12.547156006643295" fill="#ffab0f" stroke="none" /><line stroke="#e1ed5e" stroke-width="0.3" x1="143.8653032363475" x2="146.44561519142675" y1="172.8068346515853" y2="177.08958963109032" /><path d="M 144.38136562736335 173.6633856474863 a86.0,86.0 0 0,1 -40.68145358897372,12.25698825130547" fill="none" id="id42" stroke="none" /><text fill="#e1ed5e" style="font-size:6.75px; font-family:Arial;" text-anchor="middle"><textPath startOffset="21.466115282336833" xlink:href="#id42">June</textPath></text><path d="M 110.8373102113329 117.98757091392108 l 3.1468513359482655 5.223086767576693 a27.097811797046063,27.097811797046063 0 0,0 -0.40160522171747,0.23727544385505273 l -3.0564782432024136 -5.2764807837254954" fill="#ff2e04" stroke="none" /><path d="M 110.21172684928248 118.3499491758327 l 4.590000973963866 8.247996233387063 a30.439149898531987,30.439149898531987 0 0,0 -0.4600329430430852,0.2508466401155521 l -4.447345219052132 -8.325783525262386" fill="#ff5e08" stroke="none" /><path d="M 109.57404056367764 118.69057910512821 l 2.713988284650196 5.2982867982711515 a26.95294678339668,26.95294678339668 0 0,0 -0.41474949664234034,0.2079640076747831 l -2.622384880325095 -5.344218646855237" fill="#ff2c04" stroke="none" /><path d="M 108.92500713936063 119.00905698771935 l 2.8856640548100057 6.146073791177529 a27.789792344676076,27.789792344676076 0 0,0 -0.4347541036287455,0.19957428563372911 l -2.7794419554138408 -6.194835147145333" fill="#ff3805" stroke="none" /><path d="M 108.2653958097858 119.30500536409082 l 5.663794666302478 13.228596540364817 a35.39007770826094,35.39007770826094 0 0,0 -0.5620762364908432,0.234947912438905 l -5.435246970314173 -13.324129495823696" fill="#ffa30f" stroke="none" /><path d="M 107.93186726928326 119.44442032107085 l 3.200601055702125 7.846050632760873 a29.473745196169688,29.473745196169688 0 0,0 -0.47140999150027085,0.18758376441140698 l -3.065069988159988 -7.899981241578349" fill="#ff5107" stroke="none" /><path d="M 107.2578585660854 119.70592522655815 l 4.100168139011634 11.132430596158379 a32.86348977942196,32.86348977942196 0 0,0 -0.5325144162562822,0.19094072371406723 l -3.907934162125617 -11.201358860912407" fill="#ff810b" stroke="none" /><path d="M 106.57524785965236 119.94407469862006 l 3.8521221304066686 11.684276115045177 a33.3028920681352,33.3028920681352 0 0,0 -0.5459749945618656,0.1748039519366467 l -3.6504257907538626 -11.74885291364153" fill="#ff870c" stroke="none" /><path d="M 106.2309692047433 120.05430185196036 l 3.521418328493306 11.333643898106818 a32.86810309414872,32.86810309414872 0 0,0 -0.5417368106458506,0.1632208571127742 l -3.32580654340721 -11.392580124325317" fill="#ff810b" stroke="none" /><path d="M 105.53697534728816 120.25689768951611 l 5.090825763292387 18.62466963893452 a40.30789543455347,40.30789543455347 0 0,0 -0.6708568897395832,0.17717940190361234 l -4.769478430741307 -18.709540390141715" fill="#ffe415" stroke="none" /><path d="M 104.83641907484287 120.43548508189849 l 2.6525500475623627 11.207909423711584 a32.517519498787316,32.517519498787316 0 0,0 -0.5457985911927261,0.12422198238781224 l -2.4592313069767746 -11.25190813967708" fill="#ff7c0b" stroke="none" /><path d="M 104.13013068566511 120.58985236759428 l 2.483137181453989 12.379130798953968 a33.62572174568765,33.62572174568765 0 0,0 -0.5684866763390285,0.10895182453006794 l -2.269682890543256 -12.420039821832503" fill="#ff8b0c" stroke="none" /><path d="M 102.34483914955558 120.86867818915974 l 1.301778325049722 11.58561044335805 a32.65851603562033,32.65851603562033 0 0,0 -0.5591875147448709,0.05796207228311005 l -1.1021582136992485 -11.606301884096919" fill="#ff7e0b" stroke="none" /><path d="M 101.62511606390274 120.93702456842531 l 1.1412607787924827 14.703322116683339 a35.74754750567563,35.74754750567563 0 0,0 -0.6138998495890902,0.04233812790232828 l -0.8879981684244621 -14.720788589101952" fill="#ffa80f" stroke="none" /><line stroke="#e1ed5e" stroke-width="0.3" x1="102.19456741930631" x2="102.32365962044197" y1="184.97166512339345" y2="189.96999836594603" /><path d="M 102.22038585953345 185.97133177190398 a86.0,86.0 0 0,1 -42.740103519485714,-10.115201625700543" fill="none" id="id43" stroke="none" /><text fill="#e1ed5e" style="font-size:6.75px; font-family:Arial;" text-anchor="middle"><textPath startOffset="22.20632615414155" xlink:href="#id43">July</textPath></text><path d="M 100.54218724476979 120.99299961872073 l 0.3054105560337978 11.825220434857396 a32.8291637041976,32.8291637041976 0 0,0 -0.5650372909433119,0.009727629383597931 l -0.10181357519781799 -11.828725541520154" fill="#ff800b" stroke="none" /><path d="M 99.81925306533755 120.99922214144158 l -0.09779259486709754 11.361567084040999 a32.361987942115356,32.361987942115356 0 0,0 -0.5569965217851388,-0.009589200250541614 l 0.29334880654490425 -11.358200406511298" fill="#ff7a0b" stroke="none" /><path d="M 99.09653310690486 120.98055641714683 l -0.25763434862069895 5.98285562818322 a26.988400197487877,26.988400197487877 0 0,0 -0.4639587850345179,-0.023981369660197732 l 0.36058120206870575 -5.97753445176082" fill="#ff2d04" stroke="none" /><path d="M 98.73552117531835 120.96189622390904 l -0.2109098146561307 3.496357203560741 a24.50271275510987,24.50271275510987 0 0,0 -0.4207900324490343,-0.029020144288643707 l 0.27106260788409503 -3.492208714755812" fill="#ff0801" stroke="none" /><path d="M 98.01472825383883 120.90594882070398 l -0.8731090188667978 9.19429418094506 a30.2356572502766,30.2356572502766 0 0,0 -0.5177027032097725,-0.053662001946331694 l 1.0312443186821636 -9.177902810542966" fill="#ff5c08" stroke="none" /><path d="M 97.2962882734958 120.8252237178851 l -1.5850104344381932 12.208474952703657 a33.310934925832015,33.310934925832015 0 0,0 -0.5679853998941173,-0.07871760093057031 l 1.7949244255191414 -12.179382786280481" fill="#ff870c" stroke="none" /><path d="M 96.58105272829116 120.7198165907248 l -2.13344950811091 12.929325608328519 a34.104162220067266,34.104162220067266 0 0,0 -0.5783920215124292,-0.10056086681032204 l 2.3556905010953892 -12.89068616299719" fill="#ff920d" stroke="none" /><path d="M 95.86986931433489 120.58985236759428 l -2.286326726865543 11.397975839756212 a32.625022285812875,32.625022285812875 0 0,0 -0.5496672121798638,-0.11518810862649206 l 2.4821854004747936 -11.356931750403177" fill="#ff7d0b" stroke="none" /><path d="M 93.08242187328487 119.8279376855182 l -3.6906286737589076 10.578493516549164 a32.20380583048654,32.20380583048654 0 0,0 -0.5218250093996634,-0.18710788272616222 l 3.8721732437882976 -10.513398092783044" fill="#ff770b" stroke="none" /><path d="M 92.40401165467489 119.57807347666478 l -4.664994563391482 12.023663304661257 a33.89692418913633,33.89692418913633 0 0,0 -0.5421553534351343,-0.21573480394316205 l 4.8712709928684745 -11.941581656312028" fill="#ff8f0d" stroke="none" /><path d="M 91.07499286063937 119.00905698771935 l -3.8516531685323 8.203499833032664 a30.06270608820742,30.06270608820742 0 0,0 -0.46652643237041885,-0.22396103830241051 l 3.9922922689029607 -8.135984518230691" fill="#ff5908" stroke="none" /><line stroke="#e1ed5e" stroke-width="0.3" x1="58.666819895761336" x2="56.23545636021788" y1="174.27360380694188" y2="178.64263932499728" /><path d="M 58.180547188652646 175.14741091055294 a86.0,86.0 0 0,1 -31.652253787137756,-30.449443065178592" fill="none" id="id44" stroke="none" /><text fill="#e1ed5e" style="font-size:6.75px; font-family:Arial;" text-anchor="middle"><textPath startOffset="22.20632615414155" xlink:href="#id44">August</textPath></text><path d="M 87.95078237400918 117.19931262002967 l -6.30744045788063 9.003376288374687 a31.992933626642934,31.992933626642934 0 0,0 -0.44831647944121034,-0.3198619045405103 l 6.461484265170728 -8.893470121989958" fill="#ff740a" stroke="none" /><path d="M 87.36589467227662 116.77436683061367 l -8.734976373821857 11.597473200552662 a35.518994348396284,35.518994348396284 0 0,0 -0.485208527207481,-0.3720372083096803 l 8.933313629522823 -11.445396650415613" fill="#ffa50f" stroke="none" /><path d="M 86.79598089348748 116.32954008644616 l -6.810589947067762 8.422723464413732 a31.831731439852362,31.831731439852362 0 0,0 -0.4231041478574275,-0.3481859089029253 l 6.954564223469879 -8.304242436653626" fill="#ff720a" stroke="none" /><path d="M 85.97065885151581 115.62618273729859 l -8.271449023042507 9.212918309444422 a33.381225008749624,33.381225008749624 0 0,0 -0.42426019019921785,-0.3875516246349642 l 8.428808762708579 -9.069173918222884" fill="#ff880c" stroke="none" /><path d="M 85.44109423537348 115.13401014063109 l -5.851431296914488 6.0825739252926425 a29.440198681261023,29.440198681261023 0 0,0 -0.36218460625570786,-0.3544738669759976 l 5.95526585554599 -5.980949955394075" fill="#ff5007" stroke="none" /><path d="M 84.9287848128048 114.62390073753433 l -10.807297991180107 10.486536825394815 a36.05872320153761,36.05872320153761 0 0,0 -0.42840072402015317,-0.449176446411606 l 10.986205266579217 -10.298953262400708" fill="#ffac0f" stroke="none" /><path d="M 84.67929136418377 114.36230785411682 l -6.386464239688338 5.986953194533178 a29.75388679606659,29.75388679606659 0 0,0 -0.34706292603737915,-0.37666826045319796 l 6.488573573721446 -5.876133679278635" fill="#ff5507" stroke="none" /><path d="M 82.6465618267979 111.8261652097733 l -9.792059090854861 6.673173776660533 a32.84971178941932,32.84971178941932 0 0,0 -0.3144138122774191,-0.47000598912849306 l 9.905476008543012 -6.503630873326219" fill="#ff800b" stroke="none" /><path d="M 82.44556493220864 111.52570212397912 l -5.792814633313902 3.803383912109205 a27.929821827350743,27.929821827350743 0 0,0 -0.26040587050194813,-0.4041556938749693 l 5.857425367192895 -3.703106618312787" fill="#ff3a05" stroke="none" /><path d="M 82.24976979558568 111.22182372390057 l -5.23655589049191 3.3105884513452315 a27.195281550375732,27.195281550375732 0 0,0 -0.24674584616820147,-0.397832869610951 l 5.292766376328067 -3.2199592503690164" fill="#ff3004" stroke="none" /><line stroke="#e1ed5e" stroke-width="0.3" x1="26.63291911575756" x2="22.317208475507996" y1="142.92168965132927" y2="145.44649492493687" /><path d="M 25.769776987707644 143.4266507060508 a86.0,86.0 0 0,1 -11.730757126820373,-40.83630448921669" fill="none" id="id45" stroke="none" /><text fill="#e1ed5e" style="font-size:6.75px; font-family:Arial;" text-anchor="middle"><textPath startOffset="21.46611528233685" xlink:href="#id45">September</textPath></text><path d="M 81.87401531095188 110.60418214915194 l -10.802141385197503 6.319539424456069 a33.51490459584296,33.51490459584296 0 0,0 -0.28702803289075596,-0.500457569009932 l 10.909321414240635 -6.132662009587831" fill="#ff8a0c" stroke="none" /><path d="M 81.69416730710424 110.29060199501025 l -8.68220483066931 4.880691080840416 a30.960011352819468,30.960011352819468 0 0,0 -0.2571503020752658,-0.46680249262098844 l 8.764931542196091 -4.7305180698216045" fill="#ff6609" stroke="none" /><path d="M 81.35079622478065 109.6543875284942 l -8.403852619407598 4.350536939701475 a30.463187122340496,30.463187122340496 0 0,0 -0.23706355057536924,-0.4677488755100808 l 8.477494839769234 -4.205233852488709" fill="#ff5f08" stroke="none" /><path d="M 81.18737489456691 109.33194174019688 l -5.948255711221629 2.950612976223221 a27.63986919611656,27.63986919611656 0 0,0 -0.2077553971524831,-0.42803765325009674 l 5.998164364988831 -2.8477863670078394" fill="#ff3605" stroke="none" /><path d="M 80.73074385275274 108.34839909993369 l -8.138592101577514 3.5260424406804836 a29.869591686731688,29.869591686731688 0 0,0 -0.20033822291726638,-0.4735403800220622 l 8.198081305687086 -3.3854275349922625" fill="#ff5608" stroke="none" /><path d="M 80.58989483394504 108.01547362559985 l -11.660556755016769 4.815269383140778 a33.61568084049292,33.61568084049292 0 0,0 -0.21625669530993386,-0.536731382676751 l 11.741716064584091 -4.613838632621221" fill="#ff8b0c" stroke="none" /><path d="M 80.20201598880116 107.00284435728193 l -6.0297954477270705 2.132829231642705 a27.395888810226435,27.395888810226435 0 0,0 -0.15342893897821128,-0.44593631516504195 l 6.06561521764851 -2.0287202133883664" fill="#ff3304" stroke="none" /><path d="M 79.97269907076064 106.31721596034903 l -3.778638134341264 1.191896662210424 a24.962161506512118,24.962161506512118 0 0,0 -0.12572992322700105,-0.4108926637905133 l 3.798594830074395 -1.1266770258678627" fill="#ff0f01" stroke="none" /><path d="M 79.76711848015287 105.62410040840567 l -49.11932055984698 13.653615801103744 a71.98165235361793,71.98165235361793 0 0,0 -0.3215589178757383,-1.1966403562692538 l 49.3470675540645 -12.80608451165895" fill="#3effb2" stroke="none" /><path d="M 79.35854240842038 103.8639653848113 l -7.0033916857822405 1.3109957438847188 a28.125040697776235,28.125040697776235 0 0,0 -0.08498256626804802,-0.47662736281922924 l 7.024920694389477 -1.1902496303322758" fill="#ff3d05" stroke="none" /><path d="M 79.23777060512086 103.15116336523772 l -10.754874162014804 1.6323085932882344 a31.878039785940125,31.878039785940125 0 0,0 -0.07767000749420187,-0.543223851513696 l 10.781378220525605 -1.446939269794138" fill="#ff730a" stroke="none" /><path d="M 79.0095281055655 100.63252640178507 l -6.109544678343663 0.1841048801271833 a27.11231795504488,27.11231795504488 0 0,0 -0.010041805215165997,-0.46660322983282704 l 6.111808546243837 -0.07891183450422741" fill="#ff2e04" stroke="none" /><line stroke="#e1ed5e" stroke-width="0.3" x1="15.007084014347285" x2="10.007500721073583" y1="101.09737516637583" y2="101.16192664675087" /><path d="M 14.007167355692545 101.11028546245083 a86.0,86.0 0 0,1 10.666146001902534,-42.60595125391555" fill="none" id="id46" stroke="none" /><text fill="#e1ed5e" style="font-size:6.75px; font-family:Arial;" text-anchor="middle"><textPath startOffset="22.20632615414155" xlink:href="#id46">October</textPath></text><path d="M 79.00486145842228 99.54816195383935 l -3.8123545611950047 -0.08204598568333818 a24.813237318084347,24.813237318084347 0 0,0 0.012865433783994887,-0.42694111343104973 l 3.8103774329553644 0.1476572465393823" fill="#ff0c01" stroke="none" /><path d="M 79.05617556472873 98.46500227214037 l -5.442987874476306 -0.3989230355664242 a26.457587066644162,26.457587066644162 0 0,0 0.037198757858727,-0.45391906687501765 l 5.435314632798082 0.49255601964922024" fill="#ff2503" stroke="none" /><path d="M 79.08570108090925 98.10471618934814 l -50.22964990015533 -4.551883026955115 a71.43547727724261,71.43547727724261 0 0,0 0.12151812269547367,-1.223670912020563 l 50.14385465177762 5.415829469680108" fill="#3dffac" stroke="none" /><path d="M 80.02781315780177 93.51064311812611 l -6.364742636379698 -2.068030244013117 a27.69228644915193,27.69228644915193 0 0,0 0.1512034526622398,-0.45207907792138 l 6.328201889945685 2.1772824248568194" fill="#ff3705" stroke="none" /><path d="M 81.43458229118936 90.18545643968196 l -7.288986864818433 -3.853297578184656 a29.244830607207124,29.244830607207124 0 0,0 0.23910002642786687,-0.4430160359701493 l 7.221578739172095 3.978194597487278" fill="#ff4d07" stroke="none" /><path d="M 81.6062741919709 89.86733742301443 l -5.8190349097856995 -3.205566826424058 a27.64355521990862,27.64355521990862 0 0,0 0.23318307498655017,-0.4148066711343604 l 5.762994193506719 3.305257007493203" fill="#ff3605" stroke="none" /><line stroke="#e1ed5e" stroke-width="0.3" x1="26.266209847984243" x2="21.928928074336255" y1="57.711370442889674" y2="55.22380399835377" /><path d="M 25.398753493254645 57.213857153982495 a86.0,86.0 0 0,1 29.58750427330803,-30.492523968695096" fill="none" id="id47" stroke="none" /><text fill="#e1ed5e" style="font-size:6.75px; font-family:Arial;" text-anchor="middle"><textPath startOffset="21.46611528233685" xlink:href="#id47">November</textPath></text><path d="M 81.78341655067845 89.55222093294921 l -10.337093185616265 -5.928645516833031 a32.916557103139255,32.916557103139255 0 0,0 0.286123764234437,-0.4890782614575327 l 10.233509746911503 6.105703190644456" fill="#ff810b" stroke="none" /><path d="M 82.7489923806493 88.02491185347247 l -5.339180422860625 -3.7062853141546843 a27.49949216614474,27.49949216614474 0 0,0 0.2732760465179295,-0.3865295877037892 l 5.274591756538818 3.7976414021902594" fill="#ff3404" stroke="none" /><path d="M 83.6137871275137 86.86637796730984 l -9.405927279585093 -7.538892282088135 a33.054308973548466,33.054308973548466 0 0,0 0.3596647354204121,-0.44090643838840704 l 9.274764052088289 7.699682890084624" fill="#ff830c" stroke="none" /><path d="M 83.84228863543731 86.58626213691792 l -11.337246287394187 -9.411905334677456 a35.734894482484876,35.734894482484876 0 0,0 0.3969796005200594,-0.46989863320409925 l 11.173556073387005 9.60566291751067" fill="#ffa80f" stroke="none" /><path d="M 84.80347519578584 85.50635884689758 l -8.599244335525464 -8.201504172348157 a32.883251820571296,32.883251820571296 0 0,0 0.39418521947082324,-0.4062425185237036 l 8.456794852351523 8.348310886421984" fill="#ff810b" stroke="none" /><path d="M 85.57189188830299 84.74124197986013 l -4.960761445416138 -5.246360638916849 a28.22034999649624,28.22034999649624 0 0,0 0.3558345807439078,-0.33070946254790773 l 4.869718980877375 5.330974687539404" fill="#ff3f05" stroke="none" /><path d="M 86.10567301691215 84.25364557470407 l -5.912801954148852 -6.700941710234517 a29.936657470942208,29.936657470942208 0 0,0 0.3893279430048436,-0.33762135567254126 l 5.796580212497235 6.801728059326739" fill="#ff5708" stroke="none" /><path d="M 87.51073957382395 83.11751280151077 l -6.413615018535807 -8.669670561079132 a31.784138595345954,31.784138595345954 0 0,0 0.4426390570414028,-0.32159609949677087 l 6.263430645140622 8.77878589539257" fill="#ff710a" stroke="none" /><path d="M 88.09926311788651 82.69761687909137 l -4.919966665146171 -7.153098923681122 a29.681756515712564,29.681756515712564 0 0,0 0.42345309113693297,-0.2859174173895296 l 4.7961088796026985 7.236728253369317" fill="#ff5407" stroke="none" /><line stroke="#e1ed5e" stroke-width="0.3" x1="56.762969772571076" x2="54.21961505331055" y1="26.818313649435495" y2="22.513508569990535" /><path d="M 56.25429882871897 25.957352633546506 a86.0,86.0 0 0,1 42.265352541879196,-11.944610805530505" fill="none" id="id48" stroke="none" /><text fill="#e1ed5e" style="font-size:6.75px; font-family:Arial;" text-anchor="middle"><textPath startOffset="22.20632615414155" xlink:href="#id48">December</textPath></text><path d="M 89.94658935756843 81.56283822128135 l -5.524840599248734 -10.132121680184826 a32.540526564640736,32.540526564640736 0 0,0 0.4940813373196651,-0.26392113927586963 l 5.349614215400764 10.225721545962445" fill="#ff7c0b" stroke="none" /><path d="M 90.26544431104013 81.39251694778311 l -3.9035982702426457 -7.461679914018171 a29.42108939476975,29.42108939476975 0 0,0 0.4507584264990769,-0.230895973605097 l 3.7745793561548053 7.527768412935773" fill="#ff5007" stroke="none" /><path d="M 93.25333710446033 80.11325718540243 l -2.688900216587101 -7.925913579695171 a29.369605154818146,29.369605154818146 0 0,0 0.48014714064795017,-0.1582969632119368 l 2.552070253696742 7.971024267166342" fill="#ff4f07" stroke="none" /><path d="M 93.94186890950719 79.89281104454417 l -3.0377748286714237 -10.082500951503018 a31.530189995758338,31.530189995758338 0 0,0 0.5210135412174886,-0.15209813981339257 l 2.8637710697305137 10.13329742023511" fill="#ff6e0a" stroke="none" /><path d="M 94.63758080256005 79.69619591428918 l -1.8598478421336764 -7.0419683403233355 a28.283429968222766,28.283429968222766 0 0,0 0.4717825769223212,-0.12026788353476563 l 1.7383563765263559 7.0729392200269645" fill="#ff4006" stroke="none" /></svg>